# created by Ethan Wu and Zhan isaac Ling
mtllib model.mtl
v 0.303301 -0.196789 -0.305219
v 0.303310 -0.243794 -0.000000
v 0.303315 -0.243786 -0.305222
vn 0.980785 0.000000 -0.195090
vn 0.707107 -0.707107 0.000000
vn 0.873790 -0.454182 -0.173808
v 0.303310 -0.196795 -0.000000
vn 1.000000 0.000000 0.000000
v 0.303260 -0.243757 -0.305211
v 0.303266 -0.243749 -0.000000
v 0.303274 -0.196845 -0.305214
vn -0.873790 0.454182 0.173808
vn -0.707107 0.707107 0.000000
vn -0.980785 0.000000 0.195090
v 0.303266 -0.196839 -0.000000
vn -1.000000 0.000000 0.000000
v -0.152866 -0.243786 -0.305222
vn -0.873790 -0.454182 -0.173808
v -0.152811 -0.243757 -0.305211
vn 0.873790 0.454182 0.173808
v 0.300755 -0.196799 -0.311390
vn 0.707107 0.000000 -0.707107
v 0.300720 -0.196836 -0.311354
vn -0.707107 0.000000 0.707107
v 0.263041 -0.196786 -0.000000
vn 0.000000 1.000000 0.000000
v 0.263041 -0.196849 -0.000000
vn 0.000000 -1.000000 0.000000
v -0.152860 -0.243794 -0.000000
vn -0.707107 -0.707107 0.000000
v -0.152816 -0.243749 -0.000000
vn 0.707107 0.707107 0.000000
v -0.150308 -0.243786 -0.311392
vn -0.621876 -0.475963 -0.621876
v -0.150269 -0.243757 -0.311352
vn 0.621876 0.475963 0.621876
v 0.300757 -0.243786 -0.311392
vn 0.621876 -0.475963 -0.621876
v 0.300718 -0.243757 -0.311352
vn -0.621876 0.475963 0.621876
v -0.152854 -0.196790 -0.305220
v -0.152822 -0.196844 -0.305213
v 0.263041 -0.196786 -0.273675
v 0.263041 -0.196849 -0.273675
v -0.152866 -0.196803 -0.000000
vn -1.000000 0.000000 0.000000
v -0.152810 -0.196831 -0.000000
vn 1.000000 0.000000 0.000000
vn -0.980785 0.000000 -0.195090
vn 0.980785 0.000000 0.195090
v 0.294587 -0.243786 -0.313950
vn 0.173808 -0.454182 -0.873790
v 0.294577 -0.243757 -0.313894
vn -0.173808 0.454182 0.873790
v -0.099161 -0.196794 -0.273660
v -0.099192 -0.196840 -0.273691
v -0.150301 -0.196791 -0.311384
v -0.150276 -0.196843 -0.311360
v 0.124292 -0.196788 -0.273668
v 0.124306 -0.196847 -0.273683
v 0.243735 -0.196849 -0.000000
vn -0.707107 0.000000 -0.707107
vn 0.707107 0.000000 0.707107
v -0.144138 -0.243786 -0.313950
vn -0.173808 -0.454182 -0.873790
v -0.144127 -0.243757 -0.313894
vn 0.173808 0.454182 0.873790
v 0.294587 -0.196800 -0.313947
vn 0.195090 0.000000 -0.980785
v 0.294577 -0.196835 -0.313896
vn -0.195090 0.000000 0.980785
v -0.099162 -0.196789 -0.000000
v -0.099190 -0.196845 -0.000000
v 0.149827 -0.196849 -0.080493
v 0.243735 -0.196849 -0.080493
v -0.144138 -0.196807 -0.313950
vn -0.195090 0.000000 -0.980785
v -0.144127 -0.196827 -0.313893
vn 0.195090 0.000000 0.980785
v -0.099208 -0.210233 -0.000000
v 0.124321 -0.210233 -0.273698
vn 0.000000 0.000000 -1.000000
v 0.124321 -0.196839 -0.000000
v 0.217976 -0.196849 -0.080493
v 0.217976 -0.196849 -0.000000
v -0.099199 -0.210233 -0.273698
v 0.124277 -0.210233 -0.273653
v 0.124277 -0.196795 -0.000000
v 0.149827 -0.196849 -0.000000
v 0.124268 -0.210233 -0.000000
v 0.124330 -0.210233 -0.000000
v 0.243735 -0.196786 -0.000000
v 0.149827 -0.196786 -0.080493
v 0.243735 -0.196786 -0.080493
v -0.099145 -0.210233 -0.000000
vn 0.000000 0.000000 1.000000
v 0.217976 -0.196786 -0.080493
v -0.099154 -0.210233 -0.273653
v 0.149827 -0.196786 -0.000000
v 0.217976 -0.196786 -0.000000
v 0.303315 -0.243786 0.305222
v 0.303310 -0.243794 -0.000000
v 0.303301 -0.196789 0.305219
vn 0.873790 -0.454182 0.173808
vn 0.707107 -0.707107 0.000000
vn 0.980785 0.000000 0.195090
v 0.303274 -0.196845 0.305214
v 0.303266 -0.243749 -0.000000
v 0.303260 -0.243757 0.305211
vn -0.980785 0.000000 -0.195090
vn -0.707107 0.707107 0.000000
vn -0.873790 0.454182 -0.173808
v -0.152866 -0.243786 0.305222
vn -0.873790 -0.454182 0.173808
v -0.152811 -0.243757 0.305211
vn 0.873790 0.454182 -0.173808
v 0.303310 -0.196795 -0.000000
vn 1.000000 0.000000 0.000000
v 0.303266 -0.196839 -0.000000
vn -1.000000 0.000000 0.000000
v 0.300755 -0.196799 0.311390
vn 0.707107 0.000000 0.707107
v 0.300720 -0.196836 0.311354
vn -0.707107 0.000000 -0.707107
v -0.150308 -0.243786 0.311392
vn -0.621876 -0.475963 0.621876
v -0.150269 -0.243757 0.311352
vn 0.621876 0.475963 -0.621876
v -0.152860 -0.243794 -0.000000
vn -0.707107 -0.707107 0.000000
v -0.152816 -0.243749 -0.000000
vn 0.707107 0.707107 0.000000
v 0.263041 -0.196786 -0.000000
vn 0.000000 1.000000 0.000000
v 0.263041 -0.196849 -0.000000
vn 0.000000 -1.000000 0.000000
v -0.152854 -0.196790 0.305220
v -0.152822 -0.196844 0.305213
v 0.300757 -0.243786 0.311392
vn 0.621876 -0.475963 0.621876
v 0.300718 -0.243757 0.311352
vn -0.621876 0.475963 -0.621876
vn -0.980785 0.000000 0.195090
vn 0.980785 0.000000 -0.195090
v -0.152866 -0.196803 -0.000000
vn -1.000000 0.000000 0.000000
v -0.152810 -0.196831 -0.000000
vn 1.000000 0.000000 0.000000
v 0.263041 -0.196786 0.273675
v 0.263041 -0.196849 0.273675
v -0.099161 -0.196794 0.273660
v -0.099192 -0.196840 0.273691
v -0.150301 -0.196791 0.311384
v -0.150276 -0.196843 0.311360
v 0.294587 -0.243786 0.313950
vn 0.173808 -0.454182 0.873790
v 0.294577 -0.243757 0.313894
vn -0.173808 0.454182 -0.873790
vn -0.707107 0.000000 0.707107
vn 0.707107 0.000000 -0.707107
v -0.144138 -0.243786 0.313950
vn -0.173808 -0.454182 0.873790
v -0.144127 -0.243757 0.313894
vn 0.173808 0.454182 -0.873790
v 0.124292 -0.196788 0.273668
v 0.124306 -0.196847 0.273683
v 0.243735 -0.196849 -0.000000
v -0.099162 -0.196789 -0.000000
v -0.099190 -0.196845 -0.000000
v 0.294587 -0.196800 0.313947
v 0.294577 -0.196835 0.313896
vn 0.195090 0.000000 0.980785
vn -0.195090 0.000000 -0.980785
v -0.144138 -0.196807 0.313950
vn -0.195090 0.000000 0.980785
v -0.144127 -0.196827 0.313893
vn 0.195090 0.000000 -0.980785
v 0.149827 -0.196849 0.080493
v 0.243735 -0.196849 0.080493
v 0.124321 -0.210233 0.273698
vn 0.000000 0.000000 1.000000
v -0.099208 -0.210233 -0.000000
v 0.217976 -0.196849 0.080493
v 0.124321 -0.196839 -0.000000
v 0.217976 -0.196849 -0.000000
v 0.124277 -0.196795 -0.000000
v 0.124277 -0.210233 0.273653
v -0.099199 -0.210233 0.273698
v 0.149827 -0.196849 -0.000000
v 0.124268 -0.210233 -0.000000
v 0.124330 -0.210233 -0.000000
v 0.243735 -0.196786 -0.000000
v 0.149827 -0.196786 0.080493
v 0.243735 -0.196786 0.080493
vn 0.000000 0.000000 -1.000000
v -0.099145 -0.210233 -0.000000
v 0.217976 -0.196786 0.080493
v -0.099154 -0.210233 0.273653
v 0.149827 -0.196786 -0.000000
v 0.217976 -0.196786 -0.000000
v -0.155073 -0.188409 0.313947
v -0.187499 -0.197098 0.313950
v -0.153472 -0.194364 0.311388
vn 0.050493 -0.188442 0.980785
vn -0.393721 -0.285437 0.873790
vn 0.183013 -0.683013 0.707107
v -0.153524 -0.194345 0.311356
v -0.187475 -0.197080 0.313894
v -0.155110 -0.188408 0.313896
vn -0.183013 0.683013 -0.707107
vn 0.393721 0.285437 -0.873790
vn -0.050493 0.188442 -0.980785
v -0.301050 0.226679 0.313950
vn -0.393721 -0.285437 0.873790
vn -0.483691 0.050335 0.873790
v -0.301020 0.226675 0.313894
vn 0.483691 -0.050335 -0.873790
vn 0.393721 0.285437 -0.873790
v -0.185903 -0.203057 0.311392
vn -0.298792 -0.723874 0.621876
v -0.185885 -0.203012 0.311352
vn 0.298792 0.723874 -0.621876
v -0.270215 0.241324 0.311388
vn 0.965926 0.258819 0.000000
v -0.270249 0.241282 0.311356
vn -0.965926 -0.258819 0.000000
v -0.268627 0.235366 0.313950
vn -0.050493 0.188442 0.980785
v -0.268651 0.235348 0.313894
vn 0.050493 -0.188442 -0.980785
vn -0.298792 -0.723874 0.621876
vn 0.298792 0.723874 -0.621876
v -0.152809 -0.196830 0.305220
vn 0.253846 -0.947366 0.195090
v -0.152867 -0.196805 0.305212
vn -0.253846 0.947366 -0.195090
v -0.270873 0.243791 0.305220
v -0.270912 0.243742 0.305213
vn -0.183013 0.683013 0.707107
vn 0.183013 -0.683013 -0.707107
v -0.302647 0.232638 0.311392
vn -0.620698 0.477498 0.621876
v -0.302609 0.232608 0.311352
vn 0.620698 -0.477498 -0.621876
v -0.185241 -0.205528 0.305222
vn -0.212552 -0.961568 0.173808
v -0.185227 -0.205467 0.305211
vn 0.212552 0.961568 -0.173808
vn -0.253846 0.947366 0.195090
vn -0.620698 0.477498 0.621876
vn 0.620698 -0.477498 -0.621876
vn 0.253846 -0.947366 -0.195090
vn -0.620698 0.477498 0.621876
vn 0.620698 -0.477498 -0.621876
vn -0.212552 -0.961568 0.173808
vn 0.212552 0.961568 -0.173808
v -0.185249 -0.205525 -0.000000
vn -0.500000 -0.866026 0.000000
v -0.185218 -0.205471 -0.000000
vn 0.500000 0.866026 0.000000
v -0.263920 0.217850 0.287077
v -0.263976 0.217849 0.287105
v -0.303309 0.235109 0.305222
vn -0.664859 0.726466 0.173808
v -0.303267 0.235063 0.305211
vn 0.664859 -0.726466 -0.173808
v -0.152811 -0.196833 -0.000000
vn 0.258819 -0.965926 0.000000
v -0.152865 -0.196802 -0.000000
vn -0.258819 0.965926 0.000000
v -0.166712 -0.144958 0.287081
v -0.166742 -0.145010 0.287101
v -0.270876 0.243794 -0.000000
v -0.270908 0.243739 -0.000000
vn -0.258819 0.965926 0.000000
vn 0.258819 -0.965926 0.000000
v -0.303315 0.235102 -0.000000
vn -0.866026 0.500000 0.000000
v -0.303261 0.235070 -0.000000
vn 0.866026 -0.500000 0.000000
v -0.166703 -0.144963 -0.000000
v -0.166750 -0.145005 -0.000000
v -0.173188 -0.146704 0.287070
vn 0.000000 0.000000 -1.000000
v -0.173223 -0.146736 0.287112
vn 0.000000 0.000000 1.000000
v -0.263927 0.217826 -0.000000
v -0.263969 0.217873 -0.000000
v -0.173200 -0.146689 -0.000000
vn -0.258819 0.965926 0.000000
v -0.173212 -0.146751 -0.000000
vn 0.258819 -0.965926 0.000000
v -0.270408 0.216092 0.287078
v -0.270446 0.216135 0.287104
vn 0.258819 -0.965926 0.000000
vn -0.258819 0.965926 0.000000
v -0.270458 0.216120 -0.000000
vn -0.965926 -0.258819 0.000000
v -0.270396 0.216107 -0.000000
vn 0.965926 0.258819 0.000000
vt 0.19961 -0.283536
vt 0.19961 -0.521314
vt 0.017879 -0.283536
vt 0.017879 -0.521314
v -0.153472 -0.194364 -0.311388
v -0.187499 -0.197098 -0.313950
v -0.155073 -0.188409 -0.313947
vn 0.183013 -0.683013 -0.707107
vn -0.393721 -0.285437 -0.873790
vn 0.050493 -0.188442 -0.980785
v -0.185903 -0.203057 -0.311392
vn -0.298792 -0.723874 -0.621876
v -0.155110 -0.188408 -0.313896
v -0.187475 -0.197080 -0.313894
v -0.153524 -0.194345 -0.311356
vn -0.050493 0.188442 0.980785
vn 0.393721 0.285437 0.873790
vn -0.183013 0.683013 0.707107
v -0.185885 -0.203012 -0.311352
vn 0.298792 0.723874 0.621876
v -0.301050 0.226679 -0.313950
vn -0.483691 0.050335 -0.873790
vn -0.393721 -0.285437 -0.873790
v -0.301020 0.226675 -0.313894
vn 0.393721 0.285437 0.873790
vn 0.483691 -0.050335 0.873790
v -0.270215 0.241324 -0.311388
vn 0.965926 0.258819 0.000000
v -0.270249 0.241282 -0.311356
vn -0.965926 -0.258819 0.000000
v -0.152809 -0.196830 -0.305220
vn 0.253846 -0.947366 -0.195090
v -0.152867 -0.196805 -0.305212
vn -0.253846 0.947366 0.195090
vn -0.298792 -0.723874 -0.621876
vn 0.298792 0.723874 0.621876
v -0.268627 0.235366 -0.313950
vn -0.050493 0.188442 -0.980785
v -0.268651 0.235348 -0.313894
vn 0.050493 -0.188442 0.980785
v -0.270873 0.243791 -0.305220
v -0.270912 0.243742 -0.305213
v -0.185241 -0.205528 -0.305222
vn -0.212552 -0.961568 -0.173808
v -0.185227 -0.205467 -0.305211
vn 0.212552 0.961568 0.173808
v -0.302647 0.232638 -0.311392
vn -0.620698 0.477498 -0.621876
v -0.302609 0.232608 -0.311352
vn 0.620698 -0.477498 0.621876
vn -0.183013 0.683013 -0.707107
vn 0.183013 -0.683013 0.707107
vn -0.620698 0.477498 -0.621876
vn -0.253846 0.947366 -0.195090
vn 0.253846 -0.947366 0.195090
vn 0.620698 -0.477498 0.621876
v -0.185249 -0.205525 -0.000000
vn -0.500000 -0.866026 0.000000
v -0.185218 -0.205471 -0.000000
vn 0.500000 0.866026 0.000000
vn -0.212552 -0.961568 -0.173808
vn 0.212552 0.961568 0.173808
v -0.263920 0.217850 -0.287077
v -0.263976 0.217849 -0.287105
vn -0.620698 0.477498 -0.621876
vn 0.620698 -0.477498 0.621876
v -0.303309 0.235109 -0.305222
vn -0.664859 0.726466 -0.173808
v -0.303267 0.235063 -0.305211
vn 0.664859 -0.726466 0.173808
v -0.152811 -0.196833 -0.000000
vn 0.258819 -0.965926 0.000000
v -0.152865 -0.196802 -0.000000
vn -0.258819 0.965926 0.000000
v -0.270876 0.243794 -0.000000
v -0.270908 0.243739 -0.000000
v -0.166712 -0.144958 -0.287081
v -0.166742 -0.145010 -0.287101
vn -0.258819 0.965926 0.000000
vn 0.258819 -0.965926 0.000000
v -0.166703 -0.144963 -0.000000
v -0.166750 -0.145005 -0.000000
v -0.303315 0.235102 -0.000000
vn -0.866026 0.500000 0.000000
v -0.303261 0.235070 -0.000000
vn 0.866026 -0.500000 0.000000
v -0.263927 0.217826 -0.000000
v -0.263969 0.217873 -0.000000
v -0.173188 -0.146704 -0.287070
vn 0.000000 0.000000 1.000000
v -0.173223 -0.146736 -0.287112
vn 0.000000 0.000000 -1.000000
v -0.270408 0.216092 -0.287078
vn 0.258819 -0.965926 0.000000
v -0.270446 0.216135 -0.287104
vn -0.258819 0.965926 0.000000
v -0.173200 -0.146689 -0.000000
vn -0.258819 0.965926 0.000000
v -0.173212 -0.146751 -0.000000
vn 0.258819 -0.965926 0.000000
v -0.270396 0.216107 -0.000000
v -0.270458 0.216120 -0.000000
vn -0.965926 -0.258819 0.000000
vn 0.965926 0.258819 0.000000
vt 0.19961 -0.521314
vt 0.017879 -0.283536
vt 0.017879 -0.521314
vt 0.19961 -0.283536
v 0.124299 -0.203494 -0.273675
v -0.099176 -0.203494 0.273675
v 0.124299 -0.203494 0.273675
vn 0.000000 1.000000 0.000000
vt 1.0 1.0
vt 0.0 2.00398
vt 0.0 1.0
v -0.099176 -0.203494 -0.273675
vt 1.0 2.00398
v 0.124299 -0.203556 0.273675
v -0.099176 -0.203556 0.273675
v 0.124299 -0.203556 -0.273675
vn 0.000000 -1.000000 0.000000
v -0.099176 -0.203556 -0.273675
g mesh1-geometry-0
usemtl Material.57774a50243e5d429f3a4ea105ec3930
f 1//1 2//2 3//3
f 2//2 1//1 4//4
f 5//5 6//6 7//7
f 8//8 7//7 6//6
f 2//2 9//9 3//3
f 5//5 10//10 6//6
f 3//3 11//11 1//1
f 7//7 12//12 5//5
f 1//13 13//13 4//13
f 8//14 14//14 7//14
f 9//9 2//2 15//15
f 16//16 6//6 10//10
f 3//3 9//9 17//17
f 18//18 10//10 5//5
f 11//11 3//3 19//19
f 20//20 5//5 12//12
f 21//13 1//13 11//13
f 12//14 7//14 22//14
f 13//13 1//13 23//13
f 24//14 7//14 14//14
f 25//21 9//9 15//15
f 16//16 10//10 26//22
f 21//23 17//17 9//9
f 10//10 18//18 22//24
f 3//3 17//17 19//19
f 20//20 18//18 5//5
f 27//25 11//11 19//19
f 20//20 12//12 28//26
f 21//13 29//13 1//13
f 7//14 30//14 22//14
f 21//13 11//13 31//13
f 32//14 12//14 22//14
f 23//13 1//13 33//13
f 34//14 7//14 24//14
f 14//14 35//14 24//14
f 9//9 25//21 21//23
f 22//24 26//22 10//10
f 17//17 21//23 31//27
f 32//28 22//24 18//18
f 19//19 17//17 36//29
f 37//30 18//18 20//20
f 11//11 27//25 38//31
f 39//32 28//26 12//12
f 19//19 36//29 27//25
f 28//26 37//30 20//20
f 21//13 40//13 29//13
f 30//14 41//14 22//14
f 33//13 1//13 29//13
f 30//14 7//14 34//14
f 31//13 11//13 38//13
f 39//14 12//14 32//14
f 24//14 42//14 34//14
f 43//14 24//14 35//14
f 40//13 21//13 25//13
f 26//14 22//14 41//14
f 44//33 17//17 31//27
f 32//28 18//18 45//34
f 17//17 44//33 36//29
f 37//30 45//34 18//18
f 36//29 38//31 27//25
f 28//26 39//32 37//30
f 41//8 30//8 46//8
f 34//35 47//35 30//35
f 31//13 38//13 44//13
f 45//14 39//14 32//14
f 34//14 42//14 48//14
f 42//14 24//14 49//14
f 49//14 24//14 43//14
f 35//14 50//14 43//14
f 38//31 36//29 44//33
f 45//34 37//30 39//32
f 51//8 46//8 30//8
f 51//35 30//35 47//35
f 52//21 53//21 33//21
f 34//22 48//22 47//22
f 54//14 48//14 42//14
f 42//14 49//14 54//14
f 49//14 43//14 50//14
f 53//21 52//21 55//21
f 56//22 47//22 48//22
f 50//14 54//14 49//14
g mesh1-geometry-1
usemtl Material.dc7a3ca9ca091ddbf48733c3a604f557
f 23//13 57//13 13//13
f 33//13 58//13 23//13
f 57//13 23//13 59//13
f 60//4 29//4 40//4
f 29//36 52//36 33//36
f 53//13 58//13 33//13
f 61//13 23//13 58//13
f 59//13 23//13 61//13
f 29//4 60//4 62//4
f 52//36 29//36 62//36
f 58//13 53//13 63//13
f 63//13 61//13 58//13
f 61//13 63//13 64//13
g mesh1-geometry-2
usemtl Material.90b00bf69165eda831fe702671104217
f 59//13 64//13 57//13
f 64//13 59//13 61//13
g mesh4-geometry-0
usemtl Material.57774a50243e5d429f3a4ea105ec3930
f 65//37 66//38 67//39
f 68//40 69//41 70//42
f 65//37 71//43 66//38
f 69//41 72//44 70//42
f 73//45 67//39 66//38
f 69//41 68//40 74//46
f 67//39 75//47 65//37
f 70//42 76//48 68//40
f 77//49 71//43 65//37
f 70//42 72//44 78//50
f 79//51 66//38 71//43
f 72//44 69//41 80//52
f 73//53 81//53 67//53
f 68//54 82//54 74//54
f 75//53 67//53 83//53
f 84//54 68//54 76//54
f 85//55 65//37 75//47
f 76//48 70//42 86//56
f 71//43 77//49 83//57
f 84//58 78//50 72//44
f 85//55 77//49 65//37
f 70//42 78//50 86//56
f 79//51 71//43 87//59
f 88//60 72//44 80//52
f 89//53 67//53 81//53
f 82//54 68//54 90//54
f 67//53 91//53 83//53
f 84//54 92//54 68//54
f 93//53 75//53 83//53
f 84//54 76//54 94//54
f 85//55 75//47 95//61
f 96//62 76//48 86//56
f 93//63 83//57 77//49
f 78//50 84//58 94//64
f 83//57 87//59 71//43
f 72//44 88//60 84//58
f 97//65 77//49 85//55
f 86//56 78//50 98//66
f 99//53 67//53 89//53
f 90//54 68//54 100//54
f 90//54 101//54 82//54
f 91//53 67//53 99//53
f 100//54 68//54 92//54
f 91//53 102//53 83//53
f 84//54 103//54 92//54
f 104//53 75//53 93//53
f 94//54 76//54 105//54
f 104//67 95//61 75//47
f 76//48 96//62 105//68
f 95//61 97//65 85//55
f 86//56 98//66 96//62
f 93//63 77//49 106//69
f 107//70 78//50 94//64
f 87//53 83//53 102//53
f 103//54 84//54 88//54
f 97//65 106//69 77//49
f 78//50 107//70 98//66
f 100//54 108//54 90//54
f 101//54 90//54 109//54
f 92//71 110//71 100//71
f 111//46 92//46 103//46
f 106//53 104//53 93//53
f 94//54 105//54 107//54
f 95//61 104//67 97//65
f 98//66 105//68 96//62
f 106//69 97//65 104//67
f 105//68 98//66 107//70
f 112//54 90//54 108//54
f 113//54 108//54 100//54
f 109//54 90//54 112//54
f 109//54 114//54 101//54
f 99//59 115//59 116//59
f 110//60 113//60 100//60
f 110//71 92//71 117//71
f 92//46 111//46 117//46
f 118//54 112//54 108//54
f 108//54 113//54 118//54
f 114//54 109//54 112//54
f 119//59 116//59 115//59
f 113//60 110//60 120//60
f 112//54 118//54 114//54
g mesh4-geometry-1
usemtl Material.dc7a3ca9ca091ddbf48733c3a604f557
f 81//53 121//53 89//53
f 89//53 122//53 99//53
f 123//53 89//53 121//53
f 99//72 116//72 91//72
f 102//45 91//45 124//45
f 122//53 89//53 125//53
f 99//53 122//53 115//53
f 125//53 89//53 123//53
f 126//72 91//72 116//72
f 126//45 124//45 91//45
f 122//53 125//53 127//53
f 127//53 115//53 122//53
f 128//53 127//53 125//53
g mesh4-geometry-2
usemtl Material.90b00bf69165eda831fe702671104217
f 121//53 128//53 123//53
f 125//53 123//53 128//53
g mesh7-geometry-0
usemtl Material.57774a50243e5d429f3a4ea105ec3930
f 129//73 130//74 131//75
f 132//76 133//77 134//78
f 130//79 129//73 135//80
f 136//81 134//78 133//82
f 137//83 131//75 130//74
f 133//77 132//76 138//84
f 129//85 131//85 139//85
f 140//86 132//86 134//86
f 141//87 135//80 129//73
f 134//78 136//81 142//88
f 130//74 135//80 137//89
f 138//90 136//81 133//77
f 131//75 137//83 143//91
f 144//92 138//84 132//76
f 139//85 131//85 145//85
f 146//86 132//86 140//86
f 141//85 129//85 139//85
f 140//86 134//86 142//86
f 141//87 139//93 135//80
f 136//81 140//94 142//88
f 135//80 147//95 137//89
f 138//90 148//96 136//81
f 149//97 143//91 137//83
f 138//84 144//92 150//98
f 131//85 143//85 145//85
f 146//86 144//86 132//86
f 139//93 145//99 147//100
f 148//101 146//102 140//94
f 147//103 135//80 139//93
f 140//94 136//81 148//104
f 137//89 147//95 149//105
f 150//106 148//96 138//90
f 149//97 151//107 143//91
f 144//92 152//108 150//98
f 143//85 153//85 145//85
f 146//86 154//86 144//86
f 155//109 147//100 145//99
f 146//102 148//101 156//110
f 147//95 155//109 149//105
f 150//106 156//110 148//96
f 149//105 155//109 151//107
f 152//108 156//110 150//106
f 157//111 143//91 151//107
f 152//108 144//92 158//112
f 153//85 143//85 159//85
f 160//86 144//86 154//86
f 145//85 153//85 161//85
f 162//86 154//86 146//86
f 145//99 161//113 155//109
f 156//110 162//114 146//102
f 163//115 151//107 155//109
f 156//110 152//108 164//116
f 157//85 165//85 143//85
f 144//86 166//86 158//86
f 159//85 143//85 165//85
f 166//86 144//86 160//86
f 159//117 167//117 153//117
f 154//118 168//118 160//118
f 169//85 161//85 153//85
f 154//86 162//86 170//86
f 163//115 155//109 161//113
f 162//114 156//110 164//116
f 165//119 171//119 159//119
f 160//120 172//120 166//120
f 167//119 159//119 171//119
f 172//120 160//120 168//120
f 173//117 153//117 167//117
f 168//118 154//118 174//118
f 153//121 173//121 169//121
f 170//122 174//122 154//122
f 168//123 175//123 172//123
f 175//123 168//123 174//123
f 176//121 169//121 173//121
f 174//122 170//122 175//122
g mesh7-geometry-1
usemtl Material.31d6b9102bbdb637bdd6578ff73179d5
f 171/1/124 176/2/124 167/3/124
f 173/4/124 167/3/124 176/2/124
g mesh10-geometry-0
usemtl Material.57774a50243e5d429f3a4ea105ec3930
f 177//125 178//126 179//127
f 178//126 177//125 180//128
f 181//129 182//130 183//131
f 184//132 183//131 182//130
f 185//133 179//127 178//134
f 182//135 181//129 186//136
f 187//137 177//137 179//137
f 181//138 183//138 188//138
f 189//139 180//128 177//125
f 183//131 184//132 190//140
f 180//141 185//133 178//126
f 182//130 186//136 184//142
f 179//127 185//133 191//143
f 192//144 186//136 181//129
f 193//137 177//137 187//137
f 188//138 183//138 194//138
f 187//137 179//137 191//137
f 192//138 181//138 188//138
f 180//128 189//139 195//145
f 196//146 190//140 184//132
f 193//137 189//137 177//137
f 183//138 190//138 194//138
f 180//141 197//147 185//133
f 186//136 198//148 184//142
f 185//133 187//149 191//143
f 192//144 188//150 186//136
f 197//151 193//152 187//149
f 188//150 194//153 198//154
f 189//139 199//155 195//145
f 196//146 200//156 190//140
f 195//157 197//147 180//141
f 184//142 198//148 196//158
f 193//137 201//137 189//137
f 190//138 202//138 194//138
f 187//149 185//133 197//159
f 198//160 186//136 188//150
f 193//152 197//151 203//161
f 204//162 198//154 194//153
f 199//155 189//139 205//163
f 206//164 190//140 200//156
f 199//155 203//161 195//157
f 196//158 204//162 200//156
f 195//157 203//161 197//147
f 198//148 204//162 196//158
f 207//137 201//137 193//137
f 194//138 202//138 208//138
f 209//137 189//137 201//137
f 202//138 190//138 210//138
f 203//161 207//165 193//152
f 194//153 208//166 204//162
f 189//137 211//137 205//137
f 206//138 212//138 190//138
f 203//161 199//155 213//167
f 214//168 200//156 204//162
f 201//137 207//137 215//137
f 216//138 208//138 202//138
f 211//137 189//137 209//137
f 210//138 190//138 212//138
f 201//169 217//169 209//169
f 210//170 218//170 202//170
f 207//165 203//161 213//167
f 214//168 204//162 208//166
f 215//171 219//171 201//171
f 202//172 220//172 216//172
f 209//173 221//173 211//173
f 212//174 222//174 210//174
f 217//169 201//169 219//169
f 220//170 202//170 218//170
f 221//173 209//173 217//173
f 218//174 210//174 222//174
f 219//171 215//171 223//171
f 224//172 216//172 220//172
f 220//175 218//175 224//175
f 222//175 224//175 218//175
g mesh10-geometry-1
usemtl Material.31d6b9102bbdb637bdd6578ff73179d5
f 223/5/176 217/6/176 219/7/176
f 217/6/176 223/5/176 221/8/176
g mesh13-geometry-0
usemtl Material.36745847009653cd435346fc3deb69a7
f 225/9/177 226/10/177 227/11/177
f 226/10/177 225/9/177 228/12/177
g mesh13-geometry-1
usemtl Material.b2cdaf4394d1a4f850458878b81c7fa1
f 229//178 230//178 231//178
f 232//178 231//178 230//178
