# created by Ethan Wu and Zhan isaac Ling
mtllib model.mtl
v -0.077951 0.015197 0.060639
v 0.051985 0.015197 -0.060635
v -0.077951 0.015197 -0.060635
vn 0.000000 1.000000 0.000000
vt 5.03846 -0.031902
vt 3.96154 0.925164
vt 3.96154 -0.031902
v 0.051985 0.015197 0.060639
vt 5.03846 0.925164
v -0.077951 0.015114 -0.060635
v 0.051985 0.015114 -0.060635
v -0.077951 0.015114 0.060639
vn 0.000000 -1.000000 0.000000
v 0.051985 0.015114 0.060639
v -0.277208 0.015176 -0.199204
v -0.277212 0.002138 -0.216583
v -0.277201 0.002200 -0.199222
vn -1.000000 0.000000 0.000000
v -0.277205 0.015173 -0.216593
v -0.271774 0.002203 -0.216566
v -0.277164 0.002186 -0.216535
vn 0.000000 1.000000 0.000000
v -0.271759 0.002198 -0.199220
vn 0.000000 0.000000 1.000000
v -0.266369 0.015192 -0.216577
v -0.271757 0.010808 -0.216593
vn 0.000000 0.000000 -1.000000
v -0.277188 0.002204 -0.220890
v -0.271761 0.010812 -0.199197
v -0.277168 0.002192 0.199259
v -0.266371 0.015189 -0.199212
vn 1.000000 0.000000 0.000000
v 0.277212 0.002178 0.415837
v 0.277215 0.002171 -0.415837
v -0.277212 0.002186 -0.415821
v -0.271774 0.002204 0.199239
v 0.051985 0.015197 -0.060635
v -0.266397 0.010812 -0.216572
v -0.277175 0.002202 0.216563
v -0.277208 0.015176 0.216594
v -0.277208 0.002132 0.199218
v -0.277201 0.002123 0.216563
v -0.277212 -0.015187 -0.415821
v -0.266396 0.010806 -0.199225
vn 0.000000 -1.000000 0.000000
v -0.271757 0.010808 0.199205
v -0.266382 0.015189 -0.218714
v -0.266377 0.015190 -0.197086
v 0.277100 -0.000104 0.415812
vn 0.991445 -0.130526 0.000000
vn 0.997859 -0.065403 0.000000
v -0.271757 0.002196 0.216580
v -0.277212 0.002186 0.415825
v -0.277205 0.015173 0.199205
v 0.259886 -0.015197 -0.415821
v 0.251222 0.015191 -0.415816
v -0.077951 0.015197 -0.060635
v -0.266384 0.006469 -0.218701
v 0.277100 -0.000104 -0.415808
v 0.276652 -0.002331 0.415825
v -0.277212 -0.015187 0.415825
v -0.266369 0.015192 0.199220
v -0.271761 0.010812 0.216601
v 0.262150 -0.015049 -0.415821
v 0.259885 -0.015192 0.415829
v -0.266378 0.006457 -0.197078
v -0.277212 0.015180 -0.218701
v 0.251222 0.015196 0.415808
v -0.277202 0.015192 0.197087
v -0.268525 0.015156 -0.218683
vn 0.965926 -0.258819 0.000000
v 0.276652 -0.002331 -0.415821
v 0.275922 -0.004481 0.415825
v -0.266371 0.015189 0.216586
v 0.264377 -0.014606 -0.415821
v 0.262150 -0.015049 0.415825
vn 0.130526 -0.991445 0.000000
vn 0.065403 -0.997859 0.000000
v -0.277215 0.006479 -0.197096
v -0.266397 0.010812 0.199226
v -0.266396 0.010806 0.216572
v -0.277212 0.015180 -0.415821
v 0.051985 0.015197 0.060639
v 0.253543 0.015111 -0.415821
vn 0.034248 0.999413 0.000000
vn 0.060354 0.998177 0.000000
v -0.277212 0.015180 -0.197093
v -0.077951 0.015197 0.060639
v 0.277211 0.006510 0.415762
v -0.266336 0.006517 -0.218749
v -0.266342 0.006530 -0.197060
v 0.275922 -0.004481 -0.415821
v 0.274918 -0.006518 0.415825
vn 0.923880 -0.382683 0.000000
v 0.266527 -0.013876 -0.415821
v 0.264377 -0.014606 0.415825
vn 0.258819 -0.965926 0.000000
v -0.277171 0.006527 0.197056
v -0.277160 0.006507 -0.197041
v -0.266382 0.015189 0.197084
v -0.277215 0.006479 -0.415825
v 0.253543 0.015111 0.415825
v 0.277205 0.006478 -0.415833
v -0.277205 0.006459 -0.218708
v 0.277213 0.006508 -0.415757
v -0.266336 0.006517 0.197049
v 0.274918 -0.006518 -0.415821
v 0.273656 -0.008406 0.415825
vn 0.866025 -0.500000 0.000000
v -0.266380 0.015186 0.218709
v 0.268564 -0.012872 -0.415821
v 0.266527 -0.013876 0.415825
vn 0.382683 -0.923880 0.000000
v -0.277205 0.006459 0.197090
v -0.266384 0.006469 0.197097
v 0.277208 0.006476 0.415837
v 0.255856 0.014910 -0.415821
vn 0.112425 0.993660 0.000000
v -0.277171 0.006527 -0.218742
v 0.275328 0.007854 0.415812
vn 0.572249 0.820080 0.000000
vn 0.550623 0.834754 0.000000
v -0.266338 0.006527 0.218740
v 0.273656 -0.008406 -0.415821
v 0.272161 -0.010115 0.415816
vn 0.793353 -0.608761 0.000000
v -0.277212 0.015180 0.415825
v -0.266382 0.006460 0.218718
v 0.270452 -0.011610 -0.415821
v 0.268564 -0.012872 0.415825
vn 0.500000 -0.866025 0.000000
v -0.268525 0.015156 0.197114
v -0.277160 0.006507 -0.415768
v 0.255856 0.014910 0.415825
v 0.258156 0.014589 -0.415821
v 0.275328 0.007854 -0.415808
v 0.273354 0.009078 0.415825
v -0.277171 0.006527 0.415783
v 0.272156 -0.010109 -0.415825
v 0.270452 -0.011610 0.415825
vn 0.707107 -0.707107 0.000000
v -0.277212 0.015180 0.218705
v -0.277215 0.006479 0.218701
vn 0.608761 -0.793353 0.000000
v -0.277205 0.006459 0.415816
v 0.258156 0.014589 0.415825
vn 0.164188 0.986429 0.000000
v 0.260436 0.014148 -0.415821
v 0.273354 0.009078 -0.415821
vn 0.506256 0.862383 0.000000
v 0.271322 0.010200 0.415825
v -0.277160 0.006507 0.218757
v 0.260436 0.014148 0.415825
vn 0.215503 0.976503 0.000000
v 0.262690 0.013588 -0.415821
v 0.271322 0.010200 -0.415821
v 0.269233 0.011216 0.415825
vn 0.460507 0.887656 0.000000
v 0.262690 0.013588 0.415825
vn 0.266229 0.963910 0.000000
v 0.264911 0.012912 -0.415821
v 0.269233 0.011216 -0.415821
v 0.267094 0.012120 0.415825
vn 0.413500 0.910504 0.000000
v 0.264911 0.012912 0.415825
vn 0.316228 0.948683 0.000000
v 0.267094 0.012120 -0.415821
vn 0.365363 0.930865 0.000000
v -0.277176 0.002124 -0.199247
v -0.277168 0.015136 -0.199264
vn 1.000000 0.000000 0.000000
v -0.277171 0.015139 -0.216525
v -0.271774 0.002121 -0.216552
vn 0.000000 -1.000000 0.000000
v -0.271788 0.002126 -0.199249
vn 0.000000 0.000000 -1.000000
v -0.266351 0.015119 -0.216541
v -0.271791 0.010842 -0.216525
vn 0.000000 0.000000 1.000000
v -0.277188 0.002121 -0.220890
v -0.271786 0.010837 -0.199272
v -0.266349 0.015122 -0.199257
vn -1.000000 0.000000 0.000000
v 0.277206 0.002146 0.415762
v 0.277203 0.002153 -0.415756
v -0.277164 0.002138 -0.415772
v -0.271774 0.002121 0.199239
v 0.051985 0.015114 -0.060635
v -0.266322 0.010837 -0.216547
v -0.277168 0.015136 0.216533
v -0.277164 -0.015139 -0.415772
v -0.266324 0.010843 -0.199243
vn 0.000000 1.000000 0.000000
v -0.271791 0.010842 0.199272
v -0.266338 0.015122 -0.218736
v -0.266343 0.015122 -0.197052
v 0.277022 -0.000094 0.415787
vn -0.997859 0.065403 0.000000
vn -0.991445 0.130526 0.000000
v -0.271791 0.002128 0.216546
v -0.277164 0.002138 0.415776
v -0.277171 0.015139 0.199272
v 0.259883 -0.015128 -0.415773
v 0.251221 0.015120 -0.415774
v -0.077951 0.015114 -0.060635
v 0.277022 -0.000094 -0.415782
v 0.276586 -0.002313 0.415777
v -0.277164 -0.015139 0.415776
v -0.266351 0.015119 0.199257
v -0.271786 0.010837 0.216526
v 0.262141 -0.014980 -0.415773
v 0.259883 -0.015133 0.415770
v -0.277164 0.015132 -0.218749
v 0.251221 0.015115 0.415791
v -0.277173 0.015120 0.197059
v -0.268525 0.015156 -0.218767
vn -0.965926 0.258819 0.000000
v 0.276586 -0.002313 -0.415773
v 0.275858 -0.004455 0.415777
v -0.266349 0.015122 0.216541
v 0.264359 -0.014539 -0.415773
v 0.262141 -0.014980 0.415777
vn -0.130526 0.991445 0.000000
vn -0.065403 0.997859 0.000000
v -0.266322 0.010837 0.199251
v -0.266324 0.010843 0.216554
v -0.277164 0.015132 -0.415772
v 0.051985 0.015114 0.060639
v 0.253539 0.015042 -0.415773
vn -0.034248 -0.999413 0.000000
vn -0.060354 -0.998177 0.000000
v -0.277164 0.015132 -0.197045
v -0.077951 0.015114 0.060639
v 0.275858 -0.004455 -0.415773
v 0.274858 -0.006483 0.415777
vn -0.923880 0.382683 0.000000
v 0.266501 -0.013812 -0.415773
v 0.264359 -0.014539 0.415777
vn -0.258819 0.965926 0.000000
v -0.266338 0.015122 0.197062
v 0.253539 0.015042 0.415777
v 0.274858 -0.006483 -0.415773
v 0.273601 -0.008364 0.415777
vn -0.866025 0.500000 0.000000
v -0.266339 0.015126 0.218749
v 0.268529 -0.012812 -0.415773
v 0.266501 -0.013812 0.415777
vn -0.382683 0.923880 0.000000
v 0.255848 0.014841 -0.415773
vn -0.112425 -0.993660 0.000000
v 0.275285 0.007788 0.415787
vn -0.572249 -0.820080 0.000000
vn -0.550623 -0.834754 0.000000
v 0.273601 -0.008364 -0.415773
v 0.272109 -0.010062 0.415781
vn -0.793353 0.608761 0.000000
v -0.277164 0.015132 0.415776
v 0.270410 -0.011555 -0.415773
v 0.268529 -0.012812 0.415777
vn -0.500000 0.866025 0.000000
v -0.268525 0.015156 0.197031
v 0.255848 0.014841 0.415777
v 0.258145 0.014521 -0.415773
v 0.275285 0.007788 -0.415782
v 0.273319 0.009018 0.415777
v 0.272114 -0.010068 -0.415766
v 0.270410 -0.011555 0.415777
vn -0.707107 0.707107 0.000000
v -0.277164 0.015132 0.218753
vn -0.608761 0.793353 0.000000
v 0.258145 0.014521 0.415777
vn -0.164188 -0.986429 0.000000
v 0.260421 0.014080 -0.415773
v 0.273319 0.009018 -0.415773
vn -0.506256 -0.862383 0.000000
v 0.271290 0.010139 0.415777
v 0.260421 0.014080 0.415777
vn -0.215503 -0.976503 0.000000
v 0.262671 0.013522 -0.415773
v 0.271290 0.010139 -0.415773
v 0.269204 0.011153 0.415777
vn -0.460507 -0.887656 0.000000
v 0.262671 0.013522 0.415777
vn -0.266229 -0.963910 0.000000
v 0.264890 0.012846 -0.415773
v 0.269204 0.011153 -0.415773
v 0.267069 0.012056 0.415777
vn -0.413500 -0.910504 0.000000
v 0.264890 0.012846 0.415777
vn -0.316228 -0.948683 0.000000
v 0.267069 0.012056 -0.415773
vn -0.365363 -0.930865 0.000000
g mesh1-geometry-0
usemtl Material.e6a6298ff53efe4150e122edc010a6a6
f 1/1/1 2/2/1 3/3/1
f 2/2/1 1/1/1 4/4/1
g mesh1-geometry-1
usemtl Material.90b00bf69165eda831fe702671104217
f 5//2 6//2 7//2
f 8//2 7//2 6//2
g mesh2-geometry-0
usemtl Material.dc7a3ca9ca091ddbf48733c3a604f557
f 9//3 10//3 11//3
f 10//3 9//3 12//3
f 11//4 13//4 14//4
f 15//5 9//5 11//5
f 9//4 16//4 12//4
f 12//6 17//6 10//6
f 13//4 11//4 15//4
f 13//6 10//6 17//6
f 13//4 18//4 14//4
f 9//5 15//5 19//5
f 20//4 15//4 11//4
f 21//4 16//4 9//4
f 17//6 12//6 16//6
f 17//7 15//7 13//7
f 22//4 13//4 15//4
f 23//4 18//4 13//4
f 18//4 23//4 24//4
f 15//7 17//7 19//7
f 9//5 19//5 21//5
f 25//4 15//4 20//4
f 26//4 16//4 21//4
f 17//6 16//6 27//6
f 23//4 13//4 22//4
f 22//4 15//4 25//4
f 28//4 25//4 20//4
f 29//3 30//3 31//3
f 23//6 32//6 24//6
f 17//8 33//8 19//8
f 21//5 19//5 33//5
f 25//6 30//6 34//6
f 26//4 35//4 16//4
f 26//4 21//4 36//4
f 35//3 27//3 16//3
f 33//8 17//8 27//8
f 37//9 23//10 22//10
f 22//4 25//4 38//4
f 32//3 39//3 24//3
f 39//4 38//4 28//4
f 25//4 28//4 38//4
f 30//3 29//3 40//3
f 38//5 29//5 28//5
f 32//6 23//6 41//6
f 33//3 36//3 21//3
f 40//6 34//6 30//6
f 34//7 38//7 25//7
f 42//4 35//4 26//4
f 26//4 36//4 43//4
f 44//3 27//3 35//3
f 27//3 44//3 33//3
f 23//10 37//9 45//9
f 22//5 46//5 37//5
f 22//4 38//4 39//4
f 39//3 32//3 47//3
f 29//4 48//4 40//4
f 29//5 38//5 49//5
f 41//6 23//6 50//6
f 51//8 32//8 41//8
f 33//3 52//3 36//3
f 34//6 40//6 48//6
f 38//7 34//7 49//7
f 42//4 53//4 35//4
f 42//4 26//4 54//4
f 36//4 55//4 43//4
f 56//5 44//5 35//5
f 52//3 33//3 44//3
f 46//11 45//9 37//9
f 57//6 23//6 45//6
f 22//5 58//5 46//5
f 39//5 51//5 22//5
f 32//8 51//8 47//8
f 51//5 39//5 47//5
f 59//4 48//4 29//4
f 29//5 49//5 59//5
f 50//6 23//6 60//6
f 61//12 41//13 50//12
f 41//13 61//12 51//13
f 62//6 36//6 52//6
f 34//6 48//6 63//6
f 34//8 64//8 49//8
f 53//4 42//4 65//4
f 54//4 26//4 66//4
f 54//14 67//15 42//14
f 55//4 36//4 68//4
f 43//4 55//4 69//4
f 53//5 44//5 56//5
f 70//4 71//4 72//4
f 45//9 46//11 57//11
f 73//6 23//6 57//6
f 22//5 74//5 58//5
f 58//16 57//11 46//11
f 22//5 51//5 61//5
f 54//4 48//4 59//4
f 59//5 49//5 64//5
f 60//6 23//6 75//6
f 76//17 50//12 60//17
f 50//12 76//17 61//12
f 36//6 62//6 68//6
f 77//4 72//4 78//4
f 79//3 63//3 48//3
f 64//8 34//8 63//8
f 42//6 80//6 65//6
f 80//3 53//3 65//3
f 54//4 66//4 79//4
f 67//15 54//14 81//15
f 82//6 42//6 67//6
f 62//3 55//3 68//3
f 69//4 55//4 66//4
f 44//5 53//5 83//5
f 84//4 71//4 70//4
f 70//4 72//4 85//4
f 86//6 23//6 73//6
f 57//11 58//16 73//16
f 22//5 87//5 74//5
f 74//18 73//16 58//16
f 22//5 61//5 76//5
f 54//4 79//4 48//4
f 54//4 59//4 88//4
f 64//3 88//3 59//3
f 75//6 23//6 89//6
f 90//19 60//17 75//19
f 60//17 90//19 76//17
f 85//4 72//4 77//4
f 55//3 62//3 91//3
f 92//3 63//3 79//3
f 63//3 92//3 64//3
f 80//6 42//6 82//6
f 53//3 80//3 83//3
f 79//4 66//4 55//4
f 54//5 93//5 81//5
f 81//15 94//20 67//15
f 82//6 67//6 94//6
f 84//4 95//4 71//4
f 84//21 96//22 70//21
f 70//4 85//4 97//4
f 98//6 23//6 86//6
f 73//16 74//18 86//18
f 22//5 99//5 87//5
f 87//23 86//18 74//18
f 22//5 76//5 90//5
f 54//4 88//4 100//4
f 64//3 101//3 88//3
f 89//6 23//6 102//6
f 103//24 75//19 89//24
f 75//19 103//24 90//19
f 92//5 55//5 91//5
f 104//5 92//5 79//5
f 101//3 64//3 92//3
f 95//4 84//4 105//4
f 100//5 93//5 54//5
f 81//5 93//5 106//5
f 94//20 81//15 106//20
f 82//6 94//6 107//6
f 96//22 84//21 108//22
f 109//5 93//5 96//5
f 70//4 97//4 110//4
f 111//6 23//6 98//6
f 86//18 87//23 98//23
f 22//5 112//5 99//5
f 99//25 98//23 87//23
f 22//5 90//5 103//5
f 100//4 88//4 113//4
f 114//6 88//6 101//6
f 102//6 23//6 111//6
f 112//26 89//24 102//26
f 89//24 112//26 103//24
f 55//5 92//5 104//5
f 93//5 100//5 115//5
f 106//5 93//5 116//5
f 106//20 107//27 94//20
f 82//6 107//6 117//6
f 82//6 118//6 108//6
f 108//22 109//28 96//22
f 119//5 93//5 109//5
f 110//4 97//4 120//4
f 98//23 99//25 111//25
f 22//5 103//5 112//5
f 102//26 99//25 112//26
f 88//6 114//6 113//6
f 114//3 100//3 113//3
f 99//25 102//26 111//25
f 100//3 114//3 115//3
f 116//5 93//5 121//5
f 107//27 106//20 116//27
f 116//27 117//29 107//27
f 82//6 117//6 122//6
f 82//6 123//6 118//6
f 109//28 108//22 118//28
f 124//5 93//5 119//5
f 118//28 119//30 109//28
f 121//5 93//5 125//5
f 117//29 116//27 121//29
f 121//29 122//31 117//29
f 82//6 122//6 126//6
f 82//6 127//6 123//6
f 119//30 118//28 123//30
f 128//5 93//5 124//5
f 123//30 124//32 119//30
f 125//5 93//5 129//5
f 122//31 121//29 125//31
f 125//31 126//33 122//31
f 82//6 126//6 130//6
f 82//6 130//6 127//6
f 124//32 123//30 127//32
f 129//5 93//5 128//5
f 127//32 128//34 124//32
f 126//33 125//31 129//33
f 129//33 130//34 126//33
f 128//34 127//32 130//34
f 130//34 129//33 128//34
g mesh2-geometry-1
usemtl Material.90b00bf69165eda831fe702671104217
f 131//35 14//35 132//35
f 133//35 132//35 14//35
f 10//36 134//36 131//36
f 131//37 132//37 135//37
f 133//36 136//36 132//36
f 14//38 137//38 133//38
f 135//36 131//36 134//36
f 137//38 14//38 134//38
f 10//36 138//36 134//36
f 139//37 135//37 132//37
f 131//36 135//36 30//36
f 132//36 136//36 140//36
f 136//38 133//38 137//38
f 13//39 135//39 137//39
f 135//36 134//36 141//36
f 134//36 138//36 142//36
f 143//36 142//36 138//36
f 139//39 137//39 135//39
f 140//37 139//37 132//37
f 30//36 135//36 144//36
f 140//36 136//36 145//36
f 146//38 136//38 137//38
f 141//36 134//36 142//36
f 144//36 135//36 141//36
f 30//36 144//36 31//36
f 28//35 20//35 147//35
f 143//38 148//38 142//38
f 139//40 149//40 137//40
f 149//37 139//37 140//37
f 150//38 20//38 25//38
f 136//36 151//36 145//36
f 152//36 140//36 145//36
f 136//35 146//35 151//35
f 146//40 137//40 149//40
f 141//41 142//41 153//42
f 154//36 144//36 141//36
f 143//35 155//35 148//35
f 31//36 154//36 155//36
f 154//36 31//36 144//36
f 156//35 147//35 20//35
f 28//37 147//37 154//37
f 157//38 142//38 148//38
f 140//35 152//35 149//35
f 20//38 150//38 156//38
f 25//39 154//39 150//39
f 145//36 151//36 158//36
f 159//36 152//36 145//36
f 151//35 146//35 71//35
f 149//35 71//35 146//35
f 160//42 153//42 142//41
f 153//37 161//37 141//37
f 155//36 154//36 141//36
f 162//35 148//35 155//35
f 156//36 163//36 147//36
f 164//37 154//37 147//37
f 165//38 142//38 157//38
f 157//40 148//40 166//40
f 152//35 72//35 149//35
f 163//38 156//38 150//38
f 164//39 150//39 154//39
f 151//36 167//36 158//36
f 168//36 145//36 158//36
f 159//36 169//36 152//36
f 151//37 71//37 170//37
f 71//35 149//35 72//35
f 153//42 160//42 161//43
f 160//38 142//38 171//38
f 161//37 172//37 141//37
f 141//37 166//37 155//37
f 162//40 166//40 148//40
f 162//37 155//37 166//37
f 147//36 163//36 173//36
f 173//37 164//37 147//37
f 174//38 142//38 165//38
f 165//44 157//45 175//44
f 166//45 175//44 157//45
f 72//38 152//38 78//38
f 176//38 163//38 150//38
f 164//40 177//40 150//40
f 178//36 158//36 167//36
f 179//36 145//36 168//36
f 158//46 180//47 168//46
f 181//36 152//36 169//36
f 182//36 169//36 159//36
f 170//37 71//37 167//37
f 52//36 44//36 93//36
f 171//43 161//43 160//42
f 171//38 142//38 183//38
f 172//37 184//37 141//37
f 161//43 171//43 172//48
f 175//37 166//37 141//37
f 173//36 163//36 168//36
f 177//37 164//37 173//37
f 185//38 142//38 174//38
f 174//49 165//44 186//49
f 175//44 186//49 165//44
f 181//38 78//38 152//38
f 62//36 52//36 91//36
f 163//35 176//35 187//35
f 176//40 150//40 177//40
f 178//38 105//38 158//38
f 178//35 167//35 105//35
f 187//36 179//36 168//36
f 188//47 168//46 180//47
f 180//38 158//38 84//38
f 181//35 169//35 78//35
f 179//36 169//36 182//36
f 95//37 167//37 71//37
f 93//36 44//36 82//36
f 92//36 52//36 93//36
f 183//38 142//38 189//38
f 183//48 172//48 171//43
f 184//37 190//37 141//37
f 172//48 183//48 184//50
f 186//37 175//37 141//37
f 163//36 187//36 168//36
f 191//36 173//36 168//36
f 173//35 191//35 177//35
f 192//38 142//38 185//38
f 185//51 174//49 193//51
f 186//49 193//51 174//49
f 91//36 52//36 92//36
f 77//35 78//35 169//35
f 187//35 176//35 85//35
f 177//35 85//35 176//35
f 84//38 158//38 105//38
f 95//35 105//35 167//35
f 169//36 179//36 187//36
f 188//37 70//37 168//37
f 180//47 194//52 188//47
f 194//38 180//38 84//38
f 44//36 83//36 82//36
f 93//53 195//54 82//53
f 101//36 92//36 93//36
f 189//38 142//38 196//38
f 189//50 184//50 183//48
f 190//37 197//37 141//37
f 184//50 189//50 190//55
f 193//37 186//37 141//37
f 198//36 191//36 168//36
f 191//35 97//35 177//35
f 199//38 142//38 192//38
f 192//56 185//51 200//56
f 193//51 200//56 185//51
f 77//37 169//37 85//37
f 187//37 85//37 201//37
f 85//35 177//35 97//35
f 80//36 82//36 83//36
f 168//37 70//37 198//37
f 202//37 70//37 188//37
f 202//52 188//47 194//52
f 203//38 194//38 84//38
f 204//54 82//53 195//54
f 195//37 70//37 205//37
f 115//36 101//36 93//36
f 196//38 142//38 206//38
f 196//55 190//55 189//50
f 197//37 207//37 141//37
f 190//55 196//55 197//57
f 200//37 193//37 141//37
f 208//36 191//36 198//36
f 97//38 191//38 120//38
f 206//38 142//38 199//38
f 199//58 192//56 207//58
f 200//56 207//58 192//56
f 201//37 85//37 169//37
f 110//37 198//37 70//37
f 209//37 70//37 202//37
f 194//52 203//59 202//52
f 210//38 203//38 84//38
f 204//38 211//38 84//38
f 195//54 205//60 204//54
f 205//37 70//37 212//37
f 114//36 101//36 115//36
f 206//57 197//57 196//55
f 207//37 200//37 141//37
f 207//58 197//57 199//58
f 208//38 120//38 191//38
f 208//35 198//35 120//35
f 206//57 199//58 197//57
f 110//35 120//35 198//35
f 213//37 70//37 209//37
f 209//59 202//52 203//59
f 203//59 210//61 209//59
f 214//38 210//38 84//38
f 211//38 215//38 84//38
f 211//60 204//54 205//60
f 212//37 70//37 216//37
f 205//60 212//62 211//60
f 217//37 70//37 213//37
f 213//61 209//59 210//61
f 210//61 214//63 213//61
f 218//38 214//38 84//38
f 215//38 219//38 84//38
f 215//62 211//60 212//62
f 216//37 70//37 220//37
f 212//62 216//64 215//62
f 221//37 70//37 217//37
f 217//63 213//61 214//63
f 214//63 218//65 217//63
f 222//38 218//38 84//38
f 219//38 222//38 84//38
f 219//64 215//62 216//64
f 220//37 70//37 221//37
f 216//64 220//66 219//64
f 221//65 217//63 218//65
f 218//65 222//66 221//65
f 222//66 219//64 220//66
f 220//66 221//65 222//66
