# created by Ethan Wu and Zhan isaac Ling
mtllib model.mtl
v -0.287612 0.205284 -0.348593
v -0.278886 0.172710 0.321937
v -0.287614 0.205293 0.348579
vn -0.965926 -0.258819 0.000000
v -0.278889 0.172715 -0.324024
v -0.182454 -0.187196 0.321922
v -0.255427 0.213918 -0.348586
vn -0.258819 0.965926 0.000000
v -0.175294 -0.213909 -0.348583
vn -0.965926 -0.258819 0.000000
v -0.175279 -0.213918 0.348590
v -0.255429 0.213910 0.348593
v -0.143100 -0.205289 -0.348590
vn 0.000000 0.000000 -1.000000
v -0.182450 -0.187207 -0.324024
vn 0.000000 0.000000 1.000000
v -0.246688 0.181314 0.321914
vn 0.965926 0.258819 0.000000
v -0.246692 0.181319 -0.324005
vn 0.258819 -0.965926 0.000000
v -0.143098 -0.205285 0.348579
v -0.150262 -0.178561 0.321903
v -0.150270 -0.178549 -0.324013
v -0.287551 0.205272 0.348559
v -0.278824 0.172711 0.321907
v -0.287553 0.205281 -0.348557
vn 0.965926 0.258819 0.000000
v -0.278820 0.172706 -0.324024
v -0.182387 -0.187178 0.321922
v -0.255471 0.213867 -0.348566
v -0.175235 -0.213877 -0.348568
v -0.246755 0.181328 0.321930
vn -0.258819 0.965926 0.000000
v -0.175251 -0.213868 0.348549
v -0.150311 -0.178593 0.321940
vn 0.000000 0.000000 1.000000
v -0.255468 0.213875 0.348546
v -0.143162 -0.205276 -0.348562
v -0.182391 -0.187168 -0.324024
v -0.246750 0.181323 -0.324043
v -0.150303 -0.178606 -0.324036
vn 0.258819 -0.965926 0.000000
vn -0.965926 -0.258819 0.000000
vn 0.000000 0.000000 -1.000000
v -0.143164 -0.205281 0.348558
vn 0.258819 -0.965926 0.000000
vt -0.041569 -0.0
vt -1.04923 -0.0
vt -0.041569 0.099198
vn 0.965926 0.258819 0.000000
vt -0.041569 1.06558
vt -0.041569 0.073608
vt -1.04923 1.06558
vn 0.000000 0.000000 -1.000000
vt -0.041404 -0.0
vt -0.599391 -0.0
vt -0.041404 0.099198
vt -1.04923 0.099198
vt -0.599391 0.099198
vt -1.04923 0.073608
vn -0.258819 0.965926 0.000000
vt 0.041569 0.099198
vt 1.04923 0.099198
vt 0.041569 0.0
vn 0.000000 0.000000 1.000000
vt 0.599391 0.0
vt 0.041404 0.0
vt 0.599391 0.099198
vt 1.04923 -0.0
vt 0.041404 0.099198
v 0.287574 -0.186057 0.348549
v 0.287586 -0.204758 -0.346784
v 0.287580 -0.204763 0.348555
vn -1.000000 0.000000 0.000000
vt 0.0 0.250967
vt -0.984683 0.153622
vt 0.0 0.153622
v 0.287586 -0.186070 -0.346784
vt -0.984683 0.250967
v -0.009932 -0.204761 0.271452
vn 0.000000 1.000000 0.000000
vt 0.109221 0.633235
vt 0.0 0.0
vt 0.984683 0.0
v -0.175248 -0.204766 0.348552
vn 0.000000 0.000000 -1.000000
vt 0.680525 0.153622
v -0.009944 -0.186002 0.271440
v 0.287614 -0.186017 0.348590
v 0.287602 -0.186004 -0.346801
v -0.175248 -0.186062 -0.346776
vn 0.000000 0.000000 1.000000
vt -0.680525 0.250967
vt 0.0 0.985079
v -0.008220 -0.204756 0.230412
vt 0.167318 0.629566
v -0.175254 -0.186068 0.348558
vt 0.680525 0.250967
v -0.175275 -0.186005 0.348579
v -0.009930 -0.186008 0.230398
vt 0.167318 0.633235
v -0.175260 -0.204757 -0.346788
vt -0.680525 0.153622
v -0.175282 -0.186011 -0.346809
v -0.046153 -0.186003 0.230412
vt 0.984683 0.985079
vt 0.167318 0.710279
v -0.046155 -0.204760 0.271450
vt 0.109221 0.710279
v -0.008220 -0.204756 0.187316
vt 0.228345 0.629566
v -0.009933 -0.204760 0.230402
vn 1.000000 0.000000 0.000000
vt 0.984683 0.250967
v -0.046157 -0.186006 0.271452
vt 0.109221 0.153622
vt 0.167318 0.250967
vt 0.109221 0.250967
vt 0.984683 0.153622
v -0.046145 -0.204756 0.063545
vt 0.403615 0.710279
vt -0.43746 0.153622
vt -0.490684 0.250967
vt -0.490684 0.153622
v -0.010634 -0.204756 0.149737
vt 0.281561 0.634702
vt 0.167318 0.153622
vt -0.43746 0.250967
v -0.046157 -0.204761 0.230400
vt 0.43746 0.250967
vt 0.490684 0.153622
vt 0.490684 0.250967
v -0.046145 -0.204756 0.105951
vt 0.343564 0.710279
v -0.008565 -0.204756 0.063545
vt 0.403615 0.6303
vt -0.167318 0.153622
vt -0.109221 0.250967
vt -0.167318 0.250967
vt -0.109221 0.153622
v -0.008565 -0.204756 0.105951
vt 0.343564 0.6303
v -0.013392 -0.204756 0.149737
vt 0.281561 0.640572
vt 0.43746 0.153622
v -0.046145 -0.204756 0.149737
vt 0.281561 0.710279
v -0.046145 -0.204756 0.187316
vt 0.228345 0.710279
v -0.010634 -0.204756 0.105951
vt 0.343564 0.634702
v -0.013392 -0.204756 0.187316
vt 0.228345 0.640572
v 0.287608 -0.204820 0.348583
v 0.287602 -0.204824 -0.346801
vn 1.000000 0.000000 0.000000
v -0.009956 -0.204822 0.271427
vn 0.000000 -1.000000 0.000000
v -0.175282 -0.204816 0.348586
vn 0.000000 0.000000 1.000000
vn 0.000000 0.000000 -1.000000
v -0.008220 -0.204826 0.230412
v -0.175270 -0.204825 -0.346797
v -0.046134 -0.204823 0.271429
v -0.008220 -0.204826 0.187316
v -0.009954 -0.204823 0.230423
vn -1.000000 0.000000 0.000000
v -0.009958 -0.186065 0.230427
v -0.046145 -0.204826 0.063545
v -0.046132 -0.186067 0.271427
v -0.010634 -0.204826 0.149737
v -0.046132 -0.204822 0.230424
v -0.046145 -0.204826 0.105951
v -0.008565 -0.204826 0.063545
v -0.046136 -0.186071 0.230412
v -0.008565 -0.204826 0.105951
v -0.013392 -0.204826 0.149737
v -0.046145 -0.204826 0.149737
v -0.046145 -0.204826 0.187316
v -0.010634 -0.204826 0.105951
v -0.013392 -0.204826 0.187316
v -0.009944 -0.186072 0.271440
vt 0.109221 0.777706
vt 0.0 1.20982
vt 0.167318 0.777706
vt 0.167318 0.872327
vt 0.984683 1.20982
vt 0.109221 0.872327
g mesh1-geometry-0
usemtl Material.57774a50243e5d429f3a4ea105ec3930
f 1//1 2//1 3//1
f 2//1 1//1 4//1
f 5//1 3//1 2//1
f 3//2 6//2 1//2
f 7//1 4//1 1//1
f 4//3 5//3 2//3
f 5//1 8//1 3//1
f 6//2 3//2 9//2
f 10//4 1//4 6//4
f 7//1 11//1 4//1
f 1//4 10//4 7//4
f 5//3 4//3 11//3
f 8//1 5//1 7//1
f 8//5 9//5 3//5
f 9//6 12//6 6//6
f 6//6 13//6 10//6
f 7//1 5//1 11//1
f 10//7 8//7 7//7
f 6//6 12//6 13//6
f 12//6 14//6 15//6
f 9//5 8//5 14//5
f 15//6 10//6 16//6
f 12//6 9//6 14//6
f 16//6 10//6 13//6
f 8//7 10//7 14//7
f 10//6 15//6 14//6
g mesh1-geometry-1
usemtl Material.90b00bf69165eda831fe702671104217
f 17//8 18//8 19//8
f 20//8 19//8 18//8
f 18//8 17//8 21//8
f 19//7 22//7 17//7
f 19//8 20//8 23//8
f 24//9 4//9 2//9
f 17//8 25//8 21//8
f 26//10 2//10 5//10
f 27//7 17//7 22//7
f 22//5 19//5 28//5
f 20//8 29//8 23//8
f 23//5 28//5 19//5
f 4//9 24//9 30//9
f 2//10 26//10 24//10
f 23//8 21//8 25//8
f 17//4 27//4 25//4
f 5//11 31//11 26//11
f 22//12 24//12 27//12
f 28//12 30//12 22//12
f 29//8 21//8 23//8
f 30//13 11//13 4//13
f 23//2 25//2 28//2
f 30//12 24//12 22//12
f 26//12 32//12 24//12
f 31//11 5//11 11//11
f 32//4 25//4 27//4
f 31//12 28//12 26//12
f 32//12 27//12 24//12
f 30//12 28//12 31//12
f 11//13 30//13 31//13
f 32//2 28//2 25//2
f 32//12 26//12 28//12
g mesh1-geometry-2
usemtl Material.fd405729217466f29eac93fc2fe0bd88
f 18/1/14 20/2/14 12/3/14
f 18/4/15 21/5/15 20/6/15
f 5/7/16 18/8/16 15/9/16
f 13/10/14 12/3/14 20/2/14
f 12/11/16 15/9/16 18/8/16
f 29/12/15 20/6/15 21/5/15
f 15/13/17 16/14/17 5/15/17
f 4/16/18 11/17/18 13/18/18
f 29/19/17 5/15/17 16/14/17
f 16/20/18 13/18/18 11/17/18
g mesh2-geometry-0
usemtl Material.ec54333377af01998850abef039c82fd
f 33/21/19 34/22/19 35/23/19
f 34/22/19 33/21/19 36/24/19
f 37/25/20 35/26/20 34/27/20
f 38/28/21 33/21/21 35/23/21
f 39/25/20 40/26/20 41/27/20
f 42/29/22 34/23/22 36/21/22
f 35/26/20 37/25/20 38/30/20
f 37/25/20 34/27/20 43/31/20
f 33/21/21 38/28/21 44/32/21
f 40/26/20 39/25/20 45/30/20
f 39/25/20 41/27/20 46/33/20
f 34/23/22 42/29/22 47/34/22
f 48/35/20 49/36/20 41/27/20
f 50/37/20 38/30/20 37/25/20
f 43/31/20 34/27/20 51/38/20
f 52/33/20 37/25/20 43/31/20
f 38/23/23 42/39/23 44/21/23
f 53/37/20 45/30/20 39/25/20
f 46/33/20 41/27/20 49/36/20
f 37/40/23 46/41/23 39/42/23
f 46/33/20 53/37/20 39/25/20
f 42/39/23 38/23/23 47/43/23
f 47/35/20 54/44/20 34/27/20
f 48/35/20 53/37/20 49/36/20
f 38/30/20 50/37/20 47/35/20
f 37/45/22 53/46/22 50/47/22
f 51/38/20 34/27/20 55/48/20
f 51/38/20 52/33/20 43/31/20
f 46/41/23 37/40/23 52/49/23
f 45/30/20 53/37/20 48/35/20
f 53/46/22 37/45/22 39/50/22
f 46/51/21 56/52/21 49/53/21
f 53/37/20 46/33/20 49/36/20
f 47/35/20 57/54/20 54/44/20
f 58/55/20 34/27/20 54/44/20
f 56/56/19 53/57/19 49/58/19
f 47/35/20 50/37/20 56/36/20
f 53/57/19 56/56/19 50/59/19
f 55/48/20 34/27/20 59/60/20
f 60/61/20 51/38/20 55/48/20
f 52/33/20 51/38/20 56/36/20
f 56/52/21 46/51/21 52/62/21
f 47/35/20 61/63/20 57/54/20
f 57/54/20 58/55/20 54/44/20
f 59/60/20 34/27/20 58/55/20
f 47/35/20 56/36/20 62/64/20
f 63/65/20 55/48/20 59/60/20
f 51/38/20 60/61/20 64/66/20
f 63/65/20 60/61/20 55/48/20
f 56/36/20 51/38/20 64/66/20
f 47/35/20 62/64/20 61/63/20
f 61/63/20 63/65/20 57/54/20
f 63/65/20 58/55/20 57/54/20
f 58/55/20 63/65/20 59/60/20
f 62/64/20 56/36/20 64/66/20
f 60/61/20 62/64/20 64/66/20
f 60/61/20 63/65/20 61/63/20
f 62/64/20 60/61/20 61/63/20
g mesh2-geometry-1
usemtl Material.90b00bf69165eda831fe702671104217
f 65//24 66//24 40//24
f 41//24 40//24 66//24
f 66//25 65//25 67//25
f 65//26 40//26 68//26
f 41//27 66//27 48//27
f 68//25 67//25 65//25
f 69//25 66//25 67//25
f 45//26 68//26 40//26
f 70//27 48//27 66//27
f 67//25 68//25 71//25
f 72//25 66//25 69//25
f 69//25 67//25 73//25
f 45//28 48//28 68//28
f 39//28 74//28 67//28
f 70//28 68//28 48//28
f 66//25 75//25 70//25
f 70//25 71//25 68//25
f 71//27 76//27 67//27
f 77//25 66//25 72//25
f 69//25 73//25 72//25
f 73//28 67//28 74//28
f 39//27 67//27 76//27
f 49//26 78//26 74//26
f 75//25 79//25 70//25
f 75//25 66//25 80//25
f 81//24 76//24 78//24
f 78//25 71//25 70//25
f 71//24 78//24 76//24
f 82//25 66//25 77//25
f 77//25 72//25 83//25
f 78//25 72//25 73//25
f 73//26 74//26 78//26
f 79//25 84//25 70//25
f 75//25 80//25 79//25
f 80//25 66//25 82//25
f 85//25 78//25 70//25
f 82//25 77//25 86//25
f 87//25 83//25 72//25
f 77//25 83//25 86//25
f 87//25 72//25 78//25
f 84//25 85//25 70//25
f 79//25 86//25 84//25
f 79//25 80//25 86//25
f 82//25 86//25 80//25
f 87//25 78//25 85//25
f 87//25 85//25 83//25
f 84//25 86//25 83//25
f 84//25 83//25 85//25
g mesh2-geometry-2
usemtl Material.fd405729217466f29eac93fc2fe0bd88
f 36/27/25 33/26/25 88/67/25
f 44/68/25 88/67/25 33/26/25
f 74/69/25 36/27/25 88/67/25
f 36/27/25 81/70/25 42/71/25
f 88/67/25 44/68/25 76/72/25
f 81/70/25 36/27/25 74/69/25
f 88/67/25 76/72/25 74/69/25
f 81/70/25 76/72/25 42/71/25
f 42/71/25 76/72/25 44/68/25
f 81/70/25 74/69/25 76/72/25
