# created by Ethan Wu and Zhan isaac Ling
mtllib model.mtl
v 0.054629 -0.254267 0.400986
v 0.054634 -0.259699 0.423689
v 0.054647 -0.254278 0.423702
vn -1.000000 0.000001 0.000001
vt -0.004547 0.001091
vt 0.0 0.0
vt 0.0 0.001091
v 0.054624 -0.259699 -0.423707
vt -0.16951 0.0
v 0.054649 -0.254282 -0.395186
vt -0.163803 0.001091
v 0.054651 -0.254271 -0.423692
vt -0.16951 0.001091
v 0.054633 -0.117575 -0.395210
v 0.054640 -0.192478 0.400977
v 0.054652 -0.117572 0.401024
vt -0.163803 0.028432
vt -0.004547 0.013439
vt -0.004547 0.028432
v 0.054631 -0.192500 -0.395164
vt -0.163803 0.013439
v 0.043715 -0.117574 0.401023
vn 0.000001 -1.000000 0.000001
vt -0.019685 0.004547
vt -0.021872 0.163803
vt -0.021872 0.004547
v 0.043712 0.237846 -0.395214
v 0.043730 -0.117567 -0.395228
vt -0.163803 0.099517
vt -0.019685 0.163803
v 0.043730 0.237854 0.401009
vt -0.004547 0.099517
v 0.054682 -0.254209 0.423737
v 0.054695 -0.259699 0.423749
v 0.054700 -0.254220 0.400986
vn 1.000000 0.000001 0.000001
vt 0.0 0.009822
vt -0.040925 0.009822
v 0.054705 -0.259699 -0.423732
vt -1.52559 0.0
v 0.054680 -0.254204 -0.395186
vt -1.47422 0.009822
v 0.054678 -0.254215 -0.423749
vt -1.52559 0.009822
v 0.054677 -0.117546 0.400947
v 0.054690 -0.192544 0.400994
v 0.054696 -0.117544 -0.395163
vt -0.040925 0.255885
vt -0.040925 0.120955
vt -1.47422 0.255885
v 0.054698 -0.192522 -0.395209
vt -1.47422 0.120955
v 0.054630 0.237836 0.401003
vn 0.000001 0.000001 1.000000
vt 0.19685 0.895649
vt 0.177165 0.255885
vt 0.19685 0.255885
v 0.043745 -0.117545 0.400949
v 0.054699 0.237801 0.400969
vn 0.000001 0.000001 -1.000000
vn 0.000001 1.000000 0.000001
vt -0.19685 0.040925
vt -0.19685 1.47422
vt -0.177165 0.040925
v 0.054622 -0.192511 0.423719
vt -0.040925 0.895649
vt 0.0 0.120955
v 0.054707 -0.192511 0.423719
v 0.054622 0.259699 -0.423720
vt -1.52559 0.935039
v 0.054707 0.259699 -0.423720
vn 0.000001 0.000001 -1.000000
vt -0.177165 0.895649
vt -0.19685 0.255885
vt -0.177165 0.255885
v 0.043730 -0.117551 -0.395145
v 0.043748 0.237792 -0.395159
vn 0.000001 0.000001 1.000000
vt 0.177165 0.895649
v 0.043730 0.237783 0.400962
vt -0.177165 1.47422
v 0.054622 0.259699 0.423719
vt 0.0 0.935039
v 0.054707 0.259699 0.423719
v 0.054630 0.237836 -0.395204
vt -1.47422 0.895649
v 0.054699 0.237801 -0.395169
v 0.054622 -0.192511 -0.423720
vt -1.52559 0.120955
v 0.054707 -0.192511 -0.423720
vn 0.000001 1.000000 0.000001
vt 0.19685 0.040925
vt 0.177165 1.47422
vt 0.177165 0.040925
vn 0.000001 -1.000000 0.000001
vt -0.19685 0.895649
vt 0.19685 1.47422
v -0.044789 -0.254274 0.423699
v -0.044830 -0.254212 0.423741
v -0.000009 -0.254285 0.400986
v -0.000009 -0.254200 0.400986
v -0.044780 -0.259699 0.423689
v -0.044840 -0.259699 0.423749
v -0.044780 -0.259699 -0.423690
vn 1.000000 0.000001 0.000001
v -0.044840 -0.259699 -0.423749
vn -1.000000 0.000001 0.000001
v -0.000009 -0.254285 -0.395186
v -0.000009 -0.254200 -0.395186
v -0.000039 -0.254273 0.086350
v 0.000021 -0.254213 0.086350
v -0.044793 -0.254278 -0.423703
v -0.044827 -0.254209 -0.423737
v -0.000028 -0.254281 -0.063985
v 0.000010 -0.254205 -0.063985
v -0.000047 -0.192530 -0.063985
v 0.000029 -0.192492 -0.063985
v -0.000047 -0.192530 0.086350
v 0.000029 -0.192492 0.086350
v -0.000046 -0.188585 -0.156867
v 0.000028 -0.188556 -0.156838
v -0.000047 -0.188583 0.171201
v 0.000029 -0.188558 0.171176
v -0.000033 -0.192535 -0.395211
v 0.000016 -0.192487 -0.395162
v 0.000020 -0.192501 0.400957
v -0.000038 -0.192520 0.401015
v -0.054707 -0.188595 0.171213
v -0.054658 -0.188546 0.171164
v -0.000043 0.237836 -0.395204
v 0.000026 0.237801 -0.395169
v -0.000043 0.139488 0.171206
v 0.000026 0.139453 0.171171
v -0.054707 -0.188595 -0.156877
v -0.054658 -0.188546 -0.156828
v -0.000043 0.139488 -0.156870
v 0.000026 0.139453 -0.156835
v -0.000037 0.237833 0.401014
v 0.000019 0.237805 0.400958
v -0.054707 0.139495 -0.156877
v -0.054658 0.139446 -0.156828
v -0.054707 0.139495 0.171213
v -0.054658 0.139446 0.171164
g mesh1-geometry-0
usemtl Material.e6a6298ff53efe4150e122edc010a6a6
f 1/1/1 2/2/1 3/3/1
f 2/2/1 1/1/1 4/4/1
f 4/4/1 1/1/1 5/5/1
f 4/4/1 5/5/1 6/6/1
f 7/7/1 8/8/1 9/9/1
f 8/8/1 7/7/1 10/10/1
f 11/11/2 7/12/2 9/13/2
f 11/9/1 12/14/1 13/7/1
f 7/12/2 11/11/2 13/15/2
f 12/14/1 11/9/1 14/16/1
g mesh1-geometry-1
usemtl Material.a49e5dfbdd190ea8e66c9033ae5abc14
f 15/17/3 16/2/3 17/18/3
f 18/19/3 17/18/3 16/2/3
f 19/20/3 17/18/3 18/19/3
f 20/21/3 19/20/3 18/19/3
f 21/22/3 22/23/3 23/24/3
f 24/25/3 23/24/3 22/23/3
f 25/26/4 11/27/4 9/28/4
f 21/28/5 26/27/5 27/26/5
f 21/29/6 23/30/6 26/31/6
f 25/32/1 8/23/1 28/33/1
f 29/33/3 22/23/3 27/32/3
f 7/24/1 30/34/1 10/25/1
f 24/25/3 31/34/3 23/24/3
f 12/35/7 7/36/7 13/37/7
f 32/37/8 23/36/8 33/35/8
f 11/27/4 25/26/4 14/38/4
f 34/38/5 27/26/5 26/27/5
f 32/39/6 26/31/6 23/30/6
f 35/40/1 25/32/1 28/33/1
f 29/33/3 27/32/3 36/40/3
f 37/41/1 30/34/1 7/24/1
f 23/24/3 31/34/3 38/41/3
f 10/25/1 30/34/1 39/42/1
f 40/42/3 31/34/3 24/25/3
f 25/43/9 12/44/9 14/45/9
f 34/45/10 33/44/10 27/43/10
f 7/36/7 12/35/7 37/46/7
f 38/46/8 33/35/8 23/36/8
f 25/32/1 35/40/1 30/34/1
f 31/34/3 36/40/3 27/32/3
f 25/32/1 30/34/1 37/41/1
f 38/41/3 31/34/3 27/32/3
f 12/44/9 25/43/9 37/47/9
f 38/47/10 27/43/10 33/44/10
g mesh1-geometry-2
usemtl Material.dc7a3ca9ca091ddbf48733c3a604f557
f 2//7 41//7 3//7
f 15//8 42//8 16//8
f 3//2 43//2 1//2
f 17//6 44//6 15//6
f 41//7 2//7 45//7
f 46//8 16//8 42//8
f 41//2 43//2 3//2
f 15//6 44//6 42//6
f 43//2 5//2 1//2
f 17//6 19//6 44//6
f 47//11 41//11 45//11
f 46//12 42//12 48//12
f 43//2 41//2 49//2
f 50//6 42//6 44//6
f 51//2 5//2 43//2
f 44//6 19//6 52//6
f 49//2 6//2 5//2
f 19//6 20//6 50//6
f 6//4 47//4 4//4
f 18//5 48//5 20//5
f 41//11 47//11 53//11
f 54//12 48//12 42//12
f 53//2 49//2 41//2
f 42//6 50//6 54//6
f 55//2 5//2 51//2
f 52//6 19//6 56//6
f 49//2 53//2 6//2
f 20//6 54//6 50//6
f 5//2 55//2 49//2
f 50//6 56//6 19//6
f 47//4 6//4 53//4
f 54//5 20//5 48//5
f 51//1 57//1 55//1
f 56//3 58//3 52//3
f 57//1 51//1 59//1
f 60//3 52//3 58//3
f 59//1 61//1 57//1
f 58//3 62//3 60//3
f 60//9 8//9 58//9
f 57//10 22//10 59//10
f 59//1 63//1 61//1
f 62//3 64//3 60//3
f 57//1 61//1 65//1
f 66//3 62//3 58//3
f 8//9 60//9 67//9
f 68//10 59//10 22//10
f 58//9 8//9 66//9
f 65//10 22//10 57//10
f 68//1 63//1 59//1
f 60//3 64//3 67//3
f 69//2 61//2 63//2
f 64//6 62//6 70//6
f 65//1 61//1 71//1
f 72//3 62//3 66//3
f 9//4 68//4 22//4
f 8//5 67//5 21//5
f 66//9 8//9 10//9
f 24//10 22//10 65//10
f 63//1 68//1 73//1
f 74//3 67//3 64//3
f 61//2 69//2 75//2
f 76//6 70//6 62//6
f 73//4 69//4 63//4
f 64//5 70//5 74//5
f 77//1 71//1 61//1
f 62//3 72//3 78//3
f 13//7 65//7 71//7
f 72//8 66//8 32//8
f 68//4 9//4 11//4
f 26//5 21//5 67//5
f 65//7 13//7 24//7
f 10//8 32//8 66//8
f 79//1 73//1 68//1
f 67//3 74//3 80//3
f 69//1 81//1 75//1
f 76//3 82//3 70//3
f 81//7 61//7 75//7
f 76//8 62//8 82//8
f 69//4 73//4 83//4
f 84//5 74//5 70//5
f 73//1 71//1 77//1
f 78//3 72//3 74//3
f 61//7 81//7 77//7
f 78//8 82//8 62//8
f 13//7 71//7 12//7
f 33//8 72//8 32//8
f 68//4 11//4 79//4
f 80//5 26//5 67//5
f 7//7 24//7 13//7
f 32//8 10//8 23//8
f 73//1 79//1 71//1
f 72//3 80//3 74//3
f 81//1 69//1 83//1
f 84//3 70//3 82//3
f 73//9 81//9 83//9
f 84//10 82//10 74//10
f 81//9 73//9 77//9
f 78//10 74//10 82//10
f 71//9 14//9 12//9
f 33//10 34//10 72//10
f 79//4 11//4 14//4
f 34//5 26//5 80//5
f 14//9 71//9 79//9
f 80//10 72//10 34//10
g mesh1-geometry-3
usemtl Material.b2cdaf4394d1a4f850458878b81c7fa1
f 13//3 33//3 26//3
f 14//3 26//3 33//3
