# created by Ethan Wu and Zhan isaac Ling
mtllib model.mtl
v 0.273059 -0.224864 0.353364
v -0.273055 -0.224873 -0.353360
v 0.273050 -0.224866 -0.353367
vn 0.000000 -1.000000 0.000000
v -0.273055 -0.224873 0.353360
v -0.251626 -0.192718 -0.353371
vn 0.000000 0.000000 -1.000000
v 0.273050 -0.181994 -0.353353
vn 1.000000 0.000000 0.000000
v -0.273059 -0.192731 0.353364
vn 0.000000 0.000000 1.000000
vn -1.000000 0.000000 0.000000
v -0.273059 -0.192731 -0.353364
v 0.273055 -0.181994 -0.008005
v -0.251635 -0.192731 0.353371
v -0.251589 0.224864 -0.353350
v -0.251588 -0.182012 -0.353350
v 0.273055 -0.181994 0.077570
v -0.251649 -0.182009 0.353353
v -0.273055 0.224873 0.353360
vn 0.000000 0.000000 1.000000
v -0.273055 0.224873 -0.353360
v -0.251595 -0.181998 -0.332266
vn 0.000000 1.000000 0.000000
v 0.193217 -0.181988 -0.288491
v 0.273035 -0.181988 -0.093578
v 0.273046 -0.181991 0.353350
v -0.251588 0.224863 0.353350
v -0.208791 -0.181988 -0.332266
v 0.193217 -0.181988 -0.093578
v 0.193217 -0.181988 0.289701
v 0.251739 -0.181988 0.077570
v -0.208791 -0.181988 0.320876
v -0.251591 -0.182038 0.353325
v -0.251584 -0.136678 0.311120
v -0.251584 -0.136678 -0.299193
v -0.181537 -0.181988 -0.288491
v 0.193217 -0.181988 0.077570
v -0.251600 -0.181994 0.320876
v -0.251584 0.195247 0.311120
v -0.251584 0.195247 -0.299193
v -0.181537 -0.181988 0.289701
v 0.273021 -0.224838 -0.353310
v -0.273014 -0.224832 -0.353319
v 0.273012 -0.224840 0.353316
vn 0.000000 1.000000 0.000000
v -0.273014 -0.224832 0.353319
v -0.251613 -0.192743 -0.353307
vn 0.000000 0.000000 1.000000
v 0.273021 -0.182052 -0.353325
vn -1.000000 0.000000 0.000000
v -0.273009 -0.192731 0.353314
vn 0.000000 0.000000 -1.000000
vn 1.000000 0.000000 0.000000
v -0.273009 -0.192731 -0.353314
v 0.273016 -0.182053 -0.008005
v -0.251604 -0.192731 0.353308
v -0.251650 0.224840 -0.353327
vn 0.000000 1.000000 0.000000
vn 0.000000 -1.000000 0.000000
v -0.251652 -0.182034 -0.353329
v 0.273016 -0.182053 0.077570
v -0.273014 0.224832 0.353319
vn 0.000000 0.000000 -1.000000
v -0.273014 0.224832 -0.353319
v -0.251645 -0.182048 -0.332266
vn 0.000000 -1.000000 0.000000
v 0.273035 -0.182059 -0.093578
v 0.193217 -0.182059 -0.288491
v 0.251739 -0.181988 -0.008005
vn 0.000000 1.000000 0.000000
v 0.251739 -0.182059 -0.008005
vn 0.000000 -1.000000 0.000000
v 0.273025 -0.182055 0.353329
v 0.251739 -0.182059 0.077570
v -0.251652 0.224841 0.353329
v -0.208791 -0.182059 -0.332266
v 0.193217 -0.182059 -0.093578
v 0.251739 -0.181988 -0.093578
v 0.251739 -0.182059 -0.093578
v 0.193217 -0.182059 0.289701
v -0.208791 -0.182059 0.320876
v -0.251655 -0.136678 0.311120
v -0.251655 -0.136678 -0.299193
v -0.251639 -0.182053 0.320876
v -0.181537 -0.182059 -0.288491
v -0.181537 -0.182059 0.289701
v 0.193217 -0.182059 0.077570
v -0.251655 0.195247 0.311120
v -0.251655 0.195247 -0.299193
vt -0.278272 -0.503083
vt -0.564174 -0.484336
vt -0.564174 -0.503083
vt -0.278272 -0.484336
g mesh1-geometry-0
usemtl Material.57774a50243e5d429f3a4ea105ec3930
f 1//1 2//1 3//1
f 2//1 1//1 4//1
f 2//2 5//2 3//2
f 6//3 1//3 3//3
f 1//4 7//4 4//4
f 7//5 2//5 4//5
f 5//2 2//2 8//2
f 3//2 5//2 6//2
f 1//3 6//3 9//3
f 7//4 1//4 10//4
f 2//5 7//5 8//5
f 8//2 11//2 5//2
f 6//2 5//2 12//2
f 13//3 1//3 9//3
f 10//4 1//4 14//4
f 10//6 15//6 7//6
f 15//5 8//5 7//5
f 11//2 8//2 16//2
f 17//7 6//7 12//7
f 6//7 18//7 19//7
f 1//3 13//3 20//3
f 14//4 1//4 20//4
f 15//6 10//6 21//6
f 8//5 15//5 16//5
f 11//3 17//3 12//3
f 6//7 17//7 22//7
f 6//7 22//7 18//7
f 19//7 18//7 23//7
f 13//7 24//7 20//7
f 25//7 24//7 13//7
f 20//7 26//7 14//7
f 27//3 28//3 21//3
f 17//3 11//3 29//3
f 18//7 22//7 30//7
f 20//7 24//7 26//7
f 24//7 25//7 31//7
f 14//7 26//7 32//7
f 28//3 27//3 29//3
f 21//3 28//3 33//3
f 21//3 33//3 11//3
f 29//3 11//3 34//3
f 17//3 29//3 32//3
f 32//3 29//3 27//3
f 26//7 30//7 22//7
f 35//7 26//7 24//7
f 34//3 11//3 33//3
f 30//7 26//7 35//7
g mesh1-geometry-1
usemtl Material.90b00bf69165eda831fe702671104217
f 36//8 37//8 38//8
f 39//8 38//8 37//8
f 36//9 40//9 37//9
f 36//10 38//10 41//10
f 39//11 42//11 38//11
f 39//12 37//12 42//12
f 43//9 37//9 40//9
f 41//9 40//9 36//9
f 44//10 41//10 38//10
f 45//11 38//11 42//11
f 43//12 42//12 37//12
f 40//9 46//9 43//9
f 7//13 5//13 8//13
f 8//14 40//14 7//14
f 47//9 40//9 41//9
f 44//10 38//10 48//10
f 27//11 38//11 45//11
f 42//15 49//15 45//15
f 5//13 7//13 10//13
f 10//14 7//14 40//14
f 42//12 43//12 49//12
f 50//9 43//9 46//9
f 12//3 45//3 40//3
f 5//10 10//10 47//10
f 47//16 41//16 51//16
f 52//16 53//16 41//16
f 19//17 54//17 9//17
f 44//18 55//18 52//18
f 56//10 48//10 38//10
f 9//13 25//13 13//13
f 48//14 57//14 44//14
f 56//11 38//11 27//11
f 45//3 12//3 27//3
f 14//10 47//10 10//10
f 58//15 45//15 49//15
f 50//12 49//12 43//12
f 15//13 11//13 16//13
f 50//14 46//14 49//14
f 47//10 51//10 46//10
f 59//16 51//16 41//16
f 53//16 59//16 41//16
f 60//16 53//16 52//16
f 54//17 19//17 61//17
f 62//18 52//18 55//18
f 25//13 9//13 54//13
f 55//14 44//14 57//14
f 56//16 63//16 48//16
f 48//16 63//16 57//16
f 27//16 64//16 56//16
f 58//10 65//10 14//10
f 11//13 15//13 21//13
f 58//14 49//14 46//14
f 66//10 46//10 51//10
f 51//14 59//14 67//14
f 68//16 59//16 53//16
f 60//14 69//14 53//14
f 61//13 31//13 54//13
f 55//14 70//14 62//14
f 54//13 31//13 25//13
f 57//14 70//14 55//14
f 64//16 63//16 56//16
f 70//16 57//16 63//16
f 67//16 64//16 27//16
f 66//10 14//10 65//10
f 71//10 65//10 58//10
f 46//10 71//10 58//10
f 72//10 46//10 66//10
f 67//10 66//10 51//10
f 64//14 67//14 59//14
f 14//10 66//10 67//10
f 59//16 68//16 64//16
f 68//14 53//14 69//14
f 70//14 69//14 60//14
f 31//13 61//13 23//13
f 60//14 62//14 70//14
f 63//16 64//16 69//16
f 63//14 69//14 70//14
f 66//10 65//10 72//10
f 71//10 72//10 65//10
f 71//10 46//10 72//10
f 69//16 64//16 68//16
g mesh1-geometry-2
usemtl Material.36b0a13b8480429cb3f1544365a72b6c
f 32/1/13 22/2/13 17/3/13
f 22/2/13 32/1/13 26/4/13
g mesh1-geometry-3
usemtl Material.efc39ebbb3cc1048a02a4c783fdc17fc
f 18//13 35//13 23//13
f 35//13 18//13 30//13
f 23//13 35//13 31//13
f 31//13 35//13 24//13
g mesh1-geometry-4
usemtl Material.dc7a3ca9ca091ddbf48733c3a604f557
f 34//3 28//3 29//3
f 28//3 34//3 33//3
