# created by Ethan Wu and Zhan isaac Ling
mtllib model.mtl
v 0.345183 -0.199167 -0.301954
v -0.345169 -0.199170 0.301956
v -0.345176 -0.199164 -0.301951
vn 0.000000 -1.000000 0.000000
v 0.345180 -0.199170 0.301956
v -0.345120 -0.199135 -0.301923
v -0.345129 -0.199130 0.301916
v 0.345134 -0.199133 -0.301921
vn 0.000000 1.000000 0.000000
v 0.345139 -0.199130 0.301916
v -0.345115 -0.169949 -0.295270
vn 1.000000 0.000000 0.000000
v -0.345137 -0.169972 -0.301914
vn 0.000000 0.000000 1.000000
v 0.345155 -0.169983 0.301932
vn -1.000000 0.000000 0.000000
vn 0.000000 0.000000 -1.000000
v -0.345124 -0.169949 0.301912
v 0.345139 -0.169969 -0.301917
v 0.345144 -0.169980 -0.229154
v -0.345129 0.199130 -0.295258
v -0.290266 -0.169919 0.301928
vn 0.000000 1.000000 0.000000
v -0.345183 -0.169949 -0.295286
v -0.290236 -0.169979 0.301943
vn 0.000000 -1.000000 0.000000
v -0.290233 -0.169977 -0.295287
v 0.326636 -0.169983 -0.076060
v -0.345129 0.199130 0.301916
v -0.290270 -0.169921 -0.295269
v -0.290276 0.199133 0.301919
v 0.273872 -0.169983 -0.301937
v 0.273872 -0.169983 -0.229154
v 0.326636 -0.169983 0.037335
v -0.260907 -0.169983 0.270444
v -0.290282 0.199139 -0.295268
v -0.290286 -0.144531 0.268985
v -0.260907 -0.169983 -0.272691
v 0.256554 -0.169983 -0.076060
v 0.256554 -0.169983 0.037335
v -0.172721 -0.169983 0.270444
v -0.290286 0.170838 -0.268311
v -0.290286 -0.144531 -0.268311
v -0.290286 0.170838 0.268985
v -0.172721 -0.169983 -0.272691
v 0.256554 -0.169983 0.039225
v -0.084534 -0.169983 0.270444
v -0.260907 -0.169983 0.202552
vn -1.000000 0.000000 0.000000
v 0.091839 -0.169983 -0.204799
v -0.084534 -0.169983 -0.272691
v 0.185304 -0.169983 -0.076060
v 0.185304 -0.169983 0.039225
v 0.003652 -0.169983 0.270444
v 0.091839 -0.169983 0.202552
v -0.260907 -0.169983 -0.204799
v 0.003652 -0.169983 -0.272691
v 0.091839 -0.169983 -0.272691
v 0.091839 -0.169983 -0.069016
v 0.091839 -0.169983 0.270444
v -0.260907 -0.169983 0.134660
v 0.091839 -0.169983 -0.136907
v 0.091839 -0.169983 -0.001124
v 0.091839 -0.169983 0.134660
v -0.260907 -0.169983 0.066768
v -0.260907 -0.169983 -0.136907
v 0.091839 -0.169983 0.066768
v -0.260907 -0.169983 -0.069016
v -0.260907 -0.169983 -0.001124
vn -1.000000 0.000000 0.000000
v -0.345159 -0.169926 -0.301960
vn 0.000000 0.000000 -1.000000
v 0.345163 -0.169915 0.301940
vn 1.000000 0.000000 0.000000
vn 0.000000 0.000000 1.000000
v -0.345173 -0.169949 0.301960
v 0.345180 -0.169929 -0.301957
v 0.345173 -0.169918 -0.229154
v -0.345169 0.199170 -0.295298
v 0.326636 -0.169914 -0.076060
v -0.345169 0.199170 0.301956
v -0.290226 0.199167 0.301953
v 0.273872 -0.169914 -0.301937
v 0.273872 -0.169914 -0.229154
v 0.326636 -0.169914 0.037335
v -0.260907 -0.169914 0.270444
v -0.290220 0.199160 -0.295288
v -0.290217 -0.144531 0.268985
v -0.260907 -0.169914 -0.272691
v 0.256554 -0.169914 -0.076060
v 0.256554 -0.169914 0.037335
v -0.172721 -0.169914 0.270444
v -0.290217 0.170838 -0.268311
v -0.290217 -0.144531 -0.268311
v -0.290217 0.170838 0.268985
v -0.172721 -0.169914 -0.272691
v 0.256554 -0.169914 0.039225
v -0.084534 -0.169914 0.270444
v -0.084534 -0.169914 -0.272691
v 0.185304 -0.169914 -0.076060
v 0.185304 -0.169914 0.039225
v 0.003652 -0.169914 0.270444
v 0.003652 -0.169914 -0.272691
v 0.091839 -0.169914 -0.272691
v 0.091839 -0.169914 -0.069016
v 0.091839 -0.169914 0.270444
v 0.091839 -0.169914 -0.001124
v 0.091839 -0.169914 -0.136907
v 0.091839 -0.169914 0.202552
v 0.091839 -0.169914 -0.204799
v 0.091839 -0.169914 0.066768
v 0.091839 -0.169914 0.134660
vn 1.000000 0.000000 0.000000
v -0.260907 -0.169914 0.202552
v -0.260907 -0.169914 -0.204799
v -0.260907 -0.169914 0.134660
v -0.260907 -0.169914 0.066768
v -0.260907 -0.169914 -0.136907
v -0.260907 -0.169914 -0.069016
v -0.260907 -0.169914 -0.001124
v -0.290217 -0.155218 0.271076
v -0.290217 -0.155218 -0.268311
v -0.290217 0.170838 0.271076
vn 1.000000 0.000000 0.000000
vt 0.0 0.0
vt 1.0 0.0
vt 0.0 1.0
v -0.290286 -0.155218 0.271076
v -0.290286 0.170838 0.271076
v -0.290286 -0.155218 -0.268311
vn -1.000000 0.000000 0.000000
v -0.290217 0.170838 -0.268311
vt 1.0 1.0
v -0.290286 0.170838 -0.268311
g mesh1-geometry-0
usemtl Material.57774a50243e5d429f3a4ea105ec3930
f 1//1 2//1 3//1
f 2//1 1//1 4//1
g mesh1-geometry-1
usemtl Material.90b00bf69165eda831fe702671104217
f 5//2 6//2 7//2
f 8//2 7//2 6//2
f 5//3 9//3 6//3
f 5//4 7//4 10//4
f 8//5 11//5 7//5
f 8//6 6//6 11//6
f 12//3 6//3 9//3
f 10//3 9//3 5//3
f 13//4 10//4 7//4
f 14//5 7//5 11//5
f 12//6 11//6 6//6
f 9//3 15//3 12//3
f 16//7 9//7 12//7
f 12//8 17//8 18//8
f 9//8 10//8 19//8
f 13//5 7//5 14//5
f 11//8 20//8 14//8
f 21//3 12//3 15//3
f 9//4 22//4 15//4
f 9//7 16//7 22//7
f 19//8 18//8 9//8
f 16//6 12//6 23//6
f 24//8 19//8 10//8
f 13//8 14//8 24//8
f 14//8 20//8 25//8
f 20//8 11//8 26//8
f 11//8 18//8 27//8
f 21//6 23//6 12//6
f 21//8 15//8 23//8
f 28//4 15//4 22//4
f 19//8 27//8 18//8
f 22//5 16//5 29//5
f 23//5 29//5 16//5
f 30//8 19//8 24//8
f 25//8 24//8 14//8
f 31//8 25//8 20//8
f 26//8 11//8 32//8
f 20//8 26//8 31//8
f 33//8 11//8 27//8
f 28//8 23//8 15//8
f 22//5 34//5 28//5
f 27//8 19//8 30//8
f 35//5 22//5 29//5
f 29//5 23//5 36//5
f 37//8 30//8 24//8
f 25//8 31//8 24//8
f 32//8 11//8 38//8
f 32//8 31//8 26//8
f 39//8 11//8 33//8
f 27//8 40//8 33//8
f 28//5 36//5 23//5
f 34//5 36//5 28//5
f 34//5 22//5 35//5
f 29//9 36//9 35//9
f 37//8 41//8 30//8
f 42//8 37//8 24//8
f 31//8 43//8 24//8
f 38//8 11//8 44//8
f 45//8 11//8 39//8
f 39//8 33//8 46//8
f 46//8 33//8 40//8
f 34//9 35//9 36//9
f 47//8 30//8 41//8
f 42//8 41//8 37//8
f 48//8 42//8 24//8
f 43//8 49//8 24//8
f 31//8 38//8 43//8
f 44//8 11//8 50//8
f 44//8 43//8 38//8
f 51//8 11//8 45//8
f 45//8 39//8 46//8
f 40//8 52//8 46//8
f 41//8 53//8 47//8
f 48//8 41//8 42//8
f 49//8 48//8 24//8
f 44//8 49//8 43//8
f 50//8 11//8 54//8
f 53//8 44//8 50//8
f 46//8 11//8 51//8
f 51//8 45//8 46//8
f 55//8 46//8 52//8
f 52//8 56//8 55//8
f 57//8 47//8 53//8
f 41//8 44//8 53//8
f 49//8 41//8 48//8
f 49//8 44//8 41//8
f 54//8 11//8 58//8
f 50//8 54//8 59//8
f 53//8 50//8 57//8
f 55//8 11//8 46//8
f 58//8 55//8 56//8
f 56//8 60//8 58//8
f 59//8 57//8 50//8
f 58//8 11//8 55//8
f 54//8 58//8 60//8
f 60//8 59//8 54//8
g mesh1-geometry-2
usemtl Material.dc7a3ca9ca091ddbf48733c3a604f557
f 2//10 17//10 3//10
f 61//11 1//11 3//11
f 1//12 62//12 4//12
f 62//13 2//13 4//13
f 17//10 2//10 63//10
f 3//10 17//10 61//10
f 1//11 61//11 64//11
f 62//12 1//12 65//12
f 2//13 62//13 63//13
f 63//10 66//10 17//10
f 22//7 61//7 17//7
f 65//12 1//12 64//12
f 65//7 67//7 62//7
f 66//10 63//10 68//10
f 66//11 19//11 17//11
f 69//13 63//13 18//13
f 61//7 22//7 70//7
f 71//7 67//7 65//7
f 72//7 62//7 67//7
f 73//7 16//7 62//7
f 63//13 69//13 68//13
f 69//7 66//7 68//7
f 19//11 66//11 74//11
f 16//7 73//7 22//7
f 75//12 18//12 19//12
f 18//12 75//12 69//12
f 70//7 22//7 76//7
f 67//7 71//7 77//7
f 78//7 62//7 72//7
f 73//7 62//7 79//7
f 66//7 69//7 74//7
f 74//12 80//12 19//12
f 76//7 22//7 73//7
f 75//12 19//12 81//12
f 82//12 69//12 75//12
f 70//7 76//7 83//7
f 70//7 77//7 71//7
f 84//7 62//7 78//7
f 79//7 62//7 85//7
f 69//12 82//12 74//12
f 74//12 82//12 80//12
f 81//12 19//12 80//12
f 70//7 83//7 86//7
f 70//7 87//7 77//7
f 88//7 62//7 84//7
f 85//7 62//7 89//7
f 70//7 86//7 90//7
f 70//7 91//7 87//7
f 92//7 62//7 88//7
f 89//7 62//7 93//7
f 70//7 90//7 91//7
f 87//7 91//7 88//7
f 94//7 62//7 92//7
f 92//7 88//7 95//7
f 93//7 62//7 96//7
f 95//7 88//7 97//7
f 97//7 88//7 91//7
f 98//7 62//7 94//7
f 96//7 62//7 99//7
f 99//7 62//7 98//7
g mesh1-geometry-3
usemtl Material.b2cdaf4394d1a4f850458878b81c7fa1
f 70//7 65//7 64//7
f 65//7 70//7 71//7
f 81//14 82//14 75//14
f 82//14 81//14 80//14
g mesh1-geometry-4
usemtl Material.efc39ebbb3cc1048a02a4c783fdc17fc
f 77//7 72//7 67//7
f 72//7 77//7 78//7
f 79//7 100//7 73//7
f 76//7 97//7 83//7
f 96//7 79//7 85//7
f 100//7 79//7 96//7
f 97//7 76//7 101//7
f 83//7 97//7 86//7
f 87//7 84//7 77//7
f 84//7 87//7 88//7
f 96//7 85//7 89//7
f 96//7 102//7 100//7
f 101//7 95//7 97//7
f 86//7 97//7 90//7
f 96//7 89//7 93//7
f 102//7 96//7 99//7
f 99//7 103//7 102//7
f 95//7 101//7 104//7
f 90//7 97//7 91//7
f 105//7 94//7 92//7
f 104//7 92//7 95//7
f 103//7 99//7 98//7
f 98//7 106//7 103//7
f 92//7 104//7 105//7
f 106//7 98//7 94//7
f 94//7 105//7 106//7
g mesh2-geometry-0
usemtl Material.faca4c01f4ad453eabbac40374a1bb14
f 107/1/15 108/2/15 109/3/15
f 110/1/16 111/3/16 112/2/16
f 113/4/15 109/3/15 108/2/15
f 114/4/16 112/2/16 111/3/16
