# created by Ethan Wu and Zhan isaac Ling
mtllib model.mtl
v -0.050847 0.277908 -0.412531
v 0.050840 0.277901 0.412523
v 0.050840 0.277901 -0.412523
vn 0.000000 1.000000 0.000000
v -0.050847 0.277908 0.412531
v 0.050847 0.242227 -0.376851
vn 1.000000 0.000000 0.000000
v 0.050836 -0.233042 -0.412527
vn 0.000000 0.000000 -1.000000
v -0.050847 -0.233045 0.412531
vn -1.000000 0.000000 0.000000
vn 0.000000 0.000000 1.000000
v 0.050847 0.242227 0.376850
v -0.050847 -0.233045 -0.412531
v 0.050843 -0.233034 0.412519
v 0.050847 -0.197366 -0.376851
v 0.050847 -0.197366 0.376850
vn 0.000000 -1.000000 0.000000
v 0.050772 0.277867 -0.412489
v 0.050772 0.277867 0.412489
v -0.050799 0.277860 -0.412482
vn 0.000000 -1.000000 0.000000
v -0.050799 0.277860 0.412482
v 0.050776 -0.233002 -0.412486
vn 0.000000 0.000000 1.000000
v -0.050799 -0.232998 0.412482
vn 1.000000 0.000000 0.000000
vn 0.000000 0.000000 -1.000000
v -0.050799 -0.232998 -0.412482
v 0.050769 -0.233009 0.412494
vn 0.000000 1.000000 0.000000
v 0.050764 0.242227 -0.376851
vn -1.000000 0.000000 0.000000
v 0.050764 0.242227 0.376850
v 0.050764 -0.197366 -0.376851
v 0.050764 -0.197366 0.376850
vt -9.82784 5.36647
vt -9.82784 0.402624
vt -18.3386 5.36647
vt -18.3386 0.402624
v -0.039986 -0.277908 0.043505
v 0.041795 -0.277908 -0.097650
v 0.041795 -0.277908 0.043505
vn 0.000000 -1.000000 0.000000
v -0.039986 -0.277908 -0.097650
v 0.041795 -0.227277 0.043505
vn 1.000000 0.000000 0.000000
vn 0.000000 0.000000 1.000000
v -0.039986 -0.227277 -0.097650
vn -1.000000 0.000000 0.000000
vn 0.000000 0.000000 -1.000000
v 0.041795 -0.227277 -0.097650
v -0.039986 -0.227277 0.043505
vn 0.000000 1.000000 0.000000
v 0.041747 -0.277860 0.043458
v 0.041747 -0.277860 -0.097602
v -0.039939 -0.277860 0.043458
vn 0.000000 1.000000 0.000000
v -0.039939 -0.277860 -0.097602
v 0.041747 -0.227324 0.043458
vn -1.000000 0.000000 0.000000
vn 0.000000 0.000000 -1.000000
v -0.039939 -0.227324 -0.097602
vn 1.000000 0.000000 0.000000
vn 0.000000 0.000000 1.000000
v 0.041747 -0.227324 -0.097602
v -0.039939 -0.227324 0.043458
vn 0.000000 -1.000000 0.000000
g mesh1-geometry-0
usemtl Material.57774a50243e5d429f3a4ea105ec3930
f 1//1 2//1 3//1
f 2//1 1//1 4//1
f 5//2 3//2 2//2
f 6//3 1//3 3//3
f 1//4 7//4 4//4
f 7//5 2//5 4//5
f 3//2 5//2 6//2
f 5//2 2//2 8//2
f 1//3 6//3 9//3
f 7//4 1//4 9//4
f 2//5 7//5 10//5
f 11//2 6//2 5//2
f 8//2 2//2 12//2
f 6//6 7//6 9//6
f 7//6 6//6 10//6
f 10//2 12//2 2//2
f 6//2 11//2 10//2
f 10//2 11//2 12//2
g mesh1-geometry-1
usemtl Material.90b00bf69165eda831fe702671104217
f 13//7 14//7 15//7
f 16//7 15//7 14//7
f 13//8 15//8 17//8
f 16//9 18//9 15//9
f 16//10 14//10 18//10
f 19//8 17//8 15//8
f 19//9 15//9 18//9
f 20//10 18//10 14//10
f 19//11 18//11 17//11
f 20//11 17//11 18//11
g mesh1-geometry-2
usemtl Material.dc7a3ca9ca091ddbf48733c3a604f557
f 14//12 13//12 21//12
f 17//12 21//12 13//12
f 22//12 14//12 21//12
f 21//12 17//12 23//12
f 24//12 14//12 22//12
f 14//12 24//12 20//12
f 20//12 23//12 17//12
f 24//12 23//12 20//12
g mesh1-geometry-3
usemtl Material.b2cdaf4394d1a4f850458878b81c7fa1
f 8//2 11//2 5//2
f 11//2 8//2 12//2
g mesh1-geometry-4
usemtl Material.090a554d081161e7156688c04af8d107
f 21/1/12 23/2/12 22/3/12
f 24/4/12 22/3/12 23/2/12
g mesh2-geometry-0
usemtl Material.57774a50243e5d429f3a4ea105ec3930
f 25//13 26//13 27//13
f 26//13 25//13 28//13
f 26//14 29//14 27//14
f 29//15 25//15 27//15
f 25//16 30//16 28//16
f 30//17 26//17 28//17
f 29//14 26//14 31//14
f 25//15 29//15 32//15
f 30//16 25//16 32//16
f 26//17 30//17 31//17
f 30//18 29//18 31//18
f 29//18 30//18 32//18
g mesh2-geometry-1
usemtl Material.dc7a3ca9ca091ddbf48733c3a604f557
f 33//19 34//19 35//19
f 36//19 35//19 34//19
f 33//20 37//20 34//20
f 33//21 35//21 37//21
f 36//22 38//22 35//22
f 36//23 34//23 38//23
f 39//20 34//20 37//20
f 40//21 37//21 35//21
f 40//22 35//22 38//22
f 39//23 38//23 34//23
f 39//24 37//24 38//24
f 40//24 38//24 37//24
