# created by Ethan Wu and Zhan isaac Ling
mtllib model.mtl
v -0.140747 -0.218861 -0.319542
v -0.264811 0.244144 0.319552
v -0.140750 -0.218859 0.319552
vn 0.965926 0.258819 0.000000
v -0.264815 0.244137 -0.319558
v -0.140795 -0.218833 0.319514
v -0.264838 0.244099 0.319514
v -0.140799 -0.218831 -0.319522
vn -0.965926 -0.258819 0.000000
v -0.264834 0.244105 -0.319506
v -0.173042 -0.227512 0.319552
vn 0.000000 0.000000 1.000000
v -0.173016 -0.227467 0.319514
vn 0.000000 0.000000 -1.000000
vn 0.258819 -0.965926 0.000000
vn -0.258819 0.965926 0.000000
v -0.173038 -0.227505 -0.319558
vn 0.000000 0.000000 -1.000000
v -0.173020 -0.227473 -0.319506
vn 0.000000 0.000000 1.000000
v -0.297107 0.235493 -0.319542
vn -0.258819 0.965926 0.000000
v -0.297055 0.235463 -0.319522
vn 0.258819 -0.965926 0.000000
v -0.297103 0.235491 0.319552
v -0.297058 0.235465 0.319514
vn -0.965926 -0.258819 0.000000
vn 0.965926 0.258819 0.000000
v 0.297098 -0.189589 -0.319542
v 0.297107 -0.236960 0.319552
v 0.297095 -0.236970 -0.319545
vn 1.000000 0.000000 0.000000
v 0.297101 -0.189591 0.319545
v 0.254267 -0.236974 0.080740
vn 0.000000 -1.000000 0.000000
v 0.114557 -0.217110 -0.319564
vn 0.000000 0.000000 -1.000000
v 0.282901 -0.189585 0.080740
vn 0.000000 1.000000 0.000000
v 0.139245 -0.189595 0.319555
vn 0.000000 0.000000 1.000000
v -0.145879 -0.236960 0.319558
v 0.254284 -0.236969 0.000857
v -0.145871 -0.236965 -0.319555
v 0.139245 -0.189590 -0.319548
v 0.282901 -0.189585 0.000857
v 0.147745 -0.236969 0.080751
v 0.254267 -0.236974 -0.079026
v -0.140702 -0.231110 -0.319561
v 0.114557 -0.195594 -0.319564
v 0.147768 -0.189590 -0.079015
v 0.254256 -0.189590 0.080729
v 0.282901 -0.189585 -0.079026
v -0.140688 -0.231119 0.319564
v 0.147756 -0.236973 -0.079018
v -0.137184 -0.224152 -0.319564
v -0.130032 -0.189595 -0.319555
v 0.147763 -0.189587 0.080734
v 0.254260 -0.189587 -0.079018
v -0.137169 -0.224157 0.319561
v -0.133643 -0.217110 -0.319564
v -0.133643 -0.195594 -0.319564
v -0.130032 -0.189601 0.319561
v -0.142797 -0.194819 -0.319558
v -0.138515 -0.201331 -0.319561
v -0.148615 -0.189641 -0.319552
v -0.135621 -0.216513 -0.319558
v -0.148594 -0.189594 -0.319513
v -0.138515 -0.201331 0.319561
v -0.142790 -0.194813 0.319561
v -0.148595 -0.189594 0.319552
v -0.136070 -0.208732 -0.319558
v -0.136070 -0.208732 0.319558
v -0.135629 -0.216513 0.319552
v 0.297081 -0.236914 -0.319518
v 0.297070 -0.236923 0.319514
v 0.297079 -0.189646 -0.319523
vn -1.000000 0.000000 0.000000
v 0.297075 -0.189644 0.319519
v 0.254267 -0.236910 0.080740
vn 0.000000 1.000000 0.000000
v 0.114557 -0.217110 -0.319501
vn 0.000000 0.000000 1.000000
v 0.282901 -0.189649 0.080740
vn 0.000000 -1.000000 0.000000
v 0.139245 -0.189640 0.319510
vn 0.000000 0.000000 -1.000000
v -0.145875 -0.236924 0.319506
v 0.254251 -0.236915 0.000857
v -0.145882 -0.236919 -0.319511
v 0.139245 -0.189645 -0.319516
v 0.282901 -0.189649 0.000857
v 0.147768 -0.236914 0.080729
v 0.254278 -0.189645 0.080751
vn 1.000000 0.000000 0.000000
vn 0.000000 -1.000000 0.000000
vn 0.000000 1.000000 0.000000
v 0.254267 -0.236910 -0.079026
v -0.140675 -0.231128 -0.319505
v 0.114557 -0.195594 -0.319501
v 0.147745 -0.189645 -0.079037
v 0.282901 -0.189649 -0.079026
v -0.140688 -0.231119 0.319501
vn 0.000000 0.000000 1.000000
v 0.254281 -0.189646 0.000857
v 0.147756 -0.236911 -0.079034
vn -0.746628 0.665242 0.000000
vn -0.827072 0.562096 0.000000
v -0.142766 -0.194792 -0.319508
v -0.137184 -0.224152 -0.319501
v -0.130032 -0.189640 -0.319510
v 0.105058 -0.209933 -0.319501
vn 0.000000 0.000000 1.000000
v 0.147750 -0.189648 0.080747
v 0.254275 -0.189648 -0.079033
v -0.137200 -0.224146 0.319505
v -0.142773 -0.194798 0.319503
vn 0.000000 0.000000 -1.000000
v -0.152405 -0.241203 -0.319510
vn -0.549010 0.835816 0.000000
vn -0.435217 0.900325 0.000000
vn 0.000000 0.000000 -1.000000
v -0.138485 -0.201317 -0.319505
vn -0.944371 0.328881 0.000000
v -0.133643 -0.217110 -0.319501
v -0.133643 -0.195594 -0.319501
v -0.130032 -0.189634 0.319505
v 0.105058 -0.202495 -0.319501
v -0.138485 -0.201317 0.319505
v -0.148614 -0.189640 0.319513
v -0.152405 -0.241203 0.319510
vn -0.900325 -0.435217 0.000000
vn -0.757005 -0.653409 0.000000
vn -0.388946 -0.921261 0.000000
v -0.136032 -0.208725 -0.319507
v -0.135583 -0.216516 -0.319507
v 0.097620 -0.209933 -0.319501
vn 0.000000 0.000000 1.000000
v -0.136032 -0.208725 0.319507
vn -0.997313 0.073254 0.000000
v -0.159804 -0.243650 -0.319510
vn -0.187366 0.982290 0.000000
v -0.155579 -0.186134 -0.319510
vn -0.982290 -0.187366 0.000000
v -0.155579 -0.186134 0.319510
vn -0.328881 -0.944371 0.000000
v 0.097620 -0.202495 -0.319501
v -0.135576 -0.216517 0.319515
v -0.159804 -0.243650 0.319510
v -0.167584 -0.244099 -0.319510
vn 0.073254 0.997313 0.000000
v -0.163211 -0.184554 -0.319510
v -0.163211 -0.184554 0.319510
vn -0.073254 -0.997313 0.000000
v -0.167584 -0.244099 0.319510
v -0.175215 -0.242518 -0.319510
vn 0.328881 0.944371 0.000000
v -0.170990 -0.185003 -0.319510
v -0.170990 -0.185003 0.319510
vn 0.187366 -0.982290 0.000000
v -0.175215 -0.242518 0.319510
v -0.182177 -0.239016 -0.319510
vn 0.562096 0.827072 0.000000
v -0.178390 -0.187449 -0.319510
v -0.178390 -0.187449 0.319510
vn 0.435217 -0.900325 0.000000
v -0.182177 -0.239016 0.319510
v -0.187993 -0.233830 -0.319513
vn 0.757005 0.653409 0.000000
v -0.184906 -0.191724 -0.319506
v -0.184901 -0.191730 0.319513
vn 0.653409 -0.757005 0.000000
v -0.188000 -0.233835 0.319506
v -0.192274 -0.227319 0.319510
vn 0.900325 0.435217 0.000000
v -0.190087 -0.197546 -0.319510
vn 0.827072 -0.562096 0.000000
v -0.190087 -0.197546 0.319510
v -0.192274 -0.227319 -0.319510
v -0.194717 -0.219919 0.319515
vn 0.982290 0.187366 0.000000
v -0.193589 -0.204508 0.319510
v -0.193589 -0.204508 -0.319510
vn 0.944371 -0.328881 0.000000
v -0.194717 -0.219919 -0.319515
v -0.195162 -0.212140 0.319522
vn 0.997313 -0.073254 0.000000
v -0.195162 -0.212140 -0.319522
vn -1.000000 0.000000 0.000000
vn 0.000000 0.000000 -1.000000
v 0.254253 -0.189589 0.000857
vn 0.000000 0.000000 1.000000
vn 0.000000 0.000000 1.000000
v -0.152385 -0.241244 -0.319555
vn 0.549010 -0.835816 0.000000
vn 0.435217 -0.900325 0.000000
v -0.152385 -0.241244 0.319555
v -0.159795 -0.243694 -0.319555
vn 0.187366 -0.982290 0.000000
v -0.155564 -0.186092 -0.319555
v -0.155564 -0.186092 0.319555
vn 0.388946 0.921261 0.000000
vn 0.328881 0.944371 0.000000
v -0.159795 -0.243694 0.319555
v -0.167587 -0.244144 -0.319555
vn -0.073254 -0.997313 0.000000
v -0.163207 -0.184509 -0.319555
v -0.163207 -0.184509 0.319555
vn 0.073254 0.997313 0.000000
v -0.167587 -0.244144 0.319555
v -0.175230 -0.242561 -0.319555
vn -0.328881 -0.944371 0.000000
v -0.170999 -0.184958 -0.319555
v -0.170999 -0.184958 0.319555
vn -0.187366 0.982290 0.000000
v -0.175230 -0.242561 0.319555
v -0.182203 -0.239054 -0.319555
vn -0.562096 -0.827072 0.000000
v -0.178409 -0.187409 -0.319555
v -0.178409 -0.187409 0.319555
vn -0.435217 0.900325 0.000000
v -0.182203 -0.239054 0.319555
v -0.188032 -0.233864 -0.319552
vn -0.757005 -0.653409 0.000000
v -0.184929 -0.191697 -0.319558
v -0.184935 -0.191691 0.319552
vn -0.653409 0.757005 0.000000
v -0.188026 -0.233859 0.319558
v -0.192315 -0.227338 0.319555
vn -0.900325 -0.435217 0.000000
v -0.190125 -0.197521 -0.319555
vn -0.827072 0.562096 0.000000
v -0.190125 -0.197521 0.319555
v -0.192315 -0.227338 -0.319555
v -0.194769 -0.219929 0.319552
vn -0.982290 -0.187366 0.000000
v -0.193632 -0.204493 0.319555
v -0.193632 -0.204493 -0.319555
vn -0.944371 0.328881 0.000000
v -0.194769 -0.219929 -0.319552
v -0.195222 -0.212135 0.319542
vn -0.997313 0.073254 0.000000
v -0.195222 -0.212135 -0.319542
vn 0.827072 -0.562096 0.000000
vn 0.746628 -0.665242 0.000000
vn 0.944371 -0.328881 0.000000
vn 0.757005 0.653409 0.000000
vn 0.900325 0.435217 0.000000
vn 0.997313 -0.073254 0.000000
vn 0.982290 0.187366 0.000000
v 0.105058 -0.209933 -0.319564
vn 0.000000 0.000000 -1.000000
v 0.105058 -0.202495 -0.319564
v 0.097620 -0.209933 -0.319564
v 0.097620 -0.202495 -0.319564
vn 0.000000 0.000000 -1.000000
v -0.144819 -0.194838 -0.293782
v -0.140077 -0.194838 -0.293961
v -0.142436 -0.194838 -0.293559
vn 0.000000 -1.000000 0.000000
v -0.147063 -0.194838 -0.294614
v -0.142436 -0.194774 -0.293559
v -0.140077 -0.194774 -0.293961
v -0.144819 -0.194774 -0.293782
vn 0.000000 1.000000 0.000000
v -0.147063 -0.194774 -0.294614
v -0.137902 -0.194838 -0.294959
v -0.137902 -0.194774 -0.294959
v -0.149016 -0.194838 -0.295999
v -0.149016 -0.194774 -0.295999
v -0.136059 -0.194838 -0.296487
v -0.136059 -0.194774 -0.296487
v -0.150543 -0.194838 -0.297841
v -0.150543 -0.194774 -0.297841
v -0.134675 -0.194838 -0.298439
v -0.134675 -0.194774 -0.298439
v -0.151541 -0.194838 -0.300016
v -0.151541 -0.194774 -0.300016
v -0.133843 -0.194838 -0.300683
v -0.133843 -0.194774 -0.300683
v -0.151943 -0.194838 -0.302376
v -0.151943 -0.194774 -0.302376
v -0.133621 -0.194838 -0.303066
v -0.133621 -0.194774 -0.303066
v -0.151720 -0.194838 -0.304758
v -0.151720 -0.194774 -0.304758
v -0.134022 -0.194838 -0.305425
v -0.134022 -0.194774 -0.305425
v -0.150888 -0.194838 -0.307002
v -0.150888 -0.194774 -0.307002
v -0.135020 -0.194838 -0.307600
v -0.135020 -0.194774 -0.307600
v -0.149504 -0.194838 -0.308954
v -0.149504 -0.194774 -0.308954
v -0.136548 -0.194838 -0.309443
v -0.136548 -0.194774 -0.309443
v -0.147661 -0.194838 -0.310482
v -0.147661 -0.194774 -0.310482
v -0.138500 -0.194838 -0.310827
v -0.138500 -0.194774 -0.310827
v -0.145486 -0.194838 -0.311480
v -0.145486 -0.194774 -0.311480
v -0.140744 -0.194838 -0.311659
v -0.140744 -0.194774 -0.311659
v -0.143127 -0.194838 -0.311882
v -0.143127 -0.194774 -0.311882
v -0.155215 -0.164822 0.299318
v -0.155215 -0.164822 -0.299343
v -0.252056 0.196592 0.299318
vn 0.965926 0.258819 0.000000
vt 0.0 0.0
vt 1.0 0.0
vt 0.0 1.0
v -0.155277 -0.164838 0.299318
v -0.252118 0.196575 0.299318
v -0.155277 -0.164838 -0.299343
vn -0.965926 -0.258819 0.000000
v -0.252056 0.196592 -0.299343
vt 1.0 1.0
v -0.252118 0.196575 -0.299343
v 0.116373 -0.189585 0.319533
v 0.116373 -0.189585 -0.319533
v -0.135996 -0.189585 0.319533
vn 0.000000 1.000000 0.000000
vt 0.0 0.0
vt 1.0 0.0
vt 0.0 1.0
v 0.116373 -0.189649 0.319533
v -0.135996 -0.189649 0.319533
v 0.116373 -0.189649 -0.319533
vn 0.000000 -1.000000 0.000000
v -0.135996 -0.189585 -0.319533
vt 1.0 1.0
v -0.135996 -0.189649 -0.319533
g mesh1-geometry-0
usemtl Material.57774a50243e5d429f3a4ea105ec3930
f 1//1 2//1 3//1
f 2//1 1//1 4//1
f 5//2 6//2 7//2
f 8//2 7//2 6//2
f 2//3 9//3 3//3
f 5//4 10//4 6//4
f 9//5 1//5 3//5
f 5//6 7//6 10//6
f 11//7 4//7 1//7
f 7//8 8//8 12//8
f 13//9 2//9 4//9
f 8//10 6//10 14//10
f 9//3 2//3 15//3
f 16//4 6//4 10//4
f 1//5 9//5 11//5
f 12//6 10//6 7//6
f 4//7 11//7 13//7
f 14//8 12//8 8//8
f 2//9 13//9 15//9
f 16//10 14//10 6//10
f 13//11 9//11 15//11
f 16//12 10//12 14//12
f 9//11 13//11 11//11
f 12//12 14//12 10//12
g mesh3-geometry-0
usemtl Material.57774a50243e5d429f3a4ea105ec3930
f 17//13 18//13 19//13
f 18//13 17//13 20//13
f 18//14 21//14 19//14
f 19//15 22//15 17//15
f 23//16 20//16 17//16
f 24//17 18//17 20//17
f 21//14 18//14 25//14
f 19//14 21//14 26//14
f 22//15 19//15 27//15
f 17//15 22//15 28//15
f 20//16 23//16 24//16
f 23//16 17//16 29//16
f 18//17 24//17 25//17
f 25//14 30//14 21//14
f 19//14 26//14 31//14
f 19//14 31//14 27//14
f 22//15 27//15 32//15
f 33//15 28//15 22//15
f 28//16 34//16 17//16
f 35//16 24//16 23//16
f 29//16 17//16 36//16
f 25//17 24//17 37//17
f 30//14 25//14 27//14
f 38//14 27//14 31//14
f 22//15 32//15 39//15
f 28//15 33//15 40//15
f 28//16 41//16 34//16
f 42//16 17//16 34//16
f 41//16 24//16 35//16
f 36//16 17//16 42//16
f 37//17 24//17 43//17
f 30//14 27//14 38//14
f 22//15 39//15 44//15
f 40//15 33//15 45//15
f 24//16 41//16 28//16
f 43//17 24//17 46//17
f 47//15 45//15 48//15
f 49//15 45//15 47//15
f 44//15 39//15 50//15
f 40//15 45//15 51//15
f 52//17 46//17 53//17
f 53//17 46//17 54//17
f 48//15 45//15 55//15
f 44//15 50//15 45//15
f 46//17 56//17 57//17
f 56//17 46//17 52//17
f 55//15 45//15 50//15
g mesh3-geometry-1
usemtl Material.90b00bf69165eda831fe702671104217
f 58//18 59//18 60//18
f 61//18 60//18 59//18
f 58//19 62//19 59//19
f 60//20 63//20 58//20
f 60//21 61//21 64//21
f 61//22 59//22 65//22
f 66//19 59//19 62//19
f 67//19 62//19 58//19
f 68//20 58//20 63//20
f 69//20 63//20 60//20
f 65//21 64//21 61//21
f 70//21 60//21 64//21
f 66//22 65//22 59//22
f 62//19 71//19 66//19
f 21//23 26//23 72//23
f 30//24 26//24 21//24
f 62//25 67//25 71//25
f 73//19 67//19 58//19
f 68//19 73//19 58//19
f 74//20 68//20 63//20
f 63//20 69//20 75//20
f 60//21 76//21 69//21
f 64//21 65//21 72//21
f 77//21 60//21 70//21
f 64//21 72//21 70//21
f 78//22 65//22 66//22
f 68//19 66//19 71//19
f 21//26 72//26 30//26
f 79//23 72//23 26//23
f 26//24 30//24 38//24
f 80//25 71//25 67//25
f 26//23 31//23 79//23
f 26//24 38//24 31//24
f 73//25 80//25 67//25
f 73//19 68//19 80//19
f 68//27 25//27 32//28
f 68//20 74//20 81//20
f 82//20 74//20 63//20
f 83//20 75//20 69//20
f 75//29 84//29 63//29
f 76//21 85//21 69//21
f 76//21 60//21 86//21
f 72//21 65//21 85//21
f 86//21 60//21 77//21
f 70//21 79//21 77//21
f 79//21 70//21 72//21
f 87//22 65//22 78//22
f 66//30 88//30 78//30
f 78//28 32//28 25//27
f 68//31 89//32 66//31
f 80//19 68//19 71//19
f 85//26 30//26 72//26
f 72//21 85//21 79//21
f 38//18 30//18 76//18
f 86//23 79//23 31//23
f 80//33 76//33 31//33
f 81//20 74//20 90//20
f 51//20 68//20 81//20
f 32//28 78//28 82//34
f 74//20 82//20 90//20
f 91//20 82//20 63//20
f 92//20 75//20 83//20
f 83//21 69//21 93//21
f 91//29 63//29 84//29
f 84//29 75//29 94//29
f 69//21 85//21 65//21
f 85//18 76//18 30//18
f 76//21 79//21 85//21
f 86//33 31//33 76//33
f 86//21 79//21 76//21
f 86//21 77//21 79//21
f 93//22 65//22 87//22
f 78//30 95//30 87//30
f 87//34 82//34 78//28
f 88//30 95//30 78//30
f 96//30 88//30 66//30
f 97//32 66//31 89//32
f 89//20 68//20 51//20
f 48//35 52//35 47//36
f 90//20 92//20 81//20
f 49//37 47//36 96//37
f 81//20 92//20 51//20
f 90//20 82//20 98//20
f 99//20 82//20 91//20
f 92//29 94//29 75//29
f 49//20 92//20 83//20
f 65//21 93//21 69//21
f 93//21 96//37 83//21
f 100//29 91//29 84//29
f 84//38 94//38 100//38
f 95//30 101//30 87//30
f 82//34 87//34 50//39
f 53//36 47//36 52//35
f 88//22 93//22 95//22
f 53//36 96//37 47//36
f 96//22 93//22 88//22
f 97//30 96//30 66//30
f 89//32 102//40 97//32
f 103//20 89//20 51//20
f 52//35 48//35 56//41
f 98//20 92//20 90//20
f 96//37 104//42 49//37
f 49//37 83//21 96//37
f 99//20 98//20 82//20
f 55//41 56//41 48//35
f 92//20 99//20 91//20
f 105//29 94//29 92//29
f 105//29 91//29 100//29
f 105//38 100//38 94//38
f 106//22 101//22 93//22
f 106//30 87//30 101//30
f 57//39 50//39 87//34
f 95//22 93//22 101//22
f 104//30 96//30 97//30
f 107//40 97//32 102//40
f 102//20 89//20 103//20
f 103//42 49//37 104//42
f 99//20 92//20 98//20
f 50//39 57//39 55//41
f 56//41 55//41 57//39
f 91//29 105//29 92//29
f 107//30 104//30 97//30
f 102//40 108//43 107//40
f 109//20 102//20 103//20
f 104//42 110//44 103//42
f 110//30 104//30 107//30
f 111//43 107//40 108//43
f 108//20 102//20 109//20
f 109//44 103//42 110//44
f 111//30 110//30 107//30
f 108//43 112//45 111//43
f 113//20 108//20 109//20
f 110//44 114//46 109//44
f 114//30 110//30 111//30
f 115//45 111//43 112//45
f 112//20 108//20 113//20
f 113//46 109//44 114//46
f 115//30 114//30 111//30
f 112//45 116//47 115//45
f 117//20 112//20 113//20
f 114//46 118//48 113//46
f 118//30 114//30 115//30
f 119//47 115//45 116//47
f 116//20 112//20 117//20
f 117//48 113//46 118//48
f 119//30 118//30 115//30
f 116//47 120//49 119//47
f 121//20 116//20 117//20
f 118//48 122//50 117//48
f 122//30 118//30 119//30
f 123//49 119//47 120//49
f 120//20 116//20 121//20
f 121//50 117//48 122//50
f 123//30 122//30 119//30
f 123//49 120//49 124//51
f 125//20 120//20 121//20
f 121//50 122//50 125//52
f 126//30 122//30 123//30
f 127//51 124//51 120//49
f 124//30 126//30 123//30
f 127//20 120//20 125//20
f 126//52 125//52 122//50
f 124//51 127//51 128//53
f 129//30 126//30 124//30
f 130//20 127//20 125//20
f 125//52 126//52 130//54
f 131//53 128//53 127//51
f 128//30 129//30 124//30
f 129//54 130//54 126//52
f 131//20 127//20 130//20
f 128//53 131//53 132//55
f 132//30 129//30 128//30
f 130//54 129//54 133//55
f 133//20 131//20 130//20
f 133//55 132//55 131//53
f 132//55 133//55 129//54
g mesh3-geometry-2
usemtl Material.337c930ef1c2acf4c161ac14febc6f9c
f 35//56 67//56 21//56
f 71//57 35//57 21//57
f 67//56 35//56 134//56
f 134//56 31//56 67//56
f 35//57 71//57 41//57
f 34//13 71//13 38//13
f 31//56 134//56 42//56
f 31//58 34//58 38//58
f 71//13 34//13 41//13
f 34//58 31//58 42//58
g mesh3-geometry-3
usemtl Material.dc7a3ca9ca091ddbf48733c3a604f557
f 29//16 35//16 23//16
f 47//15 32//15 27//15
f 36//16 134//16 29//16
f 35//16 29//16 134//16
f 37//59 53//59 25//59
f 25//60 135//61 27//60
f 48//15 32//15 47//15
f 47//15 27//15 49//15
f 48//15 39//15 32//15
f 134//16 36//16 42//16
f 43//59 52//59 37//59
f 37//59 52//59 53//59
f 25//59 53//59 54//59
f 135//61 25//60 136//61
f 49//15 27//15 135//15
f 55//15 39//15 48//15
f 43//59 56//59 52//59
f 25//59 54//59 136//59
f 136//61 137//62 135//61
f 49//15 135//15 138//15
f 51//63 139//64 54//63
f 39//15 55//15 50//15
f 56//59 43//59 57//59
f 136//59 54//59 139//59
f 137//62 136//61 140//62
f 138//15 135//15 137//15
f 139//64 51//63 138//64
f 136//59 139//59 140//59
f 140//62 141//65 137//62
f 138//15 137//15 142//15
f 138//64 143//66 139//64
f 140//59 139//59 143//59
f 141//65 140//62 144//65
f 142//15 137//15 141//15
f 143//66 138//64 142//66
f 140//59 143//59 144//59
f 144//65 145//67 141//65
f 142//15 141//15 146//15
f 142//66 147//68 143//66
f 144//59 143//59 147//59
f 145//67 144//65 148//67
f 146//15 141//15 145//15
f 147//68 142//66 146//68
f 144//59 147//59 148//59
f 148//67 149//69 145//67
f 146//15 145//15 150//15
f 146//68 151//70 147//68
f 148//59 147//59 151//59
f 149//69 148//67 152//69
f 150//15 145//15 149//15
f 151//70 146//68 150//70
f 148//59 151//59 152//59
f 152//69 153//71 149//69
f 150//15 149//15 154//15
f 150//70 155//72 151//70
f 152//59 151//59 155//59
f 153//71 152//69 156//71
f 154//15 149//15 153//15
f 155//72 150//70 154//72
f 152//59 155//59 156//59
f 157//73 153//71 156//71
f 154//15 153//15 158//15
f 158//74 155//72 154//72
f 156//59 155//59 159//59
f 153//71 157//73 160//73
f 156//59 159//59 157//59
f 158//15 153//15 160//15
f 155//72 158//74 159//74
f 161//75 160//73 157//73
f 157//59 159//59 162//59
f 158//15 160//15 163//15
f 163//76 159//74 158//74
f 160//73 161//75 164//75
f 157//59 162//59 161//59
f 159//74 163//76 162//76
f 163//15 160//15 164//15
f 165//77 164//75 161//75
f 161//59 162//59 165//59
f 166//77 162//76 163//76
f 163//15 164//15 166//15
f 164//75 165//77 166//77
f 162//76 166//77 165//77
g mesh3-geometry-4
usemtl Material.b2cdaf4394d1a4f850458878b81c7fa1
f 74//78 66//79 27//79
f 66//79 74//78 78//78
f 82//80 78//78 74//78
f 78//78 82//80 43//80
f 81//81 95//82 90//82
f 54//63 81//81 51//63
f 99//83 43//80 82//80
f 95//82 81//81 88//81
f 81//81 54//63 88//81
f 101//84 90//82 95//82
f 90//82 101//84 98//84
f 43//80 99//83 106//83
f 98//84 106//83 99//83
f 106//83 98//84 101//84
g mesh3-geometry-5
usemtl Material.1a9b9f2ffc3bd045e8f97d5062c1c924
f 22//85 167//85 33//85
f 167//85 22//85 44//85
f 168//85 33//85 167//85
f 33//85 168//85 45//85
f 167//85 44//85 169//85
f 45//85 168//85 170//85
f 169//85 44//85 170//85
f 45//85 170//85 44//85
g mesh3-geometry-6
usemtl Material.efc39ebbb3cc1048a02a4c783fdc17fc
f 134//16 41//16 35//16
f 46//16 28//16 40//16
f 41//16 134//16 34//16
f 34//16 134//16 42//16
f 28//16 46//16 24//16
f 40//16 54//63 46//16
f 54//63 40//16 51//63
g mesh3-geometry-7
usemtl Material.3ac6031be7abcb165f3b2ce0a1a4e393
f 169//86 168//86 167//86
f 168//86 169//86 170//86
g mesh4-geometry-0
usemtl Material.90b00bf69165eda831fe702671104217
f 171//87 172//87 173//87
f 172//87 171//87 174//87
f 175//88 176//88 177//88
f 178//88 177//88 176//88
f 172//87 174//87 179//87
f 180//88 178//88 176//88
f 179//87 174//87 181//87
f 182//88 178//88 180//88
f 179//87 181//87 183//87
f 184//88 182//88 180//88
f 183//87 181//87 185//87
f 186//88 182//88 184//88
f 183//87 185//87 187//87
f 188//88 186//88 184//88
f 187//87 185//87 189//87
f 190//88 186//88 188//88
f 187//87 189//87 191//87
f 192//88 190//88 188//88
f 191//87 189//87 193//87
f 194//88 190//88 192//88
f 191//87 193//87 195//87
f 196//88 194//88 192//88
f 195//87 193//87 197//87
f 198//88 194//88 196//88
f 195//87 197//87 199//87
f 200//88 198//88 196//88
f 199//87 197//87 201//87
f 202//88 198//88 200//88
f 199//87 201//87 203//87
f 204//88 202//88 200//88
f 203//87 201//87 205//87
f 206//88 202//88 204//88
f 203//87 205//87 207//87
f 208//88 206//88 204//88
f 207//87 205//87 209//87
f 210//88 206//88 208//88
f 207//87 209//87 211//87
f 212//88 210//88 208//88
f 211//87 209//87 213//87
f 214//88 210//88 212//88
f 211//87 213//87 215//87
f 216//88 214//88 212//88
f 215//87 213//87 217//87
f 218//88 214//88 216//88
g mesh5-geometry-0
usemtl Material.faca4c01f4ad453eabbac40374a1bb14
f 219/1/89 220/2/89 221/3/89
f 222/1/90 223/3/90 224/2/90
f 225/4/89 221/3/89 220/2/89
f 226/4/90 224/2/90 223/3/90
g mesh6-geometry-0
usemtl Material.ff2b76dd9d013336f15786b2b7f09a50
f 227/5/91 228/6/91 229/7/91
f 230/5/92 231/7/92 232/6/92
f 233/8/91 229/7/91 228/6/91
f 234/8/92 232/6/92 231/7/92
