# created by Ethan Wu and Zhan isaac Ling
mtllib model.mtl
v -0.243653 -0.158307 0.388967
v -0.243333 -0.121783 0.349938
v -0.240856 0.176329 0.388944
vn 0.999965 -0.008317 0.000000
v -0.243646 -0.158307 -0.388967
v -0.240918 0.176287 0.388921
v -0.243401 -0.121816 0.349955
v -0.243688 -0.158307 0.388897
vn -0.999965 0.008317 0.000000
v -0.243695 -0.158307 -0.388906
v -0.241068 0.150838 0.349926
v -0.241130 0.150859 0.349967
v -0.260014 0.176326 0.388967
vn 0.000000 0.000000 1.000000
v -0.260014 0.176291 0.388897
vn 0.000000 0.000000 -1.000000
v -0.243335 -0.121784 -0.340802
v -0.243399 -0.121816 -0.340834
v -0.240852 0.176320 -0.388948
v -0.240923 0.176297 -0.388924
v -0.260014 -0.174251 0.388959
v -0.260014 -0.174196 0.388904
v -0.260014 0.176336 -0.388963
vn 0.000000 1.000000 0.000000
v -0.260014 0.176280 -0.388908
vn 0.000000 -1.000000 0.000000
v -0.241071 0.150829 -0.340799
v -0.241127 0.150867 -0.340837
v -0.250159 -0.121721 -0.340795
vn 0.008317 0.999965 0.000000
v -0.250166 -0.121727 0.349915
v -0.240887 -0.174251 0.388959
v -0.240887 -0.174196 0.388904
v -0.250204 -0.121765 -0.340840
vn 0.000000 0.000000 -1.000000
vn 0.000000 0.000000 -1.000000
vn 0.000000 0.000000 1.000000
v -0.250198 -0.121759 0.349978
v -0.247939 0.150931 0.349960
vn -0.999965 0.008317 0.000000
v -0.191248 -0.174262 0.041733
vn 0.000000 -1.000000 0.000000
v -0.191248 -0.174184 0.041733
vn 0.000000 1.000000 0.000000
v -0.044638 -0.158307 0.388971
v -0.044638 -0.158307 0.388893
v -0.247936 0.150928 -0.340840
v -0.260014 -0.174240 -0.388971
v -0.260014 -0.174206 -0.388901
v -0.260014 -0.174262 0.037607
v -0.260014 -0.174184 0.037607
v -0.076397 -0.174260 0.352351
v -0.076379 -0.174186 0.352337
v 0.259988 -0.174257 0.388948
v 0.259971 -0.174189 0.388915
v -0.240887 -0.174258 -0.388951
v -0.240887 -0.174188 -0.388918
v -0.076392 -0.174261 -0.359513
v -0.076384 -0.174185 -0.359500
v 0.260014 -0.158307 0.388948
v 0.259945 -0.158307 0.388914
v 0.259993 -0.174257 -0.388948
v 0.259966 -0.174189 -0.388922
v -0.260014 -0.174262 -0.023583
v -0.260014 -0.174184 -0.023583
v -0.260014 -0.174262 -0.016343
v -0.195841 -0.174262 0.037607
vn 0.000000 -1.000000 0.000000
v -0.195841 -0.174262 -0.016343
v -0.195841 -0.174184 -0.016343
v -0.074013 -0.176333 -0.359529
vn -0.656837 -0.754033 0.000000
v -0.073998 -0.174245 0.352376
v -0.073998 -0.174202 0.352312
vn 1.000000 0.000000 0.000000
v 0.260007 -0.158307 -0.388963
v 0.259952 -0.158307 -0.388908
v -0.074006 -0.176336 0.352366
v -0.073998 -0.174245 -0.359539
v 0.210509 -0.174254 0.352354
v 0.210467 -0.174192 0.352334
v -0.073998 -0.174202 -0.359475
v 0.210510 -0.176327 -0.359529
vn 0.000000 -1.000000 0.000000
v 0.210504 -0.176321 0.352376
v 0.210504 -0.174255 -0.359523
v 0.210472 -0.174191 -0.359491
vn 1.000000 0.000000 0.000000
vn 0.000000 0.000000 -1.000000
vn 0.000000 0.000000 1.000000
vn -0.008317 -0.999965 0.000000
v -0.247888 0.150879 0.349934
vn 0.000000 0.000000 1.000000
vn -0.008317 -0.999965 0.000000
vn 0.008317 0.999965 0.000000
v -0.247892 0.150882 -0.340795
v -0.195841 -0.174184 0.037607
vn 0.000000 1.000000 0.000000
vn 0.000000 -1.000000 0.000000
v -0.073984 -0.176277 -0.359484
vn 0.656837 0.754033 0.000000
vn -1.000000 0.000000 0.000000
v -0.073991 -0.176274 0.352322
v 0.210466 -0.176282 -0.359484
v 0.210472 -0.176289 0.352312
vn -1.000000 0.000000 0.000000
vn 0.999965 -0.008317 0.000000
vt 1.0 0.0
vt 0.0 0.92101
vt 0.0 0.0
vt 1.0 0.92101
v -0.260014 -0.174184 -0.016343
vn 0.000000 1.000000 0.000000
vt -1.1895 1.0
vt -1.1895 0.0
vt 0.0 1.0
vn 0.000000 1.000000 0.000000
vt 0.0 1.02358
vt 0.0 0.0
vt 1.14073 1.02358
vt 1.14073 0.0
g mesh1-geometry-0
usemtl Material.57774a50243e5d429f3a4ea105ec3930
f 1//1 2//1 3//1
f 2//1 1//1 4//1
f 5//2 6//2 7//2
f 8//2 7//2 6//2
f 9//1 3//1 2//1
f 6//2 5//2 10//2
f 11//3 1//3 3//3
f 5//4 7//4 12//4
f 2//1 4//1 13//1
f 14//2 8//2 6//2
f 3//1 9//1 15//1
f 16//2 10//2 5//2
f 17//3 1//3 11//3
f 12//4 7//4 18//4
f 3//5 19//5 11//5
f 12//6 20//6 5//6
f 13//1 4//1 21//1
f 22//2 8//2 14//2
f 23//7 2//7 13//7
f 15//1 9//1 21//1
f 22//2 10//2 16//2
f 19//5 3//5 15//5
f 16//6 5//6 20//6
f 2//7 23//7 24//7
f 1//3 17//3 25//3
f 26//4 18//4 7//4
f 15//1 21//1 4//1
f 8//2 22//2 16//2
f 14//8 27//8 22//8
f 4//9 19//9 15//9
f 16//10 20//10 8//10
f 28//11 29//11 27//11
f 17//12 30//12 25//12
f 26//13 31//13 18//13
f 25//3 32//3 1//3
f 7//4 33//4 26//4
f 34//8 22//8 27//8
f 4//9 35//9 19//9
f 20//10 36//10 8//10
f 34//11 27//11 29//11
f 30//12 17//12 37//12
f 38//13 18//13 31//13
f 25//12 30//12 39//12
f 40//13 31//13 26//13
f 32//3 25//3 41//3
f 42//4 26//4 33//4
f 35//9 4//9 43//9
f 44//10 8//10 36//10
f 39//12 30//12 45//12
f 46//13 31//13 40//13
f 25//12 39//12 41//12
f 42//13 40//13 26//13
f 47//3 32//3 41//3
f 42//4 33//4 48//4
f 4//9 49//9 43//9
f 44//10 50//10 8//10
f 43//12 51//12 35//12
f 36//13 52//13 44//13
f 37//14 53//14 54//14
f 55//12 45//12 30//12
f 31//13 46//13 56//13
f 57//15 39//15 45//15
f 41//12 39//12 58//12
f 59//13 40//13 42//13
f 49//16 47//16 41//16
f 49//9 4//9 60//9
f 61//10 8//10 50//10
f 45//12 43//12 49//12
f 50//13 44//13 46//13
f 51//12 43//12 55//12
f 56//13 44//13 52//13
f 55//14 54//14 53//14
f 55//12 43//12 45//12
f 46//13 44//13 56//13
f 39//15 57//15 62//15
f 45//9 63//9 57//9
f 39//3 62//3 58//3
f 41//12 58//12 64//12
f 65//13 59//13 42//13
f 47//16 49//16 60//16
f 41//12 64//12 49//12
f 50//13 65//13 42//13
f 45//12 49//12 63//12
f 66//13 50//13 46//13
f 67//17 62//17 57//17
f 63//9 67//9 57//9
f 68//3 58//3 62//3
f 58//3 68//3 64//3
f 69//12 49//12 64//12
f 65//13 50//13 70//13
f 63//12 49//12 69//12
f 70//13 50//13 66//13
f 62//17 67//17 68//17
f 67//9 63//9 69//9
f 67//18 64//18 68//18
f 64//18 67//18 69//18
g mesh1-geometry-1
usemtl Material.90b00bf69165eda831fe702671104217
f 24//19 9//19 2//19
f 6//20 10//20 28//20
f 14//21 6//21 27//21
f 9//19 24//19 71//19
f 29//20 28//20 10//20
f 28//21 27//21 6//21
f 21//22 23//22 13//22
f 71//23 21//23 9//23
f 10//24 22//24 29//24
f 23//22 21//22 72//22
f 21//23 71//23 72//23
f 34//24 29//24 22//24
f 31//25 73//25 38//25
f 37//26 54//26 30//26
f 73//25 31//25 56//25
f 55//26 30//26 54//26
f 46//27 40//27 74//27
f 42//28 48//28 50//28
f 75//27 74//27 40//27
f 74//10 66//10 46//10
f 59//4 75//4 40//4
f 61//28 50//28 48//28
f 74//10 76//10 66//10
f 75//4 59//4 77//4
f 65//4 77//4 59//4
f 70//10 66//10 76//10
f 77//29 65//29 76//29
f 70//29 76//29 65//29
g mesh1-geometry-2
usemtl Material.fd405729217466f29eac93fc2fe0bd88
f 23/1/30 71/2/30 24/3/30
f 71/2/30 23/1/30 72/4/30
g mesh1-geometry-3
usemtl Material.751824933f76bb5064d0ff5c0b0c11bb
f 73/3/31 78/5/31 38/6/31
f 78/5/31 73/3/31 56/7/31
g mesh1-geometry-4
usemtl Material.ec54333377af01998850abef039c82fd
f 74/8/32 75/9/32 76/10/32
f 77/11/32 76/10/32 75/9/32
