# created by Ethan Wu and Zhan isaac Ling
mtllib model.mtl
v -0.263360 0.021601 -0.424470
v -0.263360 -0.021586 0.424470
v -0.263360 0.021601 0.424470
vn -0.577350 0.577350 -0.577350
vn -0.577350 -0.577350 0.577350
vn -0.577350 0.577350 0.577350
v -0.263360 -0.021586 -0.424470
vn -0.577350 -0.577350 -0.577350
v -0.263311 0.021552 0.424420
v -0.263311 -0.021537 0.424420
v -0.263311 0.021552 -0.424420
vn 0.577350 -0.577350 -0.577350
vn 0.577350 0.577350 -0.577350
vn 0.577350 -0.577350 0.577350
v -0.263311 -0.021537 -0.424420
vn 0.577350 0.577350 0.577350
v 0.263360 0.021601 0.424470
v 0.263311 0.021552 0.424420
v -0.228258 0.021601 0.374681
v -0.228307 0.021552 0.374730
v 0.263360 -0.021586 -0.424470
v 0.263311 -0.021537 -0.424420
v -0.228264 -0.021594 -0.337155
vn -0.000000 -1.000000 -0.000000
v -0.228302 -0.021528 -0.337192
vn -0.000000 1.000000 -0.000000
v 0.263360 -0.021586 0.424470
v 0.263311 -0.021537 0.424420
v -0.228258 0.021601 -0.337149
v -0.228307 0.021552 -0.337198
v 0.263360 0.021601 -0.424470
v 0.263311 0.021552 -0.424420
v -0.228272 -0.021601 0.374694
v -0.228294 -0.021522 0.374716
v 0.228714 0.021601 0.374681
v 0.228762 0.021552 0.374730
v -0.066520 0.021601 -0.398957
v -0.066569 0.021552 -0.399006
v -0.228254 0.007621 -0.337145
vn 0.707107 0.000000 0.707107
v -0.228311 0.007648 -0.337202
vn -0.707107 0.000000 -0.707107
v 0.228725 -0.021599 -0.337161
v 0.228751 -0.021523 -0.337187
v -0.228253 0.007634 0.374675
vn 0.707107 0.000000 -0.707107
v -0.228313 0.007634 0.374735
vn -0.707107 0.000000 0.707107
v 0.228717 -0.021591 0.374684
v 0.228759 -0.021531 0.374726
v 0.228714 0.021601 -0.337149
v 0.228762 0.021552 -0.337198
v 0.228709 0.007621 0.374677
vn -0.707107 0.000000 -0.707107
v 0.228766 0.007648 0.374734
vn 0.707107 0.000000 0.707107
v -0.066520 0.021601 -0.368159
v -0.066569 0.021552 -0.368110
v 0.092867 0.021601 -0.398957
v 0.092916 0.021552 -0.399006
v 0.228708 0.007634 -0.337144
vn -0.707107 0.000000 0.707107
v 0.228768 0.007634 -0.337204
vn 0.707107 0.000000 -0.707107
v -0.066520 -0.001772 -0.398957
v -0.066569 -0.001821 -0.399006
v 0.092867 0.021601 -0.368159
v 0.092916 0.021552 -0.368110
v -0.066520 -0.001772 -0.368159
v -0.066569 -0.001821 -0.368110
v 0.092867 -0.001772 -0.398957
v 0.092916 -0.001821 -0.399006
v 0.092867 -0.001772 -0.368159
v 0.092916 -0.001821 -0.368110
vn -0.000000 1.000000 -0.000000
vt 1.94805 -3.03637
vt 1.05101 -2.10193
vt 1.05101 -3.03637
vn -0.000000 -1.000000 -0.000000
vt 1.94805 -2.10193
g mesh1-geometry-0
usemtl Material.57774a50243e5d429f3a4ea105ec3930
f 1//1 2//2 3//3
f 2//2 1//1 4//4
f 5//5 6//6 7//7
f 8//8 7//7 6//6
f 2//2 9//8 3//3
f 5//5 10//4 6//6
f 3//3 11//6 1//1
f 7//7 12//2 5//5
f 1//1 13//5 4//4
f 8//8 14//3 7//7
f 4//4 15//9 2//2
f 6//6 16//10 8//8
f 9//8 2//2 17//7
f 18//1 6//6 10//4
f 11//6 3//3 9//8
f 10//4 5//5 12//2
f 19//8 1//1 11//6
f 12//2 7//7 20//4
f 13//5 1//1 21//6
f 22//2 7//7 14//3
f 15//9 4//4 13//5
f 14//3 8//8 16//10
f 23//9 2//2 15//9
f 16//10 6//6 24//10
f 2//2 23//9 17//7
f 18//1 24//10 6//6
f 13//5 9//8 17//7
f 18//1 10//4 14//3
f 11//6 9//8 25//1
f 26//7 10//4 12//2
f 27//8 1//1 19//8
f 20//4 7//7 28//4
f 11//6 29//11 19//8
f 20//4 30//12 12//2
f 1//1 27//8 21//6
f 22//2 28//4 7//7
f 9//8 13//5 21//6
f 22//2 14//3 10//4
f 15//9 13//5 31//9
f 32//10 14//3 16//10
f 16//10 24//10 32//10
f 15//11 33//13 23//13
f 24//14 34//14 16//12
f 17//7 23//9 35//9
f 36//10 24//10 18//1
f 17//7 35//9 13//5
f 14//3 36//10 18//1
f 25//1 9//8 37//3
f 38//5 10//4 26//7
f 39//15 11//6 25//1
f 26//7 12//2 40//16
f 27//8 19//8 41//6
f 42//2 20//4 28//4
f 29//11 11//6 33//13
f 34//14 12//2 30//12
f 29//11 37//3 19//8
f 20//4 38//5 30//12
f 21//6 27//8 43//3
f 44//5 28//4 22//2
f 21//6 37//3 9//8
f 10//4 38//5 22//2
f 31//9 13//5 35//9
f 36//10 14//3 32//10
f 45//17 15//11 31//17
f 32//18 16//12 46//18
f 36//10 32//10 24//10
f 33//13 15//11 29//11
f 30//12 16//12 34//14
f 33//13 35//15 23//13
f 24//14 36//16 34//14
f 37//3 39//15 25//1
f 26//7 40//16 38//5
f 11//6 39//15 33//13
f 34//14 40//16 12//2
f 37//3 41//6 19//8
f 20//4 42//2 38//5
f 41//6 47//8 27//8
f 28//4 48//4 42//2
f 37//3 29//11 45//17
f 46//18 30//12 38//5
f 47//8 43//3 27//8
f 28//4 44//5 48//4
f 21//6 43//3 37//3
f 38//5 44//5 22//2
f 35//15 45//17 31//17
f 32//18 46//18 36//16
f 15//11 45//17 29//11
f 30//12 46//18 16//12
f 35//15 33//13 39//15
f 40//16 34//14 36//16
f 39//15 37//3 45//17
f 46//18 38//5 40//16
f 41//6 37//3 49//1
f 50//7 38//5 42//2
f 47//8 41//6 51//6
f 52//2 42//2 48//4
f 43//3 47//8 53//3
f 54//5 48//4 44//5
f 49//1 37//3 43//3
f 44//5 38//5 50//7
f 45//17 35//15 39//15
f 40//16 36//16 46//18
f 55//1 41//6 49//1
f 50//7 42//2 56//7
f 41//6 55//1 51//6
f 52//2 56//7 42//2
f 55//1 47//8 51//6
f 52//2 48//4 56//7
f 47//8 55//1 53//3
f 54//5 56//7 48//4
f 55//1 43//3 53//3
f 54//5 44//5 56//7
f 43//3 55//1 49//1
f 50//7 56//7 44//5
g mesh1-geometry-1
usemtl Material.dc7a3ca9ca091ddbf48733c3a604f557
f 31//9 23//9 15//9
f 23//9 31//9 35//9
g mesh1-geometry-2
usemtl Material.fab57047b918532a092dd588832f0228
f 40/1/19 30/2/19 34/3/19
f 34/3/20 29/2/20 39/1/20
f 30/2/19 40/1/19 45/4/19
f 45/4/20 39/1/20 29/2/20
