# created by Ethan Wu and Zhan isaac Ling
mtllib model.mtl
v 0.017045 0.280740 -0.413070
v -0.023117 0.280746 0.413086
v 0.017047 0.280735 0.413074
vn 0.000000 1.000000 0.000000
v -0.023111 0.280739 -0.413095
v 0.016972 0.280710 0.413049
v -0.023070 0.280699 0.413038
v 0.016973 0.280704 -0.413052
vn 0.000000 -1.000000 0.000000
v -0.023077 0.280706 -0.413028
v 0.017043 -0.240614 0.413086
vn 0.000000 0.000000 1.000000
v 0.016976 -0.240621 0.413038
vn 0.000000 0.000000 -1.000000
v 0.017039 0.260181 0.380683
vn 1.000000 0.000000 0.000000
v 0.016979 0.260222 0.380723
vn -1.000000 0.000000 0.000000
v 0.017040 -0.240609 -0.413086
vn 0.000000 0.000000 -1.000000
v 0.016979 -0.240625 -0.413035
vn 0.000000 0.000000 1.000000
v -0.023117 -0.280744 -0.413086
vn -1.000000 0.000000 0.000000
v -0.023070 -0.280697 -0.413038
vn 1.000000 0.000000 0.000000
v -0.023111 -0.280737 0.413095
v -0.023077 -0.280704 0.413028
v 0.017047 -0.204982 0.380691
v 0.016972 -0.205007 0.380716
v 0.017043 0.260184 -0.373217
v 0.016976 0.260218 -0.373251
v 0.017043 -0.204977 -0.373217
v 0.016976 -0.205011 -0.373251
v 0.017031 -0.280746 0.413086
v 0.016988 -0.280695 0.413037
v 0.009013 -0.204970 0.380680
v 0.008965 -0.205018 0.380728
v 0.009013 0.260177 -0.373210
vn 0.000000 -1.000000 0.000000
v 0.008965 0.260225 -0.373258
vn 0.000000 1.000000 0.000000
v 0.017036 -0.280735 -0.413090
v 0.016983 -0.280706 -0.413033
vn -1.000000 0.000000 0.000000
vn 1.000000 0.000000 0.000000
v 0.018773 -0.243006 0.413095
v 0.018731 -0.243032 0.413029
v 0.009013 0.260177 0.380680
v 0.008965 0.260225 0.380728
v 0.018777 -0.243004 -0.413090
v 0.018727 -0.243034 -0.413032
vn 0.851200 0.524842 0.000000
vn 0.809322 0.587365 0.000000
vn -0.809322 -0.587365 0.000000
vn -0.851200 -0.524842 0.000000
v 0.018777 -0.278334 -0.413090
vn 0.851200 -0.524842 0.000000
vn 0.809322 -0.587365 0.000000
v 0.018727 -0.278304 -0.413032
vn -0.809322 0.587365 0.000000
vn -0.851200 0.524842 0.000000
v 0.018781 -0.278337 0.413086
v 0.018723 -0.278301 0.413039
v 0.009013 -0.204970 -0.373210
v 0.008965 -0.205018 -0.373258
vn -1.000000 0.000000 0.000000
v 0.020277 -0.275435 0.413090
v 0.020223 -0.275411 0.413032
v 0.020277 -0.245903 -0.413090
v 0.020223 -0.245927 -0.413032
v 0.020277 -0.245903 0.413090
vn 0.915531 0.402248 0.000000
v 0.020223 -0.245927 0.413032
vn -0.915531 -0.402248 0.000000
v 0.020277 -0.275435 -0.413090
vn 0.915531 -0.402248 0.000000
v 0.020223 -0.275411 -0.413032
vn -0.915531 0.402248 0.000000
v 0.021489 -0.272121 0.413090
v 0.021433 -0.272104 0.413032
v 0.021489 -0.272121 -0.413090
vn 0.956649 -0.291243 0.000000
v 0.021433 -0.272104 -0.413032
vn -0.956649 0.291243 0.000000
v 0.021489 -0.249217 -0.413090
v 0.021433 -0.249234 -0.413032
v 0.021489 -0.249217 0.413090
vn 0.956649 0.291243 0.000000
v 0.021433 -0.249234 0.413032
vn -0.956649 -0.291243 0.000000
v 0.022380 -0.268487 0.413090
v 0.022322 -0.268476 0.413032
v 0.022385 -0.268488 -0.413086
vn 0.981931 -0.189240 0.000000
v 0.022317 -0.268475 -0.413039
vn -0.981931 0.189240 0.000000
v 0.022375 -0.252852 -0.413095
v 0.022327 -0.252861 -0.413029
v 0.022380 -0.252851 0.413090
vn 0.981931 0.189240 0.000000
v 0.022322 -0.252862 0.413032
vn -0.981931 -0.189240 0.000000
v 0.022924 -0.264633 0.413090
v 0.022866 -0.264628 0.413032
v 0.022924 -0.264633 -0.413090
vn 0.995651 -0.093164 0.000000
v 0.022866 -0.264628 -0.413032
vn -0.995651 0.093164 0.000000
v 0.022929 -0.256704 0.413086
vn 0.995651 0.093164 0.000000
v 0.022861 -0.256711 0.413039
vn -0.995651 -0.093164 0.000000
v 0.022929 -0.256704 -0.413086
v 0.022861 -0.256711 -0.413039
v 0.023117 -0.260669 0.413074
v 0.023039 -0.260669 0.413048
v 0.023117 -0.260669 -0.413074
vn 1.000000 0.000000 0.000000
v 0.023039 -0.260669 -0.413048
vn -1.000000 0.000000 0.000000
vn 1.000000 0.000000 0.000000
g mesh1-geometry-0
usemtl Material.57774a50243e5d429f3a4ea105ec3930
f 1//1 2//1 3//1
f 2//1 1//1 4//1
f 5//2 6//2 7//2
f 8//2 7//2 6//2
f 2//3 9//3 3//3
f 5//4 10//4 6//4
f 3//5 11//5 1//5
f 7//6 12//6 5//6
f 13//7 4//7 1//7
f 7//8 8//8 14//8
f 15//9 2//9 4//9
f 8//10 6//10 16//10
f 17//3 9//3 2//3
f 6//4 10//4 18//4
f 9//5 19//5 3//5
f 5//6 20//6 10//6
f 3//5 19//5 11//5
f 12//6 20//6 5//6
f 21//5 1//5 11//5
f 12//6 7//6 22//6
f 4//7 13//7 15//7
f 16//8 14//8 8//8
f 23//5 13//5 1//5
f 7//6 14//6 24//6
f 2//9 15//9 17//9
f 18//10 16//10 6//10
f 9//3 17//3 25//3
f 26//4 18//4 10//4
f 19//5 9//5 23//5
f 24//6 10//6 20//6
f 27//7 11//7 19//7
f 20//8 12//8 28//8
f 23//5 1//5 21//5
f 22//6 7//6 24//6
f 11//11 29//11 21//11
f 22//12 30//12 12//12
f 15//7 13//7 31//7
f 32//8 14//8 16//8
f 13//5 23//5 9//5
f 10//6 24//6 14//6
f 15//11 25//11 17//11
f 18//12 26//12 16//12
f 10//13 32//13 26//13
f 25//14 31//14 9//14
f 25//3 33//3 9//3
f 10//4 34//4 26//4
f 23//1 27//1 19//1
f 20//2 28//2 24//2
f 11//7 27//7 35//7
f 36//8 28//8 12//8
f 29//3 23//3 21//3
f 22//4 24//4 30//4
f 29//11 11//11 35//11
f 36//12 12//12 30//12
f 32//13 10//13 14//13
f 13//14 9//14 31//14
f 37//7 31//7 13//7
f 14//8 32//8 38//8
f 25//11 15//11 31//11
f 32//12 16//12 26//12
f 33//15 13//16 9//16
f 10//17 14//17 34//18
f 39//19 25//20 31//20
f 32//21 26//21 40//22
f 41//3 33//3 25//3
f 26//4 34//4 42//4
f 27//1 23//1 43//1
f 44//2 24//2 28//2
f 36//23 30//23 28//23
f 23//3 29//3 43//3
f 44//4 30//4 24//4
f 37//7 39//7 31//7
f 32//8 40//8 38//8
f 13//16 33//15 37//15
f 38//18 34//18 14//17
f 25//20 39//19 41//19
f 42//22 40//22 26//21
f 45//3 33//3 41//3
f 42//4 34//4 46//4
f 44//23 28//23 30//23
f 47//7 39//7 37//7
f 38//8 40//8 48//8
f 49//24 37//15 33//15
f 34//18 38//18 50//25
f 51//26 41//19 39//19
f 40//22 42//22 52//27
f 45//3 49//3 33//3
f 34//4 50//4 46//4
f 41//19 51//26 45//26
f 46//27 52//27 42//22
f 47//7 51//7 39//7
f 40//8 52//8 48//8
f 37//15 49//24 47//24
f 48//25 50//25 38//18
f 53//3 49//3 45//3
f 46//4 50//4 54//4
f 55//28 45//26 51//26
f 52//27 46//27 56//29
f 57//7 51//7 47//7
f 48//8 52//8 58//8
f 59//30 47//24 49//24
f 50//25 48//25 60//31
f 53//3 59//3 49//3
f 50//4 60//4 54//4
f 45//26 55//28 53//28
f 54//29 56//29 46//27
f 57//7 55//7 51//7
f 52//8 56//8 58//8
f 47//24 59//30 57//30
f 58//31 60//31 48//25
f 61//3 59//3 53//3
f 54//4 60//4 62//4
f 63//32 53//28 55//28
f 56//29 54//29 64//33
f 65//7 55//7 57//7
f 58//8 56//8 66//8
f 67//34 57//30 59//30
f 60//31 58//31 68//35
f 61//3 67//3 59//3
f 60//4 68//4 62//4
f 53//28 63//32 61//32
f 62//33 64//33 54//29
f 65//7 63//7 55//7
f 56//8 64//8 66//8
f 57//30 67//34 65//34
f 66//35 68//35 58//31
f 69//3 67//3 61//3
f 62//4 68//4 70//4
f 71//36 61//32 63//32
f 64//33 62//33 72//37
f 65//7 71//7 63//7
f 64//8 72//8 66//8
f 73//38 65//34 67//34
f 68//35 66//35 74//39
f 69//3 73//3 67//3
f 68//4 74//4 70//4
f 61//32 71//36 69//36
f 70//37 72//37 62//33
f 75//7 71//7 65//7
f 66//8 72//8 76//8
f 65//34 73//38 75//38
f 76//39 74//39 66//35
f 73//3 69//3 77//3
f 78//4 70//4 74//4
f 79//40 69//36 71//36
f 72//37 70//37 80//41
f 71//7 75//7 79//7
f 80//8 76//8 72//8
f 77//40 75//38 73//38
f 74//39 76//39 78//41
f 69//36 79//40 77//40
f 78//41 80//41 70//37
f 75//38 77//40 79//40
f 80//41 78//41 76//39
g mesh1-geometry-1
usemtl Material.90b00bf69165eda831fe702671104217
f 27//42 29//42 35//42
f 29//42 27//42 43//42
