# created by Ethan Wu and Zhan isaac Ling
mtllib model.mtl
v -0.055363 0.426222 -0.143875
v 0.031549 0.201262 -0.039054
v 0.096886 0.426235 -0.120309
vn -0.142022 0.372476 0.917110
v -0.017668 0.201268 -0.046685
v 0.152593 0.426235 0.023339
vn -0.865252 0.372476 0.335560
v 0.096913 0.426160 -0.120342
v -0.151955 0.426160 -0.023823
v -0.055387 0.426171 -0.143938
vn 0.000000 -1.000000 0.000000
v -0.048864 0.201246 -0.007855
vn 0.723230 0.372476 0.581550
v 0.049558 0.201263 0.007380
vn 0.000000 1.000000 0.000000
v 0.031582 0.201194 -0.039094
v 0.049607 0.201193 0.007387
v -0.017684 0.201189 -0.046715
vn 0.000000 -1.000000 0.000000
v 0.082600 0.201194 -0.060441
v 0.031535 0.145973 -0.039044
vn -0.153034 0.000000 0.988221
v 0.031596 0.145973 -0.039104
vn 0.153034 0.000000 -0.988221
v 0.152637 0.426160 0.023338
v -0.151912 0.426235 -0.023824
v 0.018352 0.201264 0.046192
v 0.018364 0.201193 0.046238
v 0.101674 0.201198 -0.011246
vn -0.932341 0.000000 0.361579
vn 0.932341 0.000000 -0.361579
v 0.095368 0.201205 -0.037096
v -0.079102 0.201190 -0.064122
v 0.031548 0.138047 -0.039052
v 0.031583 0.138112 -0.039096
v 0.056039 0.426227 0.143394
vn -0.723230 0.372476 -0.581550
v -0.096231 0.426163 0.119864
v -0.030854 0.201246 0.038564
vn 0.865252 0.372476 -0.335560
v -0.094692 0.201198 0.036613
v 0.018400 0.145973 0.046221
vn 0.932341 0.000000 -0.361579
v 0.018316 0.145973 0.046208
vn -0.932341 0.000000 0.361579
v 0.093604 0.201194 0.040897
v 0.049540 0.145973 0.007377
vn -0.779307 0.000000 -0.626642
v 0.049625 0.145973 0.007390
vn 0.779307 0.000000 0.626642
v 0.101064 0.201205 0.015355
v 0.095368 0.138103 -0.037096
vn -0.932341 0.000000 0.361579
vn -0.806989 0.000000 0.590566
v -0.092913 0.201205 -0.041378
v 0.064211 0.201203 -0.079673
v -0.017683 0.138038 -0.046692
v -0.017670 0.138121 -0.046708
v 0.056073 0.426169 0.143449
v -0.096206 0.426231 0.119818
v -0.081918 0.201194 0.059956
v -0.100987 0.201205 0.010760
v -0.017636 0.145973 -0.046715
v -0.017716 0.145973 -0.046684
vn 0.142022 0.372476 -0.917110
v 0.101064 0.138103 0.015355
vn -0.988221 0.000000 -0.153034
vn -0.994156 0.000000 0.107951
v 0.101674 0.138109 -0.011246
v 0.082600 0.138113 -0.060441
v -0.100382 0.201205 -0.015840
v -0.079093 0.138109 -0.064115
vn 0.779307 0.000000 0.626642
vn 0.914940 0.000000 0.403590
vn -0.626642 0.000000 0.779307
v -0.059855 0.201198 -0.082498
v 0.082641 0.138045 -0.060471
vn 0.000000 -1.000000 0.000000
vn 0.000000 1.000000 0.000000
v 0.049560 0.138044 0.007375
v 0.049605 0.138115 0.007391
v -0.094692 0.138109 0.036613
vn 0.932341 0.000000 -0.361579
vn 0.806989 0.000000 -0.590566
v -0.100987 0.138103 0.010760
vn 0.994156 0.000000 -0.107951
v 0.018381 0.138044 0.046214
v 0.018334 0.138115 0.046215
v 0.079780 0.201193 0.063635
v 0.093604 0.138113 0.040897
vn -0.914940 0.000000 -0.403590
v 0.095434 0.138056 -0.037121
v 0.101734 0.138049 -0.011252
v -0.092913 0.138103 -0.041378
vn 0.988221 0.000000 0.153034
vn 0.590566 0.000000 0.806989
v 0.064218 0.138115 -0.079681
v 0.041478 0.201198 -0.093501
v -0.079140 0.138049 -0.064153
v -0.081918 0.138113 0.059956
v -0.100382 0.138103 -0.015840
v -0.063530 0.201203 0.079189
v 0.079772 0.138105 0.063628
vn -0.779307 0.000000 -0.626642
v 0.101134 0.138056 0.015366
v 0.093651 0.138045 0.040918
v -0.092978 0.138056 -0.041406
v -0.059855 0.138109 -0.082498
v 0.064247 0.138044 -0.079718
v 0.041478 0.138109 -0.093501
vn -0.403590 0.000000 0.914940
v -0.036515 0.201198 -0.095275
v -0.094748 0.138049 0.036635
v -0.081960 0.138045 0.059986
vn 0.626642 0.000000 -0.779307
v -0.101058 0.138056 0.010768
v -0.100452 0.138056 -0.015851
v 0.060537 0.201198 0.082013
vn -0.590566 0.000000 -0.806989
v 0.079825 0.138054 0.063671
vn 0.361579 0.000000 0.932341
v -0.059890 0.138049 -0.082547
v 0.041503 0.138049 -0.093556
v 0.015939 0.138103 -0.100965
vn -0.153034 0.000000 0.988221
v 0.015939 0.201205 -0.100965
v -0.063536 0.138115 0.079197
v -0.040797 0.201198 0.093017
v 0.060537 0.138109 0.082013
v -0.063566 0.138044 0.079233
v -0.036515 0.138109 -0.095275
v -0.036536 0.138049 -0.095331
v 0.015949 0.138056 -0.101035
v -0.010661 0.201215 -0.101565
v -0.040797 0.138109 0.093017
vn 0.403590 0.000000 -0.914940
v 0.037196 0.201198 0.094790
vn -0.361579 0.000000 -0.932341
v 0.060572 0.138049 0.082062
vn 0.107951 0.000000 0.994156
v -0.010661 0.138093 -0.101565
v -0.010670 0.138066 -0.101646
v -0.040821 0.138049 0.093072
v -0.015257 0.201205 0.100481
v -0.015257 0.138103 0.100481
vn 0.153034 0.000000 -0.988221
v 0.037196 0.138109 0.094790
v 0.037218 0.138049 0.094846
v 0.011343 0.201215 0.101081
v -0.015268 0.138056 0.100550
vn -0.107951 0.000000 -0.994156
v 0.011343 0.138093 0.101081
v 0.011352 0.138066 0.101161
vn 0.142022 -0.372476 -0.917110
vn 0.865252 -0.372476 -0.335560
vn 0.000000 1.000000 0.000000
v -0.048937 0.201211 -0.007881
vn -0.723230 -0.372476 -0.581550
vn 0.723230 -0.372476 0.581550
v -0.030913 0.201211 0.038614
vn -0.865252 -0.372476 0.335560
vn -0.142022 -0.372476 0.917110
v 0.082641 0.201262 -0.060471
vt 2.60198 0.913127
vt 2.80262 0.434023
vt 2.67353 1.37521
v 0.101734 0.201259 -0.011252
vt 2.16602 0.744055
vt 2.34086 0.254944
v 0.095434 0.201252 -0.037121
vt 2.58353 0.314088
v -0.079132 0.201266 -0.064146
vt 2.83714 1.95177
v -0.094748 0.201259 0.036635
vt 1.89162 2.09819
vt 1.80162 1.03707
v 0.093651 0.201262 0.040918
vt 1.85143 0.330737
v 0.101134 0.201252 0.015366
vt 2.09116 0.260623
vn 0.932341 0.000000 -0.361579
vn 0.806989 0.000000 -0.590566
vt 2.5 -0.0
vt 2.75 0.592593
vt 2.5 0.592593
v -0.092978 0.201252 -0.041406
vt 2.62373 2.08154
v 0.064254 0.201254 -0.079726
vt 2.98321 0.606577
v -0.081960 0.201262 0.059986
vt 1.67253 1.97826
v -0.101058 0.201252 0.010768
vt 2.13429 2.15734
vn 0.988221 0.000000 0.153034
vn 0.994156 0.000000 -0.107951
vt 2.0 0.0
vt 2.25 0.592593
vt 2.0 0.592593
vt 2.25 0.0
vt 2.5 0.592593
vt 2.75 -0.0
vt 2.5 0.0
v -0.100452 0.201252 -0.015851
vt 2.384 2.15166
vn -0.779307 0.000000 -0.626642
vn -0.914940 0.000000 -0.403590
vt 4.5 -0.0
vt 4.75 0.592593
vt 4.5 0.592593
vn 0.626642 0.000000 -0.779307
vt 2.75 0.0
vt 3.0 0.592593
vt 2.75 0.592593
v -0.059890 0.201259 -0.082547
vt 3.0097 1.77119
vn -0.932341 0.000000 0.361579
vn -0.806989 0.000000 0.590566
vt 5.5 0.0
vt 5.75 0.592593
vt 5.5 0.592593
vn -0.994156 0.000000 0.107951
vt 5.25 0.0
vt 5.5 0.592593
vt 5.25 0.592593
v 0.079816 0.201264 0.063664
vt 1.63802 0.460509
vn 0.914940 0.000000 0.403590
vt 1.75 0.0
vt 1.75 0.592593
vn -0.988221 0.000000 -0.153034
vt 4.75 0.0
vt 5.0 0.592593
vt 4.75 0.592593
vt 4.75 -0.0
vn -0.590566 0.000000 -0.806989
vt 4.25 0.592593
vt 4.5 0.0
vt 4.5 0.592593
vt 3.0 0.0
v 0.041503 0.201259 -0.093556
vt 3.11298 0.81999
vt 5.75 0.0
vt 5.5 0.0
vt 5.0 -0.0
vt 5.25 0.592593
vt 5.0 0.592593
vt 5.25 -0.0
v -0.063572 0.201254 0.079241
vt 1.49195 1.8057
vn 0.779307 0.000000 0.626642
vt 1.5 0.0
vt 1.75 0.592593
vt 1.5 0.592593
vt 1.75 0.0
vt 5.0 0.0
vt 4.25 0.0
vn 0.403590 0.000000 -0.914940
vt 3.25 0.0
vt 3.0 0.592593
vt 3.0 0.0
vt 3.25 0.592593
v -0.036536 0.201259 -0.095331
vt 3.12963 1.55209
vn -0.626642 0.000000 0.779307
vt 5.75 -0.0
vt 6.0 0.592593
vt 5.75 0.592593
v 0.060572 0.201259 0.082062
vt 1.46546 0.641094
vn 0.590566 0.000000 0.806989
vt 1.25 0.592593
vn -0.361579 0.000000 -0.932341
vt 4.0 0.592593
vn 0.153034 0.000000 -0.988221
vt 3.5 -0.0
vt 3.25 0.592593
vt 3.25 -0.0
v 0.015949 0.201252 -0.101035
vt 3.18309 1.05972
vt 6.0 -0.0
v -0.040821 0.201259 0.093072
vt 1.36218 1.59229
vt 1.25 0.0
vt 4.0 0.0
vt 3.5 0.592593
v -0.010670 0.201242 -0.101646
vt 3.18877 1.30942
vn -0.403590 0.000000 0.914940
vt 0.25 0.0
vt 0.0 0.592593
vt 0.0 0.0
v 0.037218 0.201259 0.094846
vt 1.34553 0.860186
vt 0.25 0.592593
vn 0.361579 0.000000 0.932341
vt 1.0 0.592593
vt 1.25 0.0
vt 1.25 0.592593
vn -0.107951 0.000000 -0.994156
vt 3.75 0.592593
vt 3.75 0.0
vt 3.5 0.592593
vt 3.5 0.0
v -0.015268 0.201252 0.100550
vt 1.29206 1.35256
vn -0.153034 0.000000 0.988221
vt 0.5 0.0
vt 0.25 0.592593
vt 0.25 0.0
vt 1.0 0.0
v 0.011352 0.201242 0.101161
vt 1.28638 1.10285
vt 0.5 0.592593
vn 0.107951 0.000000 0.994156
vt 0.75 0.592593
vt 1.0 -0.0
vt 1.0 0.592593
vt 0.5 0.592593
vt 0.75 -0.0
vt 0.75 0.592593
vt 0.5 -0.0
vt 0.75 -0.0
v -0.178070 0.146001 0.074257
v -0.024735 -0.426214 0.191347
v -0.024721 0.145988 0.191350
vn -0.606870 0.000000 0.794801
v -0.178060 -0.426235 0.074252
v 0.153347 -0.426218 0.117088
vn 0.384883 0.000000 0.922965
v 0.153340 0.146005 0.117083
vn 0.000000 1.000000 0.000000
v -0.153347 -0.426218 -0.117088
vn -0.991753 0.000000 -0.128164
vn 0.000000 -1.000000 0.000000
v 0.178070 0.146001 -0.074257
v -0.153340 0.146005 -0.117083
v 0.178060 -0.426235 -0.074252
vn 0.991753 0.000000 0.128164
v 0.024721 0.145988 -0.191350
vn -0.384883 0.000000 -0.922965
v 0.024735 -0.426214 -0.191347
vn 0.606870 0.000000 -0.794801
v -0.024725 0.145958 0.191270
v -0.024710 -0.426182 0.191272
v -0.178011 0.145945 0.074232
vn 0.606870 0.000000 -0.794801
v -0.178021 -0.426160 0.074236
v 0.153288 -0.426175 0.117043
vn -0.384883 0.000000 -0.922965
v 0.153295 0.145941 0.117049
vn 0.000000 -1.000000 0.000000
v -0.153288 -0.426175 -0.117043
vn 0.991753 0.000000 0.128164
vn 0.000000 1.000000 0.000000
v 0.178011 0.145945 -0.074232
v -0.153295 0.145941 -0.117049
v 0.178021 -0.426160 -0.074236
vn -0.991753 0.000000 -0.128164
v 0.024725 0.145958 -0.191270
vn 0.384883 0.000000 0.922965
v 0.024710 -0.426182 -0.191272
vn -0.606870 0.000000 0.794801
g mesh1-geometry-0
usemtl Material.57774a50243e5d429f3a4ea105ec3930
f 1//1 2//1 3//1
f 2//1 1//1 4//1
f 2//2 5//2 3//2
f 6//3 7//3 8//3
f 1//4 9//4 4//4
f 4//5 10//5 2//5
f 11//6 12//6 13//6
f 13//6 14//6 11//6
f 4//7 15//7 2//7
f 11//8 16//8 13//8
f 5//2 2//2 10//2
f 17//3 7//3 6//3
f 9//4 1//4 18//4
f 10//5 4//5 19//5
f 20//6 13//6 12//6
f 11//6 21//6 12//6
f 15//9 10//9 2//9
f 11//10 12//10 16//10
f 14//6 22//6 11//6
f 14//6 13//6 23//6
f 15//7 4//7 24//7
f 25//8 13//8 16//8
f 10//11 26//11 5//11
f 17//3 27//3 7//3
f 18//12 28//12 9//12
f 13//6 20//6 29//6
f 30//13 4//13 19//13
f 20//14 13//14 31//14
f 26//11 10//11 19//11
f 12//6 32//6 20//6
f 33//15 19//15 10//15
f 12//16 20//16 34//16
f 21//6 35//6 12//6
f 22//6 21//6 11//6
f 15//9 33//9 10//9
f 12//10 34//10 16//10
f 22//17 14//18 36//17
f 23//6 13//6 37//6
f 38//6 14//6 23//6
f 24//7 4//7 39//7
f 40//8 13//8 25//8
f 24//9 33//9 15//9
f 16//10 34//10 25//10
f 27//3 17//3 41//3
f 28//12 18//12 42//12
f 43//6 29//6 20//6
f 44//6 13//6 29//6
f 30//13 45//13 4//13
f 13//14 46//14 31//14
f 33//15 31//15 19//15
f 20//16 30//16 34//16
f 19//19 42//19 26//19
f 20//6 32//6 43//6
f 35//6 32//6 12//6
f 35//20 21//21 47//20
f 21//21 22//17 48//21
f 49//18 36//17 14//18
f 36//17 48//21 22//17
f 37//6 13//6 50//6
f 23//22 37//23 51//22
f 14//18 38//24 49//18
f 52//6 38//6 23//6
f 53//25 24//25 39//25
f 40//26 25//26 49//26
f 33//9 24//9 54//9
f 55//10 25//10 34//10
f 42//19 19//19 28//19
f 29//27 43//28 56//27
f 50//6 13//6 44//6
f 44//29 29//27 57//29
f 58//13 45//13 30//13
f 31//14 46//14 59//14
f 54//15 31//15 33//15
f 34//16 30//16 55//16
f 32//6 60//6 43//6
f 32//30 35//20 61//30
f 48//21 47//20 21//21
f 47//20 61//30 35//20
f 62//25 24//25 53//25
f 49//26 25//26 36//26
f 63//25 24//25 62//25
f 36//26 25//26 48//26
f 37//23 50//31 64//23
f 64//23 51//22 37//23
f 23//22 51//22 52//32
f 65//24 49//18 38//24
f 66//6 38//6 52//6
f 45//13 58//13 40//13
f 39//14 59//14 46//14
f 39//25 67//25 53//25
f 49//26 51//26 40//26
f 63//25 54//25 24//25
f 25//26 55//26 48//26
f 68//28 56//27 43//28
f 56//27 57//29 29//27
f 50//31 44//29 69//31
f 57//29 69//31 44//29
f 31//15 54//15 59//15
f 58//16 55//16 30//16
f 43//6 60//6 70//6
f 60//33 32//30 71//33
f 61//30 71//33 32//30
f 72//25 54//25 63//25
f 48//26 55//26 47//26
f 73//25 54//25 72//25
f 47//26 55//26 61//26
f 69//31 64//23 50//31
f 39//25 74//25 67//25
f 51//26 64//26 40//26
f 75//32 52//32 51//22
f 53//25 67//25 76//25
f 65//26 51//26 49//26
f 65//24 38//24 77//34
f 66//34 77//34 38//24
f 78//6 66//6 52//6
f 58//25 79//25 39//25
f 40//26 56//26 59//26
f 79//25 58//25 80//25
f 68//26 59//26 56//26
f 43//28 70//35 68//28
f 39//25 79//25 81//25
f 57//26 56//26 40//26
f 39//25 81//25 82//25
f 69//26 57//26 40//26
f 73//25 58//25 54//25
f 55//26 59//26 61//26
f 60//6 83//6 70//6
f 60//33 71//33 83//36
f 84//25 80//25 73//25
f 61//26 68//26 71//26
f 39//25 82//25 74//25
f 64//26 69//26 40//26
f 52//32 75//32 78//37
f 76//25 67//25 85//25
f 75//26 51//26 65//26
f 76//25 85//25 86//25
f 77//26 75//26 65//26
f 77//34 66//34 87//38
f 88//6 66//6 78//6
f 73//25 80//25 58//25
f 59//26 68//26 61//26
f 89//35 68//28 70//35
f 70//6 83//6 90//6
f 91//36 83//36 71//33
f 84//25 92//25 80//25
f 68//26 89//26 71//26
f 93//37 78//37 75//32
f 86//25 85//25 94//25
f 93//26 75//26 77//26
f 88//38 87//38 66//34
f 86//25 94//25 95//25
f 87//26 93//26 77//26
f 96//6 88//6 78//6
f 89//35 70//35 97//39
f 83//6 98//6 90//6
f 90//39 97//39 70//35
f 83//36 91//36 98//40
f 99//25 92//25 84//25
f 71//26 89//26 91//26
f 78//37 93//37 96//41
f 87//38 88//38 100//41
f 95//25 94//25 101//25
f 100//26 93//26 87//26
f 96//41 100//41 88//38
f 99//25 102//25 92//25
f 89//26 97//26 91//26
f 90//6 98//6 103//6
f 97//39 90//39 104//42
f 105//40 98//40 91//36
f 100//41 96//41 93//37
f 106//25 102//25 99//25
f 91//26 97//26 105//26
f 107//6 103//6 98//6
f 103//42 104//42 90//39
f 106//25 108//25 102//25
f 97//26 104//26 105//26
f 98//40 105//40 107//43
f 107//43 109//43 103//42
f 104//42 103//42 109//43
f 108//25 106//25 110//25
f 109//26 105//26 104//26
f 109//43 107//43 105//40
g mesh1-geometry-1
usemtl Material.90b00bf69165eda831fe702671104217
f 6//44 11//44 8//44
f 13//44 8//44 11//44
f 6//45 17//45 11//45
f 1//46 18//46 3//46
f 13//47 111//47 8//47
f 12//45 11//45 17//45
f 3//46 18//46 5//46
f 7//47 8//47 111//47
f 17//48 41//48 12//48
f 18//46 42//46 5//46
f 111//49 112//49 7//49
f 20//48 12//48 41//48
f 26//46 5//46 42//46
f 27//49 7//49 112//49
f 41//50 27//50 20//50
f 112//50 20//50 27//50
g mesh1-geometry-2
usemtl Material.fd405729217466f29eac93fc2fe0bd88
f 2/1/5 113/2/5 4/3/5
f 10/4/5 114/5/5 2/1/5
f 2/1/5 115/6/5 113/2/5
f 116/7/5 4/3/5 113/2/5
f 117/8/5 19/9/5 4/3/5
f 19/9/5 118/10/5 10/4/5
f 10/4/5 119/11/5 114/5/5
f 2/1/5 114/5/5 115/6/5
f 62/12/51 113/13/52 115/14/51
f 120/15/5 4/3/5 116/7/5
f 116/7/5 113/2/5 121/16/5
f 19/9/5 117/8/5 122/17/5
f 117/8/5 4/3/5 123/18/5
f 122/17/5 118/10/5 19/9/5
f 10/4/5 118/10/5 119/11/5
f 72/19/53 114/20/54 119/21/53
f 63/22/54 115/23/51 114/20/54
f 113/13/52 62/12/51 53/24/52
f 115/23/51 63/22/54 62/25/51
f 124/26/5 4/3/5 120/15/5
f 67/27/55 120/28/56 116/29/55
f 53/30/52 121/31/57 113/32/52
f 116/7/5 121/16/5 125/33/5
f 79/34/58 122/35/59 117/36/58
f 123/18/5 4/3/5 124/26/5
f 81/37/60 117/38/58 123/39/60
f 122/17/5 126/40/5 118/10/5
f 73/41/61 119/21/53 118/42/61
f 114/20/54 72/19/53 63/22/54
f 119/21/53 73/41/61 72/19/53
f 74/43/56 124/44/62 120/45/56
f 120/28/56 67/27/55 74/46/56
f 125/47/63 67/48/55 116/49/55
f 121/31/57 53/30/52 76/50/57
f 125/33/5 121/16/5 127/51/5
f 122/35/59 79/34/58 80/52/59
f 117/38/58 81/37/60 79/53/58
f 82/54/62 123/55/60 124/56/62
f 123/55/60 82/54/62 81/57/60
f 128/58/5 126/40/5 122/17/5
f 84/59/64 118/60/61 126/61/64
f 118/60/61 84/59/64 73/62/61
f 124/44/62 74/43/56 82/63/62
f 67/48/55 125/47/63 85/64/63
f 86/65/65 121/66/57 76/67/57
f 121/66/57 86/65/65 127/68/65
f 125/33/5 127/51/5 129/69/5
f 80/70/59 128/71/66 122/72/59
f 128/58/5 130/73/5 126/40/5
f 130/74/67 84/59/64 126/61/64
f 129/75/68 85/64/63 125/47/63
f 95/76/69 127/77/65 86/78/65
f 129/69/5 127/51/5 131/79/5
f 128/71/66 80/70/59 92/80/66
f 132/81/5 130/73/5 128/58/5
f 84/59/64 130/74/67 99/82/67
f 85/64/63 129/75/68 94/83/68
f 127/77/65 95/76/69 131/84/69
f 129/69/5 131/79/5 133/85/5
f 102/86/70 128/87/66 92/88/66
f 132/81/5 134/89/5 130/73/5
f 128/87/66 102/86/70 132/90/70
f 134/91/71 99/92/67 130/93/67
f 133/94/72 94/83/68 129/75/68
f 101/95/72 131/96/69 95/97/69
f 131/96/69 101/95/72 133/94/72
f 135/98/5 134/89/5 132/81/5
f 108/99/73 132/100/70 102/101/70
f 99/92/67 134/91/71 106/102/71
f 94/83/68 133/94/72 101/95/72
f 134/89/5 135/98/5 136/103/5
f 132/100/70 108/99/73 135/104/73
f 136/105/74 106/106/71 134/107/71
f 135/108/73 110/109/74 136/110/74
f 110/109/74 135/108/73 108/111/73
f 106/106/71 136/105/74 110/112/74
g mesh2-geometry-0
usemtl Material.90b00bf69165eda831fe702671104217
f 137//75 138//75 139//75
f 138//75 137//75 140//75
f 141//76 139//76 138//76
f 142//77 137//77 139//77
f 137//78 143//78 140//78
f 140//79 141//79 138//79
f 139//76 141//76 142//76
f 137//77 142//77 144//77
f 143//78 137//78 145//78
f 146//79 140//79 143//79
f 141//79 140//79 146//79
f 141//80 144//80 142//80
f 137//77 144//77 145//77
f 147//81 143//81 145//81
f 146//79 143//79 148//79
f 144//80 141//80 146//80
f 145//77 144//77 147//77
f 143//81 147//81 148//81
f 148//82 144//82 146//82
f 144//82 148//82 147//82
g mesh2-geometry-1
usemtl Material.57774a50243e5d429f3a4ea105ec3930
f 149//83 150//83 151//83
f 152//83 151//83 150//83
f 150//84 149//84 153//84
f 149//85 151//85 154//85
f 152//86 155//86 151//86
f 150//87 153//87 152//87
f 154//84 153//84 149//84
f 156//85 154//85 151//85
f 157//86 151//86 155//86
f 155//87 152//87 158//87
f 158//87 152//87 153//87
f 154//88 156//88 153//88
f 157//85 156//85 151//85
f 157//89 155//89 159//89
f 160//87 155//87 158//87
f 158//88 153//88 156//88
f 159//85 156//85 157//85
f 160//89 159//89 155//89
f 158//90 156//90 160//90
f 159//90 160//90 156//90
