# created by Ethan Wu and Zhan isaac Ling
mtllib model.mtl
v -0.066648 -0.292760 -0.133284
v 0.066660 -0.292760 0.133288
v -0.066648 -0.292760 0.133288
vn 0.000000 -1.000000 0.000000
v 0.066660 -0.292760 -0.133284
v -0.066602 -0.292714 0.133242
v 0.066614 -0.292714 0.133242
v -0.066602 -0.292714 -0.133238
vn 0.000000 1.000000 0.000000
v 0.066614 -0.292714 -0.133238
v -0.066652 -0.282296 0.133288
vn 0.000000 0.000000 1.000000
v -0.066598 -0.282330 0.133241
vn 0.000000 0.000000 -1.000000
vn -1.000000 0.000000 0.000000
vn 1.000000 0.000000 0.000000
v 0.066657 -0.282284 -0.133280
vn 0.000000 0.000000 -1.000000
v 0.066618 -0.282342 -0.133241
vn 0.000000 0.000000 1.000000
vn 1.000000 0.000000 0.000000
vn -1.000000 0.000000 0.000000
v 0.066657 -0.282284 0.133284
v 0.066618 -0.282342 0.133245
v -0.066660 -0.282302 -0.133276
v -0.066590 -0.282324 -0.133245
v -0.022228 -0.252730 0.044399
vn 0.000000 0.948921 0.315515
v -0.022268 -0.252787 0.044359
vn 0.000000 -0.948921 -0.315515
v -0.066660 -0.252747 0.044394
v -0.066590 -0.252770 0.044364
v -0.066656 -0.252739 -0.044392
vn 0.000000 0.948921 -0.315515
v -0.066594 -0.252778 -0.044358
vn 0.000000 -0.948921 0.315515
vn 0.315515 0.948921 0.000000
vn -0.315515 -0.948921 0.000000
v -0.022232 -0.252735 -0.044404
v -0.022264 -0.252782 -0.044347
v -0.066657 0.039550 0.044402
vn 0.000000 0.000000 1.000000
v -0.066593 0.039535 0.044356
vn 0.000000 0.000000 -1.000000
v -0.066654 0.039557 -0.044398
v -0.066596 0.039528 -0.044352
v -0.022211 0.092839 -0.044388
vn 1.000000 0.000000 0.000000
v -0.022285 0.092856 -0.044362
vn -1.000000 0.000000 0.000000
v -0.022260 0.092877 0.044402
v -0.022235 0.092817 0.044356
vn -0.768531 0.639813 0.000000
vn 0.768531 -0.639813 0.000000
v 0.031084 -0.160378 -0.399798
v 0.031090 -0.147009 -0.386443
v 0.031089 -0.160362 0.399810
vn 1.000000 0.000000 0.000000
v 0.031090 0.292758 -0.399802
v 0.031025 -0.160340 0.399768
v 0.031024 -0.147041 -0.386475
v 0.031030 -0.160325 -0.399772
vn -1.000000 0.000000 0.000000
v 0.031024 0.292725 -0.399769
v 0.031093 -0.147013 0.386451
v 0.031021 -0.147037 0.386475
v 0.004381 -0.160379 0.399806
vn 0.000000 -1.000000 0.000000
v 0.004429 -0.160323 0.399774
vn 0.000000 1.000000 0.000000
v 0.004375 -0.160366 -0.399810
vn 0.000000 0.000000 -1.000000
v 0.004434 -0.160336 -0.399763
vn 0.000000 0.000000 1.000000
v 0.031090 0.279399 -0.386443
v 0.031024 0.279432 -0.386475
v 0.031093 0.292753 0.399802
v 0.031021 0.292729 0.399778
v 0.025727 -0.146997 0.386435
vn 0.000000 1.000000 0.000000
v 0.025727 -0.147053 0.386491
vn 0.000000 -1.000000 0.000000
v 0.004375 0.292760 0.399810
vn 0.000000 0.000000 1.000000
v 0.004434 0.292722 0.399770
vn 0.000000 0.000000 -1.000000
v 0.004375 0.292760 -0.399806
v 0.004434 0.292722 -0.399766
v 0.031086 0.279396 0.386444
v 0.031028 0.279434 0.386483
v 0.025727 0.279387 -0.386431
vn 0.000000 0.000000 1.000000
v 0.025727 0.279443 -0.386487
vn 0.000000 0.000000 -1.000000
v 0.025727 -0.146997 -0.386431
v 0.025727 -0.147053 -0.386487
vn 0.000000 0.000000 -1.000000
vn 0.000000 0.000000 1.000000
v 0.000129 -0.144043 0.383481
vn -0.970618 -0.240626 0.000000
vn -0.967901 -0.251333 0.000000
v 0.000208 -0.144033 0.383471
vn 0.967901 0.251333 0.000000
vn 0.970618 0.240626 0.000000
vn -0.967901 0.000000 0.251333
vn -0.970618 0.000000 0.240626
vn 0.967901 0.000000 -0.251333
vn 0.970618 0.000000 -0.240626
vn 0.000000 1.000000 0.000000
vn 0.000000 -1.000000 0.000000
vn 0.000000 -1.000000 0.000000
vn 0.000000 1.000000 0.000000
v 0.025727 0.279387 0.386435
v 0.025727 0.279443 0.386491
v 0.000129 -0.144043 -0.383477
v 0.000208 -0.144033 -0.383467
v 0.000129 0.276433 0.383481
v 0.000208 0.276423 0.383471
v 0.004366 0.092847 -0.399798
vn -0.970618 0.000000 -0.240626
vn -0.967901 0.000000 -0.251333
v 0.004443 0.092847 -0.399776
vn 0.967901 0.000000 0.251333
vn 0.970618 0.000000 0.240626
v 0.000129 0.276433 -0.383477
v 0.000208 0.276423 -0.383467
vn -0.970618 0.240626 0.000000
vn -0.967901 0.251333 0.000000
vn 0.967901 -0.251333 0.000000
vn 0.970618 -0.240626 0.000000
v -0.003746 -0.127640 0.367078
vn -0.975696 -0.219127 0.000000
v -0.003667 -0.127631 0.367069
vn 0.975696 0.219127 0.000000
vn -0.975696 0.000000 0.219127
vn 0.975696 0.000000 -0.219127
v 0.000130 0.092847 -0.383482
v 0.000207 0.092847 -0.383463
v -0.003746 -0.127640 -0.367074
v -0.003667 -0.127631 -0.367065
v -0.003746 0.260030 -0.367074
vn -0.975696 0.219127 0.000000
v -0.003667 0.260021 -0.367065
vn 0.975696 -0.219127 0.000000
v -0.003746 0.260030 0.367078
v -0.003667 0.260021 0.367069
vn -0.975696 0.000000 -0.219127
vn 0.975696 0.000000 0.219127
v -0.007257 -0.111155 0.350593
vn -0.980299 -0.197520 0.000000
v -0.007178 -0.111147 0.350585
vn 0.980299 0.197520 0.000000
vn -0.980299 0.000000 0.197520
vn 0.980299 0.000000 -0.197520
v -0.003745 0.092847 -0.367079
v -0.003667 0.092847 -0.367061
v -0.007257 -0.111155 -0.350589
v -0.007178 -0.111147 -0.350581
v -0.007257 0.243545 -0.350589
vn -0.980299 0.197520 0.000000
v -0.007178 0.243537 -0.350581
vn 0.980299 -0.197520 0.000000
v -0.007257 0.243545 0.350593
v -0.007178 0.243537 0.350585
vn -0.980299 0.000000 -0.197520
vn 0.980299 0.000000 0.197520
v -0.010403 -0.094597 0.334035
vn -0.984423 -0.175817 0.000000
v -0.010324 -0.094589 0.334028
vn 0.984423 0.175817 0.000000
vn -0.984423 0.000000 0.175817
vn 0.984423 0.000000 -0.175817
v -0.007257 0.092847 -0.350593
v -0.007178 0.092847 -0.350577
v -0.010403 -0.094597 -0.334031
v -0.010324 -0.094589 -0.334024
v -0.010403 0.226987 -0.334031
vn -0.984423 0.175817 0.000000
v -0.010324 0.226979 -0.334024
vn 0.984423 -0.175817 0.000000
v -0.010403 0.226987 0.334035
v -0.010324 0.226979 0.334028
vn -0.984423 0.000000 -0.175817
vn 0.984423 0.000000 0.175817
v -0.013183 -0.077973 0.317411
vn -0.988066 -0.154028 0.000000
v -0.013104 -0.077967 0.317405
vn 0.988066 0.154028 0.000000
vn -0.988066 0.000000 0.154028
vn 0.988066 0.000000 -0.154028
v -0.010403 0.092847 -0.334035
v -0.010324 0.092847 -0.334020
v -0.013183 -0.077973 -0.317407
v -0.013104 -0.077967 -0.317401
v -0.013183 0.210363 -0.317407
vn -0.988066 0.154028 0.000000
v -0.013104 0.210357 -0.317401
vn 0.988066 -0.154028 0.000000
v -0.013183 0.210363 0.317411
v -0.013104 0.210357 0.317405
vn -0.988066 0.000000 -0.154028
vn 0.988066 0.000000 0.154028
v -0.015595 -0.061291 0.300730
vn -0.991228 -0.132164 0.000000
v -0.015516 -0.061286 0.300725
vn 0.991228 0.132164 0.000000
vn -0.991228 0.000000 0.132164
vn 0.991228 0.000000 -0.132164
v -0.013183 0.092847 -0.317410
v -0.013104 0.092847 -0.317398
v -0.015595 -0.061291 -0.300726
v -0.015516 -0.061286 -0.300721
v -0.015595 0.193681 -0.300726
vn -0.991228 0.132164 0.000000
v -0.015516 0.193676 -0.300721
vn 0.991228 -0.132164 0.000000
v -0.015595 0.193681 0.300730
v -0.015516 0.193676 0.300725
vn -0.991228 0.000000 -0.132164
vn 0.991228 0.000000 0.132164
v -0.017638 -0.044561 0.284000
vn -0.993906 -0.110235 0.000000
v -0.017558 -0.044557 0.283995
vn 0.993906 0.110235 0.000000
vn -0.993906 0.000000 0.110235
vn 0.993906 0.000000 -0.110235
v -0.015595 0.092847 -0.300729
v -0.015516 0.092847 -0.300718
v -0.017638 -0.044561 -0.283996
v -0.017558 -0.044557 -0.283991
v -0.017638 0.176951 -0.283996
vn -0.993906 0.110235 0.000000
v -0.017558 0.176947 -0.283991
vn 0.993906 -0.110235 0.000000
v -0.017638 0.176951 0.284000
v -0.017558 0.176947 0.283995
vn -0.993906 0.000000 -0.110235
vn 0.993906 0.000000 0.110235
v -0.019311 -0.027790 0.267228
vn -0.996098 -0.088253 0.000000
v -0.019231 -0.027786 0.267224
vn 0.996098 0.088253 0.000000
vn -0.996098 0.000000 0.088253
vn 0.996098 0.000000 -0.088253
v -0.017638 0.092847 -0.283998
v -0.017559 0.092847 -0.283989
v -0.019311 -0.027790 -0.267224
v -0.019231 -0.027786 -0.267220
v -0.019311 0.160180 -0.267224
vn -0.996098 0.088253 0.000000
v -0.019231 0.160176 -0.267220
vn 0.996098 -0.088253 0.000000
v -0.019311 0.160180 0.267228
v -0.019231 0.160176 0.267224
vn -0.996098 0.000000 -0.088253
vn 0.996098 0.000000 0.088253
v -0.020613 -0.010985 0.250424
vn -0.997805 -0.066227 0.000000
v -0.020533 -0.010983 0.250421
vn 0.997805 0.066227 0.000000
vn -0.997805 0.000000 0.066227
vn 0.997805 0.000000 -0.066227
v -0.019311 0.092847 -0.267226
v -0.019231 0.092847 -0.267219
v -0.020613 -0.010985 -0.250420
v -0.020533 -0.010983 -0.250417
v -0.020613 0.143375 -0.250420
vn -0.997805 0.066227 0.000000
v -0.020533 0.143373 -0.250417
vn 0.997805 -0.066227 0.000000
v -0.020613 0.143375 0.250424
v -0.020533 0.143373 0.250421
vn -0.997805 0.000000 -0.066227
vn 0.997805 0.000000 0.066227
v -0.021543 0.005843 0.233595
vn -0.999024 -0.044169 0.000000
v -0.021463 0.005845 0.233593
vn 0.999024 0.044169 0.000000
vn -0.999024 0.000000 0.044169
vn 0.999024 0.000000 -0.044169
v -0.020613 0.092847 -0.250421
v -0.020533 0.092847 -0.250416
v -0.021543 0.005843 -0.233591
v -0.021463 0.005845 -0.233589
v -0.021543 0.126546 -0.233591
vn -0.999024 0.044169 0.000000
v -0.021463 0.126545 -0.233589
vn 0.999024 -0.044169 0.000000
v -0.021543 0.126546 0.233595
v -0.021463 0.126545 0.233593
vn -0.999024 0.000000 -0.044169
vn 0.999024 0.000000 0.044169
v -0.022102 0.022689 0.216749
vn -0.999756 -0.022090 0.000000
v -0.022022 0.022690 0.216748
vn 0.999756 0.022090 0.000000
vn -0.999756 0.000000 0.022090
vn 0.999756 0.000000 -0.022090
v -0.021543 0.092847 -0.233592
v -0.021463 0.092847 -0.233588
v -0.022102 0.022689 -0.216746
v -0.022022 0.022690 -0.216744
v -0.022102 0.109701 -0.216746
vn -0.999756 0.022090 0.000000
v -0.022022 0.109700 -0.216744
vn 0.999756 -0.022090 0.000000
v -0.022102 0.109701 0.216749
v -0.022022 0.109700 0.216748
vn -0.999756 0.000000 -0.022090
vn 0.999756 0.000000 0.022090
v -0.022288 0.039542 0.199896
vn -0.999939 -0.011046 0.000000
v -0.022208 0.039543 0.199895
vn 0.999939 0.011046 0.000000
vn -0.999939 0.000000 0.011046
vn 0.999939 0.000000 -0.011046
v -0.022102 0.092847 -0.216746
v -0.022022 0.092847 -0.216744
v -0.022288 0.039542 -0.199892
v -0.022208 0.039543 -0.199892
v -0.022288 0.092848 -0.199892
vn -0.999939 0.011046 0.000000
v -0.022208 0.092847 -0.199892
vn 0.999939 -0.011046 0.000000
v -0.022288 0.092847 0.199896
v -0.022208 0.092847 0.199896
vn -0.999939 0.000000 -0.011046
vn 0.999939 0.000000 0.011046
vn -1.000000 0.000000 0.000000
vn 1.000000 0.000000 0.000000
v 0.031097 -0.163756 0.016221
v 0.031097 -0.163756 -0.019526
v 0.031097 -0.143632 0.016221
vn 1.000000 0.000000 0.000000
vt 0.0 0.0
vt 1.0 0.0
vt 0.0 1.0
v 0.031017 -0.163756 0.016221
v 0.031017 -0.143632 0.016221
v 0.031017 -0.163756 -0.019526
vn -1.000000 0.000000 0.000000
v 0.031097 -0.143632 -0.019526
vt 1.0 1.0
v 0.031017 -0.143632 -0.019526
v 0.025767 -0.147025 0.386463
v 0.025767 -0.147025 -0.386459
v 0.025767 0.279415 0.386463
vn 1.000000 0.000000 0.000000
vt 0.0 0.0
vt 1.0 0.0
vt 0.0 1.0
v 0.025687 -0.147025 0.386463
v 0.025687 0.279415 0.386463
v 0.025687 -0.147025 -0.386459
vn -1.000000 0.000000 0.000000
v 0.025767 0.279415 -0.386459
vt 1.0 1.0
v 0.025687 0.279415 -0.386459
g mesh1-geometry-0
usemtl Material.57774a50243e5d429f3a4ea105ec3930
f 1//1 2//1 3//1
f 2//1 1//1 4//1
f 5//2 6//2 7//2
f 8//2 7//2 6//2
f 2//3 9//3 3//3
f 5//4 10//4 6//4
f 9//5 1//5 3//5
f 5//6 7//6 10//6
f 1//7 11//7 4//7
f 8//8 12//8 7//8
f 11//9 2//9 4//9
f 8//10 6//10 12//10
f 9//3 2//3 13//3
f 14//4 6//4 10//4
f 1//5 9//5 15//5
f 16//6 10//6 7//6
f 11//7 1//7 15//7
f 16//8 7//8 12//8
f 2//9 11//9 13//9
f 14//10 12//10 6//10
f 17//11 9//11 13//11
f 14//12 10//12 18//12
f 15//5 9//5 19//5
f 20//6 10//6 16//6
f 21//13 11//13 15//13
f 16//14 12//14 22//14
f 11//15 17//15 13//15
f 14//16 18//16 12//16
f 9//11 17//11 19//11
f 20//12 18//12 10//12
f 15//5 19//5 21//5
f 22//6 20//6 16//6
f 11//13 21//13 23//13
f 24//14 22//14 12//14
f 17//15 11//15 23//15
f 24//16 12//16 18//16
f 17//17 25//17 19//17
f 20//18 26//18 18//18
f 21//5 19//5 25//5
f 26//6 20//6 22//6
f 27//7 23//7 21//7
f 22//8 24//8 28//8
f 29//19 17//19 23//19
f 24//20 18//20 30//20
f 25//17 17//17 31//17
f 32//18 18//18 26//18
f 21//5 25//5 27//5
f 28//6 26//6 22//6
f 23//7 27//7 29//7
f 30//8 28//8 24//8
f 17//19 29//19 31//19
f 32//20 30//20 18//20
f 31//21 27//21 25//21
f 26//22 28//22 32//22
f 27//21 31//21 30//21
f 29//22 32//22 28//22
g mesh3-geometry-0
usemtl Material.57774a50243e5d429f3a4ea105ec3930
f 33//23 34//23 35//23
f 34//23 33//23 36//23
f 37//24 38//24 39//24
f 40//24 39//24 38//24
f 41//23 35//23 34//23
f 38//24 37//24 42//24
f 43//25 33//25 35//25
f 37//26 39//26 44//26
f 45//27 36//27 33//27
f 39//28 40//28 46//28
f 34//23 36//23 47//23
f 48//24 40//24 38//24
f 35//23 41//23 49//23
f 50//24 42//24 37//24
f 34//29 51//29 41//29
f 42//30 52//30 38//30
f 33//25 43//25 45//25
f 46//26 44//26 39//26
f 35//31 53//31 43//31
f 44//32 54//32 37//32
f 36//27 45//27 55//27
f 56//28 46//28 40//28
f 47//23 36//23 57//23
f 58//24 40//24 48//24
f 59//33 34//33 47//33
f 48//34 38//34 60//34
f 49//23 41//23 57//23
f 58//24 42//24 50//24
f 53//31 35//31 49//31
f 50//32 37//32 54//32
f 51//29 34//29 61//29
f 62//30 38//30 52//30
f 51//35 57//35 41//35
f 42//36 58//36 52//36
f 63//37 45//38 43//38
f 44//39 46//39 64//40
f 53//41 63//42 43//41
f 44//43 64//44 54//43
f 53//45 36//45 55//45
f 56//46 40//46 54//46
f 49//23 57//23 36//23
f 40//24 58//24 50//24
f 57//47 59//47 47//47
f 48//48 60//48 58//48
f 34//33 59//33 61//33
f 62//34 60//34 38//34
f 36//45 53//45 49//45
f 50//46 54//46 40//46
f 57//35 51//35 65//35
f 66//36 52//36 58//36
f 45//38 63//37 67//37
f 68//40 64//40 46//39
f 63//42 53//41 69//42
f 70//44 54//43 64//44
f 67//49 71//50 45//50
f 46//51 72//51 68//52
f 71//50 73//49 55//50
f 56//51 74//52 72//51
f 73//53 53//54 55//54
f 56//55 54//55 74//56
f 59//47 57//47 65//47
f 66//48 58//48 60//48
f 75//57 67//37 63//37
f 64//40 68//40 76//58
f 53//54 73//53 69//53
f 70//56 74//56 54//55
f 69//42 75//59 63//42
f 64//44 76//60 70//44
f 71//50 67//49 77//49
f 78//52 68//52 72//51
f 71//50 77//49 73//49
f 74//52 78//52 72//51
f 67//37 75//57 79//57
f 80//58 76//58 68//40
f 81//61 69//53 73//53
f 74//56 70//56 82//62
f 75//59 69//42 83//59
f 84//60 70//44 76//60
f 79//63 77//49 67//49
f 68//52 78//52 80//64
f 77//49 81//63 73//49
f 74//52 82//64 78//52
f 85//65 79//57 75//57
f 76//58 80//58 86//66
f 69//53 81//61 83//61
f 84//62 82//62 70//56
f 83//59 85//67 75//59
f 76//60 86//68 84//60
f 77//49 79//63 87//63
f 88//64 80//64 78//52
f 77//49 87//63 81//63
f 82//64 88//64 78//52
f 79//57 85//65 89//65
f 90//66 86//66 80//58
f 91//69 83//61 81//61
f 82//62 84//62 92//70
f 85//67 83//59 93//67
f 94//68 84//60 86//68
f 89//71 87//63 79//63
f 80//64 88//64 90//72
f 87//63 91//71 81//63
f 82//64 92//72 88//64
f 95//73 89//65 85//65
f 86//66 90//66 96//74
f 83//61 91//69 93//69
f 94//70 92//70 84//62
f 93//67 95//75 85//67
f 86//68 96//76 94//68
f 87//63 89//71 97//71
f 98//72 90//72 88//64
f 87//63 97//71 91//71
f 92//72 98//72 88//64
f 89//65 95//73 99//73
f 100//74 96//74 90//66
f 101//77 93//69 91//69
f 92//70 94//70 102//78
f 95//75 93//67 103//75
f 104//76 94//68 96//76
f 99//79 97//71 89//71
f 90//72 98//72 100//80
f 97//71 101//79 91//71
f 92//72 102//80 98//72
f 105//81 99//73 95//73
f 96//74 100//74 106//82
f 93//69 101//77 103//77
f 104//78 102//78 94//70
f 103//75 105//83 95//75
f 96//76 106//84 104//76
f 97//71 99//79 107//79
f 108//80 100//80 98//72
f 97//71 107//79 101//79
f 102//80 108//80 98//72
f 99//73 105//81 109//81
f 110//82 106//82 100//74
f 111//85 103//77 101//77
f 102//78 104//78 112//86
f 105//83 103//75 113//83
f 114//84 104//76 106//84
f 109//87 107//79 99//79
f 100//80 108//80 110//88
f 107//79 111//87 101//79
f 102//80 112//88 108//80
f 115//89 109//81 105//81
f 106//82 110//82 116//90
f 103//77 111//85 113//85
f 114//86 112//86 104//78
f 113//83 115//91 105//83
f 106//84 116//92 114//84
f 107//79 109//87 117//87
f 118//88 110//88 108//80
f 107//79 117//87 111//87
f 112//88 118//88 108//80
f 109//81 115//89 119//89
f 120//90 116//90 110//82
f 121//93 113//85 111//85
f 112//86 114//86 122//94
f 115//91 113//83 123//91
f 124//92 114//84 116//92
f 119//95 117//87 109//87
f 110//88 118//88 120//96
f 117//87 121//95 111//87
f 112//88 122//96 118//88
f 125//97 119//89 115//89
f 116//90 120//90 126//98
f 113//85 121//93 123//93
f 124//94 122//94 114//86
f 123//91 125//99 115//91
f 116//92 126//100 124//92
f 117//87 119//95 127//95
f 128//96 120//96 118//88
f 117//87 127//95 121//95
f 122//96 128//96 118//88
f 119//89 125//97 129//97
f 130//98 126//98 120//90
f 131//101 123//93 121//93
f 122//94 124//94 132//102
f 125//99 123//91 133//99
f 134//100 124//92 126//100
f 129//103 127//95 119//95
f 120//96 128//96 130//104
f 127//95 131//103 121//95
f 122//96 132//104 128//96
f 135//105 129//97 125//97
f 126//98 130//98 136//106
f 123//93 131//101 133//101
f 134//102 132//102 124//94
f 133//99 135//107 125//99
f 126//100 136//108 134//100
f 127//95 129//103 137//103
f 138//104 130//104 128//96
f 127//95 137//103 131//103
f 132//104 138//104 128//96
f 129//97 135//105 139//105
f 140//106 136//106 130//98
f 141//109 133//101 131//101
f 132//102 134//102 142//110
f 135//107 133//99 143//107
f 144//108 134//100 136//108
f 139//111 137//103 129//103
f 130//104 138//104 140//112
f 137//103 141//111 131//103
f 132//104 142//112 138//104
f 145//113 139//105 135//105
f 136//106 140//106 146//114
f 133//101 141//109 143//109
f 144//110 142//110 134//102
f 143//107 145//115 135//107
f 136//108 146//116 144//108
f 137//103 139//111 147//111
f 148//112 140//112 138//104
f 137//103 147//111 141//111
f 142//112 148//112 138//104
f 139//105 145//113 149//113
f 150//114 146//114 140//106
f 151//117 143//109 141//109
f 142//110 144//110 152//118
f 145//115 143//107 153//115
f 154//116 144//108 146//116
f 149//119 147//111 139//111
f 140//112 148//112 150//120
f 147//111 151//119 141//111
f 142//112 152//120 148//112
f 155//121 149//113 145//113
f 146//114 150//114 156//122
f 143//109 151//117 153//117
f 154//118 152//118 144//110
f 153//115 155//123 145//115
f 146//116 156//124 154//116
f 147//111 149//119 157//119
f 158//120 150//120 148//112
f 147//111 157//119 151//119
f 152//120 158//120 148//112
f 149//113 155//121 159//121
f 160//122 156//122 150//114
f 161//125 153//117 151//117
f 152//118 154//118 162//126
f 155//123 153//115 163//123
f 164//124 154//116 156//124
f 159//127 157//119 149//119
f 150//120 158//120 160//128
f 157//119 161//127 151//119
f 152//120 162//128 158//120
f 165//129 159//121 155//121
f 156//122 160//122 166//130
f 153//117 161//125 163//125
f 164//126 162//126 154//118
f 163//123 165//131 155//123
f 156//124 166//132 164//124
f 157//119 159//127 167//127
f 168//128 160//128 158//120
f 157//119 167//127 161//127
f 162//128 168//128 158//120
f 159//121 165//129 169//129
f 170//130 166//130 160//122
f 171//133 163//125 161//125
f 162//126 164//126 172//134
f 165//131 163//123 173//131
f 174//132 164//124 166//132
f 169//135 167//127 159//127
f 160//128 168//128 170//136
f 167//127 171//135 161//127
f 162//128 172//136 168//128
f 175//137 169//129 165//129
f 166//130 170//130 176//138
f 163//125 171//133 173//133
f 174//134 172//134 164//126
f 173//131 175//139 165//131
f 166//132 176//140 174//132
f 167//127 169//135 177//135
f 178//136 170//136 168//128
f 167//127 177//135 171//135
f 172//136 178//136 168//128
f 169//129 175//137 179//137
f 180//138 176//138 170//130
f 181//141 173//133 171//133
f 172//134 174//134 182//142
f 175//139 173//131 183//139
f 184//140 174//132 176//140
f 179//143 177//135 169//135
f 170//136 178//136 180//144
f 177//135 181//143 171//135
f 172//136 182//144 178//136
f 183//145 179//145 175//145
f 176//146 180//146 184//146
f 173//133 181//141 183//141
f 184//142 182//142 174//134
f 177//135 179//143 181//143
f 182//144 180//144 178//136
f 179//145 183//145 181//145
f 182//146 184//146 180//146
g mesh4-geometry-0
usemtl Material.ff2b76dd9d013336f15786b2b7f09a50
f 185/1/147 186/2/147 187/3/147
f 188/1/148 189/3/148 190/2/148
f 191/4/147 187/3/147 186/2/147
f 192/4/148 190/2/148 189/3/148
g mesh7-geometry-0
usemtl Material.faca4c01f4ad453eabbac40374a1bb14
f 193/5/149 194/6/149 195/7/149
f 196/5/150 197/7/150 198/6/150
f 199/8/149 195/7/149 194/6/149
f 200/8/150 198/6/150 197/7/150
