# created by Ethan Wu and Zhan isaac Ling
mtllib model.mtl
v -0.000540 -0.232315 -0.024906
v -0.034540 -0.174228 -0.024921
v -0.000609 -0.138028 -0.024900
vn 0.000000 0.000000 -1.000000
v -0.000560 -0.316779 -0.024907
v -0.000609 -0.138023 0.024887
vn -0.729537 0.683941 0.000000
v -0.000605 -0.232341 -0.024880
vn -1.000000 0.000000 0.000000
v -0.000564 -0.316846 0.024907
vn 1.000000 0.000000 0.000000
v -0.034537 -0.316781 -0.024900
v -0.034543 -0.174234 0.024921
v -0.000601 -0.232307 0.024879
v 0.019775 -0.232354 -0.301001
v -0.000607 -0.232339 -0.300993
vn 0.000000 -1.000000 0.000000
v -0.000545 -0.232349 0.024907
v -0.000581 -0.316778 0.024879
v 0.019802 -0.325828 -0.187835
vn 0.406138 0.913812 0.000000
v -0.034518 -0.316849 0.024901
v -0.000585 -0.316845 -0.024880
vn 0.000000 -1.000000 0.000000
v -0.000569 -0.316775 -0.170491
vn 0.000000 1.000000 0.000000
v -0.034499 -0.316844 -0.024887
v -0.000537 -0.138041 0.024900
vn 0.000000 0.000000 1.000000
v -0.000603 0.282145 -0.301002
vn 0.000000 0.000000 -1.000000
v -0.000566 -0.316776 0.174585
v -0.034525 -0.316776 0.174581
v -0.034518 -0.316776 0.024885
vn 0.000000 1.000000 0.000000
v -0.034523 -0.316776 -0.170496
v -0.051509 -0.325832 -0.187835
vn -0.470588 0.882353 0.000000
v 0.019773 -0.232350 0.301003
v 0.019773 0.282157 -0.301003
v 0.019800 -0.325828 0.187838
vn 0.000000 0.886522 -0.462687
v -0.000603 -0.232343 0.300997
v -0.000609 0.153514 0.150485
v -0.000608 -0.103700 0.092206
v -0.000608 -0.103702 0.150481
vn -1.000000 0.000000 0.000000
v -0.000537 -0.103724 0.092206
v -0.000538 -0.103722 0.150501
v -0.027228 -0.103743 0.092191
vn 0.000000 -1.000000 0.000000
v 0.019816 -0.232306 0.300960
v 0.044681 -0.232302 -0.300955
v 0.019814 -0.232302 -0.300962
vn 0.000000 1.000000 0.000000
v 0.019767 -0.276096 -0.375680
vn -1.000000 0.000000 0.000000
v -0.000606 -0.103695 -0.150491
v -0.000609 -0.083338 0.049046
v -0.000605 0.153506 -0.150478
v -0.036792 -0.103746 -0.150502
v -0.000540 0.153533 -0.150504
v -0.000539 -0.103729 -0.150491
vn 0.000000 0.000000 -1.000000
v -0.000603 0.282151 0.300997
v 0.019816 0.282114 -0.300960
vn 0.000000 0.000000 1.000000
v 0.019760 0.325897 -0.375673
v -0.051494 -0.325828 0.187840
vn 0.000000 0.825796 0.563968
vn 0.000000 1.000000 0.000000
vn 0.000000 0.000000 1.000000
v -0.000603 -0.083330 0.092222
v -0.036803 0.153541 0.150512
v -0.000536 0.153526 0.150497
vn 0.000000 0.000000 1.000000
v -0.036796 -0.103743 0.150506
v -0.000542 -0.083360 0.092191
vn 0.000000 0.000000 -1.000000
v -0.000597 -0.103688 0.049037
v -0.000549 -0.103736 0.049069
v -0.009166 -0.103746 -0.046210
v 0.044710 -0.232306 0.301003
v 0.019764 -0.276093 0.375676
v -0.036803 0.153541 -0.150512
v -0.009173 -0.103739 -0.111808
v 0.019776 0.282163 0.301000
v 0.044706 0.282108 -0.300963
v 0.019764 0.325901 0.375676
v -0.051473 -0.325897 -0.187826
vn 0.000000 1.000000 0.000000
v -0.027221 -0.083367 0.092185
v -0.027221 -0.083367 0.049075
v -0.000537 -0.083352 0.049061
v -0.027244 -0.103743 -0.046213
v 0.044688 0.282113 0.300952
v 0.044666 -0.232350 0.300960
v 0.049245 0.325901 -0.375676
v 0.049241 -0.276096 0.375680
v -0.027244 -0.103743 -0.111811
v 0.044669 0.282163 -0.301000
vn 0.000000 1.000000 0.000000
v 0.019813 0.282108 0.300963
v -0.027232 -0.103746 0.049065
vn 1.000000 0.000000 0.000000
v -0.009177 -0.087893 -0.046220
vn -1.000000 0.000000 0.000000
v 0.049245 -0.276093 -0.375676
v -0.027237 -0.087893 -0.111804
v 0.044688 0.282158 0.301012
v 0.049192 0.282157 -0.301003
v 0.049248 0.325897 0.375673
v -0.027237 -0.087893 -0.046220
v -0.009177 -0.087893 -0.111804
v 0.049241 -0.232310 0.300963
v 0.049249 -0.232319 -0.300973
vn 1.000000 0.000000 0.000000
v 0.049235 0.282114 -0.300960
v 0.049180 0.282147 0.300993
v 0.049248 0.282124 0.300970
v -0.000536 -0.138037 -0.024887
v -0.034496 -0.174253 -0.024866
vn 0.000000 0.000000 1.000000
vt 0.019097 0.072049
vt 0.032118 0.05816
vt 0.019097 0.035879
vt 0.019097 0.003472
vn 0.729537 -0.683941 0.000000
vt -0.153646 0.039501
vt -0.134549 0.039501
vt -0.153646 0.020463
vn 1.000000 0.000000 0.000000
vt -0.153646 0.072049
vt -0.134549 0.072049
vt -0.153646 0.035879
v -0.000539 -0.232316 -0.300970
vn 1.000000 0.000000 0.000000
vt -0.153646 0.035879
vt -0.259549 0.035879
vt -0.153646 0.072049
vn -1.000000 0.000000 0.000000
vt 0.153646 0.003472
vt 0.134549 0.003472
vt 0.153646 0.035879
vt 0.032118 0.003472
v -0.034493 -0.174247 0.024866
vt -0.134549 0.020463
vt -0.086372 0.085214
vt -0.134549 0.072049
vt -0.134549 0.035879
vt -0.201823 0.085214
vn 0.000000 1.000000 0.000000
vt -0.259549 0.019097
vt -0.153646 0.019097
vt -0.259549 0.011285
vt 0.134549 0.035879
v 0.019786 -0.325901 -0.187826
vn -0.406138 -0.913812 0.000000
vt 0.153646 0.018861
vt 0.216146 0.010312
vt 0.134549 0.018861
vn 0.000000 1.000000 0.000000
vt -0.134549 0.019097
vt -0.153646 0.019097
vt -0.134549 0.032118
v -0.000577 -0.316849 -0.170482
vn 0.000000 -1.000000 0.000000
vt 0.153646 0.019097
vt 0.153646 0.032118
vt 0.209493 0.019097
vt -0.153646 0.032118
vn 1.000000 0.000000 0.000000
vt -0.153646 0.05816
vt -0.134549 0.05816
vt -0.153646 0.003472
vn 0.000000 0.000000 -1.000000
vt -0.019097 0.072049
vt -0.019097 0.035879
vt -0.032118 0.05816
vt -0.134549 0.035879
vt -0.134549 0.019097
v -0.000543 0.282125 -0.300961
vt -0.259549 0.233218
vn 0.000000 0.000000 1.000000
vt 0.019097 0.035879
vt 0.011285 0.035879
vt 0.019097 0.233218
vt -0.019097 0.003472
v -0.000579 -0.316848 0.174567
vt 0.077133 0.018861
vt 0.209493 0.018861
vt -0.032118 0.003472
v -0.034511 -0.316849 0.174572
vn 0.000000 -1.000000 0.000000
vt 0.134549 0.032118
vt 0.134549 0.019097
vt 0.077133 0.032118
v -0.034513 -0.316849 -0.170477
vt 0.209493 0.032118
vt -0.134549 0.003472
vn 0.470588 -0.882353 0.000000
vt -0.153646 -0.026705
vt -0.134549 -0.026705
vt -0.216146 -0.034084
v -0.000542 -0.232313 0.300966
vt -0.028646 0.035879
vt -0.028646 0.011285
vt -0.201823 0.183883
vt 0.011285 0.233218
v 0.019789 -0.325901 0.187823
vt 0.072049 0.010312
vt 0.077133 0.019097
vn 0.000000 -0.886522 0.462687
vt 0.019097 -0.184113
vt 0.032118 -0.184113
vt 0.011285 -0.191618
vt -0.077133 -0.026705
vt -0.209493 -0.026705
v -0.000542 0.282120 0.300966
vt -0.028646 0.233218
vt -0.028646 0.019097
vn 1.000000 0.000000 0.000000
vt -0.108728 0.085214
vt -0.086372 0.183883
v -0.027258 -0.103681 0.092222
vn 0.000000 1.000000 0.000000
vt -0.108728 0.029327
vt -0.086372 0.019097
vt -0.108728 0.019097
v 0.044694 -0.232354 -0.301008
vn 0.000000 -1.000000 0.000000
vt 0.259549 0.011285
vt 0.259549 0.001736
vt 0.028646 0.011285
v 0.019822 -0.276060 -0.375643
vn 1.000000 0.000000 0.000000
vt -0.028646 0.035879
vt -0.288194 0.019097
vt -0.259549 0.035879
vt -0.125281 0.093026
v -0.036770 -0.103678 -0.150479
vn 0.000000 0.000000 1.000000
vt 0.019097 0.085214
vt 0.019097 0.183883
vt 0.032986 0.085214
vt 0.259549 0.019097
vt 0.259549 0.011285
vt 0.028646 0.019097
vn 0.000000 0.000000 -1.000000
vt -0.011285 0.035879
vt -0.011285 0.233218
vt -0.001736 0.035879
v 0.019828 0.325874 -0.375650
vt -0.288194 0.25
v -0.051487 -0.325900 0.187822
vn 0.000000 -0.825796 -0.563968
vt -0.011285 0.059497
vt -0.038628 0.059497
vt -0.019097 0.065654
vn 0.000000 -1.000000 0.000000
vt 0.072049 0.011285
vt 0.072049 0.038628
vt 0.216146 0.011285
vt -0.032118 0.065654
vt 0.038628 -0.191618
vt -0.072049 -0.034084
vn 0.000000 0.000000 -1.000000
vt -0.019097 0.035879
vt -0.019097 0.233218
vt -0.011285 0.035879
vt -0.108728 0.093026
v -0.036759 0.153498 0.150469
vn 0.000000 0.000000 -1.000000
vt -0.019097 0.183883
vt -0.019097 0.085214
vt -0.032986 0.183883
v -0.036766 -0.103681 0.150476
vt -0.086372 0.032986
vn 0.000000 0.000000 1.000000
vt 0.019097 0.085214
vt 0.019097 0.093026
vt 0.029327 0.085214
vt -0.125281 0.085214
v -0.009144 -0.103678 -0.046187
vt -0.201823 0.019097
vt -0.161818 0.022389
vt -0.125281 0.019097
vt 0.028646 0.001736
v 0.019825 -0.276063 0.375646
vt 0.0 0.019097
v -0.036759 0.153498 -0.150469
vt 0.032986 0.183883
v -0.009137 -0.103685 -0.111844
vt -0.201823 0.032986
vt -0.186992 0.022389
vt 0.028646 0.011285
vt -0.001736 0.233218
v 0.019825 0.325870 0.375646
vt 0.0 0.25
vt 0.216146 0.038628
vt -0.011285 0.233218
vt -0.032986 0.085214
vn 0.000000 -1.000000 0.000000
vt 0.086372 0.019097
vt 0.086372 0.032986
vt 0.201823 0.019097
v -0.027265 -0.083323 0.092228
vt 0.029327 0.093026
v -0.027265 -0.083323 0.049032
vt -0.019097 0.093026
vt -0.019097 0.085214
vt -0.029327 0.093026
v -0.027274 -0.103681 -0.046183
vt -0.161818 0.029334
vt 0.001736 0.035879
vt 0.001736 0.233218
vt 0.011285 0.035879
vn -1.000000 0.000000 0.000000
vt 0.259549 0.035879
vt 0.028646 0.035879
vt 0.259549 0.233218
v 0.049183 0.325870 -0.375646
vt 0.011285 0.25
vt 0.011285 0.019097
vt 0.0 0.25
v 0.049186 -0.276060 0.375643
vt 0.0 0.011285
vt 0.0 0.0
vt -0.288194 0.011285
vn 1.000000 0.000000 0.000000
vt 0.201823 0.032986
v -0.027274 -0.103681 -0.111841
vt -0.186992 0.029334
vn 0.000000 -1.000000 0.000000
vt 0.259549 0.011285
vt 0.259549 0.001736
vt 0.028646 0.011285
vt 0.288194 0.011285
vt 0.288194 0.0
vt 0.011285 0.233218
vt -0.125281 0.029327
v -0.027254 -0.103678 0.049042
vt 0.108728 0.093026
vt 0.125281 0.093026
vt 0.108728 0.085214
vt -0.029327 0.085214
v -0.009133 -0.087849 -0.046177
vt 0.022389 0.085214
vt 0.022389 0.09129
vt 0.029334 0.085214
vn 1.000000 0.000000 0.000000
vt -0.161818 0.085214
vt -0.186992 0.085214
vt -0.161818 0.09129
vt 0.028646 0.233218
v 0.049183 -0.276063 -0.375646
vt 0.0 0.019097
vt -0.011285 0.019097
vt -0.011285 0.25
vt 0.0 0.019097
vt -0.288194 0.0
v -0.027281 -0.087849 -0.111848
vt -0.029334 0.085214
vt -0.029334 0.09129
vt -0.022389 0.085214
vt 0.028646 0.001736
v 0.049180 0.325874 0.375650
vt 0.125281 0.085214
v -0.027281 -0.087849 -0.046177
vt 0.029334 0.09129
v -0.009133 -0.087849 -0.111848
vt -0.186992 0.09129
v 0.049178 -0.232337 -0.300990
v 0.049186 -0.232346 0.301000
vn -1.000000 0.000000 0.000000
vt 0.288194 0.25
vt 0.288194 0.019097
vt 0.0 0.25
vt 0.186992 0.085214
vt 0.161818 0.085214
vt 0.186992 0.09129
vt -0.022389 0.09129
vt 0.161818 0.09129
vn -1.000000 0.000000 0.000000
vn -1.000000 0.000000 0.000000
vn -1.000000 0.000000 0.000000
vt 0.155729 0.139931
vt 0.017188 0.021527
vt 0.155729 0.021527
vt 0.017188 0.139931
v 0.051509 -0.244889 -0.001601
v 0.051506 -0.264032 0.001565
v 0.051506 -0.264029 -0.001599
vn 1.000000 0.000000 0.000000
v 0.051501 -0.244877 0.001574
v 0.049229 -0.264037 -0.003134
vn 0.000000 -1.000000 0.000000
vn 0.559493 0.000000 -0.828835
v 0.049223 -0.244866 -0.003126
vn 0.000000 1.000000 0.000000
v 0.049233 -0.264027 0.003139
vn 0.566529 0.000000 0.824042
v 0.049229 -0.244873 0.003134
v 0.051448 -0.263991 -0.001569
v 0.051448 -0.263988 0.001547
v 0.051445 -0.244910 -0.001567
vn -1.000000 0.000000 0.000000
vt 0.144705 0.023726
vt 0.1435 0.023726
vt 0.144705 0.031057
v 0.051453 -0.244922 0.001537
vt 0.1435 0.031057
v 0.049199 -0.263984 -0.003090
vn 0.000000 1.000000 0.000000
vt -0.144705 -0.000868
vt -0.145291 -0.0
vt -0.1435 -0.000868
vn -0.559493 0.000000 0.828835
vt 0.080242 0.023726
vt 0.080242 0.031057
vt 0.081289 0.023726
v 0.049204 -0.244933 -0.003098
vn 0.000000 -1.000000 0.000000
vt 0.144705 -0.000868
vt 0.1435 -0.000868
vt 0.145291 -0.0
v 0.049195 -0.263993 0.003084
vn -0.566529 0.000000 -0.824042
vt 0.082012 0.023726
vt 0.080959 0.023726
vt 0.082012 0.031057
vt -0.142904 -0.0
vt 0.081289 0.031057
v 0.049199 -0.244926 0.003090
vt 0.142904 -0.0
vt 0.080959 0.031057
v 0.051498 -0.248607 -0.349581
v 0.051498 -0.253176 -0.320119
v 0.051498 -0.253176 -0.349581
vn 1.000000 0.000000 0.000000
v 0.051498 -0.248607 -0.320119
v 0.049214 -0.253181 -0.349586
vn 0.000000 -1.000000 0.000000
vn 0.000000 0.000000 -1.000000
v 0.049214 -0.248602 -0.320114
vn 0.000000 1.000000 0.000000
vn 0.000000 0.000000 1.000000
v 0.049214 -0.253181 -0.320114
v 0.049214 -0.248602 -0.349586
v 0.051455 -0.253133 -0.349538
v 0.051455 -0.253133 -0.320162
v 0.051455 -0.248650 -0.349538
vn -1.000000 0.000000 0.000000
vt 0.278182 0.02789
vt 0.266897 0.02789
vt 0.278182 0.029626
v 0.051455 -0.248650 -0.320162
vt 0.266897 0.029626
v 0.049214 -0.253128 -0.349533
vn 0.000000 1.000000 0.000000
vt -0.278182 -0.000868
vt -0.278182 0.0
vt -0.266897 -0.000868
vn 0.000000 0.000000 1.000000
vt -0.000868 0.02789
vt -0.000868 0.029626
vt 0.0 0.02789
v 0.049214 -0.248655 -0.320167
vn 0.000000 -1.000000 0.000000
vt 0.266897 -0.000868
vt 0.266897 0.0
vt 0.278182 -0.000868
vn 0.000000 0.000000 -1.000000
vt 0.000868 0.029626
vt 0.000868 0.02789
vt 0.0 0.029626
v 0.049214 -0.253128 -0.320167
vt -0.266897 0.0
v 0.049214 -0.248655 -0.349533
vt 0.278182 0.0
g mesh1-geometry-0
usemtl Material.57774a50243e5d429f3a4ea105ec3930
f 1//1 2//1 3//1
f 2//1 1//1 4//1
f 2//2 5//2 3//2
f 6//3 5//3 3//3
f 1//4 7//4 4//4
f 2//1 4//1 8//1
f 5//2 2//2 9//2
f 5//3 6//3 10//3
f 11//5 6//5 12//5
f 7//4 1//4 13//4
f 14//6 15//6 4//6
f 16//7 17//7 7//7
f 18//8 8//8 4//8
f 17//7 16//7 19//7
f 9//9 13//9 20//9
f 11//5 13//5 6//5
f 21//10 11//10 12//10
f 13//9 9//9 7//9
f 22//6 15//6 14//6
f 4//6 15//6 18//6
f 7//9 9//9 16//9
f 23//11 14//11 24//11
f 8//8 18//8 25//8
f 26//12 24//12 8//12
f 27//5 13//5 11//5
f 11//10 21//10 28//10
f 15//6 22//6 29//6
f 14//11 23//11 22//11
f 15//13 25//13 18//13
f 26//12 23//12 24//12
f 26//12 8//12 25//12
f 13//5 27//5 30//5
f 31//14 32//14 33//14
f 34//15 35//15 36//15
f 37//16 38//16 39//16
f 11//17 40//17 27//17
f 41//14 42//14 43//14
f 44//18 45//18 46//18
f 47//16 28//16 21//16
f 38//19 48//19 39//19
f 49//17 11//17 28//17
f 22//20 50//20 29//20
f 15//21 50//21 29//21
f 50//20 22//20 23//20
f 25//13 15//13 26//13
f 23//12 26//12 50//12
f 27//22 47//22 30//22
f 32//14 31//14 51//14
f 52//23 35//23 53//23
f 54//15 36//15 35//15
f 36//24 55//24 34//24
f 42//14 41//14 56//14
f 57//15 58//15 46//15
f 38//16 37//16 59//16
f 40//17 11//17 49//17
f 60//17 27//17 40//17
f 43//14 42//14 31//14
f 45//18 44//18 61//18
f 46//15 62//15 44//15
f 28//16 47//16 63//16
f 48//19 38//19 64//19
f 49//17 28//17 65//17
f 50//21 15//21 66//21
f 47//22 27//22 63//22
f 51//14 31//14 42//14
f 35//23 52//23 54//23
f 45//25 52//25 53//25
f 36//15 54//15 44//15
f 55//24 36//24 67//24
f 68//22 57//22 69//22
f 58//15 57//15 70//15
f 46//15 58//15 62//15
f 37//24 71//24 72//24
f 73//24 40//24 49//24
f 27//17 60//17 65//17
f 40//5 74//5 60//5
f 52//25 45//25 61//25
f 75//15 44//15 62//15
f 63//26 76//26 28//26
f 63//17 65//17 28//17
f 65//16 73//16 49//16
f 27//17 65//17 63//17
f 71//24 37//24 77//24
f 55//5 68//5 69//5
f 36//15 44//15 78//15
f 36//27 68//27 67//27
f 68//5 55//5 67//5
f 57//22 68//22 78//22
f 78//15 70//15 57//15
f 70//24 79//24 58//24
f 79//28 62//28 58//28
f 40//24 73//24 80//24
f 74//22 65//22 60//22
f 74//5 40//5 80//5
f 70//15 44//15 75//15
f 62//22 81//22 75//22
f 76//26 63//26 82//26
f 82//16 83//16 76//16
f 73//16 65//16 84//16
f 78//15 44//15 70//15
f 68//27 36//27 78//27
f 79//24 70//24 85//24
f 62//28 79//28 86//28
f 87//29 74//29 88//29
f 88//29 80//29 73//29
f 65//22 74//22 84//22
f 80//29 88//29 74//29
f 81//27 70//27 75//27
f 81//22 62//22 86//22
f 88//29 73//29 89//29
f 83//16 82//16 90//16
f 84//29 91//29 73//29
f 70//27 81//27 85//27
f 81//5 79//5 85//5
f 79//5 81//5 86//5
f 84//29 87//29 91//29
f 74//29 87//29 84//29
f 89//29 73//29 91//29
g mesh1-geometry-1
usemtl Material.fab57047b918532a092dd588832f0228
f 92/1/30 93/2/30 6/3/30
f 17/4/30 6/3/30 93/2/30
f 92/5/31 20/6/31 93/7/31
f 92/8/32 20/9/32 1/10/32
f 1/11/33 94/12/33 92/13/33
f 17/14/34 14/15/34 6/16/34
f 19/17/30 17/4/30 93/2/30
f 95/18/31 93/7/31 20/6/31
f 92/13/33 35/19/33 20/20/33
f 13/21/32 1/10/32 20/9/32
f 46/22/33 92/13/33 94/12/33
f 94/23/35 1/24/35 39/25/35
f 10/26/34 6/16/34 14/15/34
f 17/27/36 96/28/36 7/29/36
f 14/30/37 4/31/37 24/32/37
f 17/33/38 19/34/38 97/35/38
f 8/36/37 24/32/37 4/31/37
f 93/37/39 95/38/39 19/39/39
f 5/40/40 10/41/40 95/42/40
f 20/20/33 35/19/33 13/43/33
f 35/19/33 92/13/33 46/22/33
f 1/24/35 10/44/35 39/25/35
f 98/45/33 46/22/33 94/12/33
f 94/46/41 39/47/41 98/48/41
f 14/49/40 95/42/40 10/41/40
f 7/29/36 96/28/36 99/50/36
f 97/51/36 96/28/36 17/27/36
f 24/52/40 95/42/40 14/49/40
f 16/53/42 7/54/42 100/55/42
f 101/56/38 97/35/38 19/34/38
f 24/57/39 19/39/39 95/38/39
f 19/58/43 16/59/43 66/60/43
f 13/43/33 35/19/33 102/61/33
f 39/25/35 10/44/35 37/62/35
f 45/63/33 46/22/33 98/45/33
f 48/64/41 98/48/41 39/47/41
f 103/65/36 99/50/36 96/28/36
f 99/66/42 100/55/42 7/54/42
f 97/67/44 101/68/44 96/69/44
f 16/59/43 100/70/43 66/60/43
f 101/71/43 19/58/43 66/60/43
f 104/72/33 102/61/33 35/19/33
f 102/73/35 37/62/35 10/44/35
f 35/19/45 34/74/45 53/75/45
f 105/76/46 33/77/46 32/78/46
f 11/79/47 106/80/47 27/81/47
f 37/82/48 107/83/48 39/84/48
f 45/63/45 69/85/45 46/22/45
f 46/86/49 43/87/49 108/88/49
f 104/72/33 45/63/33 98/45/33
f 98/89/47 48/90/47 104/91/47
f 11/92/50 28/93/50 106/94/50
f 48/45/48 39/84/48 109/95/48
f 103/96/51 110/97/51 99/98/51
f 103/99/52 110/100/52 96/101/52
f 100/102/51 99/98/51 110/97/51
f 66/103/44 96/69/44 101/68/44
f 110/104/43 66/60/43 100/70/43
f 102/105/53 104/106/53 37/107/53
f 53/75/33 104/72/33 35/19/33
f 55/108/45 53/75/45 34/74/45
f 31/109/54 33/110/54 111/111/54
f 33/77/46 105/76/46 112/112/46
f 34/113/55 51/114/55 105/115/55
f 34/74/33 57/116/33 55/108/33
f 57/116/45 46/22/45 69/85/45
f 41/117/46 113/118/46 56/119/46
f 72/120/47 27/81/47 106/80/47
f 109/95/48 39/84/48 107/83/48
f 107/83/48 37/82/48 114/121/48
f 53/75/45 69/85/45 45/63/45
f 115/122/49 108/88/49 43/87/49
f 108/123/46 116/124/46 41/117/46
f 45/63/33 104/72/33 53/75/33
f 77/125/47 104/91/47 48/90/47
f 76/126/50 106/94/50 28/93/50
f 117/127/48 48/45/48 109/95/48
f 26/128/52 96/101/52 110/100/52
f 77/129/53 37/107/53 104/106/53
f 69/85/45 53/75/45 55/108/45
f 112/130/54 111/111/54 33/110/54
f 31/131/56 111/132/56 43/133/56
f 108/123/46 112/112/46 105/76/46
f 118/134/55 105/115/55 51/114/55
f 69/85/33 55/108/33 57/116/33
f 42/135/53 56/136/53 119/137/53
f 120/138/46 56/119/46 113/118/46
f 116/124/46 113/118/46 41/117/46
f 59/139/55 82/140/55 27/141/55
f 38/142/57 72/143/57 76/144/57
f 109/145/55 107/146/55 121/147/55
f 117/127/48 114/121/48 37/82/48
f 114/148/35 122/149/35 107/150/35
f 115/63/58 111/75/58 108/22/58
f 115/151/56 43/133/56 111/132/56
f 116/124/46 108/123/46 123/152/46
f 48/153/59 64/154/59 77/155/59
f 48/45/48 117/127/48 77/72/48
f 109/156/47 121/157/47 117/148/47
f 77/72/48 117/127/48 37/82/48
f 63/158/55 27/141/55 82/140/55
f 42/119/35 119/159/35 51/78/35
f 112/19/58 108/22/58 111/75/58
f 124/159/46 108/123/46 105/76/46
f 118/160/57 119/161/57 105/162/57
f 118/76/35 51/78/35 119/159/35
f 124/163/53 119/137/53 56/136/53
f 56/119/46 120/138/46 124/159/46
f 113/164/55 125/165/55 120/166/55
f 113/167/60 116/168/60 125/169/60
f 82/170/57 76/144/57 72/143/57
f 126/171/55 121/147/55 107/146/55
f 114/172/53 117/173/53 122/174/53
f 126/175/35 107/150/35 122/149/35
f 123/152/46 108/123/46 120/138/46
f 123/176/53 127/177/53 116/178/53
f 71/179/59 77/155/59 64/154/59
f 128/149/47 117/148/47 121/157/47
f 120/138/46 108/123/46 124/159/46
f 124/180/57 105/162/57 119/161/57
f 129/181/55 120/166/55 125/165/55
f 130/182/60 125/169/60 116/168/60
f 131/142/61 122/174/61 132/143/61
f 121/183/61 126/184/61 131/142/61
f 128/185/53 122/174/53 117/173/53
f 122/174/61 131/142/61 126/184/61
f 123/186/57 120/187/57 127/188/57
f 130/189/53 116/178/53 127/177/53
f 83/144/61 121/183/61 131/142/61
f 121/183/61 90/170/61 128/185/61
f 129/190/57 127/188/57 120/187/57
f 129/138/35 125/118/35 127/152/35
f 130/124/35 127/152/35 125/118/35
f 90/170/61 132/143/61 128/185/61
f 128/185/61 132/143/61 122/174/61
f 90/170/61 121/183/61 83/144/61
g mesh1-geometry-2
usemtl Material.dc7a3ca9ca091ddbf48733c3a604f557
f 3//62 12//62 6//62
f 5//62 33//62 3//62
f 12//62 3//62 41//62
f 8//63 9//63 2//63
f 10//62 33//62 5//62
f 41//62 3//62 33//62
f 12//62 41//62 21//62
f 9//63 8//63 16//63
f 30//62 33//62 10//62
f 21//62 41//62 43//62
f 33//62 30//62 47//62
f 21//62 43//62 47//62
f 33//62 47//62 31//62
f 51//62 56//62 32//62
f 31//62 47//62 43//62
f 56//62 51//62 42//62
f 44//64 52//64 61//64
f 52//64 44//64 54//64
g mesh1-geometry-3
usemtl Material.ec54333377af01998850abef039c82fd
f 64/191/27 59/192/27 106/193/27
f 59/192/27 64/191/27 82/194/27
g mesh1-geometry-4
usemtl Material.3ac6031be7abcb165f3b2ce0a1a4e393
f 106//5 132//5 72//5
f 83//24 106//24 76//24
f 132//22 82//22 59//22
f 132//5 106//5 131//5
f 106//24 83//24 131//24
f 82//22 132//22 90//22
g mesh1-geometry-5
usemtl Material.efc39ebbb3cc1048a02a4c783fdc17fc
f 59//35 87//35 38//35
f 64//55 38//55 89//55
f 72//53 71//53 87//53
f 88//35 38//35 87//35
f 88//55 89//55 38//55
f 64//47 89//47 71//47
f 91//53 87//53 71//53
f 91//47 71//47 89//47
g mesh2-geometry-0
usemtl Material.1a9b9f2ffc3bd045e8f97d5062c1c924
f 133//65 134//65 135//65
f 134//65 133//65 136//65
f 134//66 137//66 135//66
f 137//67 133//67 135//67
f 138//68 136//68 133//68
f 136//69 139//69 134//69
f 137//66 134//66 139//66
f 133//67 137//67 138//67
f 136//68 138//68 140//68
f 139//69 136//69 140//69
g mesh2-geometry-1
usemtl Material.fab57047b918532a092dd588832f0228
f 141/195/70 142/196/70 143/197/70
f 144/198/70 143/197/70 142/196/70
f 141/199/71 145/200/71 142/201/71
f 141/202/72 143/203/72 145/204/72
f 143/205/73 144/206/73 146/207/73
f 142/208/74 147/209/74 144/210/74
f 147/211/71 142/201/71 145/200/71
f 146/212/72 145/204/72 143/203/72
f 148/213/73 146/207/73 144/206/73
f 148/214/74 144/210/74 147/209/74
g mesh3-geometry-0
usemtl Material.1a9b9f2ffc3bd045e8f97d5062c1c924
f 149//75 150//75 151//75
f 150//75 149//75 152//75
f 150//76 153//76 151//76
f 153//77 149//77 151//77
f 149//78 154//78 152//78
f 154//79 150//79 152//79
f 153//76 150//76 155//76
f 149//77 153//77 156//77
f 154//78 149//78 156//78
f 150//79 154//79 155//79
g mesh3-geometry-1
usemtl Material.fab57047b918532a092dd588832f0228
f 157/215/80 158/216/80 159/217/80
f 160/218/80 159/217/80 158/216/80
f 157/219/81 161/220/81 158/221/81
f 157/222/82 159/223/82 161/224/82
f 160/225/83 162/226/83 159/227/83
f 160/228/84 158/229/84 162/230/84
f 163/231/81 158/221/81 161/220/81
f 164/230/82 161/224/82 159/223/82
f 164/232/83 159/227/83 162/226/83
f 163/224/84 162/230/84 158/229/84
