# created by Ethan Wu and Zhan isaac Ling
mtllib model.mtl
v 0.033972 0.242640 -0.433026
v 0.034719 0.242654 0.431812
v 0.033972 0.242651 0.431797
vn 0.000000 -1.000000 0.000000
v 0.034716 0.242660 -0.433024
v 0.033988 -0.243853 0.431808
vn 0.000000 0.000000 -1.000000
v 0.033972 0.242709 -0.433078
v 0.006411 0.242694 0.431842
v 0.033972 0.242699 0.431869
vn 0.000000 1.000000 0.000000
v 0.033972 -0.243862 -0.433016
vn 0.000000 0.000000 1.000000
v 0.034726 -0.243872 0.431820
v 0.006409 -0.243894 0.431849
v 0.033956 -0.243918 0.431857
v 0.006490 0.242683 -0.433061
v 0.034725 -0.243867 -0.433043
v 0.006411 -0.243871 -0.433037
v 0.006486 -0.243901 -0.433067
v 0.033972 -0.243910 -0.433089
v 0.006407 0.242666 -0.433044
v 0.006411 0.245196 0.434343
vn -1.000000 0.000000 0.000000
v 0.034719 0.245193 -0.434365
v 0.034722 0.245188 0.434356
v 0.006417 -0.245194 -0.434361
v 0.006412 -0.242325 -0.434365
v 0.006413 0.245195 -0.434357
v 0.006420 -0.245187 0.434365
v 0.034723 -0.245190 -0.434357
v 0.034722 -0.245196 0.434348
v 0.034656 0.242696 0.431854
vn 0.000000 1.000000 0.000000
v 0.034658 0.242689 -0.433081
vn 0.000000 0.000000 1.000000
vn -1.000000 0.000000 0.000000
v 0.006487 0.242656 0.431823
vn 0.000000 -1.000000 0.000000
vn 0.000000 0.000000 -1.000000
v 0.034655 0.245161 -0.434315
v 0.034648 -0.243899 0.431846
v 0.006488 -0.243878 0.431817
v 0.034649 -0.243905 -0.433062
v 0.034652 0.245165 0.434312
v 0.006487 0.245158 0.434325
vn 1.000000 0.000000 0.000000
v 0.034652 -0.245155 -0.434321
v 0.034652 -0.245149 0.434323
v 0.006480 -0.245152 -0.434318
v 0.006485 -0.242325 -0.434315
v 0.006484 0.245159 -0.434321
v 0.006478 -0.245158 0.434306
vn 1.000000 0.000000 0.000000
v -0.034715 -0.213453 0.398832
v 0.006441 -0.217820 -0.406967
v 0.006440 -0.217812 0.406974
vn -0.105280 -0.994443 0.000000
v -0.034726 -0.213439 -0.398835
v 0.006439 0.217805 0.406982
vn -0.194062 0.000000 0.980989
v -0.034726 0.213457 0.398818
vn -1.000000 0.000000 0.000000
v 0.006440 0.217817 -0.406978
vn -0.194062 0.000000 -0.980989
v -0.034723 0.213453 -0.398832
vn -0.105280 0.994443 0.000000
v 0.006458 -0.217752 0.406914
v 0.006456 -0.217744 -0.406929
v -0.034672 -0.213399 0.398779
vn 0.105280 0.994443 0.000000
v -0.034661 -0.213413 -0.398784
v 0.006458 0.217767 0.406906
vn 0.194062 0.000000 -0.980989
v -0.034662 0.213404 0.398792
vn 1.000000 0.000000 0.000000
v 0.006458 0.217756 -0.406919
vn 0.194062 0.000000 0.980989
v -0.034664 0.213408 -0.398787
vn 0.105280 -0.994443 0.000000
g mesh1-geometry-0
usemtl Material.57774a50243e5d429f3a4ea105ec3930
f 1//1 2//1 3//1
f 2//1 1//1 4//1
f 2//2 5//2 3//2
f 6//3 7//3 8//3
f 9//4 4//4 1//4
f 5//2 2//2 10//2
f 8//4 11//4 12//4
f 7//3 6//3 13//3
f 11//4 8//4 7//4
f 4//4 9//4 14//4
f 1//4 15//4 9//4
f 14//3 5//3 10//3
f 16//1 12//1 11//1
f 5//3 14//3 9//3
f 12//1 16//1 17//1
f 15//4 1//4 18//4
f 7//5 19//5 18//5
f 15//5 7//5 18//5
f 11//5 19//5 7//5
f 7//5 15//5 11//5
f 20//3 19//3 21//3
f 15//5 22//5 11//5
f 23//5 15//5 18//5
f 24//5 18//5 19//5
f 11//5 25//5 19//5
f 22//2 20//2 26//2
f 19//3 20//3 24//3
f 25//4 21//4 19//4
f 21//4 25//4 27//4
f 22//5 15//5 23//5
f 25//5 11//5 22//5
f 23//5 18//5 24//5
f 27//1 22//1 26//1
f 20//2 22//2 23//2
f 20//2 23//2 24//2
f 22//1 27//1 25//1
g mesh1-geometry-1
usemtl Material.90b00bf69165eda831fe702671104217
f 8//6 28//6 6//6
f 29//6 6//6 28//6
f 8//7 12//7 28//7
f 3//8 1//8 12//8
f 3//9 30//9 1//9
f 6//10 29//10 17//10
f 28//8 31//8 29//8
f 32//7 28//7 12//7
f 5//10 33//10 3//10
f 9//8 12//8 1//8
f 18//9 1//9 30//9
f 30//10 3//10 33//10
f 34//10 17//10 29//10
f 17//10 16//10 6//10
f 29//8 31//8 34//8
f 31//8 28//8 35//8
f 28//8 32//8 35//8
f 32//9 12//9 34//9
f 33//6 5//6 15//6
f 17//9 34//9 12//9
f 9//6 15//6 5//6
f 13//10 6//10 16//10
f 13//11 36//11 30//11
f 13//11 30//11 16//11
f 30//11 36//11 33//11
f 33//11 16//11 30//11
f 31//8 37//8 34//8
f 35//9 36//9 31//9
f 35//8 32//8 38//8
f 34//8 38//8 32//8
f 33//11 39//11 16//11
f 13//11 16//11 40//11
f 36//11 13//11 41//11
f 36//11 42//11 33//11
f 38//8 34//8 37//8
f 37//7 31//7 39//7
f 41//9 31//9 36//9
f 36//10 35//10 42//10
f 38//10 42//10 35//10
f 40//11 16//11 39//11
f 39//11 33//11 42//11
f 41//11 13//11 40//11
f 37//6 39//6 38//6
f 40//7 39//7 31//7
f 41//7 40//7 31//7
f 42//6 38//6 39//6
g mesh1-geometry-2
usemtl Material.dc7a3ca9ca091ddbf48733c3a604f557
f 5//12 1//12 3//12
f 1//12 5//12 9//12
g mesh1-geometry-3
usemtl Material.b2cdaf4394d1a4f850458878b81c7fa1
f 4//12 20//12 2//12
f 14//12 20//12 4//12
f 21//12 2//12 20//12
f 21//12 10//12 2//12
f 14//12 26//12 20//12
f 27//12 10//12 21//12
f 10//12 27//12 14//12
f 26//12 14//12 27//12
g mesh2-geometry-0
usemtl Material.57774a50243e5d429f3a4ea105ec3930
f 43//13 44//13 45//13
f 44//13 43//13 46//13
f 47//14 43//14 45//14
f 48//15 46//15 43//15
f 46//16 49//16 44//16
f 43//14 47//14 48//14
f 46//15 48//15 50//15
f 49//16 46//16 50//16
f 49//17 48//17 47//17
f 48//17 49//17 50//17
g mesh2-geometry-1
usemtl Material.90b00bf69165eda831fe702671104217
f 51//18 52//18 53//18
f 54//18 53//18 52//18
f 51//19 53//19 55//19
f 53//20 54//20 56//20
f 52//21 57//21 54//21
f 56//19 55//19 53//19
f 58//20 56//20 54//20
f 58//21 54//21 57//21
f 55//22 56//22 57//22
f 58//22 57//22 56//22
