# created by Ethan Wu and Zhan isaac Ling
mtllib model.mtl
v -0.017957 0.246381 -0.434699
v -0.017953 -0.246402 0.434699
v -0.017946 0.246402 0.434691
vn -1.000000 0.000000 0.000000
vt 0.0 1.0
vt 1.0 -0.0
vt 1.0 1.0
v -0.017953 -0.246402 -0.434695
vt 0.0 0.0
v -0.017910 0.246332 0.434655
v -0.017903 -0.246352 0.434648
v -0.017899 0.246352 -0.434640
vn 1.000000 0.000000 0.000000
v -0.017903 -0.246352 -0.434644
v 0.005625 0.246378 0.434695
vn 0.000000 0.000000 1.000000
vt 1.0 1.0
v 0.005556 0.246355 0.434650
vn 0.000000 0.000000 -1.000000
v 0.005625 0.246390 -0.434682
vn 0.000000 1.000000 0.000000
v 0.005556 0.246344 -0.434657
vn 0.000000 -1.000000 0.000000
v 0.005626 -0.246395 -0.434686
vn 0.000000 0.000000 -1.000000
vt 0.0 0.0
v 0.005555 -0.246360 -0.434651
vn 0.000000 0.000000 1.000000
vn 0.000000 -1.000000 0.000000
vn 0.000000 1.000000 0.000000
v 0.005626 -0.246395 0.434691
vt 1.0 -0.0
v 0.005555 -0.246360 0.434655
v 0.005553 -0.201786 0.365034
vn -1.000000 0.000000 0.000000
vt 0.919905 0.090458
v 0.005559 0.213102 0.365022
vt 0.919905 0.932534
v 0.005551 0.213110 -0.359616
vt 0.086317 0.932534
v 0.005566 -0.201805 -0.359593
vt 0.086317 0.090458
v 0.017899 -0.201790 0.365015
vn 0.000000 0.000000 -1.000000
vt 0.919905 0.090458
v 0.017903 0.213098 -0.359605
vn 0.000000 -1.000000 0.000000
v 0.017903 0.213098 0.365018
vt 0.919905 0.932534
v 0.005628 -0.201824 0.365054
vn 1.000000 0.000000 0.000000
v 0.005622 0.213144 0.365065
v 0.005630 0.213137 -0.359643
v 0.005615 -0.201805 -0.359666
v 0.017957 -0.201819 0.365073
vn 0.000000 0.000000 1.000000
v 0.017953 0.213148 -0.359655
vn 0.000000 1.000000 0.000000
vn 0.000000 0.000000 -1.000000
v 0.017953 0.213148 0.365069
v 0.017943 -0.217346 -0.359658
vn 0.000000 -0.999771 0.021401
vn 1.000000 0.000000 0.000000
v 0.005590 -0.217348 -0.359660
vn 0.000000 0.000000 1.000000
v 0.017914 -0.217288 -0.359601
vn 0.000000 0.999771 -0.021401
vn -1.000000 0.000000 0.000000
v 0.005590 -0.217286 -0.359599
g mesh1-geometry-0
usemtl Material.e6a6298ff53efe4150e122edc010a6a6
f 1/1/1 2/2/1 3/3/1
f 2/2/1 1/1/1 4/4/1
f 5/3/2 6/2/2 7/1/2
f 8/4/2 7/1/2 6/2/2
f 2/2/3 9/5/3 3/3/3
f 5/3/4 10/5/4 6/2/4
f 3/3/5 11/1/5 1/1/5
f 7/1/6 12/1/6 5/3/6
f 1/1/7 13/6/7 4/4/7
f 8/4/8 14/6/8 7/1/8
f 13/6/9 2/2/9 4/4/9
f 8/4/10 6/2/10 14/6/10
f 9/5/3 2/2/3 15/7/3
f 16/7/4 6/2/4 10/5/4
f 11/1/5 3/3/5 9/5/5
f 10/5/6 5/3/6 12/1/6
f 13/6/7 1/1/7 11/1/7
f 12/1/8 7/1/8 14/6/8
f 2/2/9 13/6/9 15/7/9
f 16/7/10 14/6/10 6/2/10
f 10/5/11 17/8/11 16/7/11
f 12/1/11 18/9/11 10/5/11
f 14/6/11 19/10/11 12/1/11
f 14/6/11 16/7/11 17/8/11
f 17/8/11 10/5/11 18/9/11
f 19/10/11 18/9/11 12/1/11
f 19/10/11 14/6/11 20/11/11
f 20/11/11 14/6/11 17/8/11
f 17/8/12 18/9/12 21/12/12
f 19/10/13 22/10/13 18/9/13
f 23/13/12 21/12/12 18/9/12
f 23/13/13 18/9/13 22/10/13
g mesh1-geometry-1
usemtl Material.90b00bf69165eda831fe702671104217
f 15//14 24//14 9//14
f 9//14 25//14 11//14
f 11//14 26//14 13//14
f 24//14 15//14 13//14
f 25//14 9//14 24//14
f 11//14 25//14 26//14
f 27//14 13//14 26//14
f 24//14 13//14 27//14
g mesh1-geometry-2
usemtl Material.dc7a3ca9ca091ddbf48733c3a604f557
f 28//15 25//15 24//15
f 25//16 29//16 26//16
f 29//17 27//17 26//17
f 25//15 28//15 30//15
f 24//18 31//18 28//18
f 29//16 25//16 30//16
f 31//17 27//17 29//17
f 30//19 28//19 29//19
f 31//18 24//18 32//18
f 31//19 29//19 28//19
f 27//17 31//17 32//17
g mesh1-geometry-3
usemtl Material.b2cdaf4394d1a4f850458878b81c7fa1
f 19//20 20//20 22//20
f 21//21 33//21 17//21
f 22//20 20//20 33//20
f 22//22 21//22 23//22
f 34//21 17//21 33//21
f 21//22 22//22 33//22
f 34//20 33//20 20//20
