# created by Ethan Wu and Zhan isaac Ling
mtllib model.mtl
v -0.179354 -0.258840 -0.322650
v 0.278100 -0.258840 0.325044
v -0.179359 -0.258835 0.325054
vn 0.000000 -1.000000 0.000000
v 0.278100 -0.258840 -0.322646
v 0.117995 -0.172121 0.325044
vn 0.000000 0.000000 1.000000
v -0.278096 -0.258845 -0.325050
v 0.278085 -0.172115 -0.322631
vn 0.000000 0.000000 -1.000000
vn 1.000000 0.000000 0.000000
v 0.278094 -0.172120 0.325038
v 0.083109 -0.172120 0.325044
v -0.278100 -0.258840 0.325044
v -0.179349 -0.258840 -0.325054
v 0.049403 -0.172120 -0.322645
v -0.179358 -0.172116 -0.322627
v 0.113732 -0.172118 -0.322641
v 0.257763 -0.172114 0.070292
vn 0.000000 1.000000 0.000000
v 0.050120 -0.172120 0.325044
v -0.278096 0.258834 0.325047
vn -1.000000 0.000000 0.000000
v -0.179342 0.258827 -0.325050
v -0.179336 -0.137249 -0.282096
v -0.179350 -0.172124 0.325038
v -0.128936 -0.172114 0.039873
v 0.083109 -0.172120 -0.322645
v -0.005255 -0.172114 -0.296758
v 0.113732 -0.172114 -0.292003
v 0.119224 -0.172114 0.281072
v 0.117995 -0.172114 0.281072
v -0.278094 0.258845 -0.325047
v -0.179340 0.258835 -0.322627
v -0.179336 -0.137249 0.290560
v -0.053408 -0.172114 0.243604
v -0.129674 -0.172114 0.034265
v -0.179339 0.258828 0.325034
v 0.050120 -0.172114 0.281072
v -0.005255 -0.172114 -0.255889
v 0.049403 -0.172114 -0.296758
v 0.119224 -0.172114 -0.292003
v 0.257763 -0.172114 -0.018790
v 0.119224 -0.172114 0.244958
v -0.179336 0.216672 -0.282096
v -0.005255 -0.172114 0.281072
v -0.126771 -0.172114 0.045099
v -0.128936 -0.172114 0.028656
v -0.053408 -0.172114 -0.249959
v 0.119224 -0.172114 -0.255889
v 0.195165 -0.172114 -0.018790
v 0.119224 -0.172114 0.203967
v -0.179336 0.216672 0.290560
v -0.005255 -0.172114 0.243604
v -0.053408 -0.172114 0.201620
v -0.126771 -0.172114 0.023430
v -0.053408 -0.172114 -0.217367
v -0.005255 -0.172114 -0.249959
v 0.121631 -0.172114 -0.255889
v 0.150523 -0.172114 -0.092171
v 0.195165 -0.172114 0.070292
v 0.150523 -0.172114 0.131739
v 0.119224 -0.172114 0.167853
v -0.053408 -0.172114 0.167853
v -0.087075 -0.172114 0.039873
v -0.053408 -0.172114 -0.010698
v -0.086337 -0.172114 0.034265
v -0.087075 -0.172114 0.028656
v -0.123328 -0.172114 0.018942
v -0.053408 -0.172114 -0.181253
v 0.121631 -0.172114 -0.217367
v 0.119224 -0.172114 -0.092171
v -0.123328 -0.172114 0.049586
v -0.089240 -0.172114 0.045099
v -0.089240 -0.172114 0.023430
v -0.118840 -0.172114 0.015499
v -0.053408 -0.172114 -0.137916
v 0.119224 -0.172114 -0.181253
v 0.119224 -0.172114 -0.137916
v 0.119224 -0.172114 0.131739
v -0.053408 -0.172114 0.131739
v -0.053408 -0.172114 0.047736
v -0.092683 -0.172114 0.018942
v -0.113614 -0.172114 0.013334
v -0.053408 -0.172114 -0.092171
v 0.116816 -0.172114 -0.137916
v 0.119224 -0.172114 -0.217367
v 0.083109 -0.172114 -0.051435
v 0.119224 -0.172114 -0.051435
v -0.118840 -0.172114 0.053030
v -0.092683 -0.172114 0.049586
v -0.097171 -0.172114 0.015499
v -0.108005 -0.172114 0.012596
v -0.053408 -0.172114 -0.051435
v 0.116816 -0.172114 -0.181253
v 0.083109 -0.172114 -0.092171
v 0.119224 -0.172114 0.095624
v 0.083109 -0.172114 0.131739
v -0.053408 -0.172114 0.095624
v -0.097171 -0.172114 0.053030
v -0.102397 -0.172114 0.013334
v 0.083109 -0.172114 0.095624
v -0.113614 -0.172114 0.055195
v -0.102397 -0.172114 0.055195
v -0.108005 -0.172114 0.055933
v -0.179378 -0.258807 0.324997
v 0.278062 -0.258803 0.325006
v -0.179382 -0.258803 -0.322604
vn 0.000000 1.000000 0.000000
v 0.278062 -0.258803 -0.322608
v 0.117995 -0.172173 0.325005
vn 0.000000 0.000000 -1.000000
v -0.278065 -0.258798 -0.325019
v -0.179379 -0.172178 -0.322627
vn -1.000000 0.000000 0.000000
v 0.278076 -0.172179 -0.322622
vn 0.000000 0.000000 1.000000
v 0.278068 -0.172173 0.325011
v 0.083109 -0.172174 0.325006
v -0.278062 -0.258803 0.325006
v -0.179387 -0.258803 -0.325015
v -0.179387 -0.172170 0.325011
v -0.179394 0.258810 -0.325017
v 0.049403 -0.172174 -0.322609
v 0.113732 -0.172176 -0.322612
v 0.257763 -0.172179 0.070292
vn 0.000000 -1.000000 0.000000
v 0.117995 -0.172179 0.281072
v 0.050120 -0.172174 0.325006
v -0.278065 0.258803 0.325001
vn 1.000000 0.000000 0.000000
v -0.179401 -0.137249 -0.282096
v -0.128936 -0.172179 0.039873
v -0.179396 0.258802 -0.322627
v 0.083109 -0.172174 -0.322609
v -0.005255 -0.172179 -0.296758
v 0.113732 -0.172179 -0.292003
v 0.119224 -0.172179 0.281072
v 0.083109 -0.172179 0.281072
v -0.278068 0.258792 -0.325021
v -0.179401 -0.137249 0.290560
v -0.053408 -0.172179 0.243604
v -0.129674 -0.172179 0.034265
v -0.179397 0.258808 0.325015
v 0.050120 -0.172179 0.281072
v 0.049403 -0.172179 -0.296758
v -0.005255 -0.172179 -0.255889
v 0.083109 -0.172179 -0.296758
v 0.119224 -0.172179 -0.292003
v 0.083109 -0.172179 -0.292003
v 0.257763 -0.172179 -0.018790
v 0.119224 -0.172179 0.244958
v -0.179401 0.216672 -0.282096
v -0.179401 0.034291 -0.048164
v -0.005255 -0.172179 0.281072
v -0.126771 -0.172179 0.045099
v -0.086337 -0.172179 0.034265
v -0.128936 -0.172179 0.028656
v -0.053408 -0.172179 -0.249959
v 0.119224 -0.172179 -0.255889
v 0.195165 -0.172179 -0.018790
v 0.195165 -0.172179 0.070292
v 0.119224 -0.172179 0.203967
v 0.083109 -0.172179 0.247365
v -0.179401 0.216672 0.290560
v -0.179401 0.034291 0.002823
v -0.005255 -0.172179 0.243604
v -0.053408 -0.172179 0.201620
v -0.110857 -0.172179 0.044508
v -0.087075 -0.172179 0.039873
v -0.087075 -0.172179 0.028656
v -0.126771 -0.172179 0.023430
v -0.053408 -0.172179 -0.217367
v -0.005255 -0.172179 -0.249959
v 0.049403 -0.172179 -0.255889
v 0.121631 -0.172179 -0.255889
v 0.083109 -0.172179 -0.255889
v 0.150523 -0.172179 -0.092171
v 0.150523 -0.172179 0.131739
v 0.119224 -0.172179 0.167853
v 0.083109 -0.172179 0.244958
v 0.049403 -0.172179 0.281072
v -0.179401 0.134097 -0.019643
v 0.049403 -0.172179 0.247365
v -0.005255 -0.172179 0.201620
v -0.053408 -0.172179 0.167853
v -0.111149 -0.172179 0.045535
v -0.108505 -0.172179 0.042970
v -0.053408 -0.172179 -0.010698
v -0.089240 -0.172179 0.023430
v -0.123328 -0.172179 0.018942
v -0.053408 -0.172179 -0.181253
v 0.121631 -0.172179 -0.217367
v 0.119224 -0.172179 -0.092171
v 0.083109 -0.172179 0.203967
v 0.049403 -0.172179 0.201620
v -0.005255 -0.172179 0.167853
v -0.123328 -0.172179 0.049586
v -0.109301 -0.172179 0.047102
v -0.107628 -0.172179 0.043887
v -0.089240 -0.172179 0.045099
v -0.092683 -0.172179 0.018942
v -0.118840 -0.172179 0.015499
v -0.053408 -0.172179 -0.137916
v -0.005255 -0.172179 -0.217367
v 0.119224 -0.172179 -0.181253
v 0.119224 -0.172179 -0.217367
v 0.083109 -0.172179 -0.217367
v 0.049403 -0.172179 -0.217367
v 0.119224 -0.172179 -0.137916
v 0.119224 -0.172179 -0.051435
v 0.119224 -0.172179 0.131739
v 0.083109 -0.172179 0.201620
v 0.049403 -0.172179 0.167853
v -0.005255 -0.172179 0.131739
v -0.053408 -0.172179 0.131739
v -0.108367 -0.172179 0.046483
v -0.053408 -0.172179 0.047736
v -0.097171 -0.172179 0.015499
v -0.113614 -0.172179 0.013334
v -0.053408 -0.172179 -0.092171
v -0.005255 -0.172179 -0.181253
v 0.116816 -0.172179 -0.137916
v 0.083109 -0.172179 -0.092171
v 0.119224 -0.172179 -0.010698
v 0.083109 -0.172179 -0.051435
v 0.119224 -0.172179 0.095624
v 0.083109 -0.172179 0.167853
v 0.049403 -0.172179 0.131739
v -0.118840 -0.172179 0.053030
v -0.092683 -0.172179 0.049586
v -0.005255 -0.172179 -0.010698
v -0.102397 -0.172179 0.013334
v -0.108005 -0.172179 0.012596
v -0.053408 -0.172179 -0.051435
v -0.005255 -0.172179 -0.137916
v 0.116816 -0.172179 -0.181253
v 0.083109 -0.172179 -0.181253
v 0.049403 -0.172179 -0.181253
v 0.083109 -0.172179 -0.137916
v 0.119224 -0.172179 0.047736
v 0.083109 -0.172179 -0.010698
v 0.083109 -0.172179 0.131739
v -0.005255 -0.172179 0.095624
v 0.049403 -0.172179 0.095624
v -0.053408 -0.172179 0.095624
v -0.097171 -0.172179 0.053030
v -0.005255 -0.172179 0.047736
v -0.005255 -0.172179 -0.051435
v -0.005255 -0.172179 -0.092171
v 0.049403 -0.172179 -0.092171
v 0.049403 -0.172179 -0.051435
v 0.083109 -0.172179 0.047736
v 0.049403 -0.172179 -0.010698
v 0.083109 -0.172179 0.095624
v -0.113614 -0.172179 0.055195
v -0.102397 -0.172179 0.055195
v 0.049403 -0.172179 -0.137916
v 0.049403 -0.172179 0.047736
v -0.108005 -0.172179 0.055933
v 0.083109 -0.172114 0.281072
v 0.083109 -0.172114 -0.296758
v 0.083109 -0.172114 -0.292003
v 0.083109 -0.172114 0.247365
v 0.049403 -0.172114 -0.255889
v 0.083109 -0.172114 -0.255889
v 0.083109 -0.172114 0.244958
v 0.049403 -0.172114 0.281072
v 0.049403 -0.172114 0.247365
v -0.005255 -0.172114 0.201620
v 0.083109 -0.172114 0.203967
v 0.049403 -0.172114 0.201620
v -0.005255 -0.172114 0.167853
v -0.005255 -0.172114 -0.217367
v 0.083109 -0.172114 -0.217367
v 0.049403 -0.172114 -0.217367
v 0.083109 -0.172114 0.201620
v 0.049403 -0.172114 0.167853
v -0.005255 -0.172114 0.131739
v -0.005255 -0.172114 -0.181253
v 0.083109 -0.172114 0.167853
v 0.049403 -0.172114 0.131739
v -0.005255 -0.172114 -0.010698
v -0.005255 -0.172114 -0.137916
v 0.083109 -0.172114 -0.181253
v 0.049403 -0.172114 -0.181253
v 0.083109 -0.172114 -0.137916
v 0.083109 -0.172114 -0.010698
v 0.119224 -0.172114 -0.010698
v -0.005255 -0.172114 0.095624
v 0.049403 -0.172114 0.095624
v -0.005255 -0.172114 0.047736
v -0.005255 -0.172114 -0.051435
v -0.005255 -0.172114 -0.092171
v 0.049403 -0.172114 -0.092171
v 0.049403 -0.172114 -0.051435
v 0.083109 -0.172114 0.047736
v 0.119224 -0.172114 0.047736
v 0.049403 -0.172114 -0.010698
v 0.049403 -0.172114 -0.137916
v 0.049403 -0.172114 0.047736
v -0.179336 0.034291 -0.048164
vt 1.06025 0.049311
vt 0.965365 0.11889
vt 0.827974 0.049311
vt 1.06025 0.192866
v -0.179336 0.034291 0.002823
vt 0.944684 0.11889
v -0.179336 0.134097 -0.019643
vt 0.827974 0.192866
vt 0.953796 0.159372
v -0.110857 -0.172114 0.044508
v -0.111149 -0.172114 0.045535
v -0.108505 -0.172114 0.042970
v -0.109301 -0.172114 0.047102
v -0.107628 -0.172114 0.043887
v -0.108367 -0.172114 0.046483
g mesh1-geometry-0
usemtl Material.57774a50243e5d429f3a4ea105ec3930
f 1//1 2//1 3//1
f 2//1 1//1 4//1
f 2//2 5//2 3//2
f 3//1 6//1 1//1
f 1//3 7//3 4//3
f 7//4 2//4 4//4
f 5//2 2//2 8//2
f 3//2 5//2 9//2
f 6//1 3//1 10//1
f 1//1 6//1 11//1
f 12//3 1//3 13//3
f 7//3 1//3 14//3
f 2//4 7//4 8//4
f 8//5 15//5 5//5
f 3//2 9//2 16//2
f 3//2 17//2 10//2
f 17//6 6//6 10//6
f 6//3 18//3 11//3
f 13//4 19//4 20//4
f 20//5 21//5 13//5
f 20//2 17//2 3//2
f 3//2 16//2 20//2
f 22//3 1//3 12//3
f 13//5 23//5 12//5
f 14//3 1//3 22//3
f 24//5 7//5 14//5
f 15//5 8//5 7//5
f 5//5 15//5 25//5
f 26//5 5//5 25//5
f 6//6 17//6 27//6
f 18//3 6//3 27//3
f 19//4 13//4 28//4
f 29//4 20//4 19//4
f 20//5 30//5 21//5
f 13//5 21//5 31//5
f 17//2 20//2 32//2
f 33//5 20//5 16//5
f 27//5 28//5 18//5
f 13//5 34//5 23//5
f 12//5 23//5 35//5
f 36//5 7//5 24//5
f 15//5 7//5 37//5
f 25//5 15//5 38//5
f 17//5 28//5 27//5
f 19//4 28//4 39//4
f 20//4 29//4 32//4
f 20//5 40//5 30//5
f 21//5 30//5 41//5
f 13//5 31//5 42//5
f 28//5 17//5 32//5
f 20//5 33//5 40//5
f 13//5 43//5 34//5
f 44//5 7//5 36//5
f 37//5 7//5 45//5
f 38//5 15//5 46//5
f 39//4 28//4 47//4
f 32//4 29//4 47//4
f 30//5 40//5 48//5
f 41//5 30//5 49//5
f 13//5 42//5 50//5
f 32//4 47//4 28//4
f 13//5 51//5 43//5
f 34//5 43//5 52//5
f 53//5 7//5 44//5
f 45//5 7//5 54//5
f 55//5 56//5 15//5
f 46//5 15//5 57//5
f 41//5 49//5 58//5
f 59//5 60//5 61//5
f 61//5 60//5 62//5
f 13//5 50//5 63//5
f 13//5 64//5 51//5
f 65//5 7//5 53//5
f 54//5 7//5 66//5
f 54//5 55//5 45//5
f 56//5 55//5 54//5
f 57//5 15//5 56//5
f 41//5 58//5 67//5
f 68//5 60//5 59//5
f 62//5 60//5 69//5
f 13//5 63//5 70//5
f 13//5 71//5 64//5
f 72//5 7//5 65//5
f 66//5 7//5 73//5
f 74//5 57//5 56//5
f 67//5 58//5 75//5
f 68//5 76//5 60//5
f 69//5 60//5 77//5
f 13//5 70//5 78//5
f 13//5 79//5 71//5
f 80//5 7//5 72//5
f 81//5 72//5 65//5
f 73//5 7//5 80//5
f 66//5 82//5 83//5
f 67//5 75//5 84//5
f 85//5 76//5 68//5
f 77//5 60//5 86//5
f 13//5 78//5 87//5
f 13//5 88//5 79//5
f 89//5 80//5 72//5
f 82//5 66//5 90//5
f 91//5 92//5 74//5
f 84//5 75//5 93//5
f 94//5 76//5 85//5
f 86//5 60//5 95//5
f 13//5 87//5 60//5
f 13//5 60//5 88//5
f 92//5 91//5 96//5
f 84//5 93//5 97//5
f 98//5 76//5 94//5
f 95//5 60//5 87//5
f 97//5 93//5 99//5
f 98//5 93//5 76//5
f 93//5 98//5 99//5
g mesh1-geometry-1
usemtl Material.90b00bf69165eda831fe702671104217
f 100//7 101//7 102//7
f 103//7 102//7 101//7
f 100//8 104//8 101//8
f 102//7 105//7 100//7
f 13//4 3//4 1//4
f 102//9 100//9 106//9
f 103//10 107//10 102//10
f 103//9 101//9 107//9
f 108//8 101//8 104//8
f 109//8 104//8 100//8
f 110//7 100//7 105//7
f 111//7 105//7 102//7
f 3//4 13//4 20//4
f 112//9 106//9 100//9
f 1//4 18//4 13//4
f 106//9 113//9 102//9
f 13//10 102//10 114//10
f 115//10 102//10 107//10
f 108//9 107//9 101//9
f 104//11 116//11 108//11
f 104//11 109//11 117//11
f 118//8 109//8 100//8
f 110//8 119//8 100//8
f 110//12 105//12 119//12
f 111//10 113//10 105//10
f 18//4 1//4 11//4
f 111//9 102//9 113//9
f 112//9 120//9 106//9
f 106//11 121//11 112//11
f 100//8 119//8 112//8
f 112//8 118//8 100//8
f 13//4 18//4 28//4
f 122//9 113//9 106//9
f 114//10 102//10 123//10
f 114//11 124//11 106//11
f 123//10 102//10 115//10
f 115//11 107//11 125//11
f 107//11 108//11 116//11
f 126//11 116//11 104//11
f 127//11 117//11 109//11
f 126//11 104//11 117//11
f 109//11 118//11 127//11
f 128//12 119//12 105//12
f 128//10 105//10 113//10
f 122//9 106//9 120//9
f 120//9 112//9 129//9
f 121//11 130//11 112//11
f 131//11 121//11 106//11
f 132//8 112//8 119//8
f 118//11 112//11 133//11
f 113//11 122//11 128//11
f 114//11 123//11 134//11
f 124//11 135//11 106//11
f 134//11 124//11 114//11
f 123//11 115//11 136//11
f 125//11 107//11 137//11
f 125//11 138//11 115//11
f 139//11 107//11 116//11
f 140//11 116//11 126//11
f 127//11 140//11 117//11
f 126//11 117//11 140//11
f 133//11 127//11 118//11
f 128//11 122//11 119//11
f 141//9 122//9 120//9
f 132//9 129//9 112//9
f 129//9 142//9 120//9
f 130//11 143//11 112//11
f 144//11 130//11 121//11
f 131//11 145//11 121//11
f 146//11 131//11 106//11
f 132//11 119//11 122//11
f 143//11 133//11 112//11
f 136//11 134//11 123//11
f 135//11 147//11 106//11
f 124//11 134//11 135//11
f 136//11 115//11 138//11
f 137//11 107//11 148//11
f 149//11 107//11 139//11
f 116//11 150//11 139//11
f 151//11 116//11 140//11
f 152//11 140//11 127//11
f 127//11 133//11 152//11
f 153//9 122//9 141//9
f 141//9 120//9 142//9
f 153//9 129//9 132//9
f 142//9 129//9 154//9
f 155//11 143//11 130//11
f 156//11 130//11 144//11
f 121//11 157//11 144//11
f 145//11 158//11 121//11
f 159//11 145//11 131//11
f 146//11 159//11 131//11
f 160//11 146//11 106//11
f 122//9 153//9 132//9
f 136//11 138//11 134//11
f 147//11 161//11 106//11
f 162//11 147//11 135//11
f 163//11 135//11 134//11
f 148//11 107//11 164//11
f 148//11 165//11 137//11
f 138//11 137//11 165//11
f 166//11 107//11 149//11
f 149//11 139//11 150//11
f 116//11 167//11 150//11
f 168//11 116//11 151//11
f 140//11 169//11 151//11
f 169//11 140//11 152//11
f 170//11 152//11 133//11
f 141//9 171//9 153//9
f 171//9 141//9 142//9
f 153//9 154//9 129//9
f 142//9 154//9 171//9
f 155//11 172//11 143//11
f 155//11 130//11 173//11
f 156//11 173//11 130//11
f 174//11 156//11 144//11
f 157//11 175//11 144//11
f 176//11 157//11 121//11
f 158//11 176//11 121//11
f 145//11 177//11 158//11
f 159//11 177//11 145//11
f 178//11 159//11 146//11
f 160//11 178//11 146//11
f 179//11 160//11 106//11
f 170//11 143//11 172//11
f 134//11 138//11 163//11
f 161//11 180//11 106//11
f 147//11 162//11 161//11
f 135//11 163//11 162//11
f 164//11 107//11 181//11
f 165//11 163//11 138//11
f 182//11 107//11 166//11
f 149//11 150//11 166//11
f 166//11 150//11 167//11
f 167//11 116//11 168//11
f 151//11 183//11 168//11
f 183//11 151//11 169//11
f 152//11 172//11 169//11
f 172//11 152//11 170//11
f 171//9 154//9 153//9
f 172//11 155//11 184//11
f 173//11 184//11 155//11
f 173//11 156//11 185//11
f 174//11 185//11 156//11
f 186//11 174//11 144//11
f 175//11 187//11 144//11
f 157//11 188//11 175//11
f 176//11 188//11 157//11
f 176//11 158//11 188//11
f 158//11 177//11 189//11
f 178//11 177//11 159//11
f 190//11 178//11 160//11
f 179//11 190//11 160//11
f 191//11 179//11 106//11
f 180//11 192//11 106//11
f 161//11 193//11 180//11
f 193//11 161//11 162//11
f 162//11 163//11 193//11
f 181//11 107//11 194//11
f 181//11 195//11 164//11
f 165//11 164//11 196//11
f 163//11 165//11 197//11
f 198//11 107//11 182//11
f 182//11 166//11 199//11
f 167//11 200//11 166//11
f 167//11 168//11 200//11
f 201//11 168//11 183//11
f 183//11 169//11 184//11
f 184//11 169//11 172//11
f 184//11 173//11 202//11
f 185//11 202//11 173//11
f 185//11 174//11 203//11
f 204//11 174//11 186//11
f 186//11 144//11 187//11
f 187//11 175//11 205//11
f 188//11 205//11 175//11
f 158//11 189//11 188//11
f 177//11 206//11 189//11
f 190//11 177//11 178//11
f 207//11 190//11 179//11
f 191//11 207//11 179//11
f 208//11 191//11 106//11
f 192//11 209//11 106//11
f 180//11 210//11 192//11
f 210//11 180//11 193//11
f 197//11 193//11 163//11
f 194//11 107//11 211//11
f 181//11 194//11 195//11
f 196//11 164//11 195//11
f 196//11 197//11 165//11
f 211//11 107//11 198//11
f 182//11 212//11 198//11
f 199//11 166//11 213//11
f 199//11 214//11 182//11
f 215//11 166//11 200//11
f 168//11 216//11 200//11
f 216//11 168//11 201//11
f 201//11 183//11 184//11
f 202//11 216//11 184//11
f 202//11 185//11 217//11
f 204//11 203//11 174//11
f 203//11 217//11 185//11
f 218//11 204//11 186//11
f 187//11 189//11 186//11
f 205//11 189//11 187//11
f 188//11 189//11 205//11
f 189//11 206//11 219//11
f 177//11 220//11 206//11
f 207//11 177//11 190//11
f 221//11 207//11 191//11
f 208//11 221//11 191//11
f 222//11 208//11 106//11
f 209//11 223//11 106//11
f 192//11 224//11 209//11
f 224//11 192//11 210//11
f 193//11 197//11 210//11
f 194//11 211//11 225//11
f 194//11 225//11 195//11
f 196//11 195//11 226//11
f 197//11 196//11 227//11
f 228//11 198//11 212//11
f 212//11 182//11 214//11
f 213//11 166//11 229//11
f 213//11 230//11 199//11
f 214//11 199//11 230//11
f 229//11 166//11 215//11
f 200//11 231//11 215//11
f 231//11 200//11 216//11
f 201//11 184//11 216//11
f 216//11 202//11 231//11
f 217//11 231//11 202//11
f 203//11 204//11 232//11
f 217//11 203//11 233//11
f 234//11 204//11 218//11
f 186//11 235//11 218//11
f 189//11 219//11 186//11
f 219//11 206//11 235//11
f 236//11 206//11 220//11
f 220//11 177//11 237//11
f 221//11 177//11 207//11
f 222//11 221//11 208//11
f 177//11 222//11 106//11
f 223//11 177//11 106//11
f 209//11 238//11 223//11
f 238//11 209//11 224//11
f 210//11 227//11 224//11
f 227//11 210//11 197//11
f 211//11 228//11 225//11
f 226//11 195//11 225//11
f 226//11 227//11 196//11
f 212//11 239//11 228//11
f 214//11 240//11 212//11
f 229//11 241//11 213//11
f 230//11 213//11 241//11
f 230//11 242//11 214//11
f 215//11 243//11 229//11
f 243//11 215//11 231//11
f 231//11 217//11 243//11
f 234//11 232//11 204//11
f 232//11 233//11 203//11
f 233//11 243//11 217//11
f 244//11 234//11 218//11
f 218//11 235//11 244//11
f 219//11 235//11 186//11
f 235//11 206//11 245//11
f 206//11 236//11 234//11
f 220//11 242//11 236//11
f 223//11 237//11 177//11
f 237//11 240//11 220//11
f 222//11 177//11 221//11
f 237//11 223//11 238//11
f 224//11 246//11 238//11
f 246//11 224//11 227//11
f 226//11 225//11 228//11
f 227//11 226//11 246//11
f 246//11 228//11 239//11
f 239//11 212//11 240//11
f 240//11 214//11 242//11
f 241//11 229//11 243//11
f 241//11 247//11 230//11
f 242//11 230//11 247//11
f 232//11 234//11 236//11
f 233//11 232//11 247//11
f 243//11 233//11 241//11
f 248//11 234//11 244//11
f 235//11 245//11 244//11
f 206//11 234//11 245//11
f 247//11 236//11 242//11
f 242//11 220//11 240//11
f 240//11 237//11 239//11
f 238//11 239//11 237//11
f 239//11 238//11 246//11
f 228//11 246//11 226//11
f 247//11 241//11 233//11
f 236//11 247//11 232//11
f 248//11 245//11 234//11
f 248//11 244//11 245//11
g mesh1-geometry-2
usemtl Material.dc7a3ca9ca091ddbf48733c3a604f557
f 26//5 9//5 5//5
f 9//5 26//5 249//5
f 249//5 16//5 9//5
f 35//5 22//5 12//5
f 250//5 14//5 22//5
f 14//5 251//5 24//5
f 26//5 38//5 249//5
f 38//5 26//5 25//5
f 16//5 249//5 33//5
f 22//5 35//5 250//5
f 34//5 35//5 23//5
f 251//5 14//5 250//5
f 249//5 38//5 252//5
f 252//5 33//5 249//5
f 35//5 251//5 250//5
f 35//5 34//5 253//5
f 36//5 254//5 44//5
f 254//5 36//5 251//5
f 46//5 255//5 38//5
f 252//5 38//5 255//5
f 33//5 252//5 256//5
f 40//5 257//5 48//5
f 258//5 30//5 48//5
f 30//5 258//5 49//5
f 257//5 40//5 256//5
f 253//5 251//5 35//5
f 51//5 52//5 43//5
f 52//5 253//5 34//5
f 251//5 253//5 254//5
f 57//5 259//5 46//5
f 255//5 46//5 259//5
f 255//5 257//5 252//5
f 256//5 252//5 257//5
f 260//5 48//5 257//5
f 48//5 260//5 258//5
f 261//5 49//5 258//5
f 49//5 261//5 58//5
f 64//5 262//5 51//5
f 52//5 51//5 262//5
f 262//5 253//5 52//5
f 53//5 81//5 65//5
f 263//5 53//5 254//5
f 264//5 254//5 253//5
f 259//5 57//5 265//5
f 260//5 255//5 259//5
f 257//5 255//5 260//5
f 266//5 258//5 260//5
f 258//5 266//5 261//5
f 267//5 58//5 261//5
f 71//5 268//5 64//5
f 262//5 64//5 268//5
f 253//5 262//5 264//5
f 81//5 53//5 263//5
f 254//5 264//5 263//5
f 73//5 90//5 66//5
f 74//5 269//5 57//5
f 265//5 57//5 269//5
f 260//5 259//5 265//5
f 260//5 269//5 266//5
f 270//5 261//5 266//5
f 58//5 267//5 75//5
f 261//5 270//5 267//5
f 76//5 271//5 60//5
f 79//5 272//5 71//5
f 268//5 71//5 272//5
f 268//5 264//5 262//5
f 81//5 89//5 72//5
f 273//5 81//5 263//5
f 274//5 263//5 264//5
f 90//5 73//5 275//5
f 83//5 276//5 277//5
f 276//5 83//5 82//5
f 269//5 74//5 92//5
f 269//5 260//5 265//5
f 92//5 266//5 269//5
f 266//5 92//5 270//5
f 278//5 75//5 267//5
f 279//5 267//5 270//5
f 271//5 76//5 280//5
f 281//5 60//5 271//5
f 88//5 282//5 79//5
f 272//5 79//5 282//5
f 272//5 274//5 268//5
f 264//5 268//5 274//5
f 89//5 275//5 80//5
f 89//5 81//5 273//5
f 263//5 274//5 273//5
f 275//5 283//5 90//5
f 90//5 284//5 82//5
f 277//5 285//5 286//5
f 285//5 277//5 276//5
f 82//5 287//5 276//5
f 286//5 96//5 91//5
f 96//5 270//5 92//5
f 75//5 278//5 93//5
f 267//5 279//5 278//5
f 270//5 96//5 279//5
f 93//5 280//5 76//5
f 280//5 287//5 271//5
f 60//5 281//5 88//5
f 271//5 284//5 281//5
f 282//5 88//5 281//5
f 282//5 288//5 272//5
f 274//5 272//5 288//5
f 275//5 89//5 273//5
f 288//5 273//5 274//5
f 283//5 275//5 288//5
f 284//5 90//5 283//5
f 287//5 82//5 284//5
f 96//5 286//5 285//5
f 276//5 289//5 285//5
f 289//5 276//5 287//5
f 280//5 93//5 278//5
f 289//5 278//5 279//5
f 285//5 279//5 96//5
f 287//5 280//5 289//5
f 284//5 271//5 287//5
f 283//5 281//5 284//5
f 281//5 283//5 282//5
f 288//5 282//5 283//5
f 273//5 288//5 275//5
f 279//5 285//5 289//5
f 278//5 289//5 280//5
g mesh1-geometry-3
usemtl Material.36b0a13b8480429cb3f1544365a72b6c
f 19/1/4 290/2/4 29/3/4
f 290/2/4 19/1/4 39/4/4
f 291/5/4 29/3/4 290/2/4
f 47/6/4 292/7/4 39/4/4
f 290/2/4 39/4/4 292/7/4
f 29/3/4 291/5/4 47/6/4
f 292/7/4 291/5/4 290/2/4
f 47/6/4 291/5/4 292/7/4
g mesh1-geometry-4
usemtl Material.1a9b9f2ffc3bd045e8f97d5062c1c924
f 21//5 61//5 31//5
f 41//5 293//5 21//5
f 21//5 59//5 61//5
f 31//5 61//5 62//5
f 31//5 62//5 42//5
f 41//5 294//5 293//5
f 21//5 293//5 295//5
f 21//5 295//5 59//5
f 42//5 62//5 69//5
f 42//5 69//5 50//5
f 41//5 296//5 294//5
f 294//5 297//5 293//5
f 293//5 297//5 295//5
f 297//5 59//5 295//5
f 50//5 69//5 77//5
f 50//5 77//5 63//5
f 296//5 41//5 67//5
f 298//5 294//5 296//5
f 294//5 298//5 297//5
f 297//5 68//5 59//5
f 63//5 77//5 86//5
f 63//5 86//5 70//5
f 67//5 68//5 296//5
f 296//5 68//5 298//5
f 298//5 68//5 297//5
f 70//5 86//5 95//5
f 70//5 95//5 78//5
f 84//5 94//5 67//5
f 67//5 85//5 68//5
f 78//5 95//5 87//5
f 97//5 94//5 84//5
f 67//5 94//5 85//5
f 97//5 98//5 94//5
f 98//5 97//5 99//5
g mesh1-geometry-5
usemtl Material.efc39ebbb3cc1048a02a4c783fdc17fc
f 37//5 55//5 15//5
f 55//5 37//5 45//5
f 83//5 54//5 66//5
f 54//5 74//5 56//5
f 277//5 54//5 83//5
f 74//5 54//5 91//5
f 286//5 54//5 277//5
f 91//5 54//5 286//5
