# created by Ethan Wu and Zhan isaac Ling
mtllib model.mtl
v -0.244574 -0.231585 -0.064846
v -0.244579 -0.231580 0.066223
v -0.253212 -0.231571 0.000688
vn 0.000000 -1.000000 0.000000
v -0.219283 -0.231582 0.127291
v -0.253143 -0.231548 0.000688
v -0.244521 -0.231539 0.066207
v -0.244525 -0.231534 -0.064833
vn 0.000000 1.000000 0.000000
v -0.219232 -0.231538 0.127262
v -0.253143 -0.206871 0.000688
vn 1.000000 0.000000 0.000000
vn 0.965926 0.000000 -0.258819
v -0.244525 -0.206885 -0.064833
vn 0.965926 0.000000 0.258819
v -0.219280 -0.231585 -0.125914
v -0.219235 -0.231534 -0.125888
v -0.244521 -0.206880 0.066207
vn 0.866025 0.000000 -0.500000
v -0.219235 -0.206885 -0.125888
vn 0.866025 0.000000 0.500000
v -0.179041 -0.231585 0.179729
v -0.179004 -0.231534 0.179693
v -0.219240 -0.206890 0.127266
vn 0.000000 -1.000000 0.000000
v -0.179003 -0.206882 -0.178315
vn 0.707107 0.000000 0.707107
v -0.179041 -0.231585 -0.178354
v -0.179004 -0.231534 -0.178317
v -0.189104 -0.206885 0.166530
vn 0.793353 0.000000 -0.608761
vn 0.707107 0.000000 -0.707107
v -0.126599 -0.231589 -0.218589
v -0.126578 -0.231531 -0.218551
v -0.179004 -0.206885 0.179693
vn 0.500000 0.000000 0.866025
v -0.126603 -0.231580 0.219972
v -0.126573 -0.231539 0.219919
v -0.126578 -0.206889 0.219927
vn 0.500000 0.000000 -0.866025
v -0.126574 -0.206881 -0.218545
v -0.065533 -0.231585 0.245262
v -0.065520 -0.231534 0.245213
v -0.152796 -0.206892 -0.198439
vn 0.608761 0.000000 0.793353
v -0.065520 -0.231534 -0.243838
vn 0.258819 0.000000 0.965926
v -0.065533 -0.231585 -0.243888
v -0.065520 -0.206885 0.245213
vn 0.258819 0.000000 -0.965926
v -0.065520 -0.206885 -0.243838
v 0.000000 -0.231589 0.253887
v 0.000000 -0.231531 0.253843
v 0.000000 -0.206885 0.253839
vn 0.000000 0.000000 -1.000000
v 0.000000 -0.231539 -0.252459
vn 0.000000 0.000000 1.000000
v 0.000000 -0.231580 -0.252520
v 0.000000 -0.206885 -0.252464
v 0.065533 -0.231589 -0.243884
v 0.065521 -0.231531 -0.243842
v 0.065521 -0.206889 0.245217
vn -0.258819 0.000000 -0.965926
vn -0.258819 0.000000 0.965926
v 0.065535 -0.231580 0.245267
v 0.065519 -0.231539 0.245209
v 0.065521 -0.206885 -0.243838
v 0.126602 -0.231585 0.219968
v 0.126576 -0.231534 0.219923
v 0.126574 -0.206881 0.219920
vn -0.500000 0.000000 -0.866025
v 0.126576 -0.231534 -0.218548
vn -0.500000 0.000000 0.866025
v 0.126602 -0.231585 -0.218593
v 0.078189 -0.206896 0.232444
v 0.126578 -0.206889 -0.218551
v 0.179038 -0.231590 0.179725
v 0.179009 -0.231529 0.179697
v 0.179000 -0.206873 0.179687
vn -0.707107 0.000000 -0.707107
v 0.179001 -0.231541 -0.178313
vn -0.707107 0.000000 0.707107
v 0.179045 -0.231578 -0.178357
v 0.152799 -0.206894 0.199819
vn -0.608761 0.000000 -0.793353
v 0.179012 -0.206892 -0.178324
v 0.219280 -0.231585 0.127289
v 0.219236 -0.231534 0.127263
vn -0.866025 0.000000 -0.500000
v 0.209136 -0.206885 -0.139050
vn -0.793353 0.000000 0.608761
v 0.219280 -0.231585 -0.125914
v 0.219236 -0.231534 -0.125888
v 0.219239 -0.206889 0.127266
v 0.219236 -0.206885 -0.125888
vn -0.866025 0.000000 0.500000
v 0.244576 -0.231585 0.066222
v 0.244526 -0.231534 0.066208
vn -0.965926 0.000000 -0.258819
v 0.244521 -0.206880 -0.064832
vn -0.965926 0.000000 0.258819
v 0.244580 -0.231580 -0.064847
v 0.244521 -0.231539 -0.064832
v 0.244526 -0.206885 0.066208
v 0.253212 -0.231571 0.000688
v 0.253143 -0.231548 0.000688
vn -1.000000 0.000000 0.000000
v 0.253143 -0.206871 0.000688
v -0.253212 -0.206848 0.000688
vn -0.965926 0.000000 0.258819
vn -1.000000 0.000000 0.000000
vt -1.05104 0.0
vt -1.12908 0.029163
vt -1.12908 0.0
v -0.244574 -0.206834 -0.064846
vn -0.965926 0.000000 -0.258819
vt -1.59271 0.0
vt -1.67075 0.029163
vt -1.67075 0.0
v -0.244579 -0.206839 0.066223
vn -0.866025 0.000000 0.500000
vt -0.435089 0.0
vt -0.513123 0.029163
vt -0.513123 0.0
vt -1.05104 0.029163
vt -1.59271 0.029163
v -0.219280 -0.206834 -0.125914
vn -0.866025 0.000000 -0.500000
vt -2.10121 0.029163
vt -2.02318 0.0
vt -2.02318 0.029163
vt -2.10121 0.0
v -0.219275 -0.206829 0.127286
vt -0.435089 0.029163
v -0.179043 -0.206837 -0.178356
vn -0.707107 0.000000 -0.707107
vt -2.39115 0.029163
vt -2.31311 0.0
vt -2.31311 0.029163
v -0.189145 -0.206834 0.166562
vn -0.707107 0.000000 0.707107
vn -0.793353 0.000000 0.608761
vt 0.213174 0.0
vt 0.193582 0.029163
vt 0.13514 0.0
vt 0.13514 0.029163
vt -2.39115 0.0
v -0.179041 -0.206834 0.179729
vt 0.213174 0.029163
vn -0.500000 0.000000 -0.866025
vt -2.44275 0.029163
vt -2.52079 0.0
vt -2.44275 0.0
v -0.126599 -0.206830 0.219964
vn -0.500000 0.000000 0.866025
vt 0.771535 0.0
vt 0.849569 0.029163
vt 0.771535 0.029163
v -0.126603 -0.206838 -0.218596
vt -2.52079 0.029163
vt 0.849569 0.0
v -0.152816 -0.206827 -0.198465
vn -0.608761 0.000000 -0.793353
vt -2.48177 0.029163
vn -0.258819 0.000000 -0.965926
vt -2.40326 0.029163
vt -2.4813 0.0
vt -2.40326 0.0
v -0.065533 -0.206834 0.245262
vn -0.258819 0.000000 0.965926
vt 1.43073 0.029163
vt 1.35269 0.0
vt 1.43073 0.0
vt 1.35269 0.029163
v -0.065533 -0.206834 -0.243888
vt -2.4813 0.029163
v 0.000000 -0.206834 0.253891
vn 0.000000 0.000000 1.000000
vt 1.83901 0.0
vt 1.91704 0.029163
vt 1.83901 0.029163
vn 0.000000 0.000000 -1.000000
vt -2.19734 0.029163
vt -2.27537 0.0
vt -2.19734 0.0
vt 1.91704 0.0
v 0.000000 -0.206834 -0.252515
vt -2.27537 0.029163
v 0.065533 -0.206830 0.245259
vn 0.258819 0.000000 0.965926
vt 2.19734 0.0
vt 2.27537 0.029163
vt 2.19734 0.029163
vn 0.258819 0.000000 -0.965926
vt -1.83901 0.029163
vt -1.91704 0.0
vt -1.83901 0.0
vt 2.27537 0.0
v 0.065534 -0.206834 -0.243888
vt -1.91704 0.029163
v 0.126603 -0.206838 0.219971
vn 0.500000 0.000000 0.866025
vt 2.40326 0.0
vt 2.4813 0.029163
vt 2.40326 0.029163
vn 0.500000 0.000000 -0.866025
vt -1.35269 0.029163
vt -1.43073 0.0
vt -1.35269 0.0
vt 2.4813 0.0
v 0.126599 -0.206830 -0.218589
vt -1.43073 0.029163
v 0.179047 -0.206846 0.179735
vn 0.707107 0.000000 0.707107
vt 2.44275 0.0
vt 2.52079 0.029163
vt 2.44275 0.029163
vn 0.707107 0.000000 -0.707107
vt -0.771535 0.029163
vt -0.849569 0.0
vt -0.771535 0.0
vt 2.52079 0.0
v 0.152813 -0.206825 0.199837
vn 0.608761 0.000000 0.793353
vt 2.48177 0.029163
v 0.179035 -0.206827 -0.178347
vt -0.849569 0.029163
vn 0.866025 0.000000 0.500000
vt 2.39115 0.0
vt 2.31311 0.029163
vt 2.31311 0.0
v 0.209177 -0.206834 -0.139081
vn 0.793353 0.000000 -0.608761
vt -0.193582 0.029163
vt -0.13514 0.0
vt -0.13514 0.029163
v 0.219277 -0.206830 0.127287
vt 2.39115 0.029163
v 0.219280 -0.206834 -0.125914
vn 0.866025 0.000000 -0.500000
vt -0.213174 0.029163
vt -0.213174 0.0
vn 0.965926 0.000000 0.258819
vt 2.10121 0.0
vt 2.02318 0.029163
vt 2.02318 0.0
v 0.244580 -0.206839 -0.064847
vn 0.965926 0.000000 -0.258819
vt 0.435089 0.029163
vt 0.513123 0.0
vt 0.513123 0.029163
v 0.244576 -0.206834 0.066222
vt 2.10121 0.029163
vt 0.435089 0.0
vn 1.000000 0.000000 0.000000
vt 1.67075 0.0
vt 1.59271 0.029163
vt 1.59271 0.0
v 0.253212 -0.206848 0.000688
vt 1.05104 0.029163
vt 1.12908 0.0
vt 1.12908 0.029163
vt 1.05104 0.0
vt 1.67075 0.029163
vn 0.000000 1.000000 0.000000
v 0.078189 -0.206823 0.232444
v 0.048165 -0.206896 -0.239113
v 0.000018 -0.206886 -0.073395
v -0.015541 -0.206896 -0.243409
vn 0.000000 -1.000000 0.000000
v 0.024685 -0.206889 -0.073398
v 0.000009 -0.206894 0.074780
v 0.024685 -0.206889 0.074773
v 0.024685 -0.145139 -0.073398
vn 0.000000 0.000000 1.000000
v -0.048164 -0.206896 0.240489
v 0.000013 -0.145141 0.074776
vn 1.000000 0.000000 0.000000
v 0.078189 -0.206896 0.232444
vn -1.000000 0.000000 0.000000
v 0.000000 -0.145145 -0.073405
v -0.078188 -0.206896 -0.231069
v 0.015542 -0.206896 0.244784
vn 0.000000 0.000000 -1.000000
v 0.108589 -0.206896 -0.218477
v 0.024692 -0.145075 0.074780
v 0.000000 -0.145073 -0.073420
v -0.000013 -0.145077 0.074801
v 0.024715 -0.145079 -0.073428
vn 0.000000 1.000000 0.000000
v 0.049376 -0.145085 -0.363628
v -0.108588 -0.206896 0.219852
v -0.012332 -0.145083 0.363622
v 0.135508 -0.206896 0.204311
v 0.024709 -0.145143 0.074797
v -0.012335 -0.145079 -0.363625
v -0.135508 -0.206896 -0.202935
v 0.049381 -0.145080 0.363630
v 0.161613 -0.206896 -0.182904
v -0.012329 0.231548 -0.363619
vn 0.000000 0.000000 1.000000
v -0.161612 -0.206896 0.184280
v 0.049374 0.231551 0.363622
vn 0.000000 0.000000 -1.000000
vn 1.000000 0.000000 0.000000
v 0.183592 -0.206896 0.162300
v 0.049364 -0.084072 0.341975
vn -1.000000 0.000000 0.000000
v 0.049368 0.231558 -0.363629
v -0.183592 -0.206896 -0.160925
v -0.012329 0.231548 0.363619
v 0.203623 -0.206896 -0.134820
v 0.049364 -0.084072 -0.355806
vn 0.000000 -1.000000 0.000000
v 0.049364 0.212330 -0.355806
v -0.203622 -0.206896 0.136196
v 0.049364 0.212330 0.341975
v 0.219165 -0.206896 0.109276
v -0.219164 -0.206896 -0.107901
v 0.231757 -0.206896 -0.077501
v -0.231757 -0.206896 0.078877
v 0.239802 -0.206896 0.048852
v -0.239801 -0.206896 -0.047477
v 0.244097 -0.206896 -0.014854
v -0.244096 -0.206896 0.016230
v -0.015541 -0.206823 -0.243409
v -0.000017 -0.206833 -0.073430
v 0.048165 -0.206823 -0.239113
v 0.024715 -0.206830 -0.073428
v -0.000008 -0.206825 0.074797
v 0.024715 -0.206830 0.074803
v -0.048164 -0.206823 0.240489
v 0.078189 -0.206823 0.232444
v -0.078188 -0.206823 -0.231069
v 0.015542 -0.206823 0.244784
v 0.108589 -0.206823 -0.218477
v 0.049425 -0.145133 -0.363651
v -0.108588 -0.206823 0.219852
v -0.012368 -0.145135 0.363658
v 0.135508 -0.206823 0.204311
v -0.012365 -0.145139 -0.363655
v -0.135508 -0.206823 -0.202935
v 0.049420 -0.145138 0.363651
v 0.161613 -0.206823 -0.182904
v -0.012371 0.231590 -0.363662
v -0.161612 -0.206823 0.184280
v 0.049427 0.231587 0.363658
v 0.183592 -0.206823 0.162300
v 0.049437 -0.084072 0.341975
v 0.049433 0.231580 -0.363651
v -0.183592 -0.206823 -0.160925
v -0.012371 0.231590 0.363662
v 0.203623 -0.206823 -0.134820
v 0.049437 -0.084072 -0.355806
vn 0.000000 1.000000 0.000000
v 0.049437 0.212330 -0.355806
v -0.203622 -0.206823 0.136196
v 0.049437 0.212330 0.341975
v 0.219165 -0.206823 0.109276
v -0.219164 -0.206823 -0.107901
v 0.231757 -0.206823 -0.077501
v -0.231757 -0.206823 0.078877
v 0.239802 -0.206823 0.048852
v -0.239801 -0.206823 -0.047477
v 0.244097 -0.206823 -0.014854
v -0.244096 -0.206823 0.016230
g mesh1-geometry-0
usemtl Material.57774a50243e5d429f3a4ea105ec3930
f 1//1 2//1 3//1
f 2//1 1//1 4//1
f 5//2 6//2 7//2
f 8//2 7//2 6//2
f 5//3 9//3 6//4
f 7//5 10//5 5//3
f 4//1 1//1 11//1
f 12//2 7//2 8//2
f 6//4 13//4 8//6
f 13//4 6//4 9//3
f 9//3 5//3 10//5
f 10//5 7//5 14//7
f 12//7 14//7 7//5
f 4//1 11//1 15//1
f 16//2 12//2 8//2
f 17//6 8//6 13//4
f 9//8 10//8 13//8
f 14//8 17//8 10//8
f 14//7 12//7 18//9
f 15//1 11//1 19//1
f 20//2 12//2 16//2
f 8//6 21//10 16//11
f 17//6 21//10 8//6
f 17//8 13//8 10//8
f 21//8 17//8 14//8
f 20//9 18//9 12//7
f 18//8 21//8 14//8
f 15//1 19//1 22//1
f 23//2 20//2 16//2
f 24//11 16//11 21//10
f 20//9 23//12 18//9
f 24//8 21//8 18//8
f 15//1 22//1 25//1
f 26//2 23//2 16//2
f 24//11 27//13 16//11
f 28//12 18//9 23//12
f 27//8 24//8 18//8
f 25//1 22//1 29//1
f 30//2 23//2 26//2
f 26//13 16//11 27//13
f 31//14 18//9 28//12
f 23//12 32//15 28//12
f 31//8 27//8 18//8
f 29//1 22//1 33//1
f 32//2 23//2 30//2
f 30//16 26//13 34//16
f 27//13 34//16 26//13
f 28//8 27//8 31//8
f 35//15 28//12 32//15
f 29//1 33//1 36//1
f 37//2 32//2 30//2
f 34//16 38//17 30//16
f 34//8 27//8 28//8
f 35//8 34//8 28//8
f 32//15 39//18 35//15
f 36//1 33//1 40//1
f 39//2 32//2 37//2
f 37//17 30//16 38//17
f 38//8 34//8 35//8
f 41//18 35//15 39//18
f 36//1 40//1 42//1
f 43//2 39//2 37//2
f 38//17 44//19 37//17
f 41//8 38//8 35//8
f 39//18 43//20 41//18
f 36//1 42//1 45//1
f 46//2 43//2 37//2
f 46//19 37//17 44//19
f 44//8 38//8 41//8
f 47//20 41//18 43//20
f 45//1 42//1 48//1
f 49//2 43//2 46//2
f 44//19 50//21 46//19
f 47//8 44//8 41//8
f 43//20 51//22 47//20
f 48//1 42//1 52//1
f 51//2 43//2 49//2
f 49//21 46//19 50//21
f 44//8 53//8 50//8
f 53//8 44//8 47//8
f 54//22 47//20 51//22
f 48//1 52//1 55//1
f 56//2 51//2 49//2
f 50//21 57//23 49//21
f 50//8 53//8 54//8
f 54//8 53//8 47//8
f 51//22 58//24 54//22
f 55//1 52//1 59//1
f 58//2 51//2 56//2
f 56//23 49//21 57//23
f 60//25 57//23 50//21
f 60//8 50//8 54//8
f 61//24 54//22 58//24
f 55//1 59//1 62//1
f 63//2 58//2 56//2
f 56//23 57//23 63//26
f 57//8 60//8 61//8
f 61//8 60//8 54//8
f 61//24 58//24 64//27
f 62//1 59//1 65//1
f 66//2 58//2 63//2
f 67//26 63//26 57//23
f 67//8 57//8 61//8
f 64//27 58//24 68//28
f 64//8 67//8 61//8
f 66//28 68//28 58//24
f 62//1 65//1 69//1
f 70//2 66//2 63//2
f 63//26 67//26 70//29
f 68//8 67//8 64//8
f 68//28 66//28 71//30
f 69//1 65//1 72//1
f 73//2 66//2 70//2
f 74//29 70//29 67//26
f 74//8 67//8 68//8
f 73//30 71//30 66//28
f 71//8 74//8 68//8
f 69//1 72//1 75//1
f 76//2 73//2 70//2
f 70//29 74//29 76//31
f 71//30 73//30 77//31
f 77//8 74//8 71//8
f 76//31 77//31 73//30
f 77//31 76//31 74//29
g mesh1-geometry-1
usemtl Material.fd405729217466f29eac93fc2fe0bd88
f 2/1/32 78/2/33 3/3/33
f 3/4/33 79/5/34 1/6/34
f 4/7/35 80/8/32 2/9/32
f 78/2/33 2/1/32 80/10/32
f 79/5/34 3/4/33 78/11/33
f 81/12/36 1/13/34 79/14/34
f 1/13/34 81/12/36 11/15/36
f 80/8/32 4/7/35 82/16/35
f 83/17/37 11/18/36 81/19/36
f 15/20/38 84/21/39 4/22/35
f 4/22/35 84/21/39 82/23/35
f 11/18/36 83/17/37 19/24/37
f 84/21/39 15/20/38 85/25/38
f 83/26/37 22/27/40 19/28/37
f 15/29/38 86/30/41 85/31/38
f 22/27/40 83/26/37 87/32/40
f 86/30/41 15/29/38 25/33/41
f 87/32/40 83/26/37 88/34/42
f 87/35/40 33/36/43 22/37/40
f 89/38/44 25/39/41 29/40/44
f 25/39/41 89/38/44 86/41/41
f 33/36/43 87/35/40 90/42/43
f 29/43/44 91/44/45 89/45/44
f 90/46/43 40/47/46 33/48/43
f 91/44/45 29/43/44 36/49/45
f 40/47/46 90/46/43 92/50/46
f 36/51/45 93/52/47 91/53/45
f 92/54/46 42/55/48 40/56/46
f 93/52/47 36/51/45 45/57/47
f 42/55/48 92/54/46 94/58/48
f 45/59/47 95/60/49 93/61/47
f 94/62/48 52/63/50 42/64/48
f 95/60/49 45/59/47 48/65/49
f 52/63/50 94/62/48 96/66/50
f 48/67/49 97/68/51 95/69/49
f 96/70/50 59/71/52 52/72/50
f 97/68/51 48/67/49 55/73/51
f 95/69/49 97/68/51 98/74/53
f 59/71/52 96/70/50 99/75/52
f 62/76/54 97/77/51 55/78/51
f 100/79/55 59/80/52 99/81/52
f 97/77/51 62/76/54 101/82/54
f 102/83/56 59/80/52 100/79/55
f 59/80/52 102/83/56 65/84/56
f 69/85/57 101/86/54 62/87/54
f 103/88/58 65/89/56 102/90/56
f 101/86/54 69/85/57 104/91/57
f 65/89/56 103/88/58 72/92/58
f 75/93/59 104/94/57 69/95/57
f 105/96/59 72/97/58 103/98/58
f 72/97/58 105/96/59 75/99/59
f 104/94/57 75/93/59 105/100/59
g mesh1-geometry-2
usemtl Material.90b00bf69165eda831fe702671104217
f 80//60 79//60 78//60
f 79//60 82//60 81//60
f 79//60 80//60 82//60
f 81//60 82//60 84//60
f 81//60 84//60 83//60
f 83//60 84//60 85//60
f 83//60 85//60 86//60
f 83//60 86//60 88//60
f 88//60 86//60 87//60
f 87//60 86//60 89//60
f 87//60 89//60 90//60
f 90//60 89//60 91//60
f 90//60 91//60 92//60
f 92//60 91//60 93//60
f 92//60 93//60 94//60
f 95//60 106//60 93//60
f 94//60 93//60 106//60
f 96//60 106//60 95//60
f 94//60 106//60 96//60
f 96//60 95//60 98//60
f 99//60 98//60 97//60
f 96//60 98//60 99//60
f 99//60 97//60 101//60
f 99//60 101//60 100//60
f 100//60 101//60 102//60
f 102//60 101//60 104//60
f 102//60 104//60 103//60
f 103//60 104//60 105//60
g mesh2-geometry-0
usemtl Material.57774a50243e5d429f3a4ea105ec3930
f 107//61 108//61 109//61
f 108//61 107//61 110//61
f 111//61 109//61 108//61
f 110//61 107//61 112//61
f 113//62 108//62 110//62
f 114//61 109//61 111//61
f 108//63 115//63 111//63
f 116//61 112//61 107//61
f 112//64 113//64 110//64
f 108//62 113//62 117//62
f 114//61 118//61 109//61
f 114//61 111//61 119//61
f 115//63 108//63 117//63
f 115//65 112//65 111//65
f 119//61 112//61 116//61
f 116//61 107//61 120//61
f 113//64 112//64 121//64
f 113//61 115//61 117//61
f 122//66 123//66 124//66
f 124//66 125//66 122//66
f 126//61 118//61 114//61
f 119//61 111//61 112//61
f 122//66 127//66 123//66
f 112//65 115//65 121//65
f 116//61 120//61 128//61
f 115//61 113//61 129//61
f 121//66 124//66 123//66
f 121//66 125//66 124//66
f 125//66 130//66 122//66
f 126//61 131//61 118//61
f 132//66 123//66 127//66
f 127//66 122//66 130//66
f 121//66 123//66 132//66
f 128//61 120//61 133//61
f 125//66 121//66 132//66
f 130//67 125//67 134//67
f 135//61 131//61 126//61
f 132//68 127//68 136//68
f 130//69 134//69 127//69
f 128//61 133//61 137//61
f 125//70 132//70 138//70
f 139//67 134//67 125//67
f 135//61 140//61 131//61
f 141//68 136//68 127//68
f 136//70 138//70 132//70
f 141//69 127//69 134//69
f 137//61 133//61 142//61
f 143//70 125//70 138//70
f 139//71 136//71 134//71
f 125//70 144//70 139//70
f 145//61 140//61 135//61
f 141//71 134//71 136//71
f 138//70 136//70 146//70
f 137//61 142//61 147//61
f 144//70 125//70 143//70
f 139//70 146//70 136//70
f 144//70 146//70 139//70
f 145//61 148//61 140//61
f 147//61 142//61 149//61
f 150//61 148//61 145//61
f 147//61 149//61 151//61
f 150//61 152//61 148//61
f 151//61 149//61 153//61
f 152//61 150//61 154//61
g mesh2-geometry-1
usemtl Material.90b00bf69165eda831fe702671104217
f 155//66 156//66 157//66
f 158//66 157//66 156//66
f 156//66 155//66 159//66
f 160//66 157//66 158//66
f 158//68 156//68 124//68
f 159//66 155//66 161//66
f 159//70 123//70 156//70
f 157//66 160//66 162//66
f 158//69 124//69 160//69
f 122//68 124//68 156//68
f 155//66 163//66 161//66
f 164//66 159//66 161//66
f 117//70 156//70 123//70
f 159//67 160//67 123//67
f 162//66 160//66 164//66
f 165//66 157//66 162//66
f 129//69 160//69 124//69
f 117//61 166//61 113//61
f 161//66 163//66 167//66
f 160//66 159//66 164//66
f 115//61 168//61 117//61
f 129//67 123//67 160//67
f 169//66 165//66 162//66
f 113//61 166//61 129//61
f 117//61 170//61 166//61
f 163//66 171//66 167//66
f 168//61 115//61 172//61
f 170//61 117//61 168//61
f 172//61 115//61 129//61
f 173//66 165//66 169//66
f 172//61 129//61 166//61
f 174//65 166//65 170//65
f 167//66 171//66 175//66
f 176//62 168//62 172//62
f 168//64 174//64 170//64
f 177//66 173//66 169//66
f 178//63 172//63 166//63
f 166//65 174//65 179//65
f 171//66 180//66 175//66
f 168//62 176//62 181//62
f 172//63 178//63 176//63
f 174//64 168//64 181//64
f 182//66 173//66 177//66
f 178//63 166//63 183//63
f 174//72 176//72 179//72
f 179//63 184//63 166//63
f 175//66 180//66 185//66
f 176//72 174//72 181//72
f 186//63 176//63 178//63
f 187//66 182//66 177//66
f 183//63 166//63 184//63
f 176//63 186//63 179//63
f 179//63 186//63 184//63
f 180//66 188//66 185//66
f 189//66 182//66 187//66
f 185//66 188//66 190//66
f 191//66 189//66 187//66
f 188//66 192//66 190//66
f 193//66 189//66 191//66
f 194//66 190//66 192//66
g mesh2-geometry-2
usemtl Material.b2cdaf4394d1a4f850458878b81c7fa1
f 183//63 186//63 178//63
f 138//70 146//70 143//70
f 186//63 183//63 184//63
f 144//70 143//70 146//70
