# created by Ethan Wu and Zhan isaac Ling
mtllib model.mtl
v -0.261600 -0.202069 0.121355
v -0.179731 0.267891 0.184195
v -0.179736 -0.202051 0.184205
vn 0.793418 0.000000 -0.608677
vn 0.382782 0.000000 -0.923839
vt 0.103413 0.020753
vt 0.0763 0.144191
vt 0.0763 0.020753
v -0.261606 0.267895 0.121360
vt 0.103413 0.144191
v -0.077409 -0.202057 0.197680
vn -0.130421 0.000000 -0.991459
vt -0.106684 0.144191
vt -0.133797 0.020753
vt -0.106684 0.020753
v -0.281345 -0.202062 0.073680
vn 0.000000 1.000000 0.000000
vt 0.261081 0.238839
vt 0.247525 0.275876
vt 0.247525 0.26232
vn 0.923920 0.000000 -0.382585
vt 0.275876 0.020753
vt 0.26232 0.144191
vt 0.26232 0.020753
v -0.196955 0.267902 0.225762
vt 0.252731 0.230489
v -0.077409 0.267895 0.197680
vt -0.133797 0.144191
v -0.287607 -0.202060 -0.076319
vt 0.261081 0.312913
vt 0.284562 0.225282
v -0.301088 -0.202062 0.026003
vt 0.247525 0.289433
v -0.281340 0.267872 0.073678
vt 0.275876 0.144191
v -0.345707 0.267898 0.031873
vt 0.236118 0.292489
v -0.071540 0.267895 0.242298
vt 0.281506 0.213876
v -0.029731 -0.202057 0.177936
vn -0.382585 0.000000 -0.923920
vt -0.284562 0.144191
vt -0.298119 0.020753
vt -0.284562 0.020753
v -0.224772 -0.202057 -0.158194
vt 0.284562 0.32647
vn 0.991459 0.000000 -0.130421
vt 0.289433 0.020753
v -0.321514 0.267890 0.090314
vt 0.236118 0.275876
v -0.301092 0.267895 0.026004
v -0.196960 -0.267892 0.225775
vn -0.382782 0.000000 0.923839
vn 0.130421 0.000000 0.991459
vt 0.103627 0.003472
vt 0.136853 0.144191
vt 0.103627 0.144191
v -0.013100 0.267895 0.218099
vt 0.298119 0.213876
v -0.029731 0.267895 0.177936
vt -0.298119 0.144191
vt 0.298119 0.225282
vn 0.923839 0.000000 0.382782
vt 0.401532 0.020753
vt 0.374418 0.144191
vt 0.374418 0.020753
v -0.224772 0.267895 -0.158194
vn 0.608677 0.000000 0.793418
vt 0.409673 0.144191
vt 0.38256 0.020753
vt 0.409673 0.020753
vt 0.289433 0.144191
v -0.297317 0.267882 0.148756
vt 0.236118 0.259263
v -0.321514 -0.267891 0.090314
vn -0.991459 0.000000 0.130421
vn -0.923920 0.000000 0.382585
vt -0.292489 0.144191
vt -0.275876 0.003472
vt -0.275876 0.144191
v -0.329188 0.267891 -0.093547
vt 0.252731 0.321263
v -0.071540 -0.267896 0.242298
vt 0.136853 0.003472
vn -0.793418 0.000000 0.608677
vt -0.106469 0.144191
vt -0.073243 0.003472
vt -0.073243 0.144191
vn 0.382585 0.000000 0.923920
vt 0.281506 0.003472
vt 0.298119 0.144191
vt 0.281506 0.144191
v 0.017947 -0.202057 0.158194
vn -0.608677 0.000000 -0.793418
vt -0.311675 0.020753
v -0.177094 -0.202057 -0.177936
vt 0.298119 0.32647
v -0.287614 0.267899 -0.076322
vt 0.401532 0.144191
vt 0.38256 0.144191
v -0.177092 0.267890 -0.177932
vt 0.284562 0.020753
vt 0.284562 0.144191
v -0.297315 -0.267891 0.148754
vt -0.259263 0.003472
vt -0.259263 0.144191
v -0.345717 -0.267883 0.031874
vt -0.292489 0.003472
vn -0.923839 0.000000 -0.382782
vt -0.404588 0.144191
vt -0.371362 0.003472
vt -0.371362 0.144191
v -0.252164 -0.267896 -0.193899
vn 0.000000 -1.000000 0.000000
vt -0.252731 0.230489
vt -0.281506 0.337876
vt -0.281506 0.213876
vt -0.106469 0.003472
v -0.013100 -0.267896 0.218099
vt 0.298119 0.003472
v 0.045337 0.267898 0.193897
vt 0.314732 0.213876
v 0.017944 0.267890 0.158190
vt -0.311675 0.144191
vt 0.311675 0.225282
vt 0.298119 0.020753
v -0.252164 0.267895 -0.193899
vt 0.281506 0.337876
v -0.193724 0.267898 -0.218096
vt 0.298119 0.337876
v -0.329177 -0.267902 -0.093543
vt -0.252731 0.321263
vt -0.236118 0.275876
vt -0.236118 0.292489
vt -0.236118 0.259263
vt -0.404588 0.003472
v -0.193725 -0.267896 -0.218099
vt -0.298119 0.337876
vt -0.298119 0.213876
vn 0.608677 0.000000 0.793418
vt 0.314732 0.144191
v 0.080782 -0.202060 0.076319
vn -0.923839 0.000000 -0.382782
vt -0.38256 0.144191
vt -0.409673 0.020753
vt -0.38256 0.020753
v -0.129416 -0.202057 -0.197679
vt 0.311675 0.32647
v -0.129416 0.267895 -0.197679
vt 0.311675 0.144191
vn -0.608677 0.000000 -0.793418
vt -0.412729 0.003472
vt -0.379503 0.144191
vt -0.412729 0.144191
vt -0.379503 0.003472
vt -0.281506 0.144191
vt -0.298119 0.003472
vt -0.281506 0.003472
v -0.135285 -0.267896 -0.242298
vt -0.314732 0.337876
v 0.045339 -0.267896 0.193899
vt 0.314732 0.003472
v 0.080789 0.267899 0.076322
vt 0.335156 0.238839
vt -0.409673 0.144191
vt 0.311675 0.020753
v -0.135285 0.267895 -0.242298
vt 0.314732 0.337876
vt -0.314732 0.003472
vt -0.314732 0.213876
v 0.122364 0.267889 0.093548
vn 0.923839 0.000000 0.382782
vt 0.379503 0.003472
vt 0.412729 0.144191
vt 0.379503 0.144191
vt 0.343506 0.230489
v 0.094267 0.267895 -0.026004
vt -0.401532 0.144191
vt -0.374418 0.020753
vt -0.374418 0.144191
v -0.027091 -0.202053 -0.184202
vt 0.335156 0.312913
v -0.027094 0.267891 -0.184194
vn -0.382782 0.000000 0.923839
vt 0.106684 0.020753
vt 0.133797 0.144191
vt 0.106684 0.144191
vt -0.314732 0.144191
v -0.009866 -0.267896 -0.225772
vt -0.343506 0.321263
v 0.122363 -0.267891 0.093548
vt 0.412729 0.003472
vt 0.348712 0.26232
v 0.094263 -0.202062 -0.026003
vt -0.401532 0.020753
vt 0.133797 0.020753
v -0.009868 0.267899 -0.225768
vt 0.343506 0.321263
vn 0.382782 0.000000 -0.923839
vt -0.103627 0.144191
vt -0.136853 0.003472
vt -0.103627 0.003472
vt -0.343506 0.230489
v 0.125218 -0.213009 0.071914
vn 0.991431 0.000000 0.130632
vt 0.371362 0.003472
vt 0.377094 0.017885
vt 0.371362 0.144191
v 0.138887 0.267892 -0.031873
vt 0.360119 0.259263
v 0.074520 0.267890 -0.073680
vt -0.26232 0.020753
vt -0.26232 0.144191
v 0.054775 -0.202069 -0.121355
vt 0.348712 0.289433
vn -0.793418 0.000000 0.608677
vt -0.0763 0.020753
vt -0.103413 0.144191
vt -0.103413 0.020753
v 0.054784 0.267898 -0.121362
vt -0.136853 0.144191
v 0.138893 -0.267882 -0.031874
vt -0.360119 0.259263
vn 0.991459 0.000000 -0.130421
vt 0.404588 0.003472
v 0.125213 0.219619 0.071923
vt 0.377094 0.131514
vt 0.404588 0.144191
vt 0.348712 0.275876
v 0.074515 -0.202080 -0.073678
vt -0.275876 0.020753
vt -0.0763 0.144191
v 0.090490 0.267890 -0.148754
vt 0.360119 0.292489
vn 0.793418 0.000000 -0.608677
vt 0.073243 0.144191
vt 0.106469 0.003472
vt 0.106469 0.144191
v 0.090493 -0.267883 -0.148756
vt -0.360119 0.292489
v 0.136032 -0.213020 -0.010251
vt 0.398856 0.017885
v 0.136035 0.219624 -0.010252
vt 0.398856 0.131514
vt -0.289433 0.144191
vt -0.289433 0.020753
vt 0.073243 0.003472
v 0.136040 -0.130137 -0.010244
vt 0.398856 0.039647
v 0.274241 -0.213026 0.091559
vn 0.000000 -1.000000 0.000000
vn 0.355273 -0.933590 0.046812
vt -0.357253 0.254299
vt -0.38057 0.215709
vt -0.346372 0.235453
v 0.125195 -0.130140 0.071932
vn -0.130632 0.000000 0.991431
vt 0.221729 0.017885
vt 0.182241 0.039647
vt 0.182241 0.017885
v 0.274244 0.219638 0.091552
vn 0.379422 0.923872 0.049993
vt 0.38057 0.215709
vt 0.357253 0.254299
vt 0.346372 0.235453
v 0.114695 0.267872 -0.090316
vt 0.292489 0.003472
vt 0.292489 0.144191
v 0.114695 -0.267873 -0.090316
vt 0.275876 0.003472
vt 0.259263 0.144191
vt 0.259263 0.003472
v 0.136038 0.136741 -0.010240
vt 0.398856 0.109753
v 0.345717 -0.157939 0.017369
vn 0.130632 0.000000 -0.991431
vt -0.237796 0.032349
vt -0.182241 0.017885
vt -0.182241 0.039647
v 0.285068 -0.213030 0.009395
vt -0.391451 0.234555
v 0.334891 -0.157940 0.099559
vt 0.237796 0.032349
v 0.125208 0.136748 0.071926
vt 0.377094 0.109753
vt 0.377094 0.039647
v 0.334890 0.158446 0.099560
vt 0.182241 0.109753
vt 0.237796 0.115447
vt 0.182241 0.131514
v 0.285069 0.219638 0.009395
vt 0.391451 0.234555
vt 0.221729 0.131514
vt -0.221729 0.017885
v 0.236566 -0.130125 0.002996
vt -0.208884 0.039647
vn 0.905707 -0.406759 0.119337
vt 0.398856 0.176756
vt 0.377094 0.198375
vt 0.377094 0.176756
v 0.225739 -0.130125 0.085169
vt 0.208884 0.039647
vn -0.362899 0.930601 -0.047815
vn 0.000000 1.000000 0.000000
vt 0.369446 0.222131
v 0.225738 0.136734 0.085169
vt 0.208884 0.109753
vn 0.915970 0.382666 0.120689
vt 0.377094 -0.086514
vt 0.398856 -0.063791
vt 0.377094 -0.063791
v 0.345716 0.158444 0.017365
vt -0.237796 0.115447
vt -0.182241 0.131514
vt -0.221729 0.131514
v 0.236568 0.136738 0.002992
vt -0.208884 0.109753
vt -0.182241 0.109753
vn -0.379422 -0.923872 -0.049993
vt -0.369446 0.222131
vt -0.346372 0.235453
vt 0.398856 0.198375
vt 0.380327 0.240977
v 0.268834 -0.099849 0.007239
vt -0.217434 0.047604
v 0.257998 -0.099846 0.089421
vt 0.217434 0.047604
v 0.257997 0.104195 0.089419
vt 0.217434 0.101202
vt 0.398856 -0.086514
vt -0.380327 0.240977
vt 0.398856 0.032349
vt 0.377094 0.115447
vt 0.377094 0.032349
vn -0.909004 0.399206 -0.119772
vt -0.377094 0.191604
vt -0.398856 0.179924
vt -0.377094 0.179924
vt -0.398856 0.191604
vn -0.915970 -0.382666 -0.120689
vt -0.398856 -0.070096
vt -0.377094 -0.082189
vt -0.377094 -0.070096
vt 0.398856 0.115447
v 0.268824 0.104195 0.007247
vt -0.217434 0.101202
vt -0.377094 0.047604
vt -0.398856 0.101202
vt -0.398856 0.047604
vt -0.377094 0.101202
vt -0.398856 -0.082189
v -0.179747 -0.202109 0.184232
v -0.179751 0.267853 0.184242
v -0.261649 -0.202090 0.121392
vn -0.382782 0.000000 0.923839
vn -0.793418 0.000000 0.608677
v -0.261642 0.267850 0.121387
v -0.077403 -0.202103 0.197725
vn 0.130421 0.000000 0.991459
v -0.281394 -0.202098 0.073700
vn 0.000000 -1.000000 0.000000
vn -0.923920 0.000000 0.382585
v -0.196945 0.267842 0.225740
v -0.077403 0.267850 0.197725
v -0.287655 -0.202099 -0.076338
v -0.301141 -0.202098 0.026010
v -0.281399 0.267872 0.073702
v -0.345668 0.267846 0.031867
v -0.071546 0.267850 0.242252
v -0.029714 -0.202103 0.177978
vn 0.382585 0.000000 0.923920
v -0.224800 -0.202103 -0.158230
vn -0.991459 0.000000 0.130421
v -0.321466 0.267854 0.090294
v -0.301137 0.267850 0.026009
v -0.196940 -0.267854 0.225727
vn 0.382782 0.000000 -0.923839
vn -0.130421 0.000000 -0.991459
v -0.013118 0.267850 0.218057
v -0.029714 0.267850 0.177978
vn -0.923839 0.000000 -0.382782
v -0.224800 0.267850 -0.158230
vn -0.608677 0.000000 -0.793418
v -0.297269 0.267862 0.148719
v -0.321466 -0.267855 0.090294
vn 0.923920 0.000000 -0.382585
vn 0.991459 0.000000 -0.130421
v -0.329140 0.267853 -0.093527
v -0.071546 -0.267850 0.242252
vn 0.793418 0.000000 -0.608677
vn -0.382585 0.000000 -0.923920
v 0.017975 -0.202103 0.158230
vn 0.608677 0.000000 0.793418
v -0.177111 -0.202103 -0.177978
v -0.287647 0.267845 -0.076335
v -0.177113 0.267854 -0.177982
v -0.297273 -0.267855 0.148721
v -0.345657 -0.267863 0.031866
vn 0.923839 0.000000 0.382782
v -0.252136 -0.267850 -0.193863
vn 0.000000 1.000000 0.000000
v -0.013118 -0.267850 0.218057
v 0.045313 0.267846 0.193866
v 0.017977 0.267854 0.158233
v -0.252136 0.267850 -0.193863
v -0.193709 0.267846 -0.218060
v -0.329150 -0.267844 -0.093532
v -0.193708 -0.267850 -0.218057
vn -0.608677 0.000000 -0.793418
v 0.080830 -0.202099 0.076339
vn 0.923839 0.000000 0.382782
v -0.129422 -0.202103 -0.197725
v -0.129422 0.267850 -0.197725
vn 0.608677 0.000000 0.793418
v -0.135279 -0.267850 -0.242252
v 0.045311 -0.267850 0.193863
v 0.080822 0.267845 0.076336
v -0.135279 0.267850 -0.242252
v 0.122313 0.267856 0.093527
vn -0.923839 0.000000 -0.382782
v 0.094312 0.267850 -0.026009
v -0.027077 -0.202107 -0.184235
v -0.027074 0.267853 -0.184242
vn 0.382782 0.000000 -0.923839
v -0.009884 -0.267850 -0.225730
v 0.122314 -0.267855 0.093527
v 0.094316 -0.202098 -0.026010
v -0.009882 0.267845 -0.225735
vn -0.382782 0.000000 0.923839
v 0.125160 -0.212994 0.071891
vn -0.991431 0.000000 -0.130632
v 0.138837 0.267852 -0.031866
v 0.074569 0.267854 -0.073700
v 0.054824 -0.202090 -0.121392
vn 0.793418 0.000000 -0.608677
v 0.054815 0.267846 -0.121385
v 0.138832 -0.267864 -0.031866
vn -0.991459 0.000000 0.130421
v 0.125166 0.219601 0.071882
v 0.074574 -0.202080 -0.073702
v 0.090448 0.267854 -0.148721
vn -0.793418 0.000000 0.608677
v 0.090444 -0.267863 -0.148719
v 0.135991 -0.212982 -0.010219
v 0.135989 0.219596 -0.010217
v 0.135984 -0.130163 -0.010225
v 0.274227 -0.212976 0.091522
vn 0.000000 1.000000 0.000000
vn -0.355273 0.933590 -0.046812
v 0.125184 -0.130160 0.071872
vn 0.130632 0.000000 -0.991431
v 0.274223 0.219582 0.091529
vn -0.379422 -0.923872 -0.049993
v 0.114636 0.267872 -0.090291
v 0.114636 -0.267873 -0.090291
v 0.135985 0.136776 -0.010230
v 0.345681 -0.157925 0.017419
vn -0.130632 0.000000 0.991431
v 0.285044 -0.212973 0.009412
v 0.334863 -0.157924 0.099503
v 0.125171 0.136770 0.071878
v 0.334864 0.158432 0.099502
v 0.285043 0.219582 0.009412
v 0.236581 -0.130175 0.003035
vn -0.905707 0.406759 -0.119337
v 0.225763 -0.130175 0.085136
vn 0.000000 -1.000000 0.000000
vn 0.362899 -0.930601 0.047815
v 0.225763 0.136783 0.085136
vn -0.915970 -0.382666 -0.120689
v 0.345685 0.158434 0.017422
v 0.236579 0.136780 0.003039
vn 0.379422 0.923872 0.049993
v 0.268859 -0.099863 0.007297
v 0.258050 -0.099866 0.089389
v 0.258051 0.104215 0.089390
vn 0.909004 -0.399206 0.119772
vn 0.915970 0.382666 0.120689
v 0.268869 0.104215 0.007289
g mesh1-geometry-0
usemtl Material.e6a6298ff53efe4150e122edc010a6a6
f 1/1/1 2/2/2 3/3/2
f 2/2/2 1/1/1 4/4/1
f 2/5/2 5/6/3 3/7/2
f 3/8/4 6/9/4 1/10/4
f 6/11/5 4/12/1 1/13/1
f 4/10/4 7/14/4 2/8/4
f 5/6/3 2/5/2 8/15/3
f 9/16/4 3/8/4 5/17/4
f 6/9/4 3/8/4 10/18/4
f 4/12/1 6/11/5 11/19/5
f 12/20/4 7/14/4 4/10/4
f 2/8/4 7/14/4 13/21/4
f 2/8/4 13/21/4 8/17/4
f 8/22/3 14/23/6 5/24/3
f 10/18/4 3/8/4 9/16/4
f 9/16/4 5/17/4 15/25/4
f 10/26/7 11/19/5 6/11/5
f 16/27/4 7/14/4 12/20/4
f 17/18/4 12/20/4 4/10/4
f 18/28/8 13/29/9 7/30/8
f 8/17/4 13/21/4 19/31/4
f 14/23/6 8/22/3 20/32/6
f 15/25/4 5/17/4 14/33/4
f 9/34/10 17/35/7 10/36/7
f 21/37/11 9/38/10 15/39/11
f 11/19/5 10/26/7 17/40/7
f 7/14/4 16/27/4 22/41/4
f 12/42/12 23/43/13 16/44/13
f 12/20/4 17/18/4 24/45/4
f 13/29/9 18/28/8 25/46/9
f 22/47/14 18/48/8 7/49/8
f 25/50/9 19/51/15 13/52/9
f 8/17/4 19/31/4 20/33/4
f 20/32/6 26/53/16 14/23/6
f 15/25/4 14/33/4 27/54/4
f 17/35/7 9/34/10 28/55/10
f 9/38/10 21/37/11 28/56/10
f 15/57/11 29/51/15 21/58/11
f 16/44/13 30/59/14 22/60/14
f 23/43/13 12/42/12 31/61/12
f 30/59/14 16/44/13 23/43/13
f 24/45/4 17/18/4 28/16/4
f 24/62/17 31/63/12 12/64/12
f 18/65/18 32/66/18 25/67/18
f 18/48/8 22/47/14 30/68/14
f 19/51/15 25/50/9 33/69/15
f 20/33/4 19/31/4 34/70/4
f 26/53/16 20/32/6 35/71/16
f 27/54/4 14/33/4 26/72/4
f 29/51/15 15/57/11 27/73/15
f 36/74/4 28/16/4 21/25/4
f 37/75/4 21/25/4 29/54/4
f 38/76/18 23/77/18 31/78/18
f 23/77/18 38/76/18 30/79/18
f 24/45/4 28/16/4 36/74/4
f 31/63/12 24/62/17 38/80/17
f 18/65/18 38/76/18 32/66/18
f 25/67/18 32/66/18 39/81/18
f 30/79/18 38/76/18 18/65/18
f 25/67/18 39/81/18 33/82/18
f 33/69/15 34/83/19 19/51/15
f 20/33/4 34/70/4 35/72/4
f 35/84/16 40/85/20 26/86/16
f 27/54/4 26/72/4 41/87/4
f 27/73/15 42/88/9 29/51/15
f 36/74/4 21/25/4 37/75/4
f 37/75/4 29/54/4 42/87/4
f 32/89/21 24/90/17 36/91/21
f 24/90/17 32/89/21 38/92/17
f 36/93/21 39/94/6 32/95/21
f 33/82/18 39/81/18 43/96/18
f 34/83/19 33/69/15 44/97/19
f 35/72/4 34/70/4 45/98/4
f 40/85/20 35/84/16 45/99/20
f 41/87/4 26/72/4 40/98/4
f 42/88/9 27/73/15 41/100/9
f 39/94/6 36/93/21 37/32/6
f 37/75/4 42/87/4 46/101/4
f 37/32/6 43/102/3 39/94/6
f 33/82/18 43/96/18 44/103/18
f 44/104/19 47/105/22 34/106/19
f 45/98/4 34/70/4 47/107/4
f 48/108/12 40/109/20 45/110/20
f 41/87/4 40/98/4 49/111/4
f 41/112/9 50/113/23 42/114/9
f 46/101/4 42/87/4 50/111/4
f 43/102/3 37/32/6 46/115/3
f 44/103/18 43/96/18 51/116/18
f 47/105/22 44/104/19 52/117/22
f 45/98/4 47/107/4 48/118/4
f 40/109/20 48/108/12 53/119/12
f 49/111/4 40/98/4 53/118/4
f 50/113/23 41/112/9 49/120/23
f 46/101/4 50/111/4 54/121/4
f 46/122/3 51/123/24 43/124/3
f 44/103/18 51/116/18 52/125/18
f 52/126/22 55/127/25 47/128/22
f 48/118/4 47/107/4 56/129/4
f 57/44/13 53/130/12 48/131/12
f 49/111/4 53/118/4 58/132/4
f 58/133/26 50/134/23 49/135/23
f 54/121/4 50/111/4 59/132/4
f 51/123/24 46/122/3 54/136/24
f 52/125/18 51/116/18 60/137/18
f 55/127/25 52/126/22 60/138/27
f 61/139/25 47/128/22 55/127/25
f 47/128/22 61/139/25 56/140/27
f 48/118/4 56/129/4 57/141/4
f 53/130/12 57/44/13 62/142/13
f 50/134/23 58/133/26 59/143/26
f 54/121/4 59/132/4 63/144/4
f 63/145/28 51/146/24 54/147/24
f 60/137/18 51/116/18 64/148/18
f 55/127/25 60/138/27 65/149/25
f 56/140/27 61/139/25 66/150/25
f 57/141/4 56/129/4 59/132/4
f 59/151/26 62/142/13 57/44/13
f 62/142/13 59/151/26 58/152/26
f 63/144/4 59/132/4 56/129/4
f 51/146/24 63/145/28 64/153/28
f 65/149/25 60/138/27 67/154/25
f 65/155/29 68/156/30 55/157/29
f 68/158/31 69/159/31 55/160/31
f 70/161/32 66/162/4 61/163/4
f 56/140/27 66/150/25 60/138/27
f 71/19/5 64/164/28 63/165/28
f 64/164/28 71/19/5 72/166/5
f 72/166/5 56/167/27 60/168/27
f 67/154/25 60/138/27 73/169/25
f 74/170/33 65/171/33 67/172/33
f 68/156/30 65/155/29 75/173/30
f 69/159/31 68/158/31 76/174/31
f 67/154/25 77/175/25 69/176/25
f 77/177/31 78/178/31 61/179/31
f 66/162/4 70/161/32 79/180/32
f 61/179/31 78/178/31 70/181/31
f 73/169/25 60/138/27 66/150/25
f 56/167/27 72/166/5 71/19/5
f 77/175/25 67/154/25 73/169/25
f 65/171/33 74/170/33 75/182/33
f 74/170/33 67/172/33 80/183/33
f 75/184/30 76/185/34 68/186/30
f 69/159/31 76/174/31 81/187/31
f 81/188/35 67/162/36 69/163/36
f 82/189/31 78/178/31 77/177/31
f 78/190/37 79/191/32 70/192/32
f 83/193/33 66/194/33 79/195/33
f 66/194/33 84/196/33 73/197/33
f 73/155/18 82/198/38 77/199/18
f 76/185/34 75/184/30 74/200/34
f 67/162/36 81/188/35 80/201/35
f 74/170/33 80/183/33 85/202/33
f 81/187/31 76/174/31 86/203/31
f 87/204/31 78/178/31 82/189/31
f 79/191/32 78/190/37 83/205/37
f 84/196/33 66/194/33 83/193/33
f 82/198/38 73/155/18 84/206/38
f 74/207/34 78/208/37 76/209/34
f 86/210/39 80/211/35 81/212/35
f 80/211/35 86/210/39 85/213/39
f 74/170/33 85/202/33 83/193/33
f 86/203/31 76/174/31 78/178/31
f 86/203/31 78/178/31 87/204/31
f 84/214/38 87/215/40 82/216/38
f 78/208/37 74/207/34 83/217/37
f 83/193/33 88/218/33 84/196/33
f 86/219/39 88/220/40 85/221/39
f 83/193/33 85/202/33 88/218/33
f 88/220/40 86/219/39 87/222/40
f 87/215/40 84/214/38 88/223/40
g mesh1-geometry-1
usemtl Material.90b00bf69165eda831fe702671104217
f 89//41 90//41 91//42
f 92//42 91//42 90//41
f 89//41 93//43 90//41
f 91//44 94//44 89//44
f 91//42 92//42 94//45
f 90//44 95//44 92//44
f 96//43 90//41 93//43
f 93//44 89//44 97//44
f 98//44 89//44 94//44
f 99//45 94//45 92//42
f 92//44 95//44 100//44
f 101//44 95//44 90//44
f 96//44 101//44 90//44
f 93//43 102//46 96//43
f 97//44 89//44 98//44
f 103//44 93//44 97//44
f 94//45 99//45 98//47
f 100//44 95//44 104//44
f 92//44 100//44 105//44
f 95//48 101//49 106//48
f 107//44 101//44 96//44
f 108//46 96//43 102//46
f 102//44 93//44 103//44
f 98//47 105//47 97//50
f 103//51 97//50 109//51
f 105//47 98//47 99//45
f 110//44 104//44 95//44
f 104//52 111//52 100//53
f 112//44 105//44 100//44
f 113//49 106//48 101//49
f 95//48 106//48 110//54
f 101//49 107//55 113//49
f 108//44 107//44 96//44
f 102//46 114//56 108//46
f 115//44 102//44 103//44
f 116//50 97//50 105//47
f 116//50 109//51 97//50
f 109//51 117//55 103//51
f 110//54 118//54 104//52
f 119//53 100//53 111//52
f 111//52 104//52 118//54
f 116//44 105//44 112//44
f 100//53 119//53 112//57
f 113//58 120//58 106//58
f 118//54 110//54 106//48
f 121//55 113//49 107//55
f 122//44 107//44 108//44
f 123//56 108//46 114//56
f 114//44 102//44 115//44
f 115//55 103//51 117//55
f 109//44 116//44 124//44
f 117//44 109//44 125//44
f 119//58 111//58 126//58
f 118//58 126//58 111//58
f 124//44 116//44 112//44
f 126//57 112//57 119//53
f 120//58 126//58 106//58
f 127//58 120//58 113//58
f 106//58 126//58 118//58
f 121//58 127//58 113//58
f 107//55 122//59 121//55
f 123//44 122//44 108//44
f 114//56 128//60 123//56
f 129//44 114//44 115//44
f 117//55 130//49 115//55
f 125//44 109//44 124//44
f 130//44 117//44 125//44
f 124//61 112//57 120//61
f 126//57 120//61 112//57
f 120//61 127//46 124//61
f 131//58 127//58 121//58
f 132//59 121//55 122//59
f 133//44 122//44 123//44
f 133//60 123//56 128//60
f 128//44 114//44 129//44
f 129//49 115//55 130//49
f 125//46 124//61 127//46
f 134//44 130//44 125//44
f 127//46 131//43 125//46
f 132//58 131//58 121//58
f 122//59 135//62 132//59
f 135//44 122//44 133//44
f 133//60 128//60 136//53
f 137//44 128//44 129//44
f 130//49 138//63 129//49
f 138//44 130//44 134//44
f 134//43 125//46 131//43
f 139//58 131//58 132//58
f 140//62 132//59 135//62
f 136//44 135//44 133//44
f 141//53 136//53 128//60
f 141//44 128//44 137//44
f 137//63 129//49 138//63
f 142//44 138//44 134//44
f 131//43 139//64 134//43
f 140//58 139//58 132//58
f 135//62 143//65 140//62
f 144//44 135//44 136//44
f 136//53 141//53 145//52
f 146//44 141//44 137//44
f 137//63 138//63 146//66
f 147//44 138//44 142//44
f 142//64 134//43 139//64
f 148//58 139//58 140//58
f 148//67 140//62 143//65
f 143//65 135//62 149//65
f 144//67 149//65 135//62
f 145//44 144//44 136//44
f 150//52 145//52 141//53
f 147//66 146//66 138//63
f 151//44 147//44 142//44
f 142//64 139//64 151//68
f 152//58 139//58 148//58
f 153//65 148//67 143//65
f 154//65 149//65 144//67
f 147//44 144//44 145//44
f 145//52 150//52 147//66
f 146//66 147//66 150//52
f 144//44 147//44 151//44
f 152//68 151//68 139//64
f 155//65 148//67 153//65
f 143//69 156//70 153//69
f 143//71 157//71 156//71
f 149//44 154//44 158//72
f 148//67 154//65 144//67
f 151//68 152//68 159//45
f 160//45 159//45 152//68
f 148//67 144//67 160//45
f 161//65 148//67 155//65
f 155//73 153//73 162//73
f 163//70 153//69 156//70
f 164//71 156//71 157//71
f 157//65 165//65 155//65
f 149//71 166//71 165//71
f 167//72 158//72 154//44
f 158//71 166//71 149//71
f 154//65 148//67 161//65
f 159//45 160//45 144//67
f 161//65 155//65 165//65
f 163//73 162//73 153//73
f 168//73 155//73 162//73
f 156//70 164//74 163//70
f 169//71 164//71 157//71
f 157//75 155//75 169//76
f 165//71 166//71 170//71
f 158//72 167//72 166//77
f 167//73 154//73 171//73
f 161//73 172//73 154//73
f 165//58 170//78 161//58
f 162//74 163//70 164//74
f 168//76 169//76 155//75
f 173//73 168//73 162//73
f 174//71 164//71 169//71
f 170//71 166//71 175//71
f 171//77 166//77 167//72
f 171//73 154//73 172//73
f 172//78 161//58 170//78
f 164//74 166//77 162//74
f 169//76 168//76 174//79
f 173//79 174//79 168//76
f 171//73 173//73 162//73
f 166//71 164//71 174//71
f 175//71 166//71 174//71
f 170//78 175//80 172//78
f 171//77 162//74 166//77
f 172//73 176//73 171//73
f 173//79 176//80 174//79
f 176//73 173//73 171//73
f 175//80 174//79 176//80
f 176//80 172//78 175//80
