# created by Ethan Wu and Zhan isaac Ling
mtllib model.mtl
v -0.192065 0.381441 -0.124494
v -0.104084 0.381441 -0.203847
v -0.153301 0.381430 -0.169965
vn 0.000000 1.000000 0.000000
vt 0.345976 0.27698
vt 0.35497 0.451452
vt 0.338988 0.364808
v -0.217737 0.381445 -0.070540
vt 0.375457 0.193954
v -0.047776 0.381449 -0.223831
vt 0.392832 0.531006
v -0.228570 0.381449 -0.011781
vt 0.425423 0.121387
v 0.011785 0.381441 -0.228579
vt 0.449994 0.598051
v -0.223837 0.381445 0.047780
vt 0.492468 0.064225
v 0.070543 0.381445 -0.217737
vt 0.522561 0.648017
v -0.203844 0.381445 0.104086
vt 0.572022 0.026363
v 0.124495 0.381445 -0.192061
vt 0.605587 0.677498
v -0.169959 0.381445 0.153299
vt 0.658666 0.010381
v 0.169962 0.381445 -0.153295
vt 0.693415 0.684486
v -0.124491 0.381445 0.192064
vt 0.746494 0.017369
v 0.203847 0.381445 -0.104083
vt 0.780059 0.668504
v -0.070540 0.381445 0.217741
vt 0.82952 0.04685
v 0.223840 0.381445 -0.047777
vt 0.859614 0.630642
v -0.011781 0.381445 0.228579
vt 0.902087 0.096816
v 0.228579 0.381445 0.011784
vt 0.926658 0.57348
v 0.047781 0.381445 0.223840
vt 0.959249 0.16386
v 0.217735 0.381449 0.070542
vt 0.976624 0.500913
v 0.104086 0.381445 0.203847
vt 0.997111 0.243415
v 0.192070 0.381433 0.124498
vt 1.0061 0.417886
v 0.153305 0.381430 0.169969
vt 1.01309 0.330059
v -0.153253 0.381406 -0.169912
v -0.104057 0.381395 -0.203792
v -0.192012 0.381397 -0.124459
vn 0.000000 -1.000000 0.000000
v -0.217686 0.381391 -0.070523
v -0.153253 -0.381406 -0.169912
vn 0.669767 0.000000 0.742571
vn 0.454754 0.000000 0.890617
v -0.192012 -0.381397 -0.124459
vn 0.839137 0.000000 0.543920
v -0.217686 -0.381391 -0.070523
vn 0.951321 0.000000 0.308202
v -0.047767 0.381387 -0.223790
v -0.104061 -0.381387 -0.203801
v -0.228518 -0.381395 -0.011778
vn 0.998674 0.000000 0.051480
v -0.228527 0.381387 -0.011779
v -0.047765 -0.381395 -0.223781
vn 0.208750 0.000000 0.977969
v -0.104080 -0.381449 -0.203838
v -0.192065 -0.381441 -0.124494
v -0.153301 -0.381430 -0.169965
vn 0.000000 -1.000000 0.000000
vn 0.000000 1.000000 0.000000
v -0.217737 -0.381445 -0.070540
v -0.047778 -0.381441 -0.223840
v -0.228579 -0.381441 -0.011781
v 0.011781 0.381395 -0.228518
vn -0.051480 0.000000 0.998674
v -0.223784 0.381391 0.047769
vn 0.977969 0.000000 -0.208750
v 0.011784 -0.381449 -0.228570
v 0.011782 -0.381387 -0.228528
v -0.223784 -0.381391 0.047769
v -0.223837 -0.381445 0.047780
v 0.070527 0.381391 -0.217686
v 0.070527 -0.381391 -0.217686
vn -0.308202 0.000000 0.951321
v -0.203795 0.381391 0.104062
vn 0.890617 0.000000 -0.454754
v 0.070543 -0.381445 -0.217737
v -0.203795 -0.381391 0.104062
v -0.203844 -0.381445 0.104086
v 0.124465 0.381391 -0.192015
v 0.124465 -0.381391 -0.192015
vn -0.543920 0.000000 0.839137
v -0.169919 0.381391 0.153263
vn 0.742571 0.000000 -0.669767
v 0.124495 -0.381445 -0.192061
v -0.169919 -0.381391 0.153263
v -0.169959 -0.381445 0.153299
v 0.169922 0.381391 -0.153259
v 0.169922 -0.381391 -0.153259
vn -0.742571 0.000000 0.669767
v -0.124462 0.381391 0.192019
vn 0.543920 0.000000 -0.839137
v 0.169962 -0.381445 -0.153295
v -0.124462 -0.381391 0.192019
v -0.124491 -0.381445 0.192064
v 0.203799 0.381391 -0.104058
v 0.203799 -0.381391 -0.104058
vn -0.890617 0.000000 0.454754
v -0.070523 0.381391 0.217690
vn 0.308202 0.000000 -0.951321
v 0.203847 -0.381445 -0.104083
v -0.070523 -0.381391 0.217690
v -0.070540 -0.381445 0.217741
v 0.223788 0.381391 -0.047766
v 0.223788 -0.381391 -0.047766
vn -0.977969 0.000000 0.208750
v -0.011778 0.381391 0.228525
vn 0.051480 0.000000 -0.998674
v 0.223840 -0.381445 -0.047777
v -0.011778 -0.381391 0.228525
v -0.011781 -0.381445 0.228579
v 0.228525 0.381391 0.011782
v 0.228525 -0.381391 0.011782
vn -0.998674 0.000000 -0.051480
v 0.047769 0.381391 0.223788
vn -0.208750 0.000000 -0.977969
v 0.228579 -0.381445 0.011784
v 0.047769 -0.381391 0.223788
v 0.047781 -0.381445 0.223840
v 0.217695 0.381387 0.070529
v 0.217686 -0.381395 0.070526
vn -0.951321 0.000000 -0.308202
v 0.104062 0.381391 0.203799
vn -0.454754 0.000000 -0.890617
v 0.217745 -0.381441 0.070544
v 0.104062 -0.381391 0.203799
v 0.104086 -0.381445 0.203847
v 0.192013 0.381401 0.124462
vn -0.839137 0.000000 -0.543920
v 0.153256 0.381406 0.169915
vn -0.669767 0.000000 -0.742571
v 0.192064 -0.381445 0.124495
v 0.192019 -0.381391 0.124465
v 0.153256 -0.381406 0.169915
v 0.153305 -0.381430 0.169969
vn -0.454754 0.000000 -0.890617
vn -0.669767 0.000000 -0.742571
vt 0.883573 0.980771
vt 0.957204 0.043271
vt 0.957204 0.980771
vn -0.839137 0.000000 -0.543920
vt 0.957204 0.980771
vt 1.03084 0.043271
vt 1.03084 0.980771
vn -0.951321 0.000000 -0.308202
vt 1.10447 0.043271
vt 1.10447 0.980771
vt 0.883573 0.043271
vt 0.957204 0.043271
vn -0.998674 0.000000 -0.051480
vt 1.1781 0.043271
vt 1.10447 0.980771
vt 1.10447 0.043271
vn -0.208750 0.000000 -0.977969
vt 0.809942 0.043271
vt 0.883573 0.980771
vt 0.809942 0.980771
vt 0.883573 0.043271
vt 1.1781 0.980771
vn 0.051480 0.000000 -0.998674
vt 0.736311 0.980771
vt 0.809942 0.043271
vt 0.809942 0.980771
vn -0.977969 0.000000 0.208750
vt 1.1781 0.043271
vt 1.25173 0.980771
vt 0.736311 0.043271
vt 1.25173 0.043271
vn 0.308202 0.000000 -0.951321
vt 0.736311 0.980771
vt 0.66268 0.043271
vt 0.736311 0.043271
vn -0.890617 0.000000 0.454754
vt 1.25173 0.043271
vt 1.32536 0.980771
vt 0.66268 0.980771
vt 1.32536 0.043271
vn 0.543920 0.000000 -0.839137
vt 0.66268 0.980771
vt 0.589049 0.043271
vt 0.66268 0.043271
vn -0.742571 0.000000 0.669767
vt 1.39899 0.980771
vt 0.589049 0.980771
vt 1.39899 0.043271
vn 0.742571 0.000000 -0.669767
vt 0.589049 0.980771
vt 0.515418 0.043271
vt 0.589049 0.043271
vn -0.543920 0.000000 0.839137
vt 1.47262 0.980771
vt 0.515418 0.980771
vt 1.47262 0.043271
vn 0.890617 0.000000 -0.454754
vt 0.515418 0.980771
vt 0.441786 0.043271
vt 0.515418 0.043271
vn -0.308202 0.000000 0.951321
vt 1.54625 0.980771
vt 0.441786 0.980771
vt 1.54625 0.043271
vn 0.977969 0.000000 -0.208750
vt 0.441786 0.980771
vt 0.368155 0.043271
vt 0.441786 0.043271
vn -0.051480 0.000000 0.998674
vt 1.54625 0.043271
vt 1.61988 0.980771
vt 0.368155 0.980771
vt 1.61988 0.043271
vn 0.998674 0.000000 0.051480
vt 0.368155 0.980771
vt 0.294524 0.043271
vt 0.368155 0.043271
vn 0.208750 0.000000 0.977969
vt 1.61988 0.043271
vt 1.69351 0.980771
vt 1.61988 0.980771
vt 0.294524 0.980771
vt 1.69351 0.043271
vn 0.951321 0.000000 0.308202
vt 0.294524 0.980771
vt 0.220893 0.043271
vt 0.294524 0.043271
vn 0.454754 0.000000 0.890617
vt 1.69351 0.043271
vt 1.76715 0.980771
vt 1.69351 0.980771
vt 0.220893 0.980771
vt 1.76715 0.043271
vn 0.839137 0.000000 0.543920
vt 0.147262 0.980771
vt 0.220893 0.043271
vt 0.220893 0.980771
vn 0.669767 0.000000 0.742571
vt -0.0 0.043271
vt 0.073631 0.980771
vt -0.0 0.980771
vt 0.147262 0.043271
vt 0.073631 0.043271
vt 0.073631 0.043271
vt 0.147262 0.980771
vt 0.073631 0.980771
vt 0.147262 0.043271
g mesh1-geometry-0
usemtl Material.e6a6298ff53efe4150e122edc010a6a6
f 1/1/1 2/2/1 3/3/1
f 2/2/1 1/1/1 4/4/1
f 2/2/1 4/4/1 5/5/1
f 5/5/1 4/4/1 6/6/1
f 5/5/1 6/6/1 7/7/1
f 7/7/1 6/6/1 8/8/1
f 7/7/1 8/8/1 9/9/1
f 9/9/1 8/8/1 10/10/1
f 9/9/1 10/10/1 11/11/1
f 11/11/1 10/10/1 12/12/1
f 11/11/1 12/12/1 13/13/1
f 13/13/1 12/12/1 14/14/1
f 13/13/1 14/14/1 15/15/1
f 15/15/1 14/14/1 16/16/1
f 15/15/1 16/16/1 17/17/1
f 17/17/1 16/16/1 18/18/1
f 17/17/1 18/18/1 19/19/1
f 19/19/1 18/18/1 20/20/1
f 19/19/1 20/20/1 21/21/1
f 21/21/1 20/20/1 22/22/1
f 21/21/1 22/22/1 23/23/1
f 23/23/1 22/22/1 24/24/1
g mesh1-geometry-1
usemtl Material.90b00bf69165eda831fe702671104217
f 25//2 26//2 27//2
f 28//2 27//2 26//2
f 25//3 29//3 26//4
f 27//5 30//5 25//3
f 28//6 31//6 27//5
f 32//2 28//2 26//2
f 33//4 26//4 29//3
f 29//3 25//3 30//5
f 30//5 27//5 31//6
f 31//6 28//6 34//7
f 35//2 28//2 32//2
f 32//8 26//4 36//8
f 33//4 36//8 26//4
f 37//9 38//9 39//9
f 29//10 30//10 33//10
f 38//9 37//9 40//9
f 31//10 33//10 30//10
f 35//7 34//7 28//6
f 40//9 41//9 42//9
f 34//10 36//10 31//10
f 43//2 35//2 32//2
f 32//8 36//8 43//11
f 40//9 37//9 41//9
f 36//10 33//10 31//10
f 35//7 44//12 34//7
f 42//9 41//9 45//9
f 46//10 36//10 34//10
f 44//2 35//2 43//2
f 46//11 43//11 36//8
f 47//12 34//7 44//12
f 42//9 45//9 48//9
f 47//10 46//10 34//10
f 49//2 44//2 43//2
f 46//11 50//13 43//11
f 44//12 51//14 47//12
f 48//9 45//9 52//9
f 50//10 46//10 47//10
f 51//2 44//2 49//2
f 49//13 43//11 50//13
f 53//14 47//12 51//14
f 48//9 52//9 54//9
f 53//10 50//10 47//10
f 55//2 51//2 49//2
f 50//13 56//15 49//13
f 51//14 57//16 53//14
f 54//9 52//9 58//9
f 56//10 50//10 53//10
f 57//2 51//2 55//2
f 55//15 49//13 56//15
f 59//16 53//14 57//16
f 54//9 58//9 60//9
f 59//10 56//10 53//10
f 61//2 57//2 55//2
f 56//15 62//17 55//15
f 57//16 63//18 59//16
f 60//9 58//9 64//9
f 62//10 56//10 59//10
f 63//2 57//2 61//2
f 61//17 55//15 62//17
f 65//18 59//16 63//18
f 60//9 64//9 66//9
f 65//10 62//10 59//10
f 67//2 63//2 61//2
f 62//17 68//19 61//17
f 63//18 69//20 65//18
f 66//9 64//9 70//9
f 68//10 62//10 65//10
f 69//2 63//2 67//2
f 67//19 61//17 68//19
f 71//20 65//18 69//20
f 66//9 70//9 72//9
f 71//10 68//10 65//10
f 73//2 69//2 67//2
f 68//19 74//21 67//19
f 69//20 75//22 71//20
f 72//9 70//9 76//9
f 74//10 68//10 71//10
f 75//2 69//2 73//2
f 73//21 67//19 74//21
f 77//22 71//20 75//22
f 72//9 76//9 78//9
f 77//10 74//10 71//10
f 79//2 75//2 73//2
f 74//21 80//23 73//21
f 75//22 81//24 77//22
f 78//9 76//9 82//9
f 80//10 74//10 77//10
f 81//2 75//2 79//2
f 79//23 73//21 80//23
f 83//24 77//22 81//24
f 78//9 82//9 84//9
f 83//10 80//10 77//10
f 85//2 81//2 79//2
f 80//23 86//25 79//23
f 81//24 87//26 83//24
f 84//9 82//9 88//9
f 86//10 80//10 83//10
f 87//2 81//2 85//2
f 85//25 79//23 86//25
f 89//26 83//24 87//26
f 84//9 88//9 90//9
f 89//10 86//10 83//10
f 91//2 87//2 85//2
f 85//25 86//25 91//27
f 87//26 92//28 89//26
f 90//9 88//9 93//9
f 94//10 86//10 89//10
f 92//2 87//2 91//2
f 94//27 91//27 86//25
f 95//28 89//26 92//28
f 90//9 93//9 96//9
f 95//10 94//10 89//10
f 92//28 91//27 95//28
f 94//27 95//28 91//27
g mesh1-geometry-2
usemtl Material.adfca2fb27c1e89c3ee819ce9372e850
f 2/25/29 39/26/30 3/27/30
f 3/28/30 38/29/31 1/30/31
f 1/30/31 40/31/32 4/32/32
f 39/26/30 2/25/29 37/33/29
f 38/29/31 3/28/30 39/34/30
f 40/31/32 1/30/31 38/29/31
f 42/35/33 4/36/32 40/37/32
f 41/38/34 2/39/29 5/40/34
f 2/39/29 41/38/34 37/41/29
f 4/36/32 42/35/33 6/42/33
f 7/43/35 41/44/34 5/45/34
f 42/46/33 8/47/36 6/42/33
f 41/44/34 7/43/35 45/48/35
f 8/47/36 42/46/33 48/49/36
f 7/50/35 52/51/37 45/52/35
f 48/53/36 10/54/38 8/47/36
f 52/51/37 7/50/35 9/55/37
f 10/54/38 48/53/36 54/56/38
f 9/57/37 58/58/39 52/59/37
f 54/56/38 12/60/40 10/54/38
f 58/58/39 9/57/37 11/61/39
f 12/60/40 54/56/38 60/62/40
f 11/63/39 64/64/41 58/65/39
f 60/62/40 14/66/42 12/60/40
f 64/64/41 11/63/39 13/67/41
f 14/66/42 60/62/40 66/68/42
f 13/69/41 70/70/43 64/71/41
f 66/68/42 16/72/44 14/66/42
f 70/70/43 13/69/41 15/73/43
f 16/72/44 66/68/42 72/74/44
f 15/75/43 76/76/45 70/77/43
f 72/78/44 18/79/46 16/72/44
f 76/76/45 15/75/43 17/80/45
f 18/79/46 72/78/44 78/81/46
f 17/82/45 82/83/47 76/84/45
f 78/85/46 20/86/48 18/87/46
f 82/83/47 17/82/45 19/88/47
f 20/86/48 78/85/46 84/89/48
f 19/90/47 88/91/49 82/92/47
f 84/93/48 22/94/50 20/95/48
f 88/91/49 19/90/47 21/96/49
f 22/94/50 84/93/48 90/97/50
f 23/98/51 88/99/49 21/100/49
f 90/101/50 24/102/52 22/103/50
f 88/99/49 23/98/51 93/104/51
f 24/102/52 90/101/50 96/105/52
f 96/106/52 23/107/51 24/108/52
f 23/107/51 96/106/52 93/109/51
