# created by Ethan Wu and Zhan isaac Ling
mtllib model.mtl
v -0.235935 -0.223495 0.352694
v 0.258098 -0.242746 0.352682
v -0.235939 -0.242746 0.352682
vn 0.000000 0.000000 -1.000000
v 0.258098 -0.223491 0.352682
v -0.235980 -0.242787 0.352723
v 0.258139 -0.242787 0.352723
v -0.235984 -0.223446 0.352709
vn 0.000000 0.000000 1.000000
v 0.258139 -0.223450 0.352723
v -0.235939 -0.242746 -0.352689
vn 0.000000 1.000000 0.000000
v -0.235980 -0.242787 -0.352730
vn 0.000000 -1.000000 0.000000
vn 1.000000 0.000000 0.000000
vn -1.000000 0.000000 0.000000
v 0.258098 -0.223491 -0.352689
vn 0.000000 -1.000000 0.000000
vn -1.000000 0.000000 0.000000
v 0.258098 -0.242746 -0.352689
v 0.258139 -0.242787 -0.352730
v -0.235929 -0.223455 -0.352704
v -0.235991 -0.223486 -0.352713
vn 0.000000 0.000000 1.000000
v -0.258139 -0.223491 0.352723
v -0.258098 -0.223450 0.352682
vn 0.000000 1.000000 0.000000
v -0.235985 -0.204174 0.352677
v -0.258139 -0.223491 -0.352730
v -0.258098 -0.223450 -0.352689
v -0.235935 -0.204174 0.352727
vn 0.000000 0.000000 -1.000000
v -0.235995 -0.200920 0.330495
v -0.258139 0.242787 -0.352730
v -0.258098 0.242746 -0.352689
vn 1.000000 0.000000 0.000000
v -0.258133 0.242781 0.352730
v -0.258104 0.242752 0.352673
v -0.235995 -0.200920 -0.330278
v -0.235988 0.242748 0.352693
v -0.235928 0.242777 -0.352720
v -0.235991 0.242756 -0.352699
v -0.235931 0.242786 0.352713
v -0.235995 0.220702 -0.330278
v -0.235995 0.220702 0.330495
v 0.258139 -0.223450 -0.352730
v -0.235924 -0.200920 0.330495
v -0.235924 -0.200920 -0.330278
v -0.235924 0.220702 -0.330278
v -0.235924 0.220702 0.330495
g mesh1-geometry-0
usemtl Material.57774a50243e5d429f3a4ea105ec3930
f 1//1 2//1 3//1
f 2//1 1//1 4//1
f 5//2 6//2 7//2
f 8//2 7//2 6//2
f 2//3 9//3 3//3
f 5//4 10//4 6//4
f 9//5 1//5 3//5
f 5//6 7//6 10//6
f 1//7 11//7 4//7
f 11//8 2//8 4//8
f 9//3 2//3 12//3
f 13//4 6//4 10//4
f 1//5 9//5 14//5
f 15//6 10//6 7//6
f 11//7 1//7 15//7
f 2//8 11//8 12//8
f 11//9 9//9 12//9
f 9//9 11//9 15//9
f 16//7 15//7 1//7
f 7//10 14//10 17//10
f 7//6 18//6 15//6
f 15//7 16//7 19//7
f 20//10 17//10 14//10
f 21//9 16//9 1//9
f 7//11 17//11 18//11
f 22//6 15//6 18//6
f 16//8 23//8 19//8
f 20//12 24//12 17//12
f 23//1 15//1 19//1
f 20//2 14//2 24//2
f 16//9 21//9 25//9
f 26//11 18//11 17//11
f 27//6 15//6 22//6
f 28//6 22//6 18//6
f 23//8 16//8 25//8
f 26//12 17//12 24//12
f 15//1 23//1 29//1
f 30//2 24//2 14//2
f 25//9 21//9 31//9
f 28//11 18//11 26//11
f 32//6 15//6 27//6
f 22//6 33//6 27//6
f 22//6 28//6 33//6
f 31//3 23//3 25//3
f 26//4 24//4 28//4
f 23//3 31//3 29//3
f 30//4 28//4 24//4
f 15//6 32//6 30//6
f 32//6 27//6 33//6
f 30//6 33//6 28//6
f 32//6 33//6 30//6
g mesh1-geometry-1
usemtl Material.90b00bf69165eda831fe702671104217
f 8//10 34//10 7//10
f 8//12 6//12 34//12
f 14//10 7//10 34//10
f 13//12 34//12 6//12
f 13//11 10//11 34//11
f 14//11 34//11 10//11
f 14//5 21//5 1//5
f 21//5 14//5 35//5
f 35//5 14//5 36//5
f 21//5 35//5 31//5
f 36//5 14//5 37//5
f 38//5 31//5 35//5
f 29//5 37//5 14//5
f 31//5 38//5 29//5
f 29//5 38//5 37//5
g mesh1-geometry-2
usemtl Material.dc7a3ca9ca091ddbf48733c3a604f557
f 36//5 38//5 35//5
f 38//5 36//5 37//5
