# created by Ethan Wu and Zhan isaac Ling
mtllib model.mtl
v 0.124284 -0.203511 -0.273652
v -0.099161 -0.203511 0.273652
v 0.124277 -0.203519 0.273654
vn 0.000000 1.000000 0.000000
vt 1.0 1.0
vt 0.0 2.00398
vt 0.0 1.0
v -0.099154 -0.203519 -0.273653
vt 1.0 2.00398
v 0.124320 -0.203534 0.273697
v -0.099191 -0.203542 0.273698
v 0.124314 -0.203542 -0.273697
vn 0.000000 -1.000000 0.000000
v -0.099198 -0.203534 -0.273696
v 0.124291 -0.196794 0.273659
vn 0.000000 0.000000 -1.000000
v 0.124307 -0.196844 0.273692
vn 0.000000 0.000000 1.000000
v -0.099154 -0.210234 0.273653
v -0.099198 -0.210234 0.273698
v -0.099168 -0.196794 -0.273658
vn 0.000000 0.000000 1.000000
v -0.099185 -0.196844 -0.273691
vn 0.000000 0.000000 -1.000000
v 0.124277 -0.210234 -0.273652
v 0.124321 -0.210234 -0.273697
v -0.099169 -0.196789 0.273668
v -0.099184 -0.196848 0.273683
v 0.124324 -0.196838 0.000001
vn 1.000000 0.000000 0.000000
v 0.124277 -0.210234 0.273653
v 0.124321 -0.210234 0.273698
v -0.099149 -0.196803 0.000001
vn 1.000000 0.000000 0.000000
v -0.099203 -0.196835 0.000001
vn -1.000000 0.000000 0.000000
v 0.124292 -0.196789 -0.273667
v 0.124306 -0.196848 -0.273682
v -0.099154 -0.210234 -0.273652
v -0.099198 -0.210234 -0.273697
v 0.124331 -0.210234 0.000001
v 0.149827 -0.196850 0.080493
v -0.099145 -0.210234 0.000001
v -0.099207 -0.210234 0.000001
v 0.303275 -0.196848 -0.305213
vn 0.000000 -1.000000 0.000000
v -0.152817 -0.196842 -0.305215
v -0.152815 -0.196840 0.000001
vn 0.000000 -1.000000 0.000000
v 0.263041 -0.196850 0.273675
v 0.303271 -0.196846 0.305213
v 0.243735 -0.196850 0.080493
v 0.149827 -0.196850 0.000001
v 0.149827 -0.196850 -0.080492
v 0.263041 -0.196850 -0.273675
v -0.152849 -0.196848 0.305222
v 0.303265 -0.196841 0.000001
v 0.263041 -0.196850 0.000001
v -0.150278 -0.196847 -0.311361
v -0.152859 -0.196795 -0.305215
v -0.185227 -0.205469 -0.305210
v -0.152861 -0.196797 0.000001
vn -0.253846 0.947366 0.195090
vn 0.212552 0.961568 0.173808
vn -0.258819 0.965926 0.000000
v -0.166752 -0.145004 0.000001
vn -0.965926 -0.258819 0.000000
v -0.152810 -0.243759 -0.305210
vn 0.980785 0.000000 0.195090
vn 1.000000 0.000000 0.000000
vn 0.873790 0.454182 0.173808
v -0.185218 -0.205472 0.000001
v -0.152827 -0.196790 0.305210
vn -0.258819 0.965926 0.000000
vn 0.500000 0.866025 0.000000
vn -0.253846 0.947366 -0.195090
vn -0.965926 -0.258819 0.000000
v -0.152816 -0.243751 0.000001
vn 1.000000 0.000000 0.000000
vn 0.980785 0.000000 -0.195090
vn 0.707107 0.707107 0.000000
v -0.150270 -0.196838 0.311354
v 0.303260 -0.243759 0.305211
vn -0.980785 0.000000 -0.195090
vn -0.873790 0.454182 -0.173808
v 0.243735 -0.196850 0.000001
v 0.217975 -0.196850 -0.080492
v 0.300718 -0.196833 -0.311351
v -0.150269 -0.243758 -0.311351
vn 0.707107 0.000000 0.707107
vn 0.621876 0.475963 0.621876
vn 0.500000 0.866025 0.000000
v -0.185884 -0.203014 -0.311351
vn 0.212552 0.961568 0.173808
vn 0.298792 0.723874 0.621876
v -0.153523 -0.194346 -0.311355
vn 0.707107 0.707107 0.000000
v -0.185227 -0.205469 0.305211
vn 0.212552 0.961568 -0.173808
v -0.153519 -0.194343 0.311353
v -0.152810 -0.243759 0.305211
vn 0.873790 0.454182 -0.173808
v 0.300725 -0.196845 0.311360
vn 0.707107 0.000000 -0.707107
v 0.303265 -0.243751 0.000001
vn -0.707107 0.707107 0.000000
v 0.300718 -0.243758 0.311352
vn -0.621876 0.475963 -0.621876
v 0.243735 -0.196850 -0.080492
vn -0.980785 0.000000 0.195090
v 0.303260 -0.243759 -0.305210
vn -0.707107 0.000000 0.707107
vn -0.873790 0.454182 0.173808
v 0.294577 -0.196836 -0.313895
v -0.144126 -0.196829 -0.313892
vn 0.195090 0.000000 0.980785
v -0.303260 0.235068 0.000001
vn 0.866025 -0.500000 0.000000
vn -0.183013 0.683013 0.707107
vn 0.298792 0.723874 0.621876
v -0.155113 -0.188411 -0.313899
vn -0.183013 0.683013 -0.707107
v -0.185884 -0.203014 0.311352
vn 0.298792 0.723874 -0.621876
v -0.155113 -0.188411 0.313900
v -0.144127 -0.196836 0.313896
vn -0.707107 0.000000 -0.707107
v -0.150269 -0.243758 0.311352
vn 0.621876 0.475963 -0.621876
v 0.300718 -0.243758 -0.311351
vn -0.621876 0.475963 0.621876
v 0.294576 -0.243759 -0.313893
vn -0.195090 0.000000 0.980785
vn -0.173808 0.454182 0.873790
v -0.144127 -0.243759 -0.313893
vn 0.173808 0.454182 0.873790
vn 0.866025 -0.500000 0.000000
vn -0.050493 0.188443 0.980785
v -0.187475 -0.197081 -0.313893
vn 0.393721 0.285436 0.873791
v -0.166747 -0.145008 -0.287098
vn 0.298792 0.723874 -0.621876
v -0.166752 -0.145002 0.287100
vn -0.050493 0.188443 -0.980785
v 0.294576 -0.196829 0.313892
v -0.144127 -0.243759 0.313894
vn 0.195090 0.000000 -0.980785
vn 0.173808 0.454182 -0.873790
vn -0.195090 0.000000 -0.980785
v -0.187475 -0.197081 0.313894
vn 0.393721 0.285436 -0.873791
v -0.301019 0.226673 -0.313893
vn 0.483690 -0.050335 0.873791
v -0.268664 0.235345 -0.313905
v -0.166706 -0.144963 -0.287082
v -0.173195 -0.146692 0.000001
v -0.166701 -0.144967 0.000001
vn -0.258819 0.965926 0.000000
v -0.173216 -0.146751 0.000001
vn 0.258819 -0.965926 0.000000
v -0.173193 -0.146699 0.287072
v -0.166701 -0.144969 0.287081
vn -0.258819 0.965926 0.000000
v -0.173218 -0.146744 0.287109
vn 0.258819 -0.965926 0.000000
v -0.268664 0.235345 0.313906
v 0.294576 -0.243759 0.313894
vn -0.173808 0.454182 -0.873790
v -0.301019 0.226673 0.313894
vn 0.483690 -0.050335 -0.873791
vn 0.050493 -0.188443 0.980785
v -0.302608 0.232606 -0.311351
vn 0.620698 -0.477498 0.621876
v -0.263970 0.217852 -0.287111
v -0.173188 -0.146706 -0.287069
v -0.173223 -0.146737 -0.287111
v -0.263925 0.217835 0.287072
vn 0.000000 0.000000 -1.000000
v -0.263969 0.217860 0.287109
vn 0.000000 0.000000 1.000000
vn 0.050493 -0.188443 -0.980785
v -0.302608 0.232606 0.311352
vn 0.620698 -0.477498 -0.621876
v -0.303267 0.235061 -0.305210
vn 0.664859 -0.726466 0.173808
v -0.270240 0.241278 -0.311351
vn 0.183013 -0.683013 0.707107
v -0.263976 0.217859 0.000001
v -0.263924 0.217843 -0.287069
vn 0.000000 0.000000 1.000000
vn 0.000000 0.000000 -1.000000
v -0.270456 0.216123 0.000001
vn -0.965926 -0.258819 0.000000
vn -0.965926 -0.258819 0.000000
v -0.270404 0.216098 0.287072
v -0.270449 0.216124 0.287109
v -0.270244 0.241279 0.311353
vn 0.183013 -0.683013 -0.707107
v -0.303267 0.235061 0.305211
vn 0.664859 -0.726466 -0.173808
v -0.270893 0.243733 -0.305209
vn 0.253846 -0.947366 0.195090
v -0.270915 0.243743 0.000001
v -0.263918 0.217836 0.000001
v -0.270407 0.216090 -0.287077
vn 0.258819 -0.965926 0.000000
v -0.270445 0.216133 -0.287103
vn -0.258819 0.965926 0.000000
v -0.270397 0.216100 0.000001
vn 0.258819 -0.965926 0.000000
vn -0.258819 0.965926 0.000000
v -0.270893 0.243733 0.305210
vn 0.620698 -0.477498 -0.621876
vn 0.253846 -0.947366 -0.195090
vn 0.664859 -0.726466 -0.173808
vn 0.258819 -0.965926 0.000000
vn 0.258819 -0.965926 0.000000
v 0.124274 -0.196799 0.000001
vn -1.000000 0.000000 0.000000
v 0.124268 -0.210234 0.000001
v 0.217975 -0.196850 0.000001
v 0.217975 -0.196850 0.080493
v 0.149827 -0.196787 0.080493
v 0.303299 -0.196790 -0.305217
vn 0.000000 1.000000 0.000000
vn 0.000000 1.000000 0.000000
v 0.303303 -0.196792 0.305219
v 0.263041 -0.196787 0.273675
v 0.243735 -0.196787 0.080493
v 0.149827 -0.196787 0.000001
v 0.149827 -0.196787 -0.080492
v 0.263041 -0.196787 -0.273675
v 0.303309 -0.196797 0.000001
v 0.263041 -0.196787 0.000001
v -0.150298 -0.196791 -0.311381
v -0.185240 -0.205530 -0.305221
vn 0.258819 -0.965926 0.000000
vn -0.212552 -0.961568 -0.173808
vn 0.253846 -0.947366 -0.195090
vn 0.965926 0.258819 0.000000
v -0.152865 -0.243787 -0.305221
vn -0.873790 -0.454182 -0.173808
vn -1.000000 0.000000 0.000000
vn -0.980785 0.000000 -0.195090
v -0.185249 -0.205526 0.000001
vn 0.253846 -0.947366 0.195090
vn -0.500000 -0.866025 0.000000
vn 0.258819 -0.965926 0.000000
vn 0.965926 0.258819 0.000000
v -0.152860 -0.243795 0.000001
vn -0.707107 -0.707107 0.000000
vn -0.980785 0.000000 0.195090
vn -1.000000 0.000000 0.000000
v -0.150306 -0.196800 0.311389
v 0.303315 -0.243787 0.305222
vn 0.873790 -0.454182 0.173808
vn 0.980785 0.000000 0.195090
v 0.243735 -0.196787 0.000001
v 0.217975 -0.196787 -0.080492
v 0.300757 -0.196805 -0.311391
v -0.150308 -0.243788 -0.311390
vn -0.621876 -0.475963 -0.621876
vn -0.707107 0.000000 -0.707107
vn -0.500000 -0.866025 0.000000
v -0.185903 -0.203059 -0.311390
vn -0.298792 -0.723874 -0.621876
vn -0.212552 -0.961568 -0.173808
v -0.153472 -0.194365 -0.311387
vn -0.707107 -0.707107 0.000000
v -0.185240 -0.205530 0.305222
vn -0.212552 -0.961568 0.173808
v -0.153476 -0.194369 0.311390
v -0.152865 -0.243787 0.305222
vn -0.873790 -0.454182 0.173808
v 0.300750 -0.196793 0.311384
vn -0.707107 0.000000 0.707107
v 0.303309 -0.243795 0.000001
vn 0.707107 -0.707107 0.000000
v 0.300757 -0.243788 0.311391
vn 0.621876 -0.475963 0.621876
v 0.243735 -0.196787 -0.080492
vn 0.980785 0.000000 -0.195090
v 0.303315 -0.243787 -0.305221
vn 0.873790 -0.454182 -0.173808
vn 0.707107 0.000000 -0.707107
v 0.294587 -0.196801 -0.313946
v -0.144138 -0.196809 -0.313949
vn -0.195090 0.000000 -0.980785
v -0.303315 0.235099 0.000001
vn -0.866025 0.500000 0.000000
vn 0.183013 -0.683013 -0.707107
vn -0.298792 -0.723874 -0.621876
v -0.155068 -0.188408 -0.313943
vn 0.183013 -0.683013 0.707107
v -0.185903 -0.203059 0.311391
vn -0.298792 -0.723874 0.621876
v -0.155068 -0.188408 0.313943
v -0.144137 -0.196801 0.313946
vn 0.707107 0.000000 0.707107
v -0.150308 -0.243788 0.311391
vn -0.621876 -0.475963 0.621876
v 0.300757 -0.243788 -0.311390
vn 0.621876 -0.475963 -0.621876
v 0.294587 -0.243787 -0.313949
vn 0.173808 -0.454182 -0.873790
vn 0.195090 0.000000 -0.980785
v -0.144138 -0.243787 -0.313949
vn -0.173808 -0.454182 -0.873790
vn -0.866025 0.500000 0.000000
vn 0.050493 -0.188443 -0.980785
v -0.187499 -0.197100 -0.313949
vn -0.393721 -0.285436 -0.873791
vn -0.298792 -0.723874 0.621876
vn 0.050493 -0.188443 0.980785
v 0.294588 -0.196809 0.313949
v -0.144138 -0.243787 0.313949
vn -0.173808 -0.454182 0.873790
vn -0.195090 0.000000 0.980785
vn 0.195090 0.000000 0.980785
v -0.187499 -0.197100 0.313949
vn -0.393721 -0.285436 0.873791
v -0.301049 0.226676 -0.313949
vn -0.483690 0.050335 -0.873791
v -0.268613 0.235365 -0.313937
v -0.268613 0.235365 0.313937
v 0.294587 -0.243787 0.313949
vn 0.173808 -0.454182 0.873790
v -0.301049 0.226676 0.313949
vn -0.483690 0.050335 0.873791
vn -0.050493 0.188443 -0.980785
v -0.302647 0.232636 -0.311390
vn -0.620698 0.477498 -0.621876
vn -0.050493 0.188443 0.980785
v -0.302647 0.232636 0.311391
vn -0.620698 0.477498 0.621876
v -0.303308 0.235107 -0.305221
vn -0.664859 0.726466 -0.173808
v -0.270223 0.241324 -0.311391
vn -0.183013 0.683013 -0.707107
v -0.270219 0.241323 0.311390
vn -0.183013 0.683013 0.707107
v -0.303308 0.235107 0.305222
vn -0.664859 0.726466 0.173808
v -0.270889 0.243795 -0.305221
vn -0.253846 0.947366 -0.195090
v -0.270868 0.243785 0.000001
v -0.270889 0.243795 0.305222
vn -0.253846 0.947366 0.195090
vn -0.620698 0.477498 0.621876
vn -0.664859 0.726466 0.173808
vn -0.258819 0.965926 0.000000
vn -0.258819 0.965926 0.000000
v 0.217975 -0.196787 0.000001
v 0.217975 -0.196787 0.080493
vn 0.965926 0.258819 0.000000
vt 0.017879 -0.283536
vt 0.19961 -0.521314
vt 0.19961 -0.283536
vn 0.965926 0.258819 0.000000
vt 0.19961 -0.521314
vt 0.017879 -0.283536
vt 0.19961 -0.283536
vt 0.017879 -0.521314
vt 0.017879 -0.521314
g mesh1-geometry-0
usemtl Material.e6a6298ff53efe4150e122edc010a6a6
f 1/1/1 2/2/1 3/3/1
f 2/2/1 1/1/1 4/4/1
g mesh1-geometry-1
usemtl Material.90b00bf69165eda831fe702671104217
f 5//2 6//2 7//2
f 8//2 7//2 6//2
f 2//3 9//3 3//3
f 5//4 10//4 6//4
f 3//3 11//3 2//3
f 6//4 12//4 5//4
f 1//5 13//5 4//5
f 8//6 14//6 7//6
f 4//5 15//5 1//5
f 7//6 16//6 8//6
f 9//3 2//3 17//3
f 18//4 6//4 10//4
f 10//7 5//7 19//7
f 11//3 3//3 20//3
f 21//4 5//4 12//4
f 11//8 22//8 2//8
f 6//9 23//9 12//9
f 13//5 1//5 24//5
f 25//6 7//6 14//6
f 22//8 4//8 13//8
f 14//9 8//9 23//9
f 15//5 4//5 26//5
f 27//6 8//6 16//6
f 7//7 19//7 16//7
f 2//8 22//8 17//8
f 18//9 23//9 6//9
f 19//7 5//7 28//7
f 19//2 29//2 10//2
f 21//7 28//7 5//7
f 22//8 11//8 30//8
f 31//9 12//9 23//9
f 25//7 19//7 7//7
f 14//10 32//10 25//10
f 30//8 4//8 22//8
f 23//9 8//9 31//9
f 14//10 23//10 33//10
f 4//8 30//8 26//8
f 27//9 31//9 8//9
f 28//7 16//7 19//7
f 23//11 18//11 34//11
f 35//11 36//11 18//11
f 10//2 37//2 35//2
f 37//2 10//2 29//2
f 38//2 29//2 19//2
f 25//2 39//2 19//2
f 25//10 32//10 40//10
f 33//10 32//10 14//10
f 34//10 33//10 23//10
f 34//11 18//11 41//11
f 18//11 36//11 41//11
f 36//11 35//11 42//11
f 43//2 35//2 37//2
f 38//2 19//2 39//2
f 40//2 39//2 25//2
f 40//10 32//10 43//10
f 44//10 32//10 33//10
f 45//12 46//13 47//14
f 47//15 48//15 45//15
f 33//16 34//17 49//18
f 47//19 50//20 51//21
f 47//22 41//22 48//22
f 34//23 51//24 52//25
f 41//11 36//11 53//11
f 43//11 42//11 35//11
f 36//26 42//9 54//27
f 55//2 43//2 37//2
f 39//2 40//2 56//2
f 42//10 43//10 32//10
f 43//2 55//2 40//2
f 57//10 32//10 44//10
f 44//28 33//16 58//29
f 50//30 47//14 46//13
f 46//31 45//12 59//32
f 60//15 45//15 48//15
f 52//33 49//18 34//17
f 49//18 58//29 33//16
f 61//34 51//21 50//20
f 62//22 48//22 51//22
f 63//35 52//25 51//24
f 36//11 64//11 53//11
f 51//24 53//36 63//35
f 65//37 54//27 42//9
f 54//27 66//38 36//26
f 56//2 40//2 67//2
f 42//9 32//39 65//37
f 67//2 40//2 55//2
f 32//39 57//40 68//41
f 69//10 57//10 44//10
f 44//28 58//29 70//42
f 50//30 46//13 71//43
f 60//44 59//32 45//12
f 59//45 71//43 46//13
f 72//15 60//15 48//15
f 52//33 65//37 49//18
f 58//29 49//18 68//41
f 51//21 61//34 62//46
f 61//34 50//20 73//47
f 74//22 48//22 62//22
f 52//25 63//35 54//27
f 53//11 64//11 75//11
f 64//48 36//26 66//38
f 76//49 63//35 53//36
f 65//37 52//25 54//27
f 54//27 63//35 66//38
f 68//41 65//37 32//39
f 77//50 68//41 57//40
f 69//51 78//52 57//40
f 70//10 69//10 44//10
f 79//53 70//42 58//29
f 71//54 73//47 50//20
f 60//44 72//55 59//45
f 80//56 71//43 59//45
f 81//15 72//15 48//15
f 68//41 49//18 65//37
f 77//50 58//29 68//41
f 73//57 62//46 61//34
f 82//22 48//22 74//22
f 62//46 73//57 74//58
f 83//11 75//11 64//11
f 75//59 84//60 53//36
f 64//48 66//38 83//61
f 63//35 76//49 66//38
f 76//49 53//36 84//60
f 77//50 57//40 78//52
f 78//52 69//51 79//53
f 70//42 79//53 69//51
f 79//53 58//29 77//50
f 85//62 73//47 71//54
f 80//56 59//45 72//55
f 86//63 71//43 80//56
f 87//15 72//15 81//15
f 88//64 89//64 90//64
f 48//65 91//65 81//65
f 90//66 92//66 93//66
f 82//67 94//67 48//67
f 95//22 82//22 74//22
f 85//62 74//58 73//57
f 83//61 96//68 75//59
f 84//60 75//59 96//68
f 96//68 83//61 66//38
f 66//38 76//49 96//68
f 84//60 96//68 76//49
f 78//52 79//53 77//50
f 97//69 85//62 71//54
f 72//55 87//70 80//56
f 98//71 71//43 86//63
f 86//63 80//56 87//70
f 99//15 87//15 81//15
f 89//64 88//64 100//64
f 101//65 81//65 91//65
f 92//66 90//66 89//66
f 91//67 48//67 94//67
f 92//72 102//72 93//72
f 82//73 103//73 94//73
f 103//22 82//22 95//22
f 74//58 85//62 95//74
f 97//69 95//74 85//62
f 104//75 97//69 71//54
f 105//76 71//43 98//71
f 98//71 86//63 106//77
f 87//70 106//77 86//63
f 107//15 87//15 99//15
f 108//78 100//78 88//78
f 81//79 101//79 99//79
f 91//80 109//80 101//80
f 91//81 94//81 109//81
f 102//72 92//72 110//72
f 111//73 94//73 103//73
f 107//22 103//22 95//22
f 95//74 97//69 112//82
f 104//75 112//82 97//69
f 113//83 104//75 71//54
f 105//76 114//84 71//43
f 98//71 106//77 105//76
f 106//15 87//15 115//15
f 115//15 87//15 107//15
f 116//85 117//85 108//85
f 99//86 118//86 107//86
f 100//78 108//78 117//78
f 118//79 99//79 101//79
f 118//80 101//80 109//80
f 111//81 109//81 94//81
f 119//87 102//87 110//87
f 111//88 103//88 109//88
f 102//87 119//87 116//87
f 107//88 109//88 103//88
f 115//22 107//22 95//22
f 112//22 115//22 95//22
f 112//82 104//89 120//90
f 113//91 120//90 104//89
f 71//54 115//92 113//91
f 115//93 71//43 114//84
f 114//84 105//76 106//77
f 114//15 106//15 115//15
f 117//85 116//85 119//85
f 109//86 107//86 118//86
f 120//22 115//22 112//22
f 120//90 113//91 115//92
g mesh1-geometry-2
usemtl Material.efc39ebbb3cc1048a02a4c783fdc17fc
f 121//94 3//94 9//94
f 15//94 121//94 1//94
f 122//94 3//94 121//94
f 3//94 122//94 20//94
f 1//94 121//94 24//94
f 121//94 15//94 122//94
f 38//2 123//2 29//2
f 37//2 124//2 55//2
f 124//2 29//2 123//2
f 123//2 38//2 56//2
f 39//2 56//2 38//2
f 123//2 55//2 124//2
f 56//2 67//2 123//2
f 55//2 123//2 67//2
g mesh1-geometry-3
usemtl Material.b2cdaf4394d1a4f850458878b81c7fa1
f 9//1 125//1 121//1
f 24//95 126//95 13//95
f 45//95 22//95 13//95
f 47//96 17//96 22//96
f 17//96 127//96 128//96
f 128//1 129//1 9//1
f 125//1 9//1 129//1
f 121//1 125//1 130//1
f 121//1 131//1 24//1
f 132//95 126//95 24//95
f 13//95 126//95 45//95
f 22//95 45//95 47//95
f 51//96 17//96 47//96
f 51//96 127//96 17//96
f 133//96 128//96 127//96
f 129//1 128//1 134//1
f 131//1 121//1 130//1
f 24//1 131//1 132//1
f 134//95 126//95 132//95
f 45//95 126//95 135//95
f 34//97 136//98 33//99
f 33//100 90//100 34//100
f 137//101 47//102 45//103
f 41//104 138//105 34//106
f 90//107 51//107 34//107
f 139//108 41//109 47//110
f 140//96 127//96 51//96
f 128//96 133//96 134//96
f 141//111 133//8 127//112
f 129//1 134//1 142//1
f 143//1 132//1 131//1
f 126//95 134//95 133//95
f 132//1 142//1 134//1
f 135//95 126//95 144//95
f 145//113 45//103 135//114
f 136//98 34//97 138//115
f 146//116 33//99 136//117
f 90//100 33//100 147//100
f 47//102 137//101 139//118
f 45//103 145//113 137//101
f 138//105 41//104 148//119
f 41//107 90//107 149//107
f 41//109 139//108 150//120
f 140//96 151//96 127//96
f 150//120 140//121 41//109
f 133//8 141//111 152//122
f 127//112 153//123 141//111
f 154//1 132//1 143//1
f 152//122 126//124 133//8
f 142//1 132//1 154//1
f 155//125 144//126 126//124
f 135//95 144//95 156//95
f 157//127 145//113 135//114
f 158//128 136//98 138//115
f 33//99 146//116 147//129
f 136//98 158//128 146//130
f 90//100 147//100 159//100
f 137//101 152//122 139//118
f 155//125 137//101 145//113
f 149//131 148//119 41//104
f 160//132 138//105 148//119
f 149//107 90//107 161//107
f 141//111 150//120 139//108
f 162//96 151//96 140//96
f 153//123 127//112 151//133
f 140//121 150//120 163//134
f 141//111 139//108 152//122
f 153//123 150//120 141//111
f 126//124 152//122 155//125
f 144//126 155//125 164//135
f 144//126 165//136 156//137
f 135//95 156//95 157//95
f 145//113 157//127 166//138
f 138//105 160//132 158//139
f 146//130 159//140 147//129
f 146//130 158//128 167//141
f 90//100 159//100 88//100
f 152//122 137//101 155//125
f 155//125 145//113 164//135
f 148//119 149//131 160//142
f 161//107 90//107 93//107
f 161//143 160//142 149//131
f 151//96 162//96 168//96
f 140//121 169//144 162//145
f 168//146 153//123 151//133
f 153//123 163//134 150//120
f 169//144 140//121 163//134
f 165//136 144//126 164//135
f 166//138 156//137 165//136
f 156//137 166//138 157//127
f 164//135 145//113 166//138
f 158//139 160//132 170//147
f 159//140 146//130 167//141
f 167//141 158//128 171//148
f 88//100 159//100 172//100
f 161//107 93//107 173//107
f 160//142 161//143 170//147
f 162//145 174//149 168//146
f 174//149 162//145 169//144
f 153//123 168//146 174//149
f 174//149 163//134 153//123
f 163//134 174//149 169//144
f 164//135 166//138 165//136
f 158//139 170//147 175//150
f 167//141 172//151 159//140
f 171//148 158//128 176//152
f 172//151 167//141 171//148
f 88//100 172//100 108//100
f 173//107 93//107 102//107
f 173//153 170//147 161//143
f 170//147 173//153 175//150
f 158//139 175//150 177//154
f 176//152 158//128 178//155
f 179//156 171//148 176//152
f 171//148 179//156 172//151
f 108//100 172//100 116//100
f 173//107 102//107 116//107
f 180//157 175//150 173//153
f 175//150 180//157 177//154
f 158//139 177//154 181//158
f 158//128 182//159 178//155
f 178//155 179//156 176//152
f 183//100 172//100 179//100
f 116//100 172//100 183//100
f 173//107 116//107 183//107
f 173//107 183//107 180//107
f 184//160 177//161 180//157
f 177//161 184//160 181//162
f 181//162 183//163 158//139
f 182//159 158//128 183//164
f 179//156 178//155 182//159
f 183//100 179//100 182//100
f 180//107 183//107 184//107
f 183//163 181//162 184//160
g mesh1-geometry-4
usemtl Material.1a9b9f2ffc3bd045e8f97d5062c1c924
f 125//1 185//1 130//1
f 142//1 186//1 129//1
f 185//1 125//1 186//1
f 143//1 130//1 185//1
f 130//1 143//1 131//1
f 186//1 142//1 185//1
f 185//1 154//1 143//1
f 154//1 185//1 142//1
g mesh1-geometry-5
usemtl Material.adfca2fb27c1e89c3ee819ce9372e850
f 100/5/165 119/6/165 89/7/165
f 119/8/166 92/9/166 89/10/166
f 119/6/165 100/5/165 117/11/165
f 92/9/166 119/8/166 110/12/166
