# created by Ethan Wu and Zhan isaac Ling
mtllib model.mtl
v 0.044957 -0.120251 0.398828
v 0.044964 -0.101075 0.381350
v 0.044954 0.234478 0.398832
vn 1.000000 0.000000 0.000000
vt -3.78519 1.22793
vt -3.71579 1.30408
vt -3.78519 2.63765
v 0.044947 -0.120263 -0.397956
vt -0.618525 1.22793
v 0.044964 0.220421 0.381350
vt -3.71579 2.58186
v -0.005775 -0.120255 0.398832
vn 0.000000 0.000000 1.000000
vt 0.201389 2.63765
vt 0.0 1.22793
vt 0.201389 1.22793
v 0.044964 -0.101075 -0.374340
vt -0.712315 1.30408
v 0.044952 0.234468 -0.397966
vt -0.618525 2.63765
v -0.005769 0.234482 0.398836
vt 0.0 2.63765
v 0.044964 0.220421 -0.374340
vt -0.712315 2.58186
v -0.005776 0.234470 -0.397962
vn 0.000000 1.000000 0.000000
vt 0.0 -0.618525
vt 0.201389 -3.78519
vt 0.201389 -0.618525
vt 0.0 -3.78519
v 0.025378 -0.024991 -0.397968
vn 0.000000 0.000000 -1.000000
vt -0.201389 2.63765
vt -0.12378 1.60655
v 0.025386 -0.107081 -0.397975
vt -0.201389 1.22793
vt -0.12378 1.28016
v 0.013183 -0.024988 -0.397971
vt -0.075169 1.60655
v 0.013183 -0.107076 -0.397971
vt -0.075169 1.28016
v -0.005762 -0.120251 -0.397971
v 0.044895 0.234439 0.398793
v 0.044885 -0.101075 0.381350
v 0.044892 -0.120219 0.398796
vn -1.000000 0.000000 0.000000
v 0.044902 -0.120207 -0.397922
v 0.044885 0.220421 0.381350
v -0.005717 -0.120216 0.398793
vn 0.000000 0.000000 -1.000000
vn 0.000000 -1.000000 0.000000
vn 0.000000 1.000000 0.000000
v 0.044885 -0.101075 -0.374340
v 0.044897 0.234449 -0.397911
v 0.044887 -0.048804 0.323132
v -0.005723 0.234436 0.398789
v -0.005763 -0.120269 0.213566
v -0.005729 -0.120202 0.213593
v 0.044885 0.220421 -0.374340
v -0.005716 0.234447 -0.397915
vn 0.000000 -1.000000 0.000000
v 0.044889 0.180982 0.323134
vn 1.000000 0.000000 0.000000
v -0.005772 -0.120266 0.210959
v -0.005720 -0.120205 0.210959
v -0.005711 -0.076568 0.210945
v 0.044885 -0.074914 -0.350800
v 0.044885 -0.085511 -0.334227
v 0.025417 -0.024952 -0.397910
vn 0.000000 0.000000 1.000000
v 0.027429 0.180993 0.323146
v -0.005757 -0.120273 -0.215378
v -0.005735 -0.120197 -0.215367
v 0.189570 -0.234482 0.213590
vn -0.504754 -0.863263 0.000000
v 0.025410 -0.107105 -0.397902
v 0.044885 -0.071995 -0.350280
v 0.044885 -0.077868 -0.350547
v 0.044885 -0.086520 -0.337015
v 0.044885 -0.083814 -0.331796
v 0.044892 0.180986 -0.317265
v 0.013151 -0.024955 -0.397906
v 0.027429 -0.048818 0.323146
v -0.005707 -0.076554 -0.215382
v -0.005730 -0.120219 -0.397906
v -0.042462 -0.120258 0.210982
v -0.042415 -0.120212 0.210936
v -0.005785 -0.076554 -0.215363
vn -1.000000 0.000000 0.000000
v -0.005781 -0.076540 0.210973
v -0.042435 -0.120197 -0.215383
v -0.042443 -0.120274 -0.215362
v 0.189600 -0.234410 0.213570
v -0.189578 -0.234414 0.213557
vn 0.000000 0.000000 -1.000000
v 0.013151 -0.107109 -0.397906
v 0.044885 -0.069310 -0.349023
v 0.044885 -0.080655 -0.349537
v 0.044885 -0.086774 -0.339969
v 0.044885 -0.064602 -0.336021
v 0.044885 -0.065859 -0.333336
v 0.044885 -0.081546 -0.329886
v 0.044885 -0.072988 -0.328362
v 0.025378 -0.107073 -0.397094
v 0.025417 -0.107112 -0.397036
v 0.013173 -0.024978 -0.397104
v 0.013160 -0.024965 -0.397026
v 0.027429 -0.048818 -0.317271
v 0.027429 0.180993 -0.317271
v -0.042415 -0.076577 -0.215349
v 0.189576 -0.234427 -0.215339
v -0.042415 -0.076577 0.210936
v -0.042455 -0.120201 0.213593
v -0.042422 -0.120269 0.213567
vn 0.000000 0.000000 1.000000
vn 0.000000 1.000000 0.000000
v 0.044885 -0.067042 -0.347113
v 0.044885 -0.083087 -0.347841
v 0.044885 -0.086254 -0.342888
v 0.044885 -0.064082 -0.338940
v 0.044885 -0.067769 -0.331068
v 0.044885 -0.078861 -0.328629
v 0.044885 -0.075942 -0.328109
v 0.044885 -0.070201 -0.329372
v 0.025394 -0.024975 -0.397104
v 0.025401 -0.024968 -0.397026
v 0.044889 -0.048807 -0.317261
v -0.189542 -0.234460 -0.215349
vn 0.613186 -0.789938 0.000000
v -0.189564 -0.234478 0.213603
v 0.013183 -0.107076 -0.397098
v 0.013151 -0.107109 -0.397032
v 0.044885 -0.065345 -0.344682
v 0.044885 -0.084996 -0.345573
v 0.044885 -0.064336 -0.341894
v 0.020238 -0.097994 -0.397029
v 0.020316 -0.029241 -0.397036
v 0.018519 -0.097989 -0.397032
v 0.020234 -0.087538 -0.397032
v 0.020323 -0.038819 -0.397029
v 0.018604 -0.029237 -0.397032
v 0.018487 -0.098022 -0.397098
v 0.020273 -0.098028 -0.398836
v 0.020262 -0.098018 -0.397101
v 0.020227 -0.097983 -0.398789
v 0.020267 -0.087506 -0.397098
v 0.019991 -0.076283 -0.397029
v 0.018515 -0.087534 -0.397029
v 0.020185 -0.039962 -0.397032
v 0.020358 -0.038854 -0.398836
v 0.020354 -0.029202 -0.397094
v 0.020347 -0.038843 -0.397101
v 0.020312 -0.038808 -0.398789
v 0.018604 -0.038815 -0.397032
v 0.018565 -0.029198 -0.398836
v 0.018571 -0.029205 -0.397098
v 0.018611 -0.029244 -0.398789
v 0.018480 -0.098028 -0.398836
v 0.018526 -0.097983 -0.398789
v 0.020273 -0.087499 -0.398836
v 0.020227 -0.087545 -0.398789
v 0.018272 -0.076278 -0.397032
v 0.019987 -0.065828 -0.397032
v 0.018480 -0.087499 -0.398836
v 0.018491 -0.087510 -0.397101
v 0.018526 -0.087545 -0.398789
v 0.020190 -0.047796 -0.397029
v 0.020358 -0.029198 -0.398836
v 0.020312 -0.029244 -0.398789
v 0.018571 -0.038847 -0.397098
v 0.018466 -0.039957 -0.397029
v 0.018240 -0.076311 -0.397098
v 0.020026 -0.076318 -0.398836
v 0.020015 -0.076307 -0.397101
v 0.019980 -0.076272 -0.398789
v 0.020020 -0.065795 -0.397098
v 0.020078 -0.063896 -0.397029
v 0.018268 -0.065823 -0.397029
v 0.020074 -0.053441 -0.397032
v 0.020225 -0.047831 -0.398836
v 0.020218 -0.039929 -0.397098
v 0.020214 -0.047820 -0.397101
v 0.020179 -0.047785 -0.398789
v 0.018565 -0.038854 -0.398836
v 0.018611 -0.038808 -0.398789
v 0.018471 -0.047792 -0.397032
v 0.018233 -0.076318 -0.398836
v 0.018279 -0.076272 -0.398789
v 0.020026 -0.065788 -0.398836
v 0.019980 -0.065834 -0.398789
v 0.018359 -0.063892 -0.397032
v 0.018233 -0.065788 -0.398836
v 0.018244 -0.065799 -0.397101
v 0.018279 -0.065834 -0.398789
v 0.020225 -0.039922 -0.398836
v 0.020179 -0.039969 -0.398789
v 0.018438 -0.047824 -0.397098
v 0.018431 -0.039922 -0.398836
v 0.018442 -0.039933 -0.397101
v 0.018477 -0.039969 -0.398789
v 0.018355 -0.053437 -0.397029
v 0.018327 -0.063925 -0.397098
v 0.020113 -0.063932 -0.398836
v 0.020102 -0.063920 -0.397101
v 0.020067 -0.063885 -0.398789
v 0.020107 -0.053409 -0.397098
v 0.018431 -0.047831 -0.398836
v 0.018477 -0.047785 -0.398789
v 0.018320 -0.063932 -0.398836
v 0.018366 -0.063885 -0.398789
v 0.020113 -0.053402 -0.398836
v 0.020067 -0.053448 -0.398789
v 0.018320 -0.053402 -0.398836
v 0.018331 -0.053413 -0.397101
v 0.018366 -0.053448 -0.398789
v 0.044962 -0.048785 0.323113
vt -2.22947 1.95612
vt -2.09062 2.2678
vt -2.22947 3.87279
vt -0.427389 1.95612
v 0.044961 0.180958 0.323110
vt -2.09062 3.63759
v 0.044964 -0.074914 -0.350800
vt -0.427389 3.87279
vt -0.483526 2.11209
v 0.044964 -0.085511 -0.334227
vt -0.523047 2.04891
v 0.044964 -0.071995 -0.350280
vt -0.484765 2.12949
v 0.044964 -0.077868 -0.350547
vt -0.48413 2.09448
v 0.044964 -0.086520 -0.337015
vt -0.516399 2.04289
v 0.044964 -0.083814 -0.331796
vt -0.528845 2.05902
v 0.044957 0.180954 -0.317232
vt -0.563535 3.63759
v 0.044964 -0.069310 -0.349023
vt -0.487764 2.14549
v 0.044964 -0.080655 -0.349537
vt -0.486537 2.07786
v 0.044964 -0.086774 -0.339969
vt -0.509355 2.04138
v 0.044964 -0.081546 -0.329886
vt -0.533399 2.07255
v 0.044964 -0.072988 -0.328362
vt -0.537032 2.12356
v 0.044964 -0.067042 -0.347113
vt -0.492317 2.15902
v 0.044964 -0.083087 -0.347841
vt -0.490583 2.06336
v 0.044964 -0.086254 -0.342888
vt -0.502394 2.04448
v 0.044964 -0.078861 -0.328629
vt -0.536397 2.08855
v 0.044964 -0.075942 -0.328109
vt -0.537637 2.10595
v 0.044964 -0.070201 -0.329372
vt -0.534625 2.14019
v 0.044964 -0.065345 -0.344682
vt -0.498115 2.16913
v 0.044964 -0.084996 -0.345573
vt -0.495991 2.05198
v 0.044964 -0.065859 -0.333336
v 0.044964 -0.064602 -0.336021
vt -0.525171 2.16606
vt -0.518768 2.17356
v 0.044964 -0.064082 -0.338940
vt -0.511808 2.17666
v 0.044964 -0.067769 -0.331068
vt -0.530579 2.15468
v 0.044961 -0.048783 -0.317236
vt -0.563535 2.2678
v 0.044964 -0.064336 -0.341894
vt -0.504763 2.17515
vt 1.23705 10.5506
vt 7.57038 4.91171
vt 7.57038 10.5506
vt 6.07715 5.60616
vt 6.09798 4.91171
vt 6.07715 4.91171
vt 2.68826 5.60616
vt 2.68826 4.91171
vt 1.23705 4.91171
v 0.027475 0.180947 0.323099
vt -2.41667 18.1424
vt -1.58333 29.1007
vt -2.41667 29.1007
v 0.027475 -0.048772 0.323099
vt -1.58333 18.1424
vt -1.58333 -41.8124
vt -2.41667 -11.2707
vt -2.41667 -41.8124
v 0.027475 -0.048772 -0.317226
vt 2.41667 -41.8124
vt 1.58333 -11.2707
vt 1.58333 -41.8124
v 0.027475 0.180947 -0.317226
vt -1.58333 -11.2707
vt 2.41667 -11.2707
vt 1.58333 18.1424
vt 2.41667 29.1007
vt 1.58333 29.1007
vt 2.41667 18.1424
vn 0.504754 0.863263 0.000000
vt -4.57349 -0.419257
vt -4.55786 0.929702
vt -4.57349 0.929702
vt -2.01619 0.929702
vn 0.000000 0.000000 1.000000
vt -0.0 1.84189
vt -1.09591 1.161
vt 1.16451 1.161
v 0.189593 -0.234465 -0.215406
vt -2.01619 -0.419257
vn 0.000000 0.000000 -1.000000
vt -1.16451 1.161
vt 0.21875 1.84189
vt 0.0 1.84189
vt -0.21875 1.84189
vn 0.000000 -1.000000 0.000000
vt 1.09591 -4.57349
vt -1.16451 -2.01619
vt -1.16451 -4.57349
v -0.189600 -0.234432 -0.215396
vn -0.613186 0.789938 0.000000
vt 2.01619 -0.153792
vt 4.57349 0.956624
vt 2.01619 0.956624
vt 1.09591 1.161
vt 4.57349 -0.153792
vt 1.09591 -2.01619
vt 0.0 8.40924
vt -0.4375 7.36757
vt 0.0 7.36757
v -0.042462 -0.076531 -0.215396
vt -0.4375 -8.06478
vt 0.0 -18.2314
vt 0.0 -8.06478
vt 0.4375 8.40924
v -0.042462 -0.076531 0.210982
vt -0.4375 8.40924
vt 0.4375 7.36757
vt -0.4375 -18.2314
vt 9.11572 7.36757
vt 4.03239 8.40924
vt 4.03239 7.36757
vt 9.11572 8.40924
vt -0.742682 18.8877
vt -0.619931 19.4205
vt -0.742682 23.7032
vt -0.621949 23.454
vt -0.451015 23.7032
vt -0.451015 18.8877
vt -0.578264 19.4205
vt -0.619931 20.0353
vt -0.621949 22.8905
vt -0.580282 23.454
vt -0.614042 20.6936
vt -0.578264 20.0353
vt -0.618772 22.8252
vt -0.580282 22.8905
vt -0.572375 20.6936
vt -0.614042 21.3084
vt -0.618772 22.3641
vt -0.577105 22.8252
vt -0.61612 21.42
vt -0.572375 21.3084
vt -0.61612 22.0347
vt -0.577105 22.3641
vt -0.574453 21.42
vt -0.574453 22.0347
g mesh1-geometry-0
usemtl Material.e6a6298ff53efe4150e122edc010a6a6
f 1/1/1 2/2/1 3/3/1
f 2/2/1 1/1/1 4/4/1
f 5/5/1 3/3/1 2/2/1
f 3/6/2 6/7/2 1/8/2
f 2/2/1 4/4/1 7/9/1
f 3/3/1 5/5/1 8/10/1
f 6/7/2 3/6/2 9/11/2
f 7/9/1 4/4/1 10/12/1
f 8/10/1 5/5/1 10/12/1
f 11/13/3 3/14/3 8/15/3
f 3/14/3 11/13/3 9/16/3
f 8/10/1 10/12/1 4/4/1
f 8/17/4 12/18/4 11/11/4
f 4/19/4 13/20/4 8/17/4
f 8/17/4 13/20/4 12/18/4
f 14/21/4 11/11/4 12/18/4
f 13/20/4 4/19/4 15/22/4
f 15/22/4 11/11/4 14/21/4
f 16/7/4 15/22/4 4/19/4
f 15/22/4 16/7/4 11/11/4
g mesh1-geometry-1
usemtl Material.90b00bf69165eda831fe702671104217
f 17//5 18//5 19//5
f 20//5 19//5 18//5
f 18//5 17//5 21//5
f 19//6 22//6 17//6
f 6//7 4//7 1//7
f 19//8 20//8 22//8
f 23//5 20//5 18//5
f 24//5 21//5 17//5
f 21//5 25//5 18//5
f 26//6 17//6 22//6
f 27//7 4//7 6//7
f 22//8 20//8 28//8
f 29//5 20//5 23//5
f 23//5 18//5 25//5
f 29//5 21//5 24//5
f 24//9 17//9 30//9
f 25//5 21//5 31//5
f 26//9 30//9 17//9
f 26//10 22//10 30//10
f 32//7 4//7 27//7
f 28//8 20//8 33//8
f 28//10 34//10 22//10
f 20//5 29//5 24//5
f 23//5 35//5 29//5
f 36//5 23//5 25//5
f 29//5 31//5 21//5
f 30//11 37//11 24//11
f 31//11 38//11 25//11
f 34//10 30//10 22//10
f 39//7 4//7 32//7
f 33//8 20//8 40//8
f 34//10 28//10 33//10
f 27//12 32//12 41//12
f 24//11 42//11 20//11
f 35//5 43//5 29//5
f 35//5 23//5 44//5
f 45//5 23//5 36//5
f 46//5 36//5 25//5
f 47//5 31//5 29//5
f 37//11 42//11 24//11
f 37//11 30//11 48//11
f 49//11 25//11 38//11
f 31//8 47//8 38//8
f 50//10 30//10 34//10
f 4//7 39//7 16//7
f 51//8 40//8 20//8
f 52//7 39//7 32//7
f 33//8 40//8 53//8
f 32//13 54//13 40//13
f 39//10 50//10 33//10
f 39//12 41//12 32//12
f 32//6 53//6 34//6
f 54//13 32//13 55//13
f 34//10 33//10 50//10
f 56//3 28//3 40//3
f 39//9 27//9 57//9
f 58//14 59//14 27//14
f 60//11 20//11 42//11
f 43//5 61//5 29//5
f 35//5 44//5 43//5
f 44//5 23//5 62//5
f 63//5 23//5 45//5
f 45//5 36//5 64//5
f 36//5 46//5 65//5
f 66//5 46//5 25//5
f 67//5 47//5 29//5
f 68//13 12//13 13//13
f 42//10 37//10 69//10
f 48//11 30//11 60//11
f 12//7 70//7 14//7
f 48//8 71//8 37//8
f 49//9 72//9 25//9
f 49//5 38//5 72//5
f 73//8 38//8 47//8
f 40//10 30//10 50//10
f 54//9 34//9 74//9
f 51//10 30//10 40//10
f 20//11 60//11 51//11
f 39//7 52//7 57//7
f 56//8 53//8 40//8
f 54//11 74//11 40//11
f 75//12 41//12 39//12
f 76//6 34//6 53//6
f 28//3 56//3 77//3
f 78//9 57//9 27//9
f 56//11 40//11 74//11
f 39//15 57//15 75//15
f 78//14 27//14 59//14
f 58//16 75//16 59//16
f 15//3 68//3 13//3
f 42//9 69//9 60//9
f 61//5 79//5 29//5
f 43//5 62//5 61//5
f 44//5 62//5 43//5
f 62//5 23//5 80//5
f 81//5 23//5 63//5
f 63//5 45//5 82//5
f 64//5 36//5 65//5
f 82//5 45//5 64//5
f 65//5 46//5 83//5
f 46//5 66//5 83//5
f 84//5 66//5 25//5
f 85//5 47//5 67//5
f 86//5 67//5 29//5
f 12//13 68//13 87//13
f 88//10 69//10 37//10
f 30//11 51//11 60//11
f 70//1 15//1 14//1
f 48//5 60//5 71//5
f 70//7 12//7 87//7
f 88//8 37//8 71//8
f 89//9 25//9 72//9
f 73//5 72//5 38//5
f 73//6 47//6 72//6
f 76//9 74//9 34//9
f 56//10 74//10 53//10
f 76//10 53//10 74//10
f 57//17 78//17 90//17
f 90//15 75//15 57//15
f 91//17 90//17 78//17
f 90//16 59//16 75//16
f 68//3 15//3 92//3
f 93//9 60//9 69//9
f 79//5 94//5 29//5
f 61//5 80//5 79//5
f 62//5 80//5 61//5
f 80//5 23//5 95//5
f 95//5 23//5 81//5
f 81//5 63//5 96//5
f 96//5 63//5 82//5
f 64//5 65//5 29//5
f 82//5 64//5 29//5
f 65//5 83//5 29//5
f 83//5 66//5 86//5
f 66//5 84//5 86//5
f 89//5 84//5 25//5
f 47//5 85//5 89//5
f 85//5 67//5 84//5
f 86//5 84//5 67//5
f 83//5 86//5 29//5
f 88//11 97//11 69//11
f 15//1 70//1 92//1
f 93//5 71//5 60//5
f 71//11 98//11 88//11
f 89//6 72//6 47//6
f 69//11 99//11 93//11
f 94//5 96//5 29//5
f 79//5 95//5 94//5
f 80//5 95//5 79//5
f 95//5 81//5 94//5
f 94//5 81//5 96//5
f 96//5 82//5 29//5
f 85//5 84//5 89//5
f 99//11 69//11 97//11
f 100//11 97//11 88//11
f 71//11 93//11 99//11
f 98//11 101//11 88//11
f 98//11 71//11 102//11
f 103//7 104//7 105//7
f 97//8 106//8 99//8
f 104//1 107//1 105//1
f 97//5 100//5 106//5
f 108//11 100//11 88//11
f 109//11 71//11 99//11
f 101//11 110//11 88//11
f 111//1 112//1 113//1
f 101//5 98//5 114//5
f 102//11 71//11 115//11
f 112//3 116//3 117//3
f 102//9 118//9 98//9
f 104//7 103//7 119//7
f 120//8 99//8 106//8
f 107//1 104//1 121//1
f 122//5 106//5 100//5
f 123//11 100//11 108//11
f 124//11 108//11 88//11
f 123//11 71//11 109//11
f 125//13 103//13 126//13
f 109//10 99//10 127//10
f 110//11 128//11 88//11
f 115//11 110//11 101//11
f 112//1 111//1 129//1
f 130//5 114//5 98//5
f 131//7 111//7 113//7
f 101//8 114//8 115//8
f 115//11 71//11 132//11
f 116//13 131//13 117//13
f 102//10 115//10 118//10
f 116//3 112//3 129//3
f 130//9 98//9 118//9
f 103//13 125//13 119//13
f 120//10 127//10 99//10
f 120//11 106//11 127//11
f 122//11 127//11 106//11
f 125//3 107//3 121//3
f 122//9 100//9 127//9
f 100//11 123//11 109//11
f 133//7 134//7 135//7
f 108//8 136//8 123//8
f 134//1 137//1 135//1
f 108//5 124//5 136//5
f 138//11 124//11 88//11
f 139//11 71//11 123//11
f 107//3 125//3 126//3
f 109//9 127//9 100//9
f 128//11 140//11 88//11
f 141//1 142//1 143//1
f 128//5 110//5 144//5
f 110//11 115//11 132//11
f 130//11 118//11 114//11
f 111//7 131//7 145//7
f 146//8 115//8 114//8
f 132//11 71//11 147//11
f 131//13 116//13 145//13
f 146//10 118//10 115//10
f 134//7 133//7 148//7
f 149//8 123//8 136//8
f 137//1 134//1 150//1
f 151//5 136//5 124//5
f 152//11 124//11 138//11
f 140//11 138//11 88//11
f 152//11 71//11 139//11
f 153//13 133//13 154//13
f 139//10 123//10 155//10
f 147//11 140//11 128//11
f 142//1 141//1 156//1
f 157//5 144//5 110//5
f 158//7 141//7 143//7
f 128//8 144//8 147//8
f 142//3 159//3 160//3
f 132//9 161//9 110//9
f 146//11 114//11 118//11
f 147//11 71//11 162//11
f 159//13 158//13 160//13
f 132//10 147//10 161//10
f 133//13 153//13 148//13
f 149//10 155//10 123//10
f 149//11 136//11 155//11
f 151//11 155//11 136//11
f 153//3 137//3 150//3
f 151//9 124//9 155//9
f 124//11 152//11 139//11
f 163//7 164//7 165//7
f 138//8 166//8 152//8
f 164//1 167//1 165//1
f 138//5 140//5 166//5
f 162//11 71//11 152//11
f 137//3 153//3 154//3
f 139//9 155//9 124//9
f 140//11 147//11 162//11
f 157//11 161//11 144//11
f 159//3 142//3 156//3
f 157//9 110//9 161//9
f 141//7 158//7 168//7
f 169//8 147//8 144//8
f 158//13 159//13 168//13
f 169//10 161//10 147//10
f 164//7 163//7 170//7
f 171//8 152//8 166//8
f 167//1 164//1 172//1
f 173//5 166//5 140//5
f 174//13 163//13 175//13
f 162//10 152//10 176//10
f 167//3 174//3 175//3
f 162//9 176//9 140//9
f 169//11 144//11 161//11
f 163//13 174//13 170//13
f 171//10 176//10 152//10
f 171//11 166//11 176//11
f 173//11 176//11 166//11
f 174//3 167//3 172//3
f 173//9 140//9 176//9
g mesh1-geometry-2
usemtl Material.778c0a5c4cf88928f68bae2d7baf0b26
f 2/23/1 177/24/1 5/25/1
f 177/24/1 2/23/1 7/26/1
f 178/27/1 5/25/1 177/24/1
f 10/28/1 179/29/1 7/26/1
f 177/24/1 7/26/1 180/30/1
f 5/25/1 178/27/1 10/28/1
f 10/28/1 181/31/1 179/29/1
f 182/32/1 7/26/1 179/29/1
f 180/30/1 7/26/1 183/33/1
f 177/24/1 180/30/1 184/34/1
f 10/28/1 178/27/1 185/35/1
f 10/28/1 186/36/1 181/31/1
f 187/37/1 7/26/1 182/32/1
f 183/33/1 7/26/1 188/38/1
f 177/24/1 184/34/1 189/39/1
f 10/28/1 185/35/1 190/40/1
f 10/28/1 191/41/1 186/36/1
f 192/42/1 7/26/1 187/37/1
f 188/38/1 7/26/1 193/43/1
f 177/24/1 189/39/1 194/44/1
f 190/40/1 185/35/1 195/45/1
f 10/28/1 190/40/1 196/46/1
f 10/28/1 197/47/1 191/41/1
f 198/48/1 7/26/1 192/42/1
f 193/43/1 7/26/1 198/48/1
f 10/28/1 199/49/1 200/50/1
f 10/28/1 200/50/1 201/51/1
f 10/28/1 202/52/1 199/49/1
f 177/24/1 194/44/1 203/53/1
f 203/53/1 195/45/1 185/35/1
f 10/28/1 196/46/1 202/52/1
f 10/28/1 204/54/1 197/47/1
f 10/28/1 201/51/1 204/54/1
f 203/53/1 194/44/1 195/45/1
g mesh1-geometry-3
usemtl Material.751824933f76bb5064d0ff5c0b0c11bb
f 11/55/13 6/56/13 9/57/13
f 6/56/13 55/58/13 27/59/13
f 6/56/13 11/55/13 55/58/13
f 32/60/13 27/59/13 55/58/13
f 55/58/13 11/55/13 54/61/13
f 54/61/13 11/55/13 39/62/13
f 39/62/13 11/55/13 16/63/13
g mesh1-geometry-4
usemtl Material.ec54333377af01998850abef039c82fd
f 177/64/4 205/65/4 178/66/4
f 205/65/4 177/64/4 206/67/4
f 205/68/7 185/69/7 178/70/7
f 177/71/3 207/72/3 206/73/3
f 185/69/7 205/68/7 208/74/7
f 207/72/3 177/71/3 203/75/3
f 207/76/2 185/77/2 208/78/2
f 185/77/2 207/76/2 203/79/2
g mesh1-geometry-5
usemtl Material.514d3e63b4028f5f85d7cd17afc43fa3
f 58/80/18 33/81/18 28/82/18
f 33/81/18 58/80/18 40/83/18
f 28/84/19 91/85/19 41/86/19
f 40/83/18 58/80/18 209/87/18
f 209/88/20 56/89/20 40/90/20
f 91/85/19 28/84/19 77/91/19
f 91/92/21 209/93/21 41/94/21
f 210/95/22 77/96/22 56/97/22
f 56/89/20 209/88/20 210/98/20
f 77/96/22 210/95/22 59/99/22
f 209/93/21 91/92/21 210/100/21
g mesh1-geometry-6
usemtl Material.26b7bdd1f85be6a28168c48a93fc0e3f
f 55/101/2 52/102/2 32/103/2
f 211/104/3 55/105/3 54/106/3
f 39/103/4 211/107/4 50/101/4
f 52/102/2 55/101/2 212/108/2
f 211/107/4 39/103/4 57/109/4
f 55/105/3 211/104/3 212/110/3
f 52/111/13 211/112/13 57/113/13
f 211/112/13 52/111/13 212/114/13
g mesh1-geometry-7
usemtl Material.8c7d1b3abfca6f8692ee4683f11c4d73
f 181//1 182//1 179//1
f 200//1 180//1 183//1
f 199//1 184//1 180//1
f 186//1 187//1 181//1
f 181//1 187//1 182//1
f 201//1 183//1 188//1
f 199//1 180//1 200//1
f 200//1 183//1 201//1
f 202//1 184//1 199//1
f 202//1 189//1 184//1
f 191//1 192//1 186//1
f 186//1 192//1 187//1
f 204//1 188//1 193//1
f 201//1 188//1 204//1
f 196//1 189//1 202//1
f 196//1 194//1 189//1
f 194//1 190//1 195//1
f 190//1 194//1 196//1
f 197//1 198//1 191//1
f 191//1 198//1 192//1
f 197//1 193//1 198//1
f 204//1 193//1 197//1
g mesh1-geometry-8
usemtl Material.dc7a3ca9ca091ddbf48733c3a604f557
f 207//1 205//1 206//1
f 205//1 207//1 208//1
g mesh1-geometry-9
usemtl Material.4fe956e77beb24b7022967a80fd190be
f 68/115/4 105/116/4 87/117/4
f 87/117/4 112/118/4 70/119/4
f 92/120/4 103/121/4 68/115/4
f 105/116/4 68/115/4 103/121/4
f 87/117/4 105/116/4 107/122/4
f 103/121/4 92/120/4 70/119/4
f 87/117/4 113/123/4 112/118/4
f 117/124/4 70/119/4 112/118/4
f 87/117/4 107/122/4 135/125/4
f 103/121/4 70/119/4 126/126/4
f 87/117/4 142/127/4 113/123/4
f 131/128/4 70/119/4 117/124/4
f 135/125/4 107/122/4 133/129/4
f 87/117/4 135/125/4 137/130/4
f 126/126/4 70/119/4 133/129/4
f 87/117/4 143/131/4 142/127/4
f 113/123/4 142/127/4 131/128/4
f 160/132/4 70/119/4 131/128/4
f 126/126/4 133/129/4 107/122/4
f 87/117/4 137/130/4 165/133/4
f 133/129/4 70/119/4 154/134/4
f 87/117/4 167/135/4 143/131/4
f 160/132/4 131/128/4 142/127/4
f 158/136/4 70/119/4 160/132/4
f 165/133/4 137/130/4 163/137/4
f 87/117/4 165/133/4 167/135/4
f 154/134/4 70/119/4 163/137/4
f 143/131/4 167/135/4 158/136/4
f 175/138/4 70/119/4 158/136/4
f 154/134/4 163/137/4 137/130/4
f 163/137/4 70/119/4 175/138/4
f 175/138/4 158/136/4 167/135/4
g mesh1-geometry-10
usemtl Material.337c930ef1c2acf4c161ac14febc6f9c
f 125//4 104//4 119//4
f 104//4 125//4 121//4
f 111//4 116//4 129//4
f 116//4 111//4 145//4
f 153//4 134//4 148//4
f 134//4 153//4 150//4
f 141//4 159//4 156//4
f 159//4 141//4 168//4
f 174//4 164//4 170//4
f 164//4 174//4 172//4
