# created by Ethan Wu and Zhan isaac Ling
mtllib model.mtl
v -0.031022 -0.095741 0.223479
v -0.031025 -0.119471 -0.208930
v -0.031025 -0.119471 0.223482
vn -1.000000 0.000000 0.000000
v -0.031015 -0.095747 -0.208920
v 0.015801 -0.119471 0.223482
vn 0.000000 -1.000000 0.000000
vn 0.000000 0.000000 1.000000
v -0.036856 -0.095747 0.229312
v 0.015795 -0.095744 -0.208924
vn 0.000000 0.000000 -1.000000
v 0.015801 -0.119471 -0.208930
v 0.015795 -0.095744 0.223476
v -0.036862 -0.095741 -0.214768
v 0.021636 -0.095744 0.229316
vn 1.000000 0.000000 0.000000
v -0.036875 -0.088947 0.229316
v 0.021636 -0.095744 -0.214765
v -0.036878 -0.088943 -0.214761
v 0.021654 -0.088943 0.229312
v -0.036878 -0.079486 0.319386
v 0.021648 -0.088952 -0.214763
v 0.021636 -0.088962 0.358079
v -0.036874 -0.088953 0.328824
v -0.036874 -0.088952 -0.314272
v 0.021648 0.323851 -0.343528
v -0.036878 0.323842 0.328823
v -0.036878 -0.079486 -0.304835
v -0.007607 -0.088962 -0.343534
v 0.021642 -0.088953 -0.343535
v -0.048445 -0.088958 0.340408
v 0.021629 0.323865 0.358073
vn -0.707107 0.000000 -0.707107
v -0.036875 0.314380 0.319382
v -0.036873 0.323853 -0.314276
v -0.014766 -0.079475 -0.304825
vn 0.000000 1.000000 0.000000
v -0.062999 -0.088951 -0.340422
v -0.007597 -0.088953 0.358090
v -0.007604 0.323852 0.358093
v -0.048443 0.323856 0.340420
v -0.036871 0.314377 -0.304828
v -0.014766 0.314374 0.319375
v -0.062997 0.323857 -0.340408
vn -0.707107 0.000000 0.707107
v -0.014766 -0.079475 0.319375
v -0.033746 -0.088941 -0.369674
v -0.007597 0.323852 -0.343540
v -0.019205 -0.088940 0.369670
v -0.044013 -0.082660 0.344859
v -0.014766 0.314374 -0.304825
v -0.058761 0.317835 -0.344665
v -0.058751 -0.082935 -0.344668
vn 0.707107 0.000000 -0.707107
v -0.019194 0.323840 0.369674
vn 0.707107 0.000000 0.707107
v -0.044002 0.317557 0.344862
v -0.033757 0.323839 -0.369670
v -0.037999 -0.082942 -0.365429
v -0.023642 0.317563 0.365232
v -0.023645 -0.082663 0.365217
v -0.038002 0.317839 -0.365414
v -0.055095 0.317836 -0.341031
v -0.034355 -0.082928 -0.361766
v -0.034355 0.317827 -0.361783
v -0.055116 -0.082938 -0.341031
v -0.030983 -0.119429 0.223440
v -0.030983 -0.119429 -0.208888
v -0.030986 -0.095687 0.223443
vn 1.000000 0.000000 0.000000
v -0.030993 -0.095680 -0.208898
v 0.015758 -0.119429 0.223440
vn 0.000000 1.000000 0.000000
vn 0.000000 0.000000 -1.000000
v -0.036833 -0.095680 0.229290
v 0.015765 -0.095683 -0.208894
vn 0.000000 0.000000 1.000000
v 0.015758 -0.119429 -0.208888
v 0.015765 -0.095683 0.223446
v -0.036827 -0.095687 -0.214732
v 0.021605 -0.095683 0.229286
vn -1.000000 0.000000 0.000000
v -0.036814 -0.088917 0.229286
v 0.021605 -0.095683 -0.214734
v -0.036811 -0.088920 -0.214739
v 0.021587 -0.088920 0.229290
v 0.021593 -0.088911 -0.214736
v -0.036811 -0.079508 0.319408
v 0.021605 -0.088901 0.358049
v -0.036815 -0.088910 0.328840
v -0.036815 -0.088911 -0.314291
v 0.021593 0.323809 -0.343500
v -0.036811 0.323818 0.328841
v -0.036811 -0.079508 -0.304857
v -0.007617 -0.088901 -0.343494
v 0.021599 -0.088910 -0.343492
v -0.048394 -0.088905 0.340408
v 0.021612 0.323795 0.358056
vn 0.707107 0.000000 0.707107
v -0.036814 0.314410 0.319412
v -0.036816 0.323807 -0.314287
v -0.014723 -0.079518 -0.304868
vn 0.000000 -1.000000 0.000000
v -0.062943 -0.088912 -0.340394
v -0.007627 -0.088910 0.358038
v -0.007620 0.323809 0.358035
v -0.048395 0.323805 0.340396
v -0.036818 0.314413 -0.304864
v -0.014723 0.314417 0.319418
v -0.062946 0.323803 -0.340408
vn 0.707107 0.000000 -0.707107
v -0.014723 -0.079518 0.319418
v -0.033732 -0.088922 -0.369606
v -0.007627 0.323809 -0.343488
v -0.019168 -0.088923 0.369609
v -0.043979 -0.082692 0.344802
v -0.014723 0.314417 -0.304868
v -0.058727 0.317867 -0.344608
v -0.058738 -0.082971 -0.344605
vn -0.707107 0.000000 0.707107
v -0.019180 0.323820 0.369605
vn -0.707107 0.000000 -0.707107
v -0.043989 0.317592 0.344798
v -0.033720 0.323821 -0.369610
v -0.037935 -0.082964 -0.365398
v -0.023579 0.317585 0.365201
v -0.023575 -0.082688 0.365217
v -0.025713 -0.082661 0.326590
v -0.025734 -0.082691 0.326526
v -0.037932 0.317864 -0.365414
v -0.055116 0.317867 -0.340967
v -0.034303 -0.082978 -0.361783
v -0.005364 -0.082651 0.346953
v -0.005312 -0.082700 0.346936
v -0.025734 0.317559 0.326590
v -0.025713 0.317590 0.326526
v -0.034303 0.317876 -0.361766
v -0.055095 -0.082968 -0.340967
v -0.005364 0.317550 0.346936
v -0.005312 0.317599 0.346953
v 0.091938 -0.323861 0.229328
v -0.091940 -0.323865 -0.214771
v 0.091935 -0.323859 -0.214780
vn 0.000000 -1.000000 0.000000
v -0.091933 -0.323859 0.229332
v -0.054125 -0.254002 -0.176964
v 0.091736 -0.323459 -0.214574
v -0.091737 -0.323457 -0.214565
vn 0.000000 0.476148 -0.879365
v 0.054126 -0.254000 -0.176955
v 0.091741 -0.323460 0.229122
vn 0.879365 0.476148 0.000000
v -0.054126 -0.254001 0.191509
v -0.091738 -0.323459 0.229121
vn 0.000000 0.476148 0.879365
vn -0.879365 0.476148 0.000000
v 0.054125 -0.254000 0.191506
v -0.036578 -0.254010 -0.013844
vn 0.000000 1.000000 0.000000
v -0.042237 -0.254010 0.007275
v 0.042239 -0.254010 0.007275
v 0.000001 -0.254010 0.049513
v -0.040802 -0.254016 -0.003657
v -0.029871 -0.254020 -0.022596
v -0.040802 -0.254016 0.018209
v 0.040804 -0.254016 -0.003657
v 0.040804 -0.254016 0.018209
v 0.010934 -0.254016 0.048078
v -0.010933 -0.254016 0.048078
v -0.040802 -0.098616 -0.003657
vn -0.965926 0.000000 -0.258819
vn -0.866025 0.000000 -0.500000
v -0.036584 -0.098620 -0.013847
vn -0.707107 0.000000 -0.707107
v -0.021120 -0.254016 -0.029307
v -0.042241 -0.098616 0.007275
vn -1.000000 0.000000 0.000000
v -0.036582 -0.254016 0.028397
v -0.040802 -0.098616 0.018209
vn -0.965926 0.000000 0.258819
v 0.036584 -0.254016 -0.013846
v 0.040804 -0.092419 -0.003657
vn 0.965926 0.000000 -0.258819
vn 1.000000 0.000000 0.000000
v 0.042244 -0.092419 0.007275
vn 0.965926 0.000000 0.258819
v 0.036584 -0.254016 0.028397
v 0.021122 -0.254016 0.043859
v 0.000001 -0.111838 0.049522
vn 0.258819 0.000000 0.965926
vn 0.000000 0.000000 1.000000
v -0.021120 -0.254016 0.043859
v -0.010930 -0.111820 0.048070
vn -0.258819 0.000000 0.965926
v -0.029858 -0.111821 -0.022593
v -0.021118 -0.111824 -0.029303
vn -0.500000 0.000000 -0.866025
v -0.010933 -0.254016 -0.033528
v -0.029866 -0.254010 0.037142
v -0.036587 -0.098628 0.028399
vn -0.866025 0.000000 0.500000
v 0.029867 -0.254010 -0.022591
v 0.036584 -0.092419 -0.013846
vn 0.866025 0.000000 -0.500000
v 0.040804 -0.092419 0.018209
vn 0.866025 0.000000 0.500000
v 0.029873 -0.254023 0.037148
v 0.010934 -0.111830 0.048078
vn 0.500000 0.000000 0.866025
v -0.021120 -0.111830 0.043859
vn -0.500000 0.000000 0.866025
v -0.029881 -0.098649 -0.022580
vn -0.793353 0.000000 -0.608761
v -0.010933 -0.111830 -0.033528
vn -0.258819 0.000000 -0.965926
v 0.000001 -0.254016 -0.034967
v -0.029860 -0.111833 0.037154
vn -0.707107 0.000000 0.707107
v 0.021122 -0.254016 -0.029307
v 0.029873 -0.092426 -0.022596
vn 0.707107 0.000000 -0.707107
v 0.036584 -0.092419 0.028397
vn 0.707107 0.000000 0.707107
v 0.021118 -0.111836 0.043864
v 0.000001 -0.111838 -0.034971
vn 0.000000 0.000000 -1.000000
v 0.010934 -0.254016 -0.033528
v -0.029846 -0.098600 0.037128
vn -0.793353 0.000000 0.608761
vn 0.500000 0.000000 -0.866025
v 0.029867 -0.092413 0.037142
v 0.021122 -0.092427 0.043864
vn 0.608761 0.000000 0.793353
v 0.010933 -0.111824 -0.033523
vn 0.258819 0.000000 -0.965926
v 0.021122 -0.111842 -0.029314
v 0.021113 -0.092418 -0.029310
vn 0.608761 0.000000 -0.793353
v 0.091904 -0.323828 -0.214720
v -0.091897 -0.323822 -0.214729
v 0.091902 -0.323825 0.229274
vn 0.000000 1.000000 0.000000
v -0.091903 -0.323828 0.229271
v -0.091718 -0.323528 -0.214555
v 0.091723 -0.323526 -0.214547
v -0.054114 -0.254071 -0.176941
vn 0.000000 -0.476148 0.879365
v -0.036844 -0.323472 -0.214780
v 0.091940 -0.323463 -0.214760
v 0.091900 -0.323522 -0.214740
v -0.036844 -0.323513 -0.214719
vn 0.000000 -1.000000 0.000000
vn 0.000000 0.000000 1.000000
v 0.091931 -0.323459 0.229312
v 0.091909 -0.323526 0.229290
v 0.091717 -0.323526 0.229099
vn -1.000000 0.000000 0.000000
v 0.054116 -0.254073 -0.176950
vn -0.879365 -0.476148 0.000000
v -0.091718 -0.323527 0.229101
v -0.054113 -0.254072 0.191496
vn 0.000000 -0.476148 -0.879365
v -0.091934 -0.323461 0.229309
v -0.091902 -0.323525 0.229293
v -0.091728 -0.323493 0.229338
v -0.036844 -0.323493 0.229338
v -0.091728 -0.323493 0.229264
vn 0.000000 0.000000 -1.000000
v -0.036844 -0.323493 0.229264
vn 0.879365 -0.476148 0.000000
v -0.091933 -0.323462 -0.214765
v -0.091903 -0.323523 -0.214734
vn 1.000000 0.000000 0.000000
v 0.054117 -0.254073 0.191499
v -0.036533 -0.254062 -0.013818
v -0.042184 -0.254062 0.007275
v 0.042187 -0.254062 0.007275
v 0.000001 -0.254062 0.049461
v -0.040743 -0.254057 -0.003642
v -0.029824 -0.254053 -0.022549
v -0.040743 -0.254057 0.018193
v 0.040745 -0.254057 -0.003642
v 0.040745 -0.254057 0.018193
v 0.010918 -0.254057 0.048019
v -0.010917 -0.254057 0.048019
v -0.040743 -0.098657 -0.003642
vn 0.965926 0.000000 0.258819
vn 0.866025 0.000000 0.500000
v -0.036527 -0.098653 -0.013814
vn 0.707107 0.000000 0.707107
v -0.021089 -0.254057 -0.029254
v -0.042180 -0.098657 0.007275
v -0.036529 -0.254057 0.028366
v -0.040743 -0.098657 0.018193
vn 0.965926 0.000000 -0.258819
v 0.036530 -0.254057 -0.013815
v 0.040745 -0.092460 -0.003642
vn -0.965926 0.000000 0.258819
v 0.042182 -0.092460 0.007275
vn -0.965926 0.000000 -0.258819
v 0.036530 -0.254057 0.028366
v 0.021092 -0.254057 0.043805
v 0.000001 -0.111862 0.049452
vn -0.258819 0.000000 -0.965926
v -0.021089 -0.254057 0.043805
v -0.010919 -0.111879 0.048027
vn 0.258819 0.000000 -0.965926
v -0.029837 -0.111879 -0.022552
v -0.021092 -0.111876 -0.029258
vn 0.500000 0.000000 0.866025
v -0.010917 -0.254057 -0.033468
v -0.029829 -0.254062 0.037105
v -0.036525 -0.098646 0.028363
vn 0.866025 0.000000 -0.500000
v 0.029830 -0.254062 -0.022554
v 0.036530 -0.092460 -0.013815
vn -0.866025 0.000000 0.500000
v 0.040745 -0.092460 0.018193
vn -0.866025 0.000000 -0.500000
v 0.029824 -0.254050 0.037099
v 0.010918 -0.111870 0.048019
vn -0.500000 0.000000 -0.866025
v -0.021089 -0.111870 0.043805
vn 0.500000 0.000000 -0.866025
v -0.029849 -0.098674 0.037119
v -0.029813 -0.098625 -0.022565
vn 0.793353 0.000000 0.608761
v -0.010917 -0.111870 -0.033468
vn 0.258819 0.000000 0.965926
v 0.000001 -0.254057 -0.034906
v -0.029834 -0.111867 0.037094
vn 0.707107 0.000000 -0.707107
v 0.021092 -0.254057 -0.029254
v 0.029824 -0.092453 -0.022548
vn -0.707107 0.000000 0.707107
v 0.015604 -0.092404 0.043840
v 0.015619 -0.092475 0.043824
v 0.036530 -0.092460 0.028366
vn -0.707107 0.000000 -0.707107
v 0.021096 -0.111864 0.043799
v 0.015604 -0.111814 0.043839
v 0.015619 -0.111885 0.043825
v 0.015590 -0.111828 -0.029302
v 0.015633 -0.111871 -0.029259
v 0.010919 -0.111876 -0.033473
v 0.000001 -0.111862 -0.034901
v 0.010918 -0.254057 -0.033468
vn 0.793353 0.000000 -0.608761
vn -0.500000 0.000000 0.866025
v 0.029830 -0.092466 0.037105
v 0.021092 -0.092452 0.043801
vn -0.608761 0.000000 -0.793353
v 0.021092 -0.111857 -0.029247
vn -0.258819 0.000000 0.965926
v 0.021101 -0.092461 -0.029251
vn 0.000000 0.000000 1.000000
vn 0.000000 0.000000 -1.000000
vn -1.000000 0.000000 0.000000
vn 1.000000 0.000000 0.000000
vn 0.000000 0.000000 -1.000000
vn 0.000000 0.000000 1.000000
vn -0.608761 0.000000 0.793353
v 0.015590 -0.092418 -0.029302
v 0.015633 -0.092461 -0.029259
g mesh1-geometry-0
usemtl Material.57774a50243e5d429f3a4ea105ec3930
f 1//1 2//1 3//1
f 2//1 1//1 4//1
f 2//2 5//2 3//2
f 5//3 1//3 3//3
f 6//2 4//2 1//2
f 7//4 2//4 4//4
f 5//2 2//2 8//2
f 1//3 5//3 9//3
f 10//2 4//2 6//2
f 6//2 1//2 11//2
f 2//4 7//4 8//4
f 4//2 10//2 7//2
f 7//5 5//5 8//5
f 5//5 7//5 9//5
f 9//2 11//2 1//2
f 12//1 10//1 6//1
f 11//3 12//3 6//3
f 13//2 7//2 10//2
f 7//2 11//2 9//2
f 10//1 12//1 14//1
f 12//3 11//3 15//3
f 7//2 13//2 11//2
f 12//1 16//1 14//1
f 11//5 17//5 15//5
f 18//2 12//2 15//2
f 17//5 11//5 13//5
f 19//1 16//1 12//1
f 14//1 16//1 20//1
f 20//2 17//2 14//2
f 17//5 21//5 15//5
f 12//2 18//2 19//2
f 15//5 21//5 18//5
f 16//1 19//1 22//1
f 23//1 20//1 16//1
f 24//2 17//2 20//2
f 21//5 17//5 25//5
f 19//2 18//2 26//2
f 18//5 21//5 27//5
f 26//6 22//6 19//6
f 16//1 22//1 28//1
f 20//1 23//1 29//1
f 16//7 30//7 23//7
f 17//2 24//2 25//2
f 24//2 20//2 31//2
f 24//4 21//4 25//4
f 26//2 18//2 32//2
f 33//3 18//3 27//3
f 22//6 26//6 34//6
f 28//1 22//1 35//1
f 36//4 16//4 28//4
f 29//1 23//1 35//1
f 37//8 20//8 29//8
f 30//7 16//7 38//7
f 30//3 35//3 23//3
f 20//8 37//8 31//8
f 31//2 39//2 24//2
f 21//4 24//4 40//4
f 18//3 33//3 32//3
f 26//2 32//2 41//2
f 26//8 42//8 34//8
f 29//1 35//1 22//1
f 35//2 36//2 28//2
f 16//4 36//4 38//4
f 35//3 30//3 43//3
f 37//6 44//6 31//6
f 31//6 45//6 39//6
f 39//9 40//9 24//9
f 46//10 32//10 33//10
f 32//10 46//10 41//10
f 42//8 26//8 41//8
f 47//8 34//8 42//8
f 36//2 35//2 43//2
f 44//6 37//6 48//6
f 45//6 31//6 44//6
f 39//6 45//6 49//6
f 40//9 39//9 48//9
f 46//8 50//8 41//8
f 42//8 41//8 51//8
f 34//8 47//8 46//8
f 44//6 48//6 52//6
f 53//9 45//9 44//9
f 45//7 54//7 49//7
f 39//6 49//6 48//6
f 46//8 47//8 50//8
f 51//8 41//8 50//8
f 52//6 48//6 49//6
f 55//2 44//2 52//2
f 45//9 53//9 56//9
f 44//2 55//2 53//2
f 54//7 45//7 56//7
f 54//8 52//8 49//8
f 52//8 54//8 55//8
g mesh1-geometry-1
usemtl Material.90b00bf69165eda831fe702671104217
f 57//11 58//11 59//11
f 60//11 59//11 58//11
f 57//12 61//12 58//12
f 57//13 59//13 61//13
f 59//12 60//12 62//12
f 60//14 58//14 63//14
f 64//12 58//12 61//12
f 65//13 61//13 59//13
f 62//12 60//12 66//12
f 67//12 59//12 62//12
f 64//14 63//14 58//14
f 63//12 66//12 60//12
f 64//15 61//15 63//15
f 65//15 63//15 61//15
f 59//12 67//12 65//12
f 62//11 66//11 68//11
f 62//13 68//13 67//13
f 66//12 63//12 69//12
f 65//12 67//12 63//12
f 70//11 68//11 66//11
f 71//13 67//13 68//13
f 67//12 69//12 63//12
f 10//4 17//4 13//4
f 69//14 72//14 66//14
f 70//11 73//11 68//11
f 17//4 10//4 14//4
f 70//14 66//14 72//14
f 71//15 72//15 67//15
f 71//12 68//12 74//12
f 69//15 67//15 72//15
f 68//11 73//11 75//11
f 76//11 73//11 70//11
f 70//12 72//12 76//12
f 71//15 77//15 72//15
f 75//12 74//12 68//12
f 74//15 77//15 71//15
f 78//11 75//11 73//11
f 73//11 76//11 79//11
f 76//12 72//12 80//12
f 81//15 72//15 77//15
f 82//12 74//12 75//12
f 83//15 77//15 74//15
f 75//16 78//16 82//16
f 84//11 78//11 73//11
f 85//11 79//11 76//11
f 79//17 86//17 73//17
f 81//12 80//12 72//12
f 87//12 76//12 80//12
f 81//14 77//14 80//14
f 88//12 74//12 82//12
f 21//7 29//7 27//7
f 83//17 85//17 77//17
f 83//13 74//13 89//13
f 90//16 82//16 78//16
f 91//11 78//11 84//11
f 84//14 73//14 92//14
f 91//11 79//11 85//11
f 85//18 76//18 93//18
f 94//17 73//17 86//17
f 79//13 91//13 86//13
f 87//18 93//18 76//18
f 80//12 95//12 87//12
f 96//14 80//14 77//14
f 88//13 89//13 74//13
f 97//12 88//12 82//12
f 21//7 37//7 29//7
f 85//17 93//17 77//17
f 27//7 29//7 22//7
f 78//17 85//17 83//17
f 27//7 34//7 33//7
f 89//17 90//17 83//17
f 90//18 98//18 82//18
f 27//7 22//7 34//7
f 90//17 78//17 83//17
f 78//11 91//11 85//11
f 84//12 92//12 91//12
f 94//14 92//14 73//14
f 94//11 86//11 92//11
f 99//13 86//13 91//13
f 87//16 100//16 93//16
f 95//16 101//16 87//16
f 80//19 96//19 95//19
f 40//7 37//7 21//7
f 77//17 93//17 96//17
f 89//20 88//20 102//20
f 97//20 102//20 88//20
f 97//18 82//18 98//18
f 46//7 33//7 34//7
f 90//17 89//17 102//17
f 98//18 90//18 103//18
f 99//12 91//12 92//12
f 99//11 92//11 86//11
f 104//16 93//16 100//16
f 100//16 87//16 101//16
f 105//16 101//16 95//16
f 104//19 95//19 96//19
f 37//7 40//7 48//7
f 104//17 96//17 93//17
f 97//18 106//18 102//18
f 107//18 97//18 98//18
f 102//18 103//18 90//18
f 108//10 47//10 42//10
f 98//20 103//20 109//20
f 110//16 104//16 100//16
f 100//19 101//19 111//19
f 105//17 112//17 101//17
f 104//16 105//16 95//16
f 106//18 103//18 102//18
f 106//18 97//18 107//18
f 113//7 42//7 51//7
f 107//17 98//17 114//17
f 47//10 108//10 115//10
f 116//20 109//20 103//20
f 42//7 113//7 108//7
f 109//17 114//17 98//17
f 105//16 104//16 110//16
f 110//12 100//12 117//12
f 118//19 111//19 101//19
f 111//12 117//12 100//12
f 118//17 101//17 112//17
f 105//18 110//18 112//18
f 47//2 119//2 50//2
f 106//12 120//12 103//12
f 119//6 51//6 50//6
f 106//16 107//16 120//16
f 51//6 119//6 113//6
f 114//16 120//16 107//16
f 109//18 116//18 114//18
f 119//2 47//2 115//2
f 116//12 103//12 120//12
f 117//18 112//18 110//18
f 111//16 118//16 117//16
f 112//16 117//16 118//16
f 120//18 114//18 116//18
g mesh1-geometry-2
usemtl Material.dc7a3ca9ca091ddbf48733c3a604f557
f 36//1 30//1 38//1
f 30//1 36//1 43//1
f 113//8 115//8 108//8
f 55//6 56//6 53//6
f 56//6 55//6 54//6
f 115//8 113//8 119//8
g mesh6-geometry-0
usemtl Material.b2cdaf4394d1a4f850458878b81c7fa1
f 121//21 122//21 123//21
f 122//21 121//21 124//21
f 125//22 126//22 127//22
f 128//23 129//23 126//23
f 129//24 130//24 131//24
f 130//25 127//25 131//25
f 126//22 125//22 128//22
f 127//25 130//25 125//25
f 129//23 128//23 132//23
f 130//24 129//24 132//24
f 125//26 133//26 128//26
f 134//26 125//26 130//26
f 128//26 135//26 132//26
f 132//26 136//26 130//26
f 133//26 125//26 137//26
f 128//26 133//26 138//26
f 137//26 125//26 134//26
f 134//26 130//26 139//26
f 135//26 128//26 140//26
f 132//26 135//26 141//26
f 132//26 142//26 136//26
f 143//26 130//26 136//26
f 144//27 133//28 137//27
f 145//28 138//29 133//28
f 128//26 138//26 146//26
f 147//30 137//27 134//30
f 139//26 130//26 148//26
f 149//31 134//30 139//31
f 140//26 128//26 150//26
f 151//32 135//33 140//32
f 152//33 141//34 135//33
f 132//26 141//26 153//26
f 132//26 154//26 142//26
f 142//35 155//36 136//36
f 156//26 130//26 143//26
f 136//36 157//37 143//37
f 133//28 144//27 145//28
f 137//27 147//30 144//27
f 138//29 145//28 158//29
f 138//29 159//38 146//38
f 128//26 146//26 160//26
f 134//30 149//31 147//30
f 148//26 130//26 161//26
f 162//39 139//31 148//39
f 139//31 162//39 149//31
f 150//26 128//26 163//26
f 164//40 140//32 150//40
f 135//33 151//32 152//33
f 140//32 164//40 151//32
f 141//34 152//33 165//34
f 165//34 153//41 141//34
f 132//26 153//26 166//26
f 132//26 166//26 154//26
f 154//42 167//35 142//35
f 155//36 142//35 167//35
f 157//37 136//36 155//36
f 161//26 130//26 156//26
f 143//37 168//43 156//43
f 168//43 143//37 157//37
f 158//29 145//28 169//44
f 159//38 138//29 158//29
f 170//45 146//38 159//38
f 146//38 170//45 160//45
f 128//26 160//26 171//26
f 172//46 148//39 161//46
f 148//39 172//46 162//39
f 163//26 128//26 173//26
f 174//47 150//40 163//47
f 150//40 174//47 164//40
f 153//41 165//34 175//41
f 175//41 166//48 153//41
f 166//48 176//42 154//42
f 167//35 154//42 176//42
f 156//43 172//46 161//46
f 172//46 156//43 168//43
f 177//49 160//45 170//45
f 160//45 177//49 171//49
f 178//26 128//26 171//26
f 162//39 172//46 179//50
f 173//26 128//26 178//26
f 173//51 174//47 163//47
f 166//48 175//41 180//48
f 176//42 166//48 181//52
f 182//53 171//49 177//49
f 171//49 182//53 178//53
f 178//53 183//51 173//51
f 183//51 174//47 173//51
f 181//52 166//48 180//48
f 183//51 178//53 182//53
f 174//47 183//51 184//54
g mesh6-geometry-1
usemtl Material.90b00bf69165eda831fe702671104217
f 185//55 186//55 187//55
f 188//55 187//55 186//55
f 189//56 190//56 191//56
f 192//26 127//26 193//26
f 126//26 193//26 127//26
f 194//57 189//57 195//57
f 189//57 194//57 190//57
f 122//49 192//49 123//49
f 185//58 195//58 186//58
f 193//26 126//26 196//26
f 196//26 126//26 129//26
f 197//57 190//57 194//57
f 198//57 190//57 197//57
f 193//33 121//33 123//33
f 121//33 193//33 196//33
f 185//59 187//59 194//59
f 197//59 194//59 187//59
f 190//60 198//60 199//60
f 200//61 201//61 198//61
f 131//26 202//26 129//26
f 196//26 129//26 202//26
f 198//57 203//57 200//57
f 203//57 198//57 197//57
f 121//36 204//36 124//36
f 204//36 121//36 205//36
f 188//62 206//62 187//62
f 207//62 187//62 206//62
f 200//63 189//63 201//63
f 127//26 208//26 202//26
f 127//26 202//26 131//26
f 203//57 209//57 189//57
f 200//57 203//57 189//57
f 202//30 122//30 124//30
f 122//30 202//30 208//30
f 188//64 186//64 203//64
f 209//64 203//64 186//64
f 199//56 191//56 190//56
f 191//63 201//63 189//63
f 208//26 127//26 192//26
f 195//57 189//57 209//57
f 192//49 122//49 208//49
f 209//58 186//58 195//58
f 123//49 192//49 193//49
f 194//58 195//58 185//58
f 205//36 121//36 196//36
f 197//62 187//62 207//62
f 210//60 199//60 198//60
f 210//61 198//61 201//61
f 204//36 202//36 124//36
f 188//62 203//62 206//62
f 199//57 211//57 191//57
f 201//57 191//57 212//57
f 210//57 213//57 199//57
f 201//57 214//57 210//57
f 215//57 191//57 211//57
f 216//57 211//57 199//57
f 212//57 191//57 215//57
f 217//57 201//57 212//57
f 218//57 199//57 213//57
f 219//57 213//57 210//57
f 214//57 220//57 210//57
f 214//57 201//57 221//57
f 215//65 211//66 222//65
f 211//66 216//67 223//66
f 224//57 216//57 199//57
f 212//64 215//65 225//64
f 226//57 201//57 217//57
f 217//68 212//64 227//68
f 228//57 199//57 218//57
f 218//69 213//59 229//69
f 213//59 219//70 230//59
f 231//57 219//57 210//57
f 220//57 232//57 210//57
f 214//62 233//62 220//71
f 221//57 201//57 234//57
f 221//72 235//72 214//62
f 223//66 222//65 211//66
f 222//65 225//64 215//65
f 236//67 223//66 216//67
f 224//73 237//73 216//67
f 238//57 224//57 199//57
f 225//64 227//68 212//64
f 239//57 201//57 226//57
f 226//74 217//68 240//74
f 227//68 240//74 217//68
f 241//57 199//57 228//57
f 228//75 218//69 242//75
f 230//59 229//69 213//59
f 229//69 242//75 218//69
f 243//70 230//59 219//70
f 219//70 231//76 243//70
f 244//57 231//57 210//57
f 232//57 244//57 210//57
f 220//71 245//71 232//77
f 245//71 220//71 233//62
f 233//62 214//62 235//72
f 234//57 201//57 239//57
f 234//78 246//78 221//72
f 235//72 221//72 246//78
f 179//26 145//26 144//26
f 222//57 223//57 247//57
f 179//26 144//26 147//26
f 225//57 222//57 247//57
f 248//79 223//66 236//67
f 236//67 216//67 237//73
f 237//73 224//73 249//80
f 238//80 249//80 224//73
f 250//57 238//57 199//57
f 179//26 147//26 149//26
f 227//57 225//57 247//57
f 239//81 226//74 251//81
f 240//74 251//81 226//74
f 179//26 149//26 162//26
f 240//57 227//57 247//57
f 252//57 199//57 241//57
f 241//82 228//75 253//82
f 242//75 253//82 228//75
f 151//26 254//26 152//26
f 230//57 255//57 229//57
f 164//26 254//26 151//26
f 229//57 255//57 242//57
f 152//26 254//26 165//26
f 243//57 255//57 230//57
f 256//76 243//70 231//76
f 231//76 244//83 256//76
f 232//77 257//77 244//83
f 257//77 232//77 245//71
f 167//26 157//26 155//26
f 233//57 235//57 245//57
f 239//81 251//81 234//78
f 246//78 234//78 251//81
f 258//26 168//26 157//26
f 235//57 246//57 259//57
f 145//26 179//26 248//26
f 169//57 247//57 223//57
f 248//33 172//33 158//33
f 236//59 251//59 169//59
f 158//26 260//26 159//26
f 237//57 261//57 236//57
f 182//26 170//26 159//26
f 237//57 249//57 262//57
f 249//80 238//80 263//58
f 250//58 263//58 238//80
f 250//57 199//57 264//57
f 247//84 251//81 240//74
f 264//57 199//57 252//57
f 241//82 253//82 252//85
f 174//26 254//26 164//26
f 242//57 255//57 253//57
f 165//26 254//26 175//26
f 256//57 255//57 243//57
f 265//83 256//76 244//83
f 266//86 244//83 257//77
f 176//26 157//26 167//26
f 245//57 235//57 257//57
f 258//26 172//26 168//26
f 246//57 251//57 259//57
f 258//26 157//26 176//26
f 257//57 235//57 259//57
f 172//33 248//33 179//33
f 247//59 169//59 251//59
f 258//26 158//26 172//26
f 251//57 236//57 259//57
f 260//26 158//26 258//26
f 259//57 236//57 261//57
f 170//26 182//26 177//26
f 263//57 262//57 249//57
f 182//26 159//26 183//26
f 267//57 237//57 262//57
f 263//58 250//58 262//87
f 264//87 262//87 250//58
f 252//85 267//85 264//87
f 252//85 253//82 267//85
f 184//26 254//26 174//26
f 253//57 255//57 268//57
f 175//26 254//26 180//26
f 265//57 255//57 256//57
f 265//83 244//83 266//86
f 254//88 176//88 181//88
f 266//89 257//89 255//89
f 176//88 254//88 258//88
f 259//89 255//89 257//89
f 254//90 260//90 258//90
f 259//91 261//91 255//91
f 260//92 184//92 183//92
f 267//93 268//93 261//93
f 262//87 264//87 267//85
f 268//94 267//85 253//82
f 254//26 184//26 269//26
f 270//57 268//57 255//57
f 180//26 254//26 181//26
f 266//57 255//57 265//57
f 260//90 254//90 269//90
f 270//91 255//91 261//91
f 184//92 260//92 269//92
f 270//93 261//93 268//93
