# created by Ethan Wu and Zhan isaac Ling
mtllib model.mtl
v -0.052764 -0.094487 0.404267
v -0.052772 -0.072069 0.382942
v -0.052760 -0.094499 0.035159
vn -1.000000 0.000000 0.000000
v -0.052764 0.274644 0.404267
v -0.052764 -0.094493 -0.035163
v 0.000020 -0.094494 0.404275
vn 0.000000 -1.000000 0.000000
vn 0.000000 0.000000 1.000000
v -0.052772 0.253257 0.382942
v -0.052761 -0.094491 -0.404271
v -0.052748 -0.252623 -0.035169
v 0.000010 -0.094500 0.035177
v 0.000020 0.274651 0.404275
v -0.052772 0.253257 -0.381156
v -0.052772 -0.072069 -0.381156
v 0.000025 -0.094496 -0.035167
vn 0.000000 0.000000 -1.000000
v -0.052741 -0.252621 0.035170
vn 0.000000 0.000000 1.000000
v 0.000030 0.274644 -0.404267
vn 1.000000 0.000000 0.000000
vn 0.000000 1.000000 0.000000
v -0.052768 0.274640 -0.404263
v 0.000020 -0.094494 -0.404275
v 0.052738 -0.252619 0.035159
v -0.000016 -0.094442 0.035127
vn 0.948683 0.316228 0.000000
v 0.052736 -0.252619 -0.035164
v -0.105471 -0.252618 0.353725
v -0.105449 -0.252622 -0.353738
v 0.105481 -0.252627 -0.035158
v -0.105489 -0.274651 -0.353733
v 0.105484 -0.252633 0.035165
v 0.105484 -0.274649 -0.035165
vn 0.833815 0.000000 -0.552043
v -0.105491 -0.274603 0.353707
v -0.105429 -0.274649 0.353732
vn 0.833815 0.000000 0.552043
v 0.105491 -0.274640 0.035160
v -0.052703 -0.094443 0.035145
v -0.052691 -0.072069 0.382942
v -0.052699 -0.094455 0.404234
vn 1.000000 0.000000 0.000000
v -0.052699 0.274611 0.404234
v -0.052699 -0.094449 -0.035141
v -0.000027 -0.094448 0.404228
vn 0.000000 1.000000 0.000000
vn 0.000000 0.000000 -1.000000
v -0.052691 0.253257 0.382942
v -0.052702 -0.094451 -0.404231
v -0.000032 -0.094447 -0.035138
vn 0.000000 -1.000000 0.000000
v -0.052715 -0.252689 -0.035136
v -0.000027 0.274604 0.404228
v -0.052691 0.253257 -0.381156
v -0.052691 -0.072069 -0.381156
v -0.052723 -0.252691 0.035135
v -0.000036 0.274611 -0.404234
vn -1.000000 0.000000 0.000000
v -0.052695 0.274616 -0.404239
v -0.000027 -0.094448 -0.404228
v 0.052712 -0.252694 0.035146
vn -0.948683 -0.316228 0.000000
v 0.052714 -0.252693 -0.035141
v -0.105449 -0.252695 0.353714
v -0.105471 -0.252690 -0.353701
v 0.105426 -0.252685 -0.035147
v -0.105431 -0.274602 -0.353706
v 0.105423 -0.252679 0.035140
v 0.105423 -0.274603 -0.035140
vn -0.833815 0.000000 0.552043
vn -0.833815 0.000000 -0.552043
v 0.105416 -0.274613 0.035145
g mesh1-geometry-0
usemtl Material.57774a50243e5d429f3a4ea105ec3930
f 1//1 2//1 3//1
f 2//1 1//1 4//1
f 3//1 2//1 5//1
f 3//2 6//2 1//2
f 6//3 4//3 1//3
f 2//1 4//1 7//1
f 5//1 2//1 8//1
f 9//1 3//1 5//1
f 6//2 3//2 10//2
f 4//3 6//3 11//3
f 7//1 4//1 12//1
f 13//1 8//1 2//1
f 8//2 14//2 5//2
f 14//4 9//4 5//4
f 3//1 9//1 15//1
f 3//5 15//5 10//5
f 10//6 16//6 6//6
f 6//6 16//6 11//6
f 16//7 4//7 11//7
f 17//1 12//1 4//1
f 8//1 13//1 17//1
f 14//2 8//2 18//2
f 14//6 16//6 10//6
f 19//8 14//8 20//8
f 9//4 14//4 21//4
f 9//7 22//7 15//7
f 19//5 10//5 15//5
f 4//7 16//7 17//7
f 17//1 13//1 12//1
f 16//4 8//4 17//4
f 8//4 16//4 18//4
f 16//6 14//6 18//6
f 14//8 19//8 21//8
f 22//7 9//7 23//7
f 15//7 22//7 19//7
f 24//7 21//7 19//7
f 9//7 24//7 23//7
f 25//1 22//1 23//1
f 19//7 22//7 26//7
f 24//7 19//7 26//7
f 27//9 23//9 24//9
f 22//1 25//1 28//1
f 23//9 27//9 25//9
f 29//10 26//10 22//10
f 30//6 24//6 26//6
f 24//6 30//6 27//6
f 27//2 29//2 25//2
f 26//10 29//10 30//10
f 29//2 27//2 30//2
g mesh1-geometry-1
usemtl Material.90b00bf69165eda831fe702671104217
f 31//11 32//11 33//11
f 34//11 33//11 32//11
f 35//11 32//11 31//11
f 33//12 36//12 31//12
f 33//13 34//13 36//13
f 37//11 34//11 32//11
f 38//11 32//11 35//11
f 31//7 39//7 35//7
f 5//14 14//14 3//14
f 35//11 31//11 40//11
f 20//12 31//12 36//12
f 41//13 36//13 34//13
f 42//11 34//11 37//11
f 32//11 43//11 37//11
f 32//11 38//11 43//11
f 35//12 39//12 38//12
f 39//7 31//7 20//7
f 10//14 3//14 14//14
f 35//5 40//5 39//5
f 44//11 40//11 31//11
f 20//4 44//4 31//4
f 36//15 45//15 20//15
f 41//15 45//15 36//15
f 41//14 34//14 45//14
f 34//11 42//11 46//11
f 42//11 37//11 43//11
f 46//11 43//11 38//11
f 47//12 38//12 39//12
f 20//15 45//15 39//15
f 10//16 39//16 48//16
f 49//5 39//5 40//5
f 44//14 50//14 40//14
f 15//7 21//7 9//7
f 40//14 49//14 44//14
f 44//4 20//4 48//4
f 46//14 45//14 34//14
f 42//11 43//11 46//11
f 46//5 38//5 45//5
f 47//5 45//5 38//5
f 47//15 39//15 45//15
f 49//16 48//16 39//16
f 51//14 40//14 50//14
f 48//14 50//14 44//14
f 21//7 15//7 19//7
f 48//14 44//14 49//14
f 48//14 49//14 52//14
f 51//14 52//14 40//14
f 51//11 50//11 53//11
f 54//14 50//14 48//14
f 54//14 48//14 52//14
f 52//17 51//17 55//17
f 29//11 53//11 50//11
f 53//17 55//17 51//17
f 50//18 54//18 28//18
f 54//15 52//15 56//15
f 55//15 56//15 52//15
f 53//12 28//12 55//12
f 56//18 28//18 54//18
f 56//12 55//12 28//12
g mesh1-geometry-2
usemtl Material.dc7a3ca9ca091ddbf48733c3a604f557
f 7//1 13//1 2//1
f 13//1 7//1 12//1
