# created by Ethan Wu and Zhan isaac Ling
mtllib model.mtl
v 0.185101 0.322406 -0.334340
v 0.137293 0.322411 0.334343
v 0.185104 0.322402 0.334337
vn 0.000000 1.000000 0.000000
v 0.137291 0.322410 -0.334343
v 0.185098 -0.107473 0.334343
vn 0.000000 0.000000 1.000000
v 0.185098 0.304465 0.316400
vn 1.000000 0.000000 0.000000
v 0.137302 -0.107482 -0.334347
vn 0.000000 0.000000 -1.000000
v 0.077579 0.290112 0.284111
vn -0.475665 0.879627 0.000000
v 0.137291 -0.107471 0.334347
v 0.185104 -0.089536 0.316406
v 0.185101 0.304468 -0.316403
v 0.185101 -0.107470 -0.334340
v 0.077579 -0.075176 -0.284113
vn -0.643721 0.000000 -0.765261
v 0.077578 0.290110 -0.284109
vn -0.643721 0.000000 0.765261
vn 0.000000 -1.000000 0.000000
v 0.185101 -0.089532 -0.316403
v 0.179123 -0.089527 0.316397
vn 0.000000 0.000000 -1.000000
v 0.179123 0.304462 -0.316397
v 0.077581 -0.075185 0.284112
vn -0.475665 -0.879627 0.000000
v 0.077585 0.167189 -0.000000
vn -1.000000 0.000000 0.000000
vn 0.000000 1.000000 0.000000
v 0.179123 0.304462 0.316397
v 0.077582 0.065242 -0.042226
v 0.077580 0.055756 0.029856
v 0.077585 0.165154 0.015457
v 0.077583 0.165151 -0.015456
v 0.077584 0.065239 0.042228
v 0.179123 -0.089527 -0.316397
v 0.077583 0.055750 -0.029859
v 0.077582 0.075358 -0.049950
v 0.077583 0.049817 0.015447
v 0.077582 0.159183 0.029858
v -0.185092 0.165161 0.015459
vn 0.000000 1.000000 0.000000
vn 0.000000 0.965926 0.258819
v 0.077639 0.165115 0.015447
v -0.185055 0.165108 0.015445
v 0.077639 0.167149 -0.000000
vn 0.000000 -0.965926 -0.258819
vn 0.000000 -1.000000 0.000000
v 0.077585 0.159188 -0.029861
v -0.185084 0.167201 -0.000000
vn 0.000000 0.965926 -0.258819
v -0.185063 0.167137 -0.000000
v 0.077641 0.165118 -0.015447
vn 0.000000 -0.965926 0.258819
v 0.077585 0.075337 0.049978
v 0.077585 0.049781 -0.015457
v -0.005951 0.055741 -0.029864
vn 0.000000 -0.866025 -0.500000
vn 0.000000 -0.707107 -0.707107
v 0.077641 0.055780 -0.029842
v 0.077642 0.065263 -0.042204
v -0.005988 0.055789 -0.029837
vn 0.000000 0.866025 0.500000
vn 0.000000 0.707107 0.707107
v -0.005951 0.065233 -0.042235
v 0.077642 0.075340 -0.049974
vn 0.000000 -0.608761 -0.793353
v -0.005988 0.065272 -0.042195
vn 0.000000 0.608761 0.793353
v 0.077585 0.077627 -0.051685
v -0.005955 0.055739 0.029866
vn 0.000000 -0.707107 0.707107
vn 0.000000 -0.866025 0.500000
v 0.077644 0.055774 0.029845
v -0.005985 0.055791 0.029836
v 0.077640 0.065266 0.042202
vn 0.000000 0.866025 -0.500000
vn 0.000000 0.707107 -0.707107
v 0.077641 0.049784 0.015456
vn 0.000000 -0.965926 0.258819
vn 0.000000 0.965926 -0.258819
v 0.077588 0.047743 -0.000000
v 0.077582 0.149672 0.042204
v -0.185100 0.159188 0.029861
vn 0.000000 0.866025 0.500000
v 0.077642 0.159157 0.029843
v -0.185046 0.159153 0.029841
vn 0.000000 -0.866025 -0.500000
v 0.077584 0.149696 -0.042228
v -0.185097 0.165157 -0.015458
vn 0.000000 0.866025 -0.500000
v -0.185050 0.165112 -0.015446
v 0.077639 0.159153 -0.029841
vn 0.000000 -0.866025 0.500000
v 0.077582 0.077609 0.051716
v -0.005970 0.075329 0.049989
vn 0.000000 -0.608761 0.793353
v 0.077639 0.075361 0.049946
v -0.005970 0.075369 0.049936
vn 0.000000 0.608761 -0.793353
v -0.005951 0.049774 -0.015459
vn 0.000000 -0.965926 -0.258819
v 0.077639 0.049820 -0.015447
v -0.005988 0.049828 -0.015445
vn 0.000000 0.965926 0.258819
v -0.005970 0.075329 -0.049989
v -0.005970 0.075369 -0.049936
v 0.077639 0.077607 -0.051720
vn 0.000000 -0.608761 -0.793353
vn 0.000000 -0.500000 -0.866025
vn 0.000000 0.608761 0.793353
vn 0.000000 0.500000 0.866025
v 0.077583 0.092011 -0.057683
v -0.005946 0.065236 0.042232
v -0.005993 0.065269 0.042198
v -0.005951 0.049774 0.015459
v -0.005988 0.049828 0.015445
vn 0.000000 -1.000000 0.000000
v 0.077636 0.047790 -0.000000
vn 0.000000 1.000000 0.000000
v 0.077583 0.139597 0.049976
v -0.185088 0.149704 0.042236
v 0.077642 0.149693 0.042226
vn 0.000000 0.707107 0.707107
v -0.185058 0.149661 0.042194
vn 0.000000 -0.707107 -0.707107
vn 1.000000 0.000000 0.000000
v 0.077583 0.139597 -0.049976
v -0.185092 0.159194 -0.029864
vn 0.000000 0.707107 -0.707107
v -0.185055 0.159146 -0.029837
v 0.077640 0.149669 -0.042202
vn 0.000000 -0.707107 0.707107
v 0.077583 0.092011 0.057683
v -0.005951 0.077603 0.051727
vn 0.000000 -0.500000 0.866025
vn 0.000000 -0.608761 0.793353
v 0.077642 0.077624 0.051690
v -0.005988 0.077631 0.051679
vn 0.000000 0.500000 -0.866025
vn 0.000000 0.608761 -0.793353
v -0.005951 0.047739 -0.000000
v -0.005988 0.047794 -0.000000
v -0.005939 -0.322394 0.059706
v -0.005951 0.077603 -0.051727
v -0.005988 0.077631 -0.051679
vn 0.000000 -0.258819 -0.965926
v 0.077641 0.092020 -0.057650
vn 0.000000 0.258819 0.965926
v 0.077582 0.107468 -0.059686
v 0.077583 0.137327 0.051718
vn 0.000000 0.608761 0.793353
v 0.077641 0.139576 0.049949
vn 0.000000 -0.608761 -0.793353
v -0.185103 0.149693 -0.042226
v -0.185043 0.149672 -0.042204
v 0.077583 0.137327 -0.051718
v -0.185097 0.139601 -0.049981
vn 0.000000 0.608761 -0.793353
v 0.077641 0.139576 -0.049949
v -0.185050 0.139572 -0.049944
vn 0.000000 -0.608761 0.793353
v 0.077585 0.107468 0.059721
v -0.005951 0.092008 0.057694
vn 0.000000 -0.258819 0.965926
v 0.077641 0.092020 0.057650
v -0.005988 0.092023 0.057640
vn 0.000000 0.258819 -0.965926
v -0.005946 0.092010 -0.057690
v -0.005993 0.092022 -0.057644
v 0.077642 0.107468 -0.059716
vn 0.000000 0.000000 -1.000000
vn 0.000000 0.000000 1.000000
v 0.077585 0.122914 -0.057648
v 0.077582 0.122923 0.057681
v -0.185097 0.139601 0.049981
vn 0.000000 0.608761 0.793353
vn 0.000000 0.500000 0.866025
v 0.077641 0.137310 0.051688
v -0.185050 0.139572 0.049944
vn 0.000000 -0.608761 -0.793353
vn 0.000000 -0.500000 -0.866025
v -0.185097 0.137330 -0.051723
vn 0.000000 0.500000 -0.866025
vn 0.000000 0.608761 -0.793353
v 0.077641 0.137310 -0.051688
v -0.185050 0.137306 -0.051682
vn 0.000000 -0.500000 0.866025
vn 0.000000 -0.608761 0.793353
v -0.005963 0.107468 0.059734
vn 0.000000 0.000000 1.000000
vn 0.000000 0.000000 1.000000
v 0.077639 0.107468 0.059681
v -0.005976 0.107468 0.059668
vn 0.000000 0.000000 -1.000000
vn 0.000000 0.000000 -1.000000
v -0.005964 0.107468 -0.059734
vn 0.000000 0.000000 -1.000000
v -0.005975 0.107468 -0.059668
vn 0.000000 0.000000 1.000000
v 0.077639 0.122925 -0.057686
vn 0.000000 0.258819 -0.965926
vn 0.000000 -0.258819 0.965926
v -0.185097 0.137330 0.051723
vn 0.000000 0.258819 0.965926
v 0.077642 0.122916 0.057653
v -0.185050 0.137306 0.051682
vn 0.000000 -0.258819 -0.965926
v -0.185088 0.122927 -0.057696
v -0.185058 0.122912 -0.057638
v -0.185097 0.122926 0.057690
v -0.185050 0.122913 0.057644
v -0.005955 -0.322410 -0.059708
v -0.185097 0.107469 0.059725
vn 0.000000 0.065403 0.997859
v -0.185050 0.107466 0.059678
vn 0.000000 -0.065403 -0.997859
v -0.006000 -0.322368 0.059696
vn 0.000000 0.000000 -1.000000
v -0.185095 -0.322402 -0.059715
v -0.005984 -0.322351 -0.059694
v -0.185052 -0.322359 -0.059687
vn 0.000000 0.000000 1.000000
v -0.185101 0.107469 -0.059720
vn 0.000000 0.065403 -0.997859
v -0.185045 0.107466 -0.059683
vn 0.000000 -0.065403 0.997859
v -0.185096 -0.322404 0.059709
v -0.185050 -0.322358 0.059693
v -0.185104 -0.316398 -0.059701
v -0.185042 -0.316423 -0.059701
v -0.185103 -0.316396 0.059701
v -0.185043 -0.316425 0.059701
v -0.185093 -0.322400 -0.238824
v 0.185088 -0.316383 -0.238818
v 0.185090 -0.322405 0.238821
v 0.185084 -0.322411 -0.238815
v -0.185093 -0.316391 0.238824
v -0.185093 -0.316391 -0.238824
v 0.185093 -0.316391 0.238824
vn 0.000000 1.000000 0.000000
v -0.185093 -0.322400 0.238824
v 0.185044 0.322382 0.334316
v 0.137334 0.322373 0.334308
v 0.185047 0.322378 -0.334313
vn 0.000000 -1.000000 0.000000
v 0.137335 0.322373 -0.334309
v 0.185050 -0.107440 0.334310
v 0.185050 0.304498 0.316432
vn -1.000000 0.000000 0.000000
v 0.137324 -0.107431 -0.334308
vn 0.000000 0.000000 1.000000
v 0.077645 0.290104 0.284104
vn 0.475665 -0.879627 0.000000
v 0.137335 -0.107442 0.334306
v 0.185044 -0.089556 0.316426
v 0.185047 0.304495 -0.316430
v 0.185047 -0.107443 -0.334313
v 0.077645 -0.075169 -0.284102
vn 0.643721 0.000000 0.765261
v 0.077645 0.290106 -0.284105
vn 0.643721 0.000000 -0.765261
vn 0.000000 1.000000 0.000000
v 0.185047 -0.089560 -0.316430
v 0.179085 -0.089566 0.316435
v 0.179085 0.304501 -0.316435
v 0.077643 -0.075161 0.284102
vn 0.475665 0.879627 0.000000
vn 0.000000 -1.000000 0.000000
v 0.179085 0.304501 0.316435
v 0.179085 -0.089566 -0.316435
v 0.185064 -0.322350 -0.238795
v -0.185054 -0.322361 -0.238785
v 0.185058 -0.322356 0.238788
v 0.185060 -0.316438 -0.238791
v -0.185054 -0.316430 0.238785
v -0.185054 -0.322361 0.238785
v -0.185054 -0.316430 -0.238785
v 0.185055 -0.316430 0.238785
vn 0.000000 -1.000000 0.000000
vt 0.024606 0.024606
vt 0.894029 0.565945
vt 0.024606 0.565945
vt 0.894029 0.024606
g mesh1-geometry-0
usemtl Material.57774a50243e5d429f3a4ea105ec3930
f 1//1 2//1 3//1
f 2//1 1//1 4//1
f 2//2 5//2 3//2
f 3//3 6//3 1//3
f 1//4 7//4 4//4
f 4//5 8//5 2//5
f 5//2 2//2 9//2
f 5//3 10//3 3//3
f 3//3 10//3 6//3
f 11//3 1//3 6//3
f 7//4 1//4 12//4
f 13//6 4//6 7//6
f 8//5 4//5 14//5
f 8//7 9//7 2//7
f 7//8 5//8 9//8
f 10//3 5//3 15//3
f 16//9 6//9 10//9
f 15//3 1//3 11//3
f 6//8 17//8 11//8
f 15//3 12//3 1//3
f 5//8 7//8 12//8
f 4//6 13//6 14//6
f 7//10 18//10 13//10
f 19//11 8//11 14//11
f 9//7 8//7 18//7
f 18//10 7//10 9//10
f 12//3 15//3 5//3
f 15//12 16//12 10//12
f 6//9 16//9 20//9
f 17//2 15//2 11//2
f 17//8 6//8 20//8
f 13//11 21//11 14//11
f 18//11 22//11 13//11
f 23//11 8//11 19//11
f 14//11 24//11 19//11
f 25//11 18//11 8//11
f 16//12 15//12 26//12
f 15//2 17//2 26//2
f 21//11 13//11 27//11
f 14//11 21//11 28//11
f 22//11 18//11 25//11
f 13//11 22//11 29//11
f 30//11 8//11 23//11
f 19//13 31//14 23//14
f 32//15 33//15 34//16
f 14//11 35//11 24//11
f 24//17 36//13 19//13
f 34//16 37//16 38//18
f 25//11 8//11 39//11
f 27//11 13//11 40//11
f 41//19 21//20 27//19
f 42//21 43//22 44//21
f 45//20 46//23 21//20
f 43//22 28//24 47//22
f 14//11 28//11 48//11
f 25//25 49//26 22//26
f 50//27 51//27 52//28
f 49//26 53//29 22//26
f 50//27 29//30 51//27
f 13//11 29//11 54//11
f 55//11 8//11 30//11
f 23//14 56//31 30//31
f 57//32 58//32 32//15
f 31//14 19//13 36//13
f 37//16 34//16 33//15
f 56//31 23//14 31//14
f 33//15 32//15 58//32
f 14//11 59//11 35//11
f 35//33 60//17 24//17
f 38//18 61//18 62//34
f 36//13 24//17 60//17
f 61//18 38//18 37//16
f 39//11 8//11 63//11
f 64//35 25//25 39//35
f 65//36 52//28 66//36
f 40//11 13//11 54//11
f 67//37 27//19 40//37
f 68//38 42//21 69//38
f 21//20 41//19 45//20
f 47//22 44//21 43//22
f 27//19 67//37 41//19
f 44//21 69//38 42//21
f 46//23 45//20 70//23
f 71//24 47//22 28//24
f 70//39 72//40 46//39
f 28//41 48//42 71//41
f 14//11 48//11 73//11
f 49//26 25//25 74//25
f 75//28 52//28 51//27
f 53//29 49//26 76//29
f 77//30 51//27 29//30
f 76//29 54//43 53//29
f 29//30 78//44 77//30
f 79//11 8//11 55//11
f 30//31 80//45 81//45
f 55//46 82//46 57//32
f 80//45 30//31 56//31
f 58//32 57//32 82//46
f 60//11 31//11 36//11
f 37//47 33//47 61//47
f 60//11 56//11 31//11
f 33//47 58//47 61//47
f 14//11 83//11 59//11
f 59//48 84//33 35//33
f 62//34 85//34 86//49
f 60//17 35//33 84//33
f 85//34 62//34 61//18
f 63//11 8//11 87//11
f 88//50 39//51 63//50
f 89//52 65//53 90//52
f 25//25 64//35 74//25
f 75//28 66//36 52//28
f 39//51 88//50 64//51
f 66//53 90//52 65//53
f 91//43 40//37 54//43
f 78//44 68//38 92//44
f 40//37 91//43 67//37
f 69//38 92//44 68//38
f 93//3 45//3 41//3
f 93//3 41//3 67//3
f 72//40 70//39 94//40
f 95//42 71//41 48//42
f 94//40 73//54 72//40
f 48//42 96//55 95//42
f 14//11 73//11 97//11
f 74//3 93//3 49//3
f 49//3 93//3 76//3
f 54//43 76//29 91//43
f 92//44 77//30 78//44
f 98//11 8//11 79//11
f 80//45 79//56 81//45
f 55//46 99//57 82//46
f 100//11 80//11 56//11
f 58//47 82//47 101//47
f 84//11 56//11 60//11
f 61//47 58//47 85//47
f 14//11 102//11 83//11
f 103//58 59//48 83//58
f 104//59 86//49 105//59
f 84//33 59//48 100//48
f 101//49 86//49 85//34
f 87//11 8//11 106//11
f 107//60 63//50 87//60
f 108//61 89//52 109//61
f 63//50 107//60 88//50
f 90//52 109//61 89//52
f 93//3 67//3 91//3
f 93//3 94//3 45//3
f 73//54 94//40 110//54
f 111//55 95//42 96//55
f 110//54 112//62 73//54
f 96//55 97//63 111//55
f 14//11 97//11 113//11
f 88//3 93//3 74//3
f 76//3 93//3 91//3
f 114//11 8//11 98//11
f 115//64 98//65 79//64
f 99//66 116//67 117//66
f 79//56 80//45 115//56
f 117//57 82//46 99//57
f 100//11 115//11 80//11
f 82//47 117//47 101//47
f 100//11 56//11 84//11
f 85//47 58//47 101//47
f 14//11 113//11 102//11
f 118//68 83//69 102//68
f 119//70 104//71 120//70
f 59//48 103//58 100//48
f 101//49 105//59 86//49
f 83//69 118//68 103//69
f 105//71 120//70 104//71
f 106//11 8//11 114//11
f 121//72 87//60 106//73
f 122//74 108//61 123//75
f 87//60 121//72 107//60
f 109//61 123//75 108//61
f 107//3 93//3 88//3
f 93//3 110//3 94//3
f 112//62 110//54 124//76
f 125//77 111//55 97//63
f 124//76 126//78 112//62
f 97//63 113//79 125//77
f 127//65 114//80 98//65
f 116//67 128//81 129//67
f 98//65 115//64 127//65
f 129//67 117//66 116//67
f 103//11 115//11 100//11
f 101//47 117//47 105//47
f 130//78 102//68 126//78
f 113//79 119//70 131//79
f 102//68 130//78 118//68
f 120//70 131//79 119//70
f 118//11 127//11 103//11
f 105//47 129//47 120//47
f 132//80 106//73 114//80
f 128//81 122//74 133//81
f 106//73 132//80 121//72
f 123//75 133//81 122//74
f 93//3 107//3 121//3
f 134//3 110//3 93//3
f 110//3 134//3 124//3
f 126//78 124//76 130//78
f 131//79 125//77 113//79
f 114//80 127//65 132//80
f 133//81 129//67 128//81
f 103//11 127//11 115//11
f 117//47 129//47 105//47
f 130//11 132//11 118//11
f 120//47 133//47 131//47
f 118//11 132//11 127//11
f 129//47 133//47 120//47
f 121//72 132//80 135//82
f 136//83 133//81 123//75
f 135//82 93//2 121//72
f 123//75 137//84 136//83
f 93//8 138//8 134//8
f 138//9 124//76 134//9
f 139//85 125//77 140//85
f 130//78 124//76 141//86
f 142//87 125//77 131//79
f 141//11 132//11 130//11
f 131//47 133//47 142//47
f 141//11 135//11 132//11
f 133//47 136//47 142//47
f 93//2 135//82 143//2
f 144//84 136//83 137//84
f 138//8 93//8 143//8
f 124//76 138//9 141//86
f 142//87 140//85 125//77
f 145//11 135//11 141//11
f 142//47 136//47 146//47
f 147//11 138//11 143//11
f 144//47 140//47 148//47
f 145//11 149//11 138//11
f 150//3 151//3 152//3
f 149//9 150//9 152//9
f 135//11 145//11 147//11
f 148//47 146//47 136//47
f 143//11 153//11 147//11
f 138//11 147//11 145//11
f 146//47 148//47 140//47
f 149//11 145//11 154//11
f 151//3 150//3 155//3
f 150//9 149//9 154//9
f 147//88 150//88 145//88
f 153//11 143//11 156//11
f 153//88 150//88 147//88
f 151//2 153//2 156//2
f 145//88 150//88 154//88
f 150//88 153//88 155//88
f 153//2 151//2 155//2
g mesh1-geometry-1
usemtl Material.90b00bf69165eda831fe702671104217
f 157//89 158//89 159//89
f 160//89 159//89 158//89
f 157//84 161//84 158//84
f 159//90 162//90 157//90
f 160//91 163//91 159//91
f 158//92 164//92 160//92
f 163//11 2//11 4//11
f 160//47 158//47 7//47
f 165//84 158//84 161//84
f 157//90 166//90 161//90
f 162//90 166//90 157//90
f 162//90 159//90 167//90
f 168//91 159//91 163//91
f 163//93 160//93 169//93
f 170//92 160//92 164//92
f 158//94 165//94 164//94
f 2//11 7//11 9//11
f 165//47 163//47 158//47
f 165//95 161//95 163//95
f 171//90 161//90 166//90
f 166//85 162//85 172//85
f 167//90 159//90 171//90
f 167//95 173//95 162//95
f 159//90 168//90 171//90
f 168//95 163//95 161//95
f 170//93 169//93 160//93
f 169//96 174//96 163//96
f 170//47 164//47 34//47
f 174//94 164//94 165//94
f 165//96 163//96 174//96
f 161//90 171//90 168//90
f 166//97 172//97 171//97
f 175//85 172//85 162//85
f 167//84 171//84 173//84
f 175//95 162//95 173//95
f 170//47 43//47 169//47
f 169//47 50//47 174//47
f 34//47 164//47 32//47
f 34//47 38//47 170//47
f 164//47 174//47 52//47
f 176//97 171//97 172//97
f 176//84 173//84 171//84
f 42//47 169//47 43//47
f 46//47 43//47 170//47
f 52//47 174//47 50//47
f 53//47 50//47 169//47
f 32//47 164//47 57//47
f 24//11 23//11 19//11
f 34//47 32//47 38//47
f 38//47 62//47 170//47
f 65//47 164//47 52//47
f 68//47 169//47 42//47
f 27//11 22//11 21//11
f 43//47 50//47 42//47
f 21//11 25//11 28//11
f 46//47 52//47 43//47
f 72//47 46//47 170//47
f 21//11 22//11 25//11
f 52//47 50//47 43//47
f 27//11 29//11 22//11
f 50//47 53//47 42//47
f 78//47 53//47 169//47
f 57//47 164//47 81//47
f 24//11 30//11 23//11
f 32//47 57//47 38//47
f 62//47 86//47 170//47
f 35//11 30//11 24//11
f 38//47 57//47 62//47
f 89//47 164//47 65//47
f 28//11 25//11 39//11
f 65//47 52//47 46//47
f 78//47 169//47 68//47
f 40//11 29//11 27//11
f 42//47 53//47 68//47
f 28//11 63//11 48//11
f 72//47 89//47 46//47
f 96//47 72//47 170//47
f 29//11 40//11 54//11
f 78//47 68//47 53//47
f 81//47 164//47 99//47
f 59//11 55//11 30//11
f 57//47 81//47 86//47
f 86//47 104//47 170//47
f 59//11 30//11 35//11
f 62//47 57//47 86//47
f 108//47 164//47 89//47
f 28//11 39//11 63//11
f 89//47 65//47 46//47
f 44//90 47//90 137//90
f 69//90 44//90 137//90
f 48//11 63//11 73//11
f 96//47 89//47 72//47
f 112//47 96//47 170//47
f 51//90 137//90 75//90
f 77//90 137//90 51//90
f 99//47 164//47 116//47
f 59//11 79//11 55//11
f 81//47 99//47 86//47
f 104//47 119//47 170//47
f 83//11 79//11 59//11
f 86//47 99//47 104//47
f 122//47 164//47 108//47
f 73//11 63//11 87//11
f 108//47 89//47 96//47
f 92//90 69//90 137//90
f 47//90 95//90 137//90
f 73//11 87//11 97//11
f 112//47 108//47 96//47
f 126//47 112//47 170//47
f 75//90 137//90 90//90
f 92//90 137//90 77//90
f 116//47 164//47 128//47
f 83//11 98//11 79//11
f 99//47 116//47 104//47
f 119//47 126//47 170//47
f 102//11 98//11 83//11
f 104//47 116//47 119//47
f 128//47 164//47 122//47
f 97//11 87//11 106//11
f 122//47 108//47 112//47
f 90//90 137//90 109//90
f 95//90 111//90 137//90
f 97//11 114//11 113//11
f 126//47 128//47 112//47
f 102//11 114//11 98//11
f 116//47 128//47 119//47
f 113//11 114//11 102//11
f 119//47 128//47 126//47
f 97//11 106//11 114//11
f 128//47 122//47 112//47
f 123//90 109//90 137//90
f 137//90 111//90 139//90
f 125//90 139//90 111//90
f 139//95 140//95 137//95
f 152//8 93//8 134//8
f 139//95 137//95 177//95
f 144//95 137//95 140//95
f 149//8 134//8 138//8
f 140//95 139//95 178//95
f 151//8 93//8 152//8
f 177//95 137//95 179//95
f 152//8 134//8 149//8
f 178//95 139//95 177//95
f 151//8 143//8 93//8
f 137//95 144//95 179//95
f 140//47 178//47 146//47
f 177//90 179//90 180//90
f 177//85 180//85 178//85
f 148//47 181//47 144//47
f 143//8 151//8 156//8
f 182//95 179//95 144//95
f 183//47 146//47 178//47
f 184//90 180//90 179//90
f 183//85 178//85 180//85
f 146//98 180//98 148//98
f 182//47 144//47 181//47
f 148//98 180//98 181//98
f 182//84 181//84 179//84
f 183//98 180//98 146//98
f 184//98 181//98 180//98
f 184//84 179//84 181//84
g mesh1-geometry-2
usemtl Material.fd405729217466f29eac93fc2fe0bd88
f 16/1/3 17/2/3 20/3/3
f 175/3/90 173/2/90 172/1/90
f 17/2/3 16/1/3 26/4/3
f 176/4/90 172/1/90 173/2/90
