# created by Ethan Wu and Zhan isaac Ling
mtllib model.mtl
v 0.036792 0.335830 -0.353510
v 0.036802 0.300512 0.318180
v 0.036787 0.335843 0.318160
vn -1.000000 0.000000 0.000000
v 0.036794 0.300505 -0.318185
v 0.036803 -0.209163 -0.318200
v 0.030915 0.300514 -0.318193
vn 0.000000 1.000000 0.000000
v 0.036851 0.300477 -0.318156
v 0.036843 0.300471 0.318139
v 0.030945 0.300468 -0.318148
vn 0.000000 -1.000000 0.000000
v 0.036797 -0.253335 0.353494
v 0.036790 -0.218011 0.318171
v 0.030915 -0.218023 0.318183
vn 0.000000 0.000000 1.000000
v 0.036854 -0.217990 0.318149
v 0.030945 -0.217978 0.318137
vn 0.000000 0.000000 -1.000000
v -0.066266 0.335822 0.353491
v 0.036802 0.335822 0.353491
vn 0.000000 -1.000000 0.000000
v 0.036797 -0.218018 -0.318188
vn 0.000000 0.000000 -1.000000
v 0.036842 -0.209163 -0.318141
vn 0.000000 0.000000 1.000000
v 0.030930 0.300516 0.318185
v 0.030930 0.300466 0.318135
v 0.036790 -0.253341 -0.353512
v 0.036848 -0.217983 -0.318153
vn 0.000000 1.000000 0.000000
v -0.066253 0.335836 -0.353516
v 0.030930 -0.209163 -0.318206
v 0.030930 -0.209163 -0.318135
v -0.066287 0.300516 -0.318196
v -0.066287 0.300466 -0.318145
vn 1.000000 0.000000 0.000000
v -0.066256 -0.253340 -0.353510
v -0.066266 -0.218021 0.318180
v -0.066307 -0.217980 0.318139
v 0.030924 -0.218030 -0.318189
v 0.030936 -0.217971 -0.318153
v -0.066262 0.300509 0.318178
vn 0.000000 0.000000 1.000000
v -0.066255 -0.253341 0.353501
v -0.066311 0.300473 0.318142
v -0.066266 -0.217980 -0.318191
v -0.066275 -0.209163 -0.318204
v -0.066298 -0.209163 -0.318137
v -0.075096 0.300477 -0.318156
v -0.075104 -0.217980 0.318139
v -0.066274 -0.218034 0.189616
v -0.066300 -0.217968 0.189616
v -0.066287 -0.217965 -0.187469
v -0.066307 -0.218021 -0.318150
v -0.075096 0.300477 0.318145
v -0.075145 -0.218021 0.318180
v -0.066287 -0.218036 -0.187469
v -0.075101 -0.217977 -0.187460
v -0.075125 -0.209163 -0.318135
v -0.075089 -0.008145 0.188012
v -0.075144 -0.218030 0.189616
v -0.075105 -0.217971 0.189616
v -0.075104 -0.217980 -0.318150
v -0.075151 -0.217981 0.187999
v -0.075091 -0.008153 -0.187461
v -0.075149 -0.218025 -0.187479
v -0.075142 -0.301196 0.187987
v -0.075158 -0.008136 -0.187478
v -0.075098 -0.218020 0.188025
v -0.110457 -0.218014 0.187986
v -0.110496 -0.217988 0.188039
v -0.110456 -0.008165 -0.187449
v -0.075160 -0.008145 0.188012
v -0.075133 -0.301187 -0.187436
v -0.110501 -0.218009 -0.187445
v -0.110452 -0.217993 -0.187494
v -0.110456 -0.008165 0.187992
v 0.110448 -0.301202 -0.187458
v -0.110459 -0.335822 0.187987
v -0.110462 -0.335825 -0.187440
v 0.110457 -0.301193 0.187983
v 0.110460 -0.335816 -0.187446
v 0.110443 -0.335825 0.187998
v 0.036858 0.335843 0.318160
v 0.036853 0.335855 -0.353533
v 0.036848 -0.253369 0.353529
v 0.036843 0.335863 0.353533
v 0.036854 -0.253363 -0.353533
v -0.066307 0.335863 0.353533
v -0.066321 0.335849 -0.353529
v -0.066317 -0.253364 -0.353533
vn 0.000000 0.000000 -1.000000
v -0.066319 -0.253363 0.353522
v -0.075154 0.300505 -0.318185
v -0.075154 0.300505 0.318174
v -0.075125 -0.209163 -0.318206
v -0.075145 -0.218021 -0.318191
v -0.075108 -0.301162 0.188038
v -0.110497 -0.008124 -0.187490
v -0.075116 -0.301170 -0.187503
v -0.110497 -0.008124 0.188033
v 0.110495 -0.301155 -0.187481
v -0.110494 -0.335857 0.188038
v -0.110491 -0.335854 -0.187498
v 0.110486 -0.301164 0.188041
v 0.110483 -0.335863 -0.187493
v 0.110501 -0.335854 0.188027
g mesh1-geometry-0
usemtl Material.57774a50243e5d429f3a4ea105ec3930
f 1//1 2//1 3//1
f 2//1 1//1 4//1
f 4//1 1//1 5//1
f 6//2 2//2 4//2
f 7//3 8//3 9//3
f 10//1 3//1 11//1
f 2//4 12//4 11//4
f 13//5 14//5 8//5
f 15//6 1//6 16//6
f 3//1 10//1 16//1
f 5//1 1//1 17//1
f 5//7 6//7 4//7
f 7//8 9//8 18//8
f 2//2 6//2 19//2
f 20//3 9//3 8//3
f 10//1 11//1 21//1
f 12//4 2//4 19//4
f 20//5 8//5 14//5
f 12//6 17//6 11//6
f 13//9 22//9 14//9
f 1//6 15//6 23//6
f 10//7 15//7 16//7
f 21//1 17//1 1//1
f 17//7 24//7 5//7
f 18//8 25//8 22//8
f 6//7 5//7 24//7
f 25//8 18//8 9//8
f 26//2 19//2 6//2
f 9//3 20//3 27//3
f 6//1 12//1 19//1
f 19//10 14//10 9//10
f 21//1 11//1 17//1
f 28//2 10//2 21//2
f 19//4 29//4 12//4
f 14//5 30//5 20//5
f 17//6 12//6 31//6
f 32//9 14//9 22//9
f 23//10 15//10 33//10
f 28//11 1//11 23//11
f 15//7 10//7 34//7
f 1//11 28//11 21//11
f 24//7 17//7 31//7
f 32//8 22//8 25//8
f 24//7 26//7 6//7
f 9//8 27//8 25//8
f 19//2 26//2 33//2
f 35//3 27//3 20//3
f 12//1 6//1 31//1
f 32//10 9//10 14//10
f 10//2 28//2 34//2
f 29//4 19//4 33//4
f 35//5 20//5 30//5
f 29//6 31//6 12//6
f 14//9 32//9 30//9
f 34//10 33//10 15//10
f 27//10 23//10 33//10
f 23//10 36//10 28//10
f 31//7 37//7 24//7
f 25//8 38//8 32//8
f 26//7 24//7 37//7
f 38//8 25//8 27//8
f 27//3 35//3 39//3
f 28//10 29//10 34//10
f 30//5 40//5 35//5
f 33//10 34//10 29//10
f 41//6 31//6 29//6
f 30//9 32//9 42//9
f 37//10 23//10 27//10
f 36//10 43//10 28//10
f 36//10 23//10 37//10
f 37//7 31//7 36//7
f 44//8 32//8 38//8
f 27//8 39//8 38//8
f 45//3 39//3 35//3
f 41//10 29//10 28//10
f 45//5 35//5 40//5
f 46//6 41//6 29//6
f 30//9 42//9 40//9
f 47//6 31//6 41//6
f 42//9 32//9 43//9
f 43//10 41//10 28//10
f 31//6 47//6 44//6
f 36//9 43//9 32//9
f 43//9 36//9 48//9
f 38//8 49//8 44//8
f 49//8 38//8 39//8
f 39//10 45//10 50//10
f 40//10 50//10 45//10
f 41//6 46//6 51//6
f 52//9 40//9 42//9
f 42//9 43//9 52//9
f 53//9 48//9 36//9
f 48//9 54//9 43//9
f 53//8 44//8 49//8
f 55//10 39//10 50//10
f 52//10 50//10 40//10
f 52//9 43//9 54//9
f 53//10 39//10 48//10
f 56//1 57//1 54//1
f 54//1 58//1 56//1
f 48//10 55//10 59//10
f 60//6 56//6 59//6
f 54//9 48//9 61//9
f 48//10 39//10 55//10
f 55//3 50//3 62//3
f 58//1 54//1 63//1
f 50//10 59//10 55//10
f 50//10 52//10 59//10
f 57//1 56//1 64//1
f 54//5 57//5 60//5
f 55//8 62//8 48//8
f 56//6 60//6 65//6
f 66//9 61//9 48//9
f 54//5 60//5 50//5
f 67//3 62//3 50//3
f 48//8 65//8 64//8
f 68//6 57//6 64//6
f 60//5 57//5 69//5
f 65//8 48//8 62//8
f 66//10 62//10 60//10
f 60//10 69//10 66//10
f 67//5 50//5 60//5
f 67//10 60//10 62//10
f 65//8 70//8 64//8
f 57//6 68//6 71//6
f 64//8 72//8 68//8
f 57//5 71//5 69//5
f 70//10 66//10 69//10
f 72//8 64//8 70//8
f 68//1 73//1 71//1
f 73//1 68//1 72//1
f 73//5 69//5 71//5
f 70//9 69//9 72//9
f 73//9 72//9 69//9
g mesh1-geometry-1
usemtl Material.90b00bf69165eda831fe702671104217
f 74//10 8//10 75//10
f 7//10 75//10 8//10
f 18//10 75//10 7//10
f 13//10 74//10 76//10
f 77//10 76//10 74//10
f 22//10 75//10 18//10
f 78//10 13//10 76//10
f 75//10 22//10 78//10
f 22//10 13//10 78//10
g mesh1-geometry-2
usemtl Material.dc7a3ca9ca091ddbf48733c3a604f557
f 77//9 75//9 79//9
f 80//9 79//9 75//9
f 77//8 79//8 76//8
f 78//3 76//3 81//3
f 35//1 79//1 80//1
f 80//12 75//12 81//12
f 82//8 76//8 79//8
f 78//12 81//12 75//12
f 82//3 81//3 76//3
f 79//1 35//1 82//1
f 35//1 80//1 27//1
f 81//1 44//1 80//1
f 83//2 33//2 26//2
f 82//1 30//1 81//1
f 33//4 46//4 29//4
f 30//1 82//1 35//1
f 27//1 80//1 38//1
f 81//1 43//1 44//1
f 38//1 80//1 44//1
f 37//7 83//7 26//7
f 33//2 83//2 84//2
f 81//1 30//1 42//1
f 46//4 33//4 84//4
f 81//1 42//1 43//1
f 56//6 44//6 47//6
f 36//7 85//7 37//7
f 83//7 37//7 85//7
f 63//1 84//1 83//1
f 84//1 63//1 46//1
f 51//6 47//6 41//6
f 44//6 56//6 86//6
f 47//6 59//6 56//6
f 85//7 36//7 86//7
f 63//1 83//1 58//1
f 46//1 63//1 51//1
f 59//6 47//6 51//6
f 56//1 83//1 86//1
f 59//10 87//10 48//10
f 58//1 83//1 56//1
f 88//2 50//2 58//2
f 54//1 51//1 63//1
f 89//10 48//10 87//10
f 61//4 87//4 59//4
f 56//7 88//7 58//7
f 50//4 61//4 59//4
f 50//2 88//2 90//2
f 89//7 66//7 48//7
f 89//9 87//9 91//9
f 92//4 87//4 61//4
f 88//7 56//7 66//7
f 61//1 88//1 65//1
f 65//1 92//1 61//1
f 61//4 50//4 90//4
f 88//1 61//1 90//1
f 89//7 93//7 66//7
f 94//9 91//9 87//9
f 91//7 95//7 89//7
f 92//4 94//4 87//4
f 92//1 65//1 93//1
f 93//7 89//7 95//7
f 94//10 96//10 91//10
f 95//10 91//10 96//10
f 94//4 92//4 96//4
f 95//6 92//6 93//6
f 92//6 95//6 96//6
