# created by Ethan Wu and Zhan isaac Ling
mtllib model.mtl
v -0.045834 -0.340851 -0.197555
v -0.151703 -0.340854 -0.197551
v -0.098769 -0.340840 -0.204528
vn 0.000000 -1.000000 0.000000
v 0.003491 -0.340854 -0.177120
v -0.098769 0.340834 -0.204528
vn -0.258819 0.000000 -0.965926
vn 0.000000 0.000000 -1.000000
v -0.045836 0.340851 -0.197548
vn 0.258819 0.000000 -0.965926
v 0.003491 0.340847 -0.177120
vn 0.500000 0.000000 -0.866025
v -0.201029 -0.340854 -0.177120
v -0.151702 0.340851 -0.197548
v 0.045851 0.340844 -0.144620
vn 0.707107 0.000000 -0.707107
v 0.045845 -0.340857 -0.144614
vn -0.500000 0.000000 -0.866025
vn 0.000000 1.000000 0.000000
v -0.048732 0.340857 -0.186742
v -0.002104 0.340857 -0.167428
v -0.243389 -0.340851 -0.144620
v -0.201029 0.340847 -0.177120
v -0.098769 0.340857 -0.193330
v 0.078347 -0.340857 -0.102258
vn 0.866025 0.000000 -0.500000
v 0.037935 0.340857 -0.136705
vn -0.707107 0.000000 -0.707107
v -0.148807 0.340857 -0.186742
v 0.078355 0.340840 -0.102263
v -0.275892 -0.340851 -0.102262
v -0.243383 0.340851 -0.144614
v -0.195434 0.340857 -0.167428
v 0.098786 -0.340851 -0.052935
vn 0.965926 0.000000 -0.258819
v 0.068659 0.340857 -0.096665
v -0.296317 -0.340857 -0.052933
v -0.275889 0.340847 -0.102260
vn -0.866025 0.000000 -0.500000
v 0.098792 -0.205224 -0.052936
v 0.098777 0.340851 -0.052932
v -0.296321 0.340847 -0.052934
vn -0.965926 0.000000 -0.258819
v -0.235474 0.340857 -0.136705
v 0.098792 0.206489 -0.052936
v 0.105751 -0.340854 0.000000
vn 1.000000 0.000000 0.000000
v 0.087973 0.340857 -0.050037
v -0.303289 0.340847 0.000000
vn -1.000000 0.000000 0.000000
v -0.266198 0.340857 -0.096665
v 0.105757 0.340840 0.000000
v -0.303289 -0.340854 0.000000
v -0.285511 0.340857 -0.050037
v 0.098779 -0.340857 0.052933
vn 0.965926 0.000000 0.258819
v 0.094560 0.340857 0.000000
v -0.296317 0.340851 0.052933
vn -0.965926 0.000000 0.258819
v -0.292099 0.340857 0.000000
v 0.098792 -0.196274 0.052936
v -0.296325 -0.340851 0.052935
v 0.087973 0.340857 0.050037
v 0.098792 0.205751 0.052936
v 0.078354 -0.340851 0.102262
vn 0.866025 0.000000 0.500000
v -0.275886 -0.340857 0.102258
v 0.098777 0.340851 0.052932
v -0.275889 0.340847 0.102260
vn -0.866025 0.000000 0.500000
v -0.285511 0.340857 0.050037
v 0.078355 0.340840 0.102263
v 0.068659 0.340857 0.096665
v -0.266198 0.340857 0.096665
v 0.045851 -0.340851 0.144620
vn 0.707107 0.000000 0.707107
v -0.243389 0.340844 0.144620
vn -0.707107 0.000000 0.707107
v -0.235474 0.340857 0.136705
v 0.045845 0.340851 0.144614
v -0.243383 -0.340857 0.144614
v 0.037935 0.340857 0.136705
v 0.003491 0.340847 0.177120
vn 0.500000 0.000000 0.866025
v 0.003491 -0.340854 0.177120
v -0.201029 -0.340854 0.177120
vn -0.500000 0.000000 0.866025
v -0.195434 0.340857 0.167428
v -0.002104 0.340857 0.167428
v -0.201029 0.340847 0.177120
v -0.045836 0.340851 0.197548
vn 0.258819 0.000000 0.965926
v -0.048732 0.340857 0.186742
v -0.045835 -0.340854 0.197551
v -0.151704 -0.340851 0.197555
vn -0.258819 0.000000 0.965926
v -0.148807 0.340857 0.186742
v -0.151702 0.340851 0.197548
v -0.098769 0.340834 0.204528
vn 0.000000 0.000000 1.000000
v -0.098769 0.340857 0.193330
v -0.098769 -0.340840 0.204528
v -0.098769 -0.340819 -0.204464
v -0.151690 -0.340806 -0.197505
v -0.045849 -0.340811 -0.197501
vn 0.000000 1.000000 0.000000
v 0.003467 -0.340806 -0.177078
v -0.098769 0.340812 -0.204464
vn 0.000000 0.000000 1.000000
vn 0.258819 0.000000 0.965926
v -0.045847 0.340796 -0.197508
vn -0.258819 0.000000 0.965926
v 0.003467 0.340799 -0.177078
vn -0.500000 0.000000 0.866025
v -0.201005 -0.340806 -0.177078
v -0.151691 0.340796 -0.197508
v 0.045812 0.340803 -0.144581
vn -0.707107 0.000000 0.707107
v 0.045818 -0.340802 -0.144587
vn 0.500000 0.000000 0.866025
vn 0.000000 -1.000000 0.000000
v -0.048732 0.340789 -0.186742
v -0.002104 0.340789 -0.167428
v -0.243350 -0.340810 -0.144581
v -0.201005 0.340799 -0.177078
v -0.098769 0.340789 -0.193330
v 0.078312 -0.340803 -0.102238
vn -0.866025 0.000000 0.500000
v 0.037935 0.340789 -0.136705
vn 0.707107 0.000000 0.707107
v -0.148807 0.340789 -0.186742
v 0.078304 0.340806 -0.102233
v -0.275843 -0.340811 -0.102234
v -0.243356 0.340795 -0.144587
v -0.195434 0.340789 -0.167428
v 0.098731 -0.340811 -0.052920
vn -0.965926 0.000000 0.258819
v 0.068659 0.340789 -0.096665
v -0.296277 -0.340803 -0.052922
v -0.275847 0.340799 -0.102236
vn 0.866025 0.000000 0.500000
v 0.098726 -0.205224 -0.052918
v 0.098741 0.340795 -0.052923
v -0.296274 0.340799 -0.052921
vn 0.965926 0.000000 0.258819
v -0.235474 0.340789 -0.136705
v 0.098726 0.206489 -0.052918
v 0.105703 -0.340806 0.000000
vn -1.000000 0.000000 0.000000
v 0.087973 0.340789 -0.050037
v -0.303241 0.340799 0.000000
vn 1.000000 0.000000 0.000000
v -0.266198 0.340789 -0.096665
v 0.105697 0.340806 0.000000
v -0.303241 -0.340806 0.000000
v -0.285511 0.340789 -0.050037
v 0.098739 -0.340803 0.052922
vn -0.965926 0.000000 -0.258819
v 0.094560 0.340789 0.000000
v -0.296277 0.340796 0.052922
vn 0.965926 0.000000 -0.258819
v -0.292099 0.340789 0.000000
v 0.098726 -0.196274 0.052918
v -0.296270 -0.340811 0.052920
v 0.087973 0.340789 0.050037
v 0.098726 0.205751 0.052918
v 0.078305 -0.340811 0.102234
vn -0.866025 0.000000 -0.500000
v -0.275850 -0.340803 0.102238
v 0.098741 0.340795 0.052923
v -0.275847 0.340799 0.102236
vn 0.866025 0.000000 -0.500000
v -0.285511 0.340789 0.050037
v 0.078304 0.340806 0.102233
v 0.068659 0.340789 0.096665
v -0.266198 0.340789 0.096665
v 0.045812 -0.340810 0.144581
vn -0.707107 0.000000 -0.707107
v -0.243350 0.340803 0.144581
vn 0.707107 0.000000 -0.707107
v -0.235474 0.340789 0.136705
v 0.045818 0.340795 0.144587
v -0.243356 -0.340802 0.144587
v 0.037935 0.340789 0.136705
v 0.003467 0.340799 0.177078
vn -0.500000 0.000000 -0.866025
v 0.003467 -0.340806 0.177078
v -0.201005 -0.340806 0.177078
vn 0.500000 0.000000 -0.866025
v -0.195434 0.340789 0.167428
v -0.002104 0.340789 0.167428
v -0.201005 0.340799 0.177078
v -0.045847 0.340796 0.197508
vn -0.258819 0.000000 -0.965926
v -0.048732 0.340789 0.186742
v -0.045848 -0.340806 0.197505
v -0.151689 -0.340811 0.197501
vn 0.258819 0.000000 -0.965926
v -0.148807 0.340789 0.186742
v -0.151691 0.340796 0.197508
v -0.098769 0.340812 0.204464
vn 0.000000 0.000000 -1.000000
v -0.098769 0.340789 0.193330
v -0.098769 -0.340819 0.204464
v 0.098763 0.205784 0.052928
v 0.151695 0.199554 -0.052927
v 0.098763 0.206523 -0.052927
vn 0.130523 0.991421 0.006917
vn 0.258813 0.965904 0.006739
v 0.151695 0.198816 0.052928
v 0.098755 0.206455 -0.052928
v 0.151677 0.199488 -0.052928
v 0.098755 0.205717 0.052927
vn -0.130523 -0.991421 -0.006917
vn -0.258813 -0.965904 -0.006739
v 0.151677 0.198750 0.052927
v 0.201024 0.179122 -0.052927
vn 0.499991 0.866009 0.006042
v 0.200990 0.179063 -0.052928
vn -0.499991 -0.866009 -0.006042
v 0.201024 0.178383 0.052928
v 0.200990 0.178324 0.052927
v 0.243384 0.146618 -0.052927
vn 0.707098 0.707098 0.004934
v 0.243335 0.146569 -0.052928
vn -0.707098 -0.707098 -0.004934
v 0.243384 0.145879 0.052928
v 0.243335 0.145831 0.052927
v 0.275887 0.104258 -0.052927
vn 0.866020 0.499997 0.003489
v 0.275828 0.104224 -0.052928
vn -0.866020 -0.499997 -0.003489
v 0.275887 0.103520 0.052928
v 0.275828 0.103486 0.052927
v 0.296320 0.054929 -0.052927
vn 0.965924 0.258818 0.001806
v 0.296254 0.054912 -0.052928
vn -0.965924 -0.258818 -0.001806
v 0.296320 0.054191 0.052928
v 0.296254 0.054173 0.052927
v 0.303289 0.001993 -0.052927
vn 1.000000 0.000000 0.000000
v 0.303221 0.001993 -0.052927
vn -1.000000 0.000000 0.000000
v 0.303289 0.001255 0.052927
v 0.303221 0.001255 0.052927
v 0.299766 -0.024770 -0.052927
vn 0.991444 -0.130526 -0.000911
v 0.299699 -0.024761 -0.052927
vn -0.991444 0.130526 0.000911
v 0.298927 -0.031878 0.052927
v 0.298860 -0.031869 0.052927
v 0.296320 -0.050943 -0.052928
vn 0.965924 -0.258818 -0.001806
v 0.296254 -0.050926 -0.052927
vn -0.965924 0.258818 0.001806
v 0.296320 -0.051682 0.052927
v 0.296254 -0.051664 0.052928
v 0.275887 -0.100272 -0.052928
vn 0.866020 -0.499997 -0.003489
v 0.275828 -0.100238 -0.052927
vn -0.866020 0.499997 0.003489
v 0.275887 -0.101011 0.052927
v 0.275828 -0.100976 0.052928
v 0.243384 -0.142632 -0.052928
vn 0.707098 -0.707098 -0.004934
v 0.243335 -0.142584 -0.052927
vn -0.707098 0.707098 0.004934
v 0.243384 -0.143370 0.052927
v 0.243335 -0.143322 0.052928
v 0.201024 -0.175135 -0.052928
vn 0.499991 -0.866009 -0.006042
v 0.200990 -0.175076 -0.052927
vn -0.499991 0.866009 0.006042
v 0.201024 -0.175874 0.052927
v 0.200990 -0.175815 0.052928
v 0.158209 -0.192869 -0.052928
vn 0.382675 -0.923860 -0.006446
v 0.158193 -0.192803 -0.052927
vn -0.382675 0.923860 0.006446
v 0.151691 -0.196307 0.052927
v 0.151682 -0.196240 0.052928
v 0.118620 -0.201120 -0.052927
vn 0.203973 -0.978788 -0.019228
v 0.118606 -0.201053 -0.052928
vn -0.203973 0.978788 0.019228
v 0.131404 -0.194420 -0.005198
vn 0.000000 -0.999473 -0.032453
vn 0.130139 -0.990651 0.040912
v 0.131395 -0.194352 -0.005201
vn 0.000000 0.999473 0.032453
vn -0.130139 0.990651 -0.040912
v 0.099911 -0.205019 -0.052927
v 0.099897 -0.204952 -0.052928
v 0.111743 -0.195557 0.029815
v 0.111734 -0.195489 0.029812
v 0.098766 -0.205257 -0.052928
v 0.098752 -0.205190 -0.052927
v 0.098894 -0.200139 0.052926
vn -0.203791 0.977915 -0.046393
v 0.098759 -0.196308 0.052926
v 0.098759 -0.196240 0.052929
v 0.094063 -0.201423 0.019696
vn -0.257362 0.959643 -0.113361
v 0.117603 -0.196240 0.052926
v 0.113724 -0.200286 -0.015317
v 0.098908 -0.200206 0.052929
vn 0.203791 -0.977915 0.046393
v 0.094080 -0.201489 0.019704
vn 0.257362 -0.959643 0.113361
v 0.117617 -0.196307 0.052929
v 0.113741 -0.200352 -0.015309
g mesh1-geometry-0
usemtl Material.57774a50243e5d429f3a4ea105ec3930
f 1//1 2//1 3//1
f 2//1 1//1 4//1
f 2//2 5//3 3//3
f 3//3 6//4 1//4
f 1//4 7//5 4//5
f 2//1 4//1 8//1
f 5//3 2//2 9//2
f 6//4 3//3 5//3
f 7//5 1//4 6//4
f 10//6 4//5 7//5
f 8//1 4//1 11//1
f 8//7 9//2 2//2
f 9//8 6//8 5//8
f 6//8 12//8 7//8
f 4//5 10//6 11//6
f 7//8 13//8 10//8
f 8//1 11//1 14//1
f 9//2 8//7 15//7
f 6//8 9//8 16//8
f 12//8 6//8 16//8
f 7//8 12//8 13//8
f 10//6 17//9 11//6
f 10//8 13//8 18//8
f 14//1 11//1 17//1
f 14//10 15//7 8//7
f 19//8 9//8 15//8
f 16//8 9//8 19//8
f 17//9 10//6 20//9
f 10//8 18//8 20//8
f 14//1 17//1 21//1
f 15//7 14//10 22//10
f 19//8 15//8 23//8
f 20//9 24//11 17//9
f 20//8 18//8 25//8
f 21//1 17//1 26//1
f 27//12 14//10 21//12
f 14//10 27//12 22//10
f 23//8 15//8 22//8
f 24//11 20//9 28//11
f 26//1 17//1 24//1
f 20//8 25//8 29//8
f 30//13 21//12 26//13
f 21//12 30//13 27//12
f 31//8 22//8 27//8
f 23//8 22//8 31//8
f 28//11 20//9 32//11
f 28//11 33//14 24//11
f 26//1 24//1 33//1
f 29//8 25//8 34//8
f 32//11 20//9 29//11
f 26//13 35//15 30//13
f 36//8 27//8 30//8
f 31//8 27//8 36//8
f 37//14 28//11 32//11
f 33//14 28//11 37//14
f 26//1 33//1 38//1
f 29//8 34//8 37//8
f 37//14 32//11 29//11
f 35//15 26//13 38//15
f 39//8 30//8 35//8
f 36//8 30//8 39//8
f 37//14 40//16 33//14
f 38//1 33//1 40//1
f 37//8 34//8 41//8
f 38//15 42//17 35//15
f 39//8 35//8 43//8
f 40//16 37//14 44//16
f 38//1 40//1 45//1
f 37//8 41//8 46//8
f 42//17 38//15 45//17
f 43//8 35//8 42//8
f 44//16 37//14 47//16
f 44//16 48//18 40//16
f 45//1 40//1 49//1
f 37//8 46//8 50//8
f 45//17 51//19 42//17
f 43//8 42//8 52//8
f 47//16 37//14 50//16
f 53//18 44//16 47//16
f 48//18 44//16 53//18
f 49//1 40//1 48//1
f 51//19 45//17 49//19
f 50//8 46//8 54//8
f 55//8 42//8 51//8
f 52//8 42//8 55//8
f 53//18 47//16 50//16
f 53//18 56//20 48//18
f 49//1 48//1 56//1
f 49//19 57//21 51//19
f 50//8 54//8 53//8
f 55//8 51//8 58//8
f 56//20 53//18 59//20
f 49//1 56//1 60//1
f 57//21 49//19 60//21
f 58//8 51//8 57//8
f 53//8 54//8 61//8
f 53//8 61//8 59//8
f 62//22 56//20 59//20
f 60//1 56//1 63//1
f 64//23 57//21 60//21
f 58//8 57//8 65//8
f 59//8 61//8 66//8
f 56//20 62//22 63//22
f 59//8 66//8 62//8
f 60//1 63//1 64//1
f 57//21 64//23 67//23
f 65//8 57//8 67//8
f 68//24 63//22 62//22
f 62//8 66//8 69//8
f 64//1 63//1 70//1
f 71//25 67//23 64//23
f 65//8 67//8 72//8
f 63//22 68//24 70//24
f 62//8 69//8 68//8
f 64//1 70//1 71//1
f 67//23 71//25 73//25
f 72//8 67//8 73//8
f 74//26 70//24 68//24
f 68//8 69//8 75//8
f 71//1 70//1 76//1
f 76//26 73//25 71//25
f 72//8 73//8 75//8
f 70//24 74//26 76//26
f 68//8 73//8 74//8
f 68//8 75//8 73//8
f 73//25 76//26 74//26
g mesh1-geometry-1
usemtl Material.90b00bf69165eda831fe702671104217
f 77//27 78//27 79//27
f 80//27 79//27 78//27
f 77//28 81//28 78//29
f 79//30 82//30 77//28
f 80//31 83//31 79//30
f 84//27 80//27 78//27
f 85//29 78//29 81//28
f 81//28 77//28 82//30
f 82//30 79//30 83//31
f 83//31 80//31 86//32
f 87//27 80//27 84//27
f 78//29 85//29 84//33
f 81//34 82//34 85//34
f 83//34 88//34 82//34
f 87//32 86//32 80//31
f 86//34 89//34 83//34
f 90//27 87//27 84//27
f 91//33 84//33 85//29
f 92//34 85//34 82//34
f 92//34 82//34 88//34
f 89//34 88//34 83//34
f 87//32 93//35 86//32
f 94//34 89//34 86//34
f 93//27 87//27 90//27
f 84//33 91//33 90//36
f 91//34 85//34 95//34
f 95//34 85//34 92//34
f 96//35 86//32 93//35
f 96//34 94//34 86//34
f 97//27 93//27 90//27
f 98//36 90//36 91//33
f 99//34 91//34 95//34
f 93//35 100//37 96//35
f 101//34 94//34 96//34
f 102//27 93//27 97//27
f 97//38 90//36 103//38
f 98//36 103//38 90//36
f 98//34 91//34 99//34
f 104//37 96//35 100//37
f 100//27 93//27 102//27
f 105//34 101//34 96//34
f 102//39 97//38 106//39
f 103//38 106//39 97//38
f 103//34 98//34 107//34
f 107//34 98//34 99//34
f 108//37 96//35 104//37
f 100//37 109//40 104//37
f 109//27 100//27 102//27
f 110//34 101//34 105//34
f 105//37 96//35 108//37
f 106//39 111//41 102//39
f 106//34 103//34 112//34
f 112//34 103//34 107//34
f 108//37 104//37 113//40
f 113//40 104//37 109//40
f 114//27 109//27 102//27
f 113//34 110//34 105//34
f 105//37 108//37 113//40
f 114//41 102//39 111//41
f 111//34 106//34 115//34
f 115//34 106//34 112//34
f 109//40 116//42 113//40
f 116//27 109//27 114//27
f 117//34 110//34 113//34
f 111//41 118//43 114//41
f 119//34 111//34 115//34
f 120//42 113//40 116//42
f 121//27 116//27 114//27
f 122//34 117//34 113//34
f 121//43 114//41 118//43
f 118//34 111//34 119//34
f 123//42 113//40 120//42
f 116//42 124//44 120//42
f 125//27 116//27 121//27
f 126//34 122//34 113//34
f 118//43 127//45 121//43
f 128//34 118//34 119//34
f 126//42 113//40 123//42
f 123//42 120//42 129//44
f 129//44 120//42 124//44
f 124//27 116//27 125//27
f 125//45 121//43 127//45
f 130//34 122//34 126//34
f 127//34 118//34 131//34
f 131//34 118//34 128//34
f 126//42 123//42 129//44
f 124//44 132//46 129//44
f 132//27 124//27 125//27
f 127//45 133//47 125//45
f 129//34 130//34 126//34
f 134//34 127//34 131//34
f 135//46 129//44 132//46
f 136//27 132//27 125//27
f 136//47 125//45 133//47
f 133//34 127//34 134//34
f 137//34 130//34 129//34
f 135//34 137//34 129//34
f 135//46 132//46 138//48
f 139//27 132//27 136//27
f 136//47 133//47 140//49
f 141//34 133//34 134//34
f 142//34 137//34 135//34
f 139//48 138//48 132//46
f 138//34 142//34 135//34
f 140//27 139//27 136//27
f 143//49 140//49 133//47
f 143//34 133//34 141//34
f 138//48 139//48 144//50
f 145//34 142//34 138//34
f 146//27 139//27 140//27
f 140//49 143//49 147//51
f 148//34 143//34 141//34
f 146//50 144//50 139//48
f 144//34 145//34 138//34
f 147//27 146//27 140//27
f 149//51 147//51 143//49
f 149//34 143//34 148//34
f 144//50 146//50 150//52
f 151//34 145//34 144//34
f 152//27 146//27 147//27
f 147//51 149//51 152//52
f 151//34 149//34 148//34
f 152//52 150//52 146//50
f 150//34 149//34 144//34
f 149//34 151//34 144//34
f 150//52 152//52 149//51
g mesh2-geometry-0
usemtl Material.57774a50243e5d429f3a4ea105ec3930
f 153//53 154//54 155//53
f 154//54 153//53 156//54
f 157//55 158//56 159//55
f 160//56 159//55 158//56
f 156//54 161//57 154//54
f 158//56 162//58 160//56
f 161//57 156//54 163//57
f 164//58 160//56 162//58
f 163//57 165//59 161//57
f 162//58 166//60 164//58
f 165//59 163//57 167//59
f 168//60 164//58 166//60
f 167//59 169//61 165//59
f 166//60 170//62 168//60
f 169//61 167//59 171//61
f 172//62 168//60 170//62
f 171//61 173//63 169//61
f 170//62 174//64 172//62
f 173//63 171//61 175//63
f 176//64 172//62 174//64
f 175//63 177//65 173//63
f 174//64 178//66 176//64
f 177//65 175//63 179//65
f 180//66 176//64 178//66
f 179//65 181//67 177//65
f 178//66 182//68 180//66
f 183//67 181//67 179//65
f 180//66 182//68 184//68
f 183//67 185//69 181//67
f 182//68 186//70 184//68
f 185//69 183//67 187//69
f 188//70 184//68 186//70
f 187//69 189//71 185//69
f 186//70 190//72 188//70
f 189//71 187//69 191//71
f 192//72 188//70 190//72
f 191//71 193//73 189//71
f 190//72 194//74 192//72
f 193//73 191//71 195//73
f 196//74 192//72 194//74
f 195//73 197//75 193//73
f 194//74 198//76 196//74
f 197//75 195//73 199//75
f 200//76 196//74 198//76
f 199//75 201//77 197//75
f 198//76 202//78 200//76
f 201//77 199//75 203//77
f 204//78 200//76 202//78
f 203//79 205//79 201//79
f 202//80 206//80 204//80
f 203//81 207//82 201//81
f 202//83 208//84 204//83
f 205//79 203//79 209//79
f 210//80 204//80 206//80
f 207//82 203//81 211//82
f 212//84 204//83 208//84
f 209//79 203//79 213//79
f 214//80 204//80 210//80
f 215//85 206//85 210//85
f 211//82 203//81 216//81
f 217//83 204//83 212//84
f 212//84 208//84 218//86
f 206//85 215//85 219//85
f 220//86 218//86 208//84
g mesh2-geometry-1
usemtl Material.90b00bf69165eda831fe702671104217
f 209//87 205//87 221//87
f 222//88 207//82 211//82
f 223//87 221//87 205//87
f 207//82 222//88 224//88
