# created by Ethan Wu and Zhan isaac Ling
mtllib model.mtl
v 0.021564 0.275779 0.405544
v 0.062183 0.275779 -0.405544
v 0.021560 0.275774 -0.405540
vn 0.000000 1.000000 0.000000
v 0.062186 0.275774 0.405540
v 0.021567 -0.210890 -0.405548
vn 0.000000 0.000000 -1.000000
v 0.021567 0.251450 -0.381216
vn -1.000000 0.000000 0.000000
v 0.062179 -0.210890 0.405548
vn 0.000000 0.000000 1.000000
v 0.062179 0.243300 0.373065
vn 1.000000 0.000000 0.000000
v 0.062183 -0.210887 -0.405544
v 0.021560 -0.186551 -0.381208
v 0.021564 0.251447 0.381213
v 0.021564 -0.210887 0.405544
v 0.062186 -0.178416 0.373073
v 0.062183 0.243303 -0.373069
v 0.062183 -0.178412 -0.373069
vn 0.000000 -1.000000 0.000000
v 0.021570 -0.186566 0.381209
v 0.001291 -0.186559 -0.381216
v 0.001287 0.251447 0.381213
v 0.054062 -0.178405 0.373062
v 0.001284 0.251443 -0.381208
v 0.054062 0.243296 0.373062
v 0.054062 0.243296 -0.373062
v 0.001358 -0.186554 -0.097327
v 0.001281 -0.170318 -0.364983
v 0.001287 -0.186556 0.381213
v 0.001287 0.235226 -0.364991
v 0.054062 -0.178405 -0.373062
v 0.001357 -0.186557 0.097327
v 0.001285 -0.170332 -0.097341
v 0.001283 -0.186524 -0.097327
v 0.001285 -0.170332 0.364989
v 0.001280 0.235209 0.364981
v 0.001337 -0.259501 0.097343
v -0.018979 -0.170342 -0.364998
v 0.001284 -0.186521 0.097327
v -0.018989 0.235226 0.364991
v 0.001281 -0.170326 0.097334
v 0.001328 -0.259495 -0.097334
v -0.018970 -0.259499 -0.097341
v -0.018993 -0.170330 -0.097339
v -0.018979 0.235233 -0.364998
v -0.018989 -0.170335 0.097343
v 0.001313 -0.259573 -0.097319
v 0.097317 -0.259572 0.210865
v 0.001304 -0.259567 0.097310
v 0.097336 -0.259496 0.210884
vn 0.000000 1.000000 0.000000
v -0.018942 -0.259569 -0.097312
v -0.097314 -0.259571 -0.210862
v -0.097339 -0.259498 -0.210886
v -0.018979 -0.170342 0.364998
v -0.018965 -0.259496 0.097336
v 0.097303 -0.259558 -0.210851
v 0.097350 -0.259511 -0.210898
v -0.018946 -0.259572 0.097317
v -0.097307 -0.259564 0.210854
v -0.097346 -0.259505 0.210894
v 0.097350 -0.275779 0.210898
v 0.097303 -0.275732 0.210851
vn -1.000000 0.000000 0.000000
v -0.097350 -0.275779 -0.210898
v -0.097303 -0.275732 -0.210851
vn 1.000000 0.000000 0.000000
vn 0.000000 0.000000 1.000000
v 0.097350 -0.275779 -0.210898
v 0.097303 -0.275732 -0.210851
vn 0.000000 0.000000 -1.000000
v -0.097350 -0.275779 0.210898
v -0.097303 -0.275732 0.210851
v 0.021634 0.275750 -0.405515
v 0.062117 0.275746 -0.405511
v 0.021630 0.275746 0.405511
vn 0.000000 -1.000000 0.000000
v 0.062113 0.275750 0.405515
v 0.021626 -0.210851 -0.405508
v 0.021626 0.251411 -0.381176
v 0.062120 -0.210851 0.405508
v 0.062120 0.243340 0.373105
v 0.062117 -0.210854 -0.405511
v 0.021634 -0.186527 -0.381184
v 0.021630 0.251414 0.381179
v 0.021630 -0.210854 0.405511
v 0.062113 -0.178441 0.373097
v 0.062117 0.243337 -0.373102
v 0.062117 -0.178445 -0.373102
v 0.021624 -0.186512 0.381182
v 0.001350 -0.186519 -0.381176
v 0.001354 0.251414 0.381179
v 0.054015 -0.178452 0.373109
v 0.054015 0.243343 -0.373109
v 0.001357 0.251418 -0.381184
v 0.054015 0.243343 0.373109
v 0.001360 -0.170318 -0.364967
v 0.001354 -0.186523 0.381179
v 0.001354 0.235193 -0.364958
v 0.054015 -0.178452 -0.373109
v 0.001356 -0.170304 -0.097312
v 0.001356 -0.170304 0.364961
v 0.001360 0.235209 0.364968
v 0.001359 -0.170310 0.097319
v -0.018932 -0.170295 -0.364951
v -0.018923 0.235193 0.364958
v -0.018919 -0.170306 -0.097314
v -0.018932 0.235186 -0.364951
v -0.018923 -0.170301 0.097310
v -0.018932 -0.170295 0.364951
g mesh1-geometry-0
usemtl Material.57774a50243e5d429f3a4ea105ec3930
f 1//1 2//1 3//1
f 2//1 1//1 4//1
f 2//2 5//2 3//2
f 3//3 6//3 1//3
f 1//4 7//4 4//4
f 4//5 8//5 2//5
f 5//2 2//2 9//2
f 5//3 10//3 3//3
f 3//3 10//3 6//3
f 11//3 1//3 6//3
f 7//4 1//4 12//4
f 7//5 13//5 4//5
f 4//5 13//5 8//5
f 14//5 2//5 8//5
f 15//5 9//5 2//5
f 7//6 5//6 9//6
f 10//3 5//3 16//3
f 17//2 6//2 10//2
f 16//3 1//3 11//3
f 6//1 18//1 11//1
f 16//3 12//3 1//3
f 5//6 7//6 12//6
f 13//5 7//5 15//5
f 19//2 8//2 13//2
f 15//5 2//5 14//5
f 9//5 15//5 7//5
f 12//3 16//3 5//3
f 16//6 17//6 10//6
f 6//2 17//2 20//2
f 18//4 16//4 11//4
f 18//1 6//1 20//1
f 15//1 19//1 13//1
f 8//2 19//2 21//2
f 22//4 15//4 14//4
f 17//6 16//6 23//6
f 17//3 24//3 20//3
f 16//4 18//4 25//4
f 20//3 26//3 18//3
f 19//1 15//1 27//1
f 15//4 22//4 27//4
f 23//6 16//6 28//6
f 29//3 17//3 30//3
f 17//3 29//3 24//3
f 20//3 24//3 26//3
f 31//3 25//3 18//3
f 28//6 16//6 25//6
f 32//3 18//3 26//3
f 33//5 23//5 28//5
f 29//6 34//6 24//6
f 34//2 26//2 24//2
f 25//3 31//3 35//3
f 31//3 18//3 32//3
f 26//1 36//1 32//1
f 37//3 35//3 31//3
f 23//5 33//5 38//5
f 39//2 29//2 38//2
f 34//6 29//6 40//6
f 26//2 34//2 41//2
f 36//4 31//4 32//4
f 36//1 26//1 41//1
f 31//6 42//6 37//6
f 42//4 33//4 37//4
f 43//6 44//6 45//6
f 33//7 46//7 38//7
f 29//2 39//2 40//2
f 47//6 48//6 43//6
f 38//7 49//7 39//7
f 40//3 36//3 34//3
f 34//3 36//3 41//3
f 31//4 36//4 50//4
f 42//6 31//6 50//6
f 33//4 42//4 51//4
f 43//6 52//6 44//6
f 46//7 53//7 38//7
f 45//6 44//6 54//6
f 51//7 46//7 33//7
f 39//3 42//3 40//3
f 48//6 47//6 55//6
f 56//7 39//7 49//7
f 52//6 43//6 48//6
f 49//7 38//7 53//7
f 42//3 36//3 40//3
f 36//3 42//3 50//3
f 42//3 39//3 51//3
f 57//5 53//5 46//5
f 44//8 52//8 58//8
f 55//6 54//6 44//6
f 46//7 51//7 56//7
f 55//6 47//6 54//6
f 51//7 39//7 56//7
f 59//3 56//3 49//3
f 48//9 55//9 60//9
f 53//2 59//2 49//2
f 48//10 60//10 52//10
f 53//5 57//5 61//5
f 62//8 58//8 52//8
f 56//4 57//4 46//4
f 44//11 58//11 55//11
f 56//3 59//3 63//3
f 64//9 60//9 55//9
f 59//2 53//2 61//2
f 62//10 52//10 60//10
f 57//6 59//6 61//6
f 62//7 60//7 58//7
f 57//4 56//4 63//4
f 64//11 55//11 58//11
f 59//6 57//6 63//6
f 64//7 58//7 60//7
g mesh1-geometry-1
usemtl Material.90b00bf69165eda831fe702671104217
f 65//12 66//12 67//12
f 68//12 67//12 66//12
f 65//10 69//10 66//10
f 67//9 70//9 65//9
f 68//11 71//11 67//11
f 66//8 72//8 68//8
f 73//10 66//10 69//10
f 65//9 74//9 69//9
f 70//9 74//9 65//9
f 70//9 67//9 75//9
f 76//11 67//11 71//11
f 68//8 77//8 71//8
f 72//8 77//8 68//8
f 72//8 66//8 78//8
f 66//8 73//8 79//8
f 73//7 69//7 71//7
f 80//9 69//9 74//9
f 74//10 70//10 81//10
f 75//9 67//9 80//9
f 75//12 82//12 70//12
f 67//9 76//9 80//9
f 76//7 71//7 69//7
f 79//8 71//8 77//8
f 77//10 72//10 83//10
f 78//8 66//8 79//8
f 8//6 22//6 14//6
f 78//7 84//7 72//7
f 71//8 79//8 73//8
f 69//9 80//9 76//9
f 74//7 81//7 80//7
f 85//10 81//10 70//10
f 75//11 80//11 82//11
f 85//12 70//12 82//12
f 77//12 83//12 79//12
f 86//10 83//10 72//10
f 78//11 79//11 84//11
f 22//6 8//6 21//6
f 86//7 72//7 84//7
f 30//7 80//7 81//7
f 85//9 87//9 81//9
f 88//11 82//11 80//11
f 82//9 89//9 85//9
f 90//12 79//12 83//12
f 86//8 84//8 83//8
f 90//11 84//11 79//11
f 35//7 80//7 30//7
f 23//9 81//9 91//9
f 87//9 91//9 81//9
f 89//9 87//9 85//9
f 82//9 88//9 92//9
f 88//7 80//7 35//7
f 89//9 82//9 93//9
f 90//8 83//8 84//8
f 37//3 30//3 35//3
f 28//9 23//9 94//9
f 35//8 30//8 45//8
f 30//3 37//3 29//3
f 91//9 94//9 23//9
f 29//3 32//3 24//3
f 87//9 93//9 91//9
f 24//7 95//7 91//7
f 24//3 32//3 26//3
f 89//9 93//9 87//9
f 87//10 89//10 95//10
f 28//9 92//9 88//9
f 93//9 82//9 92//9
f 32//12 96//12 89//12
f 92//9 28//9 94//9
f 43//8 45//8 30//8
f 43//10 91//10 47//10
f 37//3 32//3 29//3
f 91//9 93//9 94//9
f 97//7 91//7 95//7
f 98//10 95//10 89//10
f 93//11 92//11 96//11
f 32//3 37//3 31//3
f 92//9 94//9 93//9
f 98//12 89//12 96//12
f 94//7 99//7 92//7
f 94//11 45//11 99//11
f 45//6 47//6 43//6
f 38//7 39//7 33//7
f 97//10 47//10 91//10
f 95//9 96//9 97//9
f 98//9 96//9 95//9
f 100//11 96//11 92//11
f 100//7 92//7 99//7
f 54//11 99//11 45//11
f 47//6 45//6 54//6
f 51//7 33//7 39//7
f 97//9 99//9 47//9
f 97//9 96//9 99//9
f 100//9 99//9 96//9
f 54//9 47//9 99//9
g mesh1-geometry-2
usemtl Material.dc7a3ca9ca091ddbf48733c3a604f557
f 19//5 22//5 21//5
f 22//5 19//5 27//5
