# created by Ethan Wu and Zhan isaac Ling
mtllib model.mtl
v -0.225934 -0.204448 -0.287886
v 0.301918 -0.204454 0.290892
v 0.301918 -0.204454 -0.287903
vn 0.000000 1.000000 0.000000
v -0.225930 -0.204455 0.290886
v 0.301918 -0.272444 -0.287903
vn 1.000000 0.000000 0.000000
v -0.225922 -0.146592 -0.215553
vn 1.000000 0.000000 0.000000
v 0.301918 -0.272444 0.290892
v -0.301918 -0.204486 -0.287895
vn 0.000000 0.000000 -1.000000
v -0.225922 -0.146592 0.214314
v -0.225922 0.217655 -0.215553
v -0.301912 -0.272444 0.290892
v -0.301915 -0.204461 0.290895
vn 0.000000 0.000000 1.000000
v -0.301912 0.272444 0.290892
vn 0.000000 0.000000 1.000000
vn 0.000000 -1.000000 0.000000
v -0.301912 -0.272444 -0.287903
v -0.301918 0.272439 -0.290887
v -0.301903 -0.204492 -0.290895
vn -1.000000 0.000000 0.000000
v -0.225922 0.217655 0.214314
v -0.225931 0.272441 -0.290889
v -0.225925 0.272436 0.290884
v -0.225935 -0.204489 -0.290892
vn 0.000000 0.000000 -1.000000
vn 0.000000 1.000000 0.000000
v 0.301882 -0.204489 -0.287868
v 0.301882 -0.204489 0.290857
v -0.225971 -0.204495 -0.287886
vn 0.000000 -1.000000 0.000000
v -0.225975 -0.204488 0.290863
v 0.301882 -0.272409 -0.287868
vn -1.000000 0.000000 0.000000
v -0.225983 -0.146592 -0.215553
v -0.301869 -0.204457 -0.287876
v 0.301882 -0.272409 0.290857
v -0.301884 -0.204452 -0.290854
v -0.225983 -0.146592 0.214314
v -0.225983 0.217655 -0.215553
v -0.301874 -0.204482 0.290854
v -0.301876 -0.272409 0.290857
v -0.301876 0.272409 0.290857
v -0.301876 -0.272409 -0.287868
v -0.225970 -0.204454 -0.290857
v -0.301869 0.272414 -0.290862
v -0.225983 0.217655 0.214314
v -0.225975 0.272412 -0.290860
v -0.225980 0.272417 0.290866
g mesh1-geometry-0
usemtl Material.57774a50243e5d429f3a4ea105ec3930
f 1//1 2//1 3//1
f 2//1 1//1 4//1
f 2//2 5//2 3//2
f 1//3 6//3 4//3
f 5//2 2//2 7//2
f 5//4 8//4 3//4
f 9//3 4//3 6//3
f 6//3 1//3 10//3
f 11//5 2//5 12//5
f 12//6 4//6 13//6
f 2//5 11//5 7//5
f 11//7 5//7 7//7
f 8//4 5//4 14//4
f 8//8 15//8 16//8
f 17//3 4//3 9//3
f 10//3 1//3 18//3
f 8//8 11//8 12//8
f 13//8 8//8 12//8
f 19//6 13//6 4//6
f 5//7 11//7 14//7
f 11//8 8//8 14//8
f 20//3 18//3 1//3
f 20//9 16//9 18//9
f 15//8 8//8 13//8
f 15//9 18//9 16//9
f 4//3 17//3 19//3
f 19//3 10//3 18//3
f 19//10 18//10 13//10
f 15//10 13//10 18//10
f 17//3 10//3 19//3
g mesh1-geometry-1
usemtl Material.90b00bf69165eda831fe702671104217
f 21//11 22//11 23//11
f 24//11 23//11 22//11
f 21//12 25//12 22//12
f 24//8 26//8 23//8
f 27//1 4//1 1//1
f 23//11 24//11 8//11
f 28//12 22//12 25//12
f 21//6 27//6 25//6
f 1//1 29//1 27//1
f 8//11 16//11 23//11
f 26//8 24//8 30//8
f 31//8 23//8 26//8
f 4//1 27//1 12//1
f 32//11 8//11 24//11
f 32//9 22//9 33//9
f 34//4 24//4 32//4
f 28//9 33//9 22//9
f 28//10 25//10 33//10
f 35//6 25//6 27//6
f 29//1 1//1 36//1
f 20//11 23//11 16//11
f 29//3 37//3 27//3
f 30//8 24//8 38//8
f 30//8 31//8 26//8
f 39//8 23//8 31//8
f 32//3 33//3 27//3
f 32//3 27//3 34//3
f 24//4 34//4 40//4
f 35//10 33//10 25//10
f 35//3 27//3 33//3
f 23//8 39//8 36//8
f 39//5 29//5 36//5
f 34//3 27//3 37//3
f 29//5 39//5 37//5
f 40//8 38//8 24//8
f 31//8 30//8 38//8
f 39//8 31//8 40//8
f 34//7 39//7 40//7
f 39//7 34//7 37//7
f 40//8 31//8 38//8
g mesh1-geometry-2
usemtl Material.dc7a3ca9ca091ddbf48733c3a604f557
f 6//3 10//3 9//3
f 17//3 9//3 10//3
