# created by Ethan Wu and Zhan isaac Ling
mtllib model.mtl
v -0.029617 -0.042664 -0.352860
v 0.044303 -0.045392 -0.352861
v 0.044303 -0.042665 -0.352861
vn 0.238365 -0.460703 0.854947
vn -0.262609 -0.463812 0.846118
v -0.029617 -0.045392 -0.352860
vn 0.238365 -0.460703 0.854947
v 0.049254 -0.045394 -0.349464
vn -0.770452 -0.491925 0.405479
v -0.035245 -0.042666 -0.349462
vn 0.755419 -0.497840 0.426025
v 0.049254 -0.042666 -0.349464
vn -0.770452 -0.491925 0.405479
v -0.035245 -0.045394 -0.349462
vn 0.755419 -0.497840 0.426025
v 0.049254 -0.042666 -0.336999
vn -0.761981 -0.495244 -0.417274
v -0.035246 -0.045394 -0.337000
vn 0.746983 -0.501209 -0.436814
v 0.049254 -0.045394 -0.336999
vn -0.761981 -0.495244 -0.417274
v -0.035246 -0.042666 -0.337000
vn 0.746983 -0.501209 -0.436814
v 0.044303 -0.045392 -0.333838
vn -0.248831 -0.461997 -0.851259
v -0.029618 -0.042664 -0.333839
vn 0.225158 -0.459168 -0.859342
v -0.029618 -0.045392 -0.333839
v 0.044303 -0.042665 -0.333838
vn -0.248831 -0.461997 -0.851259
v -0.252366 0.045416 -0.377162
v -0.236051 -0.045392 -0.395529
v -0.252366 -0.045393 -0.377162
vn -0.824254 0.471661 -0.313275
vn -0.636685 -0.447698 -0.627853
vn -0.824254 -0.471661 -0.313275
v 0.207565 -0.042669 0.291475
v 0.207565 -0.045397 -0.281334
v 0.207565 -0.045397 0.291475
vn -0.577350 -0.577350 -0.577350
vn -0.577350 -0.577350 0.577350
vn -0.577350 -0.577350 -0.577350
v -0.190659 -0.042669 -0.281334
v -0.190659 -0.045397 -0.281334
vn 0.577350 -0.577350 0.577350
vn 0.577350 -0.577350 0.577350
v -0.236051 0.045414 -0.395529
vn -0.636685 0.447698 -0.627853
v -0.252367 0.045415 0.387457
vn -0.853475 0.461219 0.242605
v 0.240711 0.045414 -0.394742
v 0.252367 -0.045392 -0.376278
v 0.240711 -0.045392 -0.394742
vn 0.736467 0.447500 -0.507307
vn 0.852093 -0.461704 -0.246510
vn 0.736467 -0.447500 -0.507307
v 0.207565 -0.042669 -0.281334
vn -0.577350 -0.577350 0.577350
v -0.190659 -0.045397 0.291475
vn 0.577350 -0.577350 -0.577350
v -0.252367 -0.045392 0.387457
vn -0.853475 -0.461219 0.242605
v -0.211881 0.045414 -0.417615
vn -0.526652 0.449381 -0.721591
v -0.211881 -0.045392 -0.417615
vn -0.526652 -0.449381 -0.721591
v 0.222712 0.045414 -0.418757
v 0.222712 -0.045392 -0.418757
vn 0.664663 0.448634 -0.597453
vn 0.664663 -0.448634 -0.597453
v 0.252367 0.045415 -0.376278
v 0.252367 -0.045392 0.387458
vn 0.852093 0.461704 -0.246510
vn 0.838311 -0.466589 0.282008
v -0.190659 -0.042669 0.291475
vn 0.577350 -0.577350 -0.577350
v -0.243750 0.045415 0.401391
v -0.243750 -0.045392 0.401391
vn -0.674518 0.451800 0.583868
vn -0.674518 -0.451800 0.583868
v -0.195306 0.045415 -0.427118
vn -0.310634 0.452111 -0.836123
v -0.195306 -0.045392 -0.427118
vn -0.310634 -0.452111 -0.836123
v 0.211447 -0.045393 -0.429237
vn 0.322474 -0.473304 -0.819753
v 0.252367 0.045415 0.387458
v 0.244114 -0.045392 0.398339
vn 0.838311 0.466589 0.282008
vn 0.632302 -0.450479 0.630288
v -0.235384 -0.045392 0.408406
vn -0.574648 -0.447214 0.685405
v 0.211447 0.045416 -0.429237
vn 0.322474 0.473304 -0.819753
v 0.233270 0.045414 0.406621
v 0.233270 -0.045392 0.406621
vn 0.542864 0.447214 0.710843
vn 0.542864 -0.447214 0.710843
v 0.244114 0.045414 0.398339
vn 0.632302 0.450479 0.630288
v -0.235384 0.045414 0.408406
vn -0.574648 0.447214 0.685405
v 0.215922 0.045415 0.419870
vn 0.436765 0.450785 0.778479
v 0.215922 -0.045392 0.419870
vn 0.436765 -0.450785 0.778479
v -0.222839 -0.045392 0.418924
vn -0.507334 -0.448798 0.735658
v 0.191798 0.045415 0.429237
vn 0.164113 0.453405 0.876066
v -0.222839 0.045414 0.418924
vn -0.507334 0.448798 0.735658
v 0.191798 -0.045392 0.429237
vn 0.164113 -0.453405 0.876066
v -0.204391 -0.045392 0.429237
vn -0.223989 -0.459037 0.859717
v -0.204391 0.045415 0.429237
vn -0.223989 0.459037 0.859717
v 0.154883 -0.009184 0.429241
vn -0.000000 0.000000 1.000000
v 0.154883 0.018095 0.429241
v -0.133095 0.004616 0.429241
v -0.014247 -0.009184 0.429241
v -0.105153 0.031214 0.429241
v -0.132340 -0.002465 0.429241
v -0.131992 0.011651 0.429241
v -0.099416 -0.022572 0.429241
v -0.112234 0.030459 0.429241
v -0.014247 0.018095 0.429241
v -0.129778 -0.009110 0.429241
v -0.129106 0.018161 0.429241
v -0.091608 0.027225 0.429241
v -0.092772 -0.020010 0.429241
v -0.106497 -0.023327 0.429241
v -0.118878 0.027897 0.429241
v -0.098117 0.030111 0.429241
v -0.125583 -0.014864 0.429241
v -0.124633 0.023702 0.429241
v -0.086066 0.022752 0.429241
v -0.087017 -0.015815 0.429241
v -0.113532 -0.022224 0.429241
v -0.120042 -0.019338 0.429241
v -0.081872 0.016997 0.429241
v -0.082544 -0.010274 0.429241
v -0.079309 0.010353 0.429241
v -0.079657 -0.003764 0.429241
v -0.078554 0.003272 0.429241
v 0.044325 -0.042625 -0.352933
v 0.044325 -0.045353 -0.352933
v -0.029638 -0.042625 -0.352934
vn 0.262609 0.463812 -0.846118
vn -0.238365 0.460703 -0.854947
v -0.029638 -0.045353 -0.352934
vn -0.238365 0.460703 -0.854947
v 0.049320 -0.045351 -0.349499
vn 0.770452 0.491925 -0.405479
v 0.049320 -0.042624 -0.349499
vn 0.770452 0.491925 -0.405479
v -0.035310 -0.042623 -0.349499
vn -0.755419 0.497840 -0.426025
v -0.235124 -0.045330 -0.367998
vn 0.262609 0.463812 -0.846118
vn -0.000000 1.000000 -0.000000
v 0.236817 -0.045330 -0.373403
v -0.035310 -0.045351 -0.349499
vn -0.755419 0.497840 -0.426025
v 0.049320 -0.042623 -0.336963
vn 0.761981 0.495244 0.417274
v 0.049320 -0.045351 -0.336963
vn 0.761981 0.495244 0.417274
v -0.035310 -0.045351 -0.336962
vn -0.746983 0.501209 0.436814
v -0.218450 -0.045330 -0.394821
v 0.044325 -0.045353 -0.333765
vn 0.248831 0.461997 0.851259
v -0.035310 -0.042623 -0.336962
vn -0.746983 0.501209 0.436814
v -0.029637 -0.045353 -0.333765
vn -0.225158 0.459168 0.859342
v -0.252295 -0.045352 -0.377136
vn 0.824254 0.471661 0.313275
v 0.235709 -0.045330 -0.376485
v 0.207614 -0.045348 -0.281384
vn 0.577350 0.577350 -0.577350
v 0.044325 -0.042625 -0.333765
vn 0.248831 0.461997 0.851259
v -0.029637 -0.042625 -0.333765
vn -0.225158 0.459168 0.859342
v -0.235124 -0.045330 0.202042
v -0.235996 -0.045353 -0.395475
vn 0.636685 0.447698 0.627853
v 0.204707 -0.045330 -0.421379
v 0.252294 -0.045353 -0.376257
vn -0.852093 0.461704 0.246510
v 0.207614 -0.045348 0.291524
vn 0.577350 0.577350 0.577350
v -0.190709 -0.045348 -0.281384
vn -0.577350 0.577350 -0.577350
v -0.235124 -0.045330 0.373899
v -0.252295 0.045375 -0.377136
vn 0.824254 -0.471661 0.313275
v -0.187321 -0.045330 -0.421379
v 0.240647 -0.045353 -0.394699
vn -0.736467 0.447500 0.507307
v 0.236817 -0.045330 0.384953
v 0.207614 -0.042620 0.291524
vn 0.577350 0.577350 0.577350
v -0.190709 -0.042620 -0.281384
vn -0.577350 0.577350 -0.577350
v -0.252294 -0.045353 0.387436
vn 0.853475 0.461219 -0.242605
v -0.190709 -0.045348 0.291524
vn -0.577350 0.577350 0.577350
v -0.235996 0.045376 -0.395475
vn 0.636685 -0.447698 0.627853
v -0.252294 0.045375 0.387436
vn 0.853475 -0.461219 -0.242605
v -0.211836 -0.045353 -0.417553
vn 0.526652 0.449381 0.721591
v -0.195280 -0.045353 -0.427046
vn 0.310634 0.452111 0.836123
v 0.222654 -0.045353 -0.418706
vn -0.664663 0.448634 0.597453
v 0.252295 -0.045353 0.387434
vn -0.838311 0.466589 -0.282008
v 0.240647 0.045376 -0.394699
vn -0.736467 -0.447500 0.507307
v 0.207614 -0.042620 -0.281384
vn 0.577350 0.577350 -0.577350
v -0.243692 -0.045353 0.401341
vn 0.674518 0.451800 -0.583868
v -0.211836 0.045376 -0.417553
vn 0.526652 -0.449381 0.721591
v 0.252294 0.045375 -0.376257
vn -0.852093 -0.461704 0.246510
v 0.211420 -0.045352 -0.429168
vn -0.322474 0.473304 0.819753
v 0.222654 0.045376 -0.418706
vn -0.664663 -0.448634 0.597453
v 0.244060 -0.045353 0.398285
vn -0.632302 0.450479 -0.630288
v 0.188556 -0.045330 0.415816
v -0.190709 -0.042620 0.291524
vn -0.577350 0.577350 0.577350
v -0.235335 -0.045353 0.408348
vn 0.574648 0.447214 -0.685405
v -0.243692 0.045376 0.401341
vn 0.674518 -0.451800 -0.583868
v 0.252295 0.045375 0.387434
vn -0.838311 -0.466589 -0.282008
v -0.195280 0.045376 -0.427046
vn 0.310634 -0.452111 0.836123
v -0.184311 -0.045353 -0.429165
vn 0.085147 0.448847 0.889543
v 0.233224 -0.045353 0.406560
vn -0.542864 0.447214 -0.710843
v -0.196077 -0.045330 0.415816
v 0.244060 0.045376 0.398285
vn -0.632302 -0.450479 -0.630288
v -0.184311 0.045376 -0.429165
vn 0.085147 -0.448847 0.889543
v 0.211420 0.045375 -0.429168
vn -0.322474 -0.473304 0.819753
v 0.233224 0.045376 0.406560
vn -0.542864 -0.447214 -0.710843
v -0.222795 -0.045353 0.418861
vn 0.507334 0.448798 -0.735658
v 0.215884 -0.045353 0.419803
vn -0.436765 0.450785 -0.778479
v -0.235335 0.045376 0.408348
vn 0.574648 -0.447214 -0.685405
v 0.215884 0.045376 0.419803
vn -0.436765 -0.450785 -0.778479
v -0.222795 0.045376 0.418861
vn 0.507334 -0.448798 -0.735658
v 0.191784 -0.045353 0.429161
vn -0.164113 0.453405 -0.876066
v 0.191784 0.045376 0.429161
vn -0.164113 -0.453405 -0.876066
v -0.204371 0.045376 0.429162
vn 0.223989 -0.459037 -0.859717
v -0.204371 -0.045353 0.429162
vn 0.223989 0.459037 -0.859717
v 0.154883 -0.009184 0.429156
vn -0.000000 0.000000 -1.000000
v 0.154883 0.018095 0.429156
v -0.133095 0.004616 0.429156
v -0.014247 -0.009184 0.429156
v -0.105153 0.031214 0.429156
v -0.132340 -0.002465 0.429156
v -0.131992 0.011651 0.429156
v -0.014247 0.018095 0.429156
v -0.099416 -0.022572 0.429156
v -0.112234 0.030459 0.429156
v -0.129778 -0.009110 0.429156
v -0.129106 0.018161 0.429156
v -0.091608 0.027225 0.429156
v -0.092772 -0.020010 0.429156
v -0.106497 -0.023327 0.429156
v -0.118878 0.027897 0.429156
v -0.098117 0.030111 0.429156
v -0.125583 -0.014864 0.429156
v -0.124633 0.023702 0.429156
v -0.086066 0.022752 0.429156
v -0.087017 -0.015815 0.429156
v -0.113532 -0.022224 0.429156
v -0.120042 -0.019338 0.429156
v -0.081872 0.016997 0.429156
v -0.082544 -0.010274 0.429156
v -0.079309 0.010353 0.429156
v -0.079657 -0.003764 0.429156
v -0.078554 0.003272 0.429156
vt 1.10356 0.951939
vt 1.13972 0.953505
vt 1.10584 0.953505
v -0.235124 -0.045416 -0.367998
vn -0.000000 -1.000000 -0.000000
vn -0.262609 -0.463812 0.846118
vt 1.23389 0.960424
v 0.236817 -0.045416 -0.373403
vt 1.01763 0.962901
vt 1.14231 0.951939
vt 1.10356 0.946211
vt 1.14231 0.946211
v -0.218450 -0.045416 -0.394821
vt 1.22625 0.972715
vt 1.10584 0.944755
vn 0.225158 -0.459168 -0.859342
vt 1.13972 0.944755
v 0.235709 -0.045416 -0.376485
vt 1.01814 0.964313
vt 1.03103 0.920724
v 0.204707 -0.045416 -0.421379
vt 1.03235 0.984885
vt 1.03103 0.658224
vt 1.21353 0.920724
v -0.235124 -0.045416 0.202042
vt 1.23389 0.699216
v -0.187321 -0.045416 -0.421379
vt 1.21198 0.984885
v 0.236817 -0.045416 0.384953
vt 1.01763 0.615401
v -0.235124 -0.045416 0.373899
vt 1.21353 0.658224
vt 1.23389 0.620466
v 0.188556 -0.045416 0.415816
vt 1.03975 0.601258
v -0.196077 -0.045416 0.415816
vt 1.216 0.601258
v -0.184319 -0.045392 -0.429241
vn -0.085147 -0.448847 -0.889543
v -0.184319 0.045414 -0.429241
vn -0.085147 0.448847 -0.889543
vt -7.94206 0.931358
vt -7.12481 0.948132
vt -7.91503 0.948879
vt -7.94206 0.201443
vt -7.1055 0.930517
vt -7.15464 0.971055
vt -7.87497 0.969959
vt -7.1055 0.201443
vt -7.92779 0.188154
vt -7.11916 0.19107
vt -7.84751 0.979026
vt 7.82931 2.53328
vt 7.17329 2.61993
vt 7.17329 2.53328
vt -7.13713 0.183167
vt -7.17329 0.981051
vt -7.82931 0.981051
vt 7.82931 2.61993
vt -7.91393 0.181462
vt -7.89314 0.171423
vt -7.16588 0.170522
vt -7.86258 0.161585
vt -7.20585 0.161585
g mesh1-geometry-0
usemtl Material.57774a50243e5d429f3a4ea105ec3930
f 1//1 2//2 3//2
f 2//2 1//1 4//3
f 5//4 3//2 2//2
f 6//5 4//3 1//1
f 3//2 5//4 7//6
f 4//3 6//5 8//7
f 5//4 9//8 7//6
f 6//5 10//9 8//7
f 9//8 5//4 11//10
f 10//9 6//5 12//11
f 13//12 9//8 11//10
f 14//13 10//9 12//11
f 10//9 14//13 15//13
f 9//8 13//12 16//14
f 16//14 15//13 14//13
f 17//15 18//16 19//17
f 15//13 16//14 13//12
f 20//18 21//19 22//20
f 21//19 23//21 24//22
f 18//16 17//15 25//23
f 19//17 26//24 17//15
f 27//25 28//26 29//27
f 21//19 20//18 30//28
f 31//29 20//18 22//20
f 23//21 21//19 30//28
f 23//21 31//29 24//22
f 26//24 19//17 32//30
f 33//31 18//16 25//23
f 18//16 33//31 34//32
f 35//33 29//27 36//34
f 37//35 38//36 28//26
f 28//26 27//25 37//35
f 29//27 35//33 27//25
f 20//18 31//29 39//37
f 31//29 23//21 39//37
f 40//38 32//30 41//39
f 32//30 40//38 26//24
f 42//40 34//32 33//31
f 34//32 42//40 43//41
f 44//42 35//33 36//34
f 45//43 46//44 38//36
f 38//36 37//35 45//43
f 47//45 40//38 41//39
f 35//33 44//42 48//46
f 46//44 49//47 50//48
f 46//44 45//43 51//49
f 40//38 47//45 52//50
f 49//47 46//44 51//49
f 53//51 50//48 49//47
f 50//48 53//51 54//52
f 55//53 52//50 47//45
f 56//54 54//52 53//51
f 52//50 55//53 57//55
f 54//52 56//54 58//56
f 59//57 57//55 55//53
f 57//55 59//57 60//58
f 58//56 61//59 59//57
f 56//54 62//59 58//56
f 62//59 56//54 60//58
f 59//57 63//59 60//58
f 61//59 58//56 62//59
f 59//57 61//59 64//59
f 62//59 60//58 65//59
f 59//57 66//59 63//59
f 67//59 60//58 63//59
f 59//57 64//59 68//59
f 65//59 60//58 69//59
f 62//59 65//59 70//59
f 59//57 71//59 66//59
f 72//59 60//58 67//59
f 70//59 73//59 64//59
f 68//59 64//59 74//59
f 59//57 68//59 75//59
f 69//59 60//58 76//59
f 70//59 65//59 77//59
f 59//57 78//59 71//59
f 79//59 60//58 72//59
f 70//59 77//59 73//59
f 64//59 73//59 80//59
f 74//59 64//59 81//59
f 59//57 75//59 82//59
f 76//59 60//58 79//59
f 59//57 83//59 78//59
f 64//59 80//59 84//59
f 81//59 64//59 85//59
f 59//57 82//59 83//59
f 64//59 84//59 86//59
f 85//59 64//59 87//59
f 64//59 86//59 88//59
f 87//59 64//59 88//59
g mesh1-geometry-1
usemtl Material.90b00bf69165eda831fe702671104217
f 89//60 90//60 91//61
f 92//62 91//61 90//60
f 90//60 89//60 93//63
f 89//60 91//61 94//64
f 91//61 92//62 95//65
f 90//66 96//67 92//62
f 94//64 93//63 89//60
f 90//66 93//63 97//67
f 91//61 95//65 94//64
f 98//68 95//65 92//62
f 92//62 96//67 98//68
f 96//67 90//66 97//67
f 94//64 99//69 93//63
f 93//63 100//70 97//67
f 94//64 95//65 99//69
f 98//68 101//71 95//65
f 98//68 96//67 101//71
f 102//67 96//67 97//67
f 100//70 93//63 99//69
f 100//70 103//72 97//67
f 95//65 104//73 99//69
f 104//73 95//65 101//71
f 101//71 96//67 105//74
f 102//67 106//75 96//67
f 107//67 102//67 97//67
f 100//70 99//69 103//72
f 103//72 108//76 97//67
f 99//69 104//73 109//77
f 104//73 101//71 110//78
f 105//74 96//67 108//76
f 105//78 110//78 101//71
f 96//67 106//75 111//67
f 112//79 106//75 102//67
f 113//67 102//67 107//67
f 107//67 97//67 114//80
f 109//77 103//72 99//69
f 108//76 115//81 97//67
f 105//74 108//76 103//72
f 110//78 109//77 104//73
f 108//76 96//67 116//82
f 110//78 105//78 109//77
f 111//67 106//75 117//67
f 96//67 111//67 116//82
f 106//75 112//79 118//83
f 119//67 112//79 102//67
f 119//67 102//67 113//67
f 113//67 107//67 120//84
f 97//67 121//67 114//80
f 120//84 107//67 114//80
f 103//72 109//77 105//78
f 97//67 115//81 121//67
f 115//81 108//76 122//85
f 116//82 123//86 108//76
f 106//75 124//87 117//67
f 117//67 125//88 111//67
f 116//82 111//67 125//88
f 126//89 118//83 112//79
f 118//83 127//90 106//75
f 128//91 112//79 119//67
f 113//67 129//92 119//67
f 130//93 113//67 120//84
f 114//80 121//67 131//94
f 120//84 114//80 132//95
f 115//81 117//67 121//67
f 133//96 122//85 108//76
f 115//81 122//85 125//88
f 133//96 108//76 123//86
f 116//82 125//88 123//86
f 124//87 134//97 117//67
f 124//87 106//75 127//90
f 125//88 117//67 115//81
f 126//89 132//95 118//83
f 126//89 112//79 135//98
f 118//83 136//99 127//90
f 128//91 135//98 112//79
f 129//92 128//91 119//67
f 129//92 113//67 137//100
f 137//100 113//67 130//93
f 130//93 120//84 138//101
f 131//94 121//67 139//102
f 114//80 131//94 136//99
f 136//99 132//95 114//80
f 132//95 138//101 120//84
f 121//67 117//67 140//67
f 133//96 123//86 122//85
f 141//103 125//88 122//85
f 141//103 123//86 125//88
f 134//97 142//104 117//67
f 134//97 124//87 143//105
f 127//90 143//105 124//87
f 132//95 136//99 118//83
f 138//101 132//95 126//89
f 135//98 138//101 126//89
f 136//99 144//106 127//90
f 135//98 128//91 145//107
f 129//92 145//107 128//91
f 146//108 129//92 137//100
f 130//93 138//101 137//100
f 139//102 121//67 147//109
f 131//94 139//102 144//106
f 144//106 136//99 131//94
f 148//67 140//67 117//67
f 121//67 140//67 147//109
f 141//103 122//85 123//86
f 117//67 142//104 148//67
f 134//97 143//105 142//104
f 127//90 149//110 143//105
f 145//107 138//101 135//98
f 144//106 149//110 127//90
f 145//107 129//92 150//111
f 146//108 150//111 129//92
f 137//100 151//112 146//108
f 151//112 137//100 138//101
f 147//109 152//113 139//102
f 149//110 144//106 139//102
f 148//67 153//114 140//67
f 147//109 140//67 154//115
f 153//114 148//67 142//104
f 155//116 142//104 143//105
f 149//110 152//113 143//105
f 151//112 138//101 145//107
f 150//111 151//112 145//107
f 150//111 146//108 151//112
f 149//110 139//102 152//113
f 152//113 147//109 156//117
f 140//67 153//114 154//115
f 154//115 156//117 147//109
f 142//104 155//116 153//114
f 143//105 152//113 155//116
f 152//113 156//117 157//118
f 154//115 153//114 158//119
f 156//117 154//115 159//120
f 157//118 153//114 155//116
f 155//116 152//113 157//118
f 157//118 156//117 160//121
f 161//122 158//119 153//114
f 158//119 159//120 154//115
f 159//120 160//121 156//117
f 153//114 157//118 161//122
f 160//121 161//122 157//118
f 161//122 162//123 158//119
f 158//119 163//123 159//120
f 160//121 159//120 163//123
f 160//121 164//123 161//122
f 163//123 158//119 162//123
f 165//123 162//123 161//122
f 166//123 160//121 163//123
f 164//123 167//123 161//122
f 164//123 160//121 168//123
f 163//123 162//123 169//123
f 165//123 169//123 162//123
f 170//123 165//123 161//122
f 171//123 160//121 166//123
f 169//123 166//123 163//123
f 167//123 172//123 161//122
f 164//123 168//123 167//123
f 168//123 160//121 173//123
f 165//123 174//123 169//123
f 175//123 165//123 170//123
f 176//123 170//123 161//122
f 177//123 160//121 171//123
f 171//123 166//123 176//123
f 178//123 166//123 169//123
f 172//123 179//123 161//122
f 167//123 168//123 172//123
f 173//123 160//121 180//123
f 168//123 173//123 172//123
f 174//123 178//123 169//123
f 181//123 174//123 165//123
f 182//123 165//123 175//123
f 170//123 178//123 175//123
f 176//123 166//123 170//123
f 183//123 176//123 161//122
f 180//123 160//121 177//123
f 177//123 171//123 183//123
f 183//123 171//123 176//123
f 166//123 178//123 170//123
f 179//123 184//123 161//122
f 172//123 173//123 179//123
f 173//123 180//123 179//123
f 178//123 174//123 175//123
f 174//123 181//123 182//123
f 185//123 181//123 165//123
f 186//123 165//123 182//123
f 175//123 174//123 182//123
f 184//123 183//123 161//122
f 180//123 177//123 184//123
f 184//123 177//123 183//123
f 179//123 180//123 184//123
f 182//123 181//123 186//123
f 181//123 185//123 186//123
f 187//123 185//123 165//123
f 188//123 165//123 186//123
f 186//123 185//123 188//123
f 185//123 187//123 188//123
f 189//123 187//123 165//123
f 189//123 165//123 188//123
f 189//123 188//123 187//123
g mesh1-geometry-2
usemtl Material.31d6b9102bbdb637bdd6578ff73179d5
f 7/1/6 1/2/1 3/3/2
f 4/2/3 190/4/124 2/3/125
f 191/5/124 5/1/4 2/3/125
f 7/1/6 6/6/5 1/2/1
f 8/6/7 190/4/124 4/2/3
f 191/5/124 2/3/125 190/4/124
f 191/5/124 11/7/10 5/1/4
f 9/7/8 6/6/5 7/1/6
f 10/8/9 190/4/124 8/6/7
f 191/5/124 190/4/124 192/9/124
f 191/5/124 13/10/12 11/7/10
f 9/7/8 12/8/11 6/6/5
f 15/11/126 190/4/124 10/8/9
f 191/5/124 192/9/124 193/12/124
f 191/5/124 21/13/19 13/10/12
f 16/10/14 12/8/11 9/7/8
f 21/13/19 190/4/124 15/11/126
f 193/12/124 192/9/124 194/14/124
f 191/5/124 22/15/20 21/13/19
f 13/10/12 21/13/19 15/11/126
f 12/8/11 16/10/14 14/11/13
f 24/16/22 190/4/124 21/13/19
f 24/16/22 195/17/124 190/4/124
f 194/14/124 192/9/124 196/18/124
f 197/19/124 22/15/20 191/5/124
f 195/17/124 31/20/29 198/21/124
f 31/20/29 195/17/124 24/16/22
f 197/19/124 198/21/124 22/15/20
f 22/15/20 198/21/124 31/20/29
f 199/22/124 198/21/124 197/19/124
f 20/15/18 23/16/21 30/13/28
f 198/21/124 199/22/124 200/23/124
f 23/16/21 20/15/18 39/20/37
g mesh1-geometry-3
usemtl Material.b2cdaf4394d1a4f850458878b81c7fa1
f 190//124 19//17 192//124
f 195//124 19//17 190//124
f 192//124 19//17 18//16
f 28//26 191//124 193//124
f 198//124 19//17 195//124
f 192//124 18//16 196//124
f 29//27 193//124 194//124
f 28//26 197//124 191//124
f 28//26 193//124 29//27
f 198//124 32//30 19//17
f 196//124 18//16 34//32
f 196//124 43//41 194//124
f 29//27 194//124 36//34
f 38//36 197//124 28//26
f 198//124 41//39 32//30
f 196//124 34//32 43//41
f 44//42 194//124 43//41
f 36//34 194//124 44//42
f 46//44 197//124 38//36
f 198//124 47//45 41//39
f 44//42 43//41 201//127
f 50//48 197//124 46//44
f 50//48 199//124 197//124
f 200//124 47//45 198//124
f 202//128 43//41 42//40
f 43//41 202//128 201//127
f 199//124 55//53 200//124
f 54//52 199//124 50//48
f 47//45 200//124 55//53
f 54//52 55//53 199//124
f 58//56 55//53 54//52
f 55//53 58//56 59//57
f 70//59 61//59 62//59
f 61//59 70//59 64//59
f 66//59 67//59 63//59
f 75//59 65//59 69//59
f 71//59 67//59 66//59
f 71//59 72//59 67//59
f 74//59 77//59 68//59
f 68//59 65//59 75//59
f 82//59 69//59 76//59
f 75//59 69//59 82//59
f 68//59 77//59 65//59
f 78//59 72//59 71//59
f 78//59 79//59 72//59
f 74//59 73//59 77//59
f 81//59 80//59 73//59
f 81//59 73//59 74//59
f 83//59 76//59 79//59
f 82//59 76//59 83//59
f 83//59 79//59 78//59
f 85//59 80//59 81//59
f 85//59 84//59 80//59
f 87//59 84//59 85//59
f 87//59 86//59 84//59
f 86//59 87//59 88//59
g mesh1-geometry-4
usemtl Material.fd405729217466f29eac93fc2fe0bd88
f 17/24/15 27/25/25 25/26/23
f 26/27/24 37/28/35 17/24/15
f 17/24/15 37/28/35 27/25/25
f 25/26/23 27/25/25 35/29/33
f 25/26/23 35/29/33 33/30/31
f 26/27/24 45/31/43 37/28/35
f 40/32/38 51/33/49 26/27/24
f 33/30/31 35/29/33 42/34/40
f 26/27/24 51/33/49 45/31/43
f 201/35/127 48/36/46 44/37/42
f 40/32/38 49/38/47 51/33/49
f 42/34/40 35/29/33 48/39/46
f 42/34/40 48/39/46 202/40/128
f 48/36/46 201/35/127 202/41/128
f 52/42/50 49/38/47 40/32/38
f 57/43/55 53/44/51 49/38/47
f 57/43/55 49/38/47 52/42/50
f 60/45/58 53/44/51 57/43/55
f 53/44/51 60/45/58 56/46/54
