# created by Ethan Wu and Zhan isaac Ling
mtllib model.mtl
v -0.005736 0.208392 -0.451054
v -0.005744 -0.135054 0.451045
v -0.005736 -0.135043 -0.451054
vn 1.000000 0.000000 0.000000
v -0.005736 0.208392 0.451054
v -0.043537 -0.135043 -0.451054
vn 0.000000 -1.000000 0.000000
vn 0.000000 0.000000 -1.000000
v -0.043548 0.208384 0.451045
vn 0.000000 1.000000 0.000000
vn 0.000000 0.000000 1.000000
v -0.043536 -0.135049 -0.053350
v -0.043552 0.208379 -0.451041
v -0.043548 -0.135036 0.451045
v -0.043522 -0.135057 0.085132
v -0.043557 -0.111589 -0.429437
vn -1.000000 0.000000 0.000000
v -0.043557 0.182932 -0.429437
v -0.043557 -0.111589 0.427870
v -0.043557 0.182932 0.427870
v 0.055883 -0.189688 -0.053379
v -0.055857 -0.189679 0.085149
v 0.055873 -0.189684 0.085162
v -0.055883 -0.189698 0.415220
v 0.055883 -0.189698 0.415220
v -0.055857 -0.189679 -0.053370
v 0.055883 -0.205655 0.415220
v 0.055883 -0.189698 -0.433133
v 0.055883 -0.205655 -0.433133
v -0.055883 -0.189698 -0.433133
v -0.055883 -0.205655 0.415220
v -0.055883 -0.205655 -0.433133
vn -1.000000 0.000000 0.000000
vn 0.000000 -1.000000 0.000000
v -0.005788 -0.134991 -0.451001
v -0.005781 -0.134980 0.451009
v -0.005788 0.208340 -0.451001
vn -1.000000 0.000000 0.000000
v -0.005788 0.208340 0.451001
v -0.043485 -0.134991 -0.451001
vn 0.000000 1.000000 0.000000
vn 0.000000 0.000000 1.000000
v -0.043475 0.208347 0.451009
vn 0.000000 -1.000000 0.000000
vn 0.000000 0.000000 -1.000000
v -0.043486 -0.134985 -0.053389
v -0.043471 0.208352 -0.451014
v -0.043475 -0.134999 0.451009
v -0.043501 -0.134977 0.085167
v -0.043466 -0.111589 -0.429437
vn 1.000000 0.000000 0.000000
v -0.043466 0.182932 -0.429437
v -0.043466 -0.111589 0.427870
v 0.055831 -0.189760 -0.053360
vn -0.482287 -0.876013 0.000000
v -0.053729 -0.153638 -0.053354
vn 0.876013 -0.482287 0.000000
v -0.043466 0.182932 0.427870
v 0.055841 -0.189765 0.085138
v 0.045592 -0.208332 -0.053333
vn 0.000000 0.000000 1.000000
v -0.053734 -0.153640 0.085124
vn 1.000000 0.000000 0.000000
v 0.045589 -0.208321 0.085124
vn 0.000000 0.000000 -1.000000
v -0.055857 -0.189769 0.085149
vn -0.876013 0.482287 0.000000
vn 0.482287 0.876013 0.000000
v 0.055831 -0.189750 0.415168
v -0.055831 -0.189750 0.415168
v -0.055857 -0.189769 -0.053370
v 0.055831 -0.189750 -0.433081
v 0.055831 -0.205602 0.415168
v 0.055831 -0.205602 -0.433081
v -0.055831 -0.189750 -0.433081
v -0.055831 -0.205602 0.415168
v -0.055831 -0.205602 -0.433081
vn 0.000000 1.000000 0.000000
v -0.053810 -0.153662 -0.053384
vn -0.876013 0.482287 0.000000
v 0.045607 -0.208382 -0.053406
v -0.053805 -0.153660 0.085176
v 0.045609 -0.208392 0.085176
vn 0.876013 -0.482287 0.000000
g mesh1-geometry-0
usemtl Material.57774a50243e5d429f3a4ea105ec3930
f 1//1 2//1 3//1
f 2//1 1//1 4//1
f 2//2 5//2 3//2
f 5//3 1//3 3//3
f 1//4 6//4 4//4
f 6//5 2//5 4//5
f 5//2 2//2 7//2
f 1//3 5//3 8//3
f 6//4 1//4 8//4
f 2//5 6//5 9//5
f 7//2 2//2 10//2
f 11//6 5//6 7//6
f 5//6 11//6 8//6
f 8//6 12//6 6//6
f 13//6 9//6 6//6
f 10//2 2//2 9//2
f 10//6 13//6 7//6
f 11//6 7//6 13//6
f 8//6 11//6 12//6
f 14//6 6//6 12//6
f 9//6 13//6 10//6
f 13//6 6//6 14//6
f 15//4 16//4 17//4
f 17//4 18//4 19//4
f 16//4 15//4 20//4
f 18//4 17//4 16//4
f 21//1 22//1 19//1
f 22//4 20//4 15//4
f 18//5 21//5 19//5
f 22//1 21//1 23//1
f 20//4 22//4 24//4
f 21//5 18//5 25//5
f 26//7 18//7 24//7
f 21//8 26//8 23//8
f 26//3 22//3 23//3
f 22//3 26//3 24//3
f 18//7 26//7 25//7
f 26//8 21//8 25//8
g mesh1-geometry-1
usemtl Material.90b00bf69165eda831fe702671104217
f 27//9 28//9 29//9
f 30//9 29//9 28//9
f 27//10 31//10 28//10
f 27//11 29//11 31//11
f 30//12 32//12 29//12
f 30//13 28//13 32//13
f 33//10 28//10 31//10
f 34//11 31//11 29//11
f 34//12 29//12 32//12
f 35//13 32//13 28//13
f 36//10 28//10 33//10
f 33//14 31//14 37//14
f 34//14 37//14 31//14
f 32//14 38//14 34//14
f 32//14 35//14 39//14
f 35//10 28//10 36//10
f 33//14 39//14 36//14
f 7//15 40//15 10//15
f 7//16 10//16 41//16
f 39//14 33//14 37//14
f 38//14 37//14 34//14
f 38//14 32//14 42//14
f 36//14 39//14 35//14
f 42//14 32//14 39//14
f 43//15 10//15 40//15
f 40//17 7//17 44//17
f 45//16 41//16 10//16
f 41//17 44//17 7//17
f 39//18 37//18 42//18
f 38//18 42//18 37//18
f 43//19 46//19 10//19
f 43//12 47//12 40//12
f 43//20 40//20 46//20
f 44//20 46//20 40//20
f 45//21 46//21 41//21
f 45//19 10//19 46//19
f 44//21 41//21 46//21
f 48//12 49//12 43//12
f 50//12 40//12 47//12
f 47//12 43//12 49//12
f 48//9 51//9 52//9
f 40//12 50//12 51//12
f 48//13 52//13 49//13
f 53//9 52//9 51//9
f 54//12 51//12 50//12
f 55//13 49//13 52//13
f 54//18 49//18 56//18
f 53//22 56//22 52//22
f 53//11 51//11 56//11
f 54//11 56//11 51//11
f 55//18 56//18 49//18
f 55//22 52//22 56//22
g mesh1-geometry-2
usemtl Material.dc7a3ca9ca091ddbf48733c3a604f557
f 36//21 15//21 33//21
f 57//23 36//23 33//23
f 15//21 36//21 17//21
f 58//19 33//19 15//19
f 36//23 57//23 59//23
f 33//19 58//19 57//19
f 14//7 11//7 13//7
f 11//7 14//7 12//7
f 36//17 60//17 17//17
f 60//24 15//24 17//24
f 15//24 60//24 58//24
f 57//15 60//15 59//15
f 60//17 36//17 59//17
f 60//15 57//15 58//15
