# created by Ethan Wu and Zhan isaac Ling
mtllib model.mtl
v 0.020728 0.129645 0.326845
v 0.024091 -0.050282 0.347908
v 0.024291 0.041083 0.349110
vn -0.987531 0.000000 0.157423
vt 0.103647 0.669375
vt 0.077793 0.461199
vt 0.07632 0.566906
v 0.020168 -0.138217 0.323328
vt 0.107963 0.359456
v 0.024303 0.041075 0.349042
v 0.024120 -0.050273 0.347845
v 0.020770 0.129627 0.326792
vn 0.987531 0.000000 -0.157423
v 0.020209 -0.138198 0.323276
v 0.085458 0.041083 0.339360
vn 0.155781 -0.144041 0.977233
vn 0.156327 0.117691 0.980669
v 0.085426 0.041075 0.339298
vn -0.156327 -0.117691 -0.980669
vn -0.155781 0.144041 -0.977233
v 0.081922 0.129645 0.317090
vn 0.146171 0.371279 0.916944
v 0.081866 0.129627 0.317053
vn -0.146171 -0.371279 -0.916944
v 0.013682 0.209373 0.282644
vt 0.15791 0.76162
v 0.013725 0.209344 0.282597
v 0.085275 -0.050282 0.338155
vn 0.144567 -0.395808 0.906883
v 0.085228 -0.050273 0.338104
vn -0.144567 0.395808 -0.906883
v 0.074876 0.209373 0.272889
vn 0.126028 0.599243 0.790585
v 0.074821 0.209344 0.272858
vn -0.126028 -0.599243 -0.790585
v 0.012794 -0.216736 0.277052
vt 0.164776 0.268612
v 0.012829 -0.216702 0.277003
v 0.081361 -0.138217 0.313574
v 0.081306 -0.138198 0.313537
vn 0.987531 0.000000 -0.157423
vn -0.987531 0.000000 0.157423
v 0.064809 0.274835 0.209762
vn 0.097317 0.786037 0.610471
vt 0.235411 0.837358
v 0.064762 0.274792 0.209734
vn -0.097317 -0.786037 -0.610471
v 0.003614 0.274829 0.219512
v 0.003667 0.274799 0.219479
vn 0.123482 -0.620268 0.774609
vn -0.123482 0.620268 -0.774609
v 0.073988 -0.216731 0.267291
v 0.073926 -0.216707 0.267270
v 0.002457 -0.280481 0.212224
vt 0.24436 0.194856
v 0.002500 -0.280442 0.212188
v -0.008777 0.321563 0.141757
vn 0.062022 0.919117 0.389072
vt 0.330869 0.891425
v -0.008731 0.321518 0.141730
vn -0.062022 -0.919117 -0.389072
v 0.063650 -0.280481 0.202469
v 0.063597 -0.280442 0.202448
vn 0.094003 -0.802135 0.589698
vn -0.094003 0.802135 -0.589698
v 0.052417 0.321563 0.132002
v 0.052365 0.321518 0.131991
v -0.010130 -0.325114 0.133268
vt 0.341291 0.143216
v -0.010084 -0.325068 0.133242
v 0.051064 -0.325114 0.123513
vn 0.058173 -0.929218 0.364924
v 0.051012 -0.325068 0.123503
vn -0.058173 0.929218 -0.364924
v -0.022659 0.346379 0.054672
vn 0.022554 0.989683 0.141485
vt 0.43778 0.920137
v -0.022612 0.346331 0.054657
vn -0.022554 -0.989683 -0.141485
v 0.038535 0.346379 0.044917
v 0.038485 0.346331 0.044918
v -0.024111 -0.347590 0.045562
vt 0.448963 0.11721
v -0.024064 -0.347542 0.045549
v 0.037082 -0.347590 0.035807
vn 0.018428 -0.993125 0.115598
v 0.037033 -0.347542 0.035809
vn -0.018428 0.993125 -0.115598
v -0.037082 0.347590 -0.035807
vn -0.018428 0.993125 -0.115598
vt 0.548856 0.921539
v -0.037033 0.347542 -0.035809
vn 0.018428 -0.993125 0.115598
v 0.024111 0.347590 -0.045562
v 0.024064 0.347542 -0.045549
v -0.038534 -0.346379 -0.044917
vt 0.560039 0.118611
v -0.038485 -0.346331 -0.044917
v 0.022659 -0.346379 -0.054672
vn -0.022554 -0.989683 -0.141485
v 0.022612 -0.346331 -0.054657
vn 0.022554 0.989683 0.141485
v -0.051064 0.325114 -0.123513
vn -0.058173 0.929218 -0.364924
vt 0.656528 0.895533
v -0.051012 0.325068 -0.123503
vn 0.058173 -0.929218 0.364924
v 0.010130 0.325114 -0.133268
v 0.010084 0.325068 -0.133242
v -0.052417 -0.321563 -0.132002
vt 0.666949 0.147324
v -0.052365 -0.321518 -0.131990
v 0.008777 -0.321563 -0.141757
vn -0.062022 -0.919117 -0.389072
v 0.008731 -0.321518 -0.141730
vn 0.062022 0.919117 0.389072
v -0.063650 0.280481 -0.202469
vn -0.094003 0.802135 -0.589698
vt 0.753459 0.843893
v -0.063597 0.280442 -0.202448
vn 0.094003 -0.802135 0.589698
v -0.002456 0.280481 -0.212224
v -0.002500 0.280442 -0.212188
v -0.064816 -0.274829 -0.209755
vt 0.762408 0.201391
v -0.064755 -0.274799 -0.209741
v -0.003622 -0.274835 -0.219515
vn -0.097317 -0.786037 -0.610471
v -0.003658 -0.274792 -0.219475
vn 0.097317 0.786037 0.610471
v -0.073981 0.216736 -0.267299
vn -0.123482 0.620268 -0.774609
vt 0.833042 0.770137
v -0.073933 0.216702 -0.267262
vn 0.123482 -0.620268 0.774609
v -0.012785 0.216731 -0.277047
v -0.012838 0.216707 -0.277008
v -0.074876 -0.209373 -0.272889
vt 0.839909 0.277128
v -0.074821 -0.209344 -0.272858
vn -0.126028 -0.599243 -0.790585
vn 0.126028 0.599243 0.790585
v -0.020168 0.138217 -0.323328
vn -0.144567 0.395808 -0.906883
vt 0.889856 0.679292
v -0.020209 0.138198 -0.323276
vn 0.144567 -0.395808 0.906883
v -0.013682 -0.209373 -0.282644
v -0.013725 -0.209344 -0.282597
v -0.081361 0.138217 -0.313574
v -0.081306 0.138198 -0.313537
v -0.081922 -0.129645 -0.317090
vt 0.894172 0.369374
v -0.081866 -0.129627 -0.317053
vn -0.146171 -0.371279 -0.916944
vn 0.146171 0.371279 0.916944
v -0.024091 0.050282 -0.347908
vn -0.155781 0.144041 -0.977233
vt 0.920026 0.57755
v -0.024120 0.050273 -0.347845
vn 0.155781 -0.144041 0.977233
v -0.020728 -0.129645 -0.326845
v -0.020769 -0.129627 -0.326792
v -0.085274 0.050282 -0.338155
v -0.085227 0.050273 -0.338104
v -0.085458 -0.041083 -0.339359
vt 0.921499 0.471842
v -0.085426 -0.041075 -0.339298
vn -0.156327 -0.117691 -0.980669
vn 0.156327 0.117691 0.980669
v -0.024291 -0.041083 -0.349110
v -0.024303 -0.041075 -0.349042
g mesh1-geometry-0
usemtl Material.e6a6298ff53efe4150e122edc010a6a6
f 1/1/1 2/2/1 3/3/1
f 2/2/1 1/1/1 4/4/1
f 5/3/2 6/2/2 7/1/2
f 8/4/2 7/1/2 6/2/2
f 2/2/3 9/3/4 3/3/4
f 5/3/5 10/3/5 6/2/6
f 3/3/4 11/1/7 1/1/7
f 7/1/8 12/1/8 5/3/5
f 4/4/1 1/1/1 13/5/1
f 14/5/2 7/1/2 8/4/2
f 4/4/9 15/2/3 2/2/3
f 6/2/6 16/2/6 8/4/10
f 9/3/4 2/2/3 15/2/3
f 16/2/6 6/2/6 10/3/5
f 11/1/7 3/3/4 9/3/4
f 10/3/5 5/3/5 12/1/8
f 17/5/11 1/1/7 11/1/7
f 12/1/8 7/1/8 18/5/12
f 1/1/7 17/5/11 13/5/11
f 14/5/12 18/5/12 7/1/8
f 4/4/1 13/5/1 19/6/1
f 20/6/2 14/5/2 8/4/2
f 15/2/3 4/4/9 21/4/9
f 22/4/10 8/4/10 16/2/6
f 15/2/13 11/1/13 9/3/13
f 10/3/14 12/1/14 16/2/14
f 11/1/13 21/4/13 17/5/13
f 18/5/14 22/4/14 12/1/14
f 23/7/15 13/5/11 17/5/11
f 18/5/12 14/5/12 24/7/16
f 19/6/1 13/5/1 25/7/1
f 26/7/2 14/5/2 20/6/2
f 19/6/17 21/4/9 4/4/9
f 8/4/10 22/4/10 20/6/18
f 11/1/13 15/2/13 21/4/13
f 22/4/14 16/2/14 12/1/14
f 17/5/13 21/4/13 27/6/13
f 28/6/14 22/4/14 18/5/14
f 13/5/11 23/7/15 25/7/15
f 26/7/16 24/7/16 14/5/12
f 17/5/13 27/6/13 23/7/13
f 24/7/14 28/6/14 18/5/14
f 19/6/1 25/7/1 29/8/1
f 30/8/2 26/7/2 20/6/2
f 21/4/9 19/6/17 27/6/17
f 28/6/18 20/6/18 22/4/10
f 23/7/15 31/9/19 25/7/15
f 26/7/16 32/9/20 24/7/16
f 23/7/13 27/6/13 33/8/13
f 34/8/14 28/6/14 24/7/14
f 29/8/1 25/7/1 31/9/1
f 32/9/2 26/7/2 30/8/2
f 33/8/21 19/6/17 29/8/21
f 30/8/22 20/6/18 34/8/22
f 19/6/17 33/8/21 27/6/17
f 28/6/18 34/8/22 20/6/18
f 31/9/19 23/7/15 35/9/19
f 36/9/20 24/7/16 32/9/20
f 23/7/13 33/8/13 35/9/13
f 36/9/14 34/8/14 24/7/14
f 29/8/1 31/9/1 37/10/1
f 38/10/2 32/9/2 30/8/2
f 29/8/21 39/10/23 33/8/21
f 34/8/22 40/10/24 30/8/22
f 35/9/19 41/11/25 31/9/19
f 32/9/20 42/11/26 36/9/20
f 35/9/13 33/8/13 39/10/13
f 40/10/14 34/8/14 36/9/14
f 37/10/1 31/9/1 41/11/1
f 42/11/2 32/9/2 38/10/2
f 39/10/23 29/8/21 37/10/23
f 38/10/24 30/8/22 40/10/24
f 41/11/25 35/9/19 43/11/25
f 44/11/26 36/9/20 42/11/26
f 35/9/13 39/10/13 43/11/13
f 44/11/14 40/10/14 36/9/14
f 37/10/1 41/11/1 45/12/1
f 46/12/2 42/11/2 38/10/2
f 37/10/23 47/12/27 39/10/23
f 40/10/24 48/12/28 38/10/24
f 43/11/25 49/13/29 41/11/25
f 42/11/26 50/13/30 44/11/26
f 43/11/13 39/10/13 47/12/13
f 48/12/14 40/10/14 44/11/14
f 45/12/1 41/11/1 49/13/1
f 50/13/2 42/11/2 46/12/2
f 47/12/27 37/10/23 45/12/27
f 46/12/28 38/10/24 48/12/28
f 49/13/29 43/11/25 51/13/29
f 52/13/30 44/11/26 50/13/30
f 43/11/13 47/12/13 51/13/13
f 52/13/14 48/12/14 44/11/14
f 45/12/1 49/13/1 53/14/1
f 54/14/2 50/13/2 46/12/2
f 45/12/27 55/14/31 47/12/27
f 48/12/28 56/14/32 46/12/28
f 51/13/29 57/15/33 49/13/29
f 50/13/30 58/15/34 52/13/30
f 51/13/13 47/12/13 55/14/13
f 56/14/14 48/12/14 52/13/14
f 53/14/1 49/13/1 57/15/1
f 58/15/2 50/13/2 54/14/2
f 55/14/31 45/12/27 53/14/31
f 54/14/32 46/12/28 56/14/32
f 57/15/33 51/13/29 59/15/33
f 60/15/34 52/13/30 58/15/34
f 51/13/13 55/14/13 59/15/13
f 60/15/14 56/14/14 52/13/14
f 53/14/1 57/15/1 61/16/1
f 62/16/2 58/15/2 54/14/2
f 53/14/31 63/16/35 55/14/31
f 56/14/32 64/16/36 54/14/32
f 59/15/33 65/17/37 57/15/33
f 58/15/34 66/17/38 60/15/34
f 59/15/13 55/14/13 63/16/13
f 64/16/14 56/14/14 60/15/14
f 61/16/1 57/15/1 65/17/1
f 66/17/2 58/15/2 62/16/2
f 63/16/35 53/14/31 61/16/35
f 62/16/36 54/14/32 64/16/36
f 65/17/37 59/15/33 67/17/37
f 68/17/38 60/15/34 66/17/38
f 59/15/13 63/16/13 67/17/13
f 68/17/14 64/16/14 60/15/14
f 61/16/1 65/17/1 69/18/1
f 70/18/2 66/17/2 62/16/2
f 61/16/35 71/18/39 63/16/35
f 64/16/36 72/18/40 62/16/36
f 67/17/37 73/19/41 65/17/37
f 66/17/38 74/19/42 68/17/38
f 67/17/13 63/16/13 71/18/13
f 72/18/14 64/16/14 68/17/14
f 69/18/1 65/17/1 73/19/1
f 74/19/2 66/17/2 70/18/2
f 71/18/39 61/16/35 69/18/39
f 70/18/40 62/16/36 72/18/40
f 73/19/41 67/17/37 75/19/41
f 76/19/42 68/17/38 74/19/42
f 67/17/13 71/18/13 75/19/13
f 76/19/14 72/18/14 68/17/14
f 69/18/1 73/19/1 77/20/1
f 78/20/2 74/19/2 70/18/2
f 77/20/43 71/18/39 69/18/39
f 70/18/40 72/18/40 78/20/44
f 79/21/45 73/19/41 75/19/41
f 76/19/42 74/19/42 80/21/46
f 75/19/13 71/18/13 81/20/13
f 82/20/14 72/18/14 76/19/14
f 77/20/1 73/19/1 83/21/1
f 84/21/2 74/19/2 78/20/2
f 71/18/39 77/20/43 81/20/43
f 82/20/44 78/20/44 72/18/40
f 73/19/41 79/21/45 83/21/45
f 84/21/46 80/21/46 74/19/42
f 75/19/13 81/20/13 79/21/13
f 80/21/14 82/20/14 76/19/14
f 77/20/1 83/21/1 85/22/1
f 86/22/2 84/21/2 78/20/2
f 85/22/47 81/20/43 77/20/43
f 78/20/44 82/20/44 86/22/48
f 87/23/49 83/21/45 79/21/45
f 80/21/46 84/21/46 88/23/50
f 79/21/13 81/20/13 89/22/13
f 90/22/14 82/20/14 80/21/14
f 85/22/1 83/21/1 91/23/1
f 92/23/2 84/21/2 86/22/2
f 81/20/43 85/22/47 89/22/47
f 90/22/48 86/22/48 82/20/44
f 83/21/45 87/23/49 91/23/49
f 92/23/50 88/23/50 84/21/46
f 79/21/13 89/22/13 87/23/13
f 88/23/14 90/22/14 80/21/14
f 85/22/1 91/23/1 93/24/1
f 94/24/2 92/23/2 86/22/2
f 93/24/51 89/22/47 85/22/47
f 86/22/48 90/22/48 94/24/52
f 95/24/51 91/23/49 87/23/49
f 88/23/50 92/23/50 96/24/52
f 87/23/13 89/22/13 95/24/13
f 96/24/14 90/22/14 88/23/14
f 91/23/49 95/24/51 93/24/51
f 94/24/52 96/24/52 92/23/50
f 89/22/47 93/24/51 95/24/51
f 96/24/52 94/24/52 90/22/48
