# created by Ethan Wu and Zhan isaac Ling
mtllib model.mtl
v 0.291356 -0.283238 -0.291353
v -0.291350 -0.283238 0.291353
v -0.291350 -0.283238 -0.291353
vn 0.000000 -1.000000 0.000000
vt 0.0 1.0
vt 1.0 0.0
vt 1.0 1.0
v 0.291356 -0.283238 0.291353
vt 0.0 0.0
v -0.291316 -0.283204 -0.291319
v -0.291316 -0.283204 0.291319
v 0.291321 -0.283204 -0.291319
vn 0.000000 1.000000 0.000000
v 0.291321 -0.283204 0.291319
v -0.291316 -0.226844 -0.291314
vn 1.000000 0.000000 0.000000
vn 0.000000 0.000000 1.000000
v 0.291328 -0.226859 0.291325
vn -1.000000 0.000000 0.000000
vn 0.000000 0.000000 -1.000000
v -0.291309 -0.226841 0.291320
v 0.291330 -0.226860 -0.291327
v -0.253760 -0.226815 0.291323
v -0.291350 -0.226822 -0.291356
v -0.291356 -0.226825 0.291350
vn 0.000000 1.000000 0.000000
v -0.253722 -0.226852 0.291347
vn 0.000000 -1.000000 0.000000
v -0.291309 0.283206 -0.291324
v 0.253497 -0.226854 -0.024848
v -0.253756 -0.226809 -0.291331
v -0.253726 -0.226858 -0.291341
v -0.291323 0.283199 0.291316
vn 0.000000 0.000000 -1.000000
v -0.253765 0.283206 -0.291324
vn 0.000000 0.000000 1.000000
v 0.115638 -0.226860 -0.024843
v 0.253495 -0.226857 0.081688
v -0.253767 -0.197286 0.275775
vn -1.000000 0.000000 0.000000
v -0.253765 0.283206 0.291324
v -0.291356 0.283230 -0.291347
v -0.291341 0.283238 0.291356
v -0.253717 0.283230 -0.291347
v -0.253762 -0.197292 -0.275593
v 0.115632 -0.226854 0.081690
v 0.115630 -0.233115 -0.024851
v 0.253500 -0.233115 0.081693
v -0.253765 0.241304 0.275778
v -0.253717 0.283230 0.291347
v -0.253765 0.241304 -0.275591
v 0.253500 -0.233115 -0.024851
v -0.260023 -0.197294 0.275783
v -0.260023 0.241309 -0.275595
v 0.115630 -0.233115 0.081693
v -0.260023 0.241309 0.275783
v -0.260023 -0.197294 -0.275595
vt 1.0 0.0
vt -0.0 1.0
vt -0.0 0.0
vt 1.0 1.0
vt 1.0 1.0
vt 0.0 0.0
vt 1.0 0.0
v 0.291347 -0.226807 -0.291344
vt 0.0 1.0
v 0.291347 -0.226808 0.291344
vn 1.000000 0.000000 0.000000
vt 1.0 0.0
vt 0.0 1.0
vt 0.0 0.0
vt 1.0 1.0
v 0.253469 -0.226812 -0.024820
vt 1.0 1.0
vt 0.930551 0.542621
vt 1.0 0.0
v 0.115656 -0.226807 -0.024825
vt -0.0 1.0
vt 0.677677 0.542621
v 0.253471 -0.226809 0.081664
vt 0.930551 0.359825
vt -0.0 0.0
v 0.115661 -0.226812 0.081662
vt 0.677677 0.359825
v -0.253714 -0.197269 0.275757
vt 0.0 -0.0
vt 0.150848 0.012795
vt 0.154989 -0.0
v -0.253720 -0.197263 -0.275564
vt 0.0 0.220802
vt 0.004191 0.012795
v -0.253717 0.241280 0.275754
vt 0.150848 0.202652
vt 0.154989 0.220802
v -0.253717 0.241280 -0.275567
vt 0.004191 0.202652
v -0.259989 -0.197261 0.275749
vt 1.0 0.012795
vt 0.998333 0.012795
vt 1.0 0.202652
v -0.259989 0.241275 0.275749
vt 0.998333 0.202652
v -0.259989 0.241275 -0.275562
vt 1.0 0.761322
vt 0.998333 1.0
vt 0.998333 0.761322
v -0.259989 -0.197261 -0.275562
v 0.115664 -0.233082 -0.024817
v 0.253466 -0.233082 -0.024817
v 0.253466 -0.233082 0.081659
v 0.115664 -0.233082 0.081659
vt 0.0 0.003033
vt 0.026626 0.0
vt 0.026626 0.003033
vt 0.965542 1.0
vt 1.0 0.948434
vt 0.965542 0.948434
g mesh1-geometry-0
usemtl Material.e6a6298ff53efe4150e122edc010a6a6
f 1/1/1 2/2/1 3/3/1
f 2/2/1 1/1/1 4/4/1
g mesh1-geometry-1
usemtl Material.90b00bf69165eda831fe702671104217
f 5//2 6//2 7//2
f 8//2 7//2 6//2
f 5//3 9//3 6//3
f 5//4 7//4 9//4
f 8//5 10//5 7//5
f 8//6 6//6 10//6
f 11//3 6//3 9//3
f 12//4 9//4 7//4
f 12//5 7//5 10//5
f 11//6 10//6 6//6
f 13//7 14//7 15//7
f 11//8 9//8 16//8
f 9//3 17//3 11//3
f 10//8 18//8 12//8
f 14//7 13//7 19//7
f 20//8 16//8 9//8
f 21//9 13//9 11//9
f 21//3 11//3 17//3
f 9//10 22//10 17//10
f 22//10 9//10 19//10
f 12//8 23//8 20//8
f 18//8 23//8 12//8
f 18//8 10//8 24//8
f 16//8 20//8 10//8
f 13//11 25//11 19//11
f 13//9 21//9 26//9
f 22//1 21//1 17//1
f 27//2 28//2 29//2
f 19//11 30//11 22//11
f 31//8 20//8 23//8
f 23//6 18//6 32//6
f 24//8 10//8 31//8
f 24//3 33//3 18//3
f 31//8 10//8 20//8
f 25//11 13//11 34//11
f 19//11 25//11 30//11
f 21//1 22//1 26//1
f 35//2 29//2 28//2
f 26//11 34//11 13//11
f 36//11 22//11 30//11
f 23//5 32//5 31//5
f 37//6 32//6 18//6
f 24//4 31//4 33//4
f 37//3 18//3 33//3
f 34//10 38//10 25//10
f 38//1 30//1 25//1
f 34//11 26//11 22//11
f 34//11 22//11 36//11
f 30//9 39//9 36//9
f 40//5 31//5 32//5
f 37//8 33//8 32//8
f 40//4 33//4 31//4
f 38//10 34//10 41//10
f 30//1 38//1 42//1
f 39//7 34//7 36//7
f 39//9 30//9 42//9
f 40//8 32//8 33//8
f 34//7 39//7 41//7
f 39//11 38//11 41//11
f 38//11 39//11 42//11
g mesh1-geometry-2
usemtl Material.d5d1072ed1aaaf7e448826b15bd6f800
f 2/5/11 14/6/11 3/7/11
f 14/6/11 2/5/11 15/8/11
g mesh1-geometry-3
usemtl Material.13f2c38e0baa377d29c88e4555062c7e
f 14/9/9 1/10/9 3/11/9
f 1/10/9 14/9/9 43/12/9
g mesh1-geometry-4
usemtl Material.298af51409e2b46f4665aefae04f07ef
f 1/13/12 44/14/12 4/15/12
f 44/14/12 1/13/12 43/16/12
g mesh1-geometry-5
usemtl Material.18c3f84163fc6a96f479950cd359f929
f 44/9/10 2/10/10 4/11/10
f 2/10/10 44/9/10 15/12/10
g mesh1-geometry-6
usemtl Material.254f1f4763d6f261d700973a547d7172
f 15/5/11 27/6/11 14/7/11
f 27/6/11 15/5/11 28/8/11
g mesh1-geometry-7
usemtl Material.adfca2fb27c1e89c3ee819ce9372e850
f 43/17/7 45/18/7 44/19/7
f 19/20/7 46/21/7 43/17/7
f 43/17/7 46/21/7 45/18/7
f 47/22/7 44/19/7 45/18/7
f 44/19/7 19/20/7 13/23/7
f 46/21/7 19/20/7 48/24/7
f 48/24/7 44/19/7 47/22/7
f 19/20/7 44/19/7 48/24/7
g mesh1-geometry-8
usemtl Material.0476222b4798008c757584372eb4c76f
f 15/11/4 16/10/4 28/9/4
f 35/12/4 28/9/4 16/10/4
g mesh1-geometry-9
usemtl Material.10940051f67f89958bbfb7162017ab7a
f 27/12/6 29/9/6 14/10/6
f 20/11/6 14/10/6 29/9/6
g mesh1-geometry-10
usemtl Material.985ac0fcb7b6961d1a1011989e662928
f 20/25/3 49/26/3 16/27/3
f 29/28/3 50/29/3 20/25/3
f 51/30/3 16/27/3 49/26/3
f 50/29/3 49/26/3 20/25/3
f 16/27/3 51/30/3 35/31/3
f 50/29/3 29/28/3 52/32/3
f 49/33/6 53/34/6 51/35/6
f 29/28/3 35/31/3 51/30/3
f 52/32/3 29/28/3 51/30/3
f 54/36/6 51/35/6 53/34/6
f 52/9/8 51/37/8 55/38/8
f 54/39/8 55/38/8 51/37/8
f 54/30/3 53/26/3 55/32/3
f 56/29/3 55/32/3 53/26/3
g mesh1-geometry-11
usemtl Material.3ac6031be7abcb165f3b2ce0a1a4e393
f 57//10 45//10 46//10
f 48//12 57//12 46//12
f 45//10 57//10 58//10
f 59//9 48//9 47//9
f 49//2 50//2 53//2
f 52//4 55//4 50//4
f 57//12 48//12 60//12
f 48//9 59//9 60//9
f 56//2 53//2 50//2
f 56//4 50//4 55//4
g mesh1-geometry-12
usemtl Material.fab80809111340f2457f5eb8a594f29a
f 45/40/11 59/41/11 47/42/11
f 59/41/11 45/40/11 58/10/11
f 57/43/7 59/44/7 58/9/7
f 59/44/7 57/43/7 60/45/7
