# created by Ethan Wu and Zhan isaac Ling
mtllib model.mtl
v -0.213243 -0.214375 -0.349481
v -0.206325 -0.213204 0.349481
v -0.213238 -0.214368 0.349491
vn 0.168134 -0.985764 0.000000
v -0.206321 -0.213198 -0.349481
v -0.213215 -0.214335 0.349434
v -0.206349 -0.213149 0.349445
v -0.213211 -0.214328 -0.349439
vn -0.168134 0.985764 0.000000
v -0.206353 -0.213154 -0.349438
v -0.279253 0.214326 0.349438
vn 0.000000 0.000000 -1.000000
v -0.286177 0.213185 0.349477
vn -0.985764 -0.168134 0.000000
v -0.286116 0.213166 0.349449
vn 0.985764 0.168134 0.000000
v -0.279255 0.214335 -0.349428
vn 0.000000 0.000000 1.000000
v -0.206362 -0.199198 0.349488
vn -1.000000 0.000000 0.000000
v -0.206312 -0.199198 0.349438
vn 1.000000 0.000000 0.000000
v 0.286176 -0.213197 0.349484
vn 0.000000 -1.000000 0.000000
v -0.286165 0.213201 -0.349474
v -0.286127 0.213150 -0.349445
v -0.206362 -0.199198 -0.349484
v -0.206312 -0.199198 -0.349435
v 0.286136 -0.213156 0.349443
vn 0.000000 0.000000 -1.000000
v 0.286176 -0.213197 -0.349481
v -0.279261 0.214375 0.349488
vn -0.168134 0.985764 0.000000
vn 0.168134 -0.985764 0.000000
v -0.279260 0.214366 -0.349491
v 0.286131 -0.207793 -0.349435
vn 0.000000 0.000000 1.000000
v 0.286131 -0.207793 0.349438
v 0.286136 -0.213156 -0.349439
vn -1.000000 0.000000 0.000000
vn 0.000000 0.000000 1.000000
vn 0.000000 0.000000 -1.000000
v -0.213262 -0.214357 -0.349460
v -0.213262 -0.214357 0.349463
v -0.286181 0.213169 -0.349460
vn -0.985761 -0.168152 0.000000
vt 0.0 0.0
vt 1.0 0.0
vt 0.0 1.0
v -0.213192 -0.214345 -0.349460
v -0.286112 0.213181 -0.349460
v -0.213192 -0.214345 0.349463
vn 0.985761 0.168152 0.000000
v -0.286181 0.213169 0.349463
vt 1.0 1.0
v -0.286112 0.213181 0.349463
vn 0.000000 1.000000 0.000000
v 0.286181 -0.207793 -0.349484
vn 1.000000 0.000000 0.000000
v 0.286181 -0.207793 0.349488
vn 0.000000 0.000000 1.000000
vn 0.000000 0.000000 -1.000000
v -0.206336 -0.199163 -0.349460
v -0.206336 -0.199163 0.349463
v 0.286082 -0.207758 -0.349460
vn 0.017441 0.999848 0.000000
v -0.206338 -0.199233 -0.349460
v 0.286081 -0.207828 -0.349460
v -0.206338 -0.199233 0.349463
vn -0.017441 -0.999848 0.000000
v 0.286082 -0.207758 0.349463
v 0.286081 -0.207828 0.349463
v -0.206302 -0.199192 0.349463
v -0.206302 -0.199192 -0.349460
v -0.279223 0.214356 0.349463
vn 0.984805 0.173662 0.000000
v -0.206371 -0.199204 0.349463
v -0.279291 0.214344 0.349463
v -0.206371 -0.199204 -0.349460
vn -0.984805 -0.173662 0.000000
v -0.279223 0.214356 -0.349460
v -0.279291 0.214344 -0.349460
v -0.215805 -0.145301 0.303772
v -0.215805 -0.145301 -0.293781
v -0.271856 0.172580 0.303772
vn 0.984805 0.173662 0.000000
vt 0.0 0.0
vt 1.0 0.0
vt 0.0 1.0
v -0.215874 -0.145313 0.303772
v -0.271925 0.172568 0.303772
v -0.215874 -0.145313 -0.293781
vn -0.984805 -0.173662 0.000000
v -0.271856 0.172580 -0.293781
vt 1.0 1.0
v -0.271925 0.172568 -0.293781
g mesh1-geometry-0
usemtl Material.57774a50243e5d429f3a4ea105ec3930
f 1//1 2//1 3//1
f 2//1 1//1 4//1
f 5//2 6//2 7//2
f 8//2 7//2 6//2
f 6//3 5//3 9//3
f 10//4 1//4 3//4
f 5//5 7//5 11//5
f 8//6 12//6 7//6
f 13//7 8//7 6//7
f 2//8 4//8 14//8
f 4//9 15//9 2//9
f 11//3 9//3 5//3
f 1//4 10//4 16//4
f 17//5 11//5 7//5
f 17//6 7//6 12//6
f 8//7 13//7 18//7
f 19//8 14//8 4//8
f 6//10 14//10 20//10
f 15//9 4//9 21//9
f 22//11 16//11 10//11
f 11//12 17//12 9//12
f 16//11 22//11 23//11
f 12//12 9//12 17//12
f 19//13 8//13 24//13
f 25//10 20//10 14//10
f 26//13 24//13 8//13
f 26//14 20//14 24//14
f 25//14 24//14 20//14
g mesh1-geometry-1
usemtl Material.90b00bf69165eda831fe702671104217
f 22//15 3//15 2//15
f 1//16 23//16 4//16
f 3//15 22//15 10//15
f 23//16 1//16 16//16
g mesh1-geometry-2
usemtl Material.af091107ed61d247d58c8b7c86f92fa6
f 27/1/17 28/2/17 29/3/17
f 30/1/18 31/3/18 32/2/18
f 33/4/17 29/3/17 28/2/17
f 34/4/18 32/2/18 31/3/18
g mesh1-geometry-3
usemtl Material.b2cdaf4394d1a4f850458878b81c7fa1
f 6//19 20//19 8//19
f 26//19 8//19 20//19
f 35//20 15//20 21//20
f 15//20 35//20 36//20
g mesh1-geometry-4
usemtl Material.dc7a3ca9ca091ddbf48733c3a604f557
f 15//21 13//21 2//21
f 35//22 4//22 18//22
f 13//21 15//21 36//21
f 4//22 35//22 21//22
g mesh1-geometry-5
usemtl Material.848e5e55d2d72809c19791c39104d685
f 37/4/23 38/3/23 39/2/23
f 40/4/24 41/2/24 42/3/24
f 43/1/23 39/2/23 38/3/23
f 44/1/24 42/3/24 41/2/24
g mesh1-geometry-6
usemtl Material.c2bfc677b3ce5e8066159572d8e97c46
f 45/1/25 46/2/25 47/3/25
f 48/1/26 49/3/26 50/2/26
f 51/4/25 47/3/25 46/2/25
f 52/4/26 50/2/26 49/3/26
g mesh2-geometry-0
usemtl Material.55b72955e01db4fc1e9ef2a8a70b8b6a
f 53/5/27 54/6/27 55/7/27
f 56/5/28 57/7/28 58/6/28
f 59/8/27 55/7/27 54/6/27
f 60/8/28 58/6/28 57/7/28
