# created by Ethan Wu and Zhan isaac Ling
mtllib model.mtl
v 0.106871 -0.278066 -0.209709
v 0.009974 -0.256126 0.209724
v 0.106871 -0.278066 0.209709
vn 0.221187 0.975231 0.000000
vt 1.0 0.0
vt 0.0 1.0
vt 0.0 0.0
v 0.010003 -0.256112 0.209652
v 0.010000 -0.256092 -0.209715
vt 1.0 1.0
v 0.106819 -0.278107 0.209667
v 0.106819 -0.278107 -0.209667
vn -0.221187 -0.975231 0.000000
v 0.009978 -0.256146 -0.209661
v 0.106822 -0.288049 0.209665
vn 0.000000 0.000000 -1.000000
vn -1.000000 0.000000 0.000000
v -0.106823 -0.288058 -0.209654
vn 0.000000 0.000000 1.000000
v 0.000004 -0.256147 0.209660
vn 0.000000 -1.000000 0.000000
v 0.009963 -0.241154 -0.209662
v -0.106828 -0.288062 0.209651
v 0.106822 -0.288049 -0.209665
v 0.000004 -0.256133 -0.209651
v -0.009960 -0.241152 0.209656
vn 0.000000 0.000000 -1.000000
v 0.009973 -0.241173 0.209672
vn 0.000000 0.000000 1.000000
vn 0.000000 1.000000 0.000000
v -0.009963 -0.256143 -0.209663
v -0.009969 -0.256145 0.209661
v -0.009968 -0.241167 -0.209662
v -0.106804 -0.278101 0.209673
vn 1.000000 0.000000 0.000000
v -0.106816 -0.278116 -0.209673
vn 1.000000 0.000000 0.000000
vn 0.221187 -0.975231 0.000000
v 0.106868 -0.288094 0.209711
vn 0.000000 0.000000 1.000000
vt -1.41523 0.110508
vt -1.29578 0.061364
vt -1.29578 0.076722
v -0.106851 -0.288085 -0.209722
vn 0.000000 0.000000 -1.000000
vt -4.61347 0.081806
vt -4.34994 0.066449
vt -4.49402 0.115592
v -0.106847 -0.288080 0.209725
vt -1.55931 0.061364
v 0.106868 -0.288094 -0.209711
vt -4.61347 0.066449
v 0.000004 -0.256104 -0.209724
vt -4.48171 0.115592
v 0.000004 -0.256091 0.209716
vt -1.42755 0.110508
v -0.010002 -0.241131 0.209720
vn 0.000000 0.000000 1.000000
vt -1.26501 0.108141
vt -1.29057 0.136988
vt -1.27779 0.108141
v 0.010015 -0.241128 -0.209714
vn 0.000000 0.000000 -1.000000
vt -4.39418 0.108141
vt -4.40695 0.136988
vt -4.40695 0.108141
v -0.010000 -0.256094 -0.209713
vt -4.46939 0.115592
vn 0.000000 1.000000 0.000000
vt 0.230824 2.46283
vt 0.767524 2.48206
vt 0.230824 2.48206
v -0.009994 -0.256093 0.209715
vt -1.43986 0.110508
v 0.010005 -0.241109 0.209704
vt -1.26501 0.136988
vt -1.29057 0.108141
v -0.009995 -0.241115 -0.209714
vt 0.767524 2.50129
vt 0.230824 2.50129
vt -4.3814 0.136988
v -0.106871 -0.278071 0.209703
vn -1.000000 0.000000 0.000000
vt 0.767524 0.065831
vt 0.230824 0.046599
vt 0.767524 0.046599
v -0.106859 -0.278057 -0.209703
vt -4.34994 0.081806
vt -4.3814 0.108141
vt 0.767524 2.46283
vt -1.55931 0.076722
vn -1.000000 0.000000 0.000000
vt 0.76141 0.136988
vt 0.239462 0.108435
vt 0.76141 0.108435
vt 0.230824 0.065831
vt 0.239462 0.136988
vn 1.000000 0.000000 0.000000
vt 0.230824 0.046599
vt 0.767524 0.065831
vt 0.230824 0.065831
vt 0.767524 0.046599
vt 0.767524 2.46283
vt 0.230824 2.48206
vt 0.230824 2.46283
vt 0.767524 2.48206
vt 0.76141 0.136988
vt 0.239462 0.108435
vt 0.76141 0.108435
vt 0.239462 0.136988
vn 0.000000 -1.000000 0.000000
vn -0.221187 0.975231 0.000000
vt 0.0 0.0
vt 1.0 1.0
vt 0.0 1.0
v 0.049952 0.288094 0.394437
v -0.049945 0.288094 -0.394437
v -0.049945 0.288094 0.394437
vn 0.000000 1.000000 0.000000
vt -0.014642 0.947825
vt -0.304856 0.902019
vt -0.014642 0.902019
v 0.049952 0.288094 -0.394437
vt -0.304856 0.947825
v -0.049945 -0.241164 0.394437
vn -1.000000 0.000000 0.000000
vt -0.923505 0.870259
vt -0.241517 0.299764
vt -0.241516 0.870258
vn 0.000000 0.000000 1.000000
vt -0.05049 0.263429
vt -0.013754 0.945033
vt -0.05049 0.945033
v 0.049952 -0.241164 -0.394437
vn 1.000000 0.000000 0.000000
vt 0.014139 0.952453
vt 0.986969 0.13851
vt 0.986969 0.952453
vn 0.000000 0.000000 -1.000000
vt 1.01555 0.267873
vt 1.05228 0.949478
vt 1.01555 0.949478
v -0.049945 -0.241164 -0.394437
vt -0.923506 0.299764
v 0.049952 -0.241164 0.394437
vt -0.013754 0.263429
vt 0.014139 0.13851
vt 1.05228 0.267873
vn 0.000000 -1.000000 0.000000
vt -0.013514 0.944533
vt -0.391322 0.884902
vt -0.013514 0.884902
vt -0.391322 0.944533
v -0.049899 0.288049 0.394390
v -0.049899 0.288049 -0.394390
v 0.049907 0.288049 0.394390
vn 0.000000 -1.000000 0.000000
v 0.049907 0.288049 -0.394390
v -0.049899 -0.241119 0.394390
vn 1.000000 0.000000 0.000000
vn 0.000000 0.000000 -1.000000
v 0.049907 -0.241119 -0.394390
vn -1.000000 0.000000 0.000000
vn 0.000000 0.000000 1.000000
v -0.049899 -0.241119 -0.394390
v 0.049907 -0.241119 0.394390
vn 0.000000 1.000000 0.000000
g mesh1-geometry-0
usemtl Material.e6a6298ff53efe4150e122edc010a6a6
f 1/1/1 2/2/1 3/3/1
f 4/2/1 1/1/1 5/4/1
g mesh1-geometry-1
usemtl Material.90b00bf69165eda831fe702671104217
f 6//2 4//2 7//2
f 8//2 7//2 2//2
f 6//3 9//3 4//3
f 6//4 7//4 9//4
f 8//5 10//5 7//5
f 2//6 11//6 8//6
f 8//4 2//4 12//4
f 13//3 4//3 9//3
f 14//4 9//4 7//4
f 14//5 7//5 10//5
f 15//5 10//5 8//5
f 15//6 8//6 11//6
f 11//3 4//3 13//3
f 11//7 16//7 4//7
f 17//4 12//4 2//4
f 8//8 12//8 15//8
f 13//9 9//9 10//9
f 14//9 10//9 9//9
f 18//5 10//5 15//5
f 15//6 11//6 18//6
f 19//3 11//3 13//3
f 17//7 4//7 16//7
f 19//7 16//7 11//7
f 12//6 17//6 20//6
f 20//8 15//8 12//8
f 13//10 10//10 21//10
f 22//5 10//5 18//5
f 18//8 15//8 20//8
f 19//6 18//6 11//6
f 21//3 19//3 13//3
f 16//6 20//6 17//6
f 19//11 18//11 16//11
f 22//10 21//10 10//10
f 18//12 19//12 22//12
f 20//11 16//11 18//11
f 21//12 22//12 19//12
g mesh1-geometry-2
usemtl Material.adfca2fb27c1e89c3ee819ce9372e850
f 2/5/13 23/6/13 3/7/13
f 1/8/14 24/9/14 5/10/14
f 23/6/13 2/5/13 25/11/13
f 24/9/14 1/8/14 26/12/14
f 5/10/14 24/9/14 27/13/14
f 25/11/13 2/5/13 28/14/13
f 2/15/15 29/16/15 28/17/15
f 27/18/16 30/19/16 5/20/16
f 27/13/14 24/9/14 31/21/14
f 31/22/17 28/23/17 27/24/17
f 25/11/13 28/14/13 32/25/13
f 29/16/15 2/15/15 33/26/15
f 28/17/15 29/16/15 32/27/15
f 34/22/17 33/28/17 30/29/17
f 30/19/16 27/18/16 34/30/16
f 35/31/18 24/32/18 25/33/18
f 31/21/14 24/9/14 36/34/14
f 34/30/16 27/18/16 31/35/16
f 28/23/17 31/22/17 32/36/17
f 25/11/13 32/25/13 35/37/13
f 33/28/17 34/22/17 29/36/17
f 29/38/19 31/39/19 32/40/19
f 24/32/18 35/31/18 36/41/18
f 31/39/19 29/38/19 34/42/19
g mesh1-geometry-3
usemtl Material.3cdef1ad1aff8e3b0d11292d6ab4cb74
f 23/43/20 1/44/20 3/45/20
f 1/44/20 23/43/20 26/46/20
g mesh1-geometry-4
usemtl Material.24241233a67157a147b8989af016d56d
f 5/47/17 28/48/17 4/49/17
f 28/48/17 5/47/17 27/50/17
g mesh1-geometry-5
usemtl Material.5cf14288ffd6e4e3c184c197b10e85f7
f 30/51/20 4/52/20 5/53/20
f 4/52/20 30/51/20 33/54/20
g mesh1-geometry-6
usemtl Material.b2cdaf4394d1a4f850458878b81c7fa1
f 24//21 23//21 25//21
f 23//21 24//21 26//21
g mesh1-geometry-7
usemtl Material.18c3f84163fc6a96f479950cd359f929
f 36/55/22 32/56/22 31/57/22
f 32/56/22 36/55/22 35/1/22
g mesh2-geometry-0
usemtl Material.1775a154f13de10819aa9b2d105a410c
f 37/58/23 38/59/23 39/60/23
f 38/59/23 37/58/23 40/61/23
f 38/62/24 41/63/24 39/64/24
f 41/65/25 37/66/25 39/67/25
f 37/68/26 42/69/26 40/70/26
f 42/71/27 38/72/27 40/73/27
f 41/63/24 38/62/24 43/74/24
f 37/66/25 41/65/25 44/75/25
f 42/69/26 37/68/26 44/76/26
f 38/72/27 42/71/27 43/77/27
f 42/78/28 41/79/28 43/80/28
f 41/79/28 42/78/28 44/81/28
g mesh2-geometry-1
usemtl Material.90b00bf69165eda831fe702671104217
f 45//29 46//29 47//29
f 48//29 47//29 46//29
f 45//30 49//30 46//30
f 45//31 47//31 49//31
f 48//32 50//32 47//32
f 48//33 46//33 50//33
f 51//30 46//30 49//30
f 52//31 49//31 47//31
f 52//32 47//32 50//32
f 51//33 50//33 46//33
f 51//34 49//34 50//34
f 52//34 50//34 49//34
