# created by Ethan Wu and Zhan isaac Ling
mtllib model.mtl
v -0.045902 -0.354301 0.171317
v 0.045909 -0.354294 0.171326
v 0.000002 -0.354287 0.177375
vn 0.000000 -1.000000 0.000000
v 0.088684 -0.354301 0.153600
v 0.000002 -0.354259 0.177309
v 0.045894 -0.354251 0.171272
v -0.045893 -0.354242 0.171281
vn 0.000000 1.000000 0.000000
v 0.088663 -0.354243 0.153565
v 0.000002 0.354246 0.237336
vn 0.257897 -0.084337 0.962485
vn 0.000000 -0.084337 0.996437
v 0.000002 0.354297 0.237288
vn 0.000000 0.084337 -0.996437
vn -0.257897 0.084337 -0.962485
v -0.061426 0.354250 0.229252
vn -0.257897 -0.084337 0.962485
v -0.061412 0.354294 0.229199
vn 0.257897 0.084337 -0.962485
v -0.088683 -0.354294 0.153607
v -0.088655 -0.354251 0.153558
v 0.061429 0.354246 0.229249
vn 0.498219 -0.084337 0.862940
v 0.061417 0.354297 0.229203
vn -0.498219 0.084337 -0.862940
vn -0.498219 -0.084337 0.862940
vn 0.498219 0.084337 -0.862940
v -0.125412 -0.354301 0.125414
v -0.125383 -0.354243 0.125385
v 0.118670 0.354246 0.205539
v 0.118647 0.354297 0.205497
v 0.064557 0.354245 0.240920
v 0.064568 0.354301 0.240963
v -0.064552 0.354245 0.240920
v -0.064564 0.354301 0.240963
v -0.118666 0.354246 0.205539
v -0.118642 0.354297 0.205497
vn -0.704587 -0.084337 0.704588
vn 0.704588 0.084337 -0.704587
v 0.125424 -0.354290 0.125421
v 0.125381 -0.354254 0.125378
vn 0.704588 -0.084337 0.704588
vn -0.704588 0.084337 -0.704588
v 0.124710 0.354248 0.216000
v 0.124736 0.354297 0.216044
v -0.124706 0.354248 0.216000
v -0.124732 0.354297 0.216044
v -0.167820 0.354246 0.167822
v -0.167786 0.354297 0.167788
v 0.153603 -0.354301 0.088681
v 0.153568 -0.354243 0.088661
v 0.167821 0.354242 0.167818
v 0.167794 0.354301 0.167792
v 0.176365 0.354248 0.176363
v 0.176402 0.354297 0.176400
v 0.000002 0.354267 0.249406
v 0.000002 0.354279 0.249476
v 0.094567 -0.354270 0.163791
vn -0.498201 0.084764 -0.862909
vn -0.257888 0.084764 -0.962449
v 0.094602 -0.354276 0.163852
vn 0.498201 -0.084764 0.862909
vn 0.257888 -0.084764 0.962449
v -0.094563 -0.354270 0.163791
vn 0.257888 0.084764 -0.962449
vn 0.498201 0.084764 -0.862908
v -0.094598 -0.354276 0.163852
vn -0.498201 -0.084764 0.862909
vn -0.257888 -0.084764 0.962449
v -0.176365 0.354243 0.176367
v -0.176394 0.354301 0.176395
v -0.153605 -0.354294 0.088685
vn -0.862940 -0.084337 0.498219
v -0.153557 -0.354251 0.088657
vn 0.862940 0.084337 -0.498219
v 0.205541 0.354246 0.118668
vn 0.862940 -0.084337 0.498219
v 0.205500 0.354297 0.118644
vn -0.862940 0.084337 -0.498219
v 0.133737 -0.354270 0.133735
vn -0.704562 0.084764 -0.704562
v 0.133787 -0.354276 0.133785
vn 0.704562 -0.084764 0.704562
v 0.048952 -0.354270 0.182685
vn 0.000000 0.084764 -0.996401
v 0.048971 -0.354276 0.182753
vn 0.000000 -0.084764 0.996401
v -0.048948 -0.354270 0.182685
v -0.048967 -0.354276 0.182753
v -0.133733 -0.354270 0.133735
vn 0.704562 0.084764 -0.704562
v -0.133783 -0.354276 0.133785
vn -0.704562 -0.084764 0.704562
v -0.215998 0.354248 0.124707
v -0.216043 0.354297 0.124733
v -0.205537 0.354246 0.118668
v -0.205496 0.354297 0.118644
v -0.171320 -0.354297 0.045905
v -0.171274 -0.354246 0.045893
v 0.229251 0.354246 0.061427
vn 0.962485 -0.084337 0.257897
v 0.229205 0.354297 0.061414
vn -0.962485 0.084337 -0.257897
v 0.216002 0.354248 0.124707
v 0.216047 0.354297 0.124733
v 0.163794 -0.354270 0.094565
vn -0.862909 0.084764 -0.498201
v 0.163855 -0.354276 0.094600
vn 0.862909 -0.084764 0.498201
v 0.000002 -0.354270 0.189129
v 0.000002 -0.354276 0.189200
vn 0.862909 0.084764 -0.498201
vn -0.862908 -0.084764 0.498201
vn -0.962485 -0.084337 0.257897
vn 0.962485 0.084337 -0.257897
v 0.171325 -0.354297 0.045905
v 0.171279 -0.354246 0.045893
v 0.240918 0.354248 0.064553
v 0.240969 0.354297 0.064566
v -0.163789 -0.354270 0.094565
v -0.163850 -0.354276 0.094600
v -0.240914 0.354248 0.064553
v -0.240965 0.354297 0.064566
v -0.229247 0.354246 0.061427
v -0.229201 0.354297 0.061414
v -0.177364 -0.354297 -0.000000
v -0.177316 -0.354246 -0.000000
v 0.237343 0.354251 -0.000000
vn 0.996437 -0.084337 0.000000
v 0.237286 0.354294 -0.000000
vn -0.996437 0.084337 0.000000
v 0.249421 0.354245 -0.000000
v 0.249465 0.354301 -0.000000
v 0.182687 -0.354270 0.048950
vn -0.962449 0.084764 -0.257888
v 0.182756 -0.354276 0.048968
vn 0.962449 -0.084764 0.257888
vn 0.962449 0.084764 -0.257888
vn -0.962449 -0.084764 0.257888
vn -0.996437 -0.084337 0.000000
vn 0.996437 0.084337 0.000000
v 0.177369 -0.354297 -0.000000
v 0.177320 -0.354246 -0.000000
v 0.189132 -0.354270 -0.000000
vn -0.996401 0.084764 0.000000
v 0.189203 -0.354276 -0.000000
vn 0.996401 -0.084764 0.000000
v -0.182683 -0.354270 0.048950
v -0.182751 -0.354276 0.048968
v -0.249413 0.354248 -0.000000
v -0.249465 0.354297 -0.000000
v -0.237334 0.354246 -0.000000
v -0.237286 0.354297 -0.000000
v -0.171320 -0.354297 -0.045906
v -0.171274 -0.354246 -0.045894
v 0.229251 0.354246 -0.061428
vn 0.962485 -0.084337 -0.257897
v 0.229205 0.354297 -0.061415
vn -0.962485 0.084337 0.257897
v 0.182687 -0.354270 -0.048951
vn -0.962449 0.084764 0.257888
v 0.182756 -0.354276 -0.048969
vn 0.962449 -0.084764 -0.257888
vn 0.996401 0.084764 0.000000
vn -0.996401 -0.084764 0.000000
vn -0.962485 -0.084337 -0.257897
vn 0.962485 0.084337 0.257897
v 0.171325 -0.354297 -0.045906
v 0.171279 -0.354246 -0.045894
v 0.240918 0.354248 -0.064554
v 0.240969 0.354297 -0.064567
v -0.189128 -0.354270 -0.000000
v -0.189198 -0.354276 -0.000000
v -0.240918 0.354245 -0.064555
v -0.240961 0.354301 -0.064566
v -0.229251 0.354251 -0.061429
v -0.229197 0.354294 -0.061414
v -0.153599 -0.354301 -0.088682
v -0.153563 -0.354243 -0.088661
v 0.205541 0.354246 -0.118668
vn 0.862940 -0.084337 -0.498219
v 0.205500 0.354297 -0.118644
vn -0.862940 0.084337 0.498219
v 0.163794 -0.354270 -0.094565
vn -0.862908 0.084764 0.498201
v 0.163855 -0.354276 -0.094601
vn 0.862909 -0.084764 -0.498201
vn 0.962449 0.084764 0.257888
vn -0.962449 -0.084764 -0.257888
vn -0.862940 -0.084337 -0.498219
vn 0.862940 0.084337 0.498219
v 0.153609 -0.354294 -0.088686
v 0.153560 -0.354251 -0.088657
v 0.216002 0.354248 -0.124708
v 0.216047 0.354297 -0.124734
v -0.182683 -0.354270 -0.048951
v -0.182751 -0.354276 -0.048969
v -0.205537 0.354246 -0.118668
v -0.205496 0.354297 -0.118644
v 0.125416 -0.354301 -0.125415
v 0.125388 -0.354243 -0.125386
v 0.167824 0.354246 -0.167823
vn 0.704588 -0.084337 -0.704587
v 0.167790 0.354297 -0.167789
vn -0.704587 0.084337 0.704588
v 0.133737 -0.354270 -0.133735
vn -0.704562 0.084764 0.704562
v 0.133787 -0.354276 -0.133785
vn 0.704562 -0.084764 -0.704562
v -0.215998 0.354248 -0.124708
vn 0.862909 0.084764 0.498201
v -0.216043 0.354297 -0.124734
vn -0.862909 -0.084764 -0.498201
v -0.125419 -0.354290 -0.125422
vn -0.704588 -0.084337 -0.704588
v -0.125376 -0.354254 -0.125379
vn 0.704588 0.084337 0.704588
v 0.176369 0.354243 -0.176367
v 0.176398 0.354301 -0.176396
v -0.163789 -0.354270 -0.094565
v -0.163850 -0.354276 -0.094601
v -0.167816 0.354242 -0.167819
v -0.167790 0.354301 -0.167792
v -0.088679 -0.354301 -0.153601
v -0.088659 -0.354243 -0.153566
v 0.118670 0.354246 -0.205540
vn 0.498219 -0.084337 -0.862940
v 0.118647 0.354297 -0.205498
vn -0.498219 0.084337 0.862940
v 0.124710 0.354248 -0.216000
vn -0.498201 0.084764 0.862909
v 0.124736 0.354297 -0.216045
vn 0.498201 -0.084764 -0.862908
v -0.176361 0.354248 -0.176364
vn 0.704562 0.084764 0.704562
v -0.176398 0.354297 -0.176400
vn -0.704562 -0.084764 -0.704562
v -0.118666 0.354246 -0.205540
vn -0.498219 -0.084337 -0.862940
v -0.118642 0.354297 -0.205498
vn 0.498219 0.084337 0.862940
v 0.088687 -0.354294 -0.153608
v 0.088659 -0.354251 -0.153559
v 0.094567 -0.354270 -0.163792
v 0.094602 -0.354276 -0.163853
v -0.133733 -0.354270 -0.133735
v -0.133783 -0.354276 -0.133785
v -0.061425 0.354246 -0.229250
vn -0.257897 -0.084337 -0.962485
v -0.061413 0.354297 -0.229203
vn 0.257897 0.084337 0.962485
v 0.045908 -0.354297 -0.171323
v 0.045895 -0.354246 -0.171277
v 0.061429 0.354246 -0.229250
vn 0.257897 -0.084337 -0.962485
v 0.061417 0.354297 -0.229203
vn -0.257897 0.084337 0.962485
v 0.064557 0.354245 -0.240921
vn -0.257888 0.084764 0.962449
v 0.064568 0.354301 -0.240963
vn 0.257888 -0.084764 -0.962449
v -0.124706 0.354248 -0.216000
vn 0.498201 0.084764 0.862909
v -0.124732 0.354297 -0.216045
vn -0.498201 -0.084764 -0.862909
v -0.045905 -0.354294 -0.171327
v -0.045890 -0.354251 -0.171273
v 0.048952 -0.354270 -0.182686
v 0.048971 -0.354276 -0.182754
v -0.094563 -0.354270 -0.163792
v -0.094598 -0.354276 -0.163853
v 0.000002 0.354250 -0.237340
vn 0.000000 -0.084337 -0.996437
v 0.000002 0.354294 -0.237286
vn 0.000000 0.084337 0.996437
v -0.064551 0.354248 -0.240917
v -0.064565 0.354297 -0.240967
v 0.000002 -0.354290 -0.177373
v 0.000002 -0.354254 -0.177312
v 0.000002 0.354264 -0.249407
vn 0.000000 0.084764 0.996401
v 0.000002 0.354279 -0.249476
vn 0.000000 -0.084764 -0.996401
vn 0.257888 0.084764 0.962449
vn -0.257888 -0.084764 -0.962449
v 0.000002 -0.354270 -0.189130
v 0.000002 -0.354276 -0.189201
v -0.048948 -0.354270 -0.182686
v -0.048967 -0.354276 -0.182754
g mesh1-geometry-0
usemtl Material.57774a50243e5d429f3a4ea105ec3930
f 1//1 2//1 3//1
f 2//1 1//1 4//1
f 5//2 6//2 7//2
f 8//2 7//2 6//2
f 2//3 9//4 3//4
f 5//5 10//5 6//6
f 3//4 11//7 1//7
f 7//8 12//8 5//5
f 4//1 1//1 13//1
f 14//2 7//2 8//2
f 4//9 15//3 2//3
f 6//6 16//6 8//10
f 9//4 2//3 15//3
f 16//6 6//6 10//5
f 11//7 3//4 9//4
f 10//5 5//5 12//8
f 11//7 13//11 1//7
f 7//8 14//12 12//8
f 4//1 13//1 17//1
f 18//2 14//2 8//2
f 15//3 4//9 19//9
f 20//10 8//10 16//6
f 21//1 9//1 15//1
f 16//2 10//2 22//2
f 23//1 11//1 9//1
f 10//2 12//2 24//2
f 13//11 11//7 25//11
f 26//12 12//8 14//12
f 25//11 17//13 13//11
f 14//12 18//14 26//12
f 4//1 17//1 27//1
f 28//2 18//2 8//2
f 27//15 19//9 4//9
f 8//10 20//10 28//16
f 29//1 15//1 19//1
f 20//2 16//2 30//2
f 21//1 23//1 9//1
f 10//2 24//2 22//2
f 21//1 15//1 29//1
f 30//2 16//2 22//2
f 11//1 23//1 31//1
f 32//2 24//2 12//2
f 11//1 31//1 25//1
f 26//2 32//2 12//2
f 17//13 25//11 33//13
f 34//14 26//12 18//14
f 27//1 17//1 35//1
f 36//2 18//2 28//2
f 19//9 27//15 37//15
f 38//16 28//16 20//10
f 29//1 19//1 39//1
f 40//2 20//2 30//2
f 23//1 21//1 41//1
f 42//2 22//2 24//2
f 43//17 21//18 29//17
f 30//19 22//20 44//19
f 23//21 45//22 31//22
f 32//23 46//23 24//24
f 25//1 31//1 47//1
f 48//2 32//2 26//2
f 25//1 47//1 33//1
f 34//2 48//2 26//2
f 33//13 49//25 17//13
f 18//14 50//26 34//14
f 35//1 17//1 49//1
f 50//2 18//2 36//2
f 51//27 27//15 35//27
f 36//28 28//16 52//28
f 27//15 51//27 37//15
f 38//16 52//28 28//16
f 39//1 19//1 37//1
f 38//2 20//2 40//2
f 53//29 29//17 39//29
f 40//30 30//19 54//30
f 55//18 41//31 21//18
f 22//20 42//32 56//20
f 41//31 57//21 23//21
f 24//24 58//24 42//32
f 21//18 43//17 55//18
f 56//20 44//19 22//20
f 29//17 53//29 43//17
f 44//19 54//30 30//19
f 45//22 23//21 57//21
f 58//24 24//24 46//23
f 59//33 31//22 45//22
f 46//23 32//23 60//34
f 31//22 59//33 47//33
f 48//34 60//34 32//23
f 33//1 47//1 61//1
f 62//2 48//2 34//2
f 49//25 33//13 63//25
f 64//26 34//14 50//26
f 35//1 49//1 65//1
f 66//2 50//2 36//2
f 35//27 67//35 51//27
f 52//28 68//36 36//28
f 69//1 37//1 51//1
f 52//2 38//2 70//2
f 39//1 37//1 69//1
f 70//2 38//2 40//2
f 39//29 71//37 53//29
f 54//30 72//38 40//30
f 41//31 55//18 73//31
f 74//32 56//20 42//32
f 57//21 41//31 73//31
f 74//32 42//32 58//24
f 59//33 61//39 47//33
f 48//34 62//40 60//34
f 33//1 61//1 63//1
f 64//2 62//2 34//2
f 63//25 65//41 49//25
f 50//26 66//42 64//26
f 35//1 65//1 75//1
f 76//2 66//2 36//2
f 67//35 35//27 75//35
f 76//36 36//28 68//36
f 77//1 51//1 67//1
f 68//2 52//2 78//2
f 69//1 51//1 77//1
f 78//2 52//2 70//2
f 71//37 39//29 69//37
f 70//38 40//30 72//38
f 61//39 59//33 79//39
f 80//40 60//34 62//40
f 63//1 61//1 81//1
f 82//2 62//2 64//2
f 65//41 63//25 83//41
f 84//42 64//26 66//42
f 75//1 65//1 85//1
f 86//2 66//2 76//2
f 75//35 87//43 67//35
f 68//36 88//44 76//36
f 77//1 67//1 89//1
f 90//2 68//2 78//2
f 91//45 69//37 77//45
f 78//46 70//38 92//46
f 69//37 91//45 71//37
f 72//38 92//46 70//38
f 79//39 81//47 61//39
f 62//40 82//48 80//40
f 63//1 81//1 83//1
f 84//2 82//2 64//2
f 83//41 85//49 65//41
f 66//42 86//50 84//42
f 75//1 85//1 93//1
f 94//2 86//2 76//2
f 87//43 75//35 93//43
f 94//44 76//36 88//44
f 89//1 67//1 87//1
f 88//2 68//2 90//2
f 95//51 77//45 89//51
f 90//52 78//46 96//52
f 77//45 95//51 91//45
f 92//46 96//52 78//46
f 81//47 79//39 97//47
f 98//48 80//40 82//48
f 83//1 81//1 99//1
f 100//2 82//2 84//2
f 85//49 83//41 101//49
f 102//50 84//42 86//50
f 93//1 85//1 103//1
f 104//2 86//2 94//2
f 93//43 105//53 87//43
f 88//44 106//54 94//44
f 89//1 87//1 105//1
f 106//2 88//2 90//2
f 89//51 107//55 95//51
f 96//52 108//56 90//52
f 97//47 99//57 81//47
f 82//48 100//58 98//48
f 83//1 99//1 101//1
f 102//2 100//2 84//2
f 101//49 103//59 85//49
f 86//50 104//60 102//50
f 93//1 103//1 109//1
f 110//2 104//2 94//2
f 105//53 93//43 109//53
f 110//54 94//44 106//54
f 89//1 105//1 111//1
f 112//2 106//2 90//2
f 107//55 89//51 111//55
f 112//56 90//52 108//56
f 99//57 97//47 113//57
f 114//58 98//48 100//58
f 101//1 99//1 115//1
f 116//2 100//2 102//2
f 103//59 101//49 117//59
f 118//60 102//50 104//60
f 109//1 103//1 119//1
f 120//2 104//2 110//2
f 109//53 121//61 105//53
f 106//54 122//62 110//54
f 111//1 105//1 121//1
f 122//2 106//2 112//2
f 111//55 123//63 107//55
f 108//56 124//64 112//56
f 113//57 115//65 99//57
f 100//58 116//66 114//58
f 101//1 115//1 117//1
f 118//2 116//2 102//2
f 117//59 119//67 103//59
f 104//60 120//68 118//60
f 109//1 119//1 125//1
f 126//2 120//2 110//2
f 121//61 109//53 125//61
f 126//62 110//54 122//62
f 111//1 121//1 127//1
f 128//2 122//2 112//2
f 123//63 111//55 127//63
f 128//64 112//56 124//64
f 115//65 113//57 129//65
f 130//66 114//58 116//66
f 117//1 115//1 131//1
f 132//2 116//2 118//2
f 119//67 117//59 131//67
f 132//68 118//60 120//68
f 125//1 119//1 133//1
f 134//2 120//2 126//2
f 125//61 135//69 121//61
f 122//62 136//70 126//62
f 127//1 121//1 135//1
f 136//2 122//2 128//2
f 127//63 137//71 123//63
f 124//64 138//72 128//64
f 129//65 139//73 115//65
f 116//66 140//74 130//66
f 131//1 115//1 139//1
f 140//2 116//2 132//2
f 131//67 141//75 119//67
f 120//68 142//76 132//68
f 133//1 119//1 141//1
f 142//2 120//2 134//2
f 135//69 125//61 133//69
f 134//70 126//62 136//70
f 127//1 135//1 143//1
f 144//2 136//2 128//2
f 137//71 127//63 143//71
f 144//72 128//64 138//72
f 139//73 129//65 145//73
f 146//74 130//66 140//74
f 131//1 139//1 147//1
f 148//2 140//2 132//2
f 141//75 131//67 147//75
f 148//76 132//68 142//76
f 133//1 141//1 149//1
f 150//2 142//2 134//2
f 133//69 151//77 135//69
f 136//70 152//78 134//70
f 143//1 135//1 151//1
f 152//2 136//2 144//2
f 153//79 137//71 143//71
f 144//72 138//72 154//80
f 145//73 155//81 139//73
f 140//74 156//82 146//74
f 147//1 139//1 155//1
f 156//2 140//2 148//2
f 157//83 141//75 147//75
f 148//76 142//76 158//84
f 141//75 157//83 149//83
f 150//84 158//84 142//76
f 133//1 149//1 159//1
f 160//2 150//2 134//2
f 151//77 133//69 159//77
f 160//78 134//70 152//78
f 143//1 151//1 153//1
f 154//2 152//2 144//2
f 137//71 153//79 161//79
f 162//80 154//80 138//72
f 155//81 145//73 163//81
f 164//82 146//74 156//82
f 147//1 155//1 157//1
f 158//2 156//2 148//2
f 165//85 149//83 157//83
f 158//84 150//84 166//86
f 159//1 149//1 167//1
f 168//2 150//2 160//2
f 159//77 169//87 151//77
f 152//78 170//88 160//78
f 153//1 151//1 169//1
f 170//2 152//2 154//2
f 171//89 161//79 153//79
f 154//80 162//80 172//90
f 163//81 173//91 155//81
f 156//82 174//92 164//82
f 157//1 155//1 173//1
f 174//2 156//2 158//2
f 149//83 165//85 175//85
f 176//86 166//86 150//84
f 157//1 173//1 165//1
f 166//2 174//2 158//2
f 167//1 149//1 175//1
f 176//2 150//2 168//2
f 169//87 159//77 167//87
f 168//88 160//78 170//88
f 153//1 169//1 171//1
f 172//2 170//2 154//2
f 161//79 171//89 177//89
f 178//90 172//90 162//80
f 173//91 163//81 179//91
f 180//92 164//82 174//92
f 181//93 175//85 165//85
f 166//86 176//86 182//94
f 165//1 173//1 183//1
f 184//2 174//2 166//2
f 167//1 175//1 185//1
f 186//2 176//2 168//2
f 167//87 181//93 169//87
f 170//88 182//94 168//88
f 171//1 169//1 181//1
f 182//2 170//2 172//2
f 187//95 177//89 171//89
f 172//90 178//90 188//96
f 179//91 183//97 173//91
f 174//92 184//98 180//92
f 175//85 181//93 185//93
f 186//94 182//94 176//86
f 165//1 183//1 181//1
f 182//2 184//2 166//2
f 181//93 167//87 185//93
f 186//94 168//88 182//94
f 171//1 181//1 183//1
f 184//2 182//2 172//2
f 177//89 187//95 189//95
f 190//96 188//96 178//90
f 171//1 183//1 187//1
f 188//2 184//2 172//2
f 183//97 179//91 191//97
f 192//98 180//92 184//98
f 183//97 189//95 187//95
f 188//96 190//96 184//98
f 189//95 183//97 191//97
f 192//98 184//98 190//96
