# created by Ethan Wu and Zhan isaac Ling
mtllib model.mtl
v 0.090909 -0.309792 -0.272692
v -0.090909 -0.309792 0.272711
v -0.090909 -0.309803 -0.272692
vn 0.000000 -1.000000 0.000000
v 0.090904 -0.309787 0.272706
v 0.090898 -0.300644 0.272700
vn 1.000000 0.000000 0.000000
vn 0.000000 0.000000 1.000000
v 0.090894 -0.300639 -0.272692
v -0.090909 -0.300641 0.272701
v 0.018183 -0.300643 -0.054550
v -0.030074 -0.118879 0.054561
v 0.018180 -0.300643 0.054548
vn 0.966515 0.256610 0.000000
v -0.030077 -0.118882 -0.054572
v -0.018207 -0.300708 0.054519
v -0.063672 -0.118889 -0.054563
v -0.018202 -0.300707 -0.054522
vn -0.970142 -0.242536 0.000000
v -0.030085 -0.087631 0.054565
v -0.063668 -0.118886 0.054561
v -0.063656 -0.056332 -0.054573
vn -1.000000 0.000000 0.000000
v -0.030085 -0.087631 -0.054573
v -0.063656 -0.056332 0.054565
v 0.025923 -0.087631 -0.054557
v 0.025861 -0.056332 0.054549
vn 0.000000 1.000000 0.000000
v 0.025854 -0.087623 0.054534
v 0.025855 -0.056338 -0.054541
v 0.025859 0.309795 -0.381778
v 0.025861 -0.087600 -0.054526
v 0.025857 -0.253785 -0.381778
v 0.025861 -0.253789 0.381774
v 0.044102 -0.253789 -0.381782
vn 0.000000 0.000000 -1.000000
v 0.025870 0.309803 0.381782
v 0.044106 0.309793 -0.381778
v 0.044106 -0.253785 0.381770
v 0.044093 0.309803 0.381782
vn 0.000000 0.000000 1.000000
v 0.044109 0.302510 -0.374495
v 0.044109 -0.242865 0.374487
v 0.044109 0.302510 0.374487
v 0.044109 -0.242865 -0.374495
v -0.090909 -0.309727 -0.272692
v -0.090909 -0.309738 0.272657
v 0.090856 -0.309738 -0.272692
vn 0.000000 1.000000 0.000000
v 0.090860 -0.309743 0.272662
v 0.090867 -0.300707 0.272668
vn -1.000000 0.000000 0.000000
vn 0.000000 0.000000 -1.000000
v 0.090870 -0.300712 -0.272692
v -0.090909 -0.300709 0.272667
v 0.018148 -0.300708 -0.054532
vn 0.000000 -1.000000 0.000000
v 0.018152 -0.300708 0.054519
v -0.090909 -0.300714 -0.272692
v -0.030123 -0.118886 -0.054511
vn 0.000000 0.000000 1.000000
v -0.030127 -0.118888 0.054507
vn -0.966515 -0.256610 0.000000
v -0.063610 -0.118878 -0.054520
v -0.018183 -0.300644 -0.054561
v -0.018179 -0.300643 0.054548
vn 0.970142 0.242536 0.000000
v -0.063614 -0.118882 0.054507
v -0.063625 -0.056363 -0.054510
v -0.030116 -0.087600 0.054503
vn 1.000000 0.000000 0.000000
v -0.030116 -0.087600 -0.054510
v -0.063625 -0.056363 0.054503
v 0.025923 -0.056363 0.054518
v 0.025929 -0.087608 0.054534
v 0.025929 -0.056356 -0.054541
v 0.025925 0.309768 -0.381753
v 0.025926 -0.253762 -0.381755
v 0.025923 -0.253758 0.381743
v 0.044040 -0.253758 -0.381751
vn 0.000000 0.000000 1.000000
v 0.025914 0.309759 0.381737
v 0.044037 0.309770 -0.381755
v 0.044037 -0.253762 0.381748
v 0.044049 0.309759 0.381737
vn 0.000000 0.000000 -1.000000
v 0.044033 0.302510 -0.374495
v 0.044033 -0.242865 0.374487
v 0.044033 0.302510 0.374487
v 0.044033 -0.242865 -0.374495
v -0.090909 -0.300637 -0.272692
vn 0.000000 0.000000 -1.000000
g mesh1-geometry-0
usemtl Material.57774a50243e5d429f3a4ea105ec3930
f 1//1 2//1 3//1
f 2//1 1//1 4//1
f 1//2 5//2 4//2
f 5//3 2//3 4//3
f 5//2 1//2 6//2
f 2//3 5//3 7//3
f 8//4 9//4 10//4
f 9//4 8//4 11//4
f 12//5 13//5 14//5
f 11//2 15//2 9//2
f 13//5 12//5 16//5
f 16//6 17//6 13//6
f 15//2 11//2 18//2
f 17//6 16//6 19//6
f 20//1 15//1 18//1
f 21//7 17//7 19//7
f 15//1 20//1 22//1
f 17//7 21//7 23//7
f 23//6 24//6 25//6
f 26//6 22//6 25//6
f 22//6 27//6 21//6
f 21//6 24//6 23//6
f 25//6 24//6 26//6
f 27//6 22//6 26//6
f 27//6 24//6 21//6
f 24//8 28//8 26//8
f 28//1 27//1 26//1
f 24//6 27//6 29//6
f 28//8 24//8 30//8
f 27//1 28//1 31//1
f 27//9 32//9 29//9
f 32//7 24//7 29//7
f 24//7 32//7 30//7
f 30//2 33//2 28//2
f 28//2 34//2 31//2
f 32//9 27//9 31//9
f 32//2 35//2 30//2
f 30//2 35//2 33//2
f 36//2 28//2 33//2
f 34//2 28//2 36//2
f 35//2 31//2 34//2
f 35//2 32//2 31//2
g mesh1-geometry-1
usemtl Material.90b00bf69165eda831fe702671104217
f 37//10 38//10 39//10
f 40//10 39//10 38//10
f 40//11 41//11 39//11
f 40//12 38//12 41//12
f 42//11 39//11 41//11
f 43//12 41//12 38//12
f 41//13 44//13 42//13
f 41//13 43//13 12//13
f 44//13 14//13 42//13
f 44//13 41//13 45//13
f 46//13 12//13 43//13
f 45//13 41//13 12//13
f 42//13 14//13 46//13
f 44//14 47//14 14//14
f 45//15 48//15 44//15
f 12//13 46//13 14//13
f 45//12 12//12 48//12
f 49//14 14//14 47//14
f 47//15 44//15 48//15
f 50//16 49//16 51//16
f 52//12 48//12 12//12
f 53//14 49//14 47//14
f 48//11 54//11 47//11
f 52//16 51//16 49//16
f 54//12 48//12 52//12
f 49//17 53//17 52//17
f 55//14 53//14 47//14
f 55//11 47//11 54//11
f 56//12 54//12 52//12
f 56//17 52//17 53//17
f 25//14 53//14 55//14
f 55//10 54//10 25//10
f 57//12 54//12 56//12
f 56//13 53//13 57//13
f 23//14 53//14 25//14
f 58//10 25//10 54//10
f 22//12 54//12 57//12
f 59//13 57//13 53//13
f 20//17 60//17 59//17
f 22//6 23//6 25//6
f 20//17 59//17 58//17
f 20//17 58//17 61//17
f 57//17 62//17 58//17
f 23//6 22//6 21//6
f 57//17 58//17 59//17
f 59//17 60//17 57//17
f 61//17 60//17 20//17
f 61//17 58//17 62//17
f 57//17 60//17 62//17
f 61//18 63//18 60//18
f 61//10 62//10 63//10
f 64//17 62//17 60//17
f 65//18 60//18 63//18
f 66//10 63//10 62//10
f 64//19 67//19 62//19
f 64//13 60//13 67//13
f 65//13 67//13 60//13
f 63//11 68//11 65//11
f 66//11 69//11 63//11
f 66//19 62//19 67//19
f 65//11 70//11 67//11
f 68//11 70//11 65//11
f 68//11 63//11 71//11
f 71//11 63//11 69//11
f 69//11 66//11 70//11
f 66//11 67//11 70//11
f 68//11 71//11 70//11
f 69//11 70//11 71//11
g mesh1-geometry-2
usemtl Material.dc7a3ca9ca091ddbf48733c3a604f557
f 6//7 8//7 5//7
f 51//7 7//7 5//7
f 6//7 50//7 8//7
f 10//7 5//7 8//7
f 7//7 51//7 72//7
f 51//7 5//7 10//7
f 72//7 50//7 6//7
f 50//20 11//20 8//20
f 50//7 72//7 51//7
f 9//3 51//3 10//3
f 11//20 50//20 13//20
f 51//3 9//3 16//3
f 11//20 13//20 17//20
f 16//3 9//3 15//3
f 11//20 17//20 18//20
f 16//3 15//3 19//3
f 18//20 17//20 20//20
f 19//3 15//3 21//3
f 20//20 17//20 23//20
f 21//3 15//3 22//3
g mesh1-geometry-3
usemtl Material.b2cdaf4394d1a4f850458878b81c7fa1
f 35//2 36//2 33//2
f 36//2 35//2 34//2
