# created by Ethan Wu and Zhan isaac Ling
mtllib model.mtl
v 0.021215 0.275187 0.410379
v 0.076525 -0.275187 0.410383
v 0.076532 0.275183 0.410375
vn 0.000000 0.000000 1.000000
v 0.021215 -0.275184 0.410379
v 0.076536 -0.236966 0.370933
vn 1.000000 0.000000 0.000000
v 0.076528 0.275187 -0.410379
vn 0.000000 1.000000 0.000000
v 0.021215 -0.171293 0.272512
vn -1.000000 0.000000 0.000000
v 0.021219 -0.275187 -0.410383
vn 0.000000 -1.000000 0.000000
v 0.076536 -0.236966 -0.382859
v 0.076536 0.238470 0.370933
v 0.021211 0.275183 -0.410375
v 0.021215 0.209621 0.272512
v 0.076528 -0.275184 -0.410379
vn 0.000000 0.000000 -1.000000
v 0.021219 0.209624 -0.309203
v 0.076536 0.238470 -0.382859
v 0.021211 -0.171289 -0.309196
v -0.076533 0.209614 0.272505
v -0.076534 -0.171285 -0.309192
v -0.076534 -0.171284 0.272503
v -0.076536 0.209607 -0.309187
v -0.076536 -0.020479 0.149627
v -0.076536 -0.148165 -0.078493
v -0.076536 0.178250 -0.194296
v -0.076536 -0.144393 -0.064416
v -0.076536 0.171289 0.149627
v -0.076536 -0.120010 -0.267566
v -0.076536 -0.147205 -0.071207
v -0.076536 -0.146040 -0.241537
v -0.076536 -0.025736 -0.194296
v -0.076536 0.178250 -0.167203
v -0.076536 -0.139918 -0.058585
v -0.076536 0.171289 0.123066
v -0.076536 -0.126747 -0.266679
v -0.076536 -0.113273 -0.266679
v -0.076536 -0.145153 -0.248273
v -0.076536 -0.147205 -0.085780
v -0.076536 -0.093449 -0.164680
v -0.076536 0.173483 -0.112748
v -0.076536 -0.134087 -0.054111
v -0.076536 0.173483 0.075833
v -0.076536 -0.020479 0.123066
v -0.076536 -0.025736 -0.167203
v -0.076536 -0.133025 -0.264079
v -0.076536 -0.106995 -0.264079
v -0.076536 -0.142552 -0.254552
v -0.076536 -0.146571 -0.164680
v -0.076536 -0.093981 -0.241537
v -0.076536 -0.092815 -0.085780
v -0.076536 -0.015097 -0.112748
v -0.076536 -0.127297 -0.051298
v -0.076536 -0.015097 0.075833
v -0.076536 -0.091856 -0.078493
v -0.076536 -0.138416 -0.259942
v -0.076536 -0.101605 -0.259942
v -0.076536 -0.145666 -0.171555
v -0.076536 -0.145153 -0.234800
v -0.076536 -0.144393 -0.092570
v -0.076536 -0.094868 -0.248273
v -0.076536 -0.094355 -0.171555
v -0.076536 -0.094355 -0.157806
v -0.076536 -0.120010 -0.050339
v -0.076536 -0.143013 -0.151400
v -0.076536 -0.139918 -0.098401
v -0.076536 -0.138792 -0.145899
v -0.076536 -0.134087 -0.102875
v -0.076536 -0.092815 -0.071207
v -0.076536 -0.126747 -0.216394
v -0.076536 -0.120010 -0.191241
v -0.076536 -0.120010 -0.215507
v -0.076536 -0.113136 -0.190336
v -0.076536 -0.113273 -0.216394
v -0.076536 -0.097468 -0.254552
v -0.076536 -0.143013 -0.177961
v -0.076536 -0.142552 -0.228522
v -0.076536 -0.145666 -0.157806
v -0.076536 -0.094868 -0.234800
v -0.076536 -0.095628 -0.092570
v -0.076536 -0.112723 -0.051298
v -0.076536 -0.133291 -0.141678
v -0.076536 -0.095628 -0.064416
v -0.076536 -0.133025 -0.218995
v -0.076536 -0.126885 -0.190336
v -0.076536 -0.106995 -0.218995
v -0.076536 -0.138792 -0.183462
v -0.076536 -0.097008 -0.177961
v -0.076536 -0.097008 -0.151400
v -0.076536 -0.105933 -0.054111
v -0.076536 -0.127297 -0.105688
v -0.076536 -0.100102 -0.058585
v -0.076536 -0.138416 -0.223131
v -0.076536 -0.133291 -0.187683
v -0.076536 -0.106730 -0.187683
v -0.076536 -0.101605 -0.223131
v -0.076536 -0.101229 -0.183462
v -0.076536 -0.097468 -0.228522
v -0.076536 -0.100102 -0.098401
v -0.076536 -0.126885 -0.139025
v -0.076536 -0.120010 -0.106647
v -0.076536 -0.101229 -0.145899
v -0.076536 -0.120010 -0.138120
v -0.076536 -0.112723 -0.105688
v -0.076536 -0.113136 -0.139025
v -0.076536 -0.105933 -0.102875
v -0.076536 -0.106730 -0.141678
v 0.076458 0.275158 0.410350
v 0.076465 -0.275147 0.410343
v 0.021282 0.275153 0.410346
vn 0.000000 0.000000 -1.000000
v 0.021282 -0.275150 0.410346
v 0.076454 -0.236966 0.370933
vn -1.000000 0.000000 0.000000
v 0.076461 0.275153 -0.410346
vn 0.000000 -1.000000 0.000000
v 0.021282 -0.171260 0.272479
vn 1.000000 0.000000 0.000000
v 0.021278 -0.275147 -0.410343
vn 0.000000 1.000000 0.000000
v 0.076454 -0.236966 -0.382859
v 0.076454 0.238470 0.370933
v 0.021286 0.275158 -0.410350
v 0.021282 0.209587 0.272479
v 0.076461 -0.275150 -0.410346
v 0.076454 0.238470 -0.382859
vn 0.000000 0.000000 1.000000
v 0.021278 0.209584 -0.309164
v 0.021286 -0.171264 -0.309171
v -0.076456 0.209594 0.272486
v -0.076455 -0.171268 -0.309175
v -0.076455 -0.171269 0.272488
v -0.076454 0.209600 -0.309180
v -0.076454 -0.020479 0.149627
v -0.076454 -0.148165 -0.078493
v -0.076454 0.178250 -0.194296
v -0.076454 -0.144393 -0.064416
v -0.076454 0.171289 0.149627
v -0.076454 -0.120010 -0.267566
v -0.076454 -0.147205 -0.071207
v -0.076454 -0.146040 -0.241537
v -0.076454 -0.025736 -0.194296
v -0.076454 0.178250 -0.167203
v -0.076454 -0.139918 -0.058585
v -0.076454 0.171289 0.123066
v -0.076454 -0.020479 0.123066
v -0.076454 -0.126747 -0.266679
v -0.076454 -0.113273 -0.266679
v -0.076454 -0.147205 -0.085780
v -0.076454 -0.145153 -0.248273
v -0.076454 -0.093449 -0.164680
v -0.076454 0.173483 -0.112748
v -0.076454 -0.134087 -0.054111
v -0.076454 -0.139918 -0.098401
v -0.076454 0.173483 0.075833
v -0.076454 -0.025736 -0.167203
v -0.076454 -0.133025 -0.264079
v -0.076454 -0.126747 -0.216394
v -0.076454 -0.113273 -0.216394
v -0.076454 -0.106995 -0.264079
v -0.076454 -0.142552 -0.254552
v -0.076454 -0.145153 -0.234800
v -0.076454 -0.146571 -0.164680
v -0.076454 -0.093981 -0.241537
v -0.076454 -0.092815 -0.085780
v -0.076454 -0.015097 -0.112748
v -0.076454 -0.144393 -0.092570
v -0.076454 -0.127297 -0.051298
v -0.076454 -0.134087 -0.102875
v -0.076454 -0.015097 0.075833
v -0.076454 -0.091856 -0.078493
v -0.076454 -0.138416 -0.259942
v -0.076454 -0.120010 -0.215507
v -0.076454 -0.101605 -0.259942
v -0.076454 -0.142552 -0.228522
v -0.076454 -0.145666 -0.171555
v -0.076454 -0.094868 -0.248273
v -0.076454 -0.094355 -0.171555
v -0.076454 -0.094355 -0.157806
v -0.076454 -0.120010 -0.050339
v -0.076454 -0.143013 -0.151400
v -0.076454 -0.138792 -0.145899
v -0.076454 -0.092815 -0.071207
v -0.076454 -0.133025 -0.218995
v -0.076454 -0.120010 -0.191241
v -0.076454 -0.113136 -0.190336
v -0.076454 -0.106995 -0.218995
v -0.076454 -0.101605 -0.223131
v -0.076454 -0.097468 -0.254552
v -0.076454 -0.143013 -0.177961
v -0.076454 -0.145666 -0.157806
v -0.076454 -0.094868 -0.234800
v -0.076454 -0.095628 -0.092570
v -0.076454 -0.112723 -0.051298
v -0.076454 -0.127297 -0.105688
v -0.076454 -0.133291 -0.141678
v -0.076454 -0.095628 -0.064416
v -0.076454 -0.138416 -0.223131
v -0.076454 -0.126885 -0.190336
v -0.076454 -0.097468 -0.228522
v -0.076454 -0.138792 -0.183462
v -0.076454 -0.097008 -0.177961
v -0.076454 -0.097008 -0.151400
v -0.076454 -0.105933 -0.054111
v -0.076454 -0.120010 -0.106647
v -0.076454 -0.100102 -0.058585
v -0.076454 -0.133291 -0.187683
v -0.076454 -0.120010 -0.138120
v -0.076454 -0.113136 -0.139025
v -0.076454 -0.106730 -0.187683
v -0.076454 -0.101229 -0.183462
v -0.076454 -0.100102 -0.098401
v -0.076454 -0.105933 -0.102875
v -0.076454 -0.112723 -0.105688
v -0.076454 -0.126885 -0.139025
v -0.076454 -0.101229 -0.145899
v -0.076454 -0.106730 -0.141678
g mesh1-geometry-0
usemtl Material.57774a50243e5d429f3a4ea105ec3930
f 1//1 2//1 3//1
f 2//1 1//1 4//1
f 2//2 5//2 3//2
f 6//3 1//3 3//3
f 7//4 4//4 1//4
f 8//5 2//5 4//5
f 5//2 2//2 9//2
f 3//2 5//2 10//2
f 1//3 6//3 11//3
f 3//2 10//2 6//2
f 4//4 7//4 8//4
f 7//4 1//4 12//4
f 2//5 8//5 13//5
f 13//2 9//2 2//2
f 6//6 8//6 11//6
f 11//4 14//4 1//4
f 15//2 6//2 10//2
f 16//4 8//4 7//4
f 12//4 1//4 14//4
f 17//1 7//1 12//1
f 8//6 6//6 13//6
f 9//2 13//2 6//2
f 9//2 6//2 15//2
f 8//4 16//4 11//4
f 11//4 16//4 14//4
f 7//5 18//5 16//5
f 14//3 17//3 12//3
f 7//1 17//1 19//1
f 18//6 14//6 16//6
f 18//5 7//5 19//5
f 17//3 14//3 20//3
f 21//4 19//4 17//4
f 14//6 18//6 20//6
f 19//4 22//4 18//4
f 20//4 23//4 17//4
f 24//4 19//4 21//4
f 21//4 17//4 25//4
f 18//4 26//4 20//4
f 22//4 19//4 27//4
f 28//4 18//4 22//4
f 20//4 29//4 23//4
f 30//4 17//4 23//4
f 27//4 19//4 24//4
f 24//4 21//4 31//4
f 25//4 17//4 32//4
f 26//4 18//4 33//4
f 20//4 26//4 34//4
f 35//4 18//4 28//4
f 28//4 22//4 36//4
f 20//4 37//4 29//4
f 38//4 17//4 30//4
f 31//4 21//4 39//4
f 32//4 17//4 40//4
f 41//4 42//4 21//4
f 33//4 18//4 43//4
f 20//4 34//4 44//4
f 45//4 18//4 35//4
f 28//4 36//4 46//4
f 20//4 47//4 37//4
f 29//4 37//4 48//4
f 40//4 17//4 38//4
f 30//4 49//4 38//4
f 39//4 21//4 50//4
f 51//4 32//4 40//4
f 32//4 51//4 41//4
f 49//4 42//4 41//4
f 52//4 21//4 42//4
f 43//4 18//4 53//4
f 20//4 44//4 54//4
f 53//4 18//4 45//4
f 28//4 55//4 56//4
f 57//4 46//4 36//4
f 55//4 28//4 46//4
f 20//4 58//4 47//4
f 47//4 59//4 37//4
f 60//4 48//4 37//4
f 29//4 48//4 52//4
f 29//4 52//4 42//4
f 42//4 49//4 30//4
f 50//4 21//4 61//4
f 62//4 57//4 63//4
f 64//4 63//4 65//4
f 49//4 41//4 51//4
f 66//4 21//4 52//4
f 67//4 68//4 69//4
f 69//4 70//4 71//4
f 20//4 54//4 72//4
f 56//4 73//4 74//4
f 56//4 55//4 73//4
f 46//4 57//4 75//4
f 20//4 72//4 58//4
f 76//4 59//4 47//4
f 60//4 77//4 48//4
f 61//4 21//4 78//4
f 75//4 57//4 62//4
f 62//4 63//4 64//4
f 64//4 65//4 79//4
f 80//4 21//4 66//4
f 81//4 82//4 67//4
f 67//4 82//4 68//4
f 69//4 68//4 70//4
f 71//4 70//4 83//4
f 74//4 73//4 84//4
f 76//4 85//4 59//4
f 86//4 77//4 60//4
f 78//4 21//4 87//4
f 79//4 65//4 88//4
f 89//4 21//4 80//4
f 90//4 91//4 81//4
f 81//4 91//4 82//4
f 83//4 70//4 92//4
f 83//4 92//4 93//4
f 93//4 94//4 95//4
f 74//4 84//4 90//4
f 95//4 85//4 76//4
f 86//4 96//4 77//4
f 87//4 21//4 89//4
f 97//4 88//4 98//4
f 79//4 88//4 97//4
f 90//4 84//4 91//4
f 93//4 92//4 94//4
f 95//4 94//4 85//4
f 99//4 96//4 86//4
f 100//4 98//4 101//4
f 97//4 98//4 100//4
f 100//4 101//4 102//4
f 99//4 103//4 96//4
f 104//4 101//4 103//4
f 102//4 101//4 104//4
f 104//4 103//4 99//4
g mesh1-geometry-1
usemtl Material.90b00bf69165eda831fe702671104217
f 105//7 106//7 107//7
f 108//7 107//7 106//7
f 105//8 109//8 106//8
f 105//9 107//9 110//9
f 107//10 108//10 111//10
f 108//11 106//11 112//11
f 113//8 106//8 109//8
f 114//8 109//8 105//8
f 115//9 110//9 107//9
f 110//8 114//8 105//8
f 112//10 111//10 108//10
f 116//10 107//10 111//10
f 117//11 112//11 106//11
f 106//8 113//8 117//8
f 113//8 109//8 118//8
f 114//8 118//8 109//8
f 115//12 112//12 110//12
f 107//10 119//10 115//10
f 114//8 110//8 118//8
f 111//10 112//10 120//10
f 119//10 107//10 116//10
f 116//7 111//7 121//7
f 117//12 110//12 112//12
f 110//8 117//8 113//8
f 118//8 110//8 113//8
f 115//10 120//10 112//10
f 119//10 120//10 115//10
f 120//11 122//11 111//11
f 116//9 121//9 119//9
f 123//7 121//7 111//7
f 120//12 119//12 122//12
f 123//11 111//11 122//11
f 124//9 119//9 121//9
f 121//10 123//10 125//10
f 124//12 122//12 119//12
f 122//10 126//10 123//10
f 121//10 127//10 124//10
f 125//10 123//10 128//10
f 129//10 121//10 125//10
f 124//10 130//10 122//10
f 131//10 123//10 126//10
f 126//10 122//10 132//10
f 127//10 133//10 124//10
f 127//10 121//10 134//10
f 128//10 123//10 131//10
f 135//10 125//10 128//10
f 136//10 121//10 129//10
f 125//10 137//10 129//10
f 138//10 122//10 130//10
f 139//10 130//10 124//10
f 126//10 140//10 131//10
f 132//10 122//10 141//10
f 140//10 126//10 132//10
f 133//10 142//10 124//10
f 127//10 134//10 133//10
f 134//10 121//10 143//10
f 128//10 131//10 140//10
f 144//10 125//10 135//10
f 135//10 128//10 145//10
f 146//10 121//10 136//10
f 136//10 129//10 137//10
f 125//10 147//10 137//10
f 148//10 122//10 138//10
f 130//10 149//10 138//10
f 139//10 150//10 130//10
f 151//10 139//10 124//10
f 141//10 122//10 152//10
f 132//10 141//10 153//10
f 154//10 140//10 132//10
f 142//10 155//10 124//10
f 156//10 142//10 133//10
f 147//10 133//10 134//10
f 143//10 121//10 146//10
f 143//10 157//10 134//10
f 158//10 128//10 140//10
f 159//10 125//10 144//10
f 144//10 135//10 160//10
f 145//10 128//10 158//10
f 160//10 135//10 145//10
f 146//10 136//10 161//10
f 137//10 161//10 136//10
f 137//10 147//10 157//10
f 147//10 125//10 162//10
f 163//10 122//10 148//10
f 138//10 149//10 148//10
f 164//10 149//10 130//10
f 150//10 164//10 130//10
f 151//10 150//10 139//10
f 165//10 151//10 124//10
f 152//10 122//10 163//10
f 152//10 166//10 141//10
f 166//10 153//10 141//10
f 153//10 167//10 132//10
f 140//10 154//10 158//10
f 154//10 132//10 167//10
f 155//10 168//10 124//10
f 142//10 169//10 155//10
f 142//10 156//10 170//10
f 162//10 156//10 133//10
f 147//10 162//10 133//10
f 134//10 157//10 147//10
f 143//10 146//10 157//10
f 171//10 125//10 159//10
f 159//10 144//10 160//10
f 145//10 158//10 172//10
f 160//10 145//10 173//10
f 161//10 157//10 146//10
f 161//10 137//10 157//10
f 162//10 125//10 174//10
f 148//10 175//10 163//10
f 149//10 175//10 148//10
f 164//10 176//10 149//10
f 150//10 177//10 164//10
f 178//10 150//10 151//10
f 165//10 179//10 151//10
f 180//10 165//10 124//10
f 163//10 166//10 152//10
f 166//10 181//10 153//10
f 181//10 167//10 153//10
f 182//10 158//10 154//10
f 154//10 167//10 182//10
f 168//10 180//10 124//10
f 155//10 183//10 168//10
f 155//10 169//10 183//10
f 142//10 170//10 169//10
f 156//10 184//10 170//10
f 162//10 174//10 156//10
f 185//10 125//10 171//10
f 171//10 159//10 186//10
f 186//10 159//10 160//10
f 172//10 158//10 182//10
f 173//10 145//10 172//10
f 187//10 160//10 173//10
f 174//10 125//10 188//10
f 175//10 189//10 163//10
f 149//10 190//10 175//10
f 176//10 190//10 149//10
f 177//10 176//10 164//10
f 178//10 177//10 150//10
f 179//10 178//10 151//10
f 191//10 179//10 165//10
f 180//10 191//10 165//10
f 189//10 166//10 163//10
f 192//10 181//10 166//10
f 181//10 172//10 167//10
f 172//10 182//10 167//10
f 168//10 183//10 180//10
f 169//10 193//10 183//10
f 170//10 194//10 169//10
f 170//10 184//10 194//10
f 156//10 188//10 184//10
f 174//10 188//10 156//10
f 195//10 125//10 185//10
f 185//10 171//10 196//10
f 196//10 171//10 186//10
f 186//10 160//10 187//10
f 173//10 172//10 192//10
f 187//10 173//10 192//10
f 188//10 125//10 197//10
f 175//10 198//10 189//10
f 190//10 198//10 175//10
f 176//10 199//10 190//10
f 177//10 200//10 176//10
f 201//10 177//10 178//10
f 179//10 201//10 178//10
f 191//10 202//10 179//10
f 183//10 191//10 180//10
f 189//10 192//10 166//10
f 192//10 172//10 181//10
f 183//10 193//10 191//10
f 169//10 194//10 193//10
f 184//10 203//10 194//10
f 188//10 197//10 184//10
f 197//10 125//10 195//10
f 195//10 185//10 204//10
f 205//10 185//10 196//10
f 196//10 186//10 206//10
f 206//10 186//10 187//10
f 198//10 187//10 192//10
f 198//10 192//10 189//10
f 190//10 206//10 198//10
f 199//10 206//10 190//10
f 200//10 199//10 176//10
f 201//10 200//10 177//10
f 202//10 201//10 179//10
f 193//10 202//10 191//10
f 193//10 194//10 202//10
f 194//10 203//10 207//10
f 184//10 197//10 203//10
f 197//10 195//10 204//10
f 204//10 185//10 205//10
f 205//10 196//10 199//10
f 199//10 196//10 206//10
f 206//10 187//10 198//10
f 200//10 205//10 199//10
f 208//10 200//10 201//10
f 202//10 207//10 201//10
f 194//10 207//10 202//10
f 203//10 204//10 207//10
f 203//10 197//10 204//10
f 204//10 205//10 208//10
f 208//10 205//10 200//10
f 207//10 208//10 201//10
f 207//10 204//10 208//10
g mesh1-geometry-2
usemtl Material.dc7a3ca9ca091ddbf48733c3a604f557
f 15//2 5//2 9//2
f 5//2 15//2 10//2
f 25//4 41//4 21//4
f 29//4 30//4 23//4
f 41//4 25//4 32//4
f 30//4 29//4 42//4
f 49//4 40//4 38//4
f 40//4 49//4 51//4
g mesh1-geometry-3
usemtl Material.b2cdaf4394d1a4f850458878b81c7fa1
f 27//4 36//4 22//4
f 36//4 27//4 24//4
f 63//4 24//4 31//4
f 36//4 24//4 57//4
f 65//4 31//4 39//4
f 57//4 24//4 63//4
f 63//4 31//4 65//4
f 65//4 39//4 50//4
f 48//4 66//4 52//4
f 88//4 50//4 61//4
f 65//4 50//4 88//4
f 77//4 80//4 48//4
f 48//4 80//4 66//4
f 98//4 61//4 78//4
f 88//4 61//4 98//4
f 77//4 89//4 80//4
f 103//4 78//4 87//4
f 98//4 78//4 101//4
f 96//4 89//4 77//4
f 103//4 87//4 89//4
f 101//4 78//4 103//4
f 103//4 89//4 96//4
g mesh1-geometry-4
usemtl Material.efc39ebbb3cc1048a02a4c783fdc17fc
f 33//4 67//4 26//4
f 26//4 71//4 34//4
f 56//4 35//4 28//4
f 43//4 67//4 33//4
f 26//4 67//4 69//4
f 26//4 69//4 71//4
f 34//4 71//4 44//4
f 35//4 74//4 45//4
f 35//4 56//4 74//4
f 53//4 81//4 43//4
f 43//4 81//4 67//4
f 44//4 71//4 83//4
f 44//4 93//4 54//4
f 45//4 74//4 53//4
f 58//4 76//4 47//4
f 53//4 90//4 81//4
f 44//4 83//4 93//4
f 54//4 93//4 95//4
f 54//4 95//4 72//4
f 53//4 74//4 90//4
f 72//4 76//4 58//4
f 72//4 95//4 76//4
g mesh1-geometry-5
usemtl Material.1a9b9f2ffc3bd045e8f97d5062c1c924
f 75//4 55//4 46//4
f 59//4 60//4 37//4
f 55//4 62//4 73//4
f 55//4 75//4 62//4
f 59//4 86//4 60//4
f 84//4 62//4 64//4
f 84//4 64//4 79//4
f 82//4 100//4 68//4
f 68//4 102//4 70//4
f 73//4 62//4 84//4
f 85//4 86//4 59//4
f 84//4 79//4 91//4
f 91//4 97//4 82//4
f 82//4 97//4 100//4
f 68//4 100//4 102//4
f 70//4 102//4 92//4
f 94//4 86//4 85//4
f 91//4 79//4 97//4
f 92//4 102//4 104//4
f 92//4 99//4 94//4
f 94//4 99//4 86//4
f 92//4 104//4 99//4
