# created by Ethan Wu and Zhan isaac Ling
mtllib model.mtl
v -0.103962 -0.376774 -0.311813
v 0.103941 -0.376771 0.311816
v -0.103966 -0.376771 0.311816
vn 0.000000 -1.000000 0.000000
v 0.103946 -0.376774 0.000000
v -0.103966 -0.324760 0.311816
vn 0.000000 0.000000 1.000000
vn -1.000000 0.000000 0.000000
v 0.103941 -0.376771 -0.311816
v 0.103947 -0.324764 -0.311813
vn 1.000000 0.000000 0.000000
v 0.103941 -0.324760 0.311816
v -0.103966 -0.324760 -0.311816
vn 0.000000 0.000000 -1.000000
vn 0.000000 1.000000 0.000000
v -0.103922 -0.376726 0.311773
v 0.103898 -0.376726 0.311773
v -0.103925 -0.376720 -0.311776
vn 0.000000 1.000000 0.000000
v 0.103893 -0.376721 0.000000
v -0.103922 -0.324804 0.311773
vn 0.000000 0.000000 -1.000000
vn 1.000000 0.000000 0.000000
v 0.103898 -0.376726 -0.311773
v 0.103892 -0.324800 -0.311776
vn -1.000000 0.000000 0.000000
v 0.103898 -0.324804 0.311773
v -0.103922 -0.324804 -0.311773
vn 0.000000 0.000000 1.000000
vn 0.000000 -1.000000 0.000000
v 0.103941 0.376778 -0.311816
v 0.103947 -0.070168 0.311813
v 0.103953 -0.070139 -0.311783
vn 1.000000 0.000000 0.000000
v 0.103941 0.376778 0.311816
v 0.025949 -0.070172 -0.311816
v 0.103885 -0.070161 -0.311806
vn 0.000000 -1.000000 0.000000
v 0.103946 -0.142929 0.311794
v 0.103892 -0.070132 0.311776
v 0.103893 -0.142876 0.311794
vn -1.000000 0.000000 0.000000
vn 0.000000 0.000000 -1.000000
v 0.025949 0.376778 0.311816
vn 0.000000 1.000000 0.000000
vn 0.000000 0.000000 1.000000
v 0.025949 -0.070172 0.311816
v 0.103946 -0.142929 -0.311794
v 0.103893 -0.142876 -0.311794
v 0.025949 0.376778 -0.311816
vn -1.000000 0.000000 0.000000
v -0.051978 -0.142940 -0.311794
v -0.051978 -0.142864 -0.311794
vn 0.000000 1.000000 0.000000
v -0.051978 -0.142940 0.311794
v -0.051978 -0.142864 0.311794
v 0.103898 0.376734 -0.311773
v 0.103898 0.376734 0.311773
v 0.025992 -0.070128 -0.311773
vn 0.000000 0.000000 1.000000
v 0.025992 0.376734 0.311773
vn 0.000000 -1.000000 0.000000
vn 0.000000 0.000000 -1.000000
v 0.025992 -0.070128 0.311773
v 0.025992 0.376734 -0.311773
vn 1.000000 0.000000 0.000000
v 0.086357 -0.376771 0.013365
v 0.094377 -0.376774 0.012346
v 0.090435 -0.376759 0.013390
vn 0.000000 -1.000000 0.000000
v 0.082425 -0.376774 0.012286
v 0.090427 -0.376736 0.013319
v 0.094357 -0.376721 0.012296
v 0.086366 -0.376727 0.013303
vn 0.000000 1.000000 0.000000
v 0.082446 -0.376721 0.012237
v 0.090427 0.179793 0.013319
vn -0.125598 0.000000 -0.992081
vn -0.378088 0.000000 -0.925770
v 0.086366 0.179784 0.013303
vn 0.135451 0.000000 -0.990784
v 0.082446 0.179779 0.012237
vn 0.387269 0.000000 -0.921967
v 0.097918 -0.376774 0.010325
v 0.097886 -0.376721 0.010282
v 0.094357 0.179779 0.012296
v 0.078940 0.179783 0.010185
vn 0.612696 0.000000 -0.790319
v 0.078908 -0.376778 0.010226
v 0.078934 -0.376717 0.010193
vn -0.604812 0.000000 -0.796368
vn 0.000000 -1.000000 0.000000
v 0.097886 0.179779 0.010282
v 0.100818 -0.376771 0.007459
v 0.100770 -0.376725 0.007422
v 0.076079 -0.376721 0.007301
vn 0.796368 0.000000 -0.604812
v 0.100777 0.179774 0.007427
v 0.076037 -0.376774 0.007333
vn -0.790319 0.000000 -0.612696
v 0.076079 0.179779 0.007301
v 0.102871 -0.376774 0.003936
v 0.102822 -0.376721 0.003915
v 0.074065 -0.376721 0.003773
vn 0.925770 0.000000 -0.378088
v 0.102822 0.179779 0.003915
vn -0.921967 0.000000 -0.387269
v 0.074016 -0.376774 0.003793
v 0.074065 0.179779 0.003773
v 0.103945 -0.376774 0.000004
v 0.103893 -0.376721 -0.000004
v 0.103893 0.179779 -0.000004
vn -0.990784 0.000000 -0.135451
v 0.073033 -0.376721 -0.000157
vn 0.992081 0.000000 -0.125598
v 0.072980 -0.376774 -0.000150
v 0.073033 0.179779 -0.000157
v 0.103966 -0.376774 -0.004073
v 0.103913 -0.376721 -0.004066
v 0.103913 0.179779 -0.004066
vn -0.992081 0.000000 0.125598
v 0.073053 -0.376721 -0.004220
vn 0.990784 0.000000 0.135451
v 0.073001 -0.376774 -0.004227
v 0.073053 0.179779 -0.004220
v 0.102930 -0.376774 -0.008016
v 0.102881 -0.376721 -0.007996
v 0.102881 0.179779 -0.007996
vn -0.925770 0.000000 0.378088
v 0.074124 -0.376721 -0.008139
vn 0.921967 0.000000 0.387269
v 0.074075 -0.376774 -0.008159
v 0.074124 0.179779 -0.008139
v 0.100910 -0.376774 -0.011557
v 0.100867 -0.376721 -0.011524
v 0.100867 0.179779 -0.011524
vn -0.796368 0.000000 0.604812
v 0.076176 -0.376725 -0.011645
vn 0.790319 0.000000 0.612696
v 0.076128 -0.376771 -0.011682
v 0.076169 0.179774 -0.011651
v 0.098038 -0.376778 -0.014449
v 0.098012 -0.376717 -0.014416
v 0.098006 0.179783 -0.014409
vn -0.612696 0.000000 0.790319
v 0.079060 0.179779 -0.014506
vn 0.604812 0.000000 0.796368
v 0.079028 -0.376774 -0.014548
v 0.079060 -0.376721 -0.014506
v 0.094521 -0.376774 -0.016509
v 0.094500 -0.376721 -0.016460
vn -0.387269 0.000000 0.921967
v 0.082589 0.179779 -0.016519
vn 0.378088 0.000000 0.925770
v 0.094500 0.179779 -0.016460
v 0.082569 -0.376774 -0.016569
v 0.082589 -0.376721 -0.016519
v 0.090589 -0.376771 -0.017589
v 0.090581 -0.376727 -0.017527
vn -0.135451 0.000000 0.990784
v 0.086520 0.179793 -0.017542
vn 0.125598 0.000000 0.992081
v 0.090581 0.179784 -0.017527
v 0.086510 -0.376759 -0.017613
v 0.086520 -0.376736 -0.017542
v 0.090435 0.179817 0.013390
vn 0.378088 0.000000 0.925770
vn 0.125598 0.000000 0.992081
v 0.086357 0.179826 0.013365
vn -0.135451 0.000000 0.990784
v 0.082425 0.179832 0.012286
vn -0.387269 0.000000 0.921967
v 0.094377 0.179832 0.012346
v 0.078903 0.179828 0.010233
vn -0.612696 0.000000 0.790319
vn 0.604812 0.000000 0.796368
vn 0.000000 1.000000 0.000000
v 0.097918 0.179832 0.010325
vn -0.796368 0.000000 0.604812
v 0.100810 0.179837 0.007453
vn 0.790319 0.000000 0.612696
v 0.076037 0.179832 0.007333
vn -0.925770 0.000000 0.378088
v 0.102871 0.179832 0.003936
vn 0.921967 0.000000 0.387269
v 0.074016 0.179832 0.003793
v 0.103945 0.179832 0.000004
vn 0.990784 0.000000 0.135451
vn -0.992081 0.000000 0.125598
v 0.072980 0.179832 -0.000150
v 0.103966 0.179832 -0.004073
vn 0.992081 0.000000 -0.125598
vn -0.990784 0.000000 -0.135451
v 0.073001 0.179832 -0.004227
v 0.102930 0.179832 -0.008016
vn 0.925770 0.000000 -0.378088
vn -0.921967 0.000000 -0.387269
v 0.074075 0.179832 -0.008159
v 0.100910 0.179832 -0.011557
vn 0.796368 0.000000 -0.604812
vn -0.790319 0.000000 -0.612696
v 0.076136 0.179837 -0.011676
v 0.098043 0.179828 -0.014456
vn 0.612696 0.000000 -0.790319
v 0.079028 0.179832 -0.014548
vn -0.604812 0.000000 -0.796368
vn 0.387269 0.000000 -0.921967
v 0.082569 0.179832 -0.016569
vn -0.378088 0.000000 -0.925770
v 0.094521 0.179832 -0.016509
vn 0.135451 0.000000 -0.990784
v 0.086510 0.179817 -0.017613
vn -0.125598 0.000000 -0.992081
v 0.090589 0.179826 -0.017589
g mesh1-geometry-0
usemtl Material.57774a50243e5d429f3a4ea105ec3930
f 1//1 2//1 3//1
f 2//1 1//1 4//1
f 2//2 5//2 3//2
f 5//3 1//3 3//3
f 4//1 1//1 6//1
f 4//4 7//4 2//4
f 5//2 2//2 8//2
f 1//3 5//3 9//3
f 1//5 7//5 6//5
f 7//4 4//4 6//4
f 2//4 7//4 8//4
f 7//6 5//6 8//6
f 5//6 7//6 9//6
f 7//5 1//5 9//5
g mesh1-geometry-1
usemtl Material.90b00bf69165eda831fe702671104217
f 10//7 11//7 12//7
f 13//7 12//7 11//7
f 10//8 14//8 11//8
f 10//9 12//9 14//9
f 15//7 12//7 13//7
f 11//10 16//10 13//10
f 17//8 11//8 14//8
f 18//9 14//9 12//9
f 15//11 16//11 12//11
f 15//10 13//10 16//10
f 17//10 16//10 11//10
f 17//12 14//12 16//12
f 18//12 16//12 14//12
f 18//11 12//11 16//11
g mesh2-geometry-0
usemtl Material.57774a50243e5d429f3a4ea105ec3930
f 19//13 20//13 21//13
f 20//13 19//13 22//13
f 20//14 23//14 24//14
f 25//13 21//13 20//13
f 26//15 24//15 27//15
f 23//16 19//16 24//16
f 19//17 28//17 22//17
f 28//18 20//18 22//18
f 23//14 20//14 29//14
f 21//13 25//13 30//13
f 31//15 27//15 24//15
f 19//16 23//16 32//16
f 28//17 19//17 32//17
f 20//18 28//18 29//18
f 28//19 23//19 29//19
f 25//14 33//14 30//14
f 31//20 34//20 27//20
f 23//19 28//19 32//19
f 33//14 25//14 35//14
f 36//20 27//20 34//20
g mesh2-geometry-1
usemtl Material.90b00bf69165eda831fe702671104217
f 24//15 26//15 37//15
f 38//15 37//15 26//15
f 21//20 39//20 26//20
f 21//21 37//21 39//21
f 38//22 40//22 37//22
f 38//23 26//23 40//23
f 41//20 26//20 39//20
f 42//21 39//21 37//21
f 42//22 37//22 40//22
f 41//23 40//23 26//23
f 41//24 39//24 40//24
f 42//24 40//24 39//24
g mesh3-geometry-0
usemtl Material.90b00bf69165eda831fe702671104217
f 43//25 44//25 45//25
f 44//25 43//25 46//25
f 47//26 48//26 49//26
f 50//26 49//26 48//26
f 47//27 51//27 48//28
f 49//29 52//29 47//27
f 50//30 53//30 49//29
f 44//25 46//25 54//25
f 55//26 50//26 48//26
f 56//28 48//28 51//27
f 51//27 47//27 52//29
f 52//29 49//29 53//30
f 53//30 50//30 57//31
f 54//25 46//25 58//25
f 59//26 50//26 55//26
f 48//28 56//28 55//32
f 51//33 52//33 56//33
f 53//33 56//33 52//33
f 59//31 57//31 50//30
f 57//33 60//33 53//33
f 54//25 58//25 61//25
f 62//26 59//26 55//26
f 60//32 55//32 56//28
f 60//33 56//33 53//33
f 59//31 63//34 57//31
f 64//33 60//33 57//33
f 61//25 58//25 65//25
f 63//26 59//26 62//26
f 55//32 60//32 62//35
f 66//34 57//31 63//34
f 64//35 62//35 60//32
f 66//33 64//33 57//33
f 61//25 65//25 67//25
f 68//26 63//26 62//26
f 63//34 69//36 66//34
f 64//35 70//37 62//35
f 70//33 64//33 66//33
f 67//25 65//25 71//25
f 69//26 63//26 68//26
f 68//37 62//35 70//37
f 72//36 66//34 69//36
f 72//33 70//33 66//33
f 67//25 71//25 73//25
f 74//26 69//26 68//26
f 70//37 75//38 68//37
f 69//36 76//39 72//36
f 75//33 70//33 72//33
f 73//25 71//25 77//25
f 76//26 69//26 74//26
f 74//38 68//37 75//38
f 78//39 72//36 76//39
f 78//33 75//33 72//33
f 73//25 77//25 79//25
f 80//26 76//26 74//26
f 75//38 81//40 74//38
f 76//39 82//41 78//39
f 81//33 75//33 78//33
f 79//25 77//25 83//25
f 82//26 76//26 80//26
f 80//40 74//38 81//40
f 84//41 78//39 82//41
f 84//33 81//33 78//33
f 79//25 83//25 85//25
f 86//26 82//26 80//26
f 81//40 87//42 80//40
f 82//41 88//43 84//41
f 87//33 81//33 84//33
f 85//25 83//25 89//25
f 88//26 82//26 86//26
f 86//42 80//40 87//42
f 90//43 84//41 88//43
f 90//33 87//33 84//33
f 85//25 89//25 91//25
f 92//26 88//26 86//26
f 87//42 93//44 86//42
f 88//43 94//45 90//43
f 93//33 87//33 90//33
f 91//25 89//25 95//25
f 94//26 88//26 92//26
f 92//44 86//42 93//44
f 96//45 90//43 94//45
f 96//33 93//33 90//33
f 91//25 95//25 97//25
f 98//26 94//26 92//26
f 93//44 99//46 92//44
f 96//45 94//45 100//47
f 99//33 93//33 96//33
f 97//25 95//25 101//25
f 102//26 94//26 98//26
f 98//46 92//44 99//46
f 102//47 100//47 94//45
f 100//33 99//33 96//33
f 97//25 101//25 103//25
f 104//26 102//26 98//26
f 98//46 99//46 104//48
f 100//47 102//47 105//49
f 106//33 99//33 100//33
f 103//25 101//25 107//25
f 108//26 102//26 104//26
f 106//48 104//48 99//46
f 108//49 105//49 102//47
f 105//33 106//33 100//33
f 103//25 107//25 109//25
f 110//26 108//26 104//26
f 104//48 106//48 110//50
f 105//49 108//49 111//51
f 112//33 106//33 105//33
f 109//25 107//25 113//25
f 114//26 108//26 110//26
f 112//50 110//50 106//48
f 114//51 111//51 108//49
f 111//33 112//33 105//33
f 110//50 112//50 114//51
f 111//51 114//51 112//50
g mesh3-geometry-1
usemtl Material.57774a50243e5d429f3a4ea105ec3930
f 44//52 115//53 45//53
f 45//53 116//54 43//54
f 43//54 117//55 46//55
f 115//53 44//52 118//52
f 116//54 45//53 115//53
f 117//55 43//54 116//54
f 119//56 46//55 117//55
f 54//57 118//52 44//52
f 118//58 116//58 115//58
f 116//58 118//58 117//58
f 46//55 119//56 58//56
f 117//58 120//58 119//58
f 118//52 54//57 120//57
f 117//58 118//58 120//58
f 119//56 65//59 58//56
f 119//58 120//58 121//58
f 61//60 120//57 54//57
f 65//59 119//56 122//59
f 120//57 61//60 121//60
f 119//58 121//58 122//58
f 122//59 71//61 65//59
f 61//60 123//62 121//60
f 122//58 121//58 123//58
f 123//62 61//60 67//62
f 71//61 122//59 124//61
f 122//58 123//58 124//58
f 67//62 125//63 123//62
f 124//61 77//64 71//61
f 124//58 123//58 125//58
f 125//63 67//62 73//63
f 77//64 124//61 126//64
f 124//58 125//58 126//58
f 73//63 127//65 125//63
f 126//64 83//66 77//64
f 126//58 125//58 127//58
f 127//65 73//63 79//65
f 83//66 126//64 128//66
f 126//58 127//58 128//58
f 79//65 129//67 127//65
f 128//66 89//68 83//66
f 128//58 127//58 129//58
f 129//67 79//65 85//67
f 89//68 128//66 130//68
f 128//58 129//58 130//58
f 85//67 131//69 129//67
f 130//68 95//70 89//68
f 130//58 129//58 131//58
f 131//69 85//67 91//69
f 95//70 130//68 132//70
f 130//58 131//58 132//58
f 91//69 133//71 131//69
f 134//72 95//70 132//70
f 132//58 131//58 133//58
f 133//71 91//69 97//71
f 95//70 134//72 101//72
f 132//58 133//58 134//58
f 103//73 133//71 97//71
f 135//74 101//72 134//72
f 134//58 133//58 136//58
f 133//71 103//73 136//73
f 101//72 135//74 107//74
f 134//58 136//58 135//58
f 109//75 136//73 103//73
f 137//76 107//74 135//74
f 135//58 136//58 138//58
f 136//73 109//75 138//75
f 107//74 137//76 113//76
f 135//58 138//58 137//58
f 113//76 138//75 109//75
f 138//75 113//76 137//76
