# created by Ethan Wu and Zhan isaac Ling
mtllib model.mtl
v 0.232046 -0.305864 0.022268
v 0.218897 -0.305869 -0.098562
v 0.233431 -0.305856 -0.039013
vn 0.000000 -1.000000 0.000000
v 0.214848 -0.305869 0.081101
v 0.233431 -0.285855 -0.039013
vn 0.932267 0.000000 -0.361772
vn 0.994134 0.000000 -0.108156
v 0.232046 -0.285847 0.022268
vn 0.988253 0.000000 0.152830
v 0.214848 -0.285842 0.081101
vn 0.915023 0.000000 0.403401
v 0.189453 -0.305869 -0.152322
v 0.218897 -0.285842 -0.098562
v 0.183015 -0.285846 0.133483
vn 0.779437 0.000000 0.626481
v 0.183008 -0.305873 0.133478
vn 0.806867 0.000000 -0.590733
vn 0.000000 1.000000 0.000000
v 0.189453 -0.285842 -0.152322
v 0.147100 -0.305865 -0.196632
v 0.138705 -0.305869 0.175835
vn 0.590733 0.000000 0.806867
v 0.147095 -0.285838 -0.196626
vn 0.626481 0.000000 -0.779437
v 0.138705 -0.285842 0.175835
v 0.094719 -0.305869 -0.228465
v 0.084944 -0.305869 0.205280
vn 0.361772 0.000000 0.932267
v 0.094719 -0.285842 -0.228465
vn 0.403401 0.000000 -0.915023
v 0.084942 -0.285838 0.205274
v 0.035884 -0.305869 -0.245660
v 0.035884 -0.285840 -0.245656
vn 0.152830 0.000000 -0.988253
v 0.025395 -0.305869 0.219806
vn 0.108156 0.000000 0.994134
v 0.025395 -0.285842 0.219806
v 0.036750 -0.285842 -0.042704
v -0.025395 -0.305869 -0.247041
v -0.025396 -0.285847 -0.247044
vn -0.108156 0.000000 -0.994134
v 0.036744 -0.285836 0.018929
v -0.035884 -0.305869 0.218425
vn -0.152830 0.000000 0.988253
v -0.057963 -0.285835 -0.042696
v -0.057966 -0.285837 0.018931
v -0.035885 -0.285847 0.218429
v -0.057977 0.007170 -0.042698
vn 0.000000 0.000000 -1.000000
v 0.036745 0.007164 0.018931
vn 1.000000 0.000000 0.000000
v -0.084944 -0.305869 -0.232514
v -0.084943 -0.285840 -0.232511
vn -0.361772 0.000000 -0.932267
vn 0.000000 0.000000 1.000000
v -0.094719 -0.305869 0.201231
vn -0.403401 0.000000 0.915023
v 0.036739 0.007160 -0.042694
vn -1.000000 0.000000 0.000000
v -0.057972 0.007183 0.018945
v -0.094717 -0.285840 0.201228
v -0.138705 -0.305869 -0.203070
v -0.138705 -0.285842 -0.203070
vn -0.590733 0.000000 -0.806867
v -0.147100 -0.305865 0.169397
vn -0.626481 0.000000 0.779437
v 0.034237 0.007159 -0.042689
v 0.034237 0.007159 0.018920
vn 0.000000 -1.000000 0.000000
v -0.057938 0.007200 0.018894
v -0.057981 0.118766 0.018933
v -0.147095 -0.285838 0.169391
v -0.057974 0.118771 -0.050200
v 0.096871 0.118764 0.018931
v -0.183008 -0.305873 -0.160713
v -0.183015 -0.285846 -0.160717
vn -0.779437 0.000000 -0.626481
v -0.189453 -0.285842 0.125087
vn -0.806867 0.000000 0.590733
v -0.057974 0.007173 -0.050200
v 0.096868 0.007184 0.018927
v 0.096873 0.007211 -0.042689
v 0.096873 -0.190364 0.319296
vn -1.000000 0.000000 0.000000
v 0.096871 0.007180 -0.050193
v -0.189453 -0.305869 0.125087
v 0.096868 0.118759 -0.050188
v 0.096868 0.305854 0.319290
v 0.096870 -0.190361 -0.319290
v -0.214848 -0.305869 -0.108336
vn -0.915023 0.000000 -0.403401
v -0.218897 -0.285842 0.071327
vn -0.932267 0.000000 0.361772
v -0.214848 -0.285842 -0.108336
v 0.115093 0.305862 0.319299
v -0.218897 -0.305869 0.071327
v 0.096885 0.305873 -0.319293
v 0.115099 -0.190361 0.319293
v 0.115093 -0.190367 -0.319296
v -0.232046 -0.305864 -0.049503
vn -0.988253 0.000000 -0.152830
v -0.233431 -0.285855 0.011779
vn -0.994134 0.000000 0.108156
v -0.232046 -0.285847 -0.049503
v 0.115093 -0.138462 0.294880
v 0.115097 0.305864 0.294896
v 0.115099 -0.138468 -0.301198
v 0.115089 0.305865 -0.319299
v -0.233431 -0.305856 0.011779
v 0.115099 0.279195 0.294886
v 0.115097 0.305864 -0.301208
v 0.115089 0.279186 -0.301189
v 0.233371 -0.305836 -0.039007
v 0.218855 -0.305823 -0.098545
v 0.231994 -0.305829 0.022260
vn 0.000000 1.000000 0.000000
v 0.214807 -0.305823 0.081083
v 0.233371 -0.285875 -0.039007
vn -0.994134 0.000000 0.108156
vn -0.932267 0.000000 0.361772
v 0.231994 -0.285883 0.022260
vn -0.988253 0.000000 -0.152830
v 0.214807 -0.285887 0.081083
vn -0.915023 0.000000 -0.403401
v 0.189417 -0.305823 -0.152295
v 0.218855 -0.285887 -0.098545
v 0.182975 -0.285884 0.133450
vn -0.779437 0.000000 -0.626481
v 0.182981 -0.305820 0.133456
vn -0.806867 0.000000 0.590733
v 0.189417 -0.285887 -0.152295
v 0.147068 -0.305827 -0.196592
v 0.138678 -0.305823 0.175799
vn -0.590733 0.000000 -0.806867
v 0.147073 -0.285892 -0.196598
vn -0.626481 0.000000 0.779437
v 0.138678 -0.285887 0.175799
v 0.094701 -0.305823 -0.228424
v 0.084928 -0.305823 0.205237
vn -0.361772 0.000000 -0.932267
v 0.094701 -0.285887 -0.228424
vn -0.403401 0.000000 0.915023
v 0.084930 -0.285892 0.205243
v 0.035878 -0.305823 -0.245615
v 0.035878 -0.285891 -0.245619
vn -0.152830 0.000000 0.988253
v 0.025390 -0.305823 0.219761
vn -0.108156 0.000000 -0.994134
v 0.025390 -0.285887 0.219761
v 0.036719 -0.285888 -0.042673
v -0.025390 -0.305823 -0.246996
v -0.025390 -0.285883 -0.246992
vn 0.108156 0.000000 0.994134
v 0.036724 -0.285894 0.018910
v -0.035878 -0.305823 0.218380
vn 0.152830 0.000000 -0.988253
v -0.057948 -0.285895 -0.042681
v -0.057944 -0.285893 0.018909
v -0.035877 -0.285883 0.218376
v -0.057933 0.007213 -0.042680
vn 0.000000 0.000000 1.000000
v 0.036723 0.007219 0.018909
v -0.084928 -0.305823 -0.232472
v -0.084929 -0.285891 -0.232475
vn 0.361772 0.000000 0.932267
vn 0.000000 0.000000 -1.000000
v -0.094701 -0.305823 0.201190
vn 0.403401 0.000000 -0.915023
v 0.036729 0.007223 -0.042683
vn 1.000000 0.000000 0.000000
v -0.094702 -0.285891 0.201193
v 0.036955 0.007159 -0.042689
v 0.036955 0.007223 -0.042689
v 0.036955 0.007223 0.018920
v 0.034237 0.007223 -0.042689
v 0.036955 0.007159 0.018920
v -0.138678 -0.305823 -0.203034
v -0.138678 -0.285887 -0.203034
vn 0.590733 0.000000 0.806867
v -0.147068 -0.305827 0.169358
vn 0.626481 0.000000 -0.779437
v 0.034237 0.007223 0.018920
v 0.034237 0.007223 -0.046851
v 0.034237 0.007159 -0.046851
v -0.057929 0.118740 0.018907
v 0.096924 0.007172 -0.042689
v -0.147073 -0.285892 0.169364
v -0.057937 0.118734 -0.050163
v 0.096926 0.118742 0.018909
v 0.096929 0.007199 0.018912
v 0.096926 0.007203 -0.050171
v 0.036955 0.007223 -0.046851
v 0.036955 0.007159 -0.046851
v -0.182981 -0.305820 -0.160690
v -0.182975 -0.285884 -0.160685
vn 0.779437 0.000000 0.626481
v -0.189417 -0.285887 0.125060
vn 0.806867 0.000000 -0.590733
v -0.057937 0.007210 -0.050163
v 0.096925 -0.190338 0.319270
v -0.189417 -0.305823 0.125060
v 0.096929 0.118746 -0.050175
v 0.096929 0.305839 0.319276
v 0.096928 -0.190342 -0.319270
v -0.214807 -0.305823 -0.108318
vn 0.915023 0.000000 0.403401
v -0.218855 -0.285887 0.071311
vn 0.932267 0.000000 -0.361772
v -0.214807 -0.285887 -0.108318
v 0.115047 0.305831 0.319268
v 0.115047 -0.190336 -0.319264
v -0.218855 -0.305823 0.071311
v 0.096912 0.305820 -0.319267
v 0.115041 -0.190342 0.319274
v -0.231994 -0.305829 -0.049494
vn 0.988253 0.000000 0.152830
v -0.233371 -0.285875 0.011772
vn 0.994134 0.000000 -0.108156
v -0.231994 -0.285883 -0.049494
v 0.115047 -0.138493 0.294911
v 0.115044 0.305829 0.294896
v 0.115041 -0.138487 -0.301217
v 0.115052 0.305828 -0.319262
v -0.233371 -0.305836 0.011772
v 0.115041 0.279214 0.294905
v 0.115044 0.305829 -0.301208
v 0.110093 -0.138459 -0.301189
v 0.110056 -0.138496 -0.301226
v 0.110093 0.279186 0.294877
v 0.110056 0.279223 0.294914
v 0.115052 0.279223 -0.301226
v 0.110093 -0.138459 0.294877
v 0.110056 -0.138496 0.294914
v 0.110093 0.279186 -0.301189
v 0.110056 0.279223 -0.301226
v 0.110107 -0.170370 0.294896
v 0.110107 -0.170370 -0.301208
v 0.110107 0.276707 0.294896
vn 1.000000 0.000000 0.000000
vt 0.0 0.0
vt 1.0 0.0
vt 0.0 1.0
v 0.110043 -0.170370 0.294896
v 0.110043 0.276707 0.294896
v 0.110043 -0.170370 -0.301208
vn -1.000000 0.000000 0.000000
v 0.110107 0.276707 -0.301208
vt 1.0 1.0
v 0.110043 0.276707 -0.301208
v 0.115102 -0.190351 0.042515
v 0.115102 -0.190351 -0.069490
v 0.115102 -0.138477 0.042515
vn 1.000000 0.000000 0.000000
vt 0.0 0.0
vt 1.0 0.0
vt 0.0 1.0
v 0.115038 -0.190351 0.042515
v 0.115038 -0.138477 0.042515
v 0.115038 -0.190351 -0.069490
vn -1.000000 0.000000 0.000000
v 0.115102 -0.138477 -0.069490
vt 1.0 1.0
v 0.115038 -0.138477 -0.069490
g mesh1-geometry-0
usemtl Material.57774a50243e5d429f3a4ea105ec3930
f 1//1 2//1 3//1
f 2//1 1//1 4//1
f 2//2 5//3 3//3
f 3//3 6//4 1//4
f 1//4 7//5 4//5
f 2//1 4//1 8//1
f 5//3 2//2 9//2
f 6//4 3//3 5//3
f 7//5 1//4 6//4
f 10//6 4//5 7//5
f 8//1 4//1 11//1
f 8//7 9//2 2//2
f 9//8 6//8 5//8
f 6//8 9//8 7//8
f 4//5 10//6 11//6
f 7//8 12//8 10//8
f 8//1 11//1 13//1
f 9//2 8//7 12//7
f 7//8 9//8 12//8
f 10//6 14//9 11//6
f 10//8 12//8 15//8
f 13//1 11//1 14//1
f 13//10 12//7 8//7
f 14//9 10//6 16//9
f 12//7 13//10 15//10
f 10//8 15//8 16//8
f 13//1 14//1 17//1
f 16//9 18//11 14//9
f 13//10 19//12 15//10
f 16//8 15//8 19//8
f 17//1 14//1 18//1
f 19//12 13//10 17//12
f 18//11 16//9 20//11
f 16//8 19//8 20//8
f 17//1 18//1 21//1
f 17//12 22//13 19//12
f 20//11 23//14 18//11
f 20//8 19//8 22//8
f 21//1 18//1 23//1
f 22//13 17//12 21//13
f 23//14 20//11 24//14
f 20//8 22//8 25//8
f 21//1 23//1 26//1
f 21//13 27//15 22//13
f 20//8 28//8 24//8
f 24//14 29//16 23//14
f 25//8 22//8 30//8
f 28//8 20//8 25//8
f 26//1 23//1 29//1
f 27//15 21//13 26//15
f 30//8 22//8 27//8
f 24//8 28//8 31//8
f 29//16 24//14 32//16
f 33//17 25//17 30//17
f 25//18 34//18 28//18
f 26//1 29//1 35//1
f 26//15 36//19 27//15
f 30//8 27//8 36//8
f 34//20 31//20 28//20
f 24//8 31//8 32//8
f 32//16 37//21 29//16
f 25//17 33//17 38//17
f 31//22 33//22 30//22
f 34//18 25//18 38//18
f 35//1 29//1 37//1
f 36//19 26//15 35//19
f 30//8 36//8 31//8
f 31//20 34//20 39//20
f 32//8 31//8 40//8
f 37//21 32//16 40//21
f 33//22 31//22 39//22
f 35//1 37//1 41//1
f 35//19 42//23 36//19
f 40//8 31//8 36//8
f 40//21 43//24 37//21
f 44//25 45//25 33//25
f 46//25 33//25 45//25
f 47//22 33//22 39//22
f 41//1 37//1 43//1
f 42//23 35//19 41//23
f 40//8 36//8 42//8
f 43//24 40//21 48//24
f 49//22 33//22 47//22
f 39//20 50//20 47//20
f 41//1 43//1 51//1
f 41//23 52//26 42//23
f 40//8 42//8 48//8
f 53//27 43//24 48//24
f 33//22 49//22 54//22
f 50//8 49//8 47//8
f 50//20 39//20 55//20
f 55//28 56//28 57//28
f 56//28 58//28 57//28
f 51//1 43//1 59//1
f 52//26 41//23 51//26
f 48//8 42//8 52//8
f 43//24 53//27 59//27
f 48//8 52//8 53//8
f 49//17 58//17 54//17
f 49//8 50//8 60//8
f 55//28 61//28 50//28
f 61//28 55//28 57//28
f 57//28 58//28 62//28
f 51//1 59//1 63//1
f 63//29 52//26 51//26
f 64//30 59//27 53//27
f 53//8 52//8 65//8
f 58//17 49//17 60//17
f 50//28 61//28 60//28
f 57//20 66//20 61//20
f 60//28 62//28 58//28
f 63//1 59//1 67//1
f 52//26 63//29 65//29
f 59//27 64//30 67//30
f 53//8 65//8 64//8
f 61//28 68//28 60//28
f 66//20 57//20 69//20
f 66//8 68//8 61//8
f 62//28 60//28 68//28
f 68//17 70//17 62//17
f 63//1 67//1 71//1
f 71//31 65//29 63//29
f 72//32 67//30 64//30
f 64//8 65//8 73//8
f 69//18 74//18 66//18
f 75//8 68//8 66//8
f 70//18 76//18 69//18
f 70//17 68//17 77//17
f 71//1 67//1 78//1
f 65//29 71//31 73//31
f 67//30 72//32 78//32
f 64//8 73//8 72//8
f 69//18 76//18 74//18
f 79//18 66//18 74//18
f 80//8 68//8 75//8
f 66//18 79//18 75//18
f 70//18 80//18 76//18
f 68//8 80//8 77//8
f 80//18 70//18 77//18
f 78//32 73//31 71//31
f 73//31 78//32 72//32
f 75//18 81//18 80//18
f 81//18 75//18 79//18
g mesh1-geometry-1
usemtl Material.90b00bf69165eda831fe702671104217
f 82//33 83//33 84//33
f 85//33 84//33 83//33
f 82//34 86//34 83//35
f 84//36 87//36 82//34
f 85//37 88//37 84//36
f 89//33 85//33 83//33
f 90//35 83//35 86//34
f 86//34 82//34 87//36
f 87//36 84//36 88//37
f 88//37 85//37 91//38
f 92//33 85//33 89//33
f 83//35 90//35 89//39
f 86//25 87//25 90//25
f 88//25 90//25 87//25
f 92//38 91//38 85//37
f 91//25 93//25 88//25
f 94//33 92//33 89//33
f 93//39 89//39 90//35
f 93//25 90//25 88//25
f 92//38 95//40 91//38
f 96//25 93//25 91//25
f 95//33 92//33 94//33
f 89//39 93//39 94//41
f 97//40 91//38 95//40
f 96//41 94//41 93//39
f 97//25 96//25 91//25
f 98//33 95//33 94//33
f 95//40 99//42 97//40
f 96//41 100//43 94//41
f 100//25 96//25 97//25
f 99//33 95//33 98//33
f 98//43 94//41 100//43
f 101//42 97//40 99//42
f 101//25 100//25 97//25
f 102//33 99//33 98//33
f 100//43 103//44 98//43
f 99//42 104//45 101//42
f 103//25 100//25 101//25
f 104//33 99//33 102//33
f 102//44 98//43 103//44
f 105//45 101//42 104//45
f 106//25 103//25 101//25
f 107//33 104//33 102//33
f 103//44 108//46 102//44
f 105//25 109//25 101//25
f 104//45 110//47 105//45
f 111//25 103//25 106//25
f 106//25 101//25 109//25
f 110//33 104//33 107//33
f 107//46 102//44 108//46
f 108//25 103//25 111//25
f 112//25 109//25 105//25
f 113//47 105//45 110//47
f 111//48 106//48 114//48
f 109//28 115//28 106//28
f 116//33 110//33 107//33
f 108//46 117//49 107//46
f 117//25 108//25 111//25
f 109//50 112//50 115//50
f 113//25 112//25 105//25
f 110//47 118//51 113//47
f 119//48 114//48 106//48
f 111//52 114//52 112//52
f 119//28 106//28 115//28
f 118//33 110//33 116//33
f 116//49 107//46 117//49
f 112//25 117//25 111//25
f 46//50 115//50 112//50
f 120//25 112//25 113//25
f 120//51 113//47 118//51
f 46//52 112//52 114//52
f 121//1 34//1 38//1
f 119//33 115//33 122//33
f 123//8 119//8 115//8
f 115//8 119//8 124//8
f 34//25 38//25 125//25
f 44//25 38//25 34//25
f 126//33 118//33 116//33
f 117//49 127//53 116//49
f 117//25 112//25 120//25
f 118//51 128//54 120//51
f 114//8 129//8 124//8
f 119//8 130//8 124//8
f 44//25 131//25 38//25
f 129//8 114//8 39//8
f 46//52 114//52 132//52
f 133//1 39//1 33//1
f 114//33 46//33 56//33
f 34//1 121//1 123//1
f 125//33 122//33 115//33
f 122//8 130//8 119//8
f 38//25 131//25 121//25
f 119//8 123//8 122//8
f 121//25 125//25 38//25
f 115//8 124//8 129//8
f 45//25 44//25 34//25
f 128//33 118//33 126//33
f 126//53 116//49 127//53
f 127//25 117//25 120//25
f 134//54 120//51 128//54
f 132//52 114//52 135//52
f 132//50 136//50 46//50
f 39//1 133//1 55//1
f 137//33 56//33 46//33
f 33//1 58//1 133//1
f 56//33 138//33 114//33
f 130//8 122//8 139//8
f 140//25 121//25 131//25
f 141//33 128//33 126//33
f 127//53 142//55 126//53
f 134//25 127//25 120//25
f 134//54 128//54 143//56
f 144//52 135//52 114//52
f 132//25 135//25 136//25
f 137//50 46//50 136//50
f 133//18 136//18 137//18
f 55//28 50//28 56//28
f 145//18 133//18 137//18
f 58//1 33//1 54//1
f 144//33 114//33 138//33
f 138//18 136//18 133//18
f 56//28 50//28 58//28
f 145//18 138//18 133//18
f 146//33 128//33 141//33
f 141//55 126//53 142//55
f 142//25 127//25 134//25
f 146//56 143//56 128//54
f 143//25 142//25 134//25
f 144//48 138//48 135//48
f 147//25 136//25 135//25
f 136//18 148//18 137//18
f 145//18 137//18 148//18
f 136//18 138//18 147//18
f 60//28 58//28 50//28
f 149//18 138//18 145//18
f 150//33 146//33 141//33
f 141//55 142//55 150//57
f 143//56 146//56 151//58
f 152//25 142//25 143//25
f 147//48 135//48 138//48
f 147//18 148//18 136//18
f 148//50 153//50 145//50
f 138//18 149//18 147//18
f 70//1 57//1 62//1
f 149//33 145//33 154//33
f 155//33 146//33 150//33
f 152//57 150//57 142//55
f 155//58 151//58 146//56
f 151//25 152//25 143//25
f 147//18 156//18 148//18
f 157//50 145//50 153//50
f 148//25 156//25 153//25
f 156//18 147//18 149//18
f 57//1 70//1 69//1
f 157//33 154//33 145//33
f 149//48 154//48 156//48
f 158//33 155//33 150//33
f 150//57 152//57 158//59
f 151//58 155//58 159//60
f 160//25 152//25 151//25
f 153//28 161//28 157//28
f 153//25 156//25 162//25
f 157//28 163//28 154//28
f 164//48 156//48 154//48
f 165//33 155//33 158//33
f 160//59 158//59 152//57
f 165//60 159//60 155//58
f 159//25 160//25 151//25
f 161//28 163//28 157//28
f 161//28 153//28 166//28
f 162//25 156//25 167//25
f 162//28 166//28 153//28
f 163//28 167//28 154//28
f 164//25 167//25 156//25
f 164//28 154//28 167//28
f 158//59 160//59 165//60
f 159//60 165//60 160//59
f 168//8 74//8 76//8
f 163//25 161//25 169//25
f 74//17 170//17 79//17
f 166//48 171//48 161//48
f 167//28 172//28 162//28
f 166//28 162//28 172//28
f 74//8 168//8 173//8
f 174//25 169//25 161//25
f 81//20 168//20 76//20
f 163//50 169//50 172//50
f 170//17 74//17 173//17
f 174//48 161//48 171//48
f 170//1 81//1 79//1
f 166//33 172//33 171//33
f 168//18 170//18 173//18
f 174//28 171//28 169//28
f 168//20 81//20 175//20
f 176//50 172//50 169//50
f 81//1 170//1 175//1
f 176//33 171//33 172//33
f 170//18 168//18 175//18
f 176//28 169//28 171//28
g mesh2-geometry-0
usemtl Material.faca4c01f4ad453eabbac40374a1bb14
f 177/1/61 178/2/61 179/3/61
f 180/1/62 181/3/62 182/2/62
f 183/4/61 179/3/61 178/2/61
f 184/4/62 182/2/62 181/3/62
g mesh3-geometry-0
usemtl Material.ff2b76dd9d013336f15786b2b7f09a50
f 185/5/63 186/6/63 187/7/63
f 188/5/64 189/7/64 190/6/64
f 191/8/63 187/7/63 186/6/63
f 192/8/64 190/6/64 189/7/64
