# created by Ethan Wu and Zhan isaac Ling
mtllib model.mtl
v -0.017356 -0.168053 0.247608
v 0.018717 -0.168060 -0.317151
v 0.018717 -0.168060 0.247616
vn 0.000000 -1.000000 0.000000
v -0.017356 -0.168053 -0.317143
v 0.018717 0.168060 0.247616
vn 1.000000 0.000000 0.000000
vn 0.000000 0.000000 1.000000
v -0.017364 -0.157450 -0.302686
vn -1.000000 0.000000 0.000000
v -0.017351 0.168056 -0.317146
vn 0.000000 0.000000 -1.000000
v 0.018717 0.168060 -0.317151
v -0.017360 0.168047 0.247603
v -0.017364 -0.157450 0.236821
vn 0.000000 1.000000 0.000000
v -0.017364 0.154612 0.236821
v -0.017364 0.154612 -0.302686
v 0.018663 -0.168006 0.247562
v 0.018663 -0.168006 -0.317096
v -0.017279 -0.168014 0.247570
vn 0.000000 1.000000 0.000000
v -0.017279 -0.168014 -0.317104
v 0.018663 0.168006 0.247562
vn -1.000000 0.000000 0.000000
vn 0.000000 0.000000 -1.000000
v -0.017271 -0.157450 -0.302686
vn 1.000000 0.000000 0.000000
v -0.017284 0.168011 -0.317101
vn 0.000000 0.000000 1.000000
v 0.018663 0.168006 -0.317096
v -0.017275 0.168019 0.247575
v -0.017271 -0.157450 0.236821
vn 0.000000 -1.000000 0.000000
v -0.017271 0.154612 0.236821
v -0.017271 0.154612 -0.302686
v -0.065298 -0.168041 -0.313594
v 0.065300 -0.168060 -0.466360
v 0.065300 -0.168060 -0.313575
vn 0.000000 -1.000000 0.000000
v -0.065298 -0.168041 -0.466341
v 0.065300 0.132353 -0.313575
vn 1.000000 0.000000 0.000000
vn 0.000000 0.000000 1.000000
v -0.065300 -0.106382 -0.422840
vn -1.000000 0.000000 0.000000
v -0.065297 0.132337 -0.466341
vn 0.000000 0.000000 -1.000000
v 0.065300 0.132353 -0.466360
v -0.065299 0.132332 -0.313597
v -0.065300 -0.099691 -0.433065
v -0.065300 -0.110198 -0.411232
v -0.065300 -0.067712 -0.449217
vn 0.000000 1.000000 0.000000
v -0.065300 0.067684 -0.353660
v -0.065300 -0.090581 -0.441209
v -0.065300 -0.110881 -0.399031
v -0.065300 -0.079673 -0.446719
v -0.065300 0.071114 -0.451419
v -0.065300 0.117057 -0.413534
v -0.065300 0.080394 -0.354882
v -0.065300 0.055092 -0.355769
v -0.065300 -0.108382 -0.387070
v -0.065300 0.058404 -0.450197
v -0.065300 0.083706 -0.449310
v -0.065300 0.112587 -0.425494
v -0.065300 0.118279 -0.400825
v -0.065300 0.092354 -0.359351
v -0.065300 -0.060695 -0.355862
v -0.065300 0.027925 -0.428464
v -0.065300 -0.033678 -0.438027
v -0.065300 -0.025534 -0.428917
v -0.065300 -0.020024 -0.418010
v -0.065300 -0.102873 -0.376162
v -0.065300 0.022629 -0.416847
v -0.065300 -0.017526 -0.406048
v -0.065300 0.046444 -0.445728
v -0.065300 -0.055511 -0.448535
v -0.065300 0.095324 -0.444013
v -0.065300 0.105175 -0.435890
v -0.065300 0.116169 -0.388233
v -0.065300 0.102750 -0.366764
v -0.065300 -0.072895 -0.356544
v -0.065300 -0.048733 -0.358361
v -0.065300 0.036048 -0.438315
v -0.065300 -0.043903 -0.444718
v -0.065300 -0.094728 -0.367053
v -0.065300 0.020519 -0.404254
v -0.065300 -0.018208 -0.393848
v -0.065300 0.110873 -0.376615
v -0.065300 -0.084504 -0.360361
v -0.065300 0.043474 -0.361066
v -0.065300 0.021741 -0.391545
v -0.065300 -0.022025 -0.382239
v -0.065300 -0.037826 -0.363870
v -0.065300 0.026211 -0.379584
v -0.065300 -0.028716 -0.372014
v -0.065300 0.033624 -0.369189
v 0.065246 -0.168006 -0.313628
v 0.065246 -0.168006 -0.466305
v -0.065207 -0.168026 -0.313609
vn 0.000000 1.000000 0.000000
v -0.065207 -0.168026 -0.466325
v 0.065246 0.132299 -0.313628
vn -1.000000 0.000000 0.000000
vn 0.000000 0.000000 -1.000000
v -0.065207 -0.106382 -0.422840
vn 1.000000 0.000000 0.000000
v -0.065209 0.132315 -0.466321
vn 0.000000 0.000000 1.000000
v 0.065246 0.132299 -0.466305
v -0.065207 0.132321 -0.313607
v -0.065207 -0.099691 -0.433065
v -0.065207 -0.110198 -0.411232
v -0.065207 -0.067712 -0.449217
vn 0.000000 -1.000000 0.000000
v -0.065207 0.067684 -0.353660
v -0.065207 -0.090581 -0.441209
v -0.065207 -0.025534 -0.428917
v -0.065207 -0.110881 -0.399031
v -0.065207 -0.020024 -0.418010
v -0.065207 -0.079673 -0.446719
v -0.065207 0.071114 -0.451419
v -0.065207 0.117057 -0.413534
v -0.065207 0.080394 -0.354882
v -0.065207 0.055092 -0.355769
v -0.065207 -0.033678 -0.438027
v -0.065207 -0.108382 -0.387070
v -0.065207 -0.017526 -0.406048
v -0.065207 -0.055511 -0.448535
v -0.065207 0.058404 -0.450197
v -0.065207 0.083706 -0.449310
v -0.065207 0.112587 -0.425494
v -0.065207 0.118279 -0.400825
v -0.065207 0.092354 -0.359351
v -0.065207 -0.060695 -0.355862
v -0.065207 -0.043903 -0.444718
v -0.065207 0.027925 -0.428464
v -0.065207 -0.102873 -0.376162
v -0.065207 -0.018208 -0.393848
v -0.065207 0.022629 -0.416847
v -0.065207 0.046444 -0.445728
v -0.065207 0.095324 -0.444013
v -0.065207 0.105175 -0.435890
v -0.065207 0.020519 -0.404254
v -0.065207 0.116169 -0.388233
v -0.065207 0.102750 -0.366764
v -0.065207 -0.072895 -0.356544
v -0.065207 -0.048733 -0.358361
v -0.065207 0.036048 -0.438315
v -0.065207 -0.094728 -0.367053
v -0.065207 -0.022025 -0.382239
v -0.065207 0.021741 -0.391545
v -0.065207 0.110873 -0.376615
v -0.065207 0.043474 -0.361066
v -0.065207 -0.084504 -0.360361
v -0.065207 -0.028716 -0.372014
v -0.065207 0.026211 -0.379584
v -0.065207 0.033624 -0.369189
v -0.065207 -0.037826 -0.363870
v -0.053875 -0.168042 0.466341
v 0.059920 -0.168060 0.252062
v 0.059920 -0.168060 0.466360
vn 0.000000 -1.000000 0.000000
v -0.053876 -0.168041 0.252082
v 0.059920 0.133854 0.466360
vn 1.000000 0.000000 0.000000
vn 0.000000 0.000000 1.000000
v -0.053877 -0.138849 0.363129
vn -1.000000 0.000000 0.000000
v -0.053874 0.133838 0.252079
vn 0.000000 0.000000 -1.000000
v 0.059920 0.133854 0.252062
v -0.053876 0.133831 0.466337
v -0.053877 -0.133933 0.351260
v -0.053877 -0.140526 0.375865
v -0.053877 -0.104053 0.328332
vn 0.000000 1.000000 0.000000
v -0.053877 0.021135 0.431076
v -0.053877 -0.126112 0.341069
v -0.053877 -0.138849 0.388601
v -0.053877 -0.115921 0.333248
v -0.053877 -0.091316 0.326655
v -0.053877 0.068949 0.348260
v -0.053877 0.035424 0.429195
v -0.053877 0.006845 0.429195
v -0.053877 -0.133933 0.400470
v -0.053877 0.021135 0.320654
v -0.053877 0.060175 0.336825
v -0.053877 0.074464 0.361576
v -0.053877 0.048740 0.423679
v -0.053877 -0.091316 0.425075
v -0.053877 -0.026680 0.348260
v -0.053877 -0.056519 0.341069
v -0.053877 -0.048699 0.351260
v -0.053877 -0.032195 0.361576
v -0.053877 -0.043783 0.363129
v -0.053877 -0.126112 0.410662
v -0.053877 -0.034076 0.375865
v -0.053877 -0.042106 0.375865
v -0.053877 -0.006471 0.328051
v -0.053877 -0.078580 0.328332
v -0.053877 0.006845 0.322535
v -0.053877 0.035424 0.322535
v -0.053877 0.048740 0.328051
v -0.053877 0.076346 0.375865
v -0.053877 0.060175 0.414905
v -0.053877 -0.104053 0.423398
v -0.053877 -0.006471 0.423679
v -0.053877 -0.017906 0.336825
v -0.053877 -0.066711 0.333248
v -0.053877 -0.115921 0.418482
v -0.053877 -0.043783 0.388601
v -0.053877 0.074464 0.390155
v -0.053877 0.068949 0.403470
v -0.053877 -0.078580 0.423398
v -0.053877 -0.032195 0.390155
v -0.053877 -0.048699 0.400470
v -0.053877 -0.066711 0.418482
v -0.053877 -0.026680 0.403470
v -0.053877 -0.056519 0.410662
v -0.053877 -0.017906 0.414905
v 0.059866 -0.168006 0.466305
v 0.059866 -0.168006 0.252116
v -0.053785 -0.168025 0.466324
vn 0.000000 1.000000 0.000000
v -0.053785 -0.168026 0.252097
v 0.059866 0.133800 0.466305
vn -1.000000 0.000000 0.000000
vn 0.000000 0.000000 -1.000000
v -0.053783 -0.138849 0.363129
vn 1.000000 0.000000 0.000000
v -0.053786 0.133816 0.252100
vn 0.000000 0.000000 1.000000
v 0.059866 0.133800 0.252116
v -0.053784 0.133822 0.466327
v -0.053783 -0.133933 0.351260
v -0.053783 -0.140526 0.375865
v -0.053783 -0.104053 0.328332
vn 0.000000 -1.000000 0.000000
v -0.053783 0.021135 0.431076
v -0.053783 -0.126112 0.341069
v -0.053783 -0.048699 0.351260
v -0.053783 -0.138849 0.388601
v -0.053783 -0.043783 0.363129
v -0.053783 -0.115921 0.333248
v -0.053783 -0.091316 0.326655
v -0.053783 0.068949 0.348260
v -0.053783 0.035424 0.429195
v -0.053783 0.006845 0.429195
v -0.053783 -0.056519 0.341069
v -0.053783 -0.133933 0.400470
v -0.053783 -0.042106 0.375865
v -0.053783 -0.078580 0.328332
v -0.053783 0.021135 0.320654
v -0.053783 0.060175 0.336825
v -0.053783 0.074464 0.361576
v -0.053783 0.048740 0.423679
v -0.053783 -0.091316 0.425075
v -0.053783 -0.066711 0.333248
v -0.053783 -0.026680 0.348260
v -0.053783 -0.032195 0.361576
v -0.053783 -0.126112 0.410662
v -0.053783 -0.043783 0.388601
v -0.053783 -0.034076 0.375865
v -0.053783 -0.006471 0.328051
v -0.053783 0.006845 0.322535
v -0.053783 0.035424 0.322535
v -0.053783 0.048740 0.328051
v -0.053783 0.076346 0.375865
v -0.053783 0.060175 0.414905
v -0.053783 -0.104053 0.423398
v -0.053783 -0.006471 0.423679
v -0.053783 -0.017906 0.336825
v -0.053783 -0.115921 0.418482
v -0.053783 -0.048699 0.400470
v -0.053783 0.074464 0.390155
v -0.053783 0.068949 0.403470
v -0.053783 -0.078580 0.423398
v -0.053783 -0.056519 0.410662
v -0.053783 -0.032195 0.390155
v -0.053783 -0.017906 0.414905
v -0.053783 -0.066711 0.418482
v -0.053783 -0.026680 0.403470
g mesh1-geometry-0
usemtl Material.57774a50243e5d429f3a4ea105ec3930
f 1//1 2//1 3//1
f 2//1 1//1 4//1
f 2//2 5//2 3//2
f 5//3 1//3 3//3
f 6//4 4//4 1//4
f 7//5 2//5 4//5
f 5//2 2//2 8//2
f 1//3 5//3 9//3
f 4//4 6//4 7//4
f 6//4 1//4 10//4
f 2//5 7//5 8//5
f 7//6 5//6 8//6
f 5//6 7//6 9//6
f 9//4 11//4 1//4
f 12//4 7//4 6//4
f 10//4 1//4 11//4
f 7//4 12//4 9//4
f 9//4 12//4 11//4
g mesh1-geometry-1
usemtl Material.90b00bf69165eda831fe702671104217
f 13//7 14//7 15//7
f 16//7 15//7 14//7
f 13//8 17//8 14//8
f 13//9 15//9 17//9
f 15//10 16//10 18//10
f 16//11 14//11 19//11
f 20//8 14//8 17//8
f 21//9 17//9 15//9
f 19//10 18//10 16//10
f 22//10 15//10 18//10
f 20//11 19//11 14//11
f 20//12 17//12 19//12
f 21//12 19//12 17//12
f 15//10 23//10 21//10
f 18//10 19//10 24//10
f 23//10 15//10 22//10
f 18//10 24//10 22//10
f 21//10 24//10 19//10
f 23//10 24//10 21//10
f 23//10 22//10 24//10
g mesh1-geometry-2
usemtl Material.dc7a3ca9ca091ddbf48733c3a604f557
f 10//4 12//4 6//4
f 12//4 10//4 11//4
g mesh2-geometry-0
usemtl Material.57774a50243e5d429f3a4ea105ec3930
f 25//13 26//13 27//13
f 26//13 25//13 28//13
f 26//14 29//14 27//14
f 29//15 25//15 27//15
f 30//16 28//16 25//16
f 31//17 26//17 28//17
f 29//14 26//14 32//14
f 25//15 29//15 33//15
f 34//16 28//16 30//16
f 30//16 25//16 35//16
f 26//17 31//17 32//17
f 28//16 36//16 31//16
f 31//18 29//18 32//18
f 29//18 31//18 33//18
f 33//16 37//16 25//16
f 38//16 28//16 34//16
f 35//16 25//16 39//16
f 36//16 28//16 40//16
f 31//16 36//16 41//16
f 31//16 42//16 33//16
f 33//16 43//16 37//16
f 44//16 25//16 37//16
f 40//16 28//16 38//16
f 39//16 25//16 45//16
f 41//16 36//16 46//16
f 47//16 31//16 41//16
f 42//16 31//16 48//16
f 33//16 42//16 49//16
f 33//16 50//16 43//16
f 51//16 25//16 44//16
f 52//16 53//16 54//16
f 52//16 54//16 55//16
f 45//16 25//16 56//16
f 57//16 55//16 58//16
f 59//16 36//16 60//16
f 36//16 59//16 46//16
f 61//16 31//16 47//16
f 48//16 31//16 62//16
f 33//16 49//16 63//16
f 33//16 64//16 50//16
f 65//16 25//16 51//16
f 44//16 66//16 51//16
f 67//16 68//16 53//16
f 67//16 53//16 52//16
f 52//16 55//16 57//16
f 56//16 25//16 69//16
f 70//16 58//16 71//16
f 57//16 58//16 70//16
f 59//16 60//16 68//16
f 62//16 31//16 61//16
f 33//16 63//16 72//16
f 33//16 72//16 64//16
f 73//16 25//16 65//16
f 74//16 66//16 44//16
f 59//16 68//16 67//16
f 69//16 25//16 73//16
f 75//16 71//16 76//16
f 70//16 71//16 75//16
f 74//16 77//16 66//16
f 78//16 76//16 79//16
f 75//16 76//16 78//16
f 80//16 77//16 74//16
f 80//16 79//16 77//16
f 78//16 79//16 80//16
g mesh2-geometry-1
usemtl Material.90b00bf69165eda831fe702671104217
f 81//19 82//19 83//19
f 84//19 83//19 82//19
f 81//20 85//20 82//20
f 81//21 83//21 85//21
f 83//22 84//22 86//22
f 84//23 82//23 87//23
f 88//20 82//20 85//20
f 89//21 85//21 83//21
f 86//22 84//22 90//22
f 91//22 83//22 86//22
f 88//23 87//23 82//23
f 87//22 92//22 84//22
f 88//24 85//24 87//24
f 89//24 87//24 85//24
f 83//22 93//22 89//22
f 90//22 84//22 94//22
f 86//22 90//22 95//22
f 96//22 83//22 91//22
f 91//22 86//22 97//22
f 98//22 84//22 92//22
f 99//22 92//22 87//22
f 89//22 100//22 87//22
f 93//22 101//22 89//22
f 93//22 83//22 102//22
f 94//22 84//22 98//22
f 90//22 94//22 103//22
f 95//22 90//22 103//22
f 97//22 86//22 95//22
f 104//22 83//22 96//22
f 96//22 91//22 105//22
f 105//22 91//22 97//22
f 92//22 106//22 98//22
f 107//22 92//22 99//22
f 99//22 87//22 108//22
f 109//22 87//22 100//22
f 110//22 100//22 89//22
f 101//22 111//22 89//22
f 93//22 102//22 101//22
f 102//22 83//22 112//22
f 94//22 98//22 113//22
f 103//22 94//22 113//22
f 95//22 103//22 114//22
f 97//22 95//22 114//22
f 115//22 83//22 104//22
f 104//22 96//22 116//22
f 116//22 96//22 105//22
f 105//22 97//22 117//22
f 113//22 98//22 106//22
f 106//22 92//22 118//22
f 107//22 118//22 92//22
f 99//22 108//22 107//22
f 108//22 87//22 119//22
f 120//22 87//22 109//22
f 100//22 117//22 109//22
f 110//22 121//22 100//22
f 122//22 110//22 89//22
f 111//22 123//22 89//22
f 101//22 102//22 111//22
f 112//22 83//22 124//22
f 112//22 125//22 102//22
f 103//22 113//22 126//22
f 114//22 103//22 126//22
f 117//22 97//22 114//22
f 127//22 83//22 115//22
f 115//22 104//22 128//22
f 128//22 104//22 116//22
f 116//22 105//22 121//22
f 121//22 105//22 117//22
f 113//22 106//22 118//22
f 118//22 107//22 108//22
f 119//22 87//22 120//22
f 119//22 118//22 108//22
f 109//22 114//22 120//22
f 117//22 114//22 109//22
f 121//22 117//22 100//22
f 129//22 121//22 110//22
f 122//22 129//22 110//22
f 130//22 122//22 89//22
f 123//22 130//22 89//22
f 111//22 131//22 123//22
f 102//22 131//22 111//22
f 124//22 83//22 132//22
f 112//22 124//22 125//22
f 102//22 125//22 131//22
f 126//22 113//22 118//22
f 114//22 126//22 120//22
f 132//22 83//22 127//22
f 127//22 115//22 133//22
f 133//22 115//22 128//22
f 128//22 116//22 129//22
f 129//22 116//22 121//22
f 120//22 126//22 119//22
f 126//22 118//22 119//22
f 134//22 129//22 122//22
f 130//22 134//22 122//22
f 123//22 135//22 130//22
f 131//22 135//22 123//22
f 124//22 132//22 125//22
f 125//22 136//22 131//22
f 132//22 127//22 136//22
f 136//22 127//22 133//22
f 133//22 128//22 134//22
f 134//22 128//22 129//22
f 135//22 134//22 130//22
f 131//22 136//22 135//22
f 125//22 132//22 136//22
f 136//22 133//22 135//22
f 135//22 133//22 134//22
g mesh2-geometry-2
usemtl Material.b2cdaf4394d1a4f850458878b81c7fa1
f 54//16 34//16 30//16
f 55//16 30//16 35//16
f 53//16 38//16 34//16
f 53//16 34//16 54//16
f 54//16 30//16 55//16
f 58//16 35//16 39//16
f 55//16 35//16 58//16
f 40//16 60//16 36//16
f 43//16 44//16 37//16
f 68//16 40//16 38//16
f 68//16 38//16 53//16
f 71//16 39//16 45//16
f 58//16 39//16 71//16
f 60//16 40//16 68//16
f 46//16 47//16 41//16
f 48//16 57//16 42//16
f 42//16 70//16 49//16
f 50//16 44//16 43//16
f 76//16 45//16 56//16
f 71//16 45//16 76//16
f 47//16 46//16 59//16
f 47//16 59//16 61//16
f 62//16 52//16 48//16
f 48//16 52//16 57//16
f 42//16 57//16 70//16
f 49//16 70//16 75//16
f 49//16 75//16 63//16
f 64//16 74//16 50//16
f 50//16 74//16 44//16
f 66//16 65//16 51//16
f 62//16 67//16 52//16
f 79//16 56//16 69//16
f 76//16 56//16 79//16
f 61//16 67//16 62//16
f 61//16 59//16 67//16
f 63//16 75//16 78//16
f 63//16 78//16 72//16
f 72//16 80//16 64//16
f 64//16 80//16 74//16
f 66//16 73//16 65//16
f 77//16 69//16 73//16
f 79//16 69//16 77//16
f 72//16 78//16 80//16
f 77//16 73//16 66//16
g mesh3-geometry-0
usemtl Material.57774a50243e5d429f3a4ea105ec3930
f 137//25 138//25 139//25
f 138//25 137//25 140//25
f 138//26 141//26 139//26
f 141//27 137//27 139//27
f 142//28 140//28 137//28
f 143//29 138//29 140//29
f 141//26 138//26 144//26
f 137//27 141//27 145//27
f 146//28 140//28 142//28
f 142//28 137//28 147//28
f 138//29 143//29 144//29
f 140//28 148//28 143//28
f 143//30 141//30 144//30
f 141//30 143//30 145//30
f 145//28 149//28 137//28
f 150//28 140//28 146//28
f 147//28 137//28 151//28
f 148//28 140//28 152//28
f 143//28 148//28 153//28
f 143//28 154//28 145//28
f 145//28 155//28 149//28
f 156//28 137//28 149//28
f 152//28 140//28 150//28
f 151//28 137//28 157//28
f 143//28 153//28 158//28
f 154//28 143//28 159//28
f 145//28 154//28 160//28
f 145//28 161//28 155//28
f 162//28 137//28 156//28
f 163//28 164//28 165//28
f 166//28 165//28 167//28
f 157//28 137//28 168//28
f 169//28 167//28 170//28
f 171//28 153//28 172//28
f 158//28 153//28 173//28
f 174//28 143//28 158//28
f 159//28 143//28 175//28
f 145//28 160//28 176//28
f 145//28 177//28 161//28
f 178//28 137//28 162//28
f 179//28 162//28 156//28
f 180//28 181//28 164//28
f 180//28 164//28 163//28
f 163//28 165//28 166//28
f 166//28 167//28 169//28
f 168//28 137//28 182//28
f 169//28 170//28 183//28
f 180//28 172//28 181//28
f 153//28 171//28 173//28
f 171//28 172//28 180//28
f 175//28 143//28 174//28
f 145//28 176//28 184//28
f 145//28 185//28 177//28
f 182//28 137//28 178//28
f 179//28 186//28 162//28
f 187//28 183//28 188//28
f 169//28 183//28 187//28
f 145//28 184//28 185//28
f 179//28 189//28 186//28
f 190//28 188//28 191//28
f 187//28 188//28 190//28
f 192//28 189//28 179//28
f 192//28 191//28 189//28
f 190//28 191//28 192//28
g mesh3-geometry-1
usemtl Material.90b00bf69165eda831fe702671104217
f 193//31 194//31 195//31
f 196//31 195//31 194//31
f 193//32 197//32 194//32
f 193//33 195//33 197//33
f 195//34 196//34 198//34
f 196//35 194//35 199//35
f 200//32 194//32 197//32
f 201//33 197//33 195//33
f 198//34 196//34 202//34
f 203//34 195//34 198//34
f 200//35 199//35 194//35
f 199//34 204//34 196//34
f 200//36 197//36 199//36
f 201//36 199//36 197//36
f 195//34 205//34 201//34
f 202//34 196//34 206//34
f 198//34 202//34 207//34
f 208//34 195//34 203//34
f 203//34 198//34 209//34
f 210//34 196//34 204//34
f 211//34 204//34 199//34
f 201//34 212//34 199//34
f 205//34 213//34 201//34
f 205//34 195//34 214//34
f 206//34 196//34 210//34
f 202//34 206//34 215//34
f 207//34 202//34 215//34
f 209//34 198//34 207//34
f 216//34 195//34 208//34
f 208//34 203//34 217//34
f 217//34 203//34 209//34
f 210//34 204//34 218//34
f 211//34 218//34 204//34
f 219//34 211//34 199//34
f 220//34 199//34 212//34
f 221//34 212//34 201//34
f 213//34 222//34 201//34
f 205//34 214//34 213//34
f 214//34 195//34 223//34
f 206//34 210//34 224//34
f 215//34 206//34 224//34
f 207//34 215//34 225//34
f 209//34 207//34 226//34
f 227//34 195//34 216//34
f 216//34 208//34 228//34
f 228//34 208//34 217//34
f 217//34 209//34 229//34
f 224//34 210//34 218//34
f 218//34 211//34 230//34
f 231//34 211//34 219//34
f 219//34 199//34 232//34
f 233//34 199//34 220//34
f 212//34 225//34 220//34
f 221//34 226//34 212//34
f 234//34 221//34 201//34
f 222//34 235//34 201//34
f 213//34 214//34 222//34
f 223//34 195//34 236//34
f 214//34 223//34 237//34
f 215//34 224//34 238//34
f 225//34 215//34 238//34
f 226//34 207//34 225//34
f 229//34 209//34 226//34
f 239//34 195//34 227//34
f 227//34 216//34 240//34
f 240//34 216//34 228//34
f 228//34 217//34 229//34
f 224//34 218//34 238//34
f 231//34 230//34 211//34
f 238//34 218//34 230//34
f 219//34 232//34 231//34
f 232//34 199//34 233//34
f 220//34 238//34 233//34
f 225//34 238//34 220//34
f 226//34 225//34 212//34
f 229//34 226//34 221//34
f 234//34 229//34 221//34
f 241//34 234//34 201//34
f 235//34 242//34 201//34
f 222//34 237//34 235//34
f 214//34 237//34 222//34
f 236//34 195//34 239//34
f 223//34 236//34 243//34
f 223//34 243//34 237//34
f 239//34 227//34 244//34
f 244//34 227//34 240//34
f 240//34 228//34 245//34
f 245//34 228//34 229//34
f 230//34 231//34 232//34
f 238//34 230//34 233//34
f 233//34 230//34 232//34
f 245//34 229//34 234//34
f 241//34 245//34 234//34
f 242//34 241//34 201//34
f 235//34 246//34 242//34
f 237//34 246//34 235//34
f 236//34 239//34 247//34
f 243//34 236//34 247//34
f 243//34 247//34 237//34
f 247//34 239//34 244//34
f 244//34 240//34 248//34
f 248//34 240//34 245//34
f 248//34 245//34 241//34
f 242//34 248//34 241//34
f 246//34 248//34 242//34
f 237//34 247//34 246//34
f 247//34 244//34 246//34
f 246//34 244//34 248//34
g mesh3-geometry-2
usemtl Material.b2cdaf4394d1a4f850458878b81c7fa1
f 165//28 146//28 142//28
f 167//28 142//28 147//28
f 164//28 150//28 146//28
f 164//28 146//28 165//28
f 165//28 142//28 167//28
f 170//28 147//28 151//28
f 167//28 147//28 170//28
f 172//28 148//28 152//28
f 148//28 172//28 153//28
f 155//28 156//28 149//28
f 181//28 152//28 150//28
f 181//28 150//28 164//28
f 183//28 151//28 157//28
f 170//28 151//28 183//28
f 172//28 152//28 181//28
f 159//28 163//28 154//28
f 154//28 166//28 160//28
f 161//28 156//28 155//28
f 188//28 157//28 168//28
f 183//28 157//28 188//28
f 173//28 174//28 158//28
f 175//28 180//28 159//28
f 159//28 180//28 163//28
f 154//28 163//28 166//28
f 160//28 166//28 169//28
f 160//28 169//28 176//28
f 177//28 179//28 161//28
f 161//28 179//28 156//28
f 186//28 178//28 162//28
f 191//28 168//28 182//28
f 188//28 168//28 191//28
f 174//28 173//28 171//28
f 175//28 171//28 180//28
f 174//28 171//28 175//28
f 176//28 169//28 187//28
f 176//28 187//28 184//28
f 185//28 192//28 177//28
f 177//28 192//28 179//28
f 189//28 182//28 178//28
f 189//28 178//28 186//28
f 191//28 182//28 189//28
f 184//28 187//28 190//28
f 184//28 190//28 185//28
f 185//28 190//28 192//28
