# created by Ethan Wu and Zhan isaac Ling
mtllib model.mtl
v 0.028943 -0.203787 -0.436865
v 0.018343 -0.203796 -0.427075
v 0.018337 -0.203783 -0.436878
vn 0.000000 -1.000000 0.000000
vt 0.0 1.0
vt 0.85913 0.988795
vt 0.85913 1.0
v 0.018332 -0.203788 0.428150
vt 0.85913 0.009971
v 0.018337 -0.203783 0.436878
vt 0.85913 0.0
v 0.002509 -0.203783 0.428166
vt 0.0 -0.759547
vt -1.0 0.0
vt -1.0 -0.759547
v 0.028949 -0.203776 0.436869
vt 0.0 0.0
v 0.002497 -0.203782 0.380866
vt 0.0 -0.71756
v 0.018326 0.234167 -0.436869
v 0.028946 0.234170 0.436874
v 0.028953 0.234162 -0.436865
vn 0.000000 1.000000 0.000000
v 0.002497 -0.203782 -0.385839
vt 0.0 -0.036612
v 0.013051 0.228434 -0.427072
v 0.018326 0.228424 0.428162
v 0.018324 0.228419 -0.427082
vt 0.438858 -1.0
vt 0.438858 0.0
v 0.018326 0.234167 0.436869
v 0.002509 -0.203783 -0.427088
vt 0.0 0.0
v 0.013062 0.228438 0.428164
vt 0.0 -1.0
v 0.018387 -0.203733 -0.436827
v 0.018380 -0.203720 -0.427050
v 0.028885 -0.203729 -0.436838
vn 0.000000 1.000000 0.000000
v 0.018392 -0.203728 0.428130
v 0.018397 0.234131 -0.436834
vn 1.000000 0.000000 0.000000
vn 0.000000 0.000000 1.000000
v 0.018387 -0.203733 0.436827
v 0.002559 -0.203733 0.428115
vn -1.000000 0.000000 0.000000
v 0.018400 0.228400 -0.427044
v 0.028874 0.234136 -0.436839
v 0.028878 -0.203740 0.436834
v 0.018397 0.228395 0.428119
v 0.002570 -0.203734 0.380866
vn 0.000000 0.000000 -1.000000
v 0.002565 0.170974 -0.427032
v 0.028882 0.234128 0.436831
vn 0.000000 -1.000000 0.000000
v 0.028882 0.220214 -0.418986
vn -1.000000 0.000000 0.000000
v 0.028878 -0.170248 0.416770
v 0.018397 0.234131 0.436834
v 0.002570 -0.203734 -0.385839
v 0.002577 0.170973 0.380866
v 0.002570 0.170972 0.428116
v 0.013121 0.228385 -0.427054
v 0.002559 -0.203733 -0.427038
v 0.028874 0.220206 0.416766
v 0.028878 -0.170248 -0.418983
v 0.002577 0.170973 -0.385839
v 0.013109 0.228381 0.428117
vn 0.983538 -0.180703 0.000000
v 0.023612 0.220218 0.416777
v 0.023612 -0.170256 -0.418990
v 0.023612 0.220218 -0.418990
v 0.023612 -0.170256 0.416777
vt 0.011205 0.0
vt 0.0 0.996108
vt 0.011205 0.983052
vt 0.990029 0.0
vt 1.0 0.0
vt 0.990029 0.983052
vt 1.0 0.996108
v 0.002490 0.170980 0.380866
vt 0.935921 0.85241
vt 0.935921 0.0
v 0.002490 0.170980 -0.385839
vt 0.058387 0.85241
vt 0.058387 0.0
v 0.002498 0.170981 0.428165
vt 0.990029 0.85241
v 0.002503 0.170978 -0.427094
vt 0.011205 0.85241
vn 0.000000 0.000000 -1.000000
vt 0.990787 1.0
vt 0.990787 0.0
vn 0.000000 0.000000 1.000000
vt 0.995457 1.0
vt 0.995457 0.0
vt 0.0 0.867105
vt 0.663638 1.0
vt 0.861066 0.859475
vt 0.0 0.9912
vt 0.861066 0.0
vt 0.287022 0.9912
v 0.028946 0.220171 -0.418944
vn 1.000000 0.000000 0.000000
vt 0.999582 0.999966
vt 0.979118 0.968096
vt 0.999582 0.0
v 0.028949 -0.170213 0.416734
vt 0.022996 0.076561
v 0.028953 0.220179 0.416739
vt 0.0 0.999966
vt 0.022996 0.968096
v 0.028949 -0.170213 -0.418947
vt 0.979118 0.076561
v 0.023663 0.220167 0.416727
vt -1.53337 1.32083
vt -1.54062 2.91114
vt -1.54062 1.32083
v 0.023663 -0.170205 -0.418939
vt -0.001613 0.968096
vt -0.008857 0.076561
vt -0.001613 0.076561
vt -0.008857 2.91114
vt -0.001613 1.32083
vt -0.001613 2.91114
vt -1.54062 0.076561
vt -1.53337 0.968096
vt -1.54062 0.968096
v 0.023663 0.220167 -0.418939
vt -1.53337 2.91114
vt -0.008857 0.968096
v 0.023663 -0.170205 0.416727
vt -0.008857 1.32083
vt -1.53337 0.076561
vt 0.935743 1.0
vt 0.935743 0.0
vn -0.983538 0.180703 0.000000
vt 0.048203 0.0
vt 0.0 1.02386
vt 0.0 0.0
vt 1.0 0.0
vt 0.944721 0.0
vt 1.0 1.02386
v 0.018878 -0.202463 0.013417
v -0.015886 -0.201737 -0.023578
v -0.015872 -0.201736 0.013433
vn 0.021226 0.999775 0.000000
vt -0.587762 10.7899
vt -0.669255 11.2998
vt -0.671148 10.7999
v 0.018882 -0.202472 -0.023568
vt -0.585869 11.2898
v -0.015872 -0.201768 0.013352
v -0.015858 -0.201767 -0.023501
v 0.018828 -0.202516 0.013368
vn -0.021226 -0.999775 0.000000
vt 0.338781 -0.663272
vt 0.427466 -0.663272
vt 0.338781 -1.1335
v 0.018825 -0.202506 -0.023511
vt 0.427466 -1.1335
v -0.017159 -0.201683 -0.023553
vn 0.021226 0.999775 0.000000
vt -0.672341 11.3002
vt -0.671148 10.7999
vt -0.669255 11.2998
v -0.017155 -0.201766 -0.023525
vn -0.021226 -0.999775 0.000000
vt 0.427466 -0.663272
vt 0.338781 -0.663272
vt 0.427466 -0.645866
v -0.016452 -0.231038 -0.023553
vn 0.999775 -0.021226 0.000000
vt 0.338781 0.452733
vt 0.427466 0.056166
vt 0.427466 0.452733
v -0.016535 -0.231036 -0.023526
vn -0.999775 0.021226 0.000000
v -0.016396 -0.225760 0.015966
vn 0.002226 0.104838 0.994487
vt -0.672385 10.4731
vt -0.587762 10.7899
vt -0.671148 10.7999
v -0.016368 -0.225766 0.015884
vn -0.002226 -0.104838 -0.994487
vt 0.12008 0.63622
vt 0.203466 0.626184
vt 0.118843 0.309354
v 0.018194 -0.231755 -0.026273
vn -0.999775 0.021226 0.000000
vt 0.427466 0.452733
vt 0.434054 0.056166
vt 0.338781 0.452733
v -0.016396 -0.225759 -0.026324
vn 0.002409 0.113480 -0.993537
vt -0.585869 11.2898
vt -0.668016 11.627
vt -0.669255 11.2998
v -0.016368 -0.225766 -0.026242
vn -0.002409 -0.113480 0.993537
vt -0.118286 0.162046
vt -0.117045 -0.165132
vt -0.201671 0.152
v -0.017161 -0.201684 0.013407
vt -0.674234 10.8003
v -0.017153 -0.201766 0.013379
vt 0.338781 -0.645866
v -0.017891 -0.201891 -0.023564
v -0.017401 -0.201728 -0.023564
vn 0.000000 0.000000 -1.000000
vt -0.75521 9.68193
vt -0.754237 9.65524
vt -0.754198 9.66215
vt -0.754269 9.66535
v -0.017383 -0.201799 -0.023515
v -0.017863 -0.201958 -0.023515
vn 0.000000 0.000000 1.000000
vt -0.115672 0.438396
vt -0.114508 0.436219
vt -0.119322 0.438553
vt -0.116236 0.438922
v -0.016470 -0.231003 0.013404
vt 0.338781 0.056166
v -0.016518 -0.231072 0.013381
v -0.039816 -0.230524 -0.023570
vt -0.805149 9.26059
vt -0.822203 9.56107
v -0.039766 -0.230561 -0.023508
vt -0.117829 0.042075
vt -0.061885 0.048771
v -0.016464 -0.231024 -0.026254
vn 0.999775 -0.021226 0.000000
vt 0.434054 0.056166
vt 0.427466 0.452733
vt 0.427466 0.056166
v -0.016523 -0.231051 -0.026312
vn -0.999775 0.021226 0.000000
vt -0.822203 9.56107
vt -0.75521 9.68193
vt -0.820195 9.52569
v 0.018368 -0.226499 0.015961
vt -0.588999 10.463
v 0.018319 -0.226501 0.015889
vt 0.202229 0.299317
v -0.016523 -0.231051 0.015954
vn -0.999775 0.021226 0.000000
vt -0.676639 9.35131
vt -0.672053 8.95411
vt -0.671784 9.02552
v -0.016464 -0.231024 0.015896
vn 0.999775 -0.021226 0.000000
vt -0.3327 0.127595
vt -0.3327 0.056166
vt -0.338781 0.452733
vt 0.3327 0.127595
v 0.018330 -0.226501 -0.026241
vt 0.434054 0.127595
v 0.018357 -0.226498 -0.026324
vt -0.58463 11.617
vt -0.200431 -0.175178
vt 0.434054 0.127595
vt -0.808128 9.54746
v -0.017401 -0.201728 0.013417
vn -0.387958 0.921677 0.000000
vn -0.239734 0.970839 0.000000
vt -2.11471 8.72064
vt -2.11594 9.22064
vt -2.11594 8.72064
v -0.017383 -0.201799 0.013368
vn 0.239734 -0.970839 0.000000
vn 0.387958 -0.921677 0.000000
vt -0.427466 0.757003
vt -0.338781 0.757003
vt -0.427466 0.750086
vn -0.163196 0.986594 0.000000
vt -2.11651 9.22064
vt -2.11594 8.72064
vt -2.11594 9.22064
vt -2.11651 8.72064
vn 0.163196 -0.986594 0.000000
vt -0.338781 0.714952
vt -0.427466 0.714952
vt -0.338781 0.718175
vt -0.427466 0.718175
v -0.017891 -0.201891 0.013417
vn 0.000000 0.000000 1.000000
vt -0.681454 9.34898
vt -0.676639 9.35131
vt -0.68029 9.35115
vt -0.679726 9.35168
v -0.017863 -0.201958 0.013368
vn 0.000000 0.000000 -1.000000
vt 0.115672 0.438396
vt 0.119322 0.438553
vt 0.114508 0.436219
vt 0.116236 0.438922
v -0.018350 -0.202128 -0.023564
vt -0.754467 9.64845
v -0.018312 -0.202190 -0.023515
vt -0.113417 0.433046
v -0.039807 -0.230531 0.013432
vt -0.734077 8.96153
vt -0.678132 8.95483
v -0.039775 -0.230555 0.013354
vt 0.117829 0.042075
vt 0.061885 0.048771
vt -0.678132 8.95483
vt -0.338781 0.056166
v -0.019126 -0.202803 -0.023570
vt -0.75547 9.63587
v -0.019080 -0.202844 -0.023508
vt -0.111564 0.424045
vn 0.000000 0.000000 1.000000
vt 0.117829 0.042075
vt 0.201485 0.103506
vt 0.118098 0.113487
vn 0.000000 0.000000 -1.000000
v 0.018215 -0.231739 0.015907
vt 0.3327 0.056166
v 0.018269 -0.231795 -0.026292
vt -0.201485 0.103506
vt -0.201216 0.032094
vt -0.118098 0.113487
vt -2.11471 9.22064
vt -0.338781 0.750086
v -0.018350 -0.202128 0.013417
vt -0.682544 9.3458
v -0.018312 -0.202190 0.013368
vt 0.113417 0.433046
v -0.018768 -0.202431 -0.023559
vt -0.754881 9.64194
v -0.018717 -0.202491 -0.023520
vt -0.112428 0.428954
vn -0.526721 0.850038 0.000000
vt -2.11348 8.72064
vt -2.11471 9.22064
vt -2.11471 8.72064
vn 0.526721 -0.850038 0.000000
vt -0.427466 0.773759
vt -0.338781 0.773759
vt -0.427466 0.766842
v -0.019132 -0.202798 0.013412
vt -0.684398 9.3368
v -0.019073 -0.202849 0.013373
vt 0.111564 0.424045
vn 0.021226 0.999775 0.000000
vt 0.3327 -1.1335
vt 0.338781 -0.663272
vt 0.3327 -0.663272
v 0.018249 -0.231811 0.015943
vn -0.021226 -0.999775 0.000000
vt 0.434054 -0.663272
vt 0.434054 -1.1335
vn -0.801399 0.598130 0.000000
vt -0.805149 9.26059
vt -0.684398 9.3368
vt -0.75547 9.63587
vn 0.801399 -0.598130 0.000000
vt -0.427466 0.716047
vt -0.338781 0.716047
vt -0.427466 0.247774
vt 0.201216 0.032094
v -0.018763 -0.202437 0.013424
vt -0.683534 9.34171
v -0.018723 -0.202485 0.013362
vt 0.112428 0.428954
vt -2.11348 9.22064
vt -0.338781 0.766842
vn -0.709807 0.704396 0.000000
vn -0.652639 0.757669 0.000000
vt -2.11103 9.22064
vt -2.11225 8.72064
vt -2.11103 8.72064
vn 0.709807 -0.704396 0.000000
vn 0.652639 -0.757669 0.000000
vt -0.427466 0.744048
vt -0.427466 0.750965
vt -0.338781 0.744048
vt -0.427466 0.77173
vt -0.338781 0.77173
vt -0.427466 0.764813
vt -0.734077 8.96153
vt -0.338781 0.247774
vt -2.11225 9.22064
vt -0.338781 0.764813
vt -0.338781 0.750965
vn 0.999775 -0.021226 0.000000
vt 0.054556 0.99076
vt 0.909321 -0.217657
vt 0.850211 0.99076
vt 0.0 0.0
vt 0.909321 0.0
vt 0.0 -0.217657
v 0.065585 -0.228848 0.154506
v -0.008208 -0.225126 -0.165870
v -0.008210 -0.225126 0.154488
vn 0.050115 0.998743 0.000000
vt 0.0 -0.0
vt 0.769212 1.0
vt 0.0 1.0
v 0.065581 -0.228852 -0.165891
vt 0.769212 -0.0
v -0.008208 -0.225209 0.154460
v -0.008209 -0.225209 -0.165842
v 0.065540 -0.228890 0.154443
vn -0.050115 -0.998743 0.000000
vt 0.0 -0.769413
vt 0.769212 -0.769413
vt 0.0 -1.76941
v 0.065544 -0.228887 -0.165821
vt 0.769212 -1.76941
v -0.065585 -0.228848 -0.165887
vn -0.064408 0.997924 0.000000
vt 0.769212 1.7781
vt 0.0 1.0
vt 0.769212 1.0
v -0.065540 -0.228890 -0.165825
vn 0.064408 -0.997924 0.000000
vt -0.769212 0.782696
vt 0.0 0.782696
vt -0.769212 0.004601
v -0.065544 -0.228887 0.154439
vn 0.000000 0.000000 -1.000000
vt 0.137724 0.121544
vt 0.314871 0.071429
vt 0.0 0.071429
v 0.065588 -0.234170 -0.165881
vn 1.000000 0.000000 0.000000
vt 0.0 -0.0
vt 0.769212 -0.071429
vt 0.769212 -0.0
v 0.065537 -0.234120 -0.165831
vn -1.000000 0.000000 0.000000
vt 0.769212 0.071429
vt 0.769212 0.0
vn 0.000000 0.000000 1.000000
vt -0.137724 0.121544
vt -0.314871 0.071429
v -0.065581 -0.228852 0.154510
vt 0.0 1.7781
vt 0.0 0.004601
v -0.065537 -0.234120 0.154449
vt 0.0 0.0
v 0.065588 -0.234170 0.154500
vt 0.0 -0.071429
v 0.065537 -0.234120 0.154449
vt -0.314871 0.0
v -0.065588 -0.234170 0.154500
vn -1.000000 0.000000 0.000000
vt 0.769212 1.7781
vt 0.0 1.84952
vt 0.0 1.7781
vn 1.000000 0.000000 0.000000
vt -0.769212 0.071429
vt 0.314871 0.0
vn 0.000000 1.000000 0.000000
vt -0.314871 4.33676
v -0.065537 -0.234120 -0.165831
v -0.065588 -0.234170 -0.165881
vt 0.769212 1.84952
vt -0.769212 0.0
vt 0.0 4.33676
vn 0.000000 0.000000 1.000000
vt 0.0 0.587677
vt 0.525146 0.587677
vt 0.229698 1.0
vt 0.525146 0.0
vn 0.000000 0.000000 -1.000000
vt 0.0 0.542143
vt 0.459339 0.542143
vt 0.258425 0.922518
vt 0.459339 0.0
vn 0.000000 -1.000000 0.000000
vt 0.092832 0.0
vt 0.0 1.0
vt 0.0 0.0
vt 0.092832 1.0
g mesh1-geometry-0
usemtl Material.e6a6298ff53efe4150e122edc010a6a6
f 1/1/1 2/2/1 3/3/1
f 2/2/1 1/1/1 4/4/1
f 4/4/1 1/1/1 5/5/1
f 6/6/1 2/7/1 4/8/1
f 5/5/1 1/1/1 7/9/1
f 8/10/1 2/7/1 6/6/1
f 9/1/2 10/5/2 11/3/2
f 12/11/1 2/7/1 8/10/1
f 13/9/2 14/12/2 15/13/2
f 10/5/2 9/1/2 16/9/2
f 2/7/1 12/11/1 17/14/1
f 14/12/2 13/9/2 18/15/2
g mesh1-geometry-1
usemtl Material.90b00bf69165eda831fe702671104217
f 19//3 20//3 21//3
f 22//3 21//3 20//3
f 19//4 23//4 20//4
f 19//5 21//5 23//5
f 24//3 21//3 22//3
f 22//3 20//3 25//3
f 4//6 15//6 2//6
f 20//4 26//4 22//4
f 20//4 23//4 26//4
f 27//5 23//5 21//5
f 28//3 21//3 24//3
f 29//4 24//4 22//4
f 25//3 20//3 30//3
f 22//7 25//7 29//7
f 15//6 4//6 14//6
f 29//4 22//4 26//4
f 26//5 31//5 20//5
f 26//4 23//4 29//4
f 27//8 32//8 23//8
f 21//9 33//9 27//9
f 21//9 28//9 34//9
f 28//7 24//7 32//7
f 24//4 29//4 35//4
f 30//3 20//3 36//3
f 30//4 37//4 25//4
f 38//7 29//7 25//7
f 26//8 29//8 39//8
f 40//5 20//5 31//5
f 39//5 31//5 26//5
f 23//4 35//4 29//4
f 35//8 23//8 32//8
f 27//9 41//9 32//9
f 33//9 41//9 27//9
f 33//9 21//9 42//9
f 32//9 34//9 28//9
f 42//9 21//9 34//9
f 35//7 32//7 24//7
f 40//3 36//3 20//3
f 36//4 43//4 30//4
f 38//4 25//4 37//4
f 37//4 30//4 43//4
f 44//7 29//7 38//7
f 44//8 39//8 29//8
f 40//4 31//4 36//4
f 31//10 39//10 43//10
f 34//9 32//9 41//9
f 41//3 33//3 45//3
f 42//7 46//7 33//7
f 42//8 34//8 46//8
f 43//4 36//4 31//4
f 37//10 39//10 38//10
f 43//10 39//10 37//10
f 44//10 38//10 39//10
f 41//5 45//5 34//5
f 47//3 45//3 33//3
f 47//7 33//7 46//7
f 48//8 46//8 34//8
f 48//5 34//5 45//5
f 47//9 46//9 45//9
f 48//9 45//9 46//9
g mesh1-geometry-2
usemtl Material.e29b3791808afbe9ef24a4d59f539ed6
f 2/16/6 9/17/6 3/9/6
f 15/18/6 9/17/6 2/16/6
f 4/19/6 5/20/6 14/21/6
f 14/21/6 9/17/6 15/18/6
f 16/22/6 14/21/6 5/20/6
f 6/19/6 49/23/6 8/24/6
f 14/21/6 16/22/6 9/17/6
f 8/24/6 50/25/6 12/26/6
f 49/23/6 6/19/6 51/27/6
f 50/25/6 8/24/6 49/23/6
f 12/26/6 52/28/6 17/16/6
f 52/28/6 12/26/6 50/25/6
g mesh1-geometry-3
usemtl Material.24241233a67157a147b8989af016d56d
f 9/29/11 1/9/11 3/30/11
f 1/9/11 9/29/11 11/1/11
g mesh1-geometry-4
usemtl Material.a3d37145809dcf28417f9b6926d3bba5
f 14/31/12 6/9/12 4/32/12
f 6/9/12 14/31/12 51/33/12
f 51/33/12 14/31/12 18/34/12
g mesh1-geometry-5
usemtl Material.adfca2fb27c1e89c3ee819ce9372e850
f 2/9/11 52/35/11 15/36/11
f 52/35/11 2/9/11 17/37/11
f 15/36/11 52/35/11 13/38/11
g mesh1-geometry-6
usemtl Material.5cf14288ffd6e4e3c184c197b10e85f7
f 11/39/13 53/40/13 1/41/13
f 54/42/13 7/9/13 1/41/13
f 10/43/13 55/44/13 11/39/13
f 11/39/13 55/44/13 53/40/13
f 56/45/13 1/41/13 53/40/13
f 7/9/13 54/42/13 10/43/13
f 54/42/13 1/41/13 56/45/13
f 55/44/13 10/43/13 54/42/13
f 57/46/1 53/47/1 55/48/1
f 53/49/12 58/50/12 56/51/12
f 58/52/2 54/53/2 56/54/2
f 54/55/11 57/56/11 55/57/11
f 53/47/1 57/46/1 59/58/1
f 58/50/12 53/49/12 59/59/12
f 54/53/2 58/52/2 60/60/2
f 57/56/11 54/55/11 60/61/11
f 57/44/13 58/45/13 59/40/13
f 58/45/13 57/44/13 60/42/13
g mesh1-geometry-7
usemtl Material.d5d1072ed1aaaf7e448826b15bd6f800
f 10/62/12 5/9/12 7/63/12
f 5/9/12 10/62/12 16/1/12
g mesh1-geometry-8
usemtl Material.19621b61f6056e8da83b60b65cf55001
f 50/64/14 13/65/14 52/66/14
f 51/67/14 13/65/14 49/68/14
f 49/68/14 13/65/14 50/64/14
f 13/65/14 51/67/14 18/69/14
g mesh2-geometry-0
usemtl Material.3baeac79b175f93f8e87d88ea7bc3282
f 61/70/15 62/71/15 63/72/15
f 62/71/15 61/70/15 64/73/15
f 65/74/16 66/75/16 67/76/16
f 68/77/16 67/76/16 66/75/16
f 69/78/17 63/79/17 62/80/17
f 66/81/18 65/82/18 70/83/18
f 63/84/19 71/85/19 66/86/19
f 62/86/20 72/85/20 65/84/20
f 73/87/21 61/88/21 63/89/21
f 65/90/22 67/91/22 74/92/22
f 68/93/23 75/94/23 67/95/23
f 64/96/24 76/97/24 62/98/24
f 66/99/25 77/100/25 68/101/25
f 63/79/17 69/78/17 78/102/17
f 79/103/18 70/83/18 65/82/18
f 62/104/26 80/105/26 81/106/26
f 62/104/26 81/106/26 69/107/26
f 82/108/27 83/109/27 66/110/27
f 70/111/27 82/108/27 66/110/27
f 71/85/19 63/84/19 84/112/19
f 85/112/20 65/84/20 72/85/20
f 86/113/26 62/104/26 71/114/26
f 72/115/27 66/110/27 87/116/27
f 88/117/28 66/118/28 71/119/28
f 72/120/29 62/121/29 89/122/29
f 61/88/21 73/87/21 90/123/21
f 91/124/22 74/92/22 67/91/22
f 63/125/30 92/126/30 73/127/30
f 74/128/31 93/129/31 65/130/31
f 67/95/23 75/94/23 91/131/23
f 94/132/23 75/94/23 68/93/23
f 76/97/24 64/96/24 95/133/24
f 94/134/25 68/101/25 77/100/25
f 66/118/28 88/117/28 77/135/28
f 76/136/29 89/122/29 62/121/29
f 80/137/32 96/138/33 81/139/33
f 82/140/34 97/141/34 83/142/35
f 78/143/36 81/144/33 96/145/33
f 81/144/33 78/143/36 69/146/36
f 97/147/34 82/148/34 79/149/37
f 70/150/37 79/149/37 82/148/34
f 98/151/38 63/152/38 96/153/38
f 96/153/38 63/152/38 78/154/38
f 97/155/39 65/156/39 99/157/39
f 79/158/39 65/156/39 97/155/39
f 62/104/26 100/159/26 80/105/26
f 83/109/27 101/160/27 66/110/27
f 63/152/38 102/161/38 84/162/38
f 85/163/39 103/164/39 65/156/39
f 92/126/30 63/125/30 85/165/30
f 84/166/31 65/130/31 93/129/31
f 62/104/26 86/113/26 104/167/26
f 105/168/27 87/116/27 66/110/27
f 92/169/40 90/170/40 73/171/40
f 74/171/41 91/170/41 93/169/41
f 106/172/23 91/131/23 75/94/23
f 89/115/26 95/173/26 107/174/26
f 75/174/27 94/173/27 88/115/27
f 95/173/26 89/115/26 76/175/26
f 77/175/27 88/115/27 94/173/27
f 96/138/33 80/137/32 98/176/32
f 99/177/35 83/142/35 97/141/34
f 108/178/38 63/152/38 98/151/38
f 99/157/39 65/156/39 109/179/39
f 62/104/26 110/180/26 100/159/26
f 101/160/27 111/181/27 66/110/27
f 100/182/42 98/183/32 80/184/32
f 83/185/35 99/186/35 101/187/43
f 102/161/38 63/152/38 112/188/38
f 113/189/39 65/156/39 103/164/39
f 106/190/44 84/191/44 93/192/44
f 92/192/45 85/191/45 114/190/45
f 88/193/44 84/191/44 75/194/44
f 107/194/45 85/191/45 89/193/45
f 86/195/46 112/196/46 104/197/46
f 105/198/47 113/199/47 87/200/47
f 62/104/26 104/167/26 110/180/26
f 111/181/27 105/168/27 66/110/27
f 90/170/40 92/169/40 114/201/40
f 106/201/41 93/169/41 91/170/41
f 75/194/44 84/191/44 106/190/44
f 114/190/45 85/191/45 107/194/45
f 115/202/38 63/152/38 108/178/38
f 109/179/39 65/156/39 116/203/39
f 98/183/32 100/182/42 108/204/42
f 109/205/43 101/187/43 99/186/35
f 112/206/48 110/207/49 104/208/48
f 105/209/50 111/210/51 113/211/50
f 110/207/49 108/204/42 100/182/42
f 101/212/43 109/213/43 111/214/51
f 112/188/38 63/152/38 115/202/38
f 116/203/39 65/156/39 113/189/39
f 112/196/46 86/195/46 102/215/46
f 103/216/47 87/200/47 113/199/47
f 108/204/42 110/207/49 115/217/49
f 116/218/51 111/214/51 109/213/43
f 110/207/49 112/206/48 115/217/49
f 116/219/51 113/211/50 111/210/51
g mesh2-geometry-1
usemtl Material.674e689e4107ab94c815c343b114df85
f 61/220/52 107/221/52 64/222/52
f 90/223/52 107/221/52 61/220/52
f 64/222/52 107/221/52 95/224/52
f 107/221/52 90/223/52 114/225/52
g mesh3-geometry-0
usemtl Material.3baeac79b175f93f8e87d88ea7bc3282
f 117/226/53 118/227/53 119/228/53
f 118/227/53 117/226/53 120/229/53
f 121/230/54 122/231/54 123/232/54
f 124/233/54 123/232/54 122/231/54
f 125/234/55 119/235/55 118/236/55
f 122/237/56 121/238/56 126/239/56
f 121/240/57 123/241/57 127/242/57
f 117/243/58 128/244/58 120/245/58
f 124/246/59 129/247/59 123/242/59
f 122/248/60 126/242/60 124/249/60
f 119/235/55 125/234/55 130/250/55
f 127/251/56 126/239/56 121/238/56
f 127/242/57 123/241/57 131/252/57
f 128/244/58 117/243/58 132/253/58
f 133/252/59 123/242/59 129/247/59
f 124/249/60 126/242/60 129/254/60
f 125/255/61 134/256/61 130/257/61
f 127/242/62 131/252/62 126/258/62
f 133/259/57 131/252/57 123/241/57
f 133/254/63 129/260/63 131/252/63
f 135/252/60 129/254/60 126/242/60
f 134/256/61 125/255/61 136/261/61
f 135/262/62 126/258/62 131/252/62
f 135/263/63 131/252/63 129/260/63
g mesh3-geometry-1
usemtl Material.2636670a0a9c2af0753838c2747d2ef8
f 130/264/64 117/265/64 119/266/64
f 134/252/64 117/265/64 130/264/64
f 117/265/64 134/252/64 132/267/64
g mesh3-geometry-2
usemtl Material.6c9b30704501c69f22bbaaa18dae8171
f 120/268/65 125/269/65 118/270/65
f 128/252/65 125/269/65 120/268/65
f 125/269/65 128/252/65 136/271/65
g mesh3-geometry-3
usemtl Material.6e2ed92bf12de7a4a13720cd989a62a8
f 134/272/66 128/273/66 132/274/66
f 128/273/66 134/272/66 136/275/66
