# created by Ethan Wu and Zhan isaac Ling
mtllib model.mtl
v 0.168773 -0.417720 -0.096262
v 0.075952 0.292578 -0.017867
v 0.187941 -0.417716 -0.049301
vn 0.876904 0.162602 -0.452327
vn 0.941628 0.161667 -0.295298
vn 0.964301 0.161303 -0.210013
v 0.187869 -0.417675 -0.049285
v 0.075872 0.292571 -0.017843
v 0.168716 -0.417668 -0.096233
vn -0.964301 -0.161303 0.210013
vn -0.941628 -0.161667 0.295298
vn -0.876904 -0.162602 0.452327
v 0.069698 0.292578 -0.032965
vn 0.876904 0.162602 -0.452327
vn 0.832875 0.163438 -0.528780
v 0.069627 0.292571 -0.032921
vn -0.832875 -0.163438 0.528780
vn -0.876904 -0.162602 0.452327
v 0.078086 0.292578 -0.001664
vn 0.986030 0.161304 -0.041540
v 0.078002 0.292571 -0.001662
vn -0.986030 -0.161304 0.041540
v 0.187407 -0.417720 0.051275
vn 0.000000 -1.000000 0.000000
v 0.187346 -0.417668 0.051255
vn 0.000000 1.000000 0.000000
v 0.138107 -0.417720 -0.136664
vn 0.729637 0.165237 -0.663571
vn 0.832875 0.163438 -0.528780
v 0.138060 -0.417668 -0.136621
vn -0.832875 -0.163438 0.528780
vn -0.729637 -0.165237 0.663571
v 0.194301 -0.417703 0.001023
vn 0.985778 0.161432 0.046708
v 0.194219 -0.417688 0.001019
vn -0.985778 -0.161432 -0.046708
v 0.167750 -0.417720 0.098033
v 0.167697 -0.417668 0.097998
v 0.059749 0.292578 -0.045930
vn 0.667300 0.166492 -0.725941
v 0.059691 0.292572 -0.045870
vn -0.667300 -0.166492 0.725941
v 0.075953 0.292578 0.014538
vn 0.986030 0.161304 -0.041540
vn 0.963015 0.162374 0.215027
v 0.075872 0.292571 0.014519
vn -0.963015 -0.162374 -0.215027
vn -0.986030 -0.161304 0.041540
v 0.069699 0.292578 0.029637
vn 0.874197 0.164802 0.456750
vn 0.829754 0.165837 0.532923
vn 0.939861 0.162980 0.300164
v 0.069626 0.292571 0.029597
vn -0.939861 -0.162980 -0.300164
vn -0.829754 -0.165837 -0.532923
vn -0.874197 -0.164802 -0.456750
vn 0.985778 0.161432 0.046708
vn -0.985778 -0.161432 -0.046708
v 0.098030 -0.417720 -0.167753
vn 0.532693 0.169024 -0.829258
v 0.097996 -0.417668 -0.167699
vn -0.532693 -0.169024 0.829258
v 0.136662 -0.417720 0.138110
v 0.136619 -0.417668 0.138063
v 0.059750 0.292579 0.042602
vn 0.725751 0.168418 0.667024
v 0.059690 0.292570 0.042545
vn -0.725751 -0.168418 -0.667024
v 0.046784 0.292578 -0.055878
vn 0.667300 0.166492 -0.725941
vn 0.456358 0.170615 -0.873286
v 0.046744 0.292571 -0.055805
vn -0.456358 -0.170615 0.873286
vn -0.667300 -0.166492 0.725941
vn 0.663104 0.169805 0.729013
vn 0.829754 0.165837 0.532923
vn -0.829754 -0.165837 -0.532923
vn -0.663104 -0.169805 -0.729013
v 0.096259 -0.417720 0.168775
v 0.096230 -0.417668 0.168718
v 0.051273 -0.417720 -0.187410
vn 0.456358 0.170615 -0.873286
vn 0.299674 0.173699 -0.938096
v 0.051253 -0.417668 -0.187349
vn -0.299674 -0.173699 0.938096
vn -0.456358 -0.170615 0.873286
v 0.046786 0.292578 0.052551
vn 0.527968 0.172969 0.831464
v 0.046743 0.292571 0.052480
vn -0.527968 -0.172969 -0.831464
vn 0.451449 0.174606 0.875046
vn -0.451449 -0.174606 -0.875046
v 0.031686 0.292578 -0.062132
vn 0.214605 0.175522 -0.960800
v 0.031666 0.292571 -0.062051
vn -0.214605 -0.175522 0.960800
v 0.049297 -0.417720 0.187939
v 0.049283 -0.417668 0.187876
v 0.031687 0.292578 0.058805
vn 0.294509 0.178140 0.938899
vn 0.527968 0.172969 0.831464
v 0.031664 0.292571 0.058725
vn -0.527968 -0.172969 -0.831464
vn -0.294509 -0.178140 -0.938899
v 0.001020 -0.417720 -0.194294
vn 0.046626 0.178938 -0.982755
v 0.001017 -0.417668 -0.194231
vn -0.046626 -0.178938 0.982755
vn 0.209390 0.179909 0.961139
vn 0.451449 0.174606 0.875046
vn -0.451449 -0.174606 -0.875046
vn -0.209390 -0.179909 -0.961139
v 0.015483 0.292578 -0.064265
vn -0.041336 0.180871 -0.982638
v 0.015485 0.292571 -0.064181
vn 0.041336 -0.180871 0.982638
v -0.001025 -0.417720 0.194294
v -0.001021 -0.417668 0.194231
v 0.015485 0.292579 0.060938
vn 0.041428 0.183574 0.982133
vn 0.294509 0.178140 0.938899
v 0.015483 0.292571 0.060855
vn -0.294509 -0.178140 -0.938899
vn -0.041428 -0.183574 -0.982133
v -0.049302 -0.417720 -0.187939
vn -0.041336 0.180871 -0.982638
vn -0.209103 0.184379 -0.960354
v -0.049288 -0.417668 -0.187876
vn 0.209103 -0.184379 0.960354
vn 0.041336 -0.180871 0.982638
vn -0.046456 0.185348 0.981574
vn 0.209390 0.179909 0.961139
vn -0.209390 -0.179909 -0.961139
vn 0.046456 -0.185348 -0.981574
v -0.000719 0.292579 -0.062131
vn -0.293948 0.186297 -0.937490
v -0.000696 0.292571 -0.062051
vn 0.293948 -0.186297 0.937490
v -0.051277 -0.417720 0.187410
v -0.051257 -0.417668 0.187348
v -0.000717 0.292579 0.058805
vn -0.213960 0.188900 0.958404
v -0.000698 0.292571 0.058725
vn 0.213960 -0.188900 -0.958404
v -0.096264 -0.417720 -0.168775
vn -0.450078 0.189653 -0.872618
v -0.096234 -0.417668 -0.168718
vn 0.450078 -0.189653 0.872618
vn -0.298622 0.190553 0.935155
vn 0.298622 -0.190553 -0.935155
v -0.015818 0.292579 -0.055877
vn -0.450078 0.189653 -0.872618
vn -0.526046 0.191429 -0.828632
v -0.015774 0.292571 -0.055806
vn 0.526046 -0.191429 0.828632
vn 0.450078 -0.189653 0.872618
v -0.098035 -0.417720 0.167753
v -0.098000 -0.417668 0.167699
v -0.015816 0.292579 0.052551
vn -0.454290 0.193756 0.869528
v -0.015776 0.292571 0.052479
vn 0.454290 -0.193756 -0.869528
v -0.136666 -0.417720 -0.138110
vn -0.526046 0.191429 -0.828632
vn -0.659972 0.194401 -0.725703
v -0.136623 -0.417668 -0.138062
vn 0.659972 -0.194401 0.725703
vn 0.526046 -0.191429 0.828632
vn -0.529998 0.195172 0.825234
vn 0.529998 -0.195172 -0.825234
v -0.028783 0.292580 -0.045928
vn -0.659972 0.194401 -0.725703
vn -0.721939 0.195922 -0.663641
v -0.028722 0.292570 -0.045871
vn 0.721939 -0.195922 0.663641
vn 0.659972 -0.194401 0.725703
v -0.138112 -0.417720 0.136664
v -0.138064 -0.417668 0.136621
v -0.028781 0.292578 0.042603
vn -0.663320 0.197817 0.721717
v -0.028724 0.292571 0.042543
vn 0.663320 -0.197817 -0.721717
v -0.167755 -0.417720 -0.098033
vn -0.824658 0.198306 -0.529730
v -0.167701 -0.417668 -0.097998
vn 0.824658 -0.198306 0.529730
vn -0.724978 0.198896 0.659430
vn -0.529998 0.195172 0.825234
vn 0.529998 -0.195172 -0.825234
vn 0.724978 -0.198896 -0.659430
v -0.038731 0.292579 -0.032963
vn -0.868472 0.199476 -0.453835
v -0.038658 0.292570 -0.032923
vn 0.868472 -0.199476 0.453835
v -0.168725 -0.417728 0.096235
v -0.168772 -0.417663 0.096259
v -0.038730 0.292579 0.029638
vn -0.827004 0.200813 0.525107
vn -0.663320 0.197817 0.721717
v -0.038659 0.292570 0.029595
vn 0.663320 -0.197817 -0.721717
vn 0.827004 -0.200813 -0.525107
v -0.187406 -0.417663 -0.051273
vn -0.933123 0.201108 -0.298056
v -0.187356 -0.417728 -0.051257
vn 0.933123 -0.201108 0.298056
vn -0.870485 0.201478 0.449068
vn -0.724978 0.198896 0.659430
vn 0.724978 -0.198896 -0.659430
vn 0.870485 -0.201478 -0.449068
v -0.044985 0.292579 -0.017865
vn -0.955868 0.201854 -0.213474
v -0.044904 0.292570 -0.017845
vn 0.955868 -0.201854 0.213474
v -0.187879 -0.417724 0.049286
v -0.187940 -0.417667 0.049299
v -0.044984 0.292579 0.014540
vn -0.934397 0.202545 0.293049
v -0.044904 0.292570 0.014517
vn 0.934397 -0.202545 -0.293049
v -0.194301 -0.417675 -0.001023
vn -0.978159 0.202622 -0.046359
v -0.194228 -0.417716 -0.001019
vn 0.978159 -0.202622 0.046359
vn -0.956799 0.202748 0.208397
vn -0.870485 0.201478 0.449068
vn 0.870485 -0.201478 -0.449068
vn 0.956799 -0.202748 -0.208397
v -0.047118 0.292579 -0.001662
vn -0.978159 0.202622 -0.046359
vn -0.978332 0.202900 0.041204
v -0.047035 0.292570 -0.001664
vn 0.978332 -0.202900 -0.041204
vn 0.978159 -0.202622 0.046359
vn -0.956799 0.202748 0.208397
vn 0.956799 -0.202748 -0.208397
vn -0.934397 0.202545 0.293049
vn 0.934397 -0.202545 -0.293049
v 0.075946 0.417720 -0.017864
vn 0.866025 0.000000 -0.500000
vn 0.965926 0.000000 -0.258819
v 0.075879 0.417672 -0.017846
vn -0.965926 0.000000 0.258819
vn -0.866025 0.000000 0.500000
v 0.078083 0.417707 -0.001663
vn 1.000000 0.000000 0.000000
v 0.078004 0.417681 -0.001663
vn -1.000000 0.000000 0.000000
v 0.069688 0.417724 -0.032958
v 0.069637 0.417665 -0.032928
v 0.075941 0.417724 0.014536
vn 0.965926 0.000000 0.258819
v 0.075884 0.417665 0.014521
vn -0.965926 0.000000 -0.258819
vn 0.707107 0.000000 -0.707107
vn -0.707107 0.000000 0.707107
vn 0.000000 1.000000 0.000000
vn 0.000000 -1.000000 0.000000
v 0.059737 0.417728 -0.045916
v 0.059704 0.417660 -0.045883
v 0.069688 0.417724 0.029632
v 0.069637 0.417665 0.029602
vn 0.866025 0.000000 0.500000
vn -0.866025 0.000000 -0.500000
v 0.059744 0.417720 0.042597
vn 0.707107 0.000000 0.707107
v 0.059697 0.417670 0.042550
vn -0.707107 0.000000 -0.707107
v 0.046779 0.417724 -0.055867
vn 0.500000 0.000000 -0.866025
v 0.046749 0.417665 -0.055816
vn -0.500000 0.000000 0.866025
vn 0.500000 0.000000 0.866025
vn -0.500000 0.000000 -0.866025
v 0.031683 0.417724 -0.062120
vn 0.258819 0.000000 -0.965926
v 0.031668 0.417665 -0.062063
vn -0.258819 0.000000 0.965926
v 0.046779 0.417724 0.052541
v 0.046749 0.417665 0.052490
vn 0.258819 0.000000 0.965926
vn -0.258819 0.000000 -0.965926
v 0.015484 0.417724 -0.064253
vn 0.000000 0.000000 -1.000000
v 0.015484 0.417665 -0.064193
vn 0.000000 0.000000 1.000000
v 0.031683 0.417724 0.058793
v 0.031668 0.417665 0.058736
vn 0.000000 0.000000 1.000000
vn 0.000000 0.000000 -1.000000
v -0.000715 0.417724 -0.062120
vn -0.258819 0.000000 -0.965926
v -0.000700 0.417665 -0.062063
vn 0.258819 0.000000 0.965926
v 0.015484 0.417724 0.060926
v 0.015484 0.417665 0.060867
vn -0.258819 0.000000 0.965926
vn 0.258819 0.000000 -0.965926
v -0.015811 0.417724 -0.055867
vn -0.500000 0.000000 -0.866025
v -0.015781 0.417665 -0.055816
vn 0.500000 0.000000 0.866025
v -0.000715 0.417724 0.058793
v -0.000700 0.417665 0.058736
vn -0.500000 0.000000 0.866025
vn 0.500000 0.000000 -0.866025
v -0.028776 0.417720 -0.045923
vn -0.707107 0.000000 -0.707107
v -0.028729 0.417670 -0.045876
vn 0.707107 0.000000 0.707107
v -0.015811 0.417724 0.052541
v -0.015781 0.417665 0.052490
vn -0.707107 0.000000 0.707107
vn 0.707107 0.000000 -0.707107
vn -0.866025 0.000000 -0.500000
vn 0.866025 0.000000 0.500000
v -0.028769 0.417728 0.042590
v -0.028736 0.417660 0.042557
v -0.038720 0.417724 -0.032958
v -0.038669 0.417665 -0.032928
v -0.038720 0.417724 0.029632
vn -0.866025 0.000000 0.500000
v -0.038669 0.417665 0.029602
vn 0.866025 0.000000 -0.500000
vn -0.965926 0.000000 -0.258819
vn 0.965926 0.000000 0.258819
v -0.044978 0.417720 0.014537
vn -0.965926 0.000000 0.258819
v -0.044911 0.417672 0.014519
vn 0.965926 0.000000 -0.258819
v -0.044973 0.417724 -0.017863
v -0.044916 0.417665 -0.017847
vn -1.000000 0.000000 0.000000
vn 1.000000 0.000000 0.000000
v -0.047116 0.417707 -0.001663
v -0.047036 0.417681 -0.001663
g mesh1-geometry-0
usemtl Material.57774a50243e5d429f3a4ea105ec3930
f 1//1 2//2 3//3
f 4//4 5//5 6//6
f 1//7 7//8 2//2
f 5//5 8//9 6//10
f 3//3 2//2 9//11
f 10//12 5//5 4//4
f 11//13 1//13 3//13
f 4//14 6//14 12//14
f 13//15 7//16 1//7
f 6//10 8//17 14//18
f 3//3 9//11 15//19
f 16//20 10//12 4//4
f 17//13 1//13 11//13
f 12//14 6//14 18//14
f 11//13 3//13 15//13
f 16//14 4//14 12//14
f 13//15 19//21 7//16
f 8//17 20//22 14//18
f 17//13 13//13 1//13
f 6//14 14//14 18//14
f 9//23 21//24 15//19
f 16//20 22//25 10//26
f 23//27 17//28 11//29
f 12//30 18//31 24//32
f 15//33 21//24 11//29
f 12//30 22//25 16//34
f 19//21 13//15 25//35
f 26//36 14//18 20//22
f 27//13 13//13 17//13
f 18//14 14//14 28//14
f 23//27 29//37 17//28
f 18//31 30//38 24//32
f 21//24 23//27 11//29
f 12//30 24//32 22//25
f 27//13 25//13 13//13
f 14//14 26//14 28//14
f 19//39 25//35 31//40
f 32//41 26//36 20//42
f 29//37 27//43 17//44
f 18//45 28//46 30//38
f 33//13 25//13 27//13
f 28//14 26//14 34//14
f 31//47 25//35 35//48
f 36//49 26//36 32//50
f 37//51 27//43 29//37
f 30//38 28//46 38//52
f 33//13 35//13 25//13
f 26//14 36//14 34//14
f 37//51 33//53 27//43
f 28//46 34//54 38//52
f 31//47 35//48 39//55
f 40//56 36//49 32//50
f 41//13 35//13 33//13
f 34//14 36//14 42//14
f 43//57 33//53 37//58
f 38//59 34//54 44//60
f 39//55 35//48 45//61
f 46//62 36//49 40//56
f 41//13 45//13 35//13
f 36//14 46//14 42//14
f 43//57 41//63 33//64
f 34//65 42//66 44//60
f 39//55 45//61 47//67
f 48//68 46//62 40//56
f 49//13 45//13 41//13
f 42//14 46//14 50//14
f 51//69 41//63 43//70
f 44//71 42//66 52//72
f 47//73 45//61 53//74
f 54//75 46//62 48//76
f 49//13 53//13 45//13
f 46//14 54//14 50//14
f 51//69 49//77 41//78
f 42//79 50//80 52//72
f 47//73 53//74 55//81
f 56//82 54//75 48//76
f 57//13 53//13 49//13
f 50//14 54//14 58//14
f 59//83 49//77 51//69
f 52//72 50//80 60//84
f 55//81 53//74 61//85
f 62//86 54//75 56//82
f 57//13 61//13 53//13
f 54//14 62//14 58//14
f 59//83 57//87 49//77
f 50//80 58//88 60//84
f 55//81 61//89 63//90
f 64//91 62//92 56//82
f 65//13 61//13 57//13
f 58//14 62//14 66//14
f 67//93 57//87 59//83
f 60//84 58//88 68//94
f 63//95 61//89 69//96
f 70//97 62//92 64//98
f 65//13 69//13 61//13
f 62//14 70//14 66//14
f 67//93 65//99 57//87
f 58//88 66//100 68//94
f 63//95 69//101 71//102
f 72//103 70//104 64//98
f 73//13 69//13 65//13
f 66//14 70//14 74//14
f 75//105 65//99 67//93
f 68//94 66//100 76//106
f 69//101 77//107 71//102
f 72//103 78//108 70//104
f 73//13 77//13 69//13
f 70//14 78//14 74//14
f 75//105 73//109 65//110
f 66//111 74//112 76//106
f 77//107 79//113 71//102
f 72//103 80//114 78//108
f 81//13 77//13 73//13
f 74//14 78//14 82//14
f 83//115 73//109 75//116
f 76//117 74//112 84//118
f 77//107 85//119 79//113
f 80//114 86//120 78//108
f 81//13 86//13 77//13
f 78//14 85//14 82//14
f 83//115 82//121 73//122
f 74//123 81//124 84//118
f 85//119 87//125 79//113
f 80//114 88//126 86//120
f 89//13 86//13 81//13
f 82//14 85//14 90//14
f 91//127 82//121 83//115
f 84//118 81//124 92//128
f 85//119 93//129 87//125
f 88//126 94//130 86//120
f 86//13 89//13 94//13
f 93//14 90//14 85//14
f 91//127 90//131 82//132
f 81//133 89//134 92//128
f 87//125 93//135 95//136
f 96//137 94//138 88//126
f 95//136 93//135 90//139
f 89//140 94//138 96//137
f 95//136 90//131 91//141
f 92//142 89//134 96//137
g mesh1-geometry-1
usemtl Material.90b00bf69165eda831fe702671104217
f 7//143 97//144 2//144
f 5//145 98//145 8//146
f 2//144 99//147 9//147
f 10//148 100//148 5//145
f 97//144 7//143 101//143
f 102//146 8//146 98//145
f 99//147 2//144 97//144
f 98//145 5//145 100//148
f 103//149 9//147 99//147
f 100//148 10//148 104//150
f 19//151 101//143 7//143
f 8//146 102//146 20//152
f 101//153 103//153 97//153
f 98//154 104//154 102//154
f 97//153 103//153 99//153
f 100//154 104//154 98//154
f 9//147 103//149 21//149
f 22//150 104//150 10//148
f 101//143 19//151 105//151
f 106//152 20//152 102//146
f 101//153 107//153 103//153
f 104//154 108//154 102//154
f 107//155 21//149 103//149
f 104//150 22//150 108//156
f 23//155 109//157 29//157
f 30//158 110//158 24//156
f 21//149 107//155 23//155
f 24//156 108//156 22//150
f 111//159 19//151 31//159
f 32//160 20//152 112//160
f 19//151 111//159 105//151
f 106//152 112//160 20//152
f 105//153 107//153 101//153
f 102//154 108//154 106//154
f 109//157 23//155 107//155
f 108//156 24//156 110//158
f 109//157 37//161 29//157
f 30//158 38//162 110//158
f 31//159 113//163 111//159
f 112//160 114//164 32//160
f 111//153 109//153 105//153
f 106//154 110//154 112//154
f 105//153 109//153 107//153
f 108//154 110//154 106//154
f 37//161 109//157 115//161
f 116//162 110//158 38//162
f 113//163 31//159 39//163
f 40//164 32//160 114//164
f 113//153 115//153 111//153
f 112//154 116//154 114//154
f 111//153 115//153 109//153
f 110//154 116//154 112//154
f 115//161 43//165 37//161
f 38//162 44//166 116//162
f 39//163 117//167 113//163
f 114//164 118//168 40//164
f 113//153 119//153 115//153
f 116//154 120//154 114//154
f 43//165 115//161 119//165
f 120//166 116//162 44//166
f 117//167 39//163 47//167
f 48//168 40//164 118//168
f 117//153 119//153 113//153
f 114//154 120//154 118//154
f 119//165 51//169 43//165
f 44//166 52//170 120//166
f 47//167 121//171 117//167
f 118//168 122//172 48//168
f 117//153 123//153 119//153
f 120//154 124//154 118//154
f 51//169 119//165 123//169
f 124//170 120//166 52//170
f 121//171 47//167 55//171
f 56//172 48//168 122//172
f 121//153 123//153 117//153
f 118//154 124//154 122//154
f 123//169 59//173 51//169
f 52//170 60//174 124//170
f 55//171 125//175 121//171
f 122//172 126//176 56//172
f 121//153 127//153 123//153
f 124//154 128//154 122//154
f 59//173 123//169 127//173
f 128//174 124//170 60//174
f 125//175 55//171 63//175
f 64//176 56//172 126//176
f 125//153 127//153 121//153
f 122//154 128//154 126//154
f 127//173 67//177 59//173
f 60//174 68//178 128//174
f 63//175 129//179 125//175
f 126//176 130//180 64//176
f 125//153 131//153 127//153
f 128//154 132//154 126//154
f 67//177 127//173 131//177
f 132//178 128//174 68//178
f 129//179 63//175 71//179
f 72//180 64//176 130//180
f 129//153 131//153 125//153
f 126//154 132//154 130//154
f 131//177 75//181 67//177
f 68//178 76//182 132//178
f 79//183 129//179 71//179
f 72//180 130//180 80//184
f 129//153 133//153 131//153
f 132//154 134//154 130//154
f 75//181 131//177 133//181
f 134//182 132//178 76//182
f 129//179 79//183 135//183
f 136//184 80//184 130//180
f 135//153 133//153 129//153
f 130//154 134//154 136//154
f 137//185 75//181 133//181
f 134//182 76//182 138//186
f 75//181 137//185 83//185
f 84//186 138//186 76//182
f 87//187 135//183 79//183
f 80//184 136//184 88//188
f 135//153 137//153 133//153
f 134//154 138//154 136//154
f 139//189 83//185 137//185
f 138//186 84//186 140//190
f 135//183 87//187 141//187
f 142//188 88//188 136//184
f 141//153 137//153 135//153
f 136//154 138//154 142//154
f 83//185 139//189 91//189
f 92//190 140//190 84//186
f 141//153 139//153 137//153
f 138//154 140//154 142//154
f 95//191 141//187 87//187
f 88//188 142//188 96//192
f 143//191 91//189 139//189
f 140//190 92//190 144//192
f 139//153 141//153 143//153
f 144//154 142//154 140//154
f 141//187 95//191 143//191
f 144//192 96//192 142//188
f 91//189 143//191 95//191
f 96//192 144//192 92//190
