# created by Ethan Wu and Zhan isaac Ling
mtllib model.mtl
v 0.283032 -0.204600 0.357798
v -0.069417 -0.204606 -0.355524
v 0.283026 -0.204594 -0.355535
vn 0.000000 -1.000000 0.000000
v -0.069413 -0.204599 0.357805
v -0.068267 -0.190526 -0.355541
vn 0.000000 0.000000 -1.000000
v 0.283041 -0.190515 -0.355521
vn 1.000000 0.000000 0.000000
v -0.068261 -0.190503 0.357798
vn 0.000000 0.000000 1.000000
v -0.076754 -0.190553 0.357798
vn -0.886452 -0.462820 0.000000
v -0.076757 -0.190548 -0.355529
v 0.283022 -0.190498 0.357787
v -0.272352 0.204603 -0.355524
v -0.272356 0.204596 0.357805
v -0.283041 0.204547 0.357787
v -0.283007 0.204603 -0.355524
v -0.283039 0.204550 -0.355488
v -0.283005 0.204606 0.357767
vn 0.000000 1.000000 0.000000
v 0.282997 -0.204564 -0.355477
v -0.069385 -0.204553 -0.355488
v 0.282990 -0.204558 0.357756
vn 0.000000 1.000000 0.000000
v -0.069389 -0.204559 0.357749
v -0.068282 -0.190534 -0.355471
vn 0.000000 0.000000 1.000000
v 0.282982 -0.190544 -0.355491
vn -1.000000 0.000000 0.000000
v -0.068288 -0.190557 0.357757
vn 0.000000 0.000000 -1.000000
v -0.076718 -0.190507 0.357756
vn 0.886452 0.462820 0.000000
v -0.076716 -0.190512 -0.355483
v 0.283000 -0.190562 0.357766
v -0.272384 0.204550 -0.355488
vn 0.000000 -1.000000 0.000000
v -0.272381 0.204556 0.357749
vn 0.888466 0.458942 0.000000
vn -0.888466 -0.458942 0.000000
v 0.283011 -0.190494 -0.357805
vt 1.0 1.0
vt 0.0 1.0
vt 1.0 0.0
v 0.283011 -0.190566 -0.357805
v -0.068274 -0.190494 -0.357805
vt 0.0 0.0
v -0.068274 -0.190566 -0.357805
v -0.068243 -0.190513 -0.353753
v -0.272337 0.204593 0.357777
vn 0.888466 0.458942 0.000000
v -0.272400 0.204560 0.357777
v -0.068306 -0.190546 -0.353753
vn -0.888466 -0.458942 0.000000
v -0.272337 0.204593 -0.353753
v -0.272400 0.204560 -0.353753
g mesh1-geometry-0
usemtl Material.57774a50243e5d429f3a4ea105ec3930
f 1//1 2//1 3//1
f 2//1 1//1 4//1
f 2//2 5//2 3//2
f 6//3 1//3 3//3
f 7//4 4//4 1//4
f 8//5 2//5 4//5
f 9//2 5//2 2//2
f 3//2 5//2 6//2
f 1//3 6//3 10//3
f 7//4 8//4 4//4
f 7//4 1//4 10//4
f 2//5 8//5 9//5
f 9//2 11//2 5//2
f 12//4 8//4 7//4
f 9//5 8//5 13//5
f 11//2 9//2 14//2
f 8//4 12//4 13//4
f 9//5 13//5 15//5
f 16//6 11//6 14//6
f 11//6 16//6 12//6
g mesh1-geometry-1
usemtl Material.90b00bf69165eda831fe702671104217
f 17//7 18//7 19//7
f 20//7 19//7 18//7
f 17//8 21//8 18//8
f 17//9 19//9 22//9
f 19//10 20//10 23//10
f 20//11 18//11 24//11
f 18//8 21//8 25//8
f 22//8 21//8 17//8
f 26//9 22//9 19//9
f 20//10 24//10 23//10
f 26//10 19//10 23//10
f 25//11 24//11 18//11
f 21//8 27//8 25//8
f 24//6 21//6 25//6
f 9//12 5//12 8//12
f 5//6 10//6 6//6
f 22//12 26//12 21//12
f 23//10 24//10 28//10
f 21//6 24//6 7//6
f 23//12 8//12 5//12
f 10//6 5//6 7//6
f 23//12 21//12 26//12
f 16//11 24//11 25//11
f 15//8 25//8 27//8
f 11//13 7//13 5//13
f 21//14 23//14 27//14
f 16//10 28//10 24//10
f 7//13 11//13 12//13
f 28//14 27//14 23//14
f 14//11 16//11 25//11
f 15//12 27//12 13//12
f 28//12 13//12 27//12
g mesh1-geometry-2
usemtl Material.faca4c01f4ad453eabbac40374a1bb14
f 10/1/6 29/2/6 7/3/6
f 26/1/12 23/3/12 30/2/12
f 31/4/6 7/3/6 29/2/6
f 32/4/12 30/2/12 23/3/12
g mesh1-geometry-3
usemtl Material.ff2b76dd9d013336f15786b2b7f09a50
f 7/4/15 33/3/15 34/2/15
f 23/4/16 35/2/16 36/3/16
f 37/1/15 34/2/15 33/3/15
f 38/1/16 36/3/16 35/2/16
