# created by Ethan Wu and Zhan isaac Ling
mtllib model.mtl
v 0.035411 -0.230604 -0.442230
v -0.035399 -0.230600 0.442226
v -0.035411 -0.230583 -0.442208
vn 0.000000 -1.000000 0.000000
v 0.035411 -0.230604 0.442230
v -0.035411 -0.170214 0.417455
vn -1.000000 0.000000 0.000000
v -0.035399 0.230600 -0.442226
vn 0.000000 0.000000 -1.000000
v 0.035411 0.230604 0.442230
vn 1.000000 0.000000 0.000000
vn 0.000000 0.000000 1.000000
v -0.035411 -0.217157 -0.379280
v -0.035403 0.201217 0.416595
v 0.035411 0.230604 -0.442230
v -0.035407 0.201222 -0.416600
v -0.035403 0.230597 0.442222
v -0.035411 -0.216908 -0.378681
v -0.035411 -0.217241 -0.379922
v -0.024210 -0.170188 0.417429
vn 0.000000 -0.002276 -0.999997
vn 0.000000 1.000000 0.000000
v -0.035410 -0.170210 -0.415760
v -0.035411 -0.216514 -0.378167
v -0.035411 -0.217157 -0.380565
v -0.024232 0.201217 0.416595
v -0.035411 -0.214758 -0.382405
v -0.024210 0.201205 -0.416583
vn 0.000000 0.002276 0.999997
v -0.035411 -0.216000 -0.377772
v -0.035411 -0.216908 -0.381163
v -0.024232 -0.170200 -0.415749
v -0.035411 -0.213003 -0.378167
v -0.035411 -0.215401 -0.382320
v -0.035411 -0.214116 -0.382320
v -0.035411 -0.215401 -0.377524
v -0.035411 -0.212608 -0.378681
v -0.035411 -0.212360 -0.379280
v -0.035411 -0.212276 -0.379922
v -0.035411 -0.212360 -0.380565
v -0.035411 -0.216514 -0.381678
v -0.035411 -0.213517 -0.377772
v -0.035411 -0.216000 -0.382072
v -0.035411 -0.213517 -0.382072
v -0.035411 -0.214758 -0.377439
v -0.035411 -0.212608 -0.381163
v -0.035411 -0.214116 -0.377524
v -0.035411 -0.213003 -0.381678
v -0.035323 -0.230575 -0.442200
v -0.035335 -0.230558 0.442182
v 0.035360 -0.230554 -0.442178
vn 0.000000 1.000000 0.000000
v 0.035360 -0.230554 0.442178
v -0.035323 -0.170221 0.417462
vn 1.000000 0.000000 0.000000
v -0.035335 0.230558 -0.442182
vn 0.000000 0.000000 1.000000
v 0.035360 0.230554 0.442178
vn -1.000000 0.000000 0.000000
vn 0.000000 0.000000 -1.000000
v -0.035323 -0.217157 -0.379280
v -0.035331 0.201253 0.416631
v 0.035360 0.230554 -0.442178
v -0.035327 0.201248 -0.416626
v -0.035331 0.230561 0.442186
v -0.035323 -0.216908 -0.378681
v -0.035323 -0.217241 -0.379922
v -0.024181 -0.170247 0.417488
vn 0.000000 0.002276 0.999997
vn 0.000000 -1.000000 0.000000
v -0.035324 -0.170225 -0.415775
v -0.035323 -0.216514 -0.378167
v -0.035323 -0.212360 -0.379280
v -0.035323 -0.212276 -0.379922
v -0.035323 -0.217157 -0.380565
v -0.024159 0.201253 0.416631
v -0.035323 -0.214758 -0.382405
v -0.024181 0.201265 -0.416643
vn 0.000000 -0.002276 -0.999997
v -0.035323 -0.216000 -0.377772
v -0.035323 -0.212608 -0.378681
v -0.035323 -0.212360 -0.380565
v -0.035323 -0.216908 -0.381163
v -0.024159 -0.170236 -0.415786
v -0.035323 -0.213003 -0.378167
v -0.035323 -0.215401 -0.382320
v -0.035323 -0.214116 -0.382320
v -0.035323 -0.215401 -0.377524
v -0.035323 -0.212608 -0.381163
v -0.035323 -0.216514 -0.381678
v -0.035323 -0.213517 -0.377772
v -0.035323 -0.216000 -0.382072
v -0.035323 -0.213517 -0.382072
v -0.035323 -0.214758 -0.377439
v -0.035323 -0.213003 -0.381678
v -0.035323 -0.214116 -0.377524
vt -0.029078 0.974453
vt -0.974898 0.136214
vt -0.028118 0.136214
vt -0.975858 0.974453
g mesh1-geometry-0
usemtl Material.57774a50243e5d429f3a4ea105ec3930
f 1//1 2//1 3//1
f 2//1 1//1 4//1
f 5//2 3//2 2//2
f 6//3 1//3 3//3
f 1//4 7//4 4//4
f 7//5 2//5 4//5
f 3//2 5//2 8//2
f 2//2 9//2 5//2
f 1//3 6//3 10//3
f 3//2 11//2 6//2
f 7//4 1//4 10//4
f 2//5 7//5 12//5
f 8//2 5//2 13//2
f 3//2 8//2 14//2
f 12//2 9//2 2//2
f 9//6 15//6 5//6
f 6//7 7//7 10//7
f 3//2 16//2 11//2
f 9//2 6//2 11//2
f 7//7 6//7 12//7
f 13//2 5//2 17//2
f 3//2 14//2 18//2
f 9//2 12//2 6//2
f 15//6 9//6 19//6
f 15//7 16//7 5//7
f 3//2 20//2 16//2
f 16//8 21//8 11//8
f 21//1 9//1 11//1
f 17//2 5//2 22//2
f 3//2 18//2 23//2
f 9//1 21//1 19//1
f 16//7 15//7 24//7
f 25//2 5//2 16//2
f 3//2 26//2 20//2
f 27//2 16//2 20//2
f 21//8 16//8 24//8
f 22//2 5//2 28//2
f 29//2 16//2 30//2
f 30//2 16//2 31//2
f 31//2 16//2 32//2
f 3//2 23//2 33//2
f 34//2 5//2 25//2
f 25//2 16//2 29//2
f 3//2 35//2 26//2
f 36//2 16//2 27//2
f 28//2 5//2 37//2
f 32//2 16//2 38//2
f 3//2 33//2 35//2
f 39//2 5//2 34//2
f 40//2 16//2 36//2
f 5//2 39//2 37//2
f 38//2 16//2 40//2
g mesh1-geometry-1
usemtl Material.90b00bf69165eda831fe702671104217
f 41//9 42//9 43//9
f 44//9 43//9 42//9
f 42//10 41//10 45//10
f 41//11 43//11 46//11
f 44//12 47//12 43//12
f 44//13 42//13 47//13
f 48//10 45//10 41//10
f 45//10 49//10 42//10
f 50//11 46//11 43//11
f 46//10 51//10 41//10
f 50//12 43//12 47//12
f 52//13 47//13 42//13
f 53//10 45//10 48//10
f 54//10 48//10 41//10
f 42//10 49//10 52//10
f 45//14 55//14 49//14
f 50//15 47//15 46//15
f 51//10 56//10 41//10
f 51//10 46//10 49//10
f 52//15 46//15 47//15
f 57//10 45//10 53//10
f 48//10 58//10 53//10
f 54//10 59//10 48//10
f 60//10 54//10 41//10
f 46//10 52//10 49//10
f 61//14 49//14 55//14
f 45//15 56//15 55//15
f 56//10 62//10 41//10
f 51//16 63//16 56//16
f 51//9 49//9 63//9
f 64//10 45//10 57//10
f 53//10 65//10 57//10
f 58//10 65//10 53//10
f 59//10 58//10 48//10
f 66//10 59//10 54//10
f 60//10 66//10 54//10
f 67//10 60//10 41//10
f 61//9 63//9 49//9
f 55//10 68//10 61//10
f 68//15 55//15 56//15
f 56//10 45//10 69//10
f 62//10 70//10 41//10
f 62//10 56//10 71//10
f 68//16 56//16 63//16
f 72//10 45//10 64//10
f 57//10 69//10 64//10
f 65//10 69//10 57//10
f 58//10 56//10 65//10
f 59//10 56//10 58//10
f 66//10 56//10 59//10
f 73//10 66//10 60//10
f 67//10 73//10 60//10
f 74//10 67//10 41//10
f 63//10 61//10 68//10
f 69//10 45//10 75//10
f 65//10 56//10 69//10
f 70//10 76//10 41//10
f 62//10 71//10 70//10
f 71//10 56//10 77//10
f 78//10 45//10 72//10
f 64//10 75//10 72//10
f 69//10 75//10 64//10
f 73//10 56//10 66//10
f 79//10 73//10 67//10
f 74//10 79//10 67//10
f 76//10 74//10 41//10
f 75//10 45//10 80//10
f 70//10 71//10 76//10
f 77//10 56//10 79//10
f 71//10 77//10 76//10
f 78//10 80//10 45//10
f 78//10 72//10 80//10
f 75//10 80//10 72//10
f 79//10 56//10 73//10
f 77//10 79//10 74//10
f 76//10 77//10 74//10
g mesh1-geometry-2
usemtl Material.b2cdaf4394d1a4f850458878b81c7fa1
f 13//2 30//2 8//2
f 8//2 31//2 14//2
f 17//2 29//2 13//2
f 13//2 29//2 30//2
f 8//2 30//2 31//2
f 14//2 31//2 32//2
f 14//2 32//2 18//2
f 22//2 25//2 17//2
f 17//2 25//2 29//2
f 18//2 32//2 38//2
f 18//2 38//2 23//2
f 26//2 27//2 20//2
f 28//2 34//2 22//2
f 22//2 34//2 25//2
f 23//2 38//2 40//2
f 23//2 40//2 33//2
f 35//2 27//2 26//2
f 35//2 36//2 27//2
f 39//2 28//2 37//2
f 28//2 39//2 34//2
f 33//2 40//2 36//2
f 33//2 36//2 35//2
g mesh1-geometry-3
usemtl Material.fd405729217466f29eac93fc2fe0bd88
f 19/1/2 24/2/2 15/3/2
f 24/2/2 19/1/2 21/4/2
