# created by Ethan Wu and Zhan isaac Ling
mtllib model.mtl
v -0.030547 -0.223648 0.427074
v -0.030533 -0.225992 -0.427087
v -0.030529 -0.225988 0.427100
vn -1.000000 0.000000 0.000000
vt 0.831963 0.063435
vt 0.831963 0.058912
v -0.030547 -0.223648 -0.427074
v -0.028161 -0.225985 0.427104
vn 0.000000 -1.000000 0.000000
vt 0.805589 0.058912
v -0.030522 -0.140162 0.427108
vt 0.831963 0.226434
v -0.028153 -0.225977 -0.427113
v -0.030514 -0.140155 -0.427113
vn 0.000000 0.000000 -1.000000
v -0.028169 -0.230559 -0.427104
vt 0.805589 0.049955
v -0.044120 -0.140173 -0.427087
vt 0.983508 0.226434
v -0.027205 0.168705 -0.427113
vt 0.794939 0.829307
v -0.028168 -0.230565 0.427104
v -0.044117 -0.140170 0.427100
v -0.044122 0.150485 -0.427100
vt 0.983508 0.793719
v -0.018611 -0.244811 -0.427104
vn -0.830458 -0.557081 0.000000
vt 0.698994 0.022145
v -0.019271 0.252858 -0.427113
vt 0.706561 0.993559
v -0.027203 0.168711 0.427113
v -0.044126 0.150477 0.427100
vn -0.733247 0.679963 0.000000
v -0.018612 -0.244805 0.427104
v -0.027224 0.232631 -0.427087
vt 0.794939 0.954082
v -0.027225 0.232626 0.427087
v -0.018608 -0.253175 -0.427100
vt 0.698994 0.005845
v 0.008196 0.252862 -0.427108
vt 0.400123 0.993559
v -0.019277 0.252867 0.427108
vn -0.931084 0.364806 0.000000
v -0.018601 -0.253167 0.427108
vn 0.000000 1.000000 0.000000
v 0.008203 0.252854 0.427113
v 0.008874 -0.253167 0.427108
vt 0.392556 0.005845
v 0.008881 -0.253160 -0.427113
v 0.008193 0.256165 0.427104
vt 0.400123 1.0
v 0.008201 0.256157 -0.427113
v 0.008869 -0.256156 -0.427108
vt 0.392556 0.0
v 0.044106 0.254487 -0.427113
vt 0.0 0.996765
v 0.008874 -0.256179 0.427091
v 0.044105 0.256179 -0.427091
vt 0.0 1.0
v 0.044123 -0.253150 -0.427100
vt 0.0 0.005845
v 0.044105 -0.256179 -0.427091
vt 0.0 0.0
v -0.030480 -0.225939 0.427049
v -0.030476 -0.225935 -0.427060
v -0.030461 -0.223648 0.427074
vn 1.000000 0.000000 0.000000
vt 0.005527 0.062266
vt 0.993322 0.062266
vt 0.005527 0.066788
v -0.030461 -0.223648 -0.427074
vt 0.993322 0.066788
v -0.028120 -0.225943 0.427043
vn 0.000000 1.000000 0.000000
vt 0.005527 0.136113
vt 0.005527 0.131905
vt 0.993322 0.136113
v -0.030487 -0.140128 0.427039
vt 0.005527 0.229788
v -0.028127 -0.225951 -0.427036
vt 0.993322 0.131905
vn 0.000000 0.000000 -1.000000
vt 0.081686 0.062266
vt 0.08418 0.062266
vt 0.08418 0.229788
v -0.030494 -0.140135 -0.427034
vt 0.993322 0.229788
vn 0.000000 0.000000 1.000000
vt -0.073126 0.062266
vt -0.070633 0.062266
vt -0.073126 0.229788
v -0.028111 -0.230547 -0.427043
vt 0.993322 0.053309
v -0.027167 0.168690 0.427037
vt 0.08068 0.83266
v -0.044063 -0.140117 -0.427060
vt 0.993322 0.160296
v -0.027165 0.168695 -0.427037
vt -0.069626 0.83266
v -0.028113 -0.230542 0.427043
vt 0.005527 0.053309
vt -0.070633 0.053309
v -0.044058 0.150460 0.427049
vt 0.098507 0.797072
vt 0.081686 0.053309
v -0.044067 -0.140120 0.427049
vt 0.005527 0.160296
v -0.044061 0.150451 -0.427049
vt -0.087453 0.229788
vt -0.087453 0.797072
v -0.018556 -0.244788 -0.427043
vn 0.830458 0.557081 0.000000
vt 0.993322 0.113044
vt 0.005527 0.113044
vt 0.993322 0.080444
v -0.019252 0.252831 -0.427035
vt -0.061271 0.996912
vn 0.733247 -0.679963 0.000000
vt 0.005527 0.508123
vt 0.993322 0.508123
vt 0.005527 0.554727
vt 0.098507 0.229788
v -0.019246 0.252822 0.427041
vt 0.072324 0.996912
vt 0.005527 0.797072
vt 0.993322 0.797072
vt 0.993322 0.554727
v -0.018554 -0.244794 0.427043
vt 0.005527 0.080444
vt -0.060556 0.025498
v -0.027146 0.232611 -0.427060
vt -0.069626 0.957435
vt 0.071609 0.025498
v -0.027145 0.232616 0.427060
vt 0.08068 0.957435
vt 0.005527 0.83266
vt 0.993322 0.83266
vt 0.005527 0.957435
v -0.018559 -0.253125 -0.427049
vt 0.993322 0.025498
vt 0.005527 0.025498
vt 0.993322 0.009198
v 0.008231 0.252827 -0.427039
vt -0.032301 0.996912
vn 0.931084 -0.364806 0.000000
vt 0.993322 0.901068
vt 0.005527 0.901068
vt 0.993322 0.859148
vt 0.993322 0.957435
v 0.008224 0.252834 0.427034
vt 0.043354 0.996912
vt 0.005527 0.859148
v -0.018566 -0.253132 0.427039
vt 0.005527 0.009198
vt -0.060556 0.009198
vn 0.000000 -1.000000 0.000000
vt -0.982268 0.116102
vt -0.982268 0.067203
vt 0.005527 0.116102
vt 0.071609 0.009198
vt 0.005527 0.067203
v 0.008909 -0.253132 0.427039
vt 0.005527 0.114895
vt 0.005527 0.065995
vt 0.993322 0.114895
v 0.008902 -0.253140 -0.427034
vt -0.031585 0.009198
vt 0.042639 0.009198
v 0.008234 0.256124 0.427043
vt 0.005527 0.996912
vt 0.993322 0.996912
vt 0.005527 1.00335
vt 0.993322 0.065995
v 0.008226 0.256131 -0.427036
vt -0.032301 1.00335
vt 0.043354 1.00335
vt 0.993322 1.00335
v 0.008914 -0.256133 -0.427040
vt 0.993322 0.003353
v 0.044068 0.254487 -0.427036
vt 0.005527 1.00012
v 0.044064 -0.256133 0.427040
vt 0.005527 0.003353
v 0.044070 0.256110 -0.427057
vt -0.982268 0.003353
v 0.008909 -0.256110 0.427057
vt 0.005527 0.003353
vt -0.031585 0.003353
vt 0.005527 1.00335
v 0.044048 0.256131 0.427061
vt 0.042639 0.003353
vt 0.005527 0.003353
v 0.044070 -0.256110 -0.427057
vt 0.993322 0.003353
v 0.044052 -0.253150 -0.427051
vt 0.005527 0.009198
v 0.044126 0.256157 0.427087
vn 1.000000 0.000000 0.000000
vt 0.0 1.0
vt 0.987795 0.996765
vt 0.987795 1.0
vn -1.000000 0.000000 0.000000
vt -0.982268 1.00335
vt -0.982268 1.00012
vt 0.005527 1.00335
v 0.044110 -0.256156 0.427108
vt 0.987795 0.005845
vt -0.982268 0.009198
vt 0.005527 0.003353
vt 0.005527 0.003353
vt 0.987795 0.0
vt -0.982268 0.003353
vn 0.000000 0.000000 1.000000
vt -0.845913 0.209921
vt -0.845913 0.054616
vt -0.819098 0.054616
vt -0.808268 0.768828
vt -0.999999 0.735835
vt -0.819098 0.046312
vt -1.0 0.209921
vt -0.718408 0.921102
vt -0.710715 0.02053
vt -0.808268 0.884504
vt -0.406831 0.921102
vt -0.710715 0.005419
vt -0.399138 0.005419
vt -0.406831 0.927073
vt 2e-06 0.927073
vt -0.399138 0.0
g mesh1-geometry-0
usemtl Material.e6a6298ff53efe4150e122edc010a6a6
f 1/1/1 2/2/1 3/2/1
f 2/2/1 1/1/1 4/1/1
f 2/2/2 5/3/2 3/2/2
f 6/4/1 4/1/1 1/1/1
f 5/3/2 2/2/2 7/3/2
f 4/1/1 6/4/1 8/4/1
f 8/4/3 7/3/3 2/2/3
f 9/5/1 5/3/1 7/3/1
f 6/4/2 10/6/2 8/4/2
f 11/7/3 7/3/3 8/4/3
f 5/3/1 9/5/1 12/5/1
f 11/7/3 9/5/3 7/3/3
f 10/6/2 6/4/2 13/6/2
f 14/8/3 8/4/3 10/6/3
f 11/7/3 8/4/3 14/8/3
f 15/9/4 12/5/4 9/5/4
f 16/10/3 9/5/3 11/7/3
f 17/7/5 14/8/5 18/8/5
f 18/8/1 10/6/1 13/6/1
f 10/6/1 18/8/1 14/8/1
f 14/8/5 17/7/5 11/7/5
f 12/5/4 15/9/4 19/9/4
f 16/10/3 15/9/3 9/5/3
f 20/11/3 16/10/3 11/7/3
f 21/11/1 11/7/1 17/7/1
f 22/12/1 19/9/1 15/9/1
f 23/13/3 15/9/3 16/10/3
f 20/11/6 24/10/6 16/10/6
f 11/7/1 21/11/1 20/11/1
f 24/10/6 20/11/6 21/11/6
f 19/9/1 22/12/1 25/12/1
f 23/13/3 22/12/3 15/9/3
f 24/10/7 23/13/7 16/10/7
f 23/13/7 24/10/7 26/13/7
f 22/12/2 27/14/2 25/12/2
f 22/12/3 23/13/3 28/14/3
f 29/15/1 23/13/1 26/13/1
f 27/14/2 22/12/2 28/14/2
f 30/15/3 28/14/3 23/13/3
f 23/13/1 29/15/1 30/15/1
f 31/16/1 27/14/1 28/14/1
f 32/17/3 28/14/3 30/15/3
f 27/14/1 31/16/1 33/16/1
f 32/17/3 31/16/3 28/14/3
f 30/15/3 34/18/3 32/17/3
f 31/16/3 32/17/3 35/19/3
f 31/16/3 35/19/3 36/20/3
g mesh1-geometry-1
usemtl Material.a49e5dfbdd190ea8e66c9033ae5abc14
f 37/21/8 38/22/8 39/23/8
f 40/24/8 39/23/8 38/22/8
f 37/25/9 41/26/9 38/27/9
f 39/23/8 40/24/8 42/28/8
f 43/29/9 38/27/9 41/26/9
f 41/30/10 37/31/10 42/32/10
f 44/33/8 42/28/8 40/24/8
f 38/34/11 43/35/11 44/36/11
f 43/22/8 41/21/8 45/37/8
f 41/30/10 42/32/10 46/38/10
f 44/27/9 47/39/9 42/25/9
f 44/36/11 43/35/11 48/40/11
f 49/41/8 45/37/8 41/21/8
f 43/35/11 45/42/11 48/40/11
f 50/43/10 46/38/10 42/32/10
f 41/30/10 46/38/10 49/44/10
f 51/45/9 42/25/9 47/39/9
f 47/46/11 44/36/11 52/47/11
f 52/47/11 44/36/11 48/40/11
f 45/48/12 49/49/12 53/50/12
f 48/40/11 45/42/11 54/51/11
f 50/52/13 52/53/13 46/54/13
f 51/55/10 50/43/10 42/32/10
f 46/38/10 55/56/10 49/44/10
f 51/28/8 47/33/8 50/57/8
f 52/58/8 50/57/8 47/33/8
f 48/59/13 46/54/13 52/53/13
f 56/60/12 53/50/12 49/49/12
f 45/42/11 53/61/11 54/51/11
f 48/40/11 54/51/11 57/62/11
f 49/44/10 55/56/10 56/63/10
f 58/64/10 55/56/10 46/38/10
f 46/65/8 48/66/8 58/67/8
f 53/68/8 56/69/8 59/70/8
f 54/51/11 53/61/11 60/71/11
f 54/72/14 55/73/14 57/74/14
f 57/75/8 58/67/8 48/66/8
f 61/76/10 56/63/10 55/56/10
f 58/77/14 57/74/14 55/73/14
f 62/78/8 59/70/8 56/69/8
f 53/61/11 59/79/11 60/71/11
f 54/80/15 60/81/15 55/82/15
f 56/63/10 61/76/10 62/83/10
f 61/84/15 55/82/15 60/81/15
f 62/85/9 63/86/9 59/87/9
f 64/88/11 60/71/11 59/79/11
f 62/83/10 61/76/10 63/89/10
f 61/90/8 60/91/8 65/92/8
f 64/93/9 59/87/9 63/86/9
f 60/71/11 64/88/11 66/94/11
f 61/76/10 65/95/10 63/89/10
f 66/96/8 65/92/8 60/91/8
f 64/70/8 63/78/8 67/97/8
f 66/94/11 64/88/11 68/98/11
f 63/89/10 65/95/10 69/99/10
f 66/81/15 70/100/15 65/84/15
f 71/101/8 67/97/8 63/78/8
f 64/88/11 67/102/11 68/98/11
f 68/98/11 70/103/11 66/94/11
f 72/103/10 69/99/10 65/95/10
f 63/89/10 69/99/10 71/104/10
f 72/105/15 65/84/15 70/100/15
f 67/93/9 71/86/9 73/106/9
f 74/107/11 68/98/11 67/102/11
f 75/108/16 32/109/16 34/110/16
f 70/111/17 68/112/17 72/113/17
f 76/20/16 35/114/16 75/108/16
f 72/113/17 74/115/17 69/116/17
f 69/117/9 73/106/9 71/86/9
f 73/99/11 74/107/11 67/102/11
f 75/108/16 35/114/16 32/109/16
f 68/112/17 74/115/17 72/113/17
f 35/114/16 76/20/16 36/118/16
f 73/119/17 69/116/17 74/115/17
g mesh1-geometry-2
usemtl Material.9a906e64e752ecd2c4de73b0bf4e9597
f 6/120/18 3/121/18 5/122/18
f 17/123/18 6/120/18 5/122/18
f 6/120/18 17/123/18 18/124/18
f 12/125/18 17/123/18 5/122/18
f 6/120/18 18/124/18 13/126/18
f 12/125/18 24/127/18 17/123/18
f 19/128/18 24/127/18 12/125/18
f 17/123/18 24/127/18 21/129/18
f 24/127/18 19/128/18 26/130/18
f 25/131/18 26/130/18 19/128/18
f 27/132/18 26/130/18 25/131/18
f 27/132/18 29/133/18 26/130/18
f 76/20/18 29/133/18 27/132/18
f 29/133/18 76/20/18 75/134/18
f 33/135/18 76/20/18 27/132/18
g mesh1-geometry-3
usemtl Material.b2cdaf4394d1a4f850458878b81c7fa1
f 29//7 34//7 30//7
f 34//7 29//7 75//7
f 36//2 33//2 31//2
f 33//2 36//2 76//2
