# created by Ethan Wu and Zhan isaac Ling
mtllib model.mtl
v -0.005682 -0.287823 0.028588
v -0.005686 -0.275684 -0.030631
v -0.005676 -0.287829 -0.030611
vn -1.000000 0.000000 0.000000
v -0.005689 -0.275630 0.028593
v -0.005701 -0.206223 -0.030625
vn -1.000000 0.000000 0.000000
v -0.005703 -0.206221 0.028583
v 0.005684 -0.275689 0.028559
v 0.005677 -0.287753 -0.030623
v 0.005686 -0.275627 -0.030632
vn 1.000000 0.000000 0.000000
v 0.005674 -0.287751 0.028581
v 0.005698 -0.206226 0.028588
vn 1.000000 0.000000 0.000000
v -0.005703 0.287819 0.406780
v 0.005703 -0.206219 -0.030621
v -0.005689 0.287830 -0.406796
v -0.005679 -0.206236 0.406796
v 0.005706 -0.174379 0.374937
v -0.005689 -0.206233 -0.406796
v 0.005698 0.287823 0.406784
vn 0.000000 1.000000 0.000000
vn 0.000000 0.000000 1.000000
v 0.005694 -0.206229 -0.406792
v 0.005706 -0.174379 -0.374941
v 0.005698 -0.206226 0.406784
vn 0.000000 0.000000 -1.000000
v 0.005698 0.287823 -0.406788
v 0.005706 0.255976 -0.374941
v 0.005706 0.255976 0.374937
v -0.005656 -0.287750 -0.030611
v -0.005646 -0.275625 -0.030591
v -0.005649 -0.287756 0.028554
vn 1.000000 0.000000 0.000000
v -0.005642 -0.275679 0.028549
v 0.005653 -0.287826 -0.030599
vn 0.000000 0.000000 1.000000
vn 0.000000 -1.000000 0.000000
vn 0.000000 1.000000 0.000000
v -0.040871 -0.287830 0.063774
v -0.040875 -0.287749 0.063782
vn 0.000000 0.000000 -1.000000
v -0.005630 -0.206195 -0.030597
vn 1.000000 0.000000 0.000000
v 0.005646 -0.275620 0.028583
vn 0.000000 -1.000000 0.000000
v -0.040869 -0.287830 -0.065815
vn 0.325860 -0.945418 0.000000
v 0.005644 -0.275682 -0.030590
v -0.040877 -0.287749 -0.065822
v 0.005655 -0.287828 0.028561
v 0.005632 -0.206193 0.028554
vn 0.000000 -0.945418 -0.325860
v -0.005629 -0.206197 0.028559
vn 0.000000 -0.945418 0.325860
vn -1.000000 0.000000 0.000000
v 0.040869 -0.287830 -0.065815
v 0.040875 -0.287749 -0.065822
v 0.040867 -0.287830 0.063776
v 0.040877 -0.287749 0.063780
vn -1.000000 0.000000 0.000000
v -0.005629 0.287794 0.406755
v 0.005627 -0.206199 -0.030602
vn -0.325860 -0.945418 0.000000
v -0.005652 -0.206182 0.406740
v -0.005642 0.287783 -0.406748
v 0.005635 -0.206189 -0.406752
v 0.005632 -0.206193 0.406751
v 0.005624 -0.174379 0.374937
v -0.005642 -0.206186 -0.406748
v 0.005632 0.287790 0.406751
v 0.005624 -0.174379 -0.374941
v 0.005632 0.287790 -0.406755
v 0.005624 0.255976 -0.374941
v 0.005624 0.255976 0.374937
vn -1.000000 0.000000 0.000000
vn -0.325860 0.945418 0.000000
vn 0.000000 0.945418 0.325860
vn 0.000000 0.945418 -0.325860
vn 0.325860 0.945418 0.000000
vn 1.000000 0.000000 0.000000
g mesh1-geometry-0
usemtl Material.57774a50243e5d429f3a4ea105ec3930
f 1//1 2//1 3//1
f 2//1 1//1 4//1
f 4//2 5//2 2//2
f 6//2 5//2 4//2
f 7//3 8//3 9//3
f 8//3 7//3 10//3
f 7//4 9//4 11//4
f 12//2 5//2 6//2
f 13//4 11//4 9//4
f 14//2 5//2 12//2
f 12//2 6//2 15//2
f 13//4 16//4 11//4
f 5//2 14//2 17//2
f 18//5 14//5 12//5
f 15//6 18//6 12//6
f 19//4 20//4 13//4
f 11//4 16//4 21//4
f 18//6 15//6 21//6
f 13//4 20//4 16//4
f 14//7 19//7 17//7
f 14//5 18//5 22//5
f 20//4 19//4 23//4
f 21//4 16//4 18//4
f 19//7 14//7 22//7
f 23//4 22//4 18//4
f 22//4 23//4 19//4
f 24//4 18//4 16//4
f 23//4 18//4 24//4
g mesh1-geometry-1
usemtl Material.90b00bf69165eda831fe702671104217
f 25//8 26//8 27//8
f 28//8 27//8 26//8
f 25//9 29//9 26//9
f 29//10 1//10 3//10
f 25//11 27//11 8//11
f 1//10 30//10 3//10
f 25//11 31//11 27//11
f 28//12 7//12 27//12
f 26//13 32//13 28//13
f 33//5 26//5 4//5
f 28//14 2//14 7//14
f 2//15 28//15 34//15
f 35//9 26//9 29//9
f 34//10 29//10 3//10
f 25//11 8//11 36//11
f 1//10 29//10 37//10
f 10//11 8//11 27//11
f 37//10 30//10 1//10
f 27//11 31//11 10//11
f 3//10 30//10 34//10
f 36//11 31//11 25//11
f 37//12 27//12 33//12
f 7//12 28//12 38//12
f 28//16 7//16 30//16
f 28//13 32//13 39//13
f 26//9 35//9 32//9
f 26//5 33//5 9//5
f 35//14 7//14 2//14
f 30//15 34//15 28//15
f 2//17 34//17 35//17
f 35//18 29//18 33//18
f 40//10 29//10 34//10
f 36//11 8//11 41//11
f 37//18 33//18 29//18
f 29//10 42//10 37//10
f 10//11 43//11 8//11
f 30//10 37//10 42//10
f 43//11 10//11 31//11
f 39//12 38//12 28//12
f 38//19 35//19 33//19
f 42//16 30//16 7//16
f 39//13 32//13 44//13
f 45//9 32//9 35//9
f 7//20 35//20 42//20
f 40//17 35//17 34//17
f 29//10 40//10 42//10
f 43//11 41//11 8//11
f 39//11 46//11 38//11
f 35//19 38//19 45//19
f 44//13 32//13 47//13
f 46//13 39//13 44//13
f 45//11 48//11 32//11
f 40//20 42//20 35//20
f 49//11 38//11 46//11
f 38//19 50//19 45//19
f 51//13 47//13 32//13
f 44//14 47//14 52//14
f 44//12 52//12 46//12
f 51//11 32//11 48//11
f 45//19 53//19 48//19
f 49//19 50//19 38//19
f 49//12 46//12 52//12
f 50//19 53//19 45//19
f 51//9 48//9 47//9
f 54//14 52//14 47//14
f 55//19 48//19 53//19
f 52//19 50//19 49//19
f 50//21 56//21 53//21
f 54//9 47//9 48//9
f 52//19 54//19 55//19
f 48//19 55//19 54//19
f 55//21 53//21 56//21
f 50//19 52//19 56//19
f 56//19 52//19 55//19
g mesh1-geometry-2
usemtl Material.dc7a3ca9ca091ddbf48733c3a604f557
f 2//7 8//7 25//7
f 1//6 33//6 4//6
f 36//22 4//22 26//22
f 8//7 2//7 9//7
f 7//6 1//6 10//6
f 11//6 4//6 33//6
f 31//23 33//23 4//23
f 5//7 9//7 2//7
f 4//22 36//22 31//22
f 9//24 36//24 26//24
f 4//6 11//6 6//6
f 33//23 31//23 43//23
f 9//7 5//7 13//7
f 43//25 9//25 33//25
f 36//24 9//24 41//24
f 11//10 15//10 6//10
f 5//10 19//10 13//10
f 9//25 43//25 41//25
f 15//10 11//10 21//10
f 19//10 5//10 17//10
f 20//26 24//26 16//26
f 24//26 20//26 23//26
