# created by Ethan Wu and Zhan isaac Ling
mtllib model.mtl
v -0.012160 -0.087777 -0.188925
v -0.099809 -0.087776 -0.152637
v -0.058375 -0.087773 -0.176556
vn 0.000000 -1.000000 0.000000
v 0.035681 -0.087776 -0.188919
v -0.134295 0.087714 -0.324362
vn -0.437772 -0.694078 -0.571500
vn -0.277773 -0.686314 -0.672172
v -0.045767 0.087711 -0.348062
vn -0.095302 -0.678649 -0.728253
vn 0.097203 -0.671649 -0.734465
v -0.133642 -0.087777 -0.118813
v -0.213664 0.087708 -0.278542
v 0.045877 0.087709 -0.348041
v 0.081890 -0.087776 -0.176528
v -0.278479 0.087710 -0.213753
vn -0.565124 -0.701411 -0.434347
v -0.213653 0.087777 -0.278527
v -0.045763 0.087774 -0.348031
v -0.134279 0.087771 -0.324323
vn 0.000000 1.000000 0.000000
vn 0.000000 -1.000000 0.000000
v -0.131181 0.087778 -0.299736
v 0.045875 0.087776 -0.348022
v -0.131181 0.087707 -0.299736
v 0.134396 0.087711 -0.324312
vn 0.285889 -0.665872 -0.689117
v -0.157569 -0.087777 -0.077385
v -0.324315 0.087710 -0.134394
vn -0.652393 -0.707861 -0.270771
v -0.206622 0.087778 -0.256196
v -0.278458 0.087775 -0.213737
v -0.206622 0.087707 -0.256196
v -0.047041 0.087778 -0.322267
v -0.047041 0.087707 -0.322267
v 0.040063 0.087778 -0.322252
v 0.134385 0.087774 -0.324286
v 0.040063 0.087707 -0.322252
v 0.213757 0.087712 -0.278478
vn 0.456611 -0.661805 -0.594575
v 0.123316 -0.087777 -0.152598
v -0.268223 0.087778 -0.194614
v -0.324290 0.087775 -0.134384
v -0.268223 0.087707 -0.194614
v 0.124195 0.087778 -0.299695
v 0.124195 0.087707 -0.299695
v 0.213737 0.087773 -0.278452
v -0.169958 -0.087777 -0.031177
v -0.348048 0.087710 -0.045876
vn -0.695050 -0.713061 -0.091921
v -0.311788 0.087778 -0.119187
v -0.311788 0.087707 -0.119187
v 0.157141 -0.087776 -0.118766
vn 0.596259 -0.659807 -0.457308
v 0.199622 0.087778 -0.256130
v 0.199622 0.087707 -0.256130
v -0.348022 0.087775 -0.045873
v 0.278548 0.087711 -0.213664
v 0.278525 0.087774 -0.213646
v -0.169966 -0.087777 0.016664
v -0.348063 0.087710 0.045769
vn -0.691412 -0.716743 0.090718
v -0.334345 0.087778 -0.035055
v -0.334345 0.087707 -0.035055
v 0.181057 -0.087775 -0.077332
vn 0.694049 -0.660057 -0.287439
v 0.261203 0.087778 -0.194529
v 0.261203 0.087707 -0.194529
v -0.348036 0.087775 0.045765
v 0.324354 0.087710 -0.134288
v 0.324333 0.087776 -0.134279
v -0.157589 -0.087778 0.062876
v -0.324359 0.087711 0.134295
vn -0.642437 -0.718728 0.265903
v -0.334360 0.087778 0.052049
v -0.334360 0.087707 0.052049
v 0.348063 0.087711 -0.045763
vn 0.742613 -0.662533 -0.097851
v 0.304743 0.087778 -0.119088
v 0.304743 0.087707 -0.119088
v 0.193429 -0.087776 -0.031118
v -0.324332 0.087774 0.134283
v 0.348034 0.087774 -0.045760
v -0.133677 -0.087777 0.104312
vn -0.551488 -0.718927 0.423089
v -0.311829 0.087778 0.136188
v -0.311829 0.087707 0.136188
v 0.348048 0.087711 0.045881
vn 0.738698 -0.667013 0.097055
v 0.327274 0.087778 -0.034948
v 0.327274 0.087707 -0.034948
v 0.193419 -0.087778 0.016723
v -0.278548 0.087710 0.213668
v -0.278528 0.087775 0.213652
v 0.348019 0.087774 0.045878
v -0.099854 -0.087777 0.138146
vn -0.424101 -0.717330 0.552789
v -0.268289 0.087778 0.211629
v -0.268289 0.087707 0.211629
v 0.181032 -0.087776 0.062932
vn 0.683360 -0.673105 0.282751
v 0.327260 0.087778 0.052156
v 0.327260 0.087707 0.052156
v -0.213755 0.087709 0.278480
v -0.213741 0.087776 0.278462
v 0.324314 0.087711 0.134400
v 0.304702 0.087778 0.136288
v 0.304702 0.087707 0.136288
v -0.058427 -0.087777 0.162073
vn -0.267779 -0.714010 0.646904
v -0.206707 0.087778 0.273231
v -0.206707 0.087707 0.273231
v 0.324288 0.087774 0.134389
v 0.157104 -0.087777 0.104359
vn 0.581683 -0.680300 0.445910
v -0.134398 0.087710 0.324316
v -0.131280 0.087778 0.316795
v -0.131280 0.087707 0.316795
v 0.261138 0.087778 0.211715
v 0.261138 0.087707 0.211715
v 0.278478 0.087710 0.213759
v -0.012219 -0.087777 0.174462
vn -0.091779 -0.709124 0.699085
v -0.134387 0.087775 0.324292
v 0.278456 0.087775 0.213742
v 0.123270 -0.087777 0.138182
vn 0.442057 -0.688035 0.575494
v -0.045879 0.087710 0.348050
v -0.047148 0.087778 0.339353
v -0.047148 0.087707 0.339353
v 0.199536 0.087778 0.273297
v 0.199536 0.087707 0.273297
v 0.213665 0.087710 0.278551
v 0.035623 -0.087774 0.174475
vn 0.093159 -0.702922 0.705140
v -0.045876 0.087775 0.348024
v 0.213648 0.087775 0.278529
v 0.081837 -0.087773 0.162102
vn 0.275211 -0.695747 0.663472
v 0.045765 0.087709 0.348062
v 0.039955 0.087778 0.339367
v 0.039955 0.087707 0.339367
v 0.124095 0.087778 0.316836
v 0.124095 0.087707 0.316836
v 0.134293 0.087712 0.324364
v 0.045762 0.087776 0.348041
v 0.134280 0.087773 0.324332
v -0.058359 -0.087716 -0.176518
v -0.099790 -0.087713 -0.152613
v -0.012156 -0.087712 -0.188897
vn 0.000000 1.000000 0.000000
v 0.035677 -0.087713 -0.188887
vn 0.277773 0.686314 0.672172
vn 0.437772 0.694078 0.571500
vn 0.095302 0.678649 0.728253
vn -0.097203 0.671649 0.734465
v -0.133620 -0.087712 -0.118796
v 0.081879 -0.087712 -0.176501
vn 0.565124 0.701411 0.434347
vn -0.285889 0.665872 0.689117
v -0.157544 -0.087712 -0.077375
vn 0.652393 0.707861 0.270771
vn -0.456611 0.661805 0.594575
v 0.123302 -0.087711 -0.152580
v -0.169932 -0.087712 -0.031173
vn 0.695050 0.713061 0.091921
v 0.157118 -0.087712 -0.118749
vn -0.596259 0.659807 0.457308
v -0.169940 -0.087712 0.016661
vn 0.691412 0.716743 -0.090718
v 0.181026 -0.087713 -0.077319
vn -0.694049 0.660057 0.287439
v -0.157569 -0.087711 0.062868
vn 0.642437 0.718728 -0.265903
vn -0.742613 0.662534 0.097851
v 0.193401 -0.087712 -0.031114
v -0.133657 -0.087712 0.104296
vn 0.551488 0.718927 -0.423089
vn -0.738698 0.667013 -0.097055
v 0.193396 -0.087711 0.016720
v -0.099838 -0.087712 0.138125
vn 0.424101 0.717330 -0.552789
v 0.181006 -0.087712 0.062921
vn -0.683360 0.673105 -0.282751
v -0.058417 -0.087712 0.162048
vn 0.267779 0.714010 -0.646904
v 0.157082 -0.087712 0.104342
vn -0.581683 0.680300 -0.445910
v -0.012215 -0.087712 0.174436
vn 0.091779 0.709124 -0.699085
v 0.123253 -0.087712 0.138160
vn -0.442057 0.688035 -0.575494
v 0.035618 -0.087714 0.174439
vn -0.093159 0.702922 -0.705140
v 0.081822 -0.087716 0.162065
vn -0.275211 0.695747 -0.663472
g mesh1-geometry-0
usemtl Material.57774a50243e5d429f3a4ea105ec3930
f 1//1 2//1 3//1
f 2//1 1//1 4//1
f 2//2 5//3 3//3
f 3//3 6//4 1//4
f 6//4 4//5 1//4
f 2//1 4//1 7//1
f 5//3 2//2 8//2
f 6//4 3//3 5//3
f 4//5 6//4 9//5
f 7//1 4//1 10//1
f 11//6 2//2 7//6
f 2//2 11//6 8//2
f 12//7 13//7 14//7
f 5//8 6//8 8//8
f 15//7 16//7 13//7
f 6//8 9//8 17//8
f 18//9 4//5 9//5
f 4//5 18//9 10//9
f 7//1 10//1 19//1
f 7//6 20//10 11//6
f 21//7 12//7 22//7
f 11//8 8//8 23//8
f 13//7 12//7 15//7
f 17//8 8//8 6//8
f 16//7 15//7 24//7
f 25//8 17//8 9//8
f 16//7 26//7 27//7
f 18//8 28//8 9//8
f 29//11 10//9 18//9
f 19//1 10//1 30//1
f 20//10 7//6 19//10
f 31//7 22//7 32//7
f 20//8 11//8 33//8
f 15//7 12//7 21//7
f 23//8 8//8 17//8
f 21//7 22//7 31//7
f 33//8 11//8 23//8
f 16//7 24//7 26//7
f 28//8 25//8 9//8
f 27//7 26//7 34//7
f 35//8 28//8 18//8
f 10//9 29//11 30//11
f 27//7 34//7 36//7
f 29//8 35//8 18//8
f 19//1 30//1 37//1
f 19//10 38//12 20//10
f 31//7 32//7 39//7
f 40//8 20//8 33//8
f 29//11 41//13 30//11
f 36//7 34//7 42//7
f 43//8 35//8 29//8
f 37//1 30//1 41//1
f 38//12 19//10 37//12
f 39//7 32//7 44//7
f 38//8 20//8 40//8
f 41//13 29//11 45//13
f 36//7 42//7 46//7
f 45//8 43//8 29//8
f 37//1 41//1 47//1
f 37//12 48//14 38//12
f 39//7 44//7 49//7
f 50//8 38//8 40//8
f 45//13 51//15 41//13
f 46//7 42//7 52//7
f 53//8 43//8 45//8
f 47//1 41//1 51//1
f 48//14 37//12 47//14
f 49//7 44//7 54//7
f 48//8 38//8 50//8
f 51//15 45//13 55//15
f 46//7 52//7 56//7
f 55//8 53//8 45//8
f 47//1 51//1 57//1
f 47//14 58//16 48//14
f 49//7 54//7 59//7
f 60//8 48//8 50//8
f 61//17 51//15 55//15
f 56//7 52//7 62//7
f 63//8 53//8 55//8
f 57//1 51//1 64//1
f 58//16 47//14 57//16
f 59//7 54//7 65//7
f 58//8 48//8 60//8
f 51//15 61//17 64//17
f 56//7 62//7 66//7
f 61//8 63//8 55//8
f 57//1 64//1 67//1
f 67//18 58//16 57//16
f 59//7 65//7 68//7
f 69//8 58//8 60//8
f 70//19 64//17 61//17
f 66//7 62//7 71//7
f 72//8 63//8 61//8
f 67//1 64//1 73//1
f 58//16 67//18 74//18
f 68//7 65//7 75//7
f 74//8 58//8 69//8
f 64//17 70//19 73//19
f 66//7 71//7 76//7
f 70//8 72//8 61//8
f 67//1 73//1 77//1
f 77//20 74//18 67//18
f 68//7 75//7 78//7
f 79//8 74//8 69//8
f 70//19 80//21 73//19
f 76//7 71//7 81//7
f 82//8 72//8 70//8
f 77//1 73//1 80//1
f 74//18 77//20 83//20
f 78//7 75//7 84//7
f 83//8 74//8 79//8
f 80//21 70//19 85//21
f 76//7 81//7 86//7
f 87//8 82//8 70//8
f 77//1 80//1 88//1
f 88//22 83//20 77//20
f 78//7 84//7 89//7
f 90//8 83//8 79//8
f 76//7 86//7 91//7
f 85//8 87//8 70//8
f 85//21 92//23 80//21
f 88//1 80//1 92//1
f 83//20 88//22 93//22
f 89//7 84//7 94//7
f 95//8 83//8 90//8
f 91//7 86//7 96//7
f 97//8 87//8 85//8
f 92//23 85//21 98//23
f 88//1 92//1 99//1
f 99//24 93//22 88//22
f 94//7 84//7 100//7
f 93//8 83//8 95//8
f 91//7 96//7 101//7
f 98//8 97//8 85//8
f 98//23 102//25 92//23
f 99//1 92//1 102//1
f 93//22 99//24 103//24
f 94//7 100//7 104//7
f 105//8 93//8 95//8
f 101//7 96//7 106//7
f 107//8 97//8 98//8
f 102//25 98//23 108//25
f 99//1 102//1 109//1
f 109//26 103//24 99//24
f 104//7 100//7 110//7
f 103//8 93//8 105//8
f 101//7 106//7 111//7
f 108//8 107//8 98//8
f 108//25 112//27 102//25
f 109//1 102//1 112//1
f 103//24 109//26 113//26
f 104//7 110//7 114//7
f 115//8 103//8 105//8
f 111//7 106//7 116//7
f 117//8 107//8 108//8
f 112//27 108//25 118//27
f 118//27 109//26 112//27
f 109//26 118//27 113//26
f 114//7 110//7 119//7
f 113//8 103//8 115//8
f 111//7 116//7 120//7
f 118//8 117//8 108//8
f 116//7 119//7 120//7
f 118//8 113//8 117//8
f 114//7 119//7 116//7
f 117//8 113//8 115//8
g mesh1-geometry-1
usemtl Material.90b00bf69165eda831fe702671104217
f 121//28 122//28 123//28
f 124//28 123//28 122//28
f 121//29 14//29 122//30
f 123//31 13//31 121//29
f 123//31 124//32 13//31
f 125//28 124//28 122//28
f 12//30 122//30 14//29
f 14//29 121//29 13//31
f 16//32 13//31 124//32
f 126//28 124//28 125//28
f 125//33 122//30 22//33
f 12//30 22//33 122//30
f 16//32 124//32 27//34
f 126//34 27//34 124//32
f 127//28 126//28 125//28
f 22//33 32//35 125//33
f 27//34 126//34 36//36
f 128//28 126//28 127//28
f 127//35 125//33 32//35
f 128//36 36//36 126//34
f 129//28 128//28 127//28
f 32//35 44//37 127//35
f 128//36 130//38 36//36
f 130//28 128//28 129//28
f 129//37 127//35 44//37
f 46//38 36//36 130//38
f 131//28 130//28 129//28
f 44//37 54//39 129//37
f 130//38 132//40 46//38
f 132//28 130//28 131//28
f 131//39 129//37 54//39
f 56//40 46//38 132//40
f 133//28 132//28 131//28
f 54//39 65//41 131//39
f 56//40 132//40 66//42
f 134//28 132//28 133//28
f 133//41 131//39 65//41
f 134//42 66//42 132//40
f 135//28 134//28 133//28
f 133//41 65//41 135//43
f 66//42 134//42 76//44
f 136//28 134//28 135//28
f 75//43 135//43 65//41
f 136//44 76//44 134//42
f 137//28 136//28 135//28
f 135//43 75//43 137//45
f 136//44 138//46 76//44
f 138//28 136//28 137//28
f 84//45 137//45 75//43
f 91//46 76//44 138//46
f 139//28 138//28 137//28
f 137//45 84//45 139//47
f 138//46 140//48 91//46
f 140//28 138//28 139//28
f 100//47 139//47 84//45
f 101//48 91//46 140//48
f 141//28 140//28 139//28
f 139//47 100//47 141//49
f 140//48 142//50 101//48
f 142//28 140//28 141//28
f 110//49 141//49 100//47
f 111//50 101//48 142//50
f 143//28 142//28 141//28
f 141//49 110//49 143//51
f 142//50 144//52 111//50
f 144//28 142//28 143//28
f 119//51 143//51 110//49
f 120//52 111//50 144//52
f 144//52 143//51 120//52
f 119//51 120//52 143//51
