# created by Ethan Wu and Zhan isaac Ling
mtllib model.mtl
v -0.032557 -0.282464 -0.124418
v -0.021984 -0.282468 0.251678
v -0.032561 -0.282461 0.251672
vn 0.000000 -1.000000 0.000000
vt -0.232583 0.006507
vt -0.0 0.0
vt -0.0 0.006507
v -0.021970 -0.282457 -0.124411
vt -0.232583 0.0
v -0.032495 -0.282428 0.251639
v -0.022030 -0.282421 0.251632
v -0.032499 -0.282425 -0.124379
vn 0.000000 1.000000 0.000000
v -0.022043 -0.282433 -0.124386
v -0.032562 0.053449 0.251677
vn 0.000000 0.000000 1.000000
vt 0.0 -0.0
vt -0.006507 0.207743
vt -0.006507 -0.0
v -0.032495 0.053443 0.251633
vn 0.000000 0.000000 -1.000000
v -0.032565 -0.272511 0.234241
vn -1.000000 0.000000 0.000000
vt -0.0 0.0
vt -0.010761 0.006139
vt -0.232583 0.0
v -0.032492 -0.272524 0.234273
vn 1.000000 0.000000 0.000000
v -0.021970 0.014182 -0.124414
vn 0.000000 0.000000 -1.000000
vt 0.006507 -0.0
vt -0.0 0.183458
vt -0.0 -0.0
v -0.022044 0.014178 -0.124383
vn 0.000000 0.000000 1.000000
v -0.021969 -0.265058 0.234250
vn 1.000000 0.000000 0.000000
vt 0.010761 0.010761
vt 0.0 0.0
vt 0.232583 0.0
v -0.022045 -0.265034 0.234264
vn -1.000000 0.000000 0.000000
v -0.021968 0.014184 0.251663
vt 0.0 0.183458
v -0.022046 0.014176 0.251647
vt -0.0 0.207743
v -0.032565 -0.272504 -0.106991
vt -0.221822 0.006139
v -0.032492 -0.272532 -0.107009
v -0.032556 0.053459 -0.124424
vt 0.006507 0.207743
v -0.032500 0.053433 -0.124373
v -0.021972 -0.265054 -0.106981
vt 0.221822 0.010761
vt 0.232583 0.183458
v -0.022041 -0.265038 -0.107019
vt 0.0 0.183458
vn 0.965926 0.258819 0.000000
vt 0.0 0.177206
vt 0.232583 0.202348
vt 0.0 0.202348
vn -0.965926 -0.258819 0.000000
v -0.032567 0.040681 0.234247
vt -0.010761 0.199852
v -0.032490 0.040693 0.234267
vt -0.232583 0.207743
vn -0.579005 0.815324 0.000000
vt -0.010761 0.00623
vt -0.221822 -0.001751
vt -0.010761 -0.001751
vn 0.579005 -0.815324 0.000000
vt 0.232583 0.177206
v -0.021968 0.005997 -0.107010
vt 0.221822 0.178393
v -0.022045 0.005985 -0.106990
v -0.021978 0.005987 0.234229
vt 0.010761 0.178393
v -0.022035 0.005995 0.234285
vt -0.221822 0.00623
v -0.032564 0.040684 -0.106982
vt -0.221822 0.199852
v -0.032492 0.040689 -0.107018
vn 0.000000 0.000000 -1.000000
vt -0.0 0.178393
vt 0.006507 0.006139
vt 0.006507 0.199852
vn 0.000000 0.000000 1.000000
vt -0.0 0.010761
vn 0.000000 0.000000 1.000000
vt -0.006507 0.199852
vt 0.0 0.010761
vt 0.0 0.178393
vn 0.000000 0.000000 -1.000000
vt -0.006507 0.006139
vn -0.956968 -0.290195 0.000000
vt -0.221822 0.170716
vt -0.010761 0.19314
vt -0.221822 0.19314
vn 0.956968 0.290195 0.000000
vt -0.010761 0.170716
v -0.073427 0.278349 0.402287
v -0.091525 0.273501 0.188030
v -0.057253 0.145592 0.402279
vn -0.988949 -0.120638 0.086173
v -0.058072 0.282468 -0.402263
vn -0.258819 0.965926 0.000000
v -0.057259 0.145589 -0.402259
vn -0.965926 -0.258819 0.000000
v 0.062593 -0.229330 0.402279
vn 0.000000 0.000000 1.000000
v -0.058059 0.282456 0.402267
v -0.091522 0.273508 -0.188026
v 0.010227 -0.106268 0.402267
v 0.077961 -0.225196 0.402279
v -0.051527 0.258087 0.377035
vn 0.965926 0.258819 0.000000
v -0.073426 0.278340 -0.402287
v 0.010230 -0.106267 -0.402271
vn -0.988949 -0.120638 -0.086173
v 0.077966 -0.225198 -0.402267
vn 0.258819 -0.965926 0.000000
v 0.044506 -0.234176 0.188030
vn -0.916774 -0.389999 0.086173
v 0.071437 -0.200828 0.377029
v -0.051527 0.258079 -0.377031
v 0.062601 -0.229329 -0.402279
vn 0.000000 0.000000 -1.000000
vn 0.258819 -0.965926 0.000000
v 0.071436 -0.200831 -0.377020
v 0.044503 -0.234173 -0.188026
vn -0.916774 -0.389999 -0.086173
v -0.057188 0.145606 0.402232
v -0.091450 0.273472 0.188028
v -0.073396 0.278311 0.402223
vn 0.988949 0.120638 -0.086173
vt -0.005583 1.2955
vt -0.401561 1.69243
vt -0.002561 1.69243
v -0.058109 0.282402 -0.402238
vn 0.258819 -0.965926 0.000000
vt 0.397486 0.102644
vt 1.49272 0.0
vt 0.0 0.047088
v -0.057182 0.145608 -0.402242
vn 0.965926 0.258819 0.000000
vt -0.397486 1.71573
vt -0.0 1.32267
vt -1.49272 1.32267
v 0.062622 -0.229271 0.402232
vn 0.000000 0.000000 -1.000000
vt -0.064152 1.32267
vt -0.02943 1.71573
vt -0.02943 0.155556
v -0.058123 0.282414 0.402243
vt -0.0 0.0
v -0.091454 0.273465 -0.188024
vt 1.09523 0.102644
v 0.010301 -0.106245 0.402244
vt -0.0 0.548611
vt -1.09523 1.71573
v 0.077896 -0.225195 0.402230
vt -0.0 0.155556
vt -0.064152 0.548611
vt -0.0 1.71573
v -0.051605 0.258080 0.377053
vn -0.965926 -0.258819 0.000000
vt 1.49272 1.71573
vt 0.046777 1.64089
vt 0.0 1.71573
v -0.073397 0.278320 -0.402215
vt 1.49272 0.047088
v 0.010298 -0.106246 -0.402232
vt -1.49272 0.548611
vn 0.988949 0.120638 0.086173
vt -1.0855 1.66345
vt -1.48147 1.26652
vt -1.4845 1.66345
v 0.044557 -0.234113 0.188028
vn 0.916774 0.389999 -0.086173
vt -0.002561 0.160577
vt -0.401561 0.160577
vt -0.005583 0.55751
v 0.071370 -0.200859 0.377059
vt 0.046777 0.230399
vt 0.0 0.155556
v -0.051605 0.258088 -0.377049
vt 1.44594 1.64089
v 0.062613 -0.229273 -0.402223
vn 0.000000 0.000000 1.000000
vt 0.02943 1.71573
vt 0.02943 0.155556
vt 0.0 1.71573
vt -0.397486 0.155556
vt 0.064152 1.32267
vt 0.064152 0.548611
v 0.077891 -0.225193 -0.402236
vt 1.49272 0.155556
v -0.057087 0.249646 0.374070
vn -0.358625 -0.096093 0.928523
vt 0.017367 1.64089
vt 0.032325 1.62089
vt 0.017367 0.230399
v 0.071371 -0.200857 -0.377060
vt 1.44594 0.230399
vn -0.838506 0.544893 0.000000
vt 0.046777 1.0976
vt 1.44594 1.0976
vt 0.052331 1.0677
vt 0.0 0.155556
v 0.044560 -0.234116 -0.188023
vt -1.09523 0.155556
v 0.056132 -0.172912 0.374069
vt 0.032325 0.322231
v -0.057088 0.249638 -0.374066
vn -0.358625 -0.096093 -0.928523
vt 0.536845 1.64089
vt 0.536845 0.230399
vt 0.521886 1.62089
vt 1.44039 1.0677
vn 0.916774 0.389999 0.086173
vt -1.0855 0.189556
vt -1.4845 0.189556
vt -1.48147 0.586489
v 0.061288 -0.192155 -0.374058
vn -0.653743 -0.756716 0.000000
vt 1.44594 0.190614
vt 0.046777 0.190614
vt 1.44039 0.230174
v 0.061284 -0.192149 0.374062
vt 0.032325 0.263128
v 0.056202 -0.172893 0.374033
v -0.057017 0.249641 -0.374028
v -0.057018 0.249633 0.374032
vn 0.965926 0.258819 0.000000
vt 0.000892 0.043957
vt 0.998892 0.999576
vt 0.000892 0.999576
vn -0.965926 -0.258819 0.000000
vt 0.052331 1.62089
vt 1.44039 1.62089
vt 0.052331 0.322231
v 0.056132 -0.172912 -0.374065
vt 0.521886 0.322231
vt 0.052331 0.230174
vt 0.521886 0.263128
v 0.061355 -0.192116 0.374040
v 0.056202 -0.172893 -0.374029
vn 0.965926 0.258819 0.000000
vt 0.000892 0.000539
vt 0.998892 0.044029
vt 0.000892 0.044029
vn -0.965926 -0.258819 0.000000
vt 0.052331 0.322231
vt 1.44039 0.322231
vt 0.052331 0.263128
vt 0.998892 0.043957
vt 1.44039 0.322231
v 0.061351 -0.192110 -0.374036
vt 0.998892 0.000539
vt 1.44039 0.263128
vn -0.258819 0.965926 0.000000
v 0.073393 -0.244527 0.398535
vn 0.054230 -0.202390 0.977802
v 0.073440 -0.244491 0.398480
vn -0.054230 0.202390 -0.977802
v 0.082487 -0.242104 0.326921
vn 0.965926 0.258819 0.000000
v 0.082422 -0.242071 0.326954
vn -0.965926 -0.258819 0.000000
v 0.091510 -0.275834 0.391051
v 0.091471 -0.275783 0.391003
v 0.073393 -0.244540 0.326927
vn -0.815097 -0.579325 0.000000
v 0.073441 -0.244478 0.326947
vn 0.815097 0.579325 0.000000
vn -0.258819 0.965926 0.000000
v 0.073390 -0.244529 -0.398527
v 0.073443 -0.244490 -0.398480
vn 0.054230 -0.202390 -0.977802
vn -0.054230 0.202390 0.977802
v 0.082484 -0.242102 -0.326910
v 0.082425 -0.242073 -0.326956
v 0.091525 -0.275821 0.340870
v 0.091455 -0.275796 0.340899
v 0.086020 -0.277303 0.391047
v 0.086046 -0.277238 0.391006
v 0.086021 -0.277304 0.340866
vn -0.933193 -0.359375 0.000000
v 0.086045 -0.277237 0.340903
vn 0.933193 0.359375 0.000000
v 0.091511 -0.275826 -0.391053
v 0.091469 -0.275791 -0.390993
v 0.091522 -0.275830 -0.340869
v 0.091459 -0.275786 -0.340892
v 0.073412 -0.244547 -0.326920
vn 0.258819 -0.965926 0.000000
v 0.073421 -0.244472 -0.326946
vn -0.258819 0.965926 0.000000
vn 0.096025 -0.358370 -0.928628
vn -0.096025 0.358370 0.928628
vn 0.258819 -0.965926 0.000000
vn -0.258819 0.965926 0.000000
v 0.086028 -0.277308 -0.391037
v 0.086039 -0.277234 -0.391008
v 0.086016 -0.277299 -0.340859
vn 0.096025 -0.358370 0.928628
v 0.086050 -0.277242 -0.340903
vn -0.096025 0.358370 -0.928628
vn -0.933193 -0.359375 0.000000
vn 0.933193 0.359375 0.000000
vn 0.258819 -0.965926 0.000000
vn -0.258819 0.965926 0.000000
vn 0.358625 0.096093 -0.928522
vt 0.271826 0.043247
vt 0.276812 0.332933
vt 0.271826 0.337099
vn 0.838506 -0.544893 0.000000
vt 0.723789 0.216227
vt 1.18833 0.222455
vt 0.721938 0.222455
vt 0.276812 0.062379
vn 0.358625 0.096093 0.928522
vt 0.432424 0.332933
vt 0.43741 0.043247
vt 0.43741 0.337099
vt 1.18648 0.216227
vn 0.653743 0.756716 0.000000
vt 1.18648 0.050461
vt 0.721938 0.04222
vt 1.18833 0.04222
vt 0.276812 0.050066
vt 0.432424 0.062379
vt 0.723789 0.050461
vt 0.432424 0.050066
g mesh1-geometry-0
usemtl Material.e6a6298ff53efe4150e122edc010a6a6
f 1/1/1 2/2/1 3/3/1
f 2/2/1 1/1/1 4/4/1
f 5/3/2 6/2/2 7/1/2
f 8/4/2 7/1/2 6/2/2
f 2/5/3 9/6/3 3/7/3
f 5/7/4 10/6/4 6/5/4
f 3/8/5 11/9/5 1/10/5
f 7/10/6 12/9/6 5/8/6
f 1/11/7 13/12/7 4/13/7
f 8/13/8 14/12/8 7/11/8
f 15/14/9 2/15/9 4/16/9
f 8/16/10 6/15/10 16/14/10
f 9/6/3 2/5/3 17/17/3
f 18/17/4 6/5/4 10/6/4
f 11/9/5 3/8/5 9/18/5
f 10/18/6 5/8/6 12/9/6
f 19/19/5 1/10/5 11/9/5
f 12/9/6 7/10/6 20/19/6
f 13/12/7 1/11/7 21/20/7
f 22/20/8 7/11/8 14/12/8
f 23/21/9 4/16/9 13/22/9
f 14/22/10 8/16/10 24/21/10
f 2/15/9 15/14/9 17/23/9
f 18/23/10 16/14/10 6/15/10
f 4/16/9 23/21/9 15/14/9
f 16/14/10 24/21/10 8/16/10
f 17/24/11 21/25/11 9/26/11
f 10/26/12 22/25/12 18/24/12
f 11/9/5 9/18/5 25/27/5
f 26/27/6 10/18/6 12/9/6
f 1/10/5 19/19/5 21/28/5
f 22/28/6 20/19/6 7/10/6
f 16/29/13 19/30/13 11/31/13
f 12/31/14 20/30/14 15/29/14
f 21/25/11 17/24/11 13/32/11
f 14/32/12 18/24/12 22/25/12
f 23/21/9 13/22/9 27/33/9
f 28/33/10 14/22/10 24/21/10
f 17/23/9 15/14/9 29/34/9
f 30/34/10 16/14/10 18/23/10
f 19/30/13 16/29/13 24/35/13
f 23/35/14 15/29/14 20/30/14
f 21/28/5 31/36/5 9/18/5
f 10/18/6 32/36/6 22/28/6
f 25/27/5 9/18/5 31/36/5
f 32/36/6 10/18/6 26/27/6
f 29/37/15 11/38/15 25/39/15
f 26/39/16 12/38/16 30/37/16
f 21/28/5 19/19/5 31/36/5
f 32/36/6 20/19/6 22/28/6
f 11/38/15 29/37/15 15/40/15
f 16/40/16 30/37/16 12/38/16
f 17/23/9 29/34/9 13/22/9
f 14/22/10 30/34/10 18/23/10
f 27/33/9 13/22/9 29/34/9
f 30/34/10 14/22/10 28/33/10
f 31/41/17 23/42/17 28/43/17
f 27/43/18 24/42/18 32/41/18
f 23/42/17 31/41/17 19/44/17
f 20/44/18 32/41/18 24/42/18
f 28/45/19 25/46/19 31/47/19
f 32/47/20 26/46/20 27/45/20
f 25/46/19 28/45/19 29/48/19
f 30/48/20 27/45/20 26/46/20
g mesh4-geometry-0
usemtl Material.dc7a3ca9ca091ddbf48733c3a604f557
f 33//21 34//21 35//21
f 33//22 36//22 34//22
f 37//23 35//23 34//23
f 38//24 33//24 35//24
f 36//22 33//22 39//22
f 34//22 36//22 40//22
f 37//23 41//23 35//23
f 37//23 34//23 40//23
f 42//24 33//24 38//24
f 38//24 35//24 41//24
f 33//24 42//24 39//24
f 39//25 43//25 36//25
f 40//22 36//22 44//22
f 45//23 41//23 37//23
f 44//26 37//26 40//26
f 38//27 46//27 42//27
f 41//28 47//28 38//28
f 42//25 48//25 39//25
f 39//25 48//25 43//25
f 49//25 36//25 43//25
f 36//29 50//29 44//29
f 45//23 47//23 41//23
f 44//29 45//29 37//29
f 46//27 38//27 50//27
f 48//25 42//25 46//25
f 47//30 50//30 38//30
f 51//25 36//25 49//25
f 50//29 36//29 46//29
f 44//29 50//29 45//29
f 47//23 45//23 52//23
f 48//25 46//25 51//25
f 50//30 47//30 52//30
f 36//25 51//25 46//25
f 45//31 50//31 52//31
g mesh4-geometry-1
usemtl Material.ec54333377af01998850abef039c82fd
f 53/49/32 54/50/32 55/51/32
f 54/52/33 56/53/33 55/54/33
f 54/55/34 53/56/34 57/57/34
f 53/58/35 55/59/35 58/60/35
f 59/61/33 55/54/33 56/53/33
f 60/62/33 56/53/33 54/52/33
f 53/56/34 61/63/34 57/57/34
f 60/64/34 54/55/34 57/57/34
f 58/60/35 55/59/35 62/65/35
f 61/66/35 53/58/35 58/60/35
f 59/67/35 62/65/35 55/59/35
f 56/68/36 63/69/36 59/70/36
f 64/71/33 56/53/33 60/62/33
f 57/57/34 61/63/34 65/72/34
f 60/73/37 57/74/37 64/75/37
f 58/76/38 66/77/38 61/78/38
f 59/70/36 67/79/36 62/80/36
f 63/69/36 67/79/36 59/70/36
f 63/69/36 56/68/36 68/81/36
f 64/82/39 69/83/39 56/84/39
f 61/63/34 66/85/34 65/72/34
f 57/86/39 65/87/39 64/82/39
f 70/88/36 62/80/36 67/79/36
f 63/89/40 71/90/40 67/91/40
f 68/81/36 56/68/36 72/92/36
f 63/93/41 68/94/41 71/95/41
f 70/96/39 56/84/39 69/83/39
f 65/87/39 69/83/39 64/82/39
f 73/97/34 65/72/34 66/85/34
f 72/92/36 70/88/36 67/79/36
f 74/98/40 67/91/40 71/90/40
f 70/88/36 72/92/36 56/68/36
f 68/99/42 72/100/42 75/101/42
f 75/102/41 71/95/41 68/94/41
f 73/103/43 69/104/43 65/105/43
f 72/106/44 67/107/44 76/108/44
f 67/91/40 74/98/40 77/109/40
f 78/110/45 79/111/45 80/112/45
f 71/113/46 75/114/46 74/115/46
f 81/116/42 75/101/42 72/100/42
f 77/117/44 76/108/44 67/107/44
f 81/116/42 72/100/42 76/118/42
f 82/119/47 83/120/47 78/121/47
f 74/122/48 81/123/48 77/124/48
f 79/111/45 78/110/45 83/125/45
f 81/126/46 74/115/46 75/114/46
f 83/120/47 82/119/47 84/127/47
f 76/128/48 77/124/48 81/123/48
g mesh4-geometry-2
usemtl Material.efc39ebbb3cc1048a02a4c783fdc17fc
f 62//49 70//49 58//49
f 85//50 42//50 38//50
f 58//51 62//51 86//51
f 69//49 58//49 70//49
f 87//52 46//52 42//52
f 62//53 70//53 88//53
f 42//50 85//50 89//50
f 90//51 86//51 62//51
f 38//54 91//54 85//54
f 86//55 92//55 58//55
f 58//56 69//56 66//56
f 93//54 38//54 50//54
f 69//55 58//55 94//55
f 46//57 93//57 50//57
f 69//58 94//58 70//58
f 95//52 46//52 87//52
f 88//53 70//53 96//53
f 42//52 97//52 87//52
f 88//53 98//53 62//53
f 89//50 85//50 99//50
f 100//51 86//51 90//51
f 97//52 42//52 89//52
f 90//53 62//53 98//53
f 91//54 38//54 93//54
f 94//55 58//55 92//55
f 101//59 85//59 91//59
f 92//60 86//60 102//60
f 73//56 66//56 69//56
f 93//57 46//57 103//57
f 104//58 70//58 94//58
f 105//52 46//52 95//52
f 96//53 70//53 106//53
f 87//61 107//61 95//61
f 96//62 108//62 88//62
f 101//63 87//63 97//63
f 98//64 88//64 102//64
f 85//59 101//59 99//59
f 100//60 102//60 86//60
f 101//65 89//65 99//65
f 100//66 90//66 102//66
f 89//65 101//65 97//65
f 98//66 102//66 90//66
f 87//63 101//63 91//63
f 92//64 102//64 88//64
f 46//52 105//52 103//52
f 104//53 106//53 70//53
f 93//57 103//57 109//57
f 110//58 104//58 94//58
f 95//67 111//67 105//67
f 106//68 112//68 96//68
f 107//61 87//61 91//61
f 92//62 88//62 108//62
f 111//67 95//67 107//67
f 108//68 96//68 112//68
f 93//69 111//69 107//69
f 108//70 112//70 94//70
f 105//71 109//71 103//71
f 104//72 110//72 106//72
f 111//69 93//69 109//69
f 110//70 94//70 112//70
f 109//71 105//71 111//71
f 112//72 106//72 110//72
g mesh4-geometry-3
usemtl Material.e6a6298ff53efe4150e122edc010a6a6
f 48/129/73 80/130/73 43/131/73
f 80/132/74 49/133/74 43/134/74
f 80/130/73 48/129/73 78/135/73
f 79/136/75 51/137/75 49/138/75
f 49/133/74 80/132/74 79/139/74
f 84/140/76 48/141/76 51/142/76
f 82/143/73 78/135/73 48/129/73
f 51/137/75 79/136/75 83/144/75
f 48/141/76 84/140/76 82/145/76
f 84/146/75 51/137/75 83/144/75
