# created by Ethan Wu and Zhan isaac Ling
mtllib model.mtl
v 0.198427 -0.020750 0.318995
v -0.198433 -0.020750 -0.298436
v 0.198427 -0.020750 -0.298436
vn -0.000000 -1.000000 -0.000000
vt 5.05108 48.7993
vt 40.4469 26.0493
vt 40.4469 48.7993
v -0.198433 -0.020750 0.318995
vt 5.05108 26.0493
v 0.170490 0.021838 0.279648
v -0.198432 0.021824 0.318989
v 0.198426 0.021823 0.318990
vn -0.000000 1.000000 -0.000000
vt -7.3054 47.1992
vt -5.05108 26.0493
vt -5.05108 48.7993
v 0.170490 0.021838 -0.253789
v 0.198407 0.021837 -0.298403
vt -37.8887 47.1992
vt -40.4469 48.7993
v -0.172174 0.021838 0.279648
vt -7.3054 27.5533
v -0.172174 0.021838 -0.253789
v -0.198416 0.021837 -0.298408
vt -37.8887 27.5533
vt -40.4469 26.0493
v 0.017956 0.021838 -0.316701
v -0.012205 0.021838 -0.314851
v 0.002997 0.021838 -0.313791
vt -41.4956 38.4539
vt -41.3896 36.7248
vt -41.3288 37.5963
v 0.025461 0.021838 -0.424302
v -0.032804 0.021838 -0.420728
v 0.038096 0.021838 -0.415783
vt -47.6647 38.8842
vt -47.4598 35.5437
vt -47.1763 39.6086
v -0.000577 0.021838 -0.409121
v 0.048096 0.021838 -0.404284
vt -46.7943 37.3914
vt -46.517 40.1819
v -0.019109 0.021838 -0.427411
vt -47.8429 36.3289
v -0.044304 0.021838 -0.410729
vt -46.8865 34.8844
v 0.031651 0.021838 -0.323384
v -0.026614 0.021838 -0.319810
vt -41.8788 39.2391
vt -41.6739 35.8986
v 0.011052 0.021838 -0.429261
vt -47.949 38.0581
v 0.009016 0.021838 -0.407858
vt -46.7219 37.9414
v 0.017956 0.021838 -0.404155
v 0.054779 0.021838 -0.390588
vt -46.5096 38.4539
vt -45.7318 40.5651
v -0.004150 0.021838 -0.430321
vt -48.0098 37.1865
v -0.010170 0.021838 -0.407858
v -0.052823 0.021838 -0.398094
vt -46.7219 36.8414
vt -46.1621 34.396
v 0.043150 0.021838 -0.333383
v -0.039249 0.021838 -0.328329
vt -42.4521 39.8984
vt -42.1623 35.1742
v 0.025632 0.021838 -0.398265
vt -46.1719 38.894
v 0.035225 0.021838 -0.381649
v 0.057689 0.021838 -0.375630
vt -45.2193 39.444
vt -44.8742 40.7319
v -0.032675 0.021838 -0.390588
v -0.057782 0.021838 -0.383685
vt -45.7318 35.5511
vt -45.3359 34.1117
v -0.019109 0.021838 -0.404155
vt -46.5096 36.3289
v 0.051669 0.021838 -0.346019
v 0.025632 0.021838 -0.345848
vt -43.1765 40.3868
vt -43.1667 38.894
v -0.000577 0.021838 -0.334992
vt -42.5443 37.3914
v -0.010170 0.021838 -0.336255
v -0.049249 0.021838 -0.339829
vt -42.6167 36.8414
vt -42.8216 34.6009
v 0.031522 0.021838 -0.390588
vt -45.7318 39.2317
v 0.036488 0.021838 -0.372056
vt -44.6693 39.5164
v 0.056628 0.021838 -0.360428
vt -44.0026 40.6711
v -0.036378 0.021838 -0.381649
v -0.058842 0.021838 -0.368482
vt -45.2193 35.3388
vt -44.4644 34.0509
v -0.026785 0.021838 -0.398265
vt -46.1719 35.8888
v 0.031522 0.021838 -0.353524
vt -43.6068 39.2317
v 0.017956 0.021838 -0.339957
vt -42.829 38.4539
v 0.009016 0.021838 -0.336255
vt -42.6167 37.9414
v -0.032675 0.021838 -0.353524
v -0.055932 0.021838 -0.353524
vt -43.6068 35.5511
vt -43.6068 34.2178
v -0.019109 0.021838 -0.339957
vt -42.829 36.3289
v 0.035225 0.021838 -0.362463
vt -44.1193 39.444
v -0.036378 0.021838 -0.362463
vt -44.1193 35.3388
v -0.037641 0.021838 -0.372056
vt -44.6693 35.2664
v -0.026785 0.021838 -0.345848
vt -43.1667 35.8888
v 0.198374 -0.020697 -0.298383
v -0.198380 -0.020697 -0.298383
v 0.198374 -0.020697 0.318942
vn -0.000000 1.000000 -0.000000
v -0.198380 -0.020697 0.318942
v 0.198437 -0.019648 -0.298434
vn -0.000000 0.000000 -1.000000
v 0.198365 -0.019619 -0.298385
vn -0.000000 0.000000 1.000000
vn -1.000000 0.000000 -0.000000
vn -0.000000 0.000000 1.000000
v -0.198381 0.021760 0.318947
vn -0.000000 0.000000 -1.000000
vn 1.000000 0.000000 -0.000000
v -0.198437 -0.019643 -0.298442
v -0.198377 -0.019623 -0.298376
v 0.198376 0.021760 0.318946
v -0.153754 -0.019609 -0.458354
v 0.198395 0.021747 -0.298415
v -0.153755 0.021768 0.458353
vn -0.000000 -1.000000 -0.000000
v -0.198384 -0.021837 0.318937
v -0.198430 -0.021789 0.319000
v 0.170490 0.021746 0.279648
v -0.198397 0.021747 -0.298411
v 0.164516 -0.019608 -0.458355
vn 0.963221 0.000000 0.268712
v 0.164525 0.021753 -0.458366
vn -0.978325 0.000000 0.207074
v 0.170490 0.021746 -0.253789
v 0.161307 0.021767 0.458354
vn 0.952393 0.000000 -0.304872
v 0.198377 -0.021838 0.318938
v 0.198424 -0.021789 0.318999
v -0.172174 0.021746 0.279648
v -0.172174 0.021746 -0.253789
v -0.153768 0.021749 -0.458371
v 0.002997 0.021746 -0.313791
v 0.038096 0.021746 -0.415783
v 0.161307 -0.021789 0.458354
vn -0.966420 0.000000 -0.256966
v -0.153755 -0.021789 0.458353
v -0.032804 0.021746 -0.420728
v 0.017956 0.021746 -0.316701
v -0.012205 0.021746 -0.314851
v 0.025461 0.021746 -0.424302
v 0.048096 0.021746 -0.404284
v -0.004150 0.021746 -0.430321
v -0.019109 0.021746 -0.427411
v -0.044304 0.021746 -0.410729
v 0.031651 0.021746 -0.323384
v -0.026614 0.021746 -0.319810
v 0.011052 0.021746 -0.429261
v -0.000577 0.021746 -0.409121
v 0.054779 0.021746 -0.390588
v -0.052823 0.021746 -0.398094
v 0.043150 0.021746 -0.333383
v -0.039249 0.021746 -0.328329
v 0.009016 0.021746 -0.407858
v 0.017956 0.021746 -0.404155
v 0.057689 0.021746 -0.375630
v -0.057782 0.021746 -0.383685
v -0.010170 0.021746 -0.407858
v 0.051669 0.021746 -0.346019
v -0.049249 0.021746 -0.339829
v 0.025632 0.021746 -0.398265
v 0.035225 0.021746 -0.381649
v 0.056628 0.021746 -0.360428
v -0.058842 0.021746 -0.368482
v -0.032675 0.021746 -0.390588
v -0.019109 0.021746 -0.404155
v 0.025632 0.021746 -0.345848
v -0.000577 0.021746 -0.334992
v -0.055932 0.021746 -0.353524
v -0.010170 0.021746 -0.336255
v -0.026785 0.021746 -0.398265
v 0.031522 0.021746 -0.390588
v 0.036488 0.021746 -0.372056
v -0.036378 0.021746 -0.381649
v 0.031522 0.021746 -0.353524
v 0.017956 0.021746 -0.339957
v 0.009016 0.021746 -0.336255
v -0.032675 0.021746 -0.353524
v -0.019109 0.021746 -0.339957
v -0.037641 0.021746 -0.372056
v 0.035225 0.021746 -0.362463
v -0.036378 0.021746 -0.362463
v -0.026785 0.021746 -0.345848
vn 1.000000 0.000000 -0.000000
vn -1.000000 0.000000 -0.000000
v -0.153802 -0.019657 -0.458417
v -0.153801 0.021816 0.458417
v 0.164564 -0.019658 -0.458417
vn -0.963221 0.000000 -0.268712
v 0.164555 0.021831 -0.458403
vn 0.978325 0.000000 -0.207074
v 0.161354 0.021816 0.458417
vn -0.952393 0.000000 0.304872
v -0.153788 0.021835 -0.458398
v 0.161354 -0.021838 0.458417
vn 0.966420 0.000000 0.256966
v -0.153801 -0.021837 0.458417
g mesh1-geometry-0
usemtl Material.e6a6298ff53efe4150e122edc010a6a6
f 1/1/1 2/2/1 3/3/1
f 2/2/1 1/1/1 4/4/1
f 5/5/2 6/6/2 7/7/2
f 8/8/2 7/7/2 9/9/2
f 6/6/2 5/5/2 10/10/2
f 7/7/2 8/8/2 5/5/2
f 6/6/2 11/11/2 12/12/2
f 11/11/2 9/9/2 12/12/2
f 9/9/2 11/11/2 8/8/2
f 11/11/2 6/6/2 10/10/2
f 13/13/2 14/14/2 15/15/2
f 16/16/2 17/17/2 18/18/2
f 18/18/2 19/19/2 20/20/2
f 16/16/2 21/21/2 17/17/2
f 18/18/2 17/17/2 22/22/2
f 23/23/2 24/24/2 13/13/2
f 13/13/2 24/24/2 14/14/2
f 25/25/2 21/21/2 16/16/2
f 18/18/2 22/22/2 19/19/2
f 20/20/2 19/19/2 26/26/2
f 20/20/2 27/27/2 28/28/2
f 21/21/2 25/25/2 29/29/2
f 30/30/2 22/22/2 31/31/2
f 32/32/2 33/33/2 23/23/2
f 23/23/2 33/33/2 24/24/2
f 22/22/2 30/30/2 19/19/2
f 20/20/2 26/26/2 27/27/2
f 28/28/2 27/27/2 34/34/2
f 28/28/2 35/35/2 36/36/2
f 37/37/2 31/31/2 38/38/2
f 30/30/2 31/31/2 39/39/2
f 40/40/2 41/41/2 32/32/2
f 42/42/2 33/33/2 32/32/2
f 43/43/2 44/44/2 33/33/2
f 28/28/2 34/34/2 45/45/2
f 28/28/2 45/45/2 35/35/2
f 36/36/2 35/35/2 46/46/2
f 36/36/2 46/46/2 47/47/2
f 48/48/2 38/38/2 49/49/2
f 50/50/2 31/31/2 37/37/2
f 37/37/2 38/38/2 48/48/2
f 39/39/2 31/31/2 50/50/2
f 47/47/2 51/51/2 40/40/2
f 40/40/2 51/51/2 41/41/2
f 32/32/2 41/41/2 52/52/2
f 43/43/2 33/33/2 42/42/2
f 32/32/2 53/53/2 42/42/2
f 54/54/2 55/55/2 44/44/2
f 56/56/2 44/44/2 43/43/2
f 47/47/2 46/46/2 57/57/2
f 58/58/2 49/49/2 55/55/2
f 48/48/2 49/49/2 59/59/2
f 47/47/2 57/57/2 51/51/2
f 32/32/2 52/52/2 53/53/2
f 58/58/2 55/55/2 54/54/2
f 54/54/2 44/44/2 60/60/2
f 60/60/2 44/44/2 56/56/2
f 59/59/2 49/49/2 58/58/2
g mesh1-geometry-1
usemtl Material.90b00bf69165eda831fe702671104217
f 61//3 62//3 63//3
f 64//3 63//3 62//3
f 2//4 65//4 3//4
f 61//5 66//5 62//5
f 61//6 63//6 66//6
f 1//7 6//7 4//7
f 64//8 67//8 63//8
f 64//9 62//9 67//9
f 65//4 2//4 68//4
f 69//5 62//5 66//5
f 70//6 66//6 63//6
f 6//7 1//7 7//7
f 70//8 63//8 67//8
f 69//9 67//9 62//9
f 69//3 66//3 71//3
f 68//4 72//4 65//4
f 66//5 9//5 69//5
f 72//6 66//6 70//6
f 67//10 70//10 73//10
f 70//4 74//4 67//4
f 6//5 75//5 7//5
f 70//10 67//10 76//10
f 77//9 67//9 69//9
f 78//3 71//3 66//3
f 69//11 71//11 77//11
f 72//4 68//4 77//4
f 12//5 69//5 9//5
f 72//12 79//12 66//12
f 72//10 70//10 80//10
f 81//10 73//10 70//10
f 67//13 73//13 74//13
f 74//4 70//4 82//4
f 83//5 7//5 75//5
f 84//10 76//10 67//10
f 76//10 80//10 70//10
f 77//10 85//10 67//10
f 78//5 79//5 71//5
f 78//12 66//12 79//12
f 86//11 77//11 71//11
f 77//10 72//10 85//10
f 77//10 87//10 72//10
f 72//10 88//10 79//10
f 80//10 85//10 72//10
f 81//8 89//8 73//8
f 81//14 70//14 89//14
f 90//13 74//13 73//13
f 82//14 89//14 70//14
f 83//3 75//3 89//3
f 76//10 84//10 80//10
f 84//10 67//10 85//10
f 86//5 71//5 79//5
f 77//10 86//10 91//10
f 87//10 92//10 72//10
f 87//10 77//10 93//10
f 94//10 79//10 88//10
f 95//10 88//10 72//10
f 85//10 80//10 84//10
f 90//8 73//8 89//8
f 90//3 89//3 75//3
f 79//10 96//10 86//10
f 91//10 86//10 97//10
f 98//10 77//10 91//10
f 92//10 99//10 72//10
f 87//10 93//10 92//10
f 93//10 77//10 100//10
f 101//10 79//10 94//10
f 88//10 91//10 94//10
f 95//10 102//10 88//10
f 103//10 95//10 72//10
f 97//10 86//10 96//10
f 96//10 79//10 101//10
f 91//10 97//10 94//10
f 104//10 77//10 98//10
f 98//10 91//10 88//10
f 99//10 105//10 72//10
f 92//10 100//10 99//10
f 93//10 100//10 92//10
f 100//10 77//10 106//10
f 94//10 97//10 101//10
f 102//10 98//10 88//10
f 107//10 102//10 95//10
f 103//10 108//10 95//10
f 109//10 103//10 72//10
f 96//10 101//10 97//10
f 110//10 77//10 104//10
f 104//10 98//10 111//10
f 105//10 112//10 72//10
f 99//10 106//10 105//10
f 100//10 106//10 99//10
f 106//10 77//10 113//10
f 102//10 111//10 98//10
f 102//10 107//10 111//10
f 108//10 107//10 95//10
f 114//10 108//10 103//10
f 109//10 115//10 103//10
f 116//10 109//10 72//10
f 117//10 77//10 110//10
f 110//10 104//10 118//10
f 119//10 104//10 111//10
f 112//10 116//10 72//10
f 105//10 120//10 112//10
f 105//10 106//10 121//10
f 113//10 77//10 122//10
f 106//10 113//10 123//10
f 119//10 111//10 107//10
f 108//10 119//10 107//10
f 114//10 124//10 108//10
f 125//10 114//10 103//10
f 115//10 125//10 103//10
f 126//10 115//10 109//10
f 116//10 126//10 109//10
f 122//10 77//10 117//10
f 117//10 110//10 127//10
f 118//10 104//10 124//10
f 127//10 110//10 118//10
f 124//10 104//10 119//10
f 112//10 128//10 116//10
f 120//10 128//10 112//10
f 129//10 120//10 105//10
f 121//10 106//10 123//10
f 121//10 130//10 105//10
f 113//10 122//10 131//10
f 123//10 113//10 132//10
f 124//10 119//10 108//10
f 118//10 124//10 114//10
f 125//10 118//10 114//10
f 115//10 127//10 125//10
f 126//10 133//10 115//10
f 134//10 126//10 116//10
f 122//10 117//10 135//10
f 133//10 117//10 127//10
f 127//10 118//10 125//10
f 128//10 134//10 116//10
f 120//10 136//10 128//10
f 129//10 132//10 120//10
f 130//10 129//10 105//10
f 121//10 123//10 130//10
f 131//10 122//10 135//10
f 136//10 113//10 131//10
f 132//10 113//10 136//10
f 123//10 132//10 129//10
f 133//10 127//10 115//10
f 135//10 133//10 126//10
f 134//10 135//10 126//10
f 135//10 117//10 133//10
f 128//10 131//10 134//10
f 136//10 131//10 128//10
f 132//10 136//10 120//10
f 130//10 123//10 129//10
f 131//10 135//10 134//10
g mesh1-geometry-2
usemtl Material.dc7a3ca9ca091ddbf48733c3a604f557
f 65//15 1//15 3//15
f 6//16 2//16 4//16
f 1//15 65//15 7//15
f 2//16 6//16 68//16
f 137//1 65//1 68//1
f 7//15 65//15 9//15
f 138//2 7//2 6//2
f 68//16 6//16 12//16
f 65//1 137//1 139//1
f 12//17 137//17 68//17
f 65//18 140//18 9//18
f 7//2 138//2 141//2
f 75//19 138//19 6//19
f 137//4 140//4 139//4
f 140//18 65//18 139//18
f 137//17 12//17 142//17
f 9//2 15//2 12//2
f 140//2 18//2 9//2
f 138//7 143//7 141//7
f 143//20 7//20 141//20
f 138//19 75//19 144//19
f 7//20 143//20 83//20
f 143//1 74//1 82//1
f 140//4 137//4 142//4
f 17//2 142//2 12//2
f 9//2 13//2 15//2
f 14//2 12//2 15//2
f 18//2 140//2 16//2
f 9//2 18//2 20//2
f 143//7 138//7 144//7
f 74//1 143//1 144//1
f 142//2 29//2 140//2
f 21//2 142//2 17//2
f 17//2 12//2 22//2
f 9//2 23//2 13//2
f 24//2 12//2 14//2
f 16//2 140//2 25//2
f 9//2 20//2 28//2
f 29//2 142//2 21//2
f 25//2 140//2 29//2
f 22//2 12//2 31//2
f 9//2 32//2 23//2
f 33//2 12//2 24//2
f 9//2 28//2 36//2
f 31//2 12//2 38//2
f 9//2 40//2 32//2
f 44//2 12//2 33//2
f 9//2 36//2 47//2
f 38//2 12//2 49//2
f 9//2 47//2 40//2
f 55//2 12//2 44//2
f 49//2 12//2 55//2
g mesh1-geometry-3
usemtl Material.b2cdaf4394d1a4f850458878b81c7fa1
f 8//2 10//2 5//2
f 10//2 8//2 11//2
g mesh1-geometry-4
usemtl Material.efc39ebbb3cc1048a02a4c783fdc17fc
f 30//2 26//2 19//2
f 26//2 30//2 39//2
f 26//2 39//2 27//2
f 27//2 50//2 34//2
f 27//2 39//2 50//2
f 34//2 50//2 37//2
f 34//2 37//2 45//2
f 45//2 48//2 35//2
f 35//2 59//2 46//2
f 45//2 37//2 48//2
f 51//2 60//2 41//2
f 41//2 56//2 52//2
f 53//2 43//2 42//2
f 52//2 56//2 43//2
f 35//2 48//2 59//2
f 46//2 59//2 58//2
f 46//2 58//2 57//2
f 57//2 54//2 51//2
f 51//2 54//2 60//2
f 41//2 60//2 56//2
f 52//2 43//2 53//2
f 57//2 58//2 54//2
