# created by Ethan Wu and Zhan isaac Ling
mtllib model.mtl
v 0.044950 -0.184790 -0.317286
v 0.055467 0.330998 -0.317283
v 0.055454 -0.184774 -0.317271
vn 0.000000 0.000000 -1.000000
v 0.044933 0.330992 -0.317277
v 0.055458 0.360424 -0.336797
vn -1.000000 0.000000 0.000000
v 0.055459 -0.184785 0.314270
vn 0.000000 -1.000000 0.000000
v 0.044938 -0.184778 0.314284
vn -1.000000 0.000000 0.000000
v 0.044947 0.331007 0.314275
vn 0.000000 1.000000 0.000000
v 0.055458 -0.228967 -0.336797
v 0.055459 0.330987 0.314279
v 0.055461 -0.228964 0.336794
v -0.018164 -0.228964 -0.336794
vn 0.000000 0.000000 1.000000
v 0.055455 0.360428 0.336801
vn 0.000000 0.000000 1.000000
vn 0.000000 1.000000 0.000000
v -0.018157 0.360428 -0.336801
v -0.018161 0.360424 0.336797
vn 0.000000 -1.000000 0.000000
vn 0.000000 0.000000 -1.000000
v -0.018161 -0.228967 0.336797
v -0.018157 -0.128863 -0.125460
vn 1.000000 0.000000 0.000000
v -0.018161 -0.128859 0.127123
v -0.018164 -0.107841 -0.125454
v -0.066034 -0.128859 -0.125442
v -0.018161 -0.107838 0.127123
v -0.066034 -0.128859 0.127108
v -0.081328 -0.107838 -0.125442
v -0.081328 -0.107838 0.127108
v -0.066034 -0.345990 0.127108
v -0.081328 -0.360417 -0.125442
v -0.066034 -0.345990 -0.125442
v -0.081328 -0.360417 0.127108
v 0.081315 -0.345997 -0.125450
v 0.081315 -0.360411 0.127117
v 0.081315 -0.345997 0.127117
v 0.081315 -0.360411 -0.125450
v 0.055522 -0.184757 -0.317254
v 0.055509 0.330957 -0.317242
v 0.044974 -0.184742 -0.317239
vn 0.000000 0.000000 1.000000
vt 0.625548 0.016711
vt 0.625548 0.816042
vt 0.635965 0.016711
v 0.044992 0.330963 -0.317248
vt 0.635965 0.816042
v 0.055517 0.360454 -0.336827
vn 1.000000 0.000000 0.000000
vt 0.627058 0.016711
vt 0.646406 0.861704
vt 0.627058 0.816042
v 0.055516 -0.184746 0.314251
vn 0.000000 1.000000 0.000000
vt -0.627058 0.979632
vt -0.627058 0.995945
vt -0.002058 0.979632
v 0.044977 0.330948 0.314245
vn 0.000000 -1.000000 0.000000
vt 0.627058 0.995945
vt 0.627058 0.979632
vt 0.002058 0.995945
v 0.055517 -0.228996 -0.336827
vt 0.646406 -0.051818
v 0.055516 0.330968 0.314241
vt 0.002058 0.816042
v 0.044986 -0.184754 0.314236
vt -0.002058 0.995945
v 0.055514 -0.228999 0.336830
vt 0.002058 0.016711
vt -0.020261 -0.051818
vt 0.002058 0.979632
v -0.018216 -0.228999 -0.336830
vn 0.000000 0.000000 -1.000000
vt 0.698465 -0.051818
vt 0.625548 0.861704
vt 0.625548 -0.051818
v 0.055520 0.360450 0.336823
vt -0.020261 0.861704
vt -0.625548 0.016711
vt -0.635965 0.016711
vt -0.625548 0.816042
vt -0.635965 0.816042
vn 0.000000 -1.000000 0.000000
vt 0.020261 0.979632
vt -0.646406 1.09382
vt -0.646406 0.979632
v -0.018223 0.360450 -0.336823
vt 0.698465 0.861704
v -0.018219 0.360454 0.336827
vn 0.000000 1.000000 0.000000
vt 0.646406 0.979632
vt -0.020261 1.09382
vt -0.020261 0.979632
vt -0.698465 0.861704
vt -0.625548 -0.051818
vt -0.625548 0.861704
v -0.018219 -0.228996 0.336827
vt 0.020261 1.09382
v -0.018223 -0.128885 -0.125482
vn -1.000000 0.000000 0.000000
vt -0.646406 -0.051818
vt -0.437248 0.103335
vt -0.646406 0.861704
vt 0.646406 1.09382
vt -0.698465 -0.051818
v -0.018219 -0.128889 0.127152
vt 0.020261 -0.051818
vt -0.187248 0.103335
v -0.018216 -0.107806 -0.125489
vt -0.437248 0.135961
vt 0.020261 0.861704
v -0.066005 -0.128889 -0.125501
vt -0.187248 1.09382
vt -0.437248 1.16795
vt -0.437248 1.09382
vt 0.7458 0.103335
vt 0.698465 0.135961
vt 0.698465 0.103335
v -0.018219 -0.107808 0.127152
vt -0.187248 0.135961
v -0.066005 -0.128889 0.127167
vt -0.187248 1.16795
v -0.081357 -0.107808 -0.125501
vt 0.760965 0.135961
v -0.081357 -0.107808 0.127167
vt 0.437248 1.09382
vt 0.187248 1.1917
vt 0.187248 1.09382
vt -0.760965 0.135961
vt -0.698465 0.103335
vt -0.698465 0.135961
vt -0.7458 0.103335
v -0.066005 -0.345961 0.127167
vt 0.187248 -0.233143
vt 0.437248 0.103335
vt 0.187248 0.103335
v -0.081357 -0.360447 -0.125501
vt 0.760965 -0.255548
vt 0.437248 1.1917
vt -0.7458 -0.233143
v -0.066005 -0.345961 -0.125501
vt 0.437248 -0.233143
vt 0.7458 -0.233143
vt -0.437248 -0.255548
v -0.081357 -0.360447 0.127167
vt -0.760965 -0.255548
v 0.081357 -0.345955 -0.125492
vt 0.187248 1.16795
vt 0.437248 0.939571
vt 0.437248 1.16795
vt 0.599967 -0.233143
vt -0.187248 -0.255548
v 0.081357 -0.360454 0.127158
vt -0.599967 -0.255548
v 0.081357 -0.345955 0.127158
vt 0.187248 0.939571
v 0.081357 -0.360454 -0.125492
vt 0.599967 -0.255548
vt -0.437248 1.1917
vt -0.187248 0.939571
vt -0.187248 1.1917
vt -0.599967 -0.233143
vt 0.187248 -0.255548
vt 0.437248 -0.255548
vt -0.437248 0.939571
vn 1.000000 0.000000 0.000000
vt -0.627058 0.017073
vt -0.627058 0.83374
vt -0.002058 0.017073
vt -0.002058 0.83374
g mesh1-geometry-0
usemtl Material.57774a50243e5d429f3a4ea105ec3930
f 1//1 2//1 3//1
f 2//1 1//1 4//1
f 2//2 5//2 3//2
f 6//3 1//3 3//3
f 7//4 4//4 1//4
f 8//5 2//5 4//5
f 5//2 9//2 3//2
f 10//2 5//2 2//2
f 1//3 6//3 7//3
f 3//2 11//2 6//2
f 4//4 7//4 8//4
f 2//5 8//5 10//5
f 11//2 3//2 9//2
f 9//6 5//6 12//6
f 5//2 10//2 13//2
f 10//7 7//7 6//7
f 13//2 6//2 11//2
f 7//7 10//7 8//7
f 9//8 12//8 11//8
f 14//6 12//6 5//6
f 10//2 6//2 13//2
f 13//9 15//9 5//9
f 13//10 11//10 15//10
f 16//8 11//8 12//8
f 14//11 17//11 12//11
f 14//9 5//9 15//9
f 16//10 15//10 11//10
f 12//11 18//11 16//11
f 18//11 12//11 17//11
f 19//11 17//11 14//11
f 15//11 19//11 14//11
f 15//11 16//11 18//11
f 17//8 20//8 18//8
f 17//6 19//6 20//6
f 19//11 15//11 21//11
f 21//11 15//11 18//11
f 22//8 18//8 20//8
f 23//6 20//6 19//6
f 21//9 24//9 19//9
f 21//10 18//10 24//10
f 22//10 24//10 18//10
f 22//2 20//2 25//2
f 26//6 20//6 23//6
f 23//9 19//9 24//9
f 25//10 24//10 22//10
f 27//2 25//2 20//2
f 20//6 26//6 27//6
f 23//11 24//11 26//11
f 24//10 25//10 28//10
f 27//9 29//9 25//9
f 27//6 26//6 29//6
f 28//11 26//11 24//11
f 28//10 25//10 30//10
f 31//9 25//9 29//9
f 32//6 29//6 26//6
f 28//8 30//8 26//8
f 31//10 30//10 25//10
f 31//2 29//2 30//2
f 32//2 30//2 29//2
f 32//8 26//8 30//8
g mesh1-geometry-1
usemtl Material.fab57047b918532a092dd588832f0228
f 33/1/12 34/2/12 35/3/12
f 36/4/12 35/3/12 34/2/12
f 33/5/13 37/6/13 34/7/13
f 33/8/14 35/9/14 38/10/14
f 36/11/15 34/12/15 39/13/15
f 33/5/13 40/14/13 37/6/13
f 34/7/13 37/6/13 41/15/13
f 42/16/14 38/10/14 35/9/14
f 38/17/13 43/18/13 33/5/13
f 41/19/15 39/13/15 34/12/15
f 40/14/13 33/5/13 43/18/13
f 44/20/16 37/21/16 40/22/16
f 45/23/13 41/15/13 37/6/13
f 38/24/10 42/25/10 41/26/10
f 43/18/13 38/17/13 45/23/13
f 39/27/10 41/26/10 42/25/10
f 43/28/17 44/29/17 40/30/17
f 37/21/16 44/20/16 46/31/16
f 45/23/13 38/17/13 41/15/13
f 37/32/18 47/33/18 45/34/18
f 47/35/7 43/36/7 45/37/7
f 44/29/17 43/28/17 48/38/17
f 44/39/19 49/40/19 46/41/19
f 47/33/18 37/32/18 46/42/18
f 43/36/7 47/35/7 48/43/7
f 48/44/19 50/45/19 44/39/19
f 49/40/19 44/39/19 50/45/19
f 46/41/19 49/40/19 51/46/19
f 46/41/19 51/46/19 47/47/19
f 50/45/19 48/44/19 47/47/19
f 50/48/17 52/49/17 49/50/17
f 52/51/16 51/52/16 49/53/16
f 53/54/19 47/47/19 51/46/19
f 50/45/19 47/47/19 53/54/19
f 52/49/17 50/48/17 54/55/17
f 51/52/16 52/51/16 55/56/16
f 51/57/18 56/58/18 53/59/18
f 56/60/7 50/61/7 53/62/7
f 50/61/7 56/60/7 54/63/7
f 57/64/13 52/65/13 54/66/13
f 55/56/16 52/51/16 58/67/16
f 56/58/18 51/57/18 55/68/18
f 54/63/7 56/60/7 57/69/7
f 52/65/13 57/64/13 59/70/13
f 59/71/16 58/67/16 52/51/16
f 58/72/19 56/54/19 55/46/19
f 60/73/7 57/69/7 56/60/7
f 57/74/18 61/75/18 59/76/18
f 61/77/16 58/67/16 59/71/16
f 56/54/19 58/72/19 60/78/19
f 62/79/7 57/69/7 60/73/7
f 61/75/18 57/74/18 63/80/18
f 58/67/16 61/77/16 64/81/16
f 58/82/17 62/83/17 60/84/17
f 57/69/7 62/79/7 63/85/7
f 62/86/13 61/70/13 63/64/13
f 61/70/13 62/86/13 64/87/13
f 62/83/17 58/82/17 64/88/17
g mesh1-geometry-2
usemtl Material.adfca2fb27c1e89c3ee819ce9372e850
f 35/89/20 36/90/20 42/91/20
f 39/92/20 42/91/20 36/90/20
