# created by Ethan Wu and Zhan isaac Ling
mtllib model.mtl
v 0.222208 -0.209261 -0.058380
v 0.168930 -0.209261 0.057489
v 0.168930 -0.209261 -0.058380
vn 0.000000 -1.000000 0.000000
v 0.222208 -0.209261 0.057489
v 0.168918 -0.218547 -0.058392
vn 1.000000 0.000000 0.000000
vn 0.000000 0.000000 1.000000
v 0.222217 -0.218546 0.057499
vn -1.000000 0.000000 0.000000
vn 0.000000 0.000000 -1.000000
v 0.168920 -0.218546 0.057499
v 0.222214 -0.218543 -0.058386
v 0.128439 -0.218542 0.352388
v 0.279353 -0.218548 -0.352370
v 0.279355 -0.218548 0.352373
v 0.128439 -0.218549 0.288765
v 0.128439 -0.218549 0.010848
v 0.237630 -0.218540 -0.047941
v 0.237784 -0.218547 0.051049
v 0.279373 -0.209241 0.352391
v 0.128439 -0.218549 0.225162
v 0.083086 -0.218534 0.352395
vn 0.000000 -1.000000 0.000000
v 0.128439 -0.218549 -0.053610
v 0.128439 -0.218549 0.090102
v 0.258462 -0.218543 -0.047944
v 0.237621 -0.218547 -0.014208
v 0.263258 -0.218540 0.051040
v 0.128439 -0.209241 0.352402
v 0.128439 -0.218549 0.154807
v 0.037734 -0.218549 0.288765
vn 0.000000 -1.000000 0.000000
v 0.037734 -0.218539 0.352391
v 0.128439 -0.218549 -0.096009
v -0.279358 -0.218543 0.010848
vn 0.000000 -1.000000 0.000000
v -0.279358 -0.218543 0.090102
v 0.258462 -0.218543 -0.014214
v 0.258456 -0.209261 -0.047938
v 0.237633 -0.209261 -0.014220
v 0.237793 -0.218540 0.016301
v 0.237796 -0.209261 0.051037
v 0.279373 -0.209241 -0.352391
v -0.279363 -0.218539 0.225162
v -0.279363 -0.218539 0.288765
v 0.083086 -0.209241 0.352402
vn 0.000000 0.000000 1.000000
v 0.128439 -0.218549 -0.138408
v -0.279358 -0.218543 -0.053610
vn 0.000000 -1.000000 0.000000
v -0.279358 -0.218543 0.154807
v 0.263265 -0.218546 0.016295
v 0.237633 -0.209261 -0.047938
v 0.263255 -0.209261 0.051037
v -0.279358 -0.218534 0.352388
vn 0.000000 -1.000000 0.000000
v -0.007618 -0.218534 0.352395
v 0.037734 -0.209241 0.352402
v 0.128439 -0.218549 -0.191898
v -0.230295 -0.218549 -0.138408
v -0.279358 -0.218543 -0.096009
v -0.279373 -0.107531 -0.281630
v 0.258456 -0.209261 -0.014220
v 0.237796 -0.209261 0.016305
v 0.263255 -0.209261 0.016305
v -0.279373 -0.107531 0.239965
v -0.171389 -0.218534 0.352395
v -0.279373 0.154425 0.239965
v -0.052971 -0.218534 0.352395
vn 0.000000 0.000000 1.000000
v 0.128439 -0.218549 -0.226961
v 0.128439 -0.218534 -0.352395
v -0.112180 -0.218534 0.352395
v -0.171389 -0.209241 0.352402
v -0.279358 -0.209241 0.352395
v -0.007618 -0.209241 0.352402
v -0.279358 -0.218543 -0.191898
v -0.279358 -0.218543 -0.138408
v 0.083086 -0.218534 -0.352395
v -0.279373 0.154425 -0.281630
v -0.112180 -0.209241 0.352402
v -0.279367 0.218539 0.352381
v -0.052971 -0.209241 0.352402
v -0.279358 -0.218543 -0.245388
v 0.037734 -0.218534 -0.352395
v -0.279367 0.218539 -0.352381
v -0.263111 0.218549 0.352391
v -0.171389 -0.218539 -0.352391
v -0.007618 -0.218534 -0.352395
v -0.279367 -0.218528 -0.352381
v -0.263111 -0.209241 0.352402
vn 0.000000 1.000000 0.000000
v -0.112180 -0.218534 -0.352395
v -0.052971 -0.218534 -0.352395
v -0.263111 0.218549 -0.352391
v -0.263111 -0.209241 -0.352402
v -0.279338 -0.209241 -0.352402
v 0.168889 -0.209221 -0.058421
v 0.168889 -0.209221 0.057530
v 0.222248 -0.209221 -0.058421
vn 0.000000 1.000000 0.000000
v 0.222248 -0.209221 0.057530
v 0.128439 -0.218486 0.352345
v 0.128439 -0.218479 0.288765
v 0.083086 -0.218494 0.352337
vn 0.000000 1.000000 0.000000
v 0.128439 -0.218479 0.225162
v 0.037734 -0.218479 0.288765
vn 0.000000 1.000000 0.000000
v 0.037734 -0.218489 0.352341
v 0.128439 -0.218479 0.010848
v 0.128439 -0.218479 -0.053610
v -0.279319 -0.218485 0.010848
vn 0.000000 1.000000 0.000000
v 0.128439 -0.218479 0.090102
v -0.279319 -0.218485 0.090102
v 0.128439 -0.218479 0.154807
v -0.279313 -0.218489 0.225162
v -0.279313 -0.218489 0.288765
v 0.128439 -0.218479 -0.096009
v -0.279319 -0.218485 -0.053610
vn 0.000000 1.000000 0.000000
v -0.279319 -0.218485 0.154807
v -0.279317 -0.218493 0.352346
vn 0.000000 1.000000 0.000000
v -0.007618 -0.218494 0.352337
v 0.128439 -0.218479 -0.138408
v -0.230295 -0.218479 -0.138408
v -0.279319 -0.218485 -0.096009
v 0.237592 -0.209221 -0.047978
v 0.237592 -0.209221 -0.014179
v 0.258497 -0.209221 -0.047978
v 0.263296 -0.209221 0.051078
v 0.263296 -0.209221 0.016264
v 0.237755 -0.209221 0.051078
v -0.171389 -0.218494 0.352337
v -0.052971 -0.218494 0.352337
v 0.128439 -0.218479 -0.191898
v 0.258497 -0.209221 -0.014179
v 0.237755 -0.209221 0.016264
v -0.112180 -0.218494 0.352337
v 0.128439 -0.218479 -0.226961
v -0.279319 -0.218485 -0.191898
v -0.279319 -0.218485 -0.138408
v 0.128439 -0.218494 -0.352337
v 0.083086 -0.218494 -0.352337
v -0.279319 -0.218485 -0.245388
v 0.037734 -0.218494 -0.352337
v -0.171389 -0.218489 -0.352341
v -0.007618 -0.218494 -0.352337
v -0.279309 -0.218499 -0.352352
v -0.112180 -0.218494 -0.352337
v -0.052971 -0.218494 -0.352337
v 0.168901 -0.218481 -0.058409
vn -1.000000 0.000000 0.000000
vn 0.000000 0.000000 -1.000000
v 0.222239 -0.218482 0.057520
vn 1.000000 0.000000 0.000000
vn 0.000000 0.000000 1.000000
v 0.168899 -0.218482 0.057520
v 0.222242 -0.218485 -0.058415
v 0.279344 -0.218479 -0.352362
v 0.279341 -0.218480 0.352360
v 0.237596 -0.218488 -0.047975
v 0.237767 -0.218481 0.051066
v 0.279323 -0.209241 0.352341
v 0.258491 -0.218485 -0.047972
v 0.237605 -0.218481 -0.014191
v 0.263293 -0.218488 0.051074
v 0.128439 -0.209241 0.352331
v 0.258491 -0.218485 -0.014185
v 0.237758 -0.218488 0.016267
v 0.279323 -0.209241 -0.352341
v 0.263286 -0.218482 0.016274
v 0.128439 -0.209241 -0.352331
v -0.279303 -0.107531 -0.281630
v -0.279303 -0.107531 0.239965
v -0.279303 0.154425 0.239965
v -0.279319 -0.209241 0.352337
v -0.279309 0.218510 0.352352
v -0.279309 0.218510 -0.352352
v -0.279303 0.154425 -0.281630
v -0.263111 0.218499 0.352341
v -0.263111 -0.209241 0.352331
vn 0.000000 -1.000000 0.000000
v -0.263111 0.218499 -0.352341
v -0.279338 -0.209241 -0.352331
v -0.263111 -0.209241 -0.352331
v 0.083086 -0.209241 0.352331
vn 0.000000 0.000000 -1.000000
v 0.128439 -0.209241 -0.352402
v 0.037734 -0.209241 0.352331
vn 0.000000 0.000000 -1.000000
v 0.083086 -0.209241 -0.352402
v 0.083086 -0.209241 -0.352331
v -0.171389 -0.209241 0.352331
v -0.007618 -0.209241 0.352331
v -0.112180 -0.209241 0.352331
v -0.052971 -0.209241 0.352331
v 0.037734 -0.209241 -0.352402
v 0.037734 -0.209241 -0.352331
v -0.007618 -0.209241 -0.352402
v -0.007618 -0.209241 -0.352331
v -0.171389 -0.209241 -0.352402
v -0.171389 -0.209241 -0.352331
v -0.052971 -0.209241 -0.352402
v -0.052971 -0.209241 -0.352331
v -0.112180 -0.209241 -0.352402
v -0.112180 -0.209241 -0.352331
g mesh1-geometry-0
usemtl Material.57774a50243e5d429f3a4ea105ec3930
f 1//1 2//1 3//1
f 2//1 1//1 4//1
f 2//2 5//2 3//2
f 5//3 1//3 3//3
f 1//4 6//4 4//4
f 6//5 2//5 4//5
f 5//2 2//2 7//2
f 1//3 5//3 8//3
f 6//4 1//4 8//4
f 2//5 6//5 7//5
f 7//1 9//1 5//1
f 5//1 10//1 8//1
f 8//1 10//1 6//1
f 11//1 7//1 6//1
f 9//1 7//1 11//1
f 12//1 5//1 9//1
f 13//1 10//1 5//1
f 6//1 10//1 14//1
f 11//1 6//1 15//1
f 16//3 9//3 11//3
f 17//1 5//1 12//1
f 18//6 12//6 9//6
f 19//1 10//1 13//1
f 13//1 5//1 20//1
f 14//1 10//1 21//1
f 22//1 6//1 14//1
f 15//1 6//1 22//1
f 11//1 15//1 23//1
f 9//3 16//3 24//3
f 10//2 16//2 11//2
f 25//1 5//1 17//1
f 26//7 17//7 12//7
f 27//6 12//6 18//6
f 24//3 18//3 9//3
f 28//1 10//1 19//1
f 29//8 19//8 13//8
f 20//1 5//1 25//1
f 30//1 13//1 20//1
f 21//1 10//1 31//1
f 32//3 14//3 21//3
f 14//2 33//2 22//2
f 15//1 22//1 34//1
f 35//5 23//5 15//5
f 11//1 23//1 10//1
f 16//2 10//2 36//2
f 37//1 25//1 17//1
f 38//7 17//7 26//7
f 12//6 27//6 26//6
f 39//9 27//9 18//9
f 18//3 24//3 39//3
f 40//1 10//1 28//1
f 41//10 28//10 19//10
f 19//8 29//8 41//8
f 13//1 30//1 29//1
f 42//1 20//1 25//1
f 20//1 42//1 30//1
f 31//1 10//1 43//1
f 31//4 32//4 21//4
f 14//3 32//3 44//3
f 33//2 14//2 44//2
f 33//5 31//5 22//5
f 31//1 34//1 22//1
f 34//2 35//2 15//2
f 23//5 35//5 45//5
f 43//1 10//1 23//1
f 25//1 37//1 42//1
f 17//7 38//7 37//7
f 26//11 46//11 38//11
f 47//11 26//11 27//11
f 27//9 39//9 48//9
f 49//1 10//1 40//1
f 28//1 50//1 40//1
f 28//10 41//10 51//10
f 29//4 52//4 41//4
f 30//4 52//4 29//4
f 42//4 52//4 30//4
f 34//1 31//1 43//1
f 32//4 31//4 53//4
f 32//1 33//1 44//1
f 31//5 33//5 53//5
f 35//2 34//2 54//2
f 35//1 55//1 45//1
f 55//4 23//4 45//4
f 23//4 55//4 43//4
f 37//4 52//4 42//4
f 38//4 56//4 37//4
f 46//11 26//11 57//11
f 46//4 58//4 38//4
f 59//11 26//11 47//11
f 48//12 47//12 27//12
f 60//1 10//1 49//1
f 50//1 49//1 40//1
f 51//1 50//1 28//1
f 41//4 52//4 51//4
f 33//1 32//1 53//1
f 55//1 35//1 54//1
f 10//1 60//1 61//1
f 37//4 56//4 52//4
f 56//4 38//4 58//4
f 57//11 26//11 62//11
f 63//3 46//3 57//3
f 64//4 58//4 46//4
f 62//11 26//11 59//11
f 65//3 59//3 47//3
f 47//12 48//12 65//12
f 66//1 60//1 49//1
f 67//1 49//1 50//1
f 50//1 51//1 67//1
f 51//4 52//4 67//4
f 60//1 68//1 61//1
f 56//4 69//4 52//4
f 69//4 56//4 58//4
f 70//3 57//3 62//3
f 46//3 63//3 64//3
f 57//3 70//3 63//3
f 71//4 58//4 64//4
f 72//3 62//3 59//3
f 59//3 65//3 72//3
f 60//1 66//1 73//1
f 49//1 67//1 66//1
f 67//4 52//4 66//4
f 60//1 74//1 68//1
f 69//4 75//4 52//4
f 58//4 75//4 69//4
f 62//3 72//3 70//3
f 58//4 71//4 75//4
f 64//3 76//3 71//3
f 66//4 52//4 73//4
f 73//1 77//1 60//1
f 60//1 78//1 74//1
f 79//4 52//4 75//4
f 76//3 64//3 80//3
f 76//13 75//13 71//13
f 73//4 52//4 79//4
f 77//1 73//1 79//1
f 60//1 77//1 81//1
f 60//1 82//1 78//1
f 75//13 76//13 83//13
f 60//1 81//1 82//1
f 75//5 84//5 85//5
f 84//5 75//5 83//5
g mesh1-geometry-1
usemtl Material.90b00bf69165eda831fe702671104217
f 86//14 87//14 88//14
f 89//14 88//14 87//14
f 90//15 91//15 92//15
f 91//16 93//16 94//16
f 92//15 91//15 95//15
f 96//17 97//17 98//17
f 99//14 96//14 100//14
f 93//14 101//14 102//14
f 94//16 93//16 103//16
f 94//15 95//15 91//15
f 97//18 104//18 105//18
f 105//17 98//17 97//17
f 98//14 100//14 96//14
f 101//14 99//14 106//14
f 100//14 106//14 99//14
f 106//14 102//14 101//14
f 102//16 103//16 93//16
f 103//19 107//19 94//19
f 95//19 94//19 108//19
f 109//14 110//14 104//14
f 111//18 105//18 104//18
f 112//14 113//14 114//14
f 115//14 116//14 117//14
f 118//19 94//19 107//19
f 108//19 94//19 119//19
f 109//14 120//14 110//14
f 104//14 110//14 111//14
f 121//14 114//14 113//14
f 122//14 117//14 116//14
f 123//19 94//19 118//19
f 119//19 94//19 123//19
f 120//14 124//14 125//14
f 110//14 120//14 126//14
f 126//14 111//14 110//14
f 127//14 128//14 124//14
f 129//14 125//14 124//14
f 125//14 126//14 120//14
f 128//14 130//14 124//14
f 124//14 131//14 129//14
f 130//14 132//14 124//14
f 133//14 129//14 131//14
f 134//14 131//14 124//14
f 132//14 135//14 124//14
f 135//14 134//14 124//14
g mesh1-geometry-2
usemtl Material.dc7a3ca9ca091ddbf48733c3a604f557
f 86//20 136//20 87//20
f 86//21 88//21 136//21
f 89//22 137//22 88//22
f 89//23 87//23 137//23
f 138//20 87//20 136//20
f 139//21 136//21 88//21
f 139//22 88//22 137//22
f 138//23 137//23 87//23
f 136//14 90//14 138//14
f 139//14 140//14 136//14
f 137//14 140//14 139//14
f 137//14 138//14 141//14
f 141//14 138//14 90//14
f 90//14 136//14 91//14
f 136//14 140//14 96//14
f 142//14 140//14 137//14
f 143//14 137//14 141//14
f 141//21 90//21 144//21
f 91//14 136//14 93//14
f 96//14 140//14 97//14
f 99//14 136//14 96//14
f 145//14 140//14 142//14
f 142//14 137//14 146//14
f 146//14 137//14 143//14
f 147//14 143//14 141//14
f 148//21 144//21 90//21
f 141//20 144//20 140//20
f 93//14 136//14 101//14
f 97//14 140//14 104//14
f 101//14 136//14 99//14
f 149//14 140//14 145//14
f 145//21 142//21 114//21
f 146//20 113//20 142//20
f 150//14 146//14 143//14
f 143//23 147//23 117//23
f 140//14 147//14 141//14
f 151//20 140//20 144//20
f 104//14 140//14 109//14
f 152//14 140//14 149//14
f 145//22 114//22 149//22
f 112//21 114//21 142//21
f 112//20 142//20 113//20
f 146//23 149//23 113//23
f 146//14 150//14 149//14
f 143//20 117//20 150//20
f 115//23 117//23 147//23
f 147//14 140//14 152//14
f 151//23 153//23 140//23
f 109//14 140//14 120//14
f 105//22 154//22 98//22
f 98//22 154//22 100//22
f 100//22 154//22 106//22
f 152//14 149//14 150//14
f 121//22 149//22 114//22
f 121//23 113//23 149//23
f 122//20 150//20 117//20
f 115//22 147//22 116//22
f 152//22 116//22 147//22
f 127//23 140//23 153//23
f 106//22 154//22 102//22
f 102//22 155//22 103//22
f 103//22 156//22 107//22
f 120//14 140//14 124//14
f 111//22 154//22 105//22
f 152//21 150//21 116//21
f 122//21 116//21 150//21
f 127//14 124//14 140//14
f 154//22 155//22 102//22
f 156//22 103//22 155//22
f 107//22 156//22 157//22
f 126//22 154//22 111//22
f 157//22 156//22 158//22
f 125//22 154//22 126//22
f 154//22 159//22 160//22
f 160//22 159//22 156//22
f 159//22 158//22 156//22
f 158//21 161//21 157//21
f 129//22 154//22 125//22
f 159//22 154//22 133//22
f 162//21 157//21 161//21
f 158//24 159//24 161//24
f 133//22 154//22 129//22
f 163//24 161//24 159//24
f 164//23 165//23 159//23
f 163//23 159//23 165//23
g mesh1-geometry-3
usemtl Material.b2cdaf4394d1a4f850458878b81c7fa1
f 90//21 92//21 148//21
f 92//25 95//25 166//25
f 166//21 148//21 92//21
f 10//5 167//5 36//5
f 168//25 166//25 95//25
f 167//5 10//5 61//5
f 95//26 108//26 168//26
f 55//3 34//3 43//3
f 34//3 55//3 54//3
f 61//5 169//5 167//5
f 153//23 170//23 127//23
f 118//21 107//21 171//21
f 108//21 119//21 172//21
f 172//26 168//26 108//26
f 169//5 61//5 68//5
f 128//23 127//23 170//23
f 123//21 118//21 173//21
f 157//21 171//21 107//21
f 171//21 173//21 118//21
f 119//21 123//21 174//21
f 174//21 172//21 119//21
f 68//5 175//5 169//5
f 170//23 176//23 128//23
f 173//21 174//21 123//21
f 175//5 68//5 74//5
f 130//23 128//23 176//23
f 177//5 74//5 78//5
f 132//23 130//23 178//23
f 74//5 177//5 175//5
f 176//23 178//23 130//23
f 85//5 77//5 79//5
f 133//23 131//23 164//23
f 179//5 81//5 77//5
f 131//23 134//23 180//23
f 181//5 78//5 82//5
f 135//23 132//23 182//23
f 78//5 181//5 177//5
f 178//23 182//23 132//23
f 77//5 85//5 179//5
f 180//23 164//23 131//23
f 81//5 179//5 183//5
f 184//23 180//23 134//23
f 183//5 82//5 81//5
f 134//23 135//23 184//23
f 82//5 183//5 181//5
f 182//23 184//23 135//23
g mesh1-geometry-4
usemtl Material.efc39ebbb3cc1048a02a4c783fdc17fc
f 154//22 160//22 155//22
f 156//22 155//22 160//22
