# created by Ethan Wu and Zhan isaac Ling
mtllib model.mtl
v -0.225072 -0.208855 -0.321310
v 0.321153 -0.208855 0.321303
v -0.225072 -0.208855 0.321303
vn 0.000000 -1.000000 0.000000
v 0.321153 -0.208855 -0.321310
v -0.225081 -0.192755 0.321291
vn 0.000000 0.000000 1.000000
vn -1.000000 0.000000 0.000000
v 0.321153 -0.192753 -0.321310
vn 0.000000 0.000000 -1.000000
vn 1.000000 0.000000 0.000000
v 0.321153 -0.192753 0.321303
v -0.225075 -0.192790 -0.321275
v -0.225033 -0.192754 -0.321307
v -0.229740 -0.169174 -0.306312
v -0.225027 -0.192789 0.321279
vn 0.980581 0.196116 0.000000
v -0.305352 0.208855 -0.321303
v -0.229740 -0.169174 0.304134
v -0.240821 -0.195944 -0.321310
v -0.302202 0.193131 -0.306312
v -0.305352 0.208851 0.321300
v -0.240817 -0.195938 0.321310
v -0.321153 0.205704 0.321294
vn -0.980581 -0.196116 0.000000
v -0.321150 0.205701 -0.321310
v -0.302202 0.193131 0.304134
vn -0.196116 0.980581 0.000000
v -0.225035 -0.208818 0.321266
v 0.321116 -0.208818 0.321266
v -0.225035 -0.208818 -0.321272
vn 0.000000 1.000000 0.000000
v 0.321116 -0.208818 -0.321272
vn 0.000000 0.000000 -1.000000
vn 1.000000 0.000000 0.000000
v 0.321116 -0.192791 -0.321272
vn 0.000000 0.000000 1.000000
vn -1.000000 0.000000 0.000000
v 0.321116 -0.192791 0.321266
vn 0.000000 -1.000000 0.000000
v -0.229803 -0.169186 -0.306312
vn -0.980581 -0.196116 0.000000
vn 0.196116 -0.980581 0.000000
v -0.240792 -0.195900 -0.321272
vn -0.196116 0.980581 0.000000
v -0.305399 0.208819 -0.321277
v -0.229803 -0.169186 0.304134
v -0.240796 -0.195907 0.321258
v -0.302265 0.193118 -0.306312
v -0.302265 0.193118 0.304134
vn -0.980581 -0.196116 0.000000
v -0.305399 0.208824 0.321267
v -0.321103 0.205670 0.321274
vn 0.980581 0.196116 0.000000
v -0.321106 0.205672 -0.321272
vn 0.196116 -0.980581 0.000000
vn 0.000000 1.000000 0.000000
vt 1.96823 1.87272
vt 1.06863 2.99515
vt 1.06863 1.87272
vt 1.96823 2.99515
vn 0.980581 0.196116 0.000000
vt 1.99714 2.17164
vt 0.999945 2.97639
vt 0.999945 2.17164
vt 1.99714 2.97639
g mesh1-geometry-0
usemtl Material.57774a50243e5d429f3a4ea105ec3930
f 1//1 2//1 3//1
f 2//1 1//1 4//1
f 2//2 5//2 3//2
f 5//3 1//3 3//3
f 1//4 6//4 4//4
f 6//5 2//5 4//5
f 5//2 2//2 7//2
f 1//3 5//3 8//3
f 6//4 1//4 9//4
f 2//5 6//5 7//5
f 9//6 10//6 11//6
f 10//6 9//6 12//6
f 11//6 10//6 13//6
f 14//4 12//4 9//4
f 10//6 12//6 15//6
f 13//6 16//6 11//6
f 16//2 17//2 11//2
f 18//7 14//7 17//7
f 12//4 14//4 19//4
f 15//6 12//6 20//6
f 16//6 13//6 20//6
f 17//2 16//2 18//2
f 14//7 18//7 19//7
f 18//8 12//8 19//8
f 16//6 20//6 12//6
f 12//8 18//8 16//8
g mesh1-geometry-1
usemtl Material.90b00bf69165eda831fe702671104217
f 21//9 22//9 23//9
f 24//9 23//9 22//9
f 21//10 11//10 22//10
f 21//11 23//11 11//11
f 24//12 25//12 23//12
f 24//13 22//13 25//13
f 26//10 22//10 11//10
f 9//11 11//11 23//11
f 8//12 23//12 25//12
f 26//13 25//13 22//13
f 26//14 11//14 25//14
f 8//14 25//14 11//14
f 5//15 27//15 8//15
f 11//16 14//16 8//16
f 9//17 28//17 5//17
f 29//15 8//15 27//15
f 30//15 27//15 5//15
f 14//16 11//16 17//16
f 31//17 5//17 28//17
f 8//12 29//12 28//12
f 32//15 29//15 27//15
f 30//18 33//18 27//18
f 5//15 34//15 30//15
f 5//10 31//10 34//10
f 31//19 28//19 35//19
f 36//12 28//12 29//12
f 33//15 29//15 32//15
f 32//18 27//18 33//18
f 33//15 30//15 34//15
f 35//10 34//10 31//10
f 36//19 35//19 28//19
f 36//20 29//20 35//20
f 29//15 33//15 34//15
f 34//20 35//20 29//20
g mesh1-geometry-2
usemtl Material.fd405729217466f29eac93fc2fe0bd88
f 6/1/21 5/2/21 7/3/21
f 5/2/21 6/1/21 9/4/21
g mesh1-geometry-3
usemtl Material.ec54333377af01998850abef039c82fd
f 10/5/22 20/6/22 13/7/22
f 20/6/22 10/5/22 15/8/22
