# created by Ethan Wu and Zhan isaac Ling
mtllib model.mtl
v 0.165742 -0.162679 -0.332311
v 0.165734 -0.166977 -0.336737
v 0.165742 -0.166983 -0.332311
vn -1.000000 0.000000 0.000000
v 0.165744 -0.162689 -0.337771
v 0.182409 -0.166983 -0.332311
vn 0.000000 -1.000000 0.000000
vn 0.000000 0.000000 1.000000
v 0.165748 -0.171243 -0.337770
v 0.182412 -0.162687 -0.337775
vn 0.000000 1.000000 0.000000
v 0.182417 -0.166977 -0.336737
v 0.182409 -0.162679 -0.332311
v 0.165742 -0.171249 -0.336731
v 0.165016 -0.162687 -0.337775
v -0.108091 -0.158720 -0.337769
v 0.182409 -0.171249 -0.336731
vn 1.000000 0.000000 0.000000
v 0.165004 -0.171239 -0.337768
v 0.324263 -0.158736 -0.337785
v 0.182400 -0.171239 -0.337768
v 0.148560 -0.162689 -0.337771
v -0.108069 -0.175214 -0.337767
v 0.165013 -0.171249 -0.336731
v 0.324253 -0.175205 -0.337773
v 0.189412 -0.158739 -0.310700
v 0.066916 -0.162698 -0.337764
v 0.148559 -0.162679 -0.332311
v 0.148564 -0.171243 -0.337770
v 0.165021 -0.166977 -0.336737
v 0.324257 -0.158730 0.337779
v 0.298661 -0.158730 -0.025413
v -0.080982 -0.158739 -0.310700
v -0.104087 -0.162698 -0.337764
v 0.165013 -0.162679 -0.332311
v 0.148551 -0.166977 -0.336737
v 0.066916 -0.171229 -0.337764
v 0.165013 -0.166983 -0.332311
v 0.148559 -0.171249 -0.336731
v 0.324255 -0.175208 0.337770
v 0.298670 -0.158737 0.139616
v 0.298650 -0.158724 0.057098
v 0.279934 -0.158735 -0.025419
v -0.080982 -0.158739 0.310700
v 0.189412 -0.158739 0.310700
v -0.108085 -0.175211 0.337767
v -0.104087 -0.171229 -0.337764
v 0.148559 -0.166983 -0.332311
v 0.036535 -0.171892 0.337769
vn 0.000000 0.000000 -1.000000
v 0.298654 -0.157682 0.057098
v 0.228422 -0.158739 -0.025429
v 0.279943 -0.157678 -0.025410
v -0.108097 -0.158722 0.337774
v 0.228422 -0.158739 0.139624
v -0.324224 0.170562 0.337787
vn 0.847937 0.530097 0.000000
v -0.108069 -0.158691 -0.337825
v -0.108075 -0.175234 0.337828
v -0.108090 -0.175230 -0.337828
vn -1.000000 0.000000 0.000000
v 0.036529 -0.161521 0.337765
v 0.298658 -0.157678 0.139605
v 0.298658 -0.157678 -0.025410
v 0.279952 -0.158724 0.057098
v -0.122473 -0.135746 -0.310700
vn -0.847937 -0.530097 0.000000
v -0.108063 -0.158688 0.337822
v -0.324236 0.170564 -0.337770
v -0.316849 0.175188 0.337780
vn 0.000000 0.000000 -1.000000
vn 0.000000 0.000000 1.000000
v -0.028615 -0.171897 0.337769
v 0.036542 -0.161508 0.335103
v 0.279943 -0.158725 0.139605
v 0.279947 -0.157682 0.057098
v -0.316848 0.175182 -0.337790
v -0.122473 -0.135746 0.310700
v -0.093766 -0.161514 0.337770
vn 0.530097 -0.847937 0.000000
v -0.093760 -0.171888 0.337766
v -0.028615 -0.171904 0.335099
v -0.028615 -0.161545 0.337769
v 0.036542 -0.171899 0.335103
v -0.028615 -0.161510 0.337828
v 0.279943 -0.157678 0.139605
v -0.302495 0.152215 -0.310700
v -0.302495 0.152215 0.310700
vn -0.847937 -0.530097 0.000000
v -0.093772 -0.171899 0.335103
v -0.028615 -0.161504 0.335099
v -0.093772 -0.161508 0.335103
v 0.165781 -0.166944 -0.332351
v 0.165789 -0.166950 -0.336765
v 0.165781 -0.162717 -0.332351
vn 1.000000 0.000000 0.000000
v 0.165780 -0.162707 -0.337825
v 0.182370 -0.166944 -0.332351
v 0.165776 -0.171215 -0.337825
v 0.182367 -0.162709 -0.337822
vn 0.000000 -1.000000 0.000000
v 0.182370 -0.162717 -0.332351
v 0.165781 -0.171209 -0.336771
v 0.182362 -0.166950 -0.336765
v 0.182370 -0.171209 -0.336771
vn 0.000000 1.000000 0.000000
v 0.182380 -0.171219 -0.337828
v 0.164983 -0.171219 -0.337828
v 0.164974 -0.171209 -0.336771
v 0.164971 -0.162709 -0.337822
v 0.148596 -0.162707 -0.337825
v 0.148597 -0.162717 -0.332351
v 0.164966 -0.166950 -0.336765
v 0.148592 -0.171215 -0.337825
v 0.164974 -0.162717 -0.332351
v 0.148606 -0.166950 -0.336765
v 0.164974 -0.166944 -0.332351
v 0.148597 -0.171209 -0.336771
v 0.148597 -0.166944 -0.332351
v 0.279913 -0.158674 -0.025439
v 0.228422 -0.158671 -0.025429
v 0.279895 -0.158686 0.057098
v 0.228422 -0.158671 0.139624
v 0.279904 -0.158685 0.139644
v 0.324276 -0.158674 -0.337811
v 0.324286 -0.175238 -0.337822
v 0.189412 -0.158671 -0.310700
v 0.066916 -0.162698 -0.337832
v 0.324282 -0.158680 0.337818
v 0.298694 -0.158680 -0.025446
v -0.080982 -0.158671 -0.310700
v -0.104087 -0.162698 -0.337832
v 0.066916 -0.171229 -0.337832
v 0.324283 -0.175236 0.337825
v 0.298685 -0.158673 0.139632
v 0.298706 -0.158686 0.057098
v -0.080982 -0.158671 0.310700
v 0.189412 -0.158671 0.310700
v -0.104087 -0.171229 -0.337832
v 0.036511 -0.171868 0.337828
v 0.298701 -0.157634 0.057098
v 0.279904 -0.157639 -0.025449
v -0.324286 0.170576 0.337808
vn -0.847937 -0.530097 0.000000
v 0.036516 -0.161534 0.337832
v 0.298697 -0.157639 0.139644
v 0.298697 -0.157639 -0.025449
v -0.122416 -0.135710 -0.310700
vn 0.847937 0.530097 0.000000
v -0.324274 0.170573 -0.337825
v -0.316812 0.175232 0.337815
v -0.028615 -0.171862 0.337828
v 0.036503 -0.161547 0.335142
v 0.279900 -0.157634 0.057098
v -0.316813 0.175238 -0.337805
v -0.122416 -0.135710 0.310700
v -0.093738 -0.161542 0.337825
vn -0.530097 0.847937 0.000000
v -0.093744 -0.171872 0.337828
v -0.028615 -0.171856 0.335147
v 0.036503 -0.171860 0.335142
v 0.279904 -0.157639 0.139644
v -0.302437 0.152251 -0.310700
v -0.302437 0.152251 0.310700
v -0.093732 -0.171860 0.335142
v -0.028615 -0.161551 0.335147
v -0.093732 -0.161547 0.335142
v -0.080982 -0.158671 0.310700
v 0.189412 -0.158671 -0.310700
vt 1.0 1.0
vt 0.0 1.0
vt 1.0 0.0
v 0.189412 -0.158739 -0.310700
v -0.080982 -0.158739 0.310700
v 0.189412 -0.158671 0.310700
vt 0.0 0.0
v 0.189412 -0.158739 0.310700
vt 72.6042 1.43668
vt 59.2025 5.88668
vt 59.2025 1.43668
vt 72.6042 5.88668
vt 86.0059 1.43668
vt 86.0059 5.88668
vn 0.847937 0.530097 0.000000
g mesh1-geometry-0
usemtl Material.57774a50243e5d429f3a4ea105ec3930
f 1//1 2//1 3//1
f 4//1 2//1 1//1
f 2//2 5//2 3//2
f 5//3 1//3 3//3
f 6//1 2//1 4//1
f 1//4 7//4 4//4
f 5//2 2//2 8//2
f 1//3 5//3 9//3
f 2//1 6//1 10//1
f 4//3 11//3 6//3
f 7//4 1//4 9//4
f 7//3 12//3 4//3
f 2//3 13//3 8//3
f 8//5 7//5 5//5
f 5//5 7//5 9//5
f 6//2 13//2 10//2
f 13//3 2//3 10//3
f 4//3 12//3 11//3
f 14//3 6//3 11//3
f 7//3 15//3 12//3
f 13//5 7//5 8//5
f 13//2 6//2 16//2
f 11//3 12//3 17//3
f 18//3 6//3 14//3
f 11//5 19//5 14//5
f 15//3 7//3 20//3
f 15//2 21//2 12//2
f 7//5 13//5 16//5
f 18//3 16//3 6//3
f 17//3 12//3 22//3
f 23//4 11//4 17//4
f 18//3 14//3 24//3
f 19//5 11//5 25//5
f 19//2 24//2 14//2
f 16//3 20//3 7//3
f 20//1 26//1 15//1
f 15//2 27//2 21//2
f 28//2 12//2 21//2
f 20//3 16//3 18//3
f 22//3 12//3 29//3
f 17//3 22//3 24//3
f 11//4 23//4 30//4
f 17//1 31//1 23//1
f 18//3 24//3 32//3
f 25//5 11//5 33//5
f 31//3 19//3 25//3
f 24//2 19//2 34//2
f 26//1 20//1 35//1
f 26//2 36//2 15//2
f 15//2 37//2 27//2
f 38//2 21//2 27//2
f 39//2 12//2 28//2
f 40//2 28//2 21//2
f 41//4 20//4 18//4
f 29//3 12//3 42//3
f 42//3 22//3 29//3
f 24//3 22//3 32//3
f 24//1 31//1 17//1
f 23//3 33//3 30//3
f 33//5 11//5 30//5
f 23//1 31//1 43//1
f 18//3 32//3 42//3
f 33//2 31//2 25//2
f 19//3 31//3 34//3
f 31//1 24//1 34//1
f 20//4 41//4 35//4
f 35//6 44//6 26//6
f 36//2 26//2 40//2
f 15//2 36//2 37//2
f 45//1 27//1 37//1
f 46//2 21//2 38//2
f 27//3 47//3 38//3
f 39//2 48//2 12//2
f 28//2 40//2 39//2
f 21//2 49//2 40//2
f 41//7 18//7 50//7
f 51//5 52//5 18//5
f 53//8 41//8 12//8
f 18//3 42//3 12//3
f 22//3 42//3 32//3
f 33//3 23//3 43//3
f 31//2 33//2 43//2
f 44//6 35//6 41//6
f 54//6 26//6 44//6
f 40//2 26//2 39//2
f 36//2 40//2 49//2
f 55//1 37//1 36//1
f 27//1 45//1 56//1
f 37//1 55//1 45//1
f 49//2 21//2 46//2
f 57//2 46//2 38//2
f 47//3 27//3 56//3
f 47//5 57//5 38//5
f 48//2 39//2 26//2
f 48//9 58//9 12//9
f 52//5 51//5 59//5
f 48//8 12//8 41//8
f 60//7 50//7 18//7
f 50//10 61//10 41//10
f 18//11 12//11 60//11
f 44//6 41//6 62//6
f 26//6 54//6 48//6
f 44//5 63//5 54//5
f 64//6 55//6 36//6
f 45//2 47//2 56//2
f 55//2 65//2 45//2
f 46//2 64//2 49//2
f 64//2 46//2 57//2
f 57//5 47//5 65//5
f 66//9 12//9 58//9
f 67//9 58//9 48//9
f 48//6 68//6 41//6
f 48//10 41//10 61//10
f 60//12 66//12 50//12
f 61//12 50//12 66//12
f 66//11 60//11 12//11
f 62//6 41//6 69//6
f 70//2 44//2 62//2
f 48//6 54//6 71//6
f 63//5 44//5 72//5
f 63//4 73//4 54//4
f 55//6 64//6 74//6
f 47//2 45//2 65//2
f 65//2 55//2 74//2
f 65//5 64//5 57//5
f 75//9 66//9 58//9
f 67//13 76//13 58//13
f 48//9 61//9 67//9
f 48//6 71//6 68//6
f 69//6 41//6 68//6
f 66//9 76//9 61//9
f 77//2 62//2 69//2
f 44//2 70//2 72//2
f 62//2 77//2 70//2
f 70//6 63//6 72//6
f 73//4 63//4 78//4
f 64//5 65//5 74//5
f 76//9 66//9 75//9
f 75//13 58//13 76//13
f 76//9 67//9 61//9
f 78//4 68//4 73//4
f 68//1 77//1 69//1
f 77//6 78//6 70//6
f 63//6 70//6 78//6
f 68//4 78//4 79//4
f 77//1 68//1 79//1
f 78//6 77//6 79//6
g mesh1-geometry-1
usemtl Material.90b00bf69165eda831fe702671104217
f 80//14 81//14 82//14
f 82//14 81//14 83//14
f 80//10 82//10 84//10
f 83//14 81//14 85//14
f 83//15 86//15 82//15
f 87//10 84//10 82//10
f 88//14 85//14 81//14
f 87//15 82//15 86//15
f 84//8 86//8 89//8
f 87//8 86//8 84//8
f 88//16 90//16 85//16
f 89//8 86//8 90//8
f 91//16 85//16 90//16
f 92//8 93//8 94//8
f 91//8 90//8 86//8
f 95//15 94//15 96//15
f 97//8 94//8 93//8
f 92//16 98//16 93//16
f 99//15 96//15 94//15
f 96//14 100//14 95//14
f 101//8 94//8 97//8
f 102//16 93//16 98//16
f 95//14 100//14 98//14
f 99//10 101//10 96//10
f 99//8 94//8 101//8
f 103//14 100//14 96//14
f 102//14 98//14 100//14
f 103//10 96//10 101//10
f 104//16 105//16 106//16
f 107//16 108//16 105//16
f 106//16 105//16 108//16
g mesh1-geometry-2
usemtl Material.dc7a3ca9ca091ddbf48733c3a604f557
f 80//16 84//16 81//16
f 89//16 81//16 84//16
f 89//10 90//10 81//10
f 88//10 81//10 90//10
f 97//10 93//10 100//10
f 97//16 100//16 101//16
f 102//10 100//10 93//10
f 103//16 101//16 100//16
g mesh1-geometry-3
usemtl Material.b2cdaf4394d1a4f850458878b81c7fa1
f 85//10 94//10 83//10
f 83//10 51//10 86//10
f 94//10 51//10 83//10
f 94//10 85//10 92//10
f 51//10 109//10 86//10
f 95//10 51//10 94//10
f 92//10 85//10 53//10
f 110//10 86//10 109//10
f 51//16 111//16 109//16
f 85//10 91//10 53//10
f 112//10 51//10 95//10
f 98//10 92//10 53//10
f 86//10 110//10 91//10
f 109//14 113//14 110//14
f 111//16 114//16 109//16
f 111//16 51//16 115//16
f 53//10 91//10 110//10
f 116//10 51//10 112//10
f 98//10 112//10 95//10
f 117//10 98//10 53//10
f 118//14 110//14 113//14
f 109//16 119//16 113//16
f 114//16 120//16 109//16
f 114//16 111//16 104//16
f 115//16 51//16 121//16
f 111//16 115//16 122//16
f 53//15 110//15 52//15
f 123//10 51//10 116//10
f 116//10 112//10 123//10
f 117//10 112//10 98//10
f 123//10 117//10 53//10
f 118//15 52//15 110//15
f 113//11 124//11 118//11
f 122//16 113//16 119//16
f 120//16 119//16 109//16
f 120//14 114//14 125//14
f 104//16 111//16 105//16
f 104//10 126//10 114//10
f 51//16 59//16 121//16
f 121//16 122//16 115//16
f 122//16 107//16 111//16
f 127//17 53//17 52//17
f 51//10 123//10 53//10
f 117//10 123//10 112//10
f 52//11 118//11 124//11
f 124//11 113//11 128//11
f 121//16 113//16 122//16
f 107//16 122//16 119//16
f 119//14 120//14 129//14
f 130//14 125//14 114//14
f 125//14 129//14 120//14
f 105//16 111//16 107//16
f 130//10 114//10 126//10
f 104//8 106//8 126//8
f 113//16 121//16 59//16
f 51//18 131//18 59//18
f 53//17 127//17 132//17
f 52//3 133//3 127//3
f 132//6 51//6 53//6
f 134//11 52//11 124//11
f 59//11 128//11 113//11
f 128//8 135//8 124//8
f 119//11 129//11 108//11
f 130//16 126//16 125//16
f 125//16 136//16 129//16
f 136//8 126//8 106//8
f 131//18 51//18 137//18
f 59//18 131//18 138//18
f 52//11 139//11 59//11
f 133//3 52//3 59//3
f 127//19 137//19 132//19
f 137//19 127//19 133//19
f 51//6 132//6 137//6
f 140//11 52//11 134//11
f 134//16 124//16 141//16
f 73//11 128//11 59//11
f 142//8 124//8 135//8
f 128//15 71//15 135//15
f 143//11 108//11 129//11
f 136//16 125//16 126//16
f 143//16 129//16 136//16
f 106//8 108//8 136//8
f 131//18 137//18 144//18
f 138//18 133//18 59//18
f 139//11 73//11 59//11
f 139//11 52//11 140//11
f 133//18 145//18 137//18
f 140//16 134//16 146//16
f 142//16 141//16 124//16
f 141//16 146//16 134//16
f 142//11 135//11 141//11
f 147//15 135//15 71//15
f 143//8 136//8 108//8
f 144//18 137//18 145//18
f 133//18 138//18 145//18
f 71//15 139//15 147//15
f 140//14 146//14 139//14
f 141//11 147//11 146//11
f 147//11 141//11 135//11
f 148//15 147//15 139//15
f 148//14 139//14 146//14
f 148//11 146//11 147//11
g mesh1-geometry-4
usemtl Material.848e5e55d2d72809c19791c39104d685
f 115/1/4 149/2/4 150/3/4
f 28/1/15 151/3/15 152/2/15
f 153/4/4 150/3/4 149/2/4
f 154/4/15 152/2/15 151/3/15
g mesh1-geometry-5
usemtl Material.f37e9bdd416db17c48a7965877331b22
f 62/5/6 54/6/6 44/7/6
f 124/7/11 128/6/11 134/5/11
f 54/6/6 62/5/6 71/8/6
f 73/8/11 134/5/11 128/6/11
f 71/8/6 62/5/6 69/9/6
f 140/9/11 134/5/11 73/8/11
f 71/8/6 69/9/6 68/10/6
f 139/10/11 140/9/11 73/8/11
g mesh1-geometry-6
usemtl Material.efc39ebbb3cc1048a02a4c783fdc17fc
f 131//20 145//20 138//20
f 145//20 131//20 144//20
