# created by Ethan Wu and Zhan isaac Ling
mtllib model.mtl
v 0.283794 -0.226436 -0.343495
v -0.255851 -0.226441 0.343781
v -0.255855 -0.226440 -0.343495
vn 0.000000 -1.000000 0.000000
v 0.283794 -0.226436 0.343781
v -0.283791 -0.198515 -0.343475
vn -0.707107 -0.707107 0.000000
v 0.283788 -0.198460 0.343774
vn 1.000000 0.000000 0.000000
vn 0.000000 0.000000 1.000000
v -0.283788 -0.198507 0.343781
v -0.283787 -0.198507 -0.343778
v 0.283784 -0.198457 -0.343485
v -0.255860 -0.198468 0.343781
v -0.255815 0.226438 0.343778
v -0.283789 0.226441 0.343781
v -0.283794 0.226438 -0.343774
v -0.255808 0.226429 -0.343764
vn 0.000000 1.000000 0.000000
v 0.255002 -0.180514 0.313100
v -0.216821 -0.198460 0.313094
v 0.254996 -0.198460 0.313094
v -0.255815 0.202650 -0.301759
v -0.268788 -0.160382 -0.301756
v -0.255812 -0.160388 -0.301762
v -0.216827 -0.180514 0.313100
v -0.268788 0.202646 -0.301756
v -0.255826 -0.226392 -0.343455
v -0.255830 -0.226392 0.343739
v 0.283754 -0.226396 -0.343456
vn 0.000000 1.000000 0.000000
v 0.283754 -0.226396 0.343741
v -0.255873 -0.198480 -0.343483
vn -1.000000 0.000000 0.000000
v -0.255808 -0.198496 -0.343467
vn 1.000000 0.000000 0.000000
v -0.283747 -0.198461 -0.343475
vn 0.707107 0.707107 0.000000
vn 0.000000 0.000000 1.000000
v 0.283760 -0.198516 0.343746
vn -1.000000 0.000000 0.000000
vn 0.000000 0.000000 -1.000000
v -0.255821 -0.198508 0.343741
v -0.255824 -0.198505 -0.343781
v -0.255857 -0.198471 -0.343732
v -0.283750 -0.198469 0.343739
v -0.283750 -0.198469 -0.343735
v 0.283764 -0.198519 -0.343465
v -0.216793 -0.198516 0.313066
vn 0.000000 -1.000000 0.000000
v -0.255869 -0.160416 0.306676
v -0.255873 0.226413 -0.343749
vn 0.000000 0.010088 0.999949
v -0.283744 0.226404 -0.343740
v -0.216797 -0.198519 -0.300334
v 0.254965 -0.198513 -0.300328
v -0.255866 0.226404 0.343744
v -0.255869 -0.160416 -0.301790
v -0.255866 0.202683 -0.301793
vn 0.000000 0.000000 -1.000000
v -0.283749 0.226401 0.343741
v 0.254968 -0.198516 0.313066
v -0.216827 -0.180514 -0.300365
v -0.216817 -0.198457 -0.300355
v -0.216787 -0.180554 -0.300325
v -0.255872 0.202677 0.306672
v -0.268827 -0.160422 -0.301796
v 0.254998 -0.198463 -0.300362
v 0.254962 -0.180554 0.313060
v -0.216787 -0.180554 0.313060
v -0.268827 0.202686 0.306682
v -0.268827 -0.160422 0.306682
v -0.268788 0.202646 0.306642
v -0.255810 0.202656 0.306652
v 0.255002 -0.180514 -0.300365
v 0.254962 -0.180554 -0.300325
v -0.268827 0.202686 -0.301796
v -0.255812 -0.160388 0.306648
vn 0.000000 -0.010088 -0.999949
v -0.268788 -0.160382 0.306642
vt 0.0 0.28
vt -6.89283 4.54
vt -6.89 0.28
vt -6.89283 0.28
vt 0.0 4.54
vt 0.939695 0.045772
vt 0.071805 0.960951
vt 0.071805 0.045772
vt 0.939695 0.960951
vt 0.892681 0.154636
vt 0.051302 1.0051
vt 0.051302 0.154636
vt 0.892681 1.0051
g mesh1-geometry-0
usemtl Material.57774a50243e5d429f3a4ea105ec3930
f 1//1 2//1 3//1
f 2//1 1//1 4//1
f 2//2 5//2 3//2
f 1//3 6//3 4//3
f 6//4 2//4 4//4
f 5//2 2//2 7//2
f 3//2 5//2 8//2
f 6//3 1//3 9//3
f 2//4 6//4 10//4
f 7//4 2//4 10//4
f 11//4 7//4 10//4
f 7//4 11//4 12//4
f 13//5 11//5 14//5
f 11//5 13//5 12//5
f 15//4 16//4 17//4
f 18//4 19//4 20//4
f 16//4 15//4 21//4
f 19//4 18//4 22//4
g mesh1-geometry-1
usemtl Material.90b00bf69165eda831fe702671104217
f 23//6 24//6 25//6
f 26//6 25//6 24//6
f 24//7 27//7 3//7
f 23//8 28//8 2//8
f 23//9 29//9 24//9
f 23//10 25//10 28//10
f 26//11 30//11 25//11
f 26//12 24//12 30//12
f 27//7 2//7 10//7
f 31//8 24//8 28//8
f 32//3 28//3 3//3
f 23//11 27//11 33//11
f 34//9 24//9 29//9
f 35//9 29//9 23//9
f 36//10 28//10 25//10
f 36//11 25//11 30//11
f 31//12 30//12 24//12
f 31//12 24//12 34//12
f 28//13 37//13 31//13
f 27//11 10//11 38//11
f 7//1 28//1 31//1
f 10//6 27//6 34//6
f 33//11 27//11 39//11
f 5//1 32//1 27//1
f 28//6 33//6 29//6
f 35//14 23//14 33//14
f 29//8 40//8 34//8
f 27//1 7//1 5//1
f 29//6 34//6 28//6
f 35//8 40//8 29//8
f 32//1 5//1 8//1
f 35//6 29//6 33//6
f 36//13 41//13 28//13
f 30//13 42//13 36//13
f 30//13 31//13 37//13
f 31//12 34//12 43//12
f 37//13 28//13 41//13
f 43//11 38//11 10//11
f 44//11 27//11 38//11
f 27//11 45//11 39//11
f 32//15 13//15 14//15
f 39//10 40//10 33//10
f 13//15 32//15 8//15
f 35//10 33//10 40//10
f 46//8 34//8 40//8
f 42//13 41//13 36//13
f 42//13 30//13 47//13
f 47//13 30//13 37//13
f 46//12 43//12 34//12
f 16//7 48//7 49//7
f 41//8 50//8 37//8
f 38//11 43//11 51//11
f 45//11 27//11 44//11
f 44//13 38//13 52//13
f 45//11 51//11 39//11
f 39//13 43//13 40//13
f 46//13 40//13 43//13
f 48//15 53//15 49//15
f 41//10 42//10 50//10
f 47//11 54//11 42//11
f 47//12 37//12 54//12
f 48//7 16//7 21//7
f 55//8 37//8 50//8
f 39//11 51//11 43//11
f 51//10 56//10 38//10
f 44//12 52//12 45//12
f 57//13 52//13 38//13
f 58//1 18//1 59//1
f 51//6 45//6 56//6
f 53//15 48//15 60//15
f 61//10 50//10 42//10
f 61//11 42//11 54//11
f 55//12 54//12 37//12
f 55//13 50//13 54//13
f 57//10 38//10 56//10
f 62//12 45//12 52//12
f 57//11 56//11 52//11
f 18//1 58//1 22//1
f 62//6 56//6 45//6
f 61//13 54//13 50//13
f 62//11 52//11 56//11
g mesh1-geometry-2
usemtl Material.b2cdaf4394d1a4f850458878b81c7fa1
f 27//15 1//15 3//15
f 1//15 27//15 9//15
f 10//5 16//5 27//5
f 63//3 31//3 28//3
f 14//3 28//3 32//3
f 32//16 3//16 8//16
f 27//5 49//5 9//5
f 9//5 53//5 6//5
f 16//5 10//5 6//5
f 49//5 27//5 16//5
f 31//3 63//3 11//3
f 63//3 28//3 20//3
f 14//3 18//3 28//3
f 9//5 49//5 53//5
f 17//5 6//5 53//5
f 16//5 6//5 17//5
f 59//3 11//3 63//3
f 20//3 28//3 18//3
f 19//5 63//5 20//5
f 14//3 59//3 18//3
f 53//3 15//3 17//3
f 11//3 59//3 14//3
f 63//15 58//15 59//15
f 63//5 19//5 64//5
f 15//3 53//3 60//3
f 58//15 63//15 64//15
g mesh1-geometry-3
usemtl Material.31d6b9102bbdb637bdd6578ff73179d5
f 7/1/7 13/2/7 5/3/7
f 5/3/7 13/2/7 8/4/7
f 13/2/7 7/1/7 12/5/7
g mesh1-geometry-4
usemtl Material.fd405729217466f29eac93fc2fe0bd88
f 15/6/5 48/7/5 21/8/5
f 48/7/5 15/6/5 60/9/5
g mesh1-geometry-5
usemtl Material.e52d825b25f4aa367f1105c11971edaf
f 19/10/3 58/11/3 64/12/3
f 58/11/3 19/10/3 22/13/3
