# created by Ethan Wu and Zhan isaac Ling
mtllib model.mtl
v 0.090396 -0.077629 -0.337365
v -0.090398 -0.077634 -0.337361
v 0.000000 -0.077621 -0.349269
vn 0.000000 -1.000000 0.000000
v 0.174629 -0.077637 -0.302467
v 0.000000 -0.077599 -0.349204
v -0.090385 -0.077585 -0.337314
v 0.090381 -0.077590 -0.337309
vn 0.000000 1.000000 0.000000
v 0.174608 -0.077581 -0.302430
v 0.000000 0.077596 -0.349204
vn 0.000000 0.000000 1.000000
vn 0.258819 0.000000 0.965926
v 0.090382 0.077583 -0.337314
vn -0.258819 0.000000 0.965926
v 0.174610 0.077577 -0.302433
vn -0.500000 0.000000 0.866025
v -0.174633 -0.077629 -0.302474
v -0.174604 -0.077590 -0.302423
v -0.090384 0.077588 -0.337309
v 0.246927 0.077586 -0.246928
vn -0.707107 0.000000 0.707107
v -0.246970 -0.077630 -0.246968
v -0.246930 -0.077588 -0.246928
vn 0.500000 0.000000 0.866025
vn 0.000000 -1.000000 0.000000
v -0.174606 0.077583 -0.302427
v 0.246933 -0.077580 -0.246934
v 0.024244 0.077583 -0.259289
v 0.246961 -0.077638 -0.246962
vn 0.707107 0.000000 0.707107
v -0.246939 0.077576 -0.246937
v 0.302425 -0.077585 -0.174606
vn -0.866025 0.000000 0.500000
v -0.048422 0.077583 -0.261580
v 0.093844 0.077583 -0.238270
v -0.302471 -0.077634 -0.174631
v -0.302429 -0.077585 -0.174606
v 0.302429 0.077579 -0.174608
v 0.302468 -0.077634 -0.174631
v 0.024245 0.038784 -0.259294
vn 0.161691 0.000000 -0.986841
vn -0.099232 0.000000 -0.995064
v 0.093844 0.038778 -0.238270
vn 0.411595 0.000000 -0.911367
v -0.302432 0.077579 -0.174608
vn 0.866025 0.000000 0.500000
v -0.119210 0.077583 -0.244984
v 0.337311 -0.077585 -0.090383
vn -0.965926 0.000000 0.258819
v -0.337362 -0.077634 -0.090396
v -0.337314 -0.077585 -0.090383
v -0.048423 0.038792 -0.261588
v 0.155632 0.038782 -0.199955
vn 0.633449 0.000000 -0.773784
v 0.155630 0.077583 -0.199952
v -0.337318 0.077579 -0.090384
vn 0.965926 0.000000 0.258819
vn -0.353392 0.000000 -0.935475
v 0.337311 0.077583 -0.090383
v 0.337359 -0.077634 -0.090396
v -0.119210 0.038778 -0.244984
v -0.183286 0.038778 -0.210633
v 0.205393 0.077583 -0.146949
v -0.236292 0.077586 -0.160871
v -0.183288 0.077588 -0.210637
v 0.349212 -0.077585 -0.000000
vn -1.000000 0.000000 0.000000
v -0.349262 -0.077634 -0.000000
v -0.349212 -0.077585 -0.000000
v -0.349212 0.077583 -0.000000
vn 1.000000 0.000000 0.000000
vn 0.812135 0.000000 -0.583469
v -0.236285 0.038774 -0.160865
v -0.274611 0.077588 -0.099083
vn -0.583469 0.000000 -0.812135
v 0.239745 0.077583 -0.082872
v 0.349216 0.077579 -0.000000
v 0.349262 -0.077634 -0.000000
v -0.295625 0.077583 -0.029483
v 0.205393 0.038778 -0.146949
vn -0.773784 0.000000 -0.633449
v -0.274607 0.038778 -0.099082
vn -0.911367 0.000000 -0.411595
vn 0.935475 0.000000 -0.353392
v 0.337311 -0.077585 0.090383
vn -0.965926 0.000000 -0.258819
v -0.337362 -0.077634 0.090396
v -0.337314 -0.077585 0.090383
v -0.337314 0.077583 0.090383
vn 0.965926 0.000000 -0.258819
v -0.297914 0.077583 0.043185
v -0.295625 0.038778 -0.029483
vn -0.986841 0.000000 -0.161691
v 0.239745 0.038778 -0.082872
v 0.256345 0.077588 -0.012088
v 0.337311 0.077583 0.090383
v 0.337359 -0.077634 0.090396
v -0.297914 0.038778 0.043185
vn -0.995064 0.000000 0.099232
vn 0.995064 0.000000 -0.099232
v 0.254051 0.077583 0.060580
v 0.302425 -0.077585 0.174606
vn -0.866025 0.000000 -0.500000
v -0.302471 -0.077634 0.174631
v -0.302429 -0.077585 0.174606
v -0.302429 0.077583 0.174606
vn 0.866025 0.000000 -0.500000
v -0.281321 0.077583 0.113970
v -0.281321 0.038778 0.113970
vn -0.935475 0.000000 0.353392
v 0.256341 0.038778 -0.012088
vn 0.986841 0.000000 0.161691
v 0.233031 0.077583 0.130179
v 0.302425 0.077583 0.174606
v 0.302468 -0.077634 0.174631
v 0.254051 0.038778 0.060580
vn 0.911367 0.000000 0.411595
v 0.246927 -0.077588 0.246928
vn -0.707107 0.000000 -0.707107
v -0.246964 -0.077638 0.246962
v -0.246936 -0.077580 0.246934
v -0.246933 0.077583 0.246931
vn 0.707107 0.000000 -0.707107
v -0.246970 0.077583 0.178047
v -0.246970 0.038778 0.178047
vn -0.812135 0.000000 0.583469
v 0.233031 0.038778 0.130179
v 0.194715 0.077586 0.191968
v 0.246936 0.077576 0.246937
v 0.246967 -0.077630 0.246968
vn 0.773784 0.000000 0.633449
v 0.174610 0.077577 0.302433
vn -0.500000 0.000000 -0.866025
v -0.174631 -0.077634 0.302469
v -0.174606 -0.077585 0.302427
vn 0.500000 0.000000 -0.866025
v -0.197204 0.077583 0.231050
v -0.197206 0.038782 0.231053
vn -0.633449 0.000000 0.773784
v 0.194708 0.038774 0.191963
v 0.141715 0.077588 0.241734
v 0.174606 -0.077585 0.302427
v 0.077633 0.077583 0.276081
v 0.174631 -0.077634 0.302469
v -0.174610 0.077577 0.302433
v -0.135417 0.077583 0.269367
v 0.141712 0.038778 0.241731
vn 0.583469 0.000000 0.812135
v 0.090381 0.077588 0.337309
vn -0.258819 0.000000 -0.965926
v 0.006849 0.077583 0.292677
v -0.090398 -0.077634 0.337361
v -0.090385 -0.077585 0.337313
vn 0.258819 0.000000 -0.965926
vn -0.411595 0.000000 0.911367
v 0.077633 0.038778 0.276081
vn 0.353392 0.000000 0.935475
v 0.090381 -0.077590 0.337309
v -0.090385 0.077583 0.337313
v 0.006850 0.038792 0.292686
vn 0.099232 0.000000 0.995064
v 0.090396 -0.077629 0.337365
v -0.065818 0.077588 0.290391
v -0.135417 0.038778 0.269367
v 0.000000 0.077596 0.349204
vn 0.000000 0.000000 -1.000000
v -0.065818 0.038784 0.290391
vn -0.161691 0.000000 0.986841
v 0.000000 -0.077621 0.349269
v 0.000000 -0.077599 0.349204
v 0.000000 0.077618 -0.349269
vn -0.258819 0.000000 -0.965926
vn 0.000000 0.000000 -1.000000
vt 0.425424 0.0
vt 0.392699 0.055556
vt 0.392699 0.0
v 0.090394 0.077632 -0.337361
vn 0.258819 0.000000 -0.965926
vt 0.392699 0.0
vt 0.359974 0.055556
vt 0.359974 0.0
v 0.174628 0.077637 -0.302464
vn 0.500000 0.000000 -0.866025
vt 0.359974 0.0
vt 0.327249 0.055556
vt 0.327249 0.0
v -0.090399 0.077627 -0.337365
vt 0.425424 0.055556
vt 0.392699 0.055556
vt 0.359974 0.055556
v 0.246967 0.077628 -0.246968
vn 0.707107 0.000000 -0.707107
vt 0.294524 0.055556
vt 0.327249 0.0
vt 0.327249 0.055556
vn -0.500000 0.000000 -0.866025
vt 0.458149 0.0
vt 0.425424 0.055556
vt 0.425424 0.0
vn 0.000000 1.000000 0.000000
vt -0.172296 10.6124
vt -0.172296 10.6771
vt -0.176556 10.6448
v -0.174631 0.077632 -0.302470
vt -0.159809 10.5823
vt -0.159809 10.7073
vt 0.294524 0.0
v 0.024236 0.077632 -0.259241
vt -0.144352 10.6534
vt -0.139944 10.7331
vn -0.707107 0.000000 -0.707107
vt 0.490874 0.0
vt 0.458149 0.055556
vt 0.458149 0.0
vt 0.458149 0.055556
v -0.246961 0.077638 -0.246959
vt -0.139944 10.5564
vn 0.866025 0.000000 -0.500000
vt 0.294524 0.055556
vt 0.261799 0.0
vt 0.294524 0.0
v -0.048418 0.077632 -0.261530
vt -0.145172 10.6274
v 0.093823 0.077632 -0.238224
vt -0.13683 10.6783
vt 0.490874 0.055556
v 0.302465 0.077635 -0.174629
vt 0.261799 0.055556
vt -0.114056 10.753
v -0.302468 0.077635 -0.174629
vn -0.866025 0.000000 -0.500000
vt 0.523599 0.055556
vt 0.490874 0.0
vt 0.523599 0.0
vt 0.490874 0.055556
v -0.119192 0.077632 -0.244938
vt -0.139233 10.6021
vn 0.965926 0.000000 -0.258819
vt 0.261799 0.055556
vt 0.229074 0.0
vt 0.261799 0.0
v 0.155599 0.077632 -0.199914
vt -0.123116 10.7005
v -0.337359 0.077635 -0.090395
vn -0.965926 0.000000 -0.258819
vt 0.523599 0.0
vt 0.556324 0.055556
vt 0.523599 0.055556
vt -0.114056 10.5365
v 0.337359 0.077632 -0.090396
vt 0.229074 0.055556
vt 0.556324 0.0
v 0.205353 0.077632 -0.146920
vt -0.104147 10.7183
v -0.236248 0.077628 -0.160835
vt -0.109128 10.5602
vt -0.083908 10.524
v -0.183254 0.077627 -0.210590
vt -0.126939 10.5792
vt -0.083908 10.7655
vn 1.000000 0.000000 0.000000
vt 0.19635 0.0
v -0.349262 0.077632 -0.000000
vn -1.000000 0.000000 0.000000
vt 0.556324 0.0
vt 0.589049 0.055556
vt 0.556324 0.055556
v -0.274558 0.077627 -0.099059
vt -0.087015 10.5465
v 0.239699 0.077632 -0.082854
vt -0.081214 10.7306
v 0.349258 0.077635 -0.000000
vt 0.19635 0.055556
vt 0.589049 0.0
v -0.295576 0.077632 -0.029475
vt -0.062107 10.539
vt -0.051556 10.5198
vt -0.051556 10.7698
vn 0.965926 0.000000 0.258819
vt 0.163625 0.0
v -0.337362 0.077632 0.090396
vn -0.965926 0.000000 0.258819
vt 0.589049 0.0
vt 0.621774 0.055556
vt 0.589049 0.055556
v -0.297865 0.077632 0.043180
vt -0.036099 10.5381
v 0.256287 0.077627 -0.012082
vt -0.055881 10.7365
v 0.337359 0.077632 0.090396
vt 0.163625 0.055556
vt 0.621774 0.0
vt -0.019203 10.524
v 0.254002 0.077632 0.060572
vt -0.029874 10.7357
vt -0.019203 10.7655
vn 0.866025 0.000000 0.500000
vt 0.163625 0.055556
vt 0.1309 0.0
vt 0.163625 0.0
v -0.302471 0.077632 0.174631
vn -0.866025 0.000000 0.500000
vt 0.621774 0.0
vt 0.654498 0.055556
vt 0.621774 0.055556
v -0.281275 0.077632 0.113952
vt -0.010766 10.5441
v 0.232986 0.077632 0.130159
vt -0.004965 10.7282
v 0.302468 0.077632 0.174631
vt 0.1309 0.055556
vt 0.654498 0.0
vt 0.010944 10.5365
vt 0.010944 10.753
vn 0.707107 0.000000 0.707107
vt 0.1309 0.055556
vt 0.098175 0.0
vt 0.1309 0.0
v -0.246968 0.077632 0.246966
vn -0.707107 0.000000 0.707107
vt 0.654498 0.0
vt 0.687223 0.055556
vt 0.654498 0.055556
v -0.246930 0.077632 0.178018
vt 0.012166 10.5564
v 0.194672 0.077628 0.191933
vt 0.017148 10.7144
v 0.246958 0.077638 0.246959
vt 0.098175 0.055556
vt 0.687223 0.0
vt 0.036833 10.5564
vt 0.036833 10.7331
v 0.174628 0.077637 0.302464
vn 0.500000 0.000000 0.866025
vt 0.06545 0.055556
vt 0.098175 0.0
vt 0.098175 0.055556
vn -0.500000 0.000000 0.866025
vt 0.719948 0.0
vt 0.687223 0.055556
vt 0.687223 0.0
v -0.197172 0.077632 0.231012
vt 0.031136 10.5742
v 0.141681 0.077627 0.241687
vt 0.034958 10.6955
vt 0.06545 0.0
v 0.077615 0.077632 0.276035
vt 0.047252 10.6725
vt 0.056698 10.7073
v -0.174628 0.077637 0.302464
vt 0.719948 0.055556
v -0.135397 0.077632 0.269322
vt 0.044849 10.5963
v 0.090396 0.077627 0.337365
vn 0.258819 0.000000 0.965926
vt 0.032725 0.055556
vt 0.06545 0.0
vt 0.06545 0.055556
v 0.006844 0.077632 0.292628
vt 0.053192 10.6472
vn -0.258819 0.000000 0.965926
vt 0.752673 0.0
vt 0.719948 0.055556
vt 0.719948 0.0
vt 0.056698 10.5823
vt 0.032725 0.0
v -0.090398 0.077632 0.337361
vt 0.069185 10.6124
vt 0.069185 10.6771
vt 0.752673 0.055556
v -0.065809 0.077627 0.290334
vt 0.052372 10.6212
v 0.000000 0.077618 0.349269
vn 0.000000 0.000000 1.000000
vt 0.0 0.055556
vt 0.032725 0.0
vt 0.032725 0.055556
vt 0.073444 10.6448
vt 0.785398 0.0
vt 0.752673 0.055556
vt 0.752673 0.0
vt 0.0 0.0
vt 0.785398 0.055556
v 0.024235 0.038822 -0.259236
vn 0.099232 0.000000 0.995064
vn -0.161691 0.000000 0.986841
vt 0.09394 0.01875
vt 0.105683 0.0125
vt 0.105683 0.01875
v 0.093823 0.038828 -0.238224
vn -0.411595 0.000000 0.911367
vt 0.105683 0.01875
vt 0.117425 0.0125
vt 0.117425 0.01875
v -0.048416 0.038814 -0.261522
vt 0.09394 0.0125
vt 0.105683 0.0125
v 0.155597 0.038824 -0.199912
vn -0.633449 0.000000 0.773784
vt 0.129168 0.0125
vt 0.117425 0.01875
vt 0.117425 0.0125
vn 0.353392 0.000000 0.935475
vt 0.082198 0.01875
vt 0.09394 0.0125
vt 0.09394 0.01875
v -0.119192 0.038828 -0.244938
vt -0.062655 4.77094
vt -0.064959 4.79404
vt -0.065327 4.78234
vt -0.061573 4.80525
vt 0.129168 0.01875
v -0.183257 0.038828 -0.210593
vt -0.057122 4.76062
vt -0.055402 4.8152
vt 0.082198 0.0125
vn -0.812135 0.000000 0.583469
vt 0.14091 0.01875
v -0.236255 0.038832 -0.160841
vt -0.049108 4.75208
vn 0.583469 0.000000 0.812135
vt 0.070455 0.01875
vt 0.082198 0.0125
vt 0.082198 0.01875
vt 0.070455 0.0125
v 0.205353 0.038828 -0.146920
vt 0.14091 0.0125
vn 0.773784 0.000000 0.633449
vt 0.070455 0.0125
vt 0.058713 0.01875
vt 0.058713 0.0125
vt -0.046866 4.82322
vt 0.070455 0.01875
v -0.274562 0.038828 -0.099061
vn 0.911367 0.000000 0.411595
vt 0.04697 0.0125
vt 0.058713 0.01875
vt 0.04697 0.01875
vn -0.935475 0.000000 0.353392
vt 0.14091 0.0125
vt 0.152653 0.01875
vt 0.14091 0.01875
vt 0.058713 0.0125
vt -0.039157 4.74591
v -0.295576 0.038828 -0.029475
vn 0.986841 0.000000 0.161691
vt 0.035228 0.0125
vt 0.04697 0.01875
vt 0.035228 0.01875
vt 0.04697 0.0125
v 0.239699 0.038828 -0.082854
vt 0.152653 0.0125
v -0.297865 0.038828 0.043180
vn 0.995064 0.000000 -0.099232
vt 0.023485 0.0125
vt 0.035228 0.01875
vt 0.023485 0.01875
vt -0.036546 4.82875
vt 0.035228 0.0125
vt -0.027948 4.74253
vn -0.995064 0.000000 0.099232
vt 0.152653 0.0125
vt 0.164396 0.01875
vt 0.152653 0.01875
v -0.281275 0.038828 0.113952
vn 0.935475 0.000000 -0.353392
vt 0.023485 0.01875
vt 0.011743 0.0125
vt 0.023485 0.0125
v 0.256292 0.038828 -0.012083
vt -0.025146 4.83142
vt -0.016245 4.74216
vt 0.164396 0.0125
vn -0.986841 0.000000 -0.161691
vt 0.164396 0.0125
vt 0.176138 0.01875
vt 0.164396 0.01875
vt 0.011743 0.01875
v 0.254002 0.038828 0.060572
vt -0.013443 4.83105
vt -0.004845 4.74483
vt 0.176138 0.0125
vn -0.911367 0.000000 -0.411595
vt 0.187881 0.01875
v -0.246930 0.038828 0.178018
vn 0.812135 0.000000 -0.583469
vt 0.011743 0.01875
vt -0.0 0.0125
vt 0.011743 0.0125
v 0.232986 0.038828 0.130159
vt -0.002234 4.82767
vt 0.187881 0.0125
vt -0.0 0.01875
vt 0.005475 4.75036
vn -0.773784 0.000000 -0.633449
vt 0.187881 0.0125
vt 0.199623 0.01875
vt 0.187881 0.01875
v -0.197170 0.038824 0.231009
vn 0.633449 0.000000 -0.773784
vt 0.281821 0.01875
vt 0.270078 0.0125
vt 0.281821 0.0125
v 0.194678 0.038832 0.191938
vt 0.007717 4.8215
vt 0.199623 0.0125
vt 0.270078 0.01875
vt 0.014011 4.75838
v 0.141683 0.038828 0.241691
vn -0.583469 0.000000 -0.812135
vt 0.211366 0.0125
vt 0.199623 0.01875
vt 0.199623 0.0125
vt 0.211366 0.01875
vn 0.411595 0.000000 -0.911367
vt 0.258336 0.01875
vt 0.270078 0.0125
vt 0.270078 0.01875
vt 0.015731 4.81296
v 0.077615 0.038828 0.276035
vn -0.353392 0.000000 -0.935475
vt 0.223108 0.0125
vt 0.211366 0.01875
vt 0.211366 0.0125
vt 0.223108 0.01875
v 0.006843 0.038814 0.292620
vn -0.099232 0.000000 -0.995064
vt 0.223108 0.01875
vt 0.234851 0.0125
vt 0.234851 0.01875
v -0.135397 0.038828 0.269322
vt 0.258336 0.0125
vt 0.020182 4.76833
vt 0.021263 4.80264
vt 0.223108 0.0125
v -0.065809 0.038822 0.290334
vn 0.161691 0.000000 -0.986841
vt 0.246593 0.0125
vt 0.234851 0.01875
vt 0.234851 0.0125
vt 0.246593 0.01875
vt 0.258336 0.0125
vt 0.258336 0.01875
vt 0.023567 4.77954
vt 0.023936 4.79124
vt 0.246593 0.01875
vt 0.246593 0.0125
g mesh1-geometry-0
usemtl Material.57774a50243e5d429f3a4ea105ec3930
f 1//1 2//1 3//1
f 2//1 1//1 4//1
f 5//2 6//2 7//2
f 8//2 7//2 6//2
f 5//3 9//3 6//4
f 7//5 10//5 5//3
f 8//6 11//6 7//5
f 2//1 4//1 12//1
f 13//2 8//2 6//2
f 14//4 6//4 9//3
f 9//3 5//3 10//5
f 10//5 7//5 11//6
f 11//6 8//6 15//7
f 12//1 4//1 16//1
f 17//2 8//2 13//2
f 6//4 14//4 13//8
f 9//9 10//9 14//9
f 11//9 18//9 10//9
f 19//7 15//7 8//6
f 15//9 20//9 11//9
f 16//1 4//1 21//1
f 19//2 8//2 17//2
f 13//8 18//8 17//10
f 18//8 13//8 14//4
f 18//9 14//9 10//9
f 22//9 18//9 11//9
f 19//7 23//11 15//7
f 24//9 11//9 20//9
f 25//9 20//9 15//9
f 16//1 21//1 26//1
f 27//2 19//2 17//2
f 22//10 17//10 18//8
f 24//9 22//9 11//9
f 28//11 15//7 23//11
f 26//1 21//1 29//1
f 23//2 19//2 27//2
f 20//12 30//12 24//13
f 25//14 31//14 20//12
f 28//9 25//9 15//9
f 27//15 17//10 32//15
f 22//10 32//15 17//10
f 33//9 22//9 24//9
f 23//11 34//16 28//11
f 26//1 29//1 35//1
f 36//2 23//2 27//2
f 37//13 24//13 30//12
f 30//12 20//12 31//14
f 31//14 25//14 38//17
f 39//9 25//9 28//9
f 32//15 40//18 27//15
f 32//9 22//9 33//9
f 24//13 37//13 33//19
f 41//16 28//11 34//16
f 35//1 29//1 42//1
f 34//2 23//2 36//2
f 36//18 27//15 40//18
f 37//9 30//9 43//9
f 31//9 43//9 30//9
f 39//17 38//17 25//14
f 38//9 44//9 31//9
f 45//9 39//9 28//9
f 40//9 32//9 46//9
f 47//9 32//9 33//9
f 43//19 33//19 37//13
f 41//9 45//9 28//9
f 34//16 48//20 41//16
f 35//1 42//1 49//1
f 50//2 34//2 36//2
f 40//18 51//21 36//18
f 44//9 43//9 31//9
f 39//17 45//22 38//17
f 52//9 44//9 38//9
f 46//9 32//9 47//9
f 53//9 40//9 46//9
f 33//19 43//19 47//23
f 54//9 45//9 41//9
f 55//20 41//16 48//20
f 49//1 42//1 56//1
f 48//2 34//2 50//2
f 50//21 36//18 51//21
f 51//9 40//9 57//9
f 44//23 47//23 43//19
f 58//22 38//17 45//22
f 52//24 46//24 44//23
f 58//9 52//9 38//9
f 47//23 44//23 46//24
f 57//9 40//9 53//9
f 53//25 46//24 59//25
f 45//22 54//26 58//22
f 55//9 54//9 41//9
f 48//20 60//27 55//20
f 49//1 56//1 61//1
f 62//2 48//2 50//2
f 51//21 63//28 50//21
f 64//9 51//9 57//9
f 52//24 59//25 46//24
f 59//9 52//9 58//9
f 57//29 53//25 65//29
f 59//25 65//29 53//25
f 66//26 58//22 54//26
f 67//9 54//9 55//9
f 68//27 55//20 60//27
f 61//1 56//1 69//1
f 60//2 48//2 62//2
f 62//28 50//21 63//28
f 63//9 51//9 64//9
f 64//30 57//29 70//30
f 66//9 59//9 58//9
f 65//29 70//30 57//29
f 65//9 59//9 66//9
f 54//26 67//31 66//26
f 71//9 67//9 55//9
f 68//9 71//9 55//9
f 60//27 72//32 68//27
f 61//1 69//1 73//1
f 74//2 60//2 62//2
f 63//28 75//33 62//28
f 76//9 63//9 64//9
f 70//30 77//34 64//30
f 70//9 65//9 78//9
f 78//9 65//9 66//9
f 78//31 66//26 67//31
f 67//31 71//35 78//31
f 79//9 71//9 68//9
f 80//32 68//27 72//32
f 73//1 69//1 81//1
f 72//2 60//2 74//2
f 74//33 62//28 75//33
f 75//9 63//9 76//9
f 76//34 64//30 77//34
f 77//9 70//9 82//9
f 82//9 70//9 78//9
f 82//35 78//31 71//35
f 71//35 79//36 82//35
f 80//9 79//9 68//9
f 72//32 83//37 80//32
f 73//1 81//1 84//1
f 85//2 72//2 74//2
f 75//33 86//38 74//33
f 87//9 75//9 76//9
f 77//34 88//39 76//34
f 89//9 77//9 82//9
f 89//36 82//35 79//36
f 90//9 79//9 80//9
f 91//37 80//32 83//37
f 84//1 81//1 92//1
f 83//2 72//2 85//2
f 85//38 74//33 86//38
f 86//9 75//9 87//9
f 87//39 76//34 88//39
f 88//9 77//9 89//9
f 79//36 90//40 89//36
f 91//9 90//9 80//9
f 91//37 83//37 93//41
f 84//1 92//1 94//1
f 95//2 83//2 85//2
f 85//38 86//38 95//42
f 96//9 86//9 87//9
f 88//39 97//43 87//39
f 98//9 88//9 89//9
f 98//40 89//36 90//40
f 99//9 90//9 91//9
f 100//41 93//41 83//37
f 93//9 101//9 91//9
f 94//1 92//1 102//1
f 100//2 83//2 95//2
f 103//42 95//42 86//38
f 104//9 86//9 96//9
f 96//43 87//39 97//43
f 97//9 88//9 98//9
f 98//40 90//40 105//44
f 99//44 105//44 90//40
f 101//9 99//9 91//9
f 93//41 100//41 106//45
f 107//9 101//9 93//9
f 94//1 102//1 108//1
f 109//2 100//2 95//2
f 95//42 103//42 109//46
f 103//9 86//9 104//9
f 96//43 97//43 104//47
f 105//9 97//9 98//9
f 105//44 99//44 110//48
f 101//48 110//48 99//44
f 111//45 106//45 100//41
f 106//9 112//9 93//9
f 107//49 113//49 101//48
f 103//9 107//9 93//9
f 108//1 102//1 114//1
f 111//2 100//2 109//2
f 112//46 109//46 103//42
f 115//9 103//9 104//9
f 116//47 104//47 97//43
f 116//9 97//9 105//9
f 110//9 116//9 105//9
f 110//48 101//48 113//49
f 106//45 111//45 117//50
f 112//9 103//9 93//9
f 117//9 112//9 106//9
f 113//49 107//49 118//51
f 107//9 103//9 115//9
f 108//1 114//1 119//1
f 120//2 111//2 109//2
f 109//46 112//46 120//50
f 104//47 116//47 115//51
f 118//9 116//9 110//9
f 113//9 118//9 110//9
f 120//50 117//50 111//45
f 117//50 120//50 112//46
f 115//51 118//51 107//49
f 118//51 115//51 116//47
g mesh1-geometry-1
usemtl Material.fab57047b918532a092dd588832f0228
f 2/1/52 121/2/53 3/3/53
f 3/4/53 122/5/54 1/6/54
f 1/7/54 123/8/55 4/9/55
f 121/2/53 2/1/52 124/10/52
f 122/5/54 3/4/53 121/11/53
f 123/8/55 1/7/54 122/12/54
f 125/13/56 4/14/55 123/15/55
f 12/16/57 124/17/52 2/18/52
f 124/19/58 122/20/58 121/21/58
f 122/20/58 126/22/58 123/23/58
f 4/14/55 125/13/56 21/24/56
f 123/23/58 127/25/58 125/26/58
f 16/27/59 126/28/57 12/29/57
f 124/17/52 12/16/57 126/30/57
f 122/20/58 124/19/58 126/22/58
f 123/23/58 126/22/58 128/31/58
f 125/32/56 29/33/60 21/34/56
f 127/25/58 123/23/58 129/35/58
f 125/26/58 127/25/58 130/36/58
f 126/28/57 16/27/59 128/37/59
f 123/23/58 128/31/58 129/35/58
f 29/33/60 125/32/56 131/38/60
f 125/26/58 130/36/58 131/39/58
f 132/40/61 16/41/59 26/42/61
f 16/41/59 132/40/61 128/43/59
f 129/35/58 128/31/58 133/44/58
f 131/45/60 42/46/62 29/47/60
f 131/39/58 130/36/58 134/48/58
f 26/49/61 135/50/63 132/51/61
f 133/44/58 128/31/58 132/52/58
f 42/46/62 131/45/60 136/53/62
f 135/50/63 26/49/61 35/54/63
f 131/39/58 134/48/58 137/55/58
f 138/56/58 132/52/58 135/57/58
f 133/44/58 132/52/58 139/58/58
f 131/39/58 137/55/58 136/59/58
f 136/53/62 56/60/64 42/46/62
f 35/61/63 140/62/65 135/63/63
f 139/58/58 132/52/58 138/56/58
f 138/56/58 135/57/58 141/64/58
f 136/59/58 137/55/58 142/65/58
f 56/60/64 136/53/62 143/66/64
f 140/62/65 35/61/63 49/67/65
f 144/68/58 135/57/58 140/69/58
f 141/64/58 135/57/58 144/68/58
f 136/59/58 142/65/58 143/70/58
f 143/66/64 69/71/66 56/60/64
f 49/72/65 145/73/67 140/74/65
f 144/68/58 140/69/58 146/75/58
f 143/70/58 142/65/58 147/76/58
f 69/71/66 143/66/64 148/77/66
f 145/73/67 49/72/65 61/78/67
f 146/75/58 140/69/58 145/79/58
f 143/70/58 147/76/58 149/80/58
f 143/70/58 149/80/58 148/81/58
f 148/82/66 81/83/68 69/84/66
f 61/85/67 150/86/69 145/87/67
f 146/75/58 145/79/58 151/88/58
f 148/81/58 149/80/58 152/89/58
f 81/83/68 148/82/66 153/90/68
f 150/86/69 61/85/67 73/91/69
f 151/88/58 145/79/58 150/92/58
f 148/81/58 152/89/58 153/93/58
f 153/94/68 92/95/70 81/96/68
f 73/97/69 154/98/71 150/99/69
f 151/88/58 150/92/58 155/100/58
f 153/93/58 152/89/58 156/101/58
f 92/95/70 153/94/68 157/102/70
f 154/98/71 73/97/69 84/103/71
f 155/100/58 150/92/58 154/104/58
f 153/93/58 156/101/58 157/105/58
f 158/106/72 92/107/70 157/108/70
f 94/109/73 154/110/71 84/111/71
f 155/100/58 154/104/58 159/112/58
f 157/105/58 156/101/58 160/113/58
f 92/107/70 158/106/72 102/114/72
f 157/105/58 161/115/58 158/116/58
f 154/110/71 94/109/73 162/117/73
f 159/112/58 154/104/58 163/118/58
f 157/105/58 160/113/58 161/115/58
f 164/119/74 102/120/72 158/121/72
f 158/116/58 161/115/58 165/122/58
f 108/123/75 162/124/73 94/125/73
f 163/118/58 154/104/58 162/126/58
f 102/120/72 164/119/74 114/127/74
f 158/116/58 166/128/58 164/129/58
f 158/116/58 165/122/58 162/126/58
f 162/124/73 108/123/75 166/130/75
f 163/118/58 162/126/58 167/131/58
f 168/132/76 114/133/74 164/134/74
f 158/116/58 162/126/58 166/128/58
f 164/129/58 166/128/58 168/135/58
f 167/131/58 162/126/58 165/122/58
f 119/136/76 166/137/75 108/138/75
f 114/133/74 168/132/76 119/139/76
f 166/137/75 119/136/76 168/140/76
g mesh1-geometry-2
usemtl Material.adfca2fb27c1e89c3ee819ce9372e850
f 129/141/77 169/142/78 127/143/78
f 127/144/78 170/145/79 130/146/79
f 169/142/78 129/141/77 171/147/77
f 170/145/79 127/144/78 169/148/78
f 172/149/80 130/150/79 170/151/79
f 133/152/81 171/153/77 129/154/77
f 173/155/58 169/156/58 171/157/58
f 169/156/58 173/155/58 170/158/58
f 130/150/79 172/149/80 134/159/80
f 170/158/58 174/160/58 172/161/58
f 171/153/77 133/152/81 173/162/81
f 170/158/58 173/155/58 174/160/58
f 172/149/80 137/163/82 134/159/80
f 172/161/58 174/160/58 175/164/58
f 139/165/83 173/166/81 133/167/81
f 173/166/81 139/165/83 174/168/83
f 137/163/82 172/149/80 176/169/82
f 174/170/83 138/171/84 175/172/84
f 172/161/58 175/164/58 176/173/58
f 138/171/84 174/170/83 139/174/83
f 177/175/85 138/176/84 141/177/85
f 176/178/82 142/179/86 137/180/82
f 138/176/84 177/175/85 175/181/84
f 176/173/58 175/164/58 177/182/58
f 178/183/87 141/184/85 144/185/87
f 141/184/85 178/183/87 177/186/85
f 142/179/86 176/178/82 179/187/86
f 180/188/88 144/189/87 146/190/88
f 176/173/58 177/182/58 179/191/58
f 144/189/87 180/188/88 178/192/87
f 179/191/58 177/182/58 178/193/58
f 179/194/86 147/195/89 142/196/86
f 146/197/88 181/198/90 180/199/88
f 182/200/58 178/193/58 180/201/58
f 179/191/58 178/193/58 182/200/58
f 147/195/89 179/194/86 182/202/89
f 182/203/89 149/204/91 147/205/89
f 181/198/90 146/197/88 151/206/90
f 183/207/58 180/201/58 181/208/58
f 182/200/58 180/201/58 183/207/58
f 149/204/91 182/203/89 183/209/91
f 183/209/91 152/210/92 149/204/91
f 151/211/90 184/212/93 181/213/90
f 183/207/58 181/208/58 185/214/58
f 152/210/92 183/209/91 185/215/92
f 184/212/93 151/211/90 155/216/93
f 185/214/58 181/208/58 184/217/58
f 185/218/92 156/219/94 152/220/92
f 155/221/93 186/222/95 184/223/93
f 185/214/58 184/217/58 187/224/58
f 156/219/94 185/218/92 187/225/94
f 186/222/95 155/221/93 159/226/95
f 187/224/58 184/217/58 186/227/58
f 188/228/96 156/229/94 187/230/94
f 156/229/94 188/228/96 160/231/96
f 163/232/97 186/233/95 159/234/95
f 187/224/58 186/227/58 188/235/58
f 189/236/98 160/237/96 188/238/96
f 160/237/96 189/236/98 161/239/98
f 161/240/98 190/241/99 165/242/99
f 186/233/95 163/232/97 191/243/97
f 188/235/58 186/227/58 191/244/58
f 188/235/58 191/244/58 189/245/58
f 190/241/99 161/240/98 189/246/98
f 192/247/100 165/248/99 190/249/99
f 167/250/100 191/251/97 163/252/97
f 189/245/58 191/244/58 192/253/58
f 189/245/58 192/253/58 190/254/58
f 165/248/99 192/247/100 167/255/100
f 191/251/97 167/250/100 192/256/100
