# created by Ethan Wu and Zhan isaac Ling
mtllib model.mtl
v -0.296364 -0.224465 0.329927
v 0.296374 -0.224461 0.334327
v -0.296360 -0.224461 0.334327
vn 0.000000 -1.000000 0.000000
v 0.296362 -0.224473 -0.334307
v -0.296321 -0.224422 0.334287
v 0.296335 -0.224422 0.334287
v -0.296317 -0.224418 0.329927
vn 0.000000 1.000000 0.000000
v 0.296347 -0.224410 -0.334292
v -0.296360 -0.217853 0.334327
vn 0.000000 0.000000 1.000000
v -0.296321 -0.217892 0.334287
vn 0.000000 0.000000 -1.000000
vn -1.000000 0.000000 0.000000
vn 1.000000 0.000000 0.000000
v -0.296368 -0.224460 0.288992
v -0.296313 -0.224423 0.288992
v 0.296362 -0.217840 -0.334307
vn 1.000000 0.000000 0.000000
v 0.296348 -0.217904 -0.334293
vn -1.000000 0.000000 0.000000
v 0.296361 -0.217840 0.334313
v 0.296348 -0.217904 0.334300
v -0.296372 -0.217864 0.329935
v -0.296309 -0.217880 0.329919
v -0.296368 -0.224460 -0.309543
v -0.296313 -0.224423 -0.309543
v -0.296358 -0.224450 -0.334327
vn 0.000000 0.000000 -1.000000
v -0.296322 -0.224433 -0.334273
vn 0.000000 0.000000 1.000000
v -0.228472 -0.217901 0.329918
vn 0.000000 -1.000000 0.000000
v -0.296374 0.057308 0.288992
v 0.258273 -0.217906 0.091296
v -0.228454 -0.217839 -0.334307
v -0.228462 -0.217905 -0.334294
v 0.129065 -0.217906 0.278474
v -0.228444 -0.217843 0.329937
v -0.296370 0.224471 0.329939
v -0.296311 0.224448 0.329916
v -0.296374 0.183584 -0.309543
v 0.230159 -0.217906 0.260533
v 0.258273 -0.217906 0.013194
v -0.296359 -0.217872 -0.334327
v -0.296322 -0.217872 -0.334272
v 0.173571 -0.217906 -0.296376
v -0.143517 -0.217906 0.312626
v -0.228428 0.224470 0.329937
v -0.228488 0.224449 0.329917
v -0.296374 0.183584 0.288992
v 0.230159 -0.217906 0.161326
v 0.261021 -0.217906 -0.050730
v 0.164843 -0.217906 0.091296
v -0.228430 0.224473 -0.334313
v -0.228485 0.224446 -0.334286
v -0.087872 -0.217906 -0.289100
v 0.269921 -0.217906 -0.296376
v 0.168846 -0.217906 0.260533
v -0.081320 -0.217906 0.282729
v -0.178553 -0.217906 0.312626
v -0.228491 -0.201081 0.290119
vn 0.000000 1.000000 0.000000
v -0.296374 0.183584 -0.275237
v -0.296368 0.224473 -0.334313
v 0.168846 -0.217906 0.161326
v 0.261021 -0.217906 -0.134671
v 0.164843 -0.217906 0.013194
v 0.015090 -0.217906 0.108302
v -0.296313 0.224446 -0.334286
v -0.228491 -0.201081 -0.321553
v -0.162145 -0.217906 -0.281465
v -0.033858 -0.217906 -0.289100
v 0.269921 -0.217906 -0.251121
v 0.173571 -0.217906 -0.251121
v 0.129065 -0.217906 0.232489
v 0.042143 -0.217906 0.279268
v -0.116356 -0.217906 0.282729
v -0.143517 -0.217906 0.252043
v -0.228491 0.196725 0.290119
v 0.142522 -0.217906 0.123987
v 0.255615 -0.217906 -0.181187
v 0.177080 -0.217906 -0.050730
v 0.129185 -0.217906 0.009523
v 0.129185 -0.217906 0.074479
v 0.089039 -0.217906 0.074479
v -0.078781 -0.217906 0.115151
v -0.228491 0.196725 -0.321553
v -0.162145 -0.217906 -0.227137
v -0.128568 -0.217906 -0.281465
v 0.076357 -0.217906 -0.279273
v -0.087872 -0.217906 -0.235086
v 0.140590 -0.217906 -0.279273
v 0.069942 -0.217906 0.278474
v -0.036986 -0.217906 0.279268
v -0.081320 -0.217906 0.226039
v -0.178553 -0.217906 0.252043
v 0.088507 -0.217906 0.123987
v 0.142522 -0.217906 0.196250
v 0.177080 -0.217906 -0.134671
v 0.138520 -0.217906 -0.021825
v 0.089039 -0.217906 0.009523
v 0.015090 -0.217906 0.048069
v -0.022136 -0.217906 0.108302
v -0.164128 -0.217906 -0.201563
v -0.003672 -0.217906 -0.274427
v -0.033858 -0.217906 -0.235086
v 0.255615 -0.217906 -0.226442
v 0.140590 -0.217906 -0.228909
v 0.069942 -0.217906 0.232489
v 0.042143 -0.217906 0.230363
v -0.116356 -0.217906 0.226039
v -0.177468 -0.217906 0.205160
v 0.088507 -0.217906 0.196250
v 0.159641 -0.217906 -0.170954
v 0.138520 -0.217906 -0.051751
v -0.124036 -0.217906 0.115151
v -0.078781 -0.217906 0.069895
v -0.164128 -0.217906 -0.139520
v -0.106015 -0.217906 -0.209410
v -0.128568 -0.217906 -0.227137
v 0.076357 -0.217906 -0.228909
v 0.040853 -0.217906 -0.274427
v 0.182391 -0.217906 -0.226442
v 0.182391 -0.217906 -0.181187
v -0.036986 -0.217906 0.230363
v -0.177468 -0.217906 0.156738
v 0.054285 -0.217906 0.186206
v -0.079568 -0.217906 0.198813
v 0.092489 -0.217906 -0.170954
v 0.159641 -0.217906 -0.117669
v 0.071367 -0.217906 -0.021825
v 0.031275 -0.217906 -0.000482
v -0.022136 -0.217906 0.048069
v -0.144385 -0.217906 0.127686
v -0.166475 -0.217906 -0.109477
v -0.135661 -0.217906 -0.201563
v -0.050507 -0.217906 -0.209410
v -0.003672 -0.217906 -0.202384
v -0.050507 -0.217906 -0.175104
v -0.147542 -0.217906 0.205160
v -0.147542 -0.217906 0.156738
v -0.174312 -0.217906 0.127686
v 0.054285 -0.217906 0.145331
v -0.030385 -0.217906 0.186206
v 0.092489 -0.217906 -0.117669
v 0.071367 -0.217906 -0.051751
v -0.040257 -0.217906 -0.000482
v -0.079828 -0.217906 0.044663
v -0.030385 -0.217906 0.145331
v -0.144385 -0.217906 0.079264
v -0.124036 -0.217906 0.069895
v -0.166475 -0.217906 -0.047433
v -0.103698 -0.217906 -0.136818
v -0.135661 -0.217906 -0.139520
v -0.106015 -0.217906 -0.175104
v 0.040853 -0.217906 -0.202384
v -0.108764 -0.217906 0.151571
v -0.174312 -0.217906 0.079264
v -0.079568 -0.217906 0.151571
v -0.108764 -0.217906 0.198813
v 0.067795 -0.217906 -0.157170
v 0.067795 -0.217906 -0.103885
v 0.031275 -0.217906 -0.072014
v -0.106105 -0.217906 0.044663
v -0.136141 -0.217906 0.054970
v -0.166798 -0.217906 -0.012183
v -0.138008 -0.217906 -0.109477
v -0.166798 -0.217906 0.054970
v -0.018420 -0.217906 -0.157170
v -0.040257 -0.217906 -0.072014
v -0.079828 -0.217906 -0.011541
v -0.138008 -0.217906 -0.047433
v -0.103698 -0.217906 -0.070680
v -0.018420 -0.217906 -0.103885
v -0.136141 -0.217906 -0.012183
v -0.106105 -0.217906 -0.011541
v -0.062822 -0.217906 -0.136818
v -0.062822 -0.217906 -0.070680
v -0.296307 0.057308 0.288992
v 0.258273 -0.217839 0.091296
v 0.129065 -0.217839 0.278474
v -0.296307 0.183584 -0.309543
v 0.230159 -0.217839 0.260533
v 0.258273 -0.217839 0.013194
v 0.173571 -0.217839 -0.296376
v -0.143517 -0.217839 0.312626
v -0.296307 0.183584 0.288992
v 0.230159 -0.217839 0.161326
v 0.261021 -0.217839 -0.050730
v -0.087872 -0.217839 -0.289100
v 0.269921 -0.217839 -0.296376
v 0.168846 -0.217839 0.260533
v -0.081320 -0.217839 0.282729
v -0.178553 -0.217839 0.312626
v -0.228424 -0.201081 0.290119
v -0.296307 0.183584 -0.275237
v 0.168846 -0.217839 0.161326
v 0.261021 -0.217839 -0.134671
v 0.164843 -0.217839 0.013194
v 0.164843 -0.217839 0.091296
v 0.015090 -0.217839 0.108302
v -0.228424 -0.201081 -0.321553
v -0.162145 -0.217839 -0.281465
v -0.033858 -0.217839 -0.289100
v 0.269921 -0.217839 -0.251121
v 0.129065 -0.217839 0.232489
v 0.042143 -0.217839 0.279268
v -0.116356 -0.217839 0.282729
v -0.228424 0.196725 0.290119
v 0.142522 -0.217839 0.123987
v 0.255615 -0.217839 -0.181187
v 0.129185 -0.217839 0.009523
v 0.129185 -0.217839 0.074479
v 0.089039 -0.217839 0.074479
v -0.078781 -0.217839 0.115151
v -0.228424 0.196725 -0.321553
v -0.162145 -0.217839 -0.227137
v -0.128568 -0.217839 -0.281465
v 0.076357 -0.217839 -0.279273
v 0.140590 -0.217839 -0.279273
v 0.173571 -0.217839 -0.251121
v 0.069942 -0.217839 0.278474
v -0.036986 -0.217839 0.279268
v -0.143517 -0.217839 0.252043
v -0.178553 -0.217839 0.252043
v 0.088507 -0.217839 0.123987
v 0.142522 -0.217839 0.196250
v 0.177080 -0.217839 -0.134671
v 0.177080 -0.217839 -0.050730
v 0.138520 -0.217839 -0.021825
v 0.089039 -0.217839 0.009523
v 0.015090 -0.217839 0.048069
v -0.022136 -0.217839 0.108302
v -0.164128 -0.217839 -0.201563
v -0.087872 -0.217839 -0.235086
v -0.003672 -0.217839 -0.274427
v 0.255615 -0.217839 -0.226442
v 0.140590 -0.217839 -0.228909
v 0.042143 -0.217839 0.230363
v -0.081320 -0.217839 0.226039
v -0.116356 -0.217839 0.226039
v -0.177468 -0.217839 0.205160
v 0.159641 -0.217839 -0.170954
v 0.138520 -0.217839 -0.051751
v -0.124036 -0.217839 0.115151
v -0.078781 -0.217839 0.069895
v -0.164128 -0.217839 -0.139520
v -0.106015 -0.217839 -0.209410
v -0.128568 -0.217839 -0.227137
v -0.033858 -0.217839 -0.235086
v 0.040853 -0.217839 -0.274427
v 0.182391 -0.217839 -0.226442
v 0.069942 -0.217839 0.232489
v -0.036986 -0.217839 0.230363
v -0.177468 -0.217839 0.156738
v 0.054285 -0.217839 0.186206
v 0.088507 -0.217839 0.196250
v -0.079568 -0.217839 0.198813
v 0.092489 -0.217839 -0.170954
v 0.159641 -0.217839 -0.117669
v 0.031275 -0.217839 -0.000482
v -0.022136 -0.217839 0.048069
v -0.144385 -0.217839 0.127686
v -0.166475 -0.217839 -0.109477
v -0.135661 -0.217839 -0.201563
v 0.076357 -0.217839 -0.228909
v -0.050507 -0.217839 -0.209410
v 0.182391 -0.217839 -0.181187
v -0.050507 -0.217839 -0.175104
v -0.147542 -0.217839 0.205160
v -0.174312 -0.217839 0.127686
v 0.054285 -0.217839 0.145331
v -0.030385 -0.217839 0.186206
v 0.071367 -0.217839 -0.051751
v 0.071367 -0.217839 -0.021825
v -0.040257 -0.217839 -0.000482
v -0.079828 -0.217839 0.044663
v -0.030385 -0.217839 0.145331
v -0.144385 -0.217839 0.079264
v -0.124036 -0.217839 0.069895
v -0.166475 -0.217839 -0.047433
v -0.103698 -0.217839 -0.136818
v -0.106015 -0.217839 -0.175104
v 0.040853 -0.217839 -0.202384
v -0.003672 -0.217839 -0.202384
v -0.147542 -0.217839 0.156738
v -0.108764 -0.217839 0.151571
v -0.174312 -0.217839 0.079264
v -0.079568 -0.217839 0.151571
v -0.108764 -0.217839 0.198813
v 0.067795 -0.217839 -0.157170
v 0.092489 -0.217839 -0.117669
v 0.067795 -0.217839 -0.103885
v 0.031275 -0.217839 -0.072014
v -0.106105 -0.217839 0.044663
v -0.136141 -0.217839 0.054970
v -0.166798 -0.217839 -0.012183
v -0.138008 -0.217839 -0.109477
v -0.135661 -0.217839 -0.139520
v -0.166798 -0.217839 0.054970
v -0.018420 -0.217839 -0.157170
v -0.040257 -0.217839 -0.072014
v -0.079828 -0.217839 -0.011541
v -0.138008 -0.217839 -0.047433
v -0.103698 -0.217839 -0.070680
v -0.018420 -0.217839 -0.103885
v -0.136141 -0.217839 -0.012183
v -0.062822 -0.217839 -0.136818
v -0.106105 -0.217839 -0.011541
v -0.062822 -0.217839 -0.070680
v -0.228424 -0.200566 0.301068
v -0.228424 -0.200566 -0.138110
v -0.228424 0.196725 0.301068
vn 1.000000 0.000000 0.000000
vt 0.0 0.0
vt 1.0 0.0
vt 0.0 1.0
v -0.228491 -0.200566 0.301068
v -0.228491 0.196725 0.301068
v -0.228491 -0.200566 -0.138110
vn -1.000000 0.000000 0.000000
v -0.228424 0.196725 -0.138110
vt 1.0 1.0
v -0.228491 0.196725 -0.138110
g mesh1-geometry-0
usemtl Material.57774a50243e5d429f3a4ea105ec3930
f 1//1 2//1 3//1
f 2//1 1//1 4//1
f 5//2 6//2 7//2
f 8//2 7//2 6//2
f 2//3 9//3 3//3
f 5//4 10//4 6//4
f 9//5 1//5 3//5
f 5//6 7//6 10//6
f 4//1 1//1 11//1
f 12//2 7//2 8//2
f 13//7 2//7 4//7
f 8//8 6//8 14//8
f 9//3 2//3 15//3
f 16//4 6//4 10//4
f 1//5 9//5 17//5
f 18//6 10//6 7//6
f 17//5 11//5 1//5
f 4//1 11//1 19//1
f 20//2 12//2 8//2
f 2//7 13//7 15//7
f 16//8 14//8 6//8
f 21//9 13//9 4//9
f 8//10 14//10 22//10
f 10//11 23//11 16//11
f 23//11 10//11 18//11
f 11//5 17//5 24//5
f 24//5 19//5 11//5
f 4//1 19//1 21//1
f 22//2 20//2 8//2
f 14//11 16//11 25//11
f 13//9 21//9 26//9
f 27//10 22//10 14//10
f 28//11 16//11 23//11
f 29//3 30//3 17//3
f 18//4 31//4 23//4
f 24//5 17//5 30//5
f 19//5 24//5 32//5
f 32//5 21//5 19//5
f 25//11 16//11 33//11
f 34//11 14//11 25//11
f 26//9 21//9 35//9
f 36//10 22//10 27//10
f 14//11 37//11 27//11
f 33//11 16//11 28//11
f 38//11 28//11 23//11
f 30//3 29//3 39//3
f 40//4 23//4 31//4
f 24//5 30//5 41//5
f 32//5 24//5 41//5
f 21//5 32//5 35//5
f 42//11 25//11 33//11
f 43//11 14//11 34//11
f 25//11 44//11 34//11
f 35//9 45//9 26//9
f 27//10 46//10 36//10
f 37//11 47//11 27//11
f 37//11 14//11 48//11
f 33//11 28//11 49//11
f 50//11 28//11 38//11
f 38//11 23//11 51//11
f 40//8 52//8 23//8
f 45//12 30//12 39//12
f 40//11 31//11 46//11
f 41//5 30//5 53//5
f 35//5 32//5 54//5
f 55//11 25//11 42//11
f 33//11 49//11 42//11
f 56//11 14//11 43//11
f 57//11 43//11 34//11
f 57//11 34//11 44//11
f 25//11 58//11 44//11
f 45//9 35//9 54//9
f 59//10 36//10 46//10
f 46//8 27//8 60//8
f 47//11 61//11 27//11
f 47//11 37//11 62//11
f 48//11 14//11 63//11
f 37//11 48//11 64//11
f 65//11 49//11 28//11
f 66//11 28//11 50//11
f 50//11 38//11 67//11
f 27//11 51//11 23//11
f 38//11 51//11 68//11
f 60//8 23//8 52//8
f 69//8 52//8 40//8
f 30//12 45//12 54//12
f 59//11 46//11 31//11
f 46//8 69//8 40//8
f 53//5 30//5 32//5
f 54//5 32//5 30//5
f 70//11 25//11 55//11
f 55//11 42//11 49//11
f 71//11 14//11 56//11
f 43//11 72//11 56//11
f 73//11 43//11 57//11
f 44//11 74//11 57//11
f 44//11 58//11 75//11
f 58//11 25//11 76//11
f 23//8 60//8 27//8
f 77//8 46//8 60//8
f 61//11 78//11 27//11
f 61//11 47//11 79//11
f 62//11 37//11 80//11
f 47//11 62//11 81//11
f 63//11 14//11 71//11
f 63//11 64//11 48//11
f 37//11 64//11 82//11
f 55//11 49//11 65//11
f 28//11 83//11 65//11
f 28//11 66//11 83//11
f 66//11 50//11 84//11
f 68//11 67//11 38//11
f 50//11 67//11 85//11
f 86//11 51//11 27//11
f 86//11 68//11 51//11
f 60//8 52//8 77//8
f 69//8 77//8 52//8
f 69//8 46//8 77//8
f 87//11 25//11 70//11
f 70//11 55//11 88//11
f 89//11 71//11 56//11
f 89//11 56//11 72//11
f 43//11 90//11 72//11
f 91//11 43//11 73//11
f 73//11 57//11 74//11
f 74//11 44//11 75//11
f 92//11 75//11 58//11
f 76//11 25//11 87//11
f 58//11 76//11 93//11
f 78//11 94//11 27//11
f 61//11 79//11 78//11
f 47//11 81//11 79//11
f 80//11 37//11 82//11
f 80//11 95//11 62//11
f 96//11 81//11 62//11
f 97//11 63//11 71//11
f 63//11 98//11 64//11
f 82//11 64//11 98//11
f 88//11 55//11 65//11
f 99//11 65//11 83//11
f 100//11 83//11 66//11
f 85//11 84//11 50//11
f 66//11 84//11 100//11
f 101//11 67//11 68//11
f 101//11 85//11 67//11
f 102//11 86//11 27//11
f 86//11 101//11 68//11
f 87//11 70//11 103//11
f 88//11 103//11 70//11
f 104//11 71//11 89//11
f 89//11 72//11 105//11
f 105//11 72//11 90//11
f 90//11 43//11 91//11
f 91//11 73//11 75//11
f 74//11 75//11 73//11
f 91//11 75//11 92//11
f 58//11 93//11 92//11
f 76//11 87//11 106//11
f 107//11 93//11 76//11
f 94//11 108//11 27//11
f 109//11 94//11 78//11
f 110//11 78//11 79//11
f 79//11 81//11 110//11
f 80//11 82//11 111//11
f 62//11 95//11 96//11
f 95//11 80//11 112//11
f 96//11 110//11 81//11
f 113//11 63//11 97//11
f 71//11 114//11 97//11
f 98//11 63//11 113//11
f 98//11 111//11 82//11
f 99//11 88//11 65//11
f 99//11 83//11 100//11
f 115//11 84//11 85//11
f 115//11 100//11 84//11
f 101//11 88//11 85//11
f 101//11 86//11 102//11
f 116//11 102//11 27//11
f 103//11 117//11 87//11
f 88//11 118//11 103//11
f 119//11 71//11 104//11
f 104//11 89//11 120//11
f 120//11 89//11 105//11
f 90//11 121//11 105//11
f 122//11 90//11 91//11
f 123//11 91//11 92//11
f 123//11 92//11 93//11
f 106//11 87//11 124//11
f 76//11 106//11 107//11
f 123//11 93//11 107//11
f 108//11 125//11 27//11
f 94//11 126//11 108//11
f 94//11 109//11 126//11
f 110//11 109//11 78//11
f 80//11 111//11 112//11
f 96//11 95//11 127//11
f 95//11 112//11 128//11
f 110//11 96//11 109//11
f 113//11 97//11 114//11
f 71//11 129//11 114//11
f 98//11 113//11 111//11
f 100//11 88//11 99//11
f 85//11 88//11 115//11
f 115//11 88//11 100//11
f 130//11 88//11 101//11
f 130//11 101//11 102//11
f 116//11 131//11 102//11
f 132//11 116//11 27//11
f 133//11 87//11 117//11
f 117//11 103//11 134//11
f 103//11 118//11 134//11
f 118//11 88//11 130//11
f 129//11 71//11 119//11
f 119//11 104//11 135//11
f 120//11 135//11 104//11
f 136//11 120//11 105//11
f 136//11 105//11 121//11
f 90//11 122//11 121//11
f 122//11 91//11 137//11
f 138//11 91//11 123//11
f 124//11 87//11 139//11
f 140//11 106//11 124//11
f 141//11 107//11 106//11
f 141//11 123//11 107//11
f 125//11 142//11 27//11
f 143//11 125//11 108//11
f 144//11 108//11 126//11
f 109//11 145//11 126//11
f 112//11 111//11 146//11
f 95//11 128//11 127//11
f 109//11 96//11 127//11
f 146//11 128//11 112//11
f 114//11 146//11 113//11
f 114//11 129//11 128//11
f 111//11 113//11 146//11
f 130//11 102//11 131//11
f 116//11 147//11 131//11
f 147//11 116//11 132//11
f 148//11 132//11 27//11
f 139//11 87//11 133//11
f 117//11 134//11 133//11
f 149//11 134//11 118//11
f 118//11 130//11 150//11
f 129//11 119//11 145//11
f 119//11 135//11 151//11
f 120//11 152//11 135//11
f 153//11 120//11 136//11
f 136//11 121//11 153//11
f 153//11 121//11 122//11
f 137//11 91//11 138//11
f 122//11 137//11 153//11
f 138//11 123//11 154//11
f 124//11 139//11 132//11
f 141//11 106//11 140//11
f 124//11 132//11 140//11
f 155//11 123//11 141//11
f 142//11 156//11 27//11
f 125//11 157//11 142//11
f 125//11 143//11 157//11
f 144//11 143//11 108//11
f 126//11 145//11 144//11
f 109//11 127//11 145//11
f 127//11 128//11 129//11
f 146//11 114//11 128//11
f 131//11 150//11 130//11
f 147//11 150//11 131//11
f 139//11 147//11 132//11
f 148//11 140//11 132//11
f 158//11 148//11 27//11
f 139//11 133//11 134//11
f 139//11 134//11 149//11
f 118//11 150//11 149//11
f 119//11 159//11 145//11
f 129//11 145//11 127//11
f 151//11 135//11 152//11
f 159//11 119//11 151//11
f 152//11 120//11 160//11
f 160//11 120//11 153//11
f 161//11 137//11 138//11
f 160//11 153//11 137//11
f 154//11 123//11 155//11
f 138//11 154//11 161//11
f 148//11 141//11 140//11
f 155//11 141//11 158//11
f 156//11 158//11 27//11
f 162//11 156//11 142//11
f 162//11 142//11 157//11
f 143//11 163//11 157//11
f 144//11 159//11 143//11
f 145//11 159//11 144//11
f 147//11 149//11 150//11
f 147//11 139//11 149//11
f 141//11 148//11 158//11
f 152//11 164//11 151//11
f 159//11 151//11 164//11
f 152//11 160//11 164//11
f 160//11 137//11 161//11
f 165//11 154//11 155//11
f 166//11 161//11 154//11
f 155//11 158//11 165//11
f 156//11 165//11 158//11
f 162//11 160//11 156//11
f 157//11 163//11 162//11
f 143//11 167//11 163//11
f 143//11 159//11 167//11
f 159//11 164//11 167//11
f 164//11 160//11 167//11
f 166//11 160//11 161//11
f 166//11 154//11 165//11
f 156//11 160//11 165//11
f 168//11 160//11 162//11
f 168//11 162//11 163//11
f 168//11 163//11 167//11
f 167//11 160//11 168//11
f 165//11 160//11 166//11
g mesh1-geometry-1
usemtl Material.90b00bf69165eda831fe702671104217
f 7//6 12//6 18//6
f 15//12 29//12 9//12
f 17//12 9//12 29//12
f 169//6 18//6 12//6
f 170//12 15//12 13//12
f 29//12 15//12 171//12
f 31//6 18//6 169//6
f 20//6 22//6 172//6
f 173//12 15//12 170//12
f 170//12 13//12 174//12
f 26//12 175//12 13//12
f 171//12 15//12 173//12
f 29//12 171//12 176//12
f 177//6 31//6 169//6
f 36//6 172//6 22//6
f 173//12 170//12 178//12
f 174//12 13//12 179//12
f 26//12 180//12 175//12
f 181//12 13//12 175//12
f 182//12 171//12 173//12
f 176//12 171//12 183//12
f 184//12 29//12 176//12
f 29//7 185//7 39//7
f 186//6 31//6 177//6
f 59//6 172//6 36//6
f 178//12 170//12 187//12
f 179//12 13//12 188//12
f 174//12 179//12 189//12
f 190//12 191//12 170//12
f 192//7 26//7 45//7
f 26//12 193//12 180//12
f 194//12 175//12 180//12
f 195//12 13//12 181//12
f 171//12 182//12 196//12
f 183//12 171//12 197//12
f 198//12 176//12 183//12
f 29//12 184//12 26//12
f 185//7 29//7 192//7
f 39//7 185//7 199//7
f 39//7 199//7 45//7
f 172//6 31//6 186//6
f 31//6 172//6 59//6
f 187//12 170//12 200//12
f 188//12 13//12 201//12
f 189//12 179//12 202//12
f 189//12 203//12 190//12
f 204//12 191//12 190//12
f 205//12 170//12 191//12
f 26//7 192//7 29//7
f 192//7 45//7 206//7
f 26//12 207//12 193//12
f 208//12 180//12 193//12
f 209//12 175//12 194//12
f 201//12 13//12 195//12
f 210//12 211//12 175//12
f 196//12 182//12 187//12
f 212//12 197//12 171//12
f 213//12 183//12 197//12
f 176//12 198//12 214//12
f 26//12 184//12 215//12
f 206//7 45//7 199//7
f 200//12 170//12 216//12
f 217//12 187//12 200//12
f 188//12 201//12 218//12
f 219//12 220//12 179//12
f 202//12 179//12 221//12
f 203//12 189//12 202//12
f 204//12 190//12 203//12
f 191//12 204//12 222//12
f 216//12 170//12 205//12
f 223//12 205//12 191//12
f 26//12 224//12 207//12
f 208//12 225//12 180//12
f 210//12 175//12 209//12
f 194//12 226//12 209//12
f 201//12 195//12 227//12
f 211//12 228//12 195//12
f 228//12 211//12 210//12
f 196//12 187//12 217//12
f 197//12 212//12 229//12
f 183//12 213//12 230//12
f 214//12 198//12 231//12
f 26//12 215//12 232//12
f 214//12 231//12 215//12
f 218//12 201//12 233//12
f 234//12 219//12 218//12
f 220//12 219//12 234//12
f 221//12 179//12 220//12
f 222//12 204//12 221//12
f 235//12 216//12 205//12
f 205//12 223//12 236//12
f 26//12 237//12 224//12
f 207//12 224//12 238//12
f 239//12 225//12 208//12
f 240//12 226//12 194//12
f 241//12 209//12 226//12
f 225//12 239//12 240//12
f 227//12 195//12 242//12
f 242//12 195//12 228//12
f 196//12 217//12 243//12
f 229//12 212//12 243//12
f 230//12 213//12 244//12
f 230//12 217//12 231//12
f 232//12 215//12 231//12
f 26//12 232//12 245//12
f 216//12 246//12 247//12
f 247//12 248//12 217//12
f 233//12 201//12 249//12
f 250//12 218//12 233//12
f 234//12 218//12 250//12
f 221//12 220//12 251//12
f 222//12 221//12 252//12
f 253//12 216//12 235//12
f 236//12 223//12 252//12
f 26//12 254//12 237//12
f 255//12 238//12 224//12
f 207//12 238//12 239//12
f 241//12 256//12 209//12
f 257//12 226//12 240//12
f 238//12 240//12 239//12
f 258//12 259//12 201//12
f 256//12 242//12 228//12
f 243//12 217//12 229//12
f 244//12 217//12 230//12
f 229//12 217//12 244//12
f 231//12 217//12 260//12
f 232//12 231//12 260//12
f 26//12 245//12 261//12
f 246//12 216//12 262//12
f 263//12 247//12 246//12
f 263//12 248//12 247//12
f 260//12 217//12 248//12
f 249//12 201//12 259//12
f 234//12 250//12 264//12
f 265//12 251//12 220//12
f 266//12 221//12 251//12
f 252//12 221//12 267//12
f 268//12 216//12 253//12
f 253//12 235//12 269//12
f 236//12 252//12 270//12
f 26//12 271//12 254//12
f 237//12 254//12 272//12
f 255//12 273//12 238//12
f 274//12 256//12 241//12
f 257//12 275//12 226//12
f 257//12 240//12 238//12
f 242//12 274//12 258//12
f 275//12 259//12 258//12
f 274//12 242//12 256//12
f 276//12 277//12 245//12
f 261//12 245//12 277//12
f 26//12 261//12 278//12
f 262//12 216//12 268//12
f 248//12 263//12 279//12
f 280//12 260//12 248//12
f 273//12 249//12 259//12
f 281//12 282//12 249//12
f 282//12 283//12 250//12
f 264//12 250//12 284//12
f 284//12 265//12 264//12
f 251//12 265//12 284//12
f 267//12 221//12 266//12
f 285//12 252//12 267//12
f 261//12 268//12 253//12
f 269//12 235//12 270//12
f 270//12 252//12 286//12
f 26//12 287//12 271//12
f 288//12 272//12 254//12
f 237//12 272//12 289//12
f 289//12 273//12 255//12
f 259//12 275//12 257//12
f 275//12 258//12 274//12
f 260//12 280//12 276//12
f 276//12 280//12 277//12
f 261//12 277//12 268//12
f 26//12 278//12 290//12
f 279//12 263//12 268//12
f 273//12 291//12 249//12
f 283//12 282//12 281//12
f 281//12 249//12 291//12
f 292//12 250//12 283//12
f 284//12 250//12 292//12
f 267//12 266//12 293//12
f 286//12 252//12 285//12
f 269//12 270//12 278//12
f 290//12 270//12 286//12
f 26//12 290//12 287//12
f 271//12 287//12 294//12
f 288//12 295//12 272//12
f 272//12 291//12 289//12
f 289//12 291//12 273//12
f 279//12 268//12 277//12
f 290//12 278//12 270//12
f 296//12 292//12 283//12
f 293//12 266//12 292//12
f 286//12 285//12 297//12
f 287//12 292//12 294//12
f 294//12 295//12 288//12
f 298//12 291//12 272//12
f 298//12 296//12 291//12
f 298//12 292//12 296//12
f 293//12 292//12 299//12
f 297//12 285//12 299//12
f 297//12 292//12 287//12
f 294//12 292//12 300//12
f 295//12 294//12 300//12
f 300//12 292//12 298//12
f 299//12 292//12 297//12
g mesh1-geometry-2
usemtl Material.b2cdaf4394d1a4f850458878b81c7fa1
f 12//6 20//6 169//6
f 172//6 169//6 20//6
f 177//6 169//6 172//6
f 206//7 185//7 192//7
f 185//7 206//7 199//7
g mesh1-geometry-3
usemtl Material.dc7a3ca9ca091ddbf48733c3a604f557
f 174//12 190//12 170//12
f 178//12 182//12 173//12
f 190//12 174//12 189//12
f 211//12 181//12 175//12
f 214//12 184//12 176//12
f 182//12 178//12 187//12
f 188//12 219//12 179//12
f 225//12 194//12 180//12
f 181//12 211//12 195//12
f 196//12 212//12 171//12
f 230//12 198//12 183//12
f 184//12 214//12 215//12
f 219//12 188//12 218//12
f 207//12 208//12 193//12
f 194//12 225//12 240//12
f 212//12 196//12 243//12
f 229//12 213//12 197//12
f 198//12 230//12 231//12
f 247//12 200//12 216//12
f 200//12 247//12 217//12
f 204//12 202//12 221//12
f 202//12 204//12 203//12
f 222//12 223//12 191//12
f 208//12 207//12 239//12
f 256//12 210//12 209//12
f 227//12 258//12 201//12
f 210//12 256//12 228//12
f 213//12 229//12 244//12
f 234//12 265//12 220//12
f 223//12 222//12 252//12
f 236//12 235//12 205//12
f 237//12 255//12 224//12
f 275//12 241//12 226//12
f 258//12 227//12 242//12
f 232//12 276//12 245//12
f 282//12 233//12 249//12
f 233//12 282//12 250//12
f 265//12 234//12 264//12
f 235//12 236//12 270//12
f 255//12 237//12 289//12
f 241//12 275//12 274//12
f 276//12 232//12 260//12
f 262//12 263//12 246//12
f 284//12 266//12 251//12
f 269//12 261//12 253//12
f 271//12 288//12 254//12
f 273//12 257//12 238//12
f 261//12 269//12 278//12
f 263//12 262//12 268//12
f 279//12 280//12 248//12
f 257//12 273//12 259//12
f 266//12 284//12 292//12
f 293//12 285//12 267//12
f 288//12 271//12 294//12
f 280//12 279//12 277//12
f 281//12 296//12 283//12
f 296//12 281//12 291//12
f 285//12 293//12 299//12
f 297//12 290//12 286//12
f 290//12 297//12 287//12
f 295//12 298//12 272//12
f 298//12 295//12 300//12
g mesh2-geometry-0
usemtl Material.848e5e55d2d72809c19791c39104d685
f 301/1/13 302/2/13 303/3/13
f 304/1/14 305/3/14 306/2/14
f 307/4/13 303/3/13 302/2/13
f 308/4/14 306/2/14 305/3/14
