# created by Ethan Wu and Zhan isaac Ling
mtllib model.mtl
v -0.095523 -0.246262 -0.161991
v 0.095509 -0.246265 0.162494
v -0.095492 -0.246266 0.162486
vn 0.000000 -1.000000 0.000000
vt -97.2715 8.99551
vt -67.1603 0.134401
vt -67.1603 8.99551
v 0.095523 -0.246239 -0.162031
vt -97.2715 0.134401
v 0.095501 -0.220743 0.130184
v -0.095514 -0.246189 0.162517
v 0.095470 -0.246191 0.162510
vn 0.000000 0.785813 0.618464
vt -0.268803 28.2966
vt -17.991 26.3877
vt -0.268803 26.3877
v -0.095522 -0.220745 0.130177
vn -1.000000 0.000000 0.000000
vt -70.1603 1.18056
vt -97.2715 0.0
vt -67.1603 0.0
v -0.095482 -0.246194 -0.162021
v 0.095504 -0.220743 -0.138966
vn 0.000000 0.671370 -0.741123
vt 17.991 -32.6526
vt 0.268803 -31.0596
vt 0.268803 -32.6526
vn 1.000000 0.000000 0.000000
vt 95.1326 1.18056
vt 67.1603 0.0
vt 97.2715 0.0
vt -17.991 28.2966
vt 70.1603 1.18056
v -0.095514 -0.220742 -0.138963
vt -95.1326 1.18056
vt 17.991 -31.0596
v 0.019030 -0.220744 0.043710
vn 0.000000 1.000000 0.000000
vt 70.1603 0.134401
vt 78.183 3.68266
vt 70.1603 8.99551
vt 95.1326 0.134401
v -0.045371 -0.220744 0.043714
vt 78.183 6.66877
vt 95.1326 8.99551
v -0.045380 -0.220751 -0.020659
vt 84.1552 6.66877
v 0.019028 -0.220747 -0.020670
vt 84.1552 3.68266
v 0.019051 -0.171095 -0.020662
vt 84.1552 3.48611
vt 78.183 1.18056
vt 84.1552 1.18056
v 0.018993 -0.220816 -0.020635
v 0.018992 -0.220820 0.043710
v 0.018970 -0.171081 -0.020642
vn -1.000000 0.000000 0.000000
v -0.045382 -0.121364 0.043712
vt -78.183 5.79167
vt -84.1552 1.18056
vt -78.183 1.18056
v -0.045333 -0.220820 0.043707
v -0.045324 -0.220813 -0.020646
v -0.045322 -0.121424 0.043709
vn 1.000000 0.000000 0.000000
vn 0.000000 0.000000 -1.000000
vt 13.3375 1.18056
vt 7.36532 3.48611
vt 7.36532 1.18056
vn 0.000000 0.000000 1.000000
v 0.019052 -0.171077 0.043710
vt 78.183 3.48611
v 0.018970 -0.171099 0.043711
v -0.045390 -0.121375 -0.020655
vt -84.1552 5.79167
v -0.045314 -0.121413 -0.020649
v 0.018969 -0.121389 0.424512
vn -0.986015 0.000000 0.166659
vt -79.3124 5.79167
vt -79.3124 1.18056
vt -43.4774 5.79167
v 0.019052 -0.121398 0.424495
vn 0.986015 0.000000 -0.166659
v 0.019050 -0.124702 -0.397732
vn 0.608255 -0.787800 -0.096942
vt 85.2056 0.756273
vt 118.819 7.99463
vt 84.2656 4.49947
v 0.019053 -0.124687 -0.231693
vt 103.738 5.63889
v 0.018968 -0.124687 -0.231693
v 0.019050 -0.121411 -0.424490
vn 0.000000 -1.000000 0.000000
vt 121.627 3.68266
v 0.018972 -0.121378 -0.424491
vn -0.987536 0.000000 -0.157391
vt -118.952 5.79167
vt -81.0071 1.18056
vt -81.0071 5.79167
vn 0.987536 0.000000 0.157391
v 0.019049 -0.121413 0.043710
vt 42.8492 3.68266
vt 121.271 8.24268
vn 1.000000 0.000000 0.000000
vt 103.738 5.63889
vt 84.1552 3.48611
vt 119.144 5.63889
v 0.018971 -0.124672 -0.397728
vn -1.000000 0.000000 0.000000
v 0.019053 -0.124687 0.043710
vt 78.183 5.63889
v 0.018968 -0.124687 0.043710
vn 1.000000 0.000000 0.000000
vt 42.8492 5.79167
vt 78.183 5.79167
v 0.018973 -0.121375 0.043710
vn -1.000000 0.000000 0.000000
v 0.018972 0.246250 -0.424504
vn -1.000000 0.000000 0.000000
vt 121.627 22.8479
vt 121.627 5.79167
v 0.018997 0.246266 0.424533
vt 42.8492 22.8479
v 0.037234 -0.171081 0.424485
vn -0.937683 -0.344570 0.044967
vt -43.1528 6.35085
vt -78.4461 3.8949
vt -43.0716 3.8949
v 0.037310 -0.171107 0.043710
v 0.037309 -0.171094 0.424521
vt -78.183 2.83544
vt -42.8492 2.83544
vt -78.183 3.68266
v 0.037306 0.246255 -0.424508
v 0.019011 -0.171088 -0.424533
vt 5.67088 22.8479
vt 7.36532 3.48611
vt 7.36532 22.8479
v 0.019049 0.246225 -0.424478
v 0.019011 -0.171088 -0.424448
v 0.037237 0.246220 -0.424473
v 0.037314 -0.147620 -0.402032
vn 1.000000 0.000000 0.000000
vt 119.543 4.57494
vt 42.8492 3.48611
v 0.037229 -0.147620 -0.402032
v 0.037234 -0.171069 0.043710
vn -1.000000 0.000000 0.000000
v 0.037312 0.246248 0.424512
v 0.037314 0.232618 0.407100
vt 44.4641 22.2161
v 0.037229 0.232618 0.407100
v 0.037232 0.246227 0.424493
v 0.037310 -0.171088 -0.424508
vt 5.67088 3.48611
v 0.037234 -0.171088 -0.424472
v 0.037314 -0.147620 0.407142
vt 44.4601 4.57494
v 0.037229 -0.147620 0.407142
vt 121.627 3.48611
v 0.037314 0.052354 0.407142
vt 44.4601 13.8527
v 0.037229 0.052354 0.407142
v 0.037314 0.232618 -0.402032
vt 119.543 22.2161
v 0.037229 0.232618 -0.402032
v 0.037314 0.052354 0.407100
vt 44.4641 13.8527
v 0.037229 0.052354 0.407100
vn 0.000000 1.000000 0.000000
v 0.095457 -0.246217 -0.161982
v -0.095483 -0.220819 0.130165
v 0.095475 -0.220820 -0.138944
vn 0.000000 -0.671370 0.741123
v -0.095492 -0.220822 -0.138947
vn -0.608255 0.787800 0.096942
vn 0.937683 0.344570 -0.044967
vn 0.000000 0.000000 1.000000
vn 0.000000 0.977819 0.209454
vn 0.000000 -0.977819 -0.209454
v 0.095479 -0.220821 0.130157
vn 0.000000 -0.785813 -0.618464
vn 1.000000 0.000000 0.000000
vn -1.000000 0.000000 0.000000
vn 1.000000 0.000000 0.000000
v 0.018968 -0.124687 -0.424491
v 0.019053 -0.124687 -0.424491
vn 1.000000 0.000000 0.000000
vn -1.000000 0.000000 0.000000
v 0.019025 0.246209 0.424475
vn 0.000000 0.000000 -1.000000
g mesh1-geometry-0
usemtl Material.e6a6298ff53efe4150e122edc010a6a6
f 1/1/1 2/2/1 3/3/1
f 2/2/1 1/1/1 4/4/1
f 5/5/2 6/6/2 7/7/2
f 8/8/3 1/9/3 6/10/3
f 9/11/4 10/12/4 4/13/4
f 10/14/5 2/15/5 4/16/5
f 6/6/2 5/5/2 8/17/2
f 2/15/5 10/14/5 5/18/5
f 1/9/3 8/8/3 11/19/3
f 10/12/4 9/11/4 11/20/4
f 5/21/6 12/22/6 8/23/6
f 12/22/6 5/21/6 10/24/6
f 8/23/6 13/25/6 11/26/6
f 11/26/6 14/27/6 10/24/6
f 13/25/6 8/23/6 12/22/6
f 12/22/6 10/24/6 15/28/6
f 11/26/6 13/25/6 14/27/6
f 15/28/6 10/24/6 14/27/6
f 16/29/5 12/30/5 15/31/5
f 17/31/7 18/30/7 19/29/7
f 20/32/3 14/33/3 13/34/3
f 21/34/8 22/33/8 23/32/8
f 14/35/9 16/36/9 15/37/9
f 17/37/10 19/36/10 22/35/10
f 12/30/5 16/29/5 24/38/5
f 25/38/7 19/29/7 18/30/7
f 14/33/3 20/32/3 26/39/3
f 27/39/8 23/32/8 22/33/8
f 20/40/11 13/41/11 28/42/11
f 29/42/12 21/41/12 23/40/12
f 22/43/13 30/44/13 16/45/13
f 31/46/5 24/38/5 16/29/5
f 19/29/7 25/38/7 32/46/7
f 27/27/14 33/47/14 23/25/14
f 34/48/15 14/49/15 26/50/15
f 27/50/16 22/49/16 33/48/16
f 29/51/14 23/25/14 35/22/14
f 30/44/13 22/43/13 33/52/13
f 31/53/17 16/54/17 30/55/17
f 36/55/18 19/54/18 32/53/18
f 24/38/5 31/46/5 37/56/5
f 38/56/7 32/46/7 25/38/7
f 33/47/14 35/22/14 23/25/14
f 29/57/19 37/56/19 35/58/19
f 39/58/20 38/56/20 28/57/20
f 28/57/21 40/59/21 39/58/21
f 37/56/19 29/57/19 24/38/19
f 25/38/20 28/57/20 38/56/20
f 34/60/21 39/58/21 40/59/21
f 41/61/21 40/59/21 28/57/21
f 28/62/22 25/63/22 42/64/22
f 43/65/1 44/66/1 25/67/1
f 45/68/9 46/69/9 40/70/9
f 47/70/10 48/69/10 49/68/10
f 43/38/23 50/71/23 44/72/23
f 42/72/24 51/71/24 52/38/24
f 53/61/23 54/73/23 45/59/23
f 49/59/24 55/73/24 56/61/24
f 46/69/9 45/68/9 57/74/9
f 58/74/10 49/68/10 48/69/10
f 44/72/23 59/75/23 53/61/23
f 56/61/24 60/75/24 42/72/24
f 57/76/23 50/71/23 43/38/23
f 52/38/24 51/71/24 58/76/24
f 59/75/23 44/72/23 50/71/23
f 51/71/24 42/72/24 60/75/24
f 53/61/23 61/77/23 54/73/23
f 55/73/24 62/77/24 56/61/24
f 63/78/23 45/59/23 54/73/23
f 55/73/24 49/59/24 64/78/24
f 50/71/23 57/76/23 45/59/23
f 49/59/24 58/76/24 51/71/24
f 53/61/23 59/75/23 61/77/23
f 62/77/24 60/75/24 56/61/24
f 51/71/7 60/75/7 64/78/7
f 54/73/23 61/77/23 65/79/23
f 66/79/24 62/77/24 55/73/24
f 50/71/23 45/59/23 63/78/23
f 64/78/24 49/59/24 51/71/24
f 55/73/7 64/78/7 66/79/7
f 66/79/7 60/75/7 62/77/7
f 66/79/7 64/78/7 60/75/7
g mesh1-geometry-1
usemtl Material.90b00bf69165eda831fe702671104217
f 6//25 7//25 9//25
f 67//25 9//25 7//25
f 3//8 9//8 68//8
f 67//26 69//26 1//26
f 70//8 68//8 9//8
f 70//26 1//26 69//26
f 19//27 36//27 14//27
f 20//6 34//6 26//6
f 39//6 20//6 28//6
f 34//27 14//27 36//27
f 20//6 39//6 34//6
f 44//28 24//28 29//28
f 44//29 41//29 28//29
f 41//29 44//29 53//29
g mesh1-geometry-2
usemtl Material.dc7a3ca9ca091ddbf48733c3a604f557
f 13//30 6//30 7//30
f 2//31 3//31 21//31
f 2//32 3//32 71//32
f 67//7 7//7 69//7
f 68//32 71//32 3//32
f 71//7 69//7 7//7
f 68//14 18//14 71//14
f 69//14 71//14 18//14
f 70//14 21//14 68//14
f 69//14 22//14 70//14
f 18//14 68//14 21//14
f 17//14 69//14 18//14
f 22//14 21//14 70//14
f 22//14 69//14 17//14
f 35//33 47//33 29//33
f 34//34 36//34 32//34
f 31//35 30//35 33//35
f 34//3 72//3 36//3
f 30//8 73//8 33//8
f 33//36 37//36 31//36
f 32//37 38//37 34//37
f 47//33 35//33 33//33
f 37//36 33//36 35//36
f 39//37 34//37 38//37
f 29//33 47//33 74//33
f 41//6 45//6 40//6
f 47//14 49//14 74//14
f 29//38 74//38 42//38
f 24//25 42//25 52//25
f 45//6 41//6 53//6
f 56//14 74//14 49//14
f 56//38 42//38 74//38
g mesh1-geometry-3
usemtl Material.b2cdaf4394d1a4f850458878b81c7fa1
f 63//5 59//5 50//5
f 65//5 63//5 54//5
f 61//5 59//5 65//5
f 59//5 63//5 65//5
