# created by Ethan Wu and Zhan isaac Ling
mtllib model.mtl
v 0.000005 -0.328585 0.009814
v -0.039886 -0.328585 -0.101779
v -0.009646 -0.328585 -0.108300
vn 0.000000 -1.000000 0.000000
v -0.067408 -0.328585 -0.087654
v -0.009646 -0.328514 -0.108300
v -0.039886 -0.328514 -0.101779
v -0.000005 -0.328515 0.009805
vn 0.000000 1.000000 0.000000
v -0.067408 -0.328514 -0.087654
v 0.021252 -0.328585 -0.106772
v 0.021252 -0.328514 -0.106772
v -0.000036 -0.159779 0.009812
vn -0.996682 0.000000 0.081392
v 0.000035 -0.159779 0.009806
vn 0.996682 0.000000 -0.081392
v -0.090337 -0.328585 -0.066886
v -0.090337 -0.328514 -0.066886
v 0.050701 -0.328585 -0.097299
v 0.050701 -0.328514 -0.097299
v 0.009642 -0.328514 0.127919
vn -0.996682 0.000000 0.081392
v 0.009648 -0.328585 0.127919
vn 0.996682 0.000000 -0.081392
v -0.118109 -0.328516 0.019466
vn 0.081392 0.000000 0.996682
v -0.118111 -0.328584 0.019443
vn -0.081392 0.000000 -0.996682
v 0.118111 -0.328518 0.000180
vn 0.081392 0.000000 0.996682
v 0.118108 -0.328582 0.000148
vn -0.081392 0.000000 -0.996682
v -0.107109 -0.328585 -0.040892
v -0.107109 -0.328514 -0.040892
v 0.076695 -0.328585 -0.080527
v 0.076695 -0.328514 -0.080527
v 0.116581 -0.328585 0.031062
v -0.116582 -0.328585 -0.011443
v -0.116582 -0.328514 -0.011443
v 0.111588 -0.328585 -0.030076
v 0.111588 -0.328514 -0.030076
v 0.097463 -0.328585 -0.057598
v 0.097463 -0.328514 -0.057598
v -0.111589 -0.328585 0.049695
v -0.111589 -0.328514 0.049695
v 0.107108 -0.328585 0.060511
v -0.097464 -0.328585 0.077217
v -0.097464 -0.328514 0.077217
v 0.090336 -0.328585 0.086505
v -0.076696 -0.328585 0.100146
v -0.076696 -0.328514 0.100146
v 0.067407 -0.328585 0.107273
v -0.050702 -0.328585 0.116918
v -0.050702 -0.328514 0.116918
v 0.039885 -0.328585 0.121398
v -0.021253 -0.328585 0.126391
v -0.021253 -0.328514 0.126391
v 0.116581 -0.328514 0.031062
v 0.107108 -0.328514 0.060511
v 0.090336 -0.328514 0.086505
v 0.067407 -0.328514 0.107273
v 0.039885 -0.328514 0.121398
v 0.000029 -0.159765 -0.357849
v 0.000035 -0.094748 -0.307931
v 0.000026 -0.159762 0.357846
vn 1.000000 0.000000 0.000000
v 0.000031 0.328553 -0.357851
v 0.000035 -0.094748 0.292989
v 0.071309 -0.159759 -0.357843
vn 0.000000 1.000000 0.000000
vn 0.000000 0.000000 1.000000
v 0.000035 0.050437 -0.307931
v 0.000034 0.328558 0.357856
v 0.071309 -0.159759 0.357843
v 0.071309 0.328544 -0.357843
v 0.000035 0.276642 -0.307931
v 0.000035 0.050437 0.292989
v 0.071309 0.328544 0.357843
vn 0.000000 0.000000 -1.000000
vn -1.000000 0.000000 0.000000
vn 0.000000 -1.000000 0.000000
v 0.000035 0.276642 0.292989
v 0.000035 0.195621 0.292989
v -0.000026 -0.159797 0.357881
v -0.000036 -0.094748 -0.307931
v -0.000030 -0.159794 -0.357878
vn -1.000000 0.000000 0.000000
v -0.000032 0.328577 -0.357874
v -0.000036 -0.094748 0.292989
v 0.071351 -0.159800 -0.357885
vn 0.000000 -1.000000 0.000000
vn 0.000000 0.000000 -1.000000
v -0.000036 0.050437 -0.307931
v -0.000035 0.328572 0.357870
v 0.071351 -0.159800 0.357885
v 0.071351 0.328585 -0.357885
v -0.000036 0.276642 -0.307931
v -0.000036 0.050437 0.292989
v 0.071351 0.328585 0.357885
vn 0.000000 0.000000 1.000000
vn 1.000000 0.000000 0.000000
vn 0.000000 1.000000 0.000000
v -0.000036 0.276642 0.292989
v -0.000036 0.195621 0.292989
vt 7.74567 5.69948
vt -6.90316 5.69948
vt 7.74567 9.23868
vt -6.90316 9.23868
vt 1.54913 1.84774
vt -1.38063 1.84774
vt 1.54913 2.95059
vt -1.38063 2.95059
vt -1.38063 2.55558
g mesh1-geometry-0
usemtl Material.57774a50243e5d429f3a4ea105ec3930
f 1//1 2//1 3//1
f 2//1 1//1 4//1
f 5//2 6//2 7//2
f 8//2 7//2 6//2
f 9//1 1//1 3//1
f 5//2 7//2 10//2
f 11//3 5//3 7//3
f 1//4 5//4 12//4
f 4//1 1//1 13//1
f 14//2 7//2 8//2
f 1//1 9//1 15//1
f 16//2 10//2 7//2
f 11//5 7//5 17//5
f 18//6 1//6 12//6
f 12//7 19//7 1//7
f 7//8 20//8 12//8
f 21//9 12//9 1//9
f 7//10 12//10 22//10
f 13//1 1//1 23//1
f 24//2 7//2 14//2
f 1//1 15//1 25//1
f 26//2 16//2 7//2
f 18//1 20//1 1//1
f 7//2 19//2 17//2
f 1//1 27//1 18//1
f 28//1 1//1 20//1
f 19//2 7//2 29//2
f 1//1 30//1 22//1
f 21//2 31//2 7//2
f 27//1 1//1 22//1
f 23//1 1//1 28//1
f 29//2 7//2 24//2
f 1//1 25//1 32//1
f 33//2 26//2 7//2
f 20//1 18//1 34//1
f 35//2 17//2 19//2
f 18//1 27//1 36//1
f 1//1 32//1 30//1
f 31//2 33//2 7//2
f 34//1 18//1 37//1
f 38//2 17//2 35//2
f 18//1 36//1 39//1
f 37//1 18//1 40//1
f 41//2 17//2 38//2
f 18//1 39//1 42//1
f 40//1 18//1 43//1
f 44//2 17//2 41//2
f 18//1 42//1 45//1
f 43//1 18//1 46//1
f 47//2 17//2 44//2
g mesh1-geometry-1
usemtl Material.90b00bf69165eda831fe702671104217
f 17//2 48//2 7//2
f 21//2 7//2 48//2
f 49//2 48//2 17//2
f 50//2 49//2 17//2
f 51//2 50//2 17//2
f 52//2 51//2 17//2
g mesh2-geometry-0
usemtl Material.90b00bf69165eda831fe702671104217
f 53//11 54//11 55//11
f 54//11 53//11 56//11
f 57//11 55//11 54//11
f 55//12 58//12 53//12
f 58//13 56//13 53//13
f 54//11 56//11 59//11
f 55//11 57//11 60//11
f 59//11 57//11 54//11
f 58//12 55//12 61//12
f 56//13 58//13 62//13
f 59//11 56//11 63//11
f 60//11 57//11 64//11
f 65//14 55//14 60//14
f 57//11 59//11 64//11
f 55//14 65//14 61//14
f 65//15 58//15 61//15
f 58//15 65//15 62//15
f 65//16 56//16 62//16
f 63//11 56//11 66//11
f 63//11 64//11 59//11
f 60//11 64//11 67//11
f 56//16 65//16 60//16
f 60//11 66//11 56//11
f 67//11 63//11 66//11
f 64//11 63//11 67//11
f 60//11 67//11 66//11
g mesh2-geometry-1
usemtl Material.57774a50243e5d429f3a4ea105ec3930
f 68//17 69//17 70//17
f 71//17 70//17 69//17
f 69//17 68//17 72//17
f 70//18 73//18 68//18
f 70//19 71//19 73//19
f 74//17 71//17 69//17
f 75//17 72//17 68//17
f 76//18 68//18 73//18
f 77//19 73//19 71//19
f 78//17 71//17 74//17
f 79//17 72//17 75//17
f 75//20 68//20 80//20
f 76//20 80//20 68//20
f 76//21 73//21 80//21
f 77//21 80//21 73//21
f 77//22 71//22 80//22
f 81//17 71//17 78//17
f 82//17 79//17 75//17
f 75//22 80//22 71//22
f 71//17 81//17 75//17
f 81//17 82//17 75//17
g mesh2-geometry-2
usemtl Material.ec54333377af01998850abef039c82fd
f 69/1/17 72/2/17 74/3/17
f 79/4/17 74/3/17 72/2/17
g mesh2-geometry-3
usemtl Material.fd405729217466f29eac93fc2fe0bd88
f 74/5/17 79/6/17 78/7/17
f 81/8/17 78/7/17 82/9/17
f 82/9/17 78/7/17 79/6/17
