# created by Ethan Wu and Zhan isaac Ling
mtllib model.mtl
v -0.148060 -0.261733 -0.244817
v 0.148063 -0.261733 0.164621
v -0.148063 -0.261730 0.164618
vn 0.000000 -1.000000 0.000000
vt -2.35723 2.30256
vt -0.626328 1.05083
vt -0.626328 2.30256
v 0.148067 -0.261730 -0.244814
vt -2.35723 1.05083
v -0.148063 -0.153492 0.164615
vn 0.000000 0.000000 1.000000
vt -1.05083 0.0
vt -2.30256 0.457465
vt -2.30256 0.0
v -0.148066 -0.247192 0.143219
vn -1.000000 0.000000 0.000000
vt -0.626328 0.0
vt -0.71667 0.061335
vt -2.35723 0.0
v 0.148061 -0.153485 -0.244811
vn 0.000000 0.000000 -1.000000
vt 2.30256 0.0
vt 1.05083 0.457465
vt 1.05083 0.0
v 0.148067 -0.247190 -0.229809
vn 1.000000 0.000000 0.000000
vt 2.35723 0.0
vt 2.29393 0.061335
vt 0.626328 0.0
v 0.148066 -0.153490 0.164612
vt -1.05083 0.457465
vt -0.626328 0.457465
v -0.148069 -0.247214 -0.229833
vt -2.29393 0.061335
v -0.148062 -0.153488 -0.244806
vt 2.30256 0.457465
vt 2.35723 0.457465
v 0.148070 -0.247194 0.143221
vt 0.71667 0.061335
vt 0.626328 0.457465
v 0.046561 -0.153479 0.053927
vn 0.000000 1.000000 0.000000
vt 0.626328 1.05083
vt 1.09432 1.47991
vt 0.626328 2.30256
v -0.148068 -0.207155 0.143233
vt -0.71667 0.230606
vt -2.35723 0.457465
v -0.147993 -0.247198 -0.229818
vt 0.71667 2.30256
vt 2.29393 1.05083
vt 2.29393 2.30256
v -0.147996 -0.247220 0.143247
v -0.147994 -0.207184 0.143233
vn 1.000000 0.000000 0.000000
v -0.042171 -0.153483 -0.129455
vt 2.35723 2.30256
vt 1.86949 1.85491
vt 2.35723 1.05083
v 0.148067 -0.167149 -0.229809
vt 2.29393 0.399877
vt 0.71667 1.05083
v 0.148063 -0.167152 0.143214
vt 0.71667 0.399877
v -0.042164 -0.153476 0.053923
vt 1.09432 1.85491
v -0.148069 -0.167123 0.143243
vt -0.71667 0.399877
v -0.148070 -0.207161 -0.229825
vt -2.29393 0.230606
v -0.148063 -0.167149 -0.229809
vt -1.05083 0.061335
vt -2.30256 0.399877
vt -2.30256 0.061335
v -0.147992 -0.207177 -0.229825
v 0.046561 -0.153479 -0.129452
vt 1.86949 1.47991
vt -1.05083 0.399877
vt 2.30256 0.061335
vt 1.05083 0.399877
vt 1.05083 0.061335
vt -2.29393 0.399877
v -0.147994 -0.167142 0.143224
vt 2.30256 0.399877
v 0.104365 -0.207129 -0.229825
vt 2.29393 1.23546
v 0.104365 -0.207209 -0.229825
vn 0.000000 -1.000000 0.000000
vt -0.71667 1.05083
vt -2.29393 2.30256
vt -2.29393 1.05083
vt -0.71667 2.30256
v -0.147998 -0.167117 -0.229842
v 0.104365 -0.207129 0.143233
vt 0.71667 1.23546
v 0.104365 -0.207209 0.143233
v -0.147998 -0.261697 0.164585
v 0.148005 -0.261694 0.164582
v -0.148002 -0.261694 -0.244779
vn 0.000000 1.000000 0.000000
v 0.148002 -0.261697 -0.244781
v -0.147999 -0.153531 0.164589
vn 0.000000 0.000000 -1.000000
v 0.148008 -0.153538 -0.244785
vn 0.000000 0.000000 1.000000
v 0.148002 -0.247222 -0.229842
vn -1.000000 0.000000 0.000000
v 0.148002 -0.153533 0.164591
v -0.148000 -0.153535 -0.244790
v 0.147998 -0.247218 0.143245
v 0.046529 -0.153544 0.053895
v -0.042132 -0.153541 -0.129417
v 0.148002 -0.167117 -0.229842
v 0.148005 -0.167113 0.143253
v -0.042139 -0.153548 0.053899
v 0.046529 -0.153544 -0.129419
v -0.042129 -0.143269 0.053888
v 0.046522 -0.143269 -0.129413
v 0.046522 -0.143269 0.053888
v -0.042129 -0.143269 -0.129413
v -0.042175 -0.143223 0.053934
v 0.046568 -0.143223 -0.129459
v 0.046568 -0.143223 0.053934
v -0.042175 -0.143223 -0.129459
v 0.042676 -0.061305 -0.031309
v 0.079899 -0.061288 0.399464
v 0.041492 -0.061301 0.399460
vn 0.000000 -1.000000 0.000000
v 0.079892 -0.061302 -0.031309
v 0.041449 0.261666 0.399456
vn 0.000000 0.000000 1.000000
v 0.041460 -0.061236 0.399427
vn -0.999996 0.000000 -0.002827
v 0.079910 -0.051187 -0.388909
vn 1.000000 0.000000 0.000000
v 0.079906 0.261705 0.399456
v 0.043708 -0.061295 -0.399452
v 0.043734 -0.061309 -0.044216
v 0.043734 -0.061309 -0.031309
v 0.079893 -0.061292 -0.399464
v 0.079910 -0.051187 0.389648
v 0.079901 0.261716 -0.399448
v 0.041502 0.261720 0.399430
vn 0.000000 1.000000 0.000000
v 0.043711 0.261716 -0.399464
v 0.079910 0.252269 0.389648
v 0.043734 0.261733 -0.031309
v 0.042694 0.261733 -0.031309
vn 0.000000 0.000000 -1.000000
v 0.079910 0.252269 -0.388909
v 0.079841 -0.061249 0.399424
v 0.042711 -0.061233 -0.031309
vn 0.000000 1.000000 0.000000
v 0.079848 -0.061235 -0.031309
vn 0.999996 0.000000 0.002827
v 0.041476 -0.061309 -0.031309
v 0.041476 -0.061229 -0.031309
v 0.079830 -0.051187 -0.388909
vn -1.000000 0.000000 0.000000
v 0.079834 0.261681 0.399432
v 0.043761 -0.061242 -0.399426
v 0.043734 -0.061229 -0.031309
v 0.043734 -0.061229 -0.044216
v 0.079847 -0.061246 -0.399416
v 0.079830 -0.051187 0.389648
v 0.079838 0.261669 -0.399432
vn 0.000000 -1.000000 0.000000
v 0.043757 0.261670 -0.399416
v 0.079830 0.252269 -0.388909
v 0.079830 0.252269 0.389648
v 0.043734 0.261653 -0.031309
v 0.042694 0.261653 -0.031309
v 0.041476 0.261733 -0.031309
v 0.041476 0.261653 -0.031309
v 0.026111 0.156664 -0.013644
v 0.013187 0.156671 -0.013649
v 0.019648 0.156655 -0.012789
vn 0.000000 1.000000 0.000000
v 0.032128 0.156674 -0.016147
v 0.019648 -0.153524 -0.012789
vn -0.258819 0.000000 0.965926
vn 0.000000 0.000000 1.000000
v 0.026110 -0.153540 -0.013649
vn 0.258819 0.000000 0.965926
v 0.032130 -0.153540 -0.016143
vn 0.500000 0.000000 0.866025
v 0.007164 0.156664 -0.016139
v 0.013186 -0.153534 -0.013644
v 0.037303 -0.153536 -0.020108
vn 0.707107 0.000000 0.707107
v 0.001996 0.156671 -0.020110
vn -0.500000 0.000000 0.866025
v 0.037300 0.156671 -0.020110
v 0.007167 -0.153540 -0.016143
vn -0.707107 0.000000 0.707107
v 0.041268 0.156671 -0.025281
vn 0.866025 0.000000 0.500000
v 0.002001 -0.153545 -0.020115
v 0.041268 -0.153540 -0.025281
v -0.001971 -0.153540 -0.025281
vn -0.866025 0.000000 0.500000
v -0.001975 0.156664 -0.025278
v 0.043773 -0.061269 -0.031298
vn 0.965926 0.000000 0.258819
v -0.004461 0.156674 -0.031302
v 0.043762 -0.153540 -0.031301
v 0.043762 0.156671 -0.031301
v -0.004465 -0.153540 -0.031301
vn -0.965926 0.000000 0.258819
v 0.044618 0.156663 -0.037762
vn 1.000000 0.000000 0.000000
v -0.005315 -0.153540 -0.037762
vn -1.000000 0.000000 0.000000
v 0.044612 -0.153540 -0.037762
v -0.005315 0.156671 -0.037762
v 0.043773 -0.061269 -0.044227
vn 0.965926 0.000000 -0.258819
v 0.043752 0.156678 -0.044221
v -0.004465 -0.153540 -0.044223
vn -0.965926 0.000000 -0.258819
v 0.043762 -0.153540 -0.044223
v -0.004470 0.156664 -0.044225
v 0.041271 0.156666 -0.050246
vn 0.866025 0.000000 -0.500000
v -0.001971 0.156671 -0.050245
v -0.001971 -0.153540 -0.050245
vn -0.866025 0.000000 -0.500000
v 0.041268 -0.153540 -0.050245
v 0.037306 0.156660 -0.055420
vn 0.707107 0.000000 -0.707107
v 0.002004 0.156678 -0.055407
v 0.001994 -0.153536 -0.055417
vn -0.707107 0.000000 -0.707107
v 0.037296 -0.153545 -0.055410
v 0.032130 -0.153540 -0.059382
vn 0.500000 0.000000 -0.866025
v 0.032130 0.156671 -0.059382
v 0.007167 0.156671 -0.059382
vn -0.500000 0.000000 -0.866025
v 0.007167 -0.153540 -0.059382
v 0.026111 -0.153534 -0.061880
vn 0.258819 0.000000 -0.965926
v 0.026110 0.156671 -0.061876
v 0.013186 0.156664 -0.061880
vn -0.258819 0.000000 -0.965926
v 0.013187 -0.153540 -0.061876
v 0.019648 -0.153524 -0.062736
vn 0.000000 0.000000 -1.000000
v 0.019648 0.156655 -0.062736
v 0.019648 0.156630 -0.012865
v 0.013202 0.156614 -0.013704
v 0.026094 0.156620 -0.013709
vn 0.000000 -1.000000 0.000000
v 0.032104 0.156610 -0.016188
v 0.019648 -0.153499 -0.012865
vn 0.000000 0.000000 -1.000000
vn 0.258819 0.000000 -0.965926
v 0.026095 -0.153484 -0.013704
vn -0.258819 0.000000 -0.965926
v 0.032102 -0.153484 -0.016192
vn -0.500000 0.000000 -0.866025
v 0.007197 0.156620 -0.016196
v 0.013203 -0.153490 -0.013709
v 0.037258 -0.153488 -0.020153
vn -0.707107 0.000000 -0.707107
v 0.002036 0.156614 -0.020150
vn 0.500000 0.000000 -0.866025
vn 0.000000 -1.000000 0.000000
vn 0.000000 1.000000 0.000000
v 0.007195 -0.153484 -0.016192
v 0.037261 0.156614 -0.020150
v 0.002032 -0.153478 -0.020146
vn 0.707107 0.000000 -0.707107
v 0.041219 0.156614 -0.025309
vn -0.866025 0.000000 -0.500000
v -0.001922 -0.153484 -0.025309
v 0.041219 -0.153484 -0.025309
vn 0.866025 0.000000 -0.500000
v -0.001918 0.156620 -0.025311
v 0.043696 -0.061269 -0.031319
vn -0.965926 0.000000 -0.258819
v -0.004410 -0.153484 -0.031316
v -0.004414 0.156610 -0.031315
v 0.043707 -0.153484 -0.031316
v 0.043707 0.156614 -0.031316
vn 0.965926 0.000000 -0.258819
v 0.044550 0.156622 -0.037762
vn -1.000000 0.000000 0.000000
v -0.005259 -0.153484 -0.037762
vn 1.000000 0.000000 0.000000
v 0.044556 -0.153484 -0.037762
v -0.005259 0.156614 -0.037762
v 0.043696 -0.061269 -0.044206
vn -0.965926 0.000000 0.258819
v -0.004410 -0.153484 -0.044209
v 0.043717 0.156606 -0.044212
vn 0.965926 0.000000 0.258819
v 0.043707 -0.153484 -0.044209
v -0.004405 0.156620 -0.044208
v 0.041216 0.156618 -0.050214
vn -0.866025 0.000000 0.500000
v -0.001922 -0.153484 -0.050216
v -0.001922 0.156614 -0.050216
vn 0.866025 0.000000 0.500000
v 0.041219 -0.153484 -0.050216
v 0.037255 0.156624 -0.055369
vn -0.707107 0.000000 0.707107
v 0.002029 0.156606 -0.055382
v 0.002039 -0.153488 -0.055372
vn 0.707107 0.000000 0.707107
v 0.037265 -0.153478 -0.055379
v 0.032102 -0.153484 -0.059333
vn -0.500000 0.000000 0.866025
v 0.032102 0.156614 -0.059333
v 0.007195 0.156614 -0.059333
vn 0.500000 0.000000 0.866025
v 0.007195 -0.153484 -0.059333
v 0.026094 -0.153490 -0.061816
vn -0.258819 0.000000 0.965926
v 0.013202 -0.153484 -0.061821
v 0.026095 0.156614 -0.061821
v 0.013203 0.156620 -0.061816
vn 0.258819 0.000000 0.965926
v 0.019648 -0.153499 -0.062660
vn 0.000000 0.000000 1.000000
v 0.019648 0.156630 -0.062660
g mesh1-geometry-0
usemtl Material.e6a6298ff53efe4150e122edc010a6a6
f 1/1/1 2/2/1 3/3/1
f 2/2/1 1/1/1 4/4/1
f 2/5/2 5/6/2 3/7/2
f 3/8/3 6/9/3 1/10/3
f 1/11/4 7/12/4 4/13/4
f 4/14/5 8/15/5 2/16/5
f 5/6/2 2/5/2 9/17/2
f 6/9/3 3/8/3 5/18/3
f 10/19/3 1/10/3 6/9/3
f 7/12/4 1/11/4 11/20/4
f 8/15/5 4/14/5 7/21/5
f 12/22/5 2/16/5 8/15/5
f 2/16/5 12/22/5 9/23/5
f 9/24/6 13/25/6 5/26/6
f 6/9/3 5/18/3 14/27/3
f 1/10/3 10/19/3 11/28/3
f 6/29/6 8/30/6 15/31/6
f 14/27/3 10/19/3 6/9/3
f 16/9/7 15/19/7 17/27/7
f 11/32/6 18/33/6 7/34/6
f 8/15/5 7/21/5 19/35/5
f 8/30/6 6/29/6 12/36/6
f 9/23/5 12/22/5 20/37/5
f 13/25/6 9/24/6 7/34/6
f 21/38/6 5/26/6 13/25/6
f 14/27/3 5/18/3 22/39/3
f 11/28/3 10/19/3 23/40/3
f 8/41/2 24/42/2 15/43/2
f 10/19/3 14/27/3 23/40/3
f 25/40/7 17/27/7 15/19/7
f 11/32/6 21/38/6 18/33/6
f 26/44/6 7/34/6 18/33/6
f 19/35/5 7/21/5 20/37/5
f 24/42/2 8/41/2 19/45/2
f 6/46/4 20/47/4 12/48/4
f 9/23/5 20/37/5 7/21/5
f 13/25/6 7/34/6 26/44/6
f 5/26/6 21/38/6 11/32/6
f 22/39/3 5/18/3 24/49/3
f 22/39/3 23/40/3 14/27/3
f 17/27/7 25/40/7 27/39/7
f 20/47/4 6/46/4 27/50/4
f 11/28/3 23/40/3 24/49/3
f 14/29/6 28/51/6 23/31/6
f 25/31/8 29/51/8 17/29/8
f 20/52/1 24/53/1 19/54/1
f 11/28/3 24/49/3 5/18/3
f 24/53/1 20/52/1 27/55/1
f 23/40/3 22/39/3 24/49/3
f 30/49/7 27/39/7 25/40/7
f 28/51/6 14/29/6 31/56/6
f 32/56/8 17/29/8 29/51/8
g mesh1-geometry-1
usemtl Material.90b00bf69165eda831fe702671104217
f 33//9 34//9 35//9
f 36//9 35//9 34//9
f 33//10 37//10 34//10
f 35//7 16//7 33//7
f 36//11 38//11 35//11
f 34//12 39//12 36//12
f 40//10 34//10 37//10
f 37//7 33//7 16//7
f 16//7 35//7 15//7
f 41//11 35//11 38//11
f 38//12 36//12 39//12
f 39//12 34//12 42//12
f 40//12 42//12 34//12
f 37//8 43//8 40//8
f 17//7 37//7 16//7
f 41//7 15//7 35//7
f 10//8 39//8 16//8
f 38//8 44//8 41//8
f 45//12 38//12 39//12
f 42//8 16//8 39//8
f 46//12 42//12 40//12
f 38//8 40//8 43//8
f 43//8 37//8 47//8
f 27//7 37//7 17//7
f 25//7 15//7 41//7
f 10//10 30//10 39//10
f 44//8 47//8 41//8
f 44//8 38//8 48//8
f 46//12 38//12 45//12
f 45//10 39//10 30//10
f 42//11 46//11 16//11
f 38//12 46//12 40//12
f 48//8 38//8 43//8
f 41//8 47//8 37//8
f 47//10 49//10 43//10
f 30//7 37//7 27//7
f 22//11 16//11 46//11
f 30//7 25//7 41//7
f 47//7 44//7 49//7
f 48//11 50//11 44//11
f 45//9 30//9 46//9
f 48//12 43//12 50//12
f 37//7 30//7 41//7
f 51//10 43//10 49//10
f 22//9 46//9 30//9
f 52//7 49//7 44//7
f 52//11 44//11 50//11
f 51//12 50//12 43//12
f 51//8 49//8 50//8
f 52//8 50//8 49//8
g mesh1-geometry-2
usemtl Material.dc7a3ca9ca091ddbf48733c3a604f557
f 13//2 53//2 21//2
f 53//3 18//3 21//3
f 18//4 54//4 26//4
f 54//5 13//5 26//5
f 53//2 13//2 55//2
f 18//3 53//3 56//3
f 54//4 18//4 56//4
f 13//5 54//5 55//5
f 54//6 53//6 55//6
f 53//6 54//6 56//6
g mesh2-geometry-0
usemtl Material.dc7a3ca9ca091ddbf48733c3a604f557
f 57//13 58//13 59//13
f 58//13 57//13 60//13
f 58//14 61//14 59//14
f 61//15 57//15 62//15
f 60//16 63//16 58//16
f 61//14 58//14 64//14
f 57//15 61//15 65//15
f 66//13 60//13 67//13
f 68//16 63//16 60//16
f 69//16 58//16 63//16
f 58//16 69//16 64//16
f 70//17 71//17 64//17
f 65//15 61//15 72//15
f 60//13 66//13 68//13
f 63//16 68//16 70//16
f 64//16 69//16 73//16
f 71//17 70//17 74//17
f 64//16 73//16 70//16
f 72//15 61//15 75//15
f 65//18 72//18 68//18
f 68//13 66//13 65//13
f 70//18 68//18 72//18
f 63//16 70//16 76//16
f 74//17 70//17 72//17
f 75//17 71//17 74//17
f 76//16 70//16 73//16
g mesh2-geometry-1
usemtl Material.90b00bf69165eda831fe702671104217
f 62//19 77//19 78//19
f 79//19 78//19 77//19
f 62//18 71//18 77//18
f 59//20 78//20 71//20
f 57//13 59//13 80//13
f 81//19 62//19 78//19
f 77//21 82//21 79//21
f 83//18 77//18 71//18
f 84//20 71//20 78//20
f 65//13 67//13 57//13
f 78//19 85//19 84//19
f 85//19 79//19 86//19
f 79//21 82//21 87//21
f 82//21 77//21 88//21
f 83//21 88//21 77//21
f 83//22 61//22 89//22
f 90//20 71//20 84//20
f 87//19 86//19 79//19
f 89//21 87//21 82//21
f 82//21 88//21 91//21
f 92//21 88//21 83//21
f 93//22 89//22 61//22
f 89//21 92//21 83//21
f 75//20 71//20 90//20
f 87//14 90//14 84//14
f 84//19 86//19 87//19
f 90//14 87//14 89//14
f 91//21 89//21 82//21
f 92//21 91//21 88//21
f 90//22 89//22 93//22
f 93//22 61//22 94//22
f 92//21 89//21 91//21
f 95//17 71//17 75//17
f 94//22 61//22 96//22
f 72//17 75//17 74//17
f 93//22 94//22 90//22
g mesh2-geometry-2
usemtl Material.b2cdaf4394d1a4f850458878b81c7fa1
f 76//16 69//16 63//16
f 69//16 76//16 73//16
g mesh3-geometry-0
usemtl Material.dc7a3ca9ca091ddbf48733c3a604f557
f 97//23 98//23 99//23
f 98//23 97//23 100//23
f 98//24 101//25 99//25
f 99//25 102//26 97//26
f 97//26 103//27 100//27
f 98//23 100//23 104//23
f 101//25 98//24 105//24
f 102//26 99//25 101//25
f 103//27 97//26 102//26
f 106//28 100//27 103//27
f 104//23 100//23 107//23
f 104//29 105//24 98//24
f 100//27 106//28 108//28
f 107//23 100//23 108//23
f 107//30 109//29 104//29
f 105//24 104//29 109//29
f 106//28 110//31 108//28
f 107//23 108//23 110//23
f 109//29 107//30 111//30
f 110//31 106//28 112//31
f 107//30 113//32 111//30
f 107//23 110//23 114//23
f 112//31 115//33 110//31
f 113//32 107//30 114//32
f 114//23 110//23 116//23
f 115//33 112//31 117//33
f 110//31 115//33 118//33
f 114//32 119//34 113//32
f 116//23 110//23 118//23
f 119//34 114//32 116//34
f 117//33 120//35 115//33
f 115//33 120//35 118//33
f 116//23 118//23 120//23
f 116//34 121//36 119//34
f 120//35 117//33 122//35
f 116//23 120//23 123//23
f 121//36 116//34 123//36
f 122//35 124//37 120//35
f 123//23 120//23 125//23
f 123//36 126//38 121//36
f 124//37 122//35 127//37
f 120//35 124//37 125//37
f 123//23 125//23 128//23
f 126//38 123//36 128//38
f 127//37 129//39 124//37
f 124//37 129//39 125//37
f 128//23 125//23 130//23
f 128//38 131//40 126//38
f 129//39 127//37 132//39
f 130//23 125//23 129//23
f 131//40 128//38 130//40
f 132//39 133//41 129//39
f 130//23 129//23 134//23
f 130//40 135//42 131//40
f 133//41 132//39 136//41
f 134//23 129//23 133//23
f 135//42 130//40 134//42
f 137//43 133//41 136//41
f 134//23 133//23 138//23
f 139//44 135//42 134//42
f 133//41 137//43 138//43
f 134//23 138//23 139//23
f 135//42 139//44 140//44
f 141//45 138//43 137//43
f 139//23 138//23 142//23
f 143//46 140//44 139//44
f 138//43 141//45 142//45
f 140//44 143//46 144//46
f 139//23 142//23 143//23
f 145//47 142//45 141//45
f 146//47 144//46 143//46
f 143//23 142//23 146//23
f 142//45 145//47 146//47
f 144//46 146//47 145//47
g mesh3-geometry-1
usemtl Material.90b00bf69165eda831fe702671104217
f 147//48 148//48 149//48
f 150//48 149//48 148//48
f 147//49 151//49 148//50
f 149//51 152//51 147//49
f 150//52 153//52 149//51
f 154//48 150//48 148//48
f 155//50 148//50 151//49
f 151//49 147//49 152//51
f 152//51 149//51 153//52
f 153//52 150//52 156//53
f 157//48 150//48 154//48
f 148//50 155//50 154//54
f 105//55 102//55 101//55
f 151//56 152//56 155//56
f 102//55 109//55 103//55
f 153//56 158//56 152//56
f 159//53 156//53 150//52
f 103//55 111//55 106//55
f 156//56 160//56 153//56
f 159//48 150//48 157//48
f 154//54 158//54 157//57
f 158//54 154//54 155//50
f 102//55 105//55 109//55
f 158//56 155//56 152//56
f 103//55 109//55 111//55
f 160//56 158//56 153//56
f 159//53 161//58 156//53
f 106//55 111//55 113//55
f 162//56 160//56 156//56
f 161//48 159//48 157//48
f 160//57 157//57 158//54
f 163//58 156//53 161//58
f 160//57 162//59 157//57
f 106//55 113//55 112//55
f 163//56 162//56 156//56
f 164//48 161//48 157//48
f 161//58 165//60 163//58
f 164//59 157//57 162//59
f 112//55 113//55 119//55
f 166//56 162//56 163//56
f 167//48 161//48 164//48
f 168//60 163//58 165//60
f 169//60 165//60 161//58
f 162//59 166//61 164//59
f 112//55 119//55 117//55
f 168//56 166//56 163//56
f 169//48 161//48 167//48
f 167//61 164//59 166//61
f 165//60 170//62 168//60
f 169//60 170//62 165//60
f 117//55 119//55 121//55
f 171//56 166//56 168//56
f 170//48 169//48 167//48
f 166//61 171//63 167//61
f 172//62 168//60 170//62
f 117//55 121//55 122//55
f 172//56 171//56 168//56
f 173//48 170//48 167//48
f 173//63 167//61 171//63
f 170//62 174//64 172//62
f 122//55 121//55 126//55
f 175//56 171//56 172//56
f 176//48 170//48 173//48
f 171//63 175//65 173//63
f 177//64 172//62 174//64
f 176//64 174//64 170//62
f 122//55 126//55 127//55
f 177//56 175//56 172//56
f 178//48 176//48 173//48
f 178//65 173//63 175//65
f 174//64 179//66 177//64
f 176//64 179//66 174//64
f 127//55 126//55 131//55
f 180//56 175//56 177//56
f 181//48 176//48 178//48
f 175//65 180//67 178//65
f 182//66 177//64 179//66
f 179//48 176//48 181//48
f 127//55 131//55 132//55
f 182//56 180//56 177//56
f 181//67 178//65 180//67
f 179//66 183//68 182//66
f 184//48 179//48 181//48
f 132//55 131//55 135//55
f 185//56 180//56 182//56
f 180//67 185//69 181//67
f 186//68 182//66 183//68
f 183//48 179//48 184//48
f 184//69 181//67 185//69
f 132//55 135//55 136//55
f 186//56 185//56 182//56
f 186//68 183//68 187//70
f 188//48 183//48 184//48
f 184//69 185//69 189//71
f 136//55 135//55 140//55
f 190//56 185//56 186//56
f 188//70 187//70 183//68
f 136//55 140//55 137//55
f 187//56 190//56 186//56
f 189//48 188//48 184//48
f 190//71 189//71 185//69
f 187//70 188//70 191//72
f 137//55 140//55 144//55
f 192//56 190//56 187//56
f 193//48 188//48 189//48
f 189//71 190//71 194//73
f 193//72 191//72 188//70
f 137//55 144//55 141//55
f 191//56 192//56 187//56
f 192//73 194//73 190//71
f 194//48 193//48 189//48
f 191//72 193//72 195//74
f 141//55 144//55 145//55
f 195//56 192//56 191//56
f 194//73 192//73 196//74
f 196//48 193//48 194//48
f 196//74 195//74 193//72
f 195//74 196//74 192//73
