# created by Ethan Wu and Zhan isaac Ling
mtllib model.mtl
v 0.034024 -0.225209 0.413381
v 0.010802 -0.167256 -0.318307
v 0.034024 -0.225207 -0.413385
vn -0.928255 -0.371944 0.000000
v 0.010802 -0.167250 -0.079581
v 0.034106 -0.225200 -0.413378
v 0.010884 -0.167243 -0.318299
v 0.034106 -0.225198 0.413379
vn 0.928255 0.371944 0.000000
v 0.010884 -0.167249 -0.079570
v 0.034024 0.278750 -0.413385
vn -0.971445 0.000000 -0.237266
v 0.034105 -0.176326 -0.373792
vn 1.000000 0.000000 0.000000
v 0.010802 -0.167253 0.318307
v 0.010884 -0.167247 0.318299
v 0.010802 0.220794 -0.318305
vn -1.000000 0.000000 0.000000
v 0.034106 0.278742 -0.413378
v 0.034095 -0.192817 0.212773
v 0.034024 0.278749 0.413385
vn -0.971445 0.000000 0.237266
v 0.010803 -0.167246 0.079586
v 0.010802 0.220800 0.318306
vn -0.928255 0.371944 0.000000
v 0.010884 0.220789 -0.318301
v 0.010883 0.220784 0.318301
vn 0.928255 -0.371944 0.000000
v 0.034098 0.239145 -0.373780
v 0.034098 -0.183879 0.212776
v 0.034102 -0.192810 0.360651
v 0.034104 -0.176324 0.373789
v 0.034106 0.278743 0.413377
v -0.037572 -0.278718 0.079596
vn -0.917323 0.398144 0.000000
v 0.010883 -0.167253 0.079565
v -0.037500 -0.278710 0.079556
vn 0.917323 -0.398144 0.000000
v 0.017451 -0.278741 0.079590
vn 0.998262 0.058925 0.000000
v 0.017394 -0.278687 0.079562
vn -0.998262 -0.058925 0.000000
v 0.034095 0.239142 0.373777
v 0.034098 -0.183879 0.236806
v -0.037549 -0.278678 -0.079591
v -0.037522 -0.278750 -0.079561
vn 0.000000 0.000000 1.000000
vn 0.000000 0.000000 -1.000000
v 0.017447 -0.278737 -0.079600
v 0.017398 -0.278691 -0.079551
v 0.034102 -0.183883 0.243743
v 0.034095 -0.183875 0.360658
vn 0.000000 0.000000 -1.000000
vn 0.000000 0.000000 1.000000
vn 0.000000 -1.000000 0.000000
vn 0.000000 1.000000 0.000000
v 0.034098 -0.183879 0.267768
v 0.034089 -0.192821 0.243732
v 0.034089 -0.192821 0.236813
v 0.034102 -0.183883 0.274705
v 0.034102 -0.183883 0.336630
v 0.034098 -0.183879 0.298730
v 0.034089 -0.192821 0.274694
v 0.034098 -0.183879 0.329693
v 0.034089 -0.192821 0.267775
v 0.034102 -0.183883 0.305668
v 0.034089 -0.192821 0.336619
v 0.034089 -0.192821 0.329700
v 0.034089 -0.192821 0.305656
v 0.034089 -0.192821 0.298737
vn 0.971445 0.000000 0.237266
v 0.034024 -0.176337 -0.373803
vn -1.000000 0.000000 0.000000
vn 1.000000 0.000000 0.000000
v 0.034035 -0.192777 0.212813
vn 0.971445 0.000000 -0.237266
v 0.034031 0.239179 -0.373814
v 0.034031 -0.183912 0.212810
v 0.034027 -0.192785 0.360626
v 0.034025 -0.176340 0.373805
v 0.034035 0.239182 0.373817
v 0.032493 0.239186 -0.373821
vn 0.000000 0.000000 -1.000000
v 0.034031 -0.183912 0.236772
v 0.037524 -0.183919 0.212817
vn 0.000000 0.000000 1.000000
vn 0.000000 1.000000 0.000000
v 0.032493 -0.176355 -0.373821
v 0.034027 -0.183908 0.243768
vn 0.000000 -1.000000 0.000000
v 0.037524 -0.192773 0.212817
v 0.034035 -0.183915 0.360618
v 0.034041 -0.192773 0.236765
v 0.037524 -0.192773 0.236765
vn 0.000000 1.000000 0.000000
v 0.032493 -0.176355 0.373821
vn 0.000000 0.000000 1.000000
v 0.032493 0.239186 0.373821
vn 0.000000 -1.000000 0.000000
v 0.034031 -0.183912 0.267734
v 0.034041 -0.192773 0.243779
v 0.037524 -0.183919 0.236765
v 0.037524 -0.192773 0.360614
v 0.034027 -0.183908 0.274730
v 0.037524 -0.183919 0.243779
v 0.037524 -0.183919 0.360614
v 0.034041 -0.192773 0.336666
v 0.034027 -0.183908 0.336655
v 0.034041 -0.192773 0.267727
v 0.037524 -0.192773 0.267727
v 0.034031 -0.183912 0.298697
v 0.034041 -0.192773 0.274741
v 0.037524 -0.183919 0.267727
v 0.037524 -0.192773 0.243779
v 0.037524 -0.183919 0.336666
v 0.037524 -0.192773 0.336666
v 0.034031 -0.183912 0.329659
v 0.034027 -0.183908 0.305692
v 0.037524 -0.183919 0.274741
v 0.034041 -0.192773 0.329652
v 0.034041 -0.192773 0.298690
v 0.037524 -0.192773 0.298690
v 0.034041 -0.192773 0.305704
v 0.037524 -0.183919 0.298690
v 0.037524 -0.192773 0.274741
v 0.037524 -0.192773 0.329652
v 0.037524 -0.183919 0.305704
v 0.037524 -0.192773 0.305704
v 0.037524 -0.183919 0.329652
v 0.032540 0.239138 -0.373773
vn 0.000000 0.000000 1.000000
vt -0.30349 0.859023
vt -0.301617 0.090408
vt -0.301617 0.859023
vn 0.000000 -1.000000 0.000000
vt 1.14462 1.27422
vt 0.240378 1.27708
vt 0.240378 1.27422
v 0.032540 -0.176308 -0.373773
vt -0.30349 0.090408
v 0.032540 -0.176308 0.373773
vn 0.000000 0.000000 -1.000000
vt 1.49599 0.090408
vt 1.49412 0.859022
vt 1.49412 0.090408
v 0.032540 0.239138 0.373773
vt 1.14462 1.27708
vn 0.000000 1.000000 0.000000
vt 0.047878 1.27708
vt 0.952122 1.27422
vt 0.952122 1.27708
vt 1.49599 0.859022
vt 0.047878 1.27422
v 0.037572 -0.183871 0.212769
vn 0.000000 0.000000 -1.000000
vn 0.000000 1.000000 0.000000
v 0.037572 -0.192821 0.212769
v 0.037572 -0.192821 0.236813
vn 0.000000 -1.000000 0.000000
v 0.037572 -0.183871 0.236813
v 0.037572 -0.192821 0.360662
v 0.037572 -0.183871 0.243732
v 0.037572 -0.183871 0.360662
v 0.037572 -0.192821 0.267775
v 0.037572 -0.183871 0.267775
v 0.037572 -0.192821 0.243732
v 0.037572 -0.183871 0.336619
v 0.037572 -0.192821 0.336619
v 0.037572 -0.183871 0.274694
v 0.037572 -0.192821 0.298737
v 0.037572 -0.183871 0.298737
v 0.037572 -0.192821 0.274694
v 0.037572 -0.192821 0.329700
v 0.037572 -0.183871 0.305656
v 0.037572 -0.192821 0.305656
v 0.037572 -0.183871 0.329700
g mesh1-geometry-0
usemtl Material.57774a50243e5d429f3a4ea105ec3930
f 1//1 2//1 3//1
f 2//1 1//1 4//1
f 5//2 6//2 7//2
f 8//2 7//2 6//2
f 2//3 9//3 3//3
f 5//4 10//4 7//4
f 4//1 1//1 11//1
f 12//2 7//2 8//2
f 4//5 13//5 2//5
f 9//3 2//3 13//3
f 10//4 5//4 14//4
f 7//4 10//4 15//4
f 16//6 11//6 1//6
f 13//5 4//5 17//5
f 18//7 9//7 13//7
f 19//8 14//8 20//8
f 10//4 14//4 21//4
f 15//4 10//4 22//4
f 23//4 7//4 15//4
f 11//6 16//6 18//6
f 7//4 24//4 25//4
f 13//5 17//5 11//5
f 4//9 26//9 17//9
f 27//10 28//10 8//10
f 29//11 8//11 27//11
f 17//12 4//12 30//12
f 9//7 18//7 16//7
f 25//8 20//8 14//8
f 13//5 11//5 18//5
f 21//4 14//4 31//4
f 22//4 10//4 32//4
f 24//4 7//4 23//4
f 25//4 24//4 31//4
f 26//9 4//9 33//9
f 34//10 8//10 28//10
f 26//13 29//13 17//13
f 27//14 30//14 28//14
f 8//11 29//11 35//11
f 36//12 30//12 4//12
f 25//4 31//4 14//4
f 32//4 10//4 37//4
f 24//4 23//4 38//4
f 33//15 4//15 35//15
f 36//16 8//16 34//16
f 34//17 29//17 26//17
f 28//18 30//18 33//18
f 29//17 34//17 35//17
f 36//18 33//18 30//18
f 37//4 10//4 39//4
f 40//4 32//4 37//4
f 24//4 38//4 10//4
f 32//4 40//4 41//4
f 39//4 10//4 42//4
f 43//4 10//4 38//4
f 42//4 10//4 44//4
f 45//4 39//4 42//4
f 46//4 10//4 43//4
f 39//4 45//4 47//4
f 44//4 10//4 48//4
f 46//4 49//4 50//4
f 48//4 10//4 46//4
f 49//4 46//4 43//4
f 51//4 44//4 48//4
f 44//4 51//4 52//4
g mesh1-geometry-1
usemtl Material.dc7a3ca9ca091ddbf48733c3a604f557
f 5//19 14//19 6//19
f 1//20 53//20 3//20
f 6//21 19//21 8//21
f 19//19 6//19 14//19
f 9//20 3//20 53//20
f 54//20 53//20 1//20
f 7//22 12//22 25//22
f 27//21 8//21 19//21
f 55//20 9//20 53//20
f 56//20 53//20 54//20
f 54//20 1//20 57//20
f 20//22 25//22 12//22
f 16//20 58//20 1//20
f 12//21 27//21 19//21
f 20//21 12//21 19//21
f 59//20 9//20 55//20
f 55//23 53//23 60//23
f 61//20 53//20 56//20
f 56//24 54//24 62//24
f 57//20 1//20 58//20
f 59//20 58//20 16//20
f 9//20 59//20 16//20
f 55//25 60//25 59//25
f 63//23 60//23 53//23
f 64//20 53//20 61//20
f 56//26 62//26 61//26
f 65//24 62//24 54//24
f 66//20 57//20 58//20
f 67//27 68//27 54//27
f 58//28 59//28 69//28
f 70//25 59//25 60//25
f 63//20 69//20 60//20
f 63//29 53//29 69//29
f 71//20 53//20 64//20
f 64//20 61//20 72//20
f 73//26 61//26 62//26
f 65//20 68//20 62//20
f 65//27 54//27 68//27
f 57//14 66//14 74//14
f 53//20 66//20 58//20
f 67//14 61//14 68//14
f 67//20 72//20 61//20
f 70//28 69//28 59//28
f 58//29 69//29 53//29
f 70//20 60//20 69//20
f 75//20 53//20 71//20
f 64//26 76//26 71//26
f 64//24 72//24 76//24
f 73//14 68//14 61//14
f 73//20 62//20 68//20
f 77//14 74//14 66//14
f 57//27 74//27 78//27
f 66//20 53//20 79//20
f 80//27 81//27 72//27
f 82//20 53//20 75//20
f 75//20 71//20 83//20
f 84//26 71//26 76//26
f 85//24 76//24 72//24
f 77//20 86//20 74//20
f 77//26 66//26 86//26
f 87//27 78//27 74//27
f 79//20 53//20 88//20
f 79//26 86//26 66//26
f 85//27 72//27 81//27
f 80//14 71//14 81//14
f 80//20 83//20 71//20
f 89//20 53//20 82//20
f 75//26 90//26 82//26
f 75//24 83//24 90//24
f 84//14 81//14 71//14
f 84//20 76//20 81//20
f 85//20 81//20 76//20
f 87//20 74//20 86//20
f 87//24 86//24 78//24
f 91//20 78//20 88//20
f 88//20 53//20 89//20
f 79//20 88//20 78//20
f 79//24 78//24 86//24
f 92//27 93//27 83//27
f 89//20 82//20 94//20
f 95//26 82//26 90//26
f 96//24 90//24 83//24
f 91//27 97//27 94//27
f 91//14 88//14 97//14
f 89//26 98//26 88//26
f 96//27 83//27 93//27
f 92//14 82//14 93//14
f 92//20 94//20 82//20
f 89//24 94//24 98//24
f 95//14 93//14 82//14
f 95//20 90//20 93//20
f 96//20 93//20 90//20
f 99//27 94//27 97//27
f 100//14 97//14 88//14
f 100//26 88//26 98//26
f 99//24 98//24 94//24
f 99//20 97//20 98//20
f 100//20 98//20 97//20
g mesh1-geometry-2
usemtl Material.090a554d081161e7156688c04af8d107
f 101/1/30 10/2/30 21/3/30
f 31/4/31 101/5/31 21/6/31
f 10/2/30 101/1/30 102/7/30
f 103/8/32 31/9/32 24/10/32
f 101/5/31 31/4/31 104/11/31
f 103/12/33 10/13/33 102/14/33
f 31/9/32 103/8/32 104/15/32
f 10/13/33 103/12/33 24/16/33
g mesh1-geometry-3
usemtl Material.90b00bf69165eda831fe702671104217
f 105//34 15//34 22//34
f 32//35 105//35 22//35
f 15//34 105//34 106//34
f 15//36 107//36 41//36
f 105//35 32//35 108//35
f 105//4 107//4 106//4
f 107//36 15//36 106//36
f 109//13 38//13 23//13
f 107//13 32//13 41//13
f 39//35 110//35 37//35
f 110//34 40//34 37//34
f 32//13 107//13 108//13
f 107//4 105//4 108//4
f 38//13 109//13 111//13
f 49//36 109//36 23//36
f 40//36 112//36 47//36
f 110//35 39//35 113//35
f 40//34 110//34 114//34
f 109//4 115//4 111//4
f 115//35 38//35 111//35
f 109//36 49//36 116//36
f 38//35 115//35 43//35
f 112//36 40//36 114//36
f 112//13 39//13 47//13
f 44//35 117//35 42//35
f 117//34 45//34 42//34
f 39//13 112//13 113//13
f 112//4 110//4 113//4
f 110//4 112//4 114//4
f 115//4 109//4 116//4
f 49//34 115//34 116//34
f 115//34 49//34 43//34
f 45//36 118//36 52//36
f 117//35 44//35 119//35
f 45//34 117//34 120//34
f 51//36 121//36 50//36
f 121//13 46//13 50//13
f 46//35 122//35 48//35
f 118//36 45//36 120//36
f 118//13 44//13 52//13
f 122//34 51//34 48//34
f 44//13 118//13 119//13
f 118//4 117//4 119//4
f 117//4 118//4 120//4
f 121//36 51//36 123//36
f 46//13 121//13 124//13
f 122//35 46//35 124//35
f 51//34 122//34 123//34
f 122//4 121//4 123//4
f 121//4 122//4 124//4
g mesh1-geometry-4
usemtl Material.b2cdaf4394d1a4f850458878b81c7fa1
f 101//4 103//4 102//4
f 103//4 101//4 104//4
