# created by Ethan Wu and Zhan isaac Ling
mtllib model.mtl
v 0.222339 -0.008140 0.222339
v 0.253833 -0.114116 0.068548
v 0.303218 -0.008140 0.081885
vn 0.668146 -0.327355 0.668146
vn 0.716643 -0.670879 0.190641
vn 0.913235 -0.327029 0.243008
v 0.186127 -0.114116 0.186127
vn 0.524134 -0.671243 0.524134
v 0.303154 -0.008117 0.081868
v 0.253783 -0.114069 0.068535
v 0.222292 -0.008117 0.222292
vn -0.913235 0.327030 -0.243008
vn -0.716643 0.670880 -0.190641
vn -0.668146 0.327355 -0.668146
v 0.186090 -0.114069 0.186090
vn -0.524134 0.671243 -0.524134
v 0.302850 -0.008140 -0.080511
vn 0.716643 -0.670879 0.190641
vn 0.912605 -0.326383 -0.246222
vn 0.913235 -0.327029 0.243008
v 0.302786 -0.008117 -0.080493
vn -0.913235 0.327030 -0.243008
vn -0.912605 0.326383 0.246223
vn -0.716643 0.670880 -0.190641
v 0.247103 0.151236 0.247103
vn 0.690631 -0.214612 0.690631
v 0.247054 0.151251 0.247054
vn -0.690631 0.214612 -0.690631
v 0.081885 -0.008140 0.303218
vn 0.243008 -0.327029 0.913235
v 0.081868 -0.008117 0.303154
vn -0.243008 0.327030 -0.913235
v 0.143737 -0.151250 0.143737
vn 0.192606 -0.962188 0.192606
v 0.143723 -0.151182 0.143723
vn -0.192606 0.962188 -0.192606
v 0.253525 -0.114116 -0.067398
vn 0.716584 -0.670155 -0.193389
v 0.253475 -0.114069 -0.067385
vn -0.716584 0.670155 0.193389
v 0.336580 0.151236 -0.089477
vn 0.943133 -0.213916 -0.254441
vn 0.913235 -0.327029 0.243008
v 0.336514 0.151251 -0.089460
vn -0.913235 0.327030 -0.243008
vn -0.943133 0.213916 0.254441
v 0.336989 0.151236 0.091005
vn 0.943900 -0.214379 0.251185
v 0.336923 0.151251 0.090987
vn -0.943900 0.214379 -0.251185
v 0.091005 0.151236 0.336989
vn 0.251185 -0.214379 0.943900
v 0.090987 0.151251 0.336923
vn -0.251185 0.214379 -0.943900
v 0.068548 -0.114116 0.253833
vn 0.190641 -0.670879 0.716643
v 0.068535 -0.114069 0.253783
vn -0.190641 0.670880 -0.716643
v 0.196023 -0.151250 0.052936
vn 0.263477 -0.962118 0.070066
v 0.196004 -0.151183 0.052932
vn -0.263477 0.962118 -0.070065
vn 0.524134 -0.671243 0.524134
vn -0.524134 0.671243 -0.524134
vn 0.263477 -0.962118 0.070066
vn 0.716643 -0.670879 0.190641
vn -0.716643 0.670880 -0.190641
vn -0.263477 0.962118 -0.070065
v 0.221333 -0.008140 -0.221333
vn 0.716584 -0.670155 -0.193389
vn 0.668463 -0.326061 -0.668463
vn 0.912605 -0.326383 -0.246222
v 0.221286 -0.008117 -0.221286
vn -0.912605 0.326383 0.246223
vn -0.668463 0.326061 0.668463
vn -0.716584 0.670155 0.193389
v 0.245984 0.151236 -0.245984
vn 0.912605 -0.326383 -0.246222
vn 0.690774 -0.213685 -0.690774
v 0.245936 0.151251 -0.245936
vn -0.690774 0.213685 0.690774
vn -0.912605 0.326383 0.246223
v -0.067398 -0.114116 0.253525
vn -0.193389 -0.670155 0.716584
v -0.067385 -0.114069 0.253475
vn 0.193389 0.670155 -0.716584
v -0.080511 -0.008140 0.302850
vn -0.246222 -0.326383 0.912605
vn 0.243008 -0.327029 0.913235
v -0.080493 -0.008117 0.302786
vn -0.243008 0.327030 -0.913235
vn 0.246223 0.326383 -0.912605
v -0.000000 -0.151251 -0.000000
vn 0.000000 -1.000000 0.000000
v -0.000000 -0.151181 -0.000000
vn 0.000000 1.000000 0.000000
v 0.052936 -0.151250 0.196023
vn 0.070066 -0.962118 0.263477
v 0.052932 -0.151183 0.196004
vn -0.070065 0.962118 -0.263477
v 0.195785 -0.151250 -0.052048
vn 0.263687 -0.961978 -0.071188
v 0.195767 -0.151183 -0.052043
vn -0.263687 0.961978 0.071188
v 0.185285 -0.114116 -0.185285
vn 0.525060 -0.669794 -0.525060
v 0.185248 -0.114069 -0.185248
vn -0.525060 0.669794 0.525060
vn 0.668463 -0.326061 -0.668463
vn -0.668463 0.326061 0.668463
vn -0.246222 -0.326383 0.912605
vn 0.246223 0.326383 -0.912605
vn -0.193389 -0.670155 0.716584
vn 0.193389 0.670155 -0.716584
v -0.089477 0.151236 0.336580
vn -0.254441 -0.213916 0.943133
v -0.089460 0.151251 0.336514
vn 0.254441 0.213916 -0.943133
vn 0.192606 -0.962188 0.192606
vn 0.070066 -0.962118 0.263477
vn -0.070065 0.962118 -0.263477
vn -0.192606 0.962188 -0.192606
vn 0.525060 -0.669794 -0.525060
vn -0.525060 0.669794 0.525060
v 0.080511 -0.008140 -0.302850
vn 0.525060 -0.669794 -0.525060
vn 0.246223 -0.326383 -0.912605
vn 0.668463 -0.326061 -0.668463
v 0.080494 -0.008117 -0.302786
vn -0.668463 0.326061 0.668463
vn -0.246222 0.326383 0.912605
vn -0.525060 0.669794 0.525060
v 0.089477 0.151236 -0.336580
vn 0.254441 -0.213916 -0.943133
v 0.089460 0.151251 -0.336514
vn -0.254441 0.213916 0.943133
v -0.185285 -0.114116 0.185285
vn -0.525060 -0.669794 0.525060
vn -0.193389 -0.670155 0.716584
v -0.185248 -0.114069 0.185248
vn 0.193389 0.670155 -0.716584
vn 0.525060 0.669794 -0.525060
v -0.052048 -0.151250 0.195785
vn -0.071188 -0.961978 0.263687
v -0.052043 -0.151183 0.195766
vn 0.071188 0.961978 -0.263687
v -0.221333 -0.008140 0.221333
vn -0.668463 -0.326061 0.668463
v -0.221286 -0.008117 0.221286
vn 0.668463 0.326061 -0.668463
v 0.143086 -0.151250 -0.143086
vn 0.193305 -0.961908 -0.193305
v 0.143073 -0.151183 -0.143073
vn -0.193305 0.961908 0.193305
v 0.067398 -0.114116 -0.253525
vn 0.193389 -0.670155 -0.716584
v 0.067385 -0.114069 -0.253475
vn -0.193389 0.670155 0.716584
vn 0.246223 -0.326383 -0.912605
vn -0.246222 0.326383 0.912605
vn -0.668463 -0.326061 0.668463
vn 0.668463 0.326061 -0.668463
v -0.245984 0.151236 0.245984
vn -0.690774 -0.213685 0.690774
v -0.245936 0.151251 0.245936
vn 0.690774 0.213685 -0.690774
v 0.052048 -0.151250 -0.195785
vn 0.071188 -0.961978 -0.263687
vn 0.193305 -0.961908 -0.193305
v 0.052043 -0.151183 -0.195767
vn -0.193305 0.961908 0.193305
vn -0.071188 0.961978 0.263687
v -0.143086 -0.151250 0.143086
vn -0.193305 -0.961908 0.193305
v -0.143073 -0.151183 0.143073
vn 0.193305 0.961908 -0.193305
vn 0.525060 -0.669794 -0.525060
vn -0.525060 0.669794 0.525060
v -0.081885 -0.008140 -0.303218
vn -0.243008 -0.327030 -0.913235
v -0.081868 -0.008117 -0.303154
vn 0.243008 0.327030 0.913235
v -0.091005 0.151236 -0.336989
vn -0.251185 -0.214379 -0.943900
v -0.090987 0.151251 -0.336923
vn 0.251185 0.214379 0.943900
v -0.253525 -0.114116 0.067398
vn -0.716584 -0.670155 0.193389
vn -0.525060 -0.669794 0.525060
v -0.253475 -0.114069 0.067385
vn 0.525060 0.669794 -0.525060
vn 0.716584 0.670155 -0.193389
v -0.302850 -0.008140 0.080511
vn -0.912605 -0.326383 0.246223
vn -0.668463 -0.326061 0.668463
v -0.302786 -0.008117 0.080494
vn 0.668463 0.326061 -0.668463
vn 0.912605 0.326383 -0.246222
v -0.052936 -0.151250 -0.196023
vn -0.070065 -0.962118 -0.263477
v -0.052932 -0.151183 -0.196004
vn 0.070066 0.962118 0.263477
v -0.195785 -0.151250 0.052048
vn -0.263687 -0.961978 0.071188
v -0.195766 -0.151183 0.052043
vn 0.263687 0.961978 -0.071188
v -0.068548 -0.114116 -0.253833
vn -0.190641 -0.670880 -0.716643
v -0.068535 -0.114069 -0.253783
vn 0.190641 0.670880 0.716643
vn -0.912605 -0.326383 0.246223
vn 0.912605 0.326383 -0.246222
vn -0.716584 -0.670155 0.193389
vn -0.193305 -0.961908 0.193305
vn 0.193305 0.961908 -0.193305
vn 0.716584 0.670155 -0.193389
v -0.336580 0.151236 0.089477
vn -0.943133 -0.213916 0.254441
v -0.336514 0.151251 0.089460
vn 0.943133 0.213916 -0.254441
v -0.143737 -0.151250 -0.143737
vn -0.192606 -0.962188 -0.192606
v -0.143723 -0.151182 -0.143723
vn 0.192606 0.962188 0.192606
v -0.196023 -0.151250 -0.052936
vn -0.263477 -0.962118 -0.070065
v -0.196004 -0.151183 -0.052932
vn 0.263477 0.962118 0.070066
vn -0.263687 -0.961978 0.071188
vn 0.263687 0.961978 -0.071188
v -0.222339 -0.008140 -0.222339
vn -0.668146 -0.327355 -0.668146
v -0.222292 -0.008117 -0.222292
vn 0.668146 0.327355 0.668146
v -0.247103 0.151236 -0.247103
vn -0.690631 -0.214612 -0.690631
v -0.247054 0.151251 -0.247054
vn 0.690631 0.214612 0.690631
v -0.253833 -0.114116 -0.068548
vn -0.716643 -0.670880 -0.190641
v -0.253783 -0.114069 -0.068535
vn 0.716643 0.670880 0.190641
v -0.303218 -0.008140 -0.081885
vn -0.913235 -0.327030 -0.243008
vn -0.912605 -0.326383 0.246223
v -0.303154 -0.008117 -0.081868
vn 0.912605 0.326383 -0.246222
vn 0.913235 0.327030 0.243008
vn -0.192606 -0.962188 -0.192606
vn -0.190641 -0.670880 -0.716643
vn 0.190641 0.670880 0.716643
vn 0.192606 0.962188 0.192606
v -0.186127 -0.114116 -0.186127
vn -0.524134 -0.671243 -0.524134
v -0.186090 -0.114069 -0.186090
vn 0.524134 0.671243 0.524134
vn -0.668146 -0.327355 -0.668146
vn 0.668146 0.327355 0.668146
v -0.336989 0.151236 -0.091005
vn -0.943900 -0.214379 -0.251185
v -0.336923 0.151251 -0.090987
vn 0.943900 0.214379 0.251185
vn -0.524134 -0.671243 -0.524134
vn 0.524134 0.671243 0.524134
vn -0.716643 -0.670880 -0.190641
vn 0.716643 0.670880 0.190641
vn -0.524134 -0.671243 -0.524134
vn 0.524134 0.671243 0.524134
g mesh1-geometry-0
usemtl Material.57774a50243e5d429f3a4ea105ec3930
f 1//1 2//2 3//3
f 2//2 1//1 4//4
f 5//5 6//6 7//7
f 8//8 7//7 6//6
f 2//9 9//10 3//11
f 5//12 10//13 6//14
f 3//11 11//15 1//1
f 7//7 12//16 5//12
f 13//17 4//4 1//1
f 7//7 8//8 14//18
f 15//19 2//2 4//4
f 8//8 6//6 16//20
f 9//10 2//9 17//21
f 18//22 6//14 10//13
f 19//23 3//24 9//10
f 10//13 5//25 20//26
f 11//15 3//11 21//27
f 22//28 5//12 12//16
f 23//29 1//1 11//15
f 12//16 7//7 24//30
f 4//4 13//17 25//31
f 26//32 14//18 8//8
f 1//1 23//29 13//17
f 14//18 24//30 7//7
f 2//2 15//19 27//33
f 28//34 16//20 6//6
f 25//31 15//19 4//35
f 8//36 16//20 26//32
f 27//37 17//21 2//38
f 6//39 18//22 28//40
f 17//41 29//42 9//43
f 10//44 30//45 18//46
f 3//24 19//23 21//27
f 22//28 20//26 5//25
f 9//47 31//48 19//23
f 20//26 32//49 10//50
f 13//17 33//51 25//31
f 26//32 34//52 14//18
f 23//29 35//53 13//54
f 14//55 36//56 24//30
f 37//57 27//33 15//19
f 16//20 28//34 38//58
f 15//19 25//31 39//59
f 40//60 26//32 16//20
f 17//21 27//37 41//61
f 42//62 28//40 18//22
f 29//42 17//41 43//63
f 44//64 18//46 30//45
f 31//48 9//47 29//65
f 30//66 10//50 32//49
f 33//51 13//17 35//67
f 36//68 14//18 34//52
f 33//69 39//59 25//31
f 26//32 40//60 34//70
f 35//53 23//29 45//71
f 46//72 24//30 36//56
f 37//57 41//61 27//33
f 28//34 42//62 38//58
f 37//57 15//73 39//74
f 40//75 16//76 38//58
f 41//61 43//77 17//21
f 18//22 44//78 42//62
f 43//79 47//80 29//81
f 30//82 48//83 44//84
f 29//42 49//85 31//48
f 32//49 50//86 30//45
f 35//67 51//87 33//88
f 34//89 52//90 36//68
f 39//59 33//69 53//91
f 54//92 34//70 40//60
f 45//71 55//93 35//53
f 36//56 56//94 46//72
f 57//95 41//61 37//57
f 38//58 42//62 58//96
f 37//57 39//74 53//91
f 54//92 40//75 38//58
f 43//77 41//61 57//95
f 58//96 42//62 44//78
f 47//80 43//79 59//97
f 60//98 44//84 48//83
f 49//85 29//42 47//99
f 48//100 30//45 50//86
f 51//87 35//67 55//101
f 56//102 36//68 52//90
f 51//87 53//91 33//88
f 34//89 54//92 52//90
f 55//93 45//71 61//103
f 62//104 46//72 56//94
f 63//105 57//106 37//57
f 38//58 58//107 64//108
f 37//57 53//91 65//109
f 66//110 54//92 38//58
f 63//105 43//111 57//106
f 58//107 44//112 64//108
f 43//111 63//105 59//97
f 60//98 64//108 44//112
f 59//97 67//113 47//99
f 48//100 68//114 60//98
f 47//99 69//115 49//85
f 50//86 70//116 48//100
f 55//93 71//117 51//118
f 52//119 72//120 56//94
f 53//91 51//87 65//109
f 66//110 52//90 54//92
f 61//103 73//121 55//122
f 56//123 74//124 62//104
f 75//125 63//105 37//57
f 38//58 64//108 76//126
f 77//127 37//57 65//109
f 66//110 38//58 78//128
f 75//125 59//97 63//105
f 64//108 60//98 76//126
f 67//113 59//97 79//129
f 80//130 60//98 68//114
f 69//115 47//99 67//113
f 68//114 48//100 70//116
f 71//117 55//93 73//131
f 74//132 56//94 72//120
f 71//133 65//134 51//118
f 52//119 66//135 72//136
f 73//121 61//103 81//137
f 82//138 62//104 74//124
f 83//139 75//125 37//57
f 38//58 76//126 84//140
f 85//141 37//57 77//127
f 78//128 38//58 86//142
f 65//134 71//133 77//143
f 78//144 72//136 66//135
f 59//97 75//125 79//129
f 80//130 76//126 60//98
f 79//129 87//145 67//113
f 68//114 88//146 80//130
f 67//113 89//147 69//115
f 70//116 90//148 68//114
f 73//131 91//149 71//133
f 72//136 92//150 74//132
f 81//137 93//151 73//152
f 74//153 94//154 82//138
f 83//155 79//156 75//125
f 76//126 80//157 84//158
f 83//139 37//57 85//141
f 86//142 38//58 84//140
f 71//133 85//141 77//127
f 78//128 86//142 72//136
f 87//145 79//129 95//159
f 96//160 80//130 88//146
f 89//147 67//113 87//161
f 88//162 68//114 90//148
f 91//149 73//131 93//151
f 94//154 74//132 92//150
f 85//141 71//133 91//149
f 92//150 72//136 86//142
f 93//151 81//137 97//163
f 98//164 82//138 94//154
f 79//156 83//155 95//165
f 96//166 84//158 80//157
f 91//149 83//139 85//141
f 86//142 84//140 92//150
f 91//167 87//145 95//159
f 96//160 88//146 92//168
f 93//151 89//147 87//161
f 88//162 90//148 94//154
f 87//145 91//167 93//151
f 94//154 92//168 88//146
f 89//147 93//151 97//163
f 98//164 94//154 90//148
f 83//139 91//149 95//169
f 96//170 92//150 84//140
