# created by Ethan Wu and Zhan isaac Ling
mtllib model.mtl
v 0.295471 -0.230856 0.330755
v -0.274344 -0.230859 -0.330755
v 0.295474 -0.230859 -0.330755
vn 0.000000 -1.000000 0.000000
v -0.274344 -0.230859 0.330752
v 0.295436 -0.230821 -0.330716
v -0.274306 -0.230821 -0.330716
v 0.295439 -0.230824 0.330708
vn 0.000000 1.000000 0.000000
v -0.274306 -0.230821 0.330713
v 0.295467 -0.202392 -0.330745
vn 0.000000 0.000000 -1.000000
v 0.295444 -0.202450 -0.330724
vn 0.000000 0.000000 1.000000
vn 1.000000 0.000000 0.000000
vn -1.000000 0.000000 0.000000
v -0.274335 -0.202441 0.330755
vn 0.000000 0.000000 1.000000
v -0.274315 -0.202401 0.330707
vn 0.000000 0.000000 -1.000000
vn -1.000000 0.000000 0.000000
vn 1.000000 0.000000 0.000000
v -0.274344 -0.202402 -0.330755
v -0.274306 -0.202440 -0.330716
v 0.295461 -0.202389 0.330739
v 0.295450 -0.202453 0.330727
v -0.268991 -0.202389 0.330739
v -0.269002 -0.202453 0.330727
v -0.274325 -0.202392 -0.329128
vn 0.000000 1.000000 0.000000
v -0.274325 -0.202451 -0.329158
vn 0.000000 -1.000000 0.000000
v 0.206989 -0.202388 -0.109900
v 0.206989 -0.202454 -0.109900
v -0.268970 0.230849 0.330749
v -0.269023 0.230831 0.330714
v -0.268997 -0.202388 -0.329143
v -0.268997 -0.202454 -0.329143
v 0.026324 -0.202394 -0.286227
v 0.026297 -0.202448 -0.286200
v 0.206989 -0.202388 0.111291
v 0.206989 -0.202454 0.111291
v 0.026288 -0.202404 0.269218
v 0.026333 -0.202438 0.269252
v -0.295474 0.230859 0.330752
v -0.295436 0.230821 0.330713
v -0.268967 -0.176462 0.302332
v -0.269027 -0.176482 0.302351
v -0.215268 -0.202406 -0.286234
v -0.215227 -0.202437 -0.286193
v -0.268970 -0.176459 -0.315631
v -0.269024 -0.176486 -0.315657
v -0.295474 -0.202440 -0.329162
v -0.295436 -0.202402 -0.329124
v -0.268972 0.230852 -0.329161
v -0.269021 0.230828 -0.329124
v 0.026338 -0.202403 -0.221223
v 0.026283 -0.202440 -0.221223
v 0.070286 -0.202388 0.111291
v 0.070286 -0.202454 0.111291
v 0.026327 -0.202393 0.147877
v 0.026293 -0.202450 0.147877
v 0.026338 -0.202403 0.204194
v 0.026283 -0.202440 0.204194
v -0.027296 -0.202409 0.269205
v -0.027296 -0.202433 0.269266
v -0.295474 -0.202440 0.330752
v -0.295436 -0.202402 0.330713
v -0.268973 0.205448 0.302326
v -0.269021 0.205480 0.302358
v -0.215275 -0.202403 -0.221223
v -0.215220 -0.202440 -0.221223
v 0.026330 -0.199952 -0.286232
v 0.026291 -0.199990 -0.286194
v 0.026334 -0.202398 -0.156232
v 0.026287 -0.202445 -0.156232
v 0.070286 -0.202388 -0.109900
v 0.070286 -0.202454 -0.109900
v 0.026334 -0.199764 0.204194
v 0.026287 -0.199811 0.204194
v -0.074284 -0.202409 0.269266
v -0.074284 -0.202433 0.269205
v 0.026304 -0.208233 0.269204
v 0.026317 -0.208246 0.269267
v -0.027296 -0.199764 0.269259
v -0.027296 -0.199811 0.269212
v -0.295474 0.230859 -0.329162
v -0.295436 0.230821 -0.329124
v -0.274306 -0.176453 0.302322
v -0.274344 -0.176491 0.302361
v -0.215275 -0.202403 -0.156232
v -0.215220 -0.202440 -0.156232
v -0.215268 -0.199761 -0.221223
v -0.215228 -0.199814 -0.221223
v -0.268970 0.205450 -0.315631
v -0.269024 0.205478 -0.315657
v 0.026334 -0.199948 -0.221223
v 0.026287 -0.199995 -0.221223
v -0.027296 -0.202421 -0.286247
v -0.027296 -0.202421 -0.286181
v 0.026325 -0.199758 0.147877
v 0.026296 -0.199817 0.147877
v 0.026300 -0.208230 -0.286183
v 0.026320 -0.208250 -0.286243
v 0.026330 -0.199768 0.269255
v 0.026291 -0.199807 0.269216
v -0.121272 -0.202409 0.269205
v -0.121272 -0.202433 0.269266
v -0.074284 -0.199764 0.269259
v -0.074284 -0.199811 0.269212
v -0.274306 -0.176453 -0.315625
v -0.274344 -0.176491 -0.315663
v -0.274306 0.205445 0.302322
v -0.274344 0.205483 0.302361
v -0.215275 -0.202403 -0.100904
v -0.215220 -0.202440 -0.100904
v -0.215275 -0.199769 -0.156232
v -0.215220 -0.199806 -0.156232
v -0.215229 -0.208221 0.269216
v -0.215229 -0.202402 0.269216
v -0.215267 -0.202440 0.269255
v -0.215267 -0.208259 0.269255
v -0.215267 -0.199768 -0.286232
v -0.215229 -0.199807 -0.286194
v -0.168260 -0.202421 -0.286181
v -0.168260 -0.202421 -0.286247
v -0.168260 -0.199764 -0.286237
v -0.168260 -0.199811 -0.286190
v -0.274306 0.205445 -0.315625
v -0.274344 0.205483 -0.315663
v 0.026342 -0.199964 -0.156240
v 0.026279 -0.199979 -0.156224
v -0.027296 -0.199938 -0.221223
v -0.027296 -0.200005 -0.221223
v -0.027296 -0.199948 -0.286237
v -0.027296 -0.199995 -0.286190
v -0.027296 -0.199755 0.204194
v -0.027296 -0.199821 0.204194
v -0.168260 -0.202411 0.269204
v -0.168260 -0.202432 0.269267
v -0.121272 -0.199764 0.269259
v -0.121272 -0.199811 0.269212
v -0.215275 -0.202403 -0.045575
v -0.215220 -0.202440 -0.045575
v -0.215268 -0.199761 -0.100904
v -0.215228 -0.199814 -0.100904
v -0.215229 -0.208221 -0.286194
v -0.215267 -0.208259 -0.286232
v -0.168260 -0.199755 -0.156232
v -0.168260 -0.199821 -0.156232
v -0.121272 -0.202421 -0.286181
v -0.121272 -0.202421 -0.286247
v -0.121253 -0.199768 -0.286232
v -0.121291 -0.199807 -0.286194
v -0.027296 -0.199948 -0.156255
v -0.027296 -0.199995 -0.156208
v -0.074284 -0.202421 -0.286247
v -0.074284 -0.202421 -0.286181
v 0.026321 -0.199765 -0.156254
v 0.026299 -0.199810 -0.156210
v -0.027283 -0.199760 0.147891
v -0.027310 -0.199815 0.147863
v -0.168260 -0.199764 0.269259
v -0.168260 -0.199811 0.269212
v -0.074284 -0.199755 0.204194
v -0.074284 -0.199821 0.204194
v -0.215275 -0.202403 0.006295
v -0.215220 -0.202440 0.006295
v -0.215271 -0.199764 -0.045575
v -0.215224 -0.199811 -0.045575
v -0.215267 -0.199768 0.269255
v -0.215229 -0.199807 0.269216
v -0.168260 -0.199755 -0.221223
v -0.168260 -0.199821 -0.221223
v -0.074265 -0.199891 -0.286232
v -0.074303 -0.199929 -0.286194
v -0.074261 -0.199948 -0.221223
v -0.074307 -0.199995 -0.221223
v -0.074265 -0.199952 -0.156251
v -0.074303 -0.199990 -0.156213
v -0.074265 -0.199952 -0.286232
v -0.074303 -0.199990 -0.286194
v -0.027296 -0.199755 -0.100904
v -0.027296 -0.199821 -0.100904
v -0.027288 -0.199757 0.096245
v -0.027304 -0.199819 0.096261
v -0.215275 -0.202403 0.204194
v -0.215220 -0.202440 0.204194
v -0.121272 -0.199755 0.204194
v -0.121272 -0.199821 0.204194
v -0.215275 -0.202403 0.051274
v -0.215220 -0.202440 0.051274
v -0.215275 -0.199769 0.006295
v -0.215220 -0.199806 0.006295
v -0.168260 -0.199755 -0.045575
v -0.168260 -0.199821 -0.045575
v -0.168260 -0.199755 -0.100904
v -0.168260 -0.199821 -0.100904
v -0.121265 -0.199756 -0.221229
v -0.121278 -0.199819 -0.221216
v -0.121253 -0.199891 -0.221242
v -0.121253 -0.199891 -0.286232
v -0.121291 -0.199929 -0.286194
v -0.121291 -0.199929 -0.221204
v -0.027296 -0.199764 -0.156255
v -0.027296 -0.199811 -0.156208
v -0.027296 -0.199755 -0.045575
v -0.027296 -0.199821 -0.045575
v -0.027280 -0.199763 0.051290
v -0.027312 -0.199812 0.051258
v -0.027277 -0.199095 0.096234
v -0.027315 -0.199133 0.096273
v -0.074292 -0.199757 0.147885
v -0.074276 -0.199819 0.147869
v -0.215275 -0.202403 0.147877
v -0.215220 -0.202440 0.147877
v -0.168260 -0.199755 0.204194
v -0.168260 -0.199821 0.204194
v -0.215275 -0.202403 0.096253
v -0.215220 -0.202440 0.096253
v -0.215271 -0.199764 0.051274
v -0.215224 -0.199811 0.051274
v -0.168260 -0.199755 0.006295
v -0.168260 -0.199821 0.006295
v -0.121272 -0.199755 -0.156232
v -0.121272 -0.199821 -0.156232
v -0.215271 -0.199764 0.204194
v -0.215224 -0.199811 0.204194
v -0.074253 -0.199902 -0.221230
v -0.074315 -0.199918 -0.221215
v -0.074270 -0.199759 -0.156239
v -0.074298 -0.199816 -0.156225
v -0.074284 -0.199755 -0.100904
v -0.074284 -0.199821 -0.100904
v -0.074284 -0.199755 -0.045575
v -0.074284 -0.199821 -0.045575
v -0.027286 -0.199758 0.006285
v -0.027306 -0.199818 0.006305
v -0.074289 -0.199756 0.051279
v -0.074278 -0.199820 0.051269
v -0.027277 -0.199095 0.147896
v -0.027315 -0.199133 0.147858
v -0.074297 -0.199760 0.096240
v -0.074271 -0.199815 0.096267
v -0.074303 -0.199095 0.147896
v -0.074265 -0.199133 0.147858
v -0.121272 -0.199755 0.147877
v -0.121272 -0.199821 0.147877
v -0.215271 -0.199764 0.096253
v -0.215224 -0.199811 0.096253
v -0.121272 -0.199755 -0.100904
v -0.121272 -0.199821 -0.100904
v -0.121272 -0.199755 -0.045575
v -0.121272 -0.199821 -0.045575
v -0.074271 -0.199774 -0.221250
vn 0.000000 0.000000 -1.000000
v -0.074297 -0.199801 -0.221196
vn 0.000000 0.000000 1.000000
v -0.074295 -0.199759 0.006283
v -0.074273 -0.199816 0.006306
v -0.027277 -0.199217 0.006275
v -0.027315 -0.199255 0.006314
v -0.074303 -0.199217 0.051293
vn 0.000000 0.000000 1.000000
v -0.074265 -0.199255 0.051255
vn 0.000000 0.000000 -1.000000
v -0.074303 -0.199095 0.096234
v -0.074265 -0.199133 0.096273
v -0.215271 -0.199764 0.147877
v -0.215224 -0.199811 0.147877
v -0.168260 -0.199755 0.147877
v -0.168260 -0.199821 0.147877
v -0.168260 -0.199755 0.051274
v -0.168260 -0.199821 0.051274
v -0.121272 -0.199755 0.006295
v -0.121272 -0.199821 0.006295
v -0.027277 -0.199217 0.051293
v -0.027315 -0.199255 0.051255
v -0.121272 -0.199755 0.096253
v -0.121272 -0.199821 0.096253
v -0.168260 -0.199755 0.096253
v -0.168260 -0.199821 0.096253
v -0.074303 -0.199217 0.006275
v -0.074265 -0.199255 0.006314
v -0.121272 -0.199755 0.051274
v -0.121272 -0.199821 0.051274
g mesh1-geometry-0
usemtl Material.57774a50243e5d429f3a4ea105ec3930
f 1//1 2//1 3//1
f 2//1 1//1 4//1
f 5//2 6//2 7//2
f 8//2 7//2 6//2
f 2//3 9//3 3//3
f 5//4 10//4 6//4
f 9//5 1//5 3//5
f 5//6 7//6 10//6
f 1//7 11//7 4//7
f 8//8 12//8 7//8
f 11//9 2//9 4//9
f 8//10 6//10 12//10
f 9//3 2//3 13//3
f 14//4 6//4 10//4
f 1//5 9//5 15//5
f 16//6 10//6 7//6
f 11//7 1//7 17//7
f 18//8 7//8 12//8
f 2//9 11//9 13//9
f 14//10 12//10 6//10
f 19//11 9//11 13//11
f 14//12 10//12 20//12
f 9//11 21//11 15//11
f 16//12 22//12 10//12
f 17//7 1//7 15//7
f 16//8 7//8 18//8
f 23//7 11//7 17//7
f 18//8 12//8 24//8
f 25//11 12//11 17//11
f 18//12 11//12 26//12
f 9//11 19//11 25//11
f 26//12 20//12 10//12
f 9//11 27//11 21//11
f 22//12 28//12 10//12
f 15//11 21//11 29//11
f 30//12 22//12 16//12
f 15//11 31//11 17//11
f 18//12 32//12 16//12
f 33//7 11//7 23//7
f 24//8 12//8 34//8
f 17//5 35//5 23//5
f 24//6 36//6 18//6
f 12//11 25//11 19//11
f 20//12 26//12 11//12
f 17//11 37//11 25//11
f 26//12 38//12 18//12
f 25//5 39//5 17//5
f 18//6 40//6 25//6
f 11//1 41//1 20//1
f 19//2 42//2 12//2
f 20//3 43//3 25//3
f 25//4 44//4 19//4
f 9//11 25//11 27//11
f 28//12 26//12 10//12
f 21//11 27//11 45//11
f 46//12 28//12 22//12
f 21//11 47//11 29//11
f 30//12 48//12 22//12
f 15//11 29//11 49//11
f 50//12 30//12 16//12
f 15//11 51//11 31//11
f 32//12 52//12 16//12
f 53//11 17//11 31//11
f 32//12 18//12 54//12
f 11//7 33//7 55//7
f 56//8 34//8 12//8
f 43//11 33//11 23//11
f 24//12 34//12 44//12
f 35//5 17//5 39//5
f 40//6 18//6 36//6
f 23//5 35//5 57//5
f 58//6 36//6 24//6
f 37//11 17//11 59//11
f 60//12 18//12 38//12
f 27//11 25//11 37//11
f 38//12 26//12 28//12
f 39//5 25//5 43//5
f 44//6 25//6 40//6
f 41//1 11//1 55//1
f 56//2 12//2 42//2
f 41//3 43//3 20//3
f 19//4 44//4 42//4
f 61//5 45//5 27//5
f 28//6 46//6 62//6
f 21//11 45//11 63//11
f 64//12 46//12 22//12
f 47//11 21//11 65//11
f 66//12 22//12 48//12
f 47//11 49//11 29//11
f 30//12 50//12 48//12
f 15//11 49//11 51//11
f 52//12 50//12 16//12
f 67//5 32//5 51//5
f 52//6 31//6 68//6
f 69//11 17//11 53//11
f 54//12 18//12 70//12
f 71//3 53//3 31//3
f 32//4 54//4 72//4
f 32//7 73//7 54//7
f 53//8 74//8 31//8
f 33//9 41//9 55//9
f 56//10 42//10 34//10
f 33//11 43//11 75//11
f 76//12 44//12 34//12
f 23//5 57//5 43//5
f 44//6 58//6 24//6
f 39//11 77//11 35//11
f 36//12 78//12 40//12
f 77//3 57//3 35//3
f 36//4 58//4 78//4
f 59//11 17//11 79//11
f 80//12 18//12 60//12
f 81//9 37//9 59//9
f 60//10 38//10 82//10
f 39//5 43//5 83//5
f 84//6 44//6 40//6
f 43//3 41//3 75//3
f 76//4 42//4 44//4
f 85//5 63//5 45//5
f 46//6 64//6 86//6
f 45//5 61//5 85//5
f 86//6 62//6 46//6
f 87//3 61//3 27//3
f 28//4 62//4 88//4
f 21//11 63//11 65//11
f 66//12 64//12 22//12
f 65//11 49//11 47//11
f 48//12 50//12 66//12
f 89//5 51//5 49//5
f 50//6 52//6 90//6
f 91//9 31//9 28//9
f 27//10 32//10 92//10
f 32//5 67//5 93//5
f 94//6 68//6 31//6
f 51//5 89//5 67//5
f 68//6 90//6 52//6
f 95//11 17//11 69//11
f 70//12 18//12 96//12
f 71//3 70//3 53//3
f 54//4 69//4 72//4
f 54//7 97//7 69//7
f 70//8 98//8 53//8
f 31//9 91//9 71//9
f 72//10 92//10 32//10
f 73//7 32//7 93//7
f 94//8 31//8 74//8
f 97//7 54//7 73//7
f 74//8 53//8 98//8
f 41//9 33//9 75//9
f 76//10 34//10 42//10
f 83//5 43//5 57//5
f 58//6 44//6 84//6
f 77//11 39//11 99//11
f 100//12 40//12 78//12
f 57//3 77//3 101//3
f 102//4 78//4 58//4
f 79//11 17//11 103//11
f 104//12 18//12 80//12
f 105//9 59//9 79//9
f 80//10 60//10 106//10
f 107//5 38//5 108//5
f 109//6 37//6 110//6
f 37//9 81//9 111//9
f 112//10 82//10 38//10
f 59//9 105//9 81//9
f 82//10 106//10 60//10
f 38//7 91//7 113//7
f 114//8 92//8 37//8
f 37//3 115//3 114//3
f 113//4 116//4 38//4
f 117//7 39//7 83//7
f 84//8 40//8 118//8
f 49//11 65//11 63//11
f 64//12 66//12 50//12
f 119//5 49//5 63//5
f 64//6 50//6 120//6
f 63//5 85//5 119//5
f 120//6 86//6 64//6
f 61//11 121//11 85//11
f 86//12 122//12 62//12
f 61//3 87//3 123//3
f 124//4 88//4 62//4
f 88//7 91//7 28//7
f 27//8 92//8 87//8
f 49//5 119//5 89//5
f 90//6 120//6 50//6
f 67//11 73//11 93//11
f 94//12 74//12 68//12
f 89//11 125//11 67//11
f 68//12 126//12 90//12
f 127//11 17//11 95//11
f 96//12 18//12 128//12
f 71//3 95//3 70//3
f 69//4 96//4 72//4
f 69//7 129//7 96//7
f 95//8 130//8 70//8
f 129//7 69//7 97//7
f 98//8 70//8 130//8
f 91//11 107//11 71//11
f 72//12 110//12 92//12
f 125//11 97//11 73//11
f 74//12 98//12 126//12
f 57//1 117//1 83//1
f 84//2 118//2 58//2
f 39//7 117//7 99//7
f 100//8 118//8 40//8
f 117//5 77//5 99//5
f 100//6 78//6 118//6
f 77//5 117//5 101//5
f 102//6 118//6 78//6
f 117//1 57//1 101//1
f 102//2 58//2 118//2
f 103//11 17//11 131//11
f 132//12 18//12 104//12
f 133//9 79//9 103//9
f 104//10 80//10 134//10
f 79//9 133//9 105//9
f 106//10 134//10 80//10
f 38//5 107//5 135//5
f 136//6 110//6 37//6
f 127//3 107//3 108//3
f 109//4 110//4 128//4
f 81//11 115//11 111//11
f 112//12 116//12 82//12
f 115//3 37//3 111//3
f 112//4 38//4 116//4
f 137//11 81//11 105//11
f 106//12 82//12 138//12
f 91//7 38//7 135//7
f 136//8 37//8 92//8
f 113//7 91//7 139//7
f 140//8 92//8 114//8
f 141//3 114//3 115//3
f 116//4 113//4 142//4
f 114//3 141//3 140//3
f 139//4 142//4 113//4
f 85//11 143//11 119//11
f 120//12 144//12 86//12
f 121//11 61//11 123//11
f 124//12 62//12 122//12
f 143//11 85//11 121//11
f 122//12 86//12 144//12
f 145//3 123//3 87//3
f 88//4 124//4 146//4
f 146//7 91//7 88//7
f 87//8 92//8 145//8
f 89//5 119//5 147//5
f 148//6 120//6 90//6
f 73//11 67//11 125//11
f 126//12 68//12 74//12
f 125//11 89//11 149//11
f 150//12 90//12 126//12
f 108//11 17//11 127//11
f 128//12 18//12 109//12
f 71//3 127//3 95//3
f 96//4 128//4 72//4
f 96//7 151//7 128//7
f 127//8 152//8 95//8
f 151//7 96//7 129//7
f 130//8 95//8 152//8
f 153//11 129//11 97//11
f 98//12 130//12 154//12
f 107//11 91//11 135//11
f 136//12 92//12 110//12
f 107//3 127//3 71//3
f 72//4 128//4 110//4
f 97//11 125//11 153//11
f 154//12 126//12 98//12
f 131//11 17//11 155//11
f 156//12 18//12 132//12
f 157//9 103//9 131//9
f 132//10 104//10 158//10
f 103//9 157//9 133//9
f 134//10 158//10 104//10
f 133//11 137//11 105//11
f 106//12 138//12 134//12
f 128//7 159//7 109//7
f 108//8 160//8 127//8
f 115//11 81//11 161//11
f 162//12 82//12 116//12
f 81//11 137//11 161//11
f 162//12 138//12 82//12
f 139//7 91//7 146//7
f 145//8 92//8 140//8
f 161//11 141//11 115//11
f 116//12 142//12 162//12
f 140//3 163//3 145//3
f 146//4 164//4 139//4
f 143//3 147//3 119//3
f 120//4 148//4 144//4
f 123//11 165//11 121//11
f 122//12 166//12 124//12
f 121//11 167//11 143//11
f 144//12 168//12 122//12
f 123//3 145//3 169//3
f 170//4 146//4 124//4
f 147//11 171//11 89//11
f 90//12 172//12 148//12
f 89//11 173//11 149//11
f 150//12 174//12 90//12
f 149//11 153//11 125//11
f 126//12 154//12 150//12
f 175//11 17//11 108//11
f 109//12 18//12 176//12
f 159//7 128//7 151//7
f 152//8 127//8 160//8
f 177//11 151//11 129//11
f 130//12 152//12 178//12
f 129//11 153//11 177//11
f 178//12 154//12 130//12
f 155//11 17//11 179//11
f 180//12 18//12 156//12
f 181//9 131//9 155//9
f 156//10 132//10 182//10
f 131//9 181//9 157//9
f 158//10 182//10 132//10
f 183//11 133//11 157//11
f 158//12 134//12 184//12
f 137//11 133//11 185//11
f 186//12 134//12 138//12
f 159//9 175//9 109//9
f 108//10 176//10 160//10
f 137//11 187//11 161//11
f 162//12 188//12 138//12
f 141//11 161//11 187//11
f 188//12 162//12 142//12
f 141//5 189//5 190//5
f 191//6 192//6 142//6
f 163//3 140//3 190//3
f 191//4 139//4 164//4
f 147//3 143//3 193//3
f 194//4 144//4 148//4
f 165//11 123//11 169//11
f 170//12 124//12 166//12
f 167//11 121//11 165//11
f 166//12 122//12 168//12
f 167//3 193//3 143//3
f 144//4 194//4 168//4
f 171//11 147//11 193//11
f 194//12 148//12 172//12
f 89//11 171//11 195//11
f 196//12 172//12 90//12
f 89//11 197//11 173//11
f 174//12 198//12 90//12
f 199//5 149//5 173//5
f 174//6 150//6 200//6
f 153//11 149//11 201//11
f 202//12 150//12 154//12
f 203//11 17//11 175//11
f 176//12 18//12 204//12
f 205//11 159//11 151//11
f 152//12 160//12 206//12
f 151//11 177//11 205//11
f 206//12 178//12 152//12
f 201//11 177//11 153//11
f 154//12 178//12 202//12
f 179//11 17//11 207//11
f 208//12 18//12 180//12
f 209//9 155//9 179//9
f 180//10 156//10 210//10
f 155//9 209//9 181//9
f 182//10 210//10 156//10
f 211//11 157//11 181//11
f 182//12 158//12 212//12
f 133//11 183//11 185//11
f 186//12 184//12 134//12
f 157//11 211//11 183//11
f 184//12 212//12 158//12
f 185//11 213//11 137//11
f 138//12 214//12 186//12
f 175//9 159//9 215//9
f 216//10 160//10 176//10
f 187//11 137//11 213//11
f 214//12 138//12 188//12
f 189//5 141//5 187//5
f 188//6 142//6 192//6
f 189//11 163//11 190//11
f 191//12 164//12 192//12
f 163//5 165//5 169//5
f 170//6 166//6 164//6
f 217//5 167//5 165//5
f 166//6 168//6 218//6
f 193//3 167//3 219//3
f 220//4 168//4 194//4
f 193//11 221//11 171//11
f 172//12 222//12 194//12
f 171//11 223//11 195//11
f 196//12 224//12 172//12
f 89//11 195//11 225//11
f 226//12 196//12 90//12
f 89//11 225//11 197//11
f 198//12 226//12 90//12
f 227//11 173//11 197//11
f 198//12 174//12 228//12
f 149//5 199//5 229//5
f 230//6 200//6 150//6
f 231//3 199//3 173//3
f 174//4 200//4 232//4
f 149//7 233//7 201//7
f 202//8 234//8 150//8
f 207//11 17//11 203//11
f 204//12 18//12 208//12
f 215//9 203//9 175//9
f 176//10 204//10 216//10
f 159//11 205//11 215//11
f 216//12 206//12 160//12
f 235//11 205//11 177//11
f 178//12 206//12 236//12
f 177//11 201//11 235//11
f 236//12 202//12 178//12
f 237//9 179//9 207//9
f 208//10 180//10 238//10
f 179//9 237//9 209//9
f 210//10 238//10 180//10
f 209//11 211//11 181//11
f 182//12 212//12 210//12
f 183//11 239//11 185//11
f 186//12 240//12 184//12
f 211//11 241//11 183//11
f 184//12 242//12 212//12
f 213//11 185//11 239//11
f 240//12 186//12 214//12
f 219//11 187//11 213//11
f 214//12 188//12 220//12
f 243//13 189//13 187//13
f 188//14 192//14 244//14
f 163//11 189//11 217//11
f 218//12 192//12 164//12
f 165//5 163//5 217//5
f 218//6 164//6 166//6
f 167//5 217//5 219//5
f 220//6 218//6 168//6
f 221//11 193//11 219//11
f 220//12 194//12 222//12
f 223//11 171//11 221//11
f 222//12 172//12 224//12
f 245//11 195//11 223//11
f 224//12 196//12 246//12
f 195//11 245//11 225//11
f 226//12 246//12 196//12
f 247//5 197//5 225//5
f 226//6 198//6 248//6
f 173//11 227//11 231//11
f 232//12 228//12 174//12
f 197//15 249//15 227//15
f 228//16 250//16 198//16
f 199//11 233//11 229//11
f 230//12 234//12 200//12
f 233//7 149//7 229//7
f 230//8 150//8 234//8
f 199//3 231//3 251//3
f 252//4 232//4 200//4
f 233//9 231//9 201//9
f 202//10 232//10 234//10
f 253//9 207//9 203//9
f 204//10 208//10 254//10
f 203//9 215//9 253//9
f 254//10 216//10 204//10
f 255//11 215//11 205//11
f 206//12 216//12 256//12
f 205//11 235//11 255//11
f 256//12 236//12 206//12
f 231//11 235//11 201//11
f 202//12 236//12 232//12
f 207//9 253//9 237//9
f 238//10 254//10 208//10
f 237//11 257//11 209//11
f 210//12 258//12 238//12
f 211//11 209//11 257//11
f 258//12 210//12 212//12
f 239//11 183//11 241//11
f 242//12 184//12 240//12
f 241//11 211//11 259//11
f 260//12 212//12 242//12
f 221//11 213//11 239//11
f 240//12 214//12 222//12
f 187//11 219//11 243//11
f 244//12 220//12 188//12
f 213//11 221//11 219//11
f 220//12 222//12 214//12
f 189//13 243//13 217//13
f 218//14 244//14 192//14
f 219//5 217//5 243//5
f 244//6 218//6 220//6
f 239//11 223//11 221//11
f 222//12 224//12 240//12
f 241//11 245//11 223//11
f 224//12 246//12 242//12
f 245//3 247//3 225//3
f 226//4 248//4 246//4
f 197//5 247//5 261//5
f 262//6 248//6 198//6
f 227//11 263//11 231//11
f 232//12 264//12 228//12
f 249//15 197//15 261//15
f 262//16 198//16 250//16
f 249//9 245//9 227//9
f 228//10 246//10 250//10
f 233//11 199//11 251//11
f 252//12 200//12 234//12
f 231//9 233//9 251//9
f 252//10 234//10 232//10
f 215//11 255//11 253//11
f 254//12 256//12 216//12
f 263//11 255//11 235//11
f 236//12 256//12 264//12
f 235//11 231//11 263//11
f 264//12 232//12 236//12
f 253//11 265//11 237//11
f 238//12 266//12 254//12
f 257//11 237//11 265//11
f 266//12 238//12 258//12
f 257//11 259//11 211//11
f 212//12 260//12 258//12
f 223//11 239//11 241//11
f 242//12 240//12 224//12
f 245//11 241//11 259//11
f 260//12 242//12 246//12
f 247//3 245//3 267//3
f 268//4 246//4 248//4
f 247//11 249//11 261//11
f 262//12 250//12 248//12
f 263//11 227//11 269//11
f 270//12 228//12 264//12
f 245//9 249//9 267//9
f 268//10 250//10 246//10
f 259//11 227//11 245//11
f 246//12 228//12 260//12
f 265//11 253//11 255//11
f 256//12 254//12 266//12
f 255//11 263//11 265//11
f 266//12 264//12 256//12
f 265//11 269//11 257//11
f 258//12 270//12 266//12
f 259//11 257//11 269//11
f 270//12 258//12 260//12
f 249//11 247//11 267//11
f 268//12 248//12 250//12
f 227//11 259//11 269//11
f 270//12 260//12 228//12
f 269//11 265//11 263//11
f 264//12 266//12 270//12
