# created by Ethan Wu and Zhan isaac Ling
mtllib model.mtl
v 0.295534 -0.195612 -0.324173
v 0.295543 -0.234068 0.324183
v 0.295531 -0.234078 -0.324176
vn 1.000000 0.000000 0.000000
v 0.295537 -0.195615 0.324176
v 0.060940 -0.217954 -0.324196
vn 0.000000 0.000000 -1.000000
v 0.275199 -0.195609 0.092789
vn 0.000000 1.000000 0.000000
v 0.167420 -0.195622 0.324189
vn 0.000000 0.000000 1.000000
v -0.150421 -0.234073 -0.324186
v 0.167420 -0.195618 -0.324186
v 0.275199 -0.195609 0.027956
v -0.150417 -0.234073 0.324183
v -0.146216 -0.229324 -0.324196
v 0.060940 -0.200492 -0.324196
v 0.167428 -0.195611 -0.036868
v 0.167425 -0.195610 0.092783
v 0.275199 -0.195609 -0.036877
v -0.146204 -0.229332 0.324192
vn 0.827072 -0.562096 0.000000
vn 0.746628 -0.665242 0.000000
v -0.147900 -0.199839 -0.324189
vn 0.000000 0.000000 -1.000000
v -0.143386 -0.223664 -0.324192
v -0.129275 -0.195613 -0.324179
v 0.251952 -0.195611 -0.036869
v -0.129275 -0.195625 0.324192
v -0.147906 -0.199844 0.324192
vn 0.000000 0.000000 1.000000
v -0.155707 -0.237545 -0.324186
vn 0.549010 -0.835816 0.000000
vn 0.435217 -0.900325 0.000000
v -0.144425 -0.205135 -0.324192
v -0.152632 -0.195632 -0.324192
v -0.143358 -0.223674 -0.324134
vn 0.944371 -0.328881 0.000000
v -0.140498 -0.217954 -0.324196
v -0.140498 -0.200492 -0.324196
v -0.143372 -0.223669 0.324196
v -0.144425 -0.205135 0.324192
v -0.152625 -0.195625 0.324186
v -0.155707 -0.237545 0.324186
vn 0.757005 0.653409 0.000000
vn 0.900325 0.435217 0.000000
vn 0.694321 0.719666 0.000000
v -0.142433 -0.211148 -0.324189
v -0.142089 -0.217471 -0.324196
v -0.142066 -0.217473 0.324186
v -0.161722 -0.239534 -0.324186
vn 0.187366 -0.982290 0.000000
v -0.158288 -0.192776 -0.324186
v -0.142433 -0.211148 0.324189
vn 0.982290 0.187366 0.000000
v -0.158288 -0.192776 0.324186
vn 0.328881 0.944371 0.000000
v -0.146258 -0.219378 0.324173
v -0.152650 -0.195650 -0.324133
v -0.152657 -0.195658 0.324140
vn 0.965926 0.258819 0.000000
vn 0.694321 0.719666 0.000000
v -0.146311 -0.219348 0.324153
vn -0.694321 -0.719666 0.000000
vn -0.965926 -0.258819 0.000000
v -0.269324 0.239899 -0.324183
vn 0.965926 0.258819 0.000000
v -0.269351 0.239853 -0.324144
vn -0.694321 -0.719666 0.000000
vn -0.965926 -0.258819 0.000000
vn 0.997313 -0.073254 0.000000
v -0.161722 -0.239534 0.324186
v -0.146262 -0.219377 -0.324183
v -0.146308 -0.219350 -0.324144
v -0.172470 -0.226390 0.324192
vn 0.000000 0.000000 1.000000
v -0.172457 -0.226366 0.324134
vn 0.000000 0.000000 -1.000000
v -0.269328 0.239892 0.324189
v -0.269347 0.239860 0.324137
v -0.172475 -0.226397 -0.324186
v -0.172453 -0.226359 -0.324140
vn 0.000000 0.000000 1.000000
v -0.168048 -0.239899 -0.324186
vn -0.073254 -0.997313 0.000000
v -0.164492 -0.191491 -0.324186
v -0.164492 -0.191491 0.324186
vn 0.073254 0.997313 0.000000
vn 0.258819 -0.965926 0.000000
vn -0.258819 0.965926 0.000000
v -0.295543 0.232877 0.324173
vn -0.258819 0.965926 0.000000
v -0.295490 0.232846 0.324153
vn 0.258819 -0.965926 0.000000
v -0.295539 0.232875 -0.324183
v -0.295494 0.232848 -0.324144
v -0.168048 -0.239899 0.324186
vn -0.965926 -0.258819 0.000000
vn 0.965926 0.258819 0.000000
v -0.174251 -0.238614 -0.324186
vn -0.328881 -0.944371 0.000000
v -0.170817 -0.191855 -0.324186
v -0.170817 -0.191855 0.324186
vn -0.187366 0.982290 0.000000
v -0.174251 -0.238614 0.324186
v -0.179911 -0.235767 -0.324186
vn -0.562096 -0.827072 0.000000
v -0.176832 -0.193844 -0.324186
v -0.176832 -0.193844 0.324186
vn -0.435217 0.900325 0.000000
v -0.179911 -0.235767 0.324186
v -0.184644 -0.231555 -0.324183
vn -0.757005 -0.653409 0.000000
v -0.182124 -0.197327 -0.324189
v -0.182130 -0.197320 0.324183
vn -0.653409 0.757005 0.000000
v -0.184638 -0.231550 0.324189
v -0.188120 -0.226257 0.324186
vn -0.900325 -0.435217 0.000000
v -0.186342 -0.202053 -0.324186
vn -0.827072 0.562096 0.000000
v -0.186342 -0.202053 0.324186
v -0.188120 -0.226257 -0.324186
v -0.190113 -0.220243 0.324183
vn -0.982290 -0.187366 0.000000
v -0.189189 -0.207713 0.324186
v -0.189189 -0.207713 -0.324186
vn -0.944371 0.328881 0.000000
v -0.190113 -0.220243 -0.324183
v -0.190482 -0.213916 0.324173
vn -0.997313 0.073254 0.000000
v -0.190482 -0.213916 -0.324173
v 0.295517 -0.234021 -0.324149
v 0.295505 -0.234031 0.324144
v 0.295514 -0.195671 -0.324154
vn -1.000000 0.000000 0.000000
v 0.295511 -0.195668 0.324150
v 0.251965 -0.234018 0.092794
vn 0.000000 1.000000 0.000000
v 0.060940 -0.217954 -0.324131
v 0.275199 -0.195674 0.092789
vn 0.000000 -1.000000 0.000000
v 0.167420 -0.195661 0.324137
vn 0.000000 0.000000 -1.000000
v -0.150437 -0.234026 0.324144
v 0.251940 -0.234024 0.027956
v -0.150433 -0.234026 -0.324142
v 0.167420 -0.195664 -0.324140
v 0.275199 -0.195674 0.027956
v 0.165503 -0.234023 0.092801
v 0.251979 -0.234075 0.027956
v 0.251976 -0.195665 0.092804
vn 1.000000 0.000000 0.000000
v 0.165510 -0.234018 -0.036877
v 0.251947 -0.234023 -0.036864
v -0.146216 -0.229324 -0.324131
v 0.060940 -0.200492 -0.324131
v 0.167411 -0.195671 -0.036886
v 0.167414 -0.195673 0.092794
v 0.275199 -0.195674 -0.036877
vn 0.000000 -1.000000 0.000000
v -0.146228 -0.229316 0.324134
v 0.165529 -0.234076 0.092775
v 0.251944 -0.195618 0.092773
v 0.251955 -0.234081 0.092783
v 0.251974 -0.195670 0.027956
v 0.251945 -0.195612 0.027956
vn -1.000000 0.000000 0.000000
v 0.251973 -0.234076 -0.036890
vn -0.746628 0.665242 0.000000
vn -0.827072 0.562096 0.000000
v -0.147930 -0.199865 -0.324138
vn 0.000000 0.000000 1.000000
v -0.129275 -0.195669 -0.324147
v 0.053230 -0.212129 -0.324131
vn 0.000000 0.000000 1.000000
v 0.251968 -0.195672 -0.036885
v 0.165516 -0.195674 -0.036877
vn 0.000000 -1.000000 0.000000
v -0.129275 -0.195658 0.324135
v -0.147924 -0.199860 0.324133
vn 0.000000 0.000000 -1.000000
v -0.155727 -0.237504 -0.324140
vn -0.549010 0.835816 0.000000
vn -0.435217 0.900325 0.000000
vn -0.998774 0.049494 0.000000
vn 0.000000 -1.000000 0.000000
v -0.144455 -0.205150 -0.324135
vn -0.944371 0.328881 0.000000
v -0.140498 -0.217954 -0.324131
v -0.140498 -0.200492 -0.324131
v 0.053230 -0.206093 -0.324131
v 0.165516 -0.195674 0.092789
vn 0.000000 -1.000000 0.000000
v -0.143372 -0.223669 0.324131
v -0.144455 -0.205150 0.324135
v -0.155727 -0.237504 0.324140
vn -0.900325 -0.435217 0.000000
vn -0.757005 -0.653409 0.000000
v -0.142472 -0.211155 -0.324137
v -0.142089 -0.217471 -0.324131
v 0.047193 -0.212129 -0.324131
v -0.142111 -0.217469 0.324140
v -0.161731 -0.239489 -0.324140
vn -0.187366 0.982290 0.000000
v -0.158303 -0.192819 -0.324140
v -0.142472 -0.211155 0.324137
vn -0.982290 -0.187366 0.000000
v -0.158303 -0.192819 0.324140
vn -0.328881 -0.944371 0.000000
vn -0.694321 -0.719666 0.000000
vn -0.997313 0.073254 0.000000
v 0.047193 -0.206093 -0.324131
v -0.161731 -0.239489 0.324140
v -0.168044 -0.239853 -0.324140
vn 0.073254 0.997313 0.000000
v -0.164495 -0.191536 -0.324140
v -0.164495 -0.191536 0.324140
vn -0.073254 -0.997313 0.000000
v -0.168044 -0.239853 0.324140
v -0.174236 -0.238571 -0.324140
vn 0.328881 0.944371 0.000000
v -0.170808 -0.191900 -0.324140
v -0.170808 -0.191900 0.324140
vn 0.187366 -0.982290 0.000000
v -0.174236 -0.238571 0.324140
v -0.179886 -0.235730 -0.324140
vn 0.562096 0.827072 0.000000
v -0.176812 -0.193886 -0.324140
v -0.176812 -0.193886 0.324140
vn 0.435217 -0.900325 0.000000
v -0.179886 -0.235730 0.324140
v -0.184605 -0.231521 -0.324144
vn 0.757005 0.653409 0.000000
v -0.182101 -0.197354 -0.324136
v -0.182095 -0.197360 0.324144
vn 0.653409 -0.757005 0.000000
v -0.184611 -0.231526 0.324136
v -0.188079 -0.226237 0.324140
vn 0.900325 0.435217 0.000000
v -0.186304 -0.202079 -0.324140
vn 0.827072 -0.562096 0.000000
v -0.186304 -0.202079 0.324140
v -0.188079 -0.226237 -0.324140
v -0.190060 -0.220233 0.324145
vn 0.982290 0.187366 0.000000
v -0.189146 -0.207728 0.324140
v -0.189146 -0.207728 -0.324140
vn 0.944371 -0.328881 0.000000
v -0.190060 -0.220233 -0.324145
v -0.190420 -0.213921 0.324153
vn 0.997313 -0.073254 0.000000
v -0.190420 -0.213921 -0.324153
vn 0.000000 -1.000000 0.000000
v 0.165523 -0.234081 -0.036877
vn 0.998774 -0.049494 0.000000
vn 0.000000 1.000000 0.000000
v 0.053230 -0.212129 -0.324196
vn 0.000000 0.000000 -1.000000
v 0.053230 -0.206093 -0.324196
v 0.047193 -0.212129 -0.324196
v 0.047193 -0.206093 -0.324196
v 0.165516 -0.195609 -0.036877
vn 0.000000 1.000000 0.000000
vn 0.000000 1.000000 0.000000
v 0.165516 -0.195609 0.092789
vn 0.000000 1.000000 0.000000
vn 0.694321 0.719666 0.000000
v -0.149569 -0.199885 -0.303264
v -0.145720 -0.199885 -0.303409
v -0.147635 -0.199885 -0.303084
vn 0.000000 -1.000000 0.000000
v -0.151390 -0.199885 -0.303940
v -0.147635 -0.199820 -0.303084
v -0.145720 -0.199820 -0.303409
v -0.149569 -0.199820 -0.303264
vn 0.000000 1.000000 0.000000
v -0.151390 -0.199820 -0.303940
v -0.143955 -0.199885 -0.304220
v -0.143955 -0.199820 -0.304220
v -0.152975 -0.199885 -0.305063
v -0.152975 -0.199820 -0.305063
v -0.142459 -0.199885 -0.305459
v -0.142459 -0.199820 -0.305459
v -0.154214 -0.199885 -0.306559
v -0.154214 -0.199820 -0.306559
v -0.141336 -0.199885 -0.307044
v -0.141336 -0.199820 -0.307044
v -0.155024 -0.199885 -0.308324
v -0.155024 -0.199820 -0.308324
v -0.140661 -0.199885 -0.308865
v -0.140661 -0.199820 -0.308865
v -0.155350 -0.199885 -0.310239
v -0.155350 -0.199820 -0.310239
v -0.140480 -0.199885 -0.310799
v -0.140480 -0.199820 -0.310799
v -0.155170 -0.199885 -0.312172
v -0.155170 -0.199820 -0.312172
v -0.140806 -0.199885 -0.312714
v -0.140806 -0.199820 -0.312714
v -0.154494 -0.199885 -0.313994
v -0.154494 -0.199820 -0.313994
v -0.141616 -0.199885 -0.314479
v -0.141616 -0.199820 -0.314479
v -0.153371 -0.199885 -0.315578
v -0.153371 -0.199820 -0.315578
v -0.142856 -0.199885 -0.315974
v -0.142856 -0.199820 -0.315974
v -0.151875 -0.199885 -0.316818
v -0.151875 -0.199820 -0.316818
v -0.144440 -0.199885 -0.317098
v -0.144440 -0.199820 -0.317098
v -0.150110 -0.199885 -0.317628
v -0.150110 -0.199820 -0.317628
v -0.146261 -0.199885 -0.317773
v -0.146261 -0.199820 -0.317773
v -0.148195 -0.199885 -0.317954
v -0.148195 -0.199820 -0.317954
v 0.137306 -0.195609 0.286354
v 0.137306 -0.195609 -0.288463
v -0.089692 -0.195609 0.286354
vn 0.000000 1.000000 0.000000
vt 0.0 0.0
vt 1.0 0.0
vt 0.0 1.0
v 0.137306 -0.195674 0.286354
v -0.089692 -0.195674 0.286354
v 0.137306 -0.195674 -0.288463
vn 0.000000 -1.000000 0.000000
v -0.089692 -0.195609 -0.288463
vt 1.0 1.0
v -0.089692 -0.195674 -0.288463
v -0.158308 -0.174364 0.305057
v -0.158308 -0.174364 -0.301391
v -0.256409 0.191751 0.305057
vn 0.965926 0.258819 0.000000
vt 0.0 0.0
vt 1.0 0.0
vt 0.0 1.0
v -0.158371 -0.174381 0.305057
v -0.256472 0.191734 0.305057
v -0.158371 -0.174381 -0.301391
vn -0.965926 -0.258819 0.000000
v -0.256409 0.191751 -0.301391
vt 1.0 1.0
v -0.256472 0.191734 -0.301391
g mesh1-geometry-0
usemtl Material.57774a50243e5d429f3a4ea105ec3930
f 1//1 2//1 3//1
f 2//1 1//1 4//1
f 3//2 5//2 1//2
f 6//3 4//3 1//3
f 7//4 2//4 4//4
f 5//2 3//2 8//2
f 1//2 5//2 9//2
f 4//3 6//3 7//3
f 6//3 1//3 10//3
f 2//4 7//4 11//4
f 5//2 8//2 12//2
f 13//2 9//2 5//2
f 14//3 1//3 9//3
f 6//3 15//3 7//3
f 10//3 1//3 16//3
f 11//4 7//4 17//4
f 12//5 11//6 8//6
f 18//7 12//7 8//7
f 5//2 12//2 19//2
f 9//2 13//2 20//2
f 21//3 1//3 14//3
f 16//3 1//3 21//3
f 17//4 7//4 22//4
f 17//8 23//8 11//8
f 11//6 12//5 17//5
f 11//9 24//10 8//9
f 25//7 12//7 18//7
f 18//7 8//7 26//7
f 27//11 17//5 12//5
f 25//7 19//7 12//7
f 5//2 19//2 28//2
f 20//2 13//2 29//2
f 17//4 22//4 30//4
f 17//8 31//8 23//8
f 11//8 23//8 32//8
f 24//10 11//9 33//10
f 26//7 8//7 24//7
f 18//12 31//13 25//13
f 18//2 29//2 25//2
f 32//14 18//12 26//14
f 26//2 29//2 18//2
f 17//5 27//11 30//11
f 34//7 19//7 25//7
f 28//2 19//2 35//2
f 20//2 29//2 26//2
f 30//4 22//4 36//4
f 30//8 31//8 17//8
f 31//13 18//12 23//12
f 31//4 22//4 23//4
f 18//12 32//14 23//12
f 23//4 22//4 32//4
f 11//8 32//8 33//8
f 33//10 37//15 24//10
f 26//7 24//7 38//7
f 39//16 25//13 31//13
f 25//2 29//2 34//2
f 26//14 40//17 32//14
f 41//18 42//19 43//19
f 32//20 26//20 44//21
f 45//22 32//14 26//14
f 42//23 43//23 46//24
f 35//25 30//11 27//11
f 19//7 34//7 35//7
f 25//13 39//16 34//16
f 28//2 35//2 29//2
f 22//4 39//4 36//4
f 39//8 30//8 36//8
f 30//11 35//25 36//25
f 30//8 39//8 31//8
f 39//4 22//4 31//4
f 33//8 32//8 40//8
f 37//15 33//10 47//15
f 38//7 24//7 37//7
f 40//17 26//14 38//17
f 34//2 29//2 35//2
f 42//19 41//18 48//18
f 49//21 44//21 26//20
f 32//26 50//26 41//26
f 44//27 51//27 43//27
f 32//14 45//22 52//22
f 53//24 46//24 43//23
f 26//2 54//2 45//2
f 46//28 55//28 42//28
f 34//16 36//25 35//25
f 36//25 34//16 39//16
f 33//8 40//8 47//8
f 47//15 56//29 37//15
f 38//7 37//7 57//7
f 38//17 58//30 40//17
f 41//31 54//31 48//31
f 49//32 55//32 44//32
f 54//2 26//2 48//2
f 49//28 42//28 55//28
f 50//26 32//26 52//26
f 53//27 43//27 51//27
f 54//31 41//31 50//31
f 51//32 44//32 55//32
f 45//33 59//33 52//33
f 53//34 60//34 46//34
f 45//2 54//2 61//2
f 62//28 55//28 46//28
f 47//8 40//8 58//8
f 56//29 47//15 63//29
f 57//7 37//7 56//7
f 58//30 38//17 57//30
f 50//26 52//26 59//26
f 60//27 53//27 51//27
f 59//35 54//35 50//35
f 51//36 55//36 60//36
f 59//33 45//33 61//33
f 62//34 46//34 60//34
f 54//35 59//35 61//35
f 62//36 60//36 55//36
f 47//8 58//8 63//8
f 63//29 64//37 56//29
f 57//7 56//7 65//7
f 57//30 66//38 58//30
f 63//8 58//8 66//8
f 64//37 63//29 67//37
f 65//7 56//7 64//7
f 66//38 57//30 65//38
f 63//8 66//8 67//8
f 67//37 68//39 64//37
f 65//7 64//7 69//7
f 65//38 70//40 66//38
f 67//8 66//8 70//8
f 68//39 67//37 71//39
f 69//7 64//7 68//7
f 70//40 65//38 69//40
f 67//8 70//8 71//8
f 71//39 72//41 68//39
f 69//7 68//7 73//7
f 69//40 74//42 70//40
f 71//8 70//8 74//8
f 72//41 71//39 75//41
f 73//7 68//7 72//7
f 74//42 69//40 73//42
f 71//8 74//8 75//8
f 76//43 72//41 75//41
f 73//7 72//7 77//7
f 77//44 74//42 73//42
f 75//8 74//8 78//8
f 72//41 76//43 79//43
f 75//8 78//8 76//8
f 77//7 72//7 79//7
f 74//42 77//44 78//44
f 80//45 79//43 76//43
f 76//8 78//8 81//8
f 77//7 79//7 82//7
f 82//46 78//44 77//44
f 79//43 80//45 83//45
f 76//8 81//8 80//8
f 78//44 82//46 81//46
f 82//7 79//7 83//7
f 84//47 83//45 80//45
f 80//8 81//8 84//8
f 85//47 81//46 82//46
f 82//7 83//7 85//7
f 83//45 84//47 85//47
f 81//46 85//47 84//47
g mesh1-geometry-1
usemtl Material.90b00bf69165eda831fe702671104217
f 86//48 87//48 88//48
f 89//48 88//48 87//48
f 86//49 90//49 87//49
f 88//28 91//28 86//28
f 88//50 89//50 92//50
f 89//51 87//51 93//51
f 94//49 87//49 90//49
f 95//49 90//49 86//49
f 96//28 86//28 91//28
f 97//28 91//28 88//28
f 93//50 92//50 89//50
f 98//50 88//50 92//50
f 94//51 93//51 87//51
f 99//49 94//49 90//49
f 90//52 100//52 101//52
f 95//49 102//49 90//49
f 103//49 95//49 86//49
f 96//49 103//49 86//49
f 104//28 96//28 91//28
f 91//28 97//28 105//28
f 97//50 88//50 106//50
f 93//50 107//50 92//50
f 108//50 88//50 98//50
f 92//53 101//53 98//53
f 109//51 93//51 94//51
f 94//49 99//49 96//49
f 99//49 90//49 102//49
f 110//2 111//2 112//2
f 90//28 101//28 99//28
f 113//52 101//52 100//52
f 103//49 102//49 95//49
f 114//54 103//54 95//54
f 100//52 115//52 113//52
f 103//49 96//49 102//49
f 96//55 94//55 12//56
f 96//57 104//57 116//57
f 27//28 104//28 91//28
f 117//28 105//28 97//28
f 105//58 118//58 91//58
f 106//50 88//50 119//50
f 106//59 120//59 97//59
f 93//59 121//59 107//59
f 119//50 88//50 108//50
f 98//53 113//53 108//53
f 113//53 98//53 101//53
f 121//51 93//51 109//51
f 94//60 122//60 109//60
f 109//56 12//56 94//55
f 102//49 96//49 99//49
f 96//61 123//62 94//61
f 102//63 99//63 106//63
f 111//2 110//2 15//2
f 107//28 99//28 101//28
f 101//64 107//64 113//64
f 103//8 14//8 102//8
f 102//60 106//60 115//60
f 103//54 114//54 21//54
f 119//52 113//52 115//52
f 116//57 104//57 124//57
f 42//57 96//57 116//57
f 12//56 109//56 19//65
f 104//57 27//57 124//57
f 125//28 27//28 91//28
f 126//28 105//28 117//28
f 97//59 120//59 117//59
f 125//58 91//58 118//58
f 118//58 105//58 127//58
f 119//64 113//64 106//64
f 14//8 103//8 21//8
f 119//60 115//60 106//60
f 120//66 106//66 128//66
f 128//59 107//59 121//59
f 119//53 108//53 113//53
f 129//51 121//51 109//51
f 122//60 130//60 109//60
f 43//60 122//60 94//60
f 131//62 94//61 123//62
f 123//57 96//57 42//57
f 107//63 106//63 99//63
f 106//64 113//64 107//64
f 124//67 130//67 116//68
f 124//28 126//28 116//28
f 42//23 116//68 43//23
f 116//28 126//28 42//28
f 30//65 19//65 109//56
f 124//57 27//57 132//57
f 133//28 27//28 125//28
f 126//58 127//58 105//58
f 42//28 126//28 117//28
f 120//59 128//59 117//59
f 134//58 125//58 118//58
f 118//28 127//28 134//28
f 107//66 128//66 106//66
f 117//59 128//59 121//59
f 135//51 121//51 129//51
f 109//60 130//60 129//60
f 122//68 116//68 130//67
f 122//51 121//51 130//51
f 122//68 43//23 116//68
f 43//51 121//51 122//51
f 131//60 43//60 94//60
f 123//62 136//69 131//62
f 137//57 123//57 42//57
f 130//67 124//67 138//70
f 132//28 126//28 124//28
f 43//23 139//71 42//23
f 42//72 117//53 43//72
f 19//65 30//65 35//73
f 133//57 132//57 27//57
f 132//70 138//70 124//67
f 126//28 133//28 125//28
f 140//58 127//58 126//58
f 140//58 125//58 134//58
f 140//28 134//28 127//28
f 121//53 43//72 117//53
f 135//51 138//51 121//51
f 135//60 129//60 138//60
f 135//73 35//73 30//65
f 130//60 138//60 129//60
f 130//51 121//51 138//51
f 139//60 43//60 131//60
f 141//69 131//62 136//69
f 136//57 123//57 137//57
f 137//71 42//23 139//71
f 133//28 126//28 132//28
f 35//73 135//73 132//70
f 138//70 132//70 135//73
f 125//58 140//58 126//58
f 141//60 139//60 131//60
f 136//69 142//74 141//69
f 143//57 136//57 137//57
f 139//71 144//75 137//71
f 144//60 139//60 141//60
f 145//74 141//69 142//74
f 142//57 136//57 143//57
f 143//75 137//71 144//75
f 145//60 144//60 141//60
f 142//74 146//76 145//74
f 147//57 142//57 143//57
f 144//75 148//77 143//75
f 148//60 144//60 145//60
f 149//76 145//74 146//76
f 146//57 142//57 147//57
f 147//77 143//75 148//77
f 149//60 148//60 145//60
f 146//76 150//78 149//76
f 151//57 146//57 147//57
f 148//77 152//79 147//77
f 152//60 148//60 149//60
f 153//78 149//76 150//78
f 150//57 146//57 151//57
f 151//79 147//77 152//79
f 153//60 152//60 149//60
f 150//78 154//80 153//78
f 155//57 150//57 151//57
f 152//79 156//81 151//79
f 156//60 152//60 153//60
f 157//80 153//78 154//80
f 154//57 150//57 155//57
f 155//81 151//79 156//81
f 157//60 156//60 153//60
f 157//80 154//80 158//82
f 159//57 154//57 155//57
f 155//81 156//81 159//83
f 160//60 156//60 157//60
f 161//82 158//82 154//80
f 158//60 160//60 157//60
f 161//57 154//57 159//57
f 160//83 159//83 156//81
f 158//82 161//82 162//84
f 163//60 160//60 158//60
f 164//57 161//57 159//57
f 159//83 160//83 164//85
f 165//84 162//84 161//82
f 162//60 163//60 158//60
f 163//85 164//85 160//83
f 165//57 161//57 164//57
f 162//84 165//84 166//86
f 166//60 163//60 162//60
f 164//85 163//85 167//86
f 167//57 165//57 164//57
f 167//86 166//86 165//84
f 166//86 167//86 163//85
g mesh1-geometry-2
usemtl Material.1a9b9f2ffc3bd045e8f97d5062c1c924
f 2//87 112//87 3//87
f 112//87 2//87 11//87
f 3//87 112//87 100//87
f 112//87 11//87 110//87
f 111//54 95//54 112//54
f 112//87 168//87 100//87
f 3//87 100//87 115//87
f 3//87 115//87 8//87
f 8//87 110//87 11//87
f 168//87 112//87 110//87
f 95//54 111//54 114//54
f 100//87 168//87 115//87
f 168//87 8//87 115//87
f 110//87 8//87 168//87
f 14//88 110//88 168//88
f 110//88 14//88 15//88
g mesh1-geometry-3
usemtl Material.3ac6031be7abcb165f3b2ce0a1a4e393
f 10//89 111//89 6//89
f 16//89 114//89 10//89
f 111//89 10//89 114//89
f 114//89 16//89 21//89
g mesh1-geometry-4
usemtl Material.b2cdaf4394d1a4f850458878b81c7fa1
f 5//90 169//90 13//90
f 169//90 5//90 28//90
f 170//90 13//90 169//90
f 13//90 170//90 29//90
f 169//90 28//90 171//90
f 29//90 170//90 172//90
f 171//90 28//90 172//90
f 29//90 172//90 28//90
g mesh1-geometry-5
usemtl Material.dc7a3ca9ca091ddbf48733c3a604f557
f 9//91 173//91 14//91
f 15//91 22//91 7//91
f 114//92 15//92 111//92
f 20//91 173//91 9//91
f 14//92 114//92 21//92
f 174//93 14//93 173//93
f 22//91 15//91 174//91
f 15//92 114//92 14//92
f 20//91 174//91 173//91
f 14//93 174//93 15//93
f 22//91 174//91 20//91
f 32//94 20//89 26//94
f 20//89 32//94 22//89
g mesh1-geometry-6
usemtl Material.efc39ebbb3cc1048a02a4c783fdc17fc
f 171//2 170//2 169//2
f 170//2 171//2 172//2
g mesh2-geometry-0
usemtl Material.90b00bf69165eda831fe702671104217
f 175//95 176//95 177//95
f 176//95 175//95 178//95
f 179//96 180//96 181//96
f 182//96 181//96 180//96
f 176//95 178//95 183//95
f 184//96 182//96 180//96
f 183//95 178//95 185//95
f 186//96 182//96 184//96
f 183//95 185//95 187//95
f 188//96 186//96 184//96
f 187//95 185//95 189//95
f 190//96 186//96 188//96
f 187//95 189//95 191//95
f 192//96 190//96 188//96
f 191//95 189//95 193//95
f 194//96 190//96 192//96
f 191//95 193//95 195//95
f 196//96 194//96 192//96
f 195//95 193//95 197//95
f 198//96 194//96 196//96
f 195//95 197//95 199//95
f 200//96 198//96 196//96
f 199//95 197//95 201//95
f 202//96 198//96 200//96
f 199//95 201//95 203//95
f 204//96 202//96 200//96
f 203//95 201//95 205//95
f 206//96 202//96 204//96
f 203//95 205//95 207//95
f 208//96 206//96 204//96
f 207//95 205//95 209//95
f 210//96 206//96 208//96
f 207//95 209//95 211//95
f 212//96 210//96 208//96
f 211//95 209//95 213//95
f 214//96 210//96 212//96
f 211//95 213//95 215//95
f 216//96 214//96 212//96
f 215//95 213//95 217//95
f 218//96 214//96 216//96
f 215//95 217//95 219//95
f 220//96 218//96 216//96
f 219//95 217//95 221//95
f 222//96 218//96 220//96
g mesh3-geometry-0
usemtl Material.faca4c01f4ad453eabbac40374a1bb14
f 223/1/97 224/2/97 225/3/97
f 226/1/98 227/3/98 228/2/98
f 229/4/97 225/3/97 224/2/97
f 230/4/98 228/2/98 227/3/98
g mesh4-geometry-0
usemtl Material.ff2b76dd9d013336f15786b2b7f09a50
f 231/5/99 232/6/99 233/7/99
f 234/5/100 235/7/100 236/6/100
f 237/8/99 233/7/99 232/6/99
f 238/8/100 236/6/100 235/7/100
